<svg xmlns="http://www.w3.org/2000/svg" xmlns:xlink="http://www.w3.org/1999/xlink" width="58" height="58" viewBox="0 0 58 58">
  <defs>
    <clipPath id="clip-path">
      <rect id="Rectángulo_36950" data-name="Rectángulo 36950" width="58" height="58" transform="translate(240 5451)" fill="#fc8116"/>
    </clipPath>
  </defs>
  <g id="Enmascarar_grupo_118" data-name="Enmascarar grupo 118" transform="translate(-240 -5451)" clip-path="url(#clip-path)">
    <g id="politica" transform="translate(240 5453.818)">
      <path id="Trazado_136443" data-name="Trazado 136443" d="M51.884,0h-37.5a5.88,5.88,0,0,0-5.9,5.837L8.234,38.862H.915A.952.952,0,0,0,0,39.84v4.545A7.964,7.964,0,0,0,7.514,52.31v.055H39.1V52.3c.235.01.377.061.538.061h.022a7.939,7.939,0,0,0,7.893-7.981V15.5h9.534A.962.962,0,0,0,58,14.51V6.171A6.16,6.16,0,0,0,51.884,0ZM7.925,50.486H7.919a6.087,6.087,0,0,1-6.04-6.1V40.741H31.7v3.627a7.95,7.95,0,0,0,2.321,5.641,3.373,3.373,0,0,1,.494.477Zm37.747-6.1a6.065,6.065,0,0,1-6.015,6.1h-.019a6.1,6.1,0,0,1-6.058-6.117V39.84a.973.973,0,0,0-.939-.977H10.113l.242-33.019a4,4,0,0,1,4.024-3.965h33.07A6.409,6.409,0,0,0,45.672,6.2Zm10.449-38.2v7.432H47.551V6.194a4.35,4.35,0,0,1,4.306-4.316h.026a4.282,4.282,0,0,1,4.239,4.3Zm0,0" fill="#fc8116"/>
      <path id="Trazado_136444" data-name="Trazado 136444" d="M22.056,23.119,26.9,26.43a.925.925,0,0,0,1.05,0l4.828-3.31a7.3,7.3,0,0,0,2.916-5.565v-6.7a.918.918,0,0,0-.5-.843L27.818,6.386a.923.923,0,0,0-.821,0L19.637,10a.917.917,0,0,0-.5.843v6.709a7.3,7.3,0,0,0,2.918,5.564Zm-1.04-11.687,6.4-3.157,6.4,3.166v6.114a5.413,5.413,0,0,1-2.1,4.012L27.4,24.517l-4.3-2.949a5.41,5.41,0,0,1-2.092-4.013Zm0,0" fill="#fc8116"/>
      <path id="Trazado_136445" data-name="Trazado 136445" d="M25.826,18.974a.938.938,0,0,0,.665.282h0a.94.94,0,0,0,.664-.278l3.736-3.738a.94.94,0,1,0-1.328-1.33L26.5,16.978,25.27,15.74a.94.94,0,0,0-1.335,1.323Zm0,0" fill="#fc8116"/>
      <path id="Trazado_136446" data-name="Trazado 136446" d="M39.1,29.117H16.555a.939.939,0,0,0,0,1.879H39.1a.939.939,0,0,0,0-1.879Zm0,0" fill="#fc8116"/>
      <path id="Trazado_136447" data-name="Trazado 136447" d="M39.1,33.462H16.555a.939.939,0,0,0,0,1.879H39.1a.939.939,0,0,0,0-1.879Zm0,0" fill="#fc8116"/>
    </g>
  </g>
</svg>
