<svg xmlns="http://www.w3.org/2000/svg" xmlns:xlink="http://www.w3.org/1999/xlink" width="58" height="58" viewBox="0 0 58 58">
  <defs>
    <clipPath id="clip-path">
      <rect id="Rectángulo_36963" data-name="Rectángulo 36963" width="58" height="58" transform="translate(1160 -6249)" fill="#fc8116"/>
    </clipPath>
  </defs>
  <g id="Enmascarar_grupo_120" data-name="Enmascarar grupo 120" transform="translate(-1160 6249)" clip-path="url(#clip-path)">
    <g id="pasos" transform="translate(1160 -6249)">
      <path id="Trazado_136459" data-name="Trazado 136459" d="M5.318,17.693H20.01a5.323,5.323,0,0,0,5.317-5.317V5.318A5.323,5.323,0,0,0,20.01,0H5.318A5.323,5.323,0,0,0,0,5.318v7.059a5.323,5.323,0,0,0,5.317,5.317ZM1.7,5.318A3.622,3.622,0,0,1,5.318,1.7H20.01a3.622,3.622,0,0,1,3.618,3.618v7.059a3.622,3.622,0,0,1-3.618,3.618H5.318A3.622,3.622,0,0,1,1.7,12.377Z" fill="#fc8116"/>
      <path id="Trazado_136460" data-name="Trazado 136460" d="M52.683,40.306H37.991a5.323,5.323,0,0,0-5.317,5.317v7.058A5.323,5.323,0,0,0,37.991,58H48.8a.85.85,0,0,0,0-1.7H37.991a3.622,3.622,0,0,1-3.618-3.618V45.623a3.622,3.622,0,0,1,3.618-3.618H52.683A3.622,3.622,0,0,1,56.3,45.623v7.058A3.622,3.622,0,0,1,52.683,56.3H52.2a.85.85,0,0,0,0,1.7h.487A5.323,5.323,0,0,0,58,52.682V45.623A5.323,5.323,0,0,0,52.683,40.306Z" fill="#fc8116"/>
      <path id="Trazado_136461" data-name="Trazado 136461" d="M16.338,25.47V32.53a5.323,5.323,0,0,0,5.317,5.317H36.346a5.323,5.323,0,0,0,5.317-5.317V25.47a5.323,5.323,0,0,0-5.317-5.317H21.655a5.323,5.323,0,0,0-5.317,5.317Zm23.626,0V32.53a3.622,3.622,0,0,1-3.618,3.618H21.655a3.622,3.622,0,0,1-3.618-3.618V25.47a3.622,3.622,0,0,1,3.618-3.618H36.346a3.622,3.622,0,0,1,3.618,3.618Z" fill="#fc8116"/>
      <path id="Trazado_136462" data-name="Trazado 136462" d="M14.268,26.724,9.5,23.268a2.238,2.238,0,0,0-2.248-.235,2.266,2.266,0,0,0-.763.552,7.005,7.005,0,0,1-.825-1.563A2.927,2.927,0,1,0,.19,24.09,12.9,12.9,0,0,0,1.735,27a.85.85,0,0,0,1.386-.983A11.207,11.207,0,0,1,1.78,23.49a1.228,1.228,0,0,1,2.3-.868A8.639,8.639,0,0,0,6.157,25.8a.85.85,0,0,0,1.437-.525l.023-.233a.561.561,0,0,1,.888-.4L13.27,28.1a.561.561,0,0,1-.1.966l-5.375,2.4a.561.561,0,0,1-.787-.57l.087-.835a.849.849,0,0,0-.423-.826A11.2,11.2,0,0,1,5.286,28.3.85.85,0,1,0,4.231,29.63a12.791,12.791,0,0,0,1.117.79l-.031.3a2.266,2.266,0,0,0,2.242,2.5,2.271,2.271,0,0,0,.927-.2l5.375-2.4a2.26,2.26,0,0,0,.407-3.893Z" fill="#fc8116"/>
      <path id="Trazado_136463" data-name="Trazado 136463" d="M30.6,47.152,25.84,43.695a2.237,2.237,0,0,0-2.248-.235,2.267,2.267,0,0,0-.763.552A7.01,7.01,0,0,1,22,42.449a2.927,2.927,0,1,0-5.477,2.068,12.888,12.888,0,0,0,5.157,6.329l-.031.3a2.266,2.266,0,0,0,2.243,2.5,2.27,2.27,0,0,0,.926-.2l5.375-2.4a2.26,2.26,0,0,0,.406-3.893Zm-.769,1.888a.551.551,0,0,1-.329.454l-5.375,2.4a.561.561,0,0,1-.787-.57l.087-.835a.849.849,0,0,0-.423-.826,11.176,11.176,0,0,1-4.891-5.743,1.228,1.228,0,1,1,2.3-.868,8.645,8.645,0,0,0,2.079,3.174A.85.85,0,0,0,23.93,45.7l.024-.236a.561.561,0,0,1,.888-.4l4.764,3.457a.551.551,0,0,1,.228.512Z" fill="#fc8116"/>
      <path id="Trazado_136464" data-name="Trazado 136464" d="M11.7,5.21h1.068v8.123a.85.85,0,0,0,1.7,0V4.36a.85.85,0,0,0-.85-.85H11.705a.85.85,0,0,0,0,1.7Z" fill="#fc8116"/>
      <path id="Trazado_136465" data-name="Trazado 136465" d="M26.372,27.11a.85.85,0,0,0,1-.67,1.447,1.447,0,0,1,2.865.233l-.031.242a5.111,5.111,0,0,1-.813,1.614c-1.423,2.034-2.273,3.146-2.729,3.743-.558.73-.766,1-.618,1.485a.893.893,0,0,0,.581.587,7.729,7.729,0,0,0,1.958.08c.681,0,1.613-.007,2.894-.023a.85.85,0,0,0-.022-1.7c-1.041.013-2.152.019-3,.021.506-.671,1.258-1.689,2.33-3.221a6.653,6.653,0,0,0,1.086-2.243,5.31,5.31,0,0,0,.066-.539,3.146,3.146,0,0,0-6.232-.609.85.85,0,0,0,.67,1Z" fill="#fc8116"/>
      <path id="Trazado_136466" data-name="Trazado 136466" d="M48.483,46.856a3.146,3.146,0,0,0-6.232-.609.85.85,0,0,0,1.667.327A1.447,1.447,0,1,1,45.337,48.3a.85.85,0,0,0,0,1.7A1.446,1.446,0,1,1,43.9,51.651a1.469,1.469,0,0,1-.014-.2.85.85,0,0,0-1.7,0,3.146,3.146,0,1,0,5.294-2.3,3.137,3.137,0,0,0,1-2.3Z" fill="#fc8116"/>
    </g>
  </g>
</svg>
