<svg xmlns="http://www.w3.org/2000/svg" xmlns:xlink="http://www.w3.org/1999/xlink" width="58" height="58" viewBox="0 0 58 58">
  <defs>
    <clipPath id="clip-path">
      <rect id="Rectángulo_36966" data-name="Rectángulo 36966" width="58" height="58" transform="translate(1337 -5743)" fill="#fc8116"/>
    </clipPath>
  </defs>
  <g id="Enmascarar_grupo_125" data-name="Enmascarar grupo 125" transform="translate(-1337 5743)" clip-path="url(#clip-path)">
    <g id="contrato" transform="translate(1337 -5743)">
      <path id="Trazado_136505" data-name="Trazado 136505" d="M57.893,13.749a2.9,2.9,0,0,0-5.316-.7l-.483.841a.966.966,0,0,0-1.314.348l-2.455,4.185-.841-.483a.966.966,0,1,0-.967,1.672l.841.483L39.143,34.335l-2.03,5.422-.967,1.807A2.9,2.9,0,0,0,36.3,44.7l-2.175,2.667-.609-1.527a1.933,1.933,0,0,0-3.451-.271l-.348.589-.328-3.866a1.933,1.933,0,0,0-3.76-.454l-2.378,7.133a.966.966,0,0,0,.609,1.218.837.837,0,0,0,.3.077.966.966,0,0,0,.918-.657l2.368-7.133.338,3.924a1.933,1.933,0,0,0,3.586.832l.358-.59.6,1.518a1.933,1.933,0,0,0,3.305.493L37.887,45.8a2.977,2.977,0,0,0,.764.1,2.9,2.9,0,0,0,2.522-1.431l.967-1.614,3.682-4.475,8.3-14.411.841.483a.969.969,0,0,1,.358,1.324l-3.866,6.7a.96.96,0,1,0,1.633,1.005l3.866-6.7a2.9,2.9,0,0,0-1.063-3.963l-.841-.483,2.416-4.185a.967.967,0,0,0-.348-1.314l.483-.841a2.9,2.9,0,0,0,.29-2.242Zm-3.644.27a.966.966,0,0,1,.59-.454,1.015,1.015,0,0,1,.734.1.967.967,0,0,1,.454.589,1.015,1.015,0,0,1-.1.734l-.483.841-1.682-.967ZM41.076,41l-.483-.28-1.43-.832,1.372-3.673,3.044,1.759Zm-2.9,2.793a.966.966,0,0,1-.29-1.266l.483-.84,1.681.966-.483.831a.966.966,0,0,1-1.392.309Zm6.5-7.4-3.344-1.933,7.732-13.4L52.413,23Zm8.7-15.068-3.344-1.933,1.933-3.344,3.344,1.933Zm0,0" fill="#fc8116"/>
      <path id="Trazado_136506" data-name="Trazado 136506" d="M15.251,43.314,11.83,46.726,9.781,44.677a.967.967,0,1,0-1.363,1.372L10.467,48.1a1.948,1.948,0,0,0,2.735,0l3.412-3.421a.967.967,0,0,0-1.363-1.363Zm0,0" fill="#fc8116"/>
      <path id="Trazado_136507" data-name="Trazado 136507" d="M3.866,45.914a8.215,8.215,0,1,0,16.431,0,.967.967,0,0,0-1.933,0,6.283,6.283,0,1,1-2.513-5.026.967.967,0,0,0,1.16-1.546A8.215,8.215,0,0,0,3.866,45.914Zm0,0" fill="#fc8116"/>
      <path id="Trazado_136508" data-name="Trazado 136508" d="M34.794,7.737a.967.967,0,0,0,0-1.933H9.665A.967.967,0,0,0,8.7,6.77v3.866a.966.966,0,0,0,.967.967H34.794a.967.967,0,0,0,0-1.933H10.632V7.737Zm0,0" fill="#fc8116"/>
      <path id="Trazado_136509" data-name="Trazado 136509" d="M12.565,13.536a.967.967,0,0,0,0,1.933h19.33a.967.967,0,0,0,0-1.933Zm0,0" fill="#fc8116"/>
      <path id="Trazado_136510" data-name="Trazado 136510" d="M37.694,20.3H16.431a.967.967,0,0,0,0,1.933H37.694a.967.967,0,0,0,0-1.933Zm0,0" fill="#fc8116"/>
      <path id="Trazado_136511" data-name="Trazado 136511" d="M28.029,27.067a.967.967,0,0,0-.967-.967H7.732a.967.967,0,1,0,0,1.933h19.33A.966.966,0,0,0,28.029,27.067Zm0,0" fill="#fc8116"/>
      <path id="Trazado_136512" data-name="Trazado 136512" d="M37.694,26.1H30.928a.967.967,0,1,0,0,1.933h6.766a.967.967,0,0,0,0-1.933Zm0,0" fill="#fc8116"/>
      <path id="Trazado_136513" data-name="Trazado 136513" d="M17.4,32.866a.967.967,0,0,0,0-1.933H7.732a.967.967,0,0,0,0,1.933Zm0,0" fill="#fc8116"/>
      <path id="Trazado_136514" data-name="Trazado 136514" d="M21.263,32.866h6.766a.967.967,0,0,0,0-1.933H21.263a.967.967,0,0,0,0,1.933Zm0,0" fill="#fc8116"/>
      <path id="Trazado_136515" data-name="Trazado 136515" d="M43.493,44.464a.967.967,0,0,0-.967.967V55.1a.966.966,0,0,1-.967.966H2.9a.966.966,0,0,1-.967-.966V2.9A.967.967,0,0,1,2.9,1.938H41.56a.967.967,0,0,1,.967.967V21.055a.967.967,0,1,0,1.933,0V2.9A2.9,2.9,0,0,0,41.56,0H2.9A2.9,2.9,0,0,0,0,2.9V55.1a2.9,2.9,0,0,0,2.9,2.9H41.56a2.9,2.9,0,0,0,2.9-2.9V45.43A.967.967,0,0,0,43.493,44.464Zm0,0" fill="#fc8116"/>
    </g>
  </g>
</svg>
