<svg xmlns="http://www.w3.org/2000/svg" xmlns:xlink="http://www.w3.org/1999/xlink" width="58" height="58" viewBox="0 0 58 58">
  <defs>
    <clipPath id="clip-path">
      <rect id="Rectángulo_36978" data-name="Rectángulo 36978" width="58" height="58" transform="translate(1514 -5237)" fill="#fc8116"/>
    </clipPath>
  </defs>
  <g id="Enmascarar_grupo_127" data-name="Enmascarar grupo 127" transform="translate(-1514 5237)" clip-path="url(#clip-path)">
    <g id="responsabilidad" transform="translate(1513.065 -5237.936)">
      <path id="Trazado_136527" data-name="Trazado 136527" d="M11.226,16.839V18.71a5.606,5.606,0,0,0,2.588,4.72,2.421,2.421,0,0,1-1.874.892H11.8a4.325,4.325,0,0,0-4.32,4.32v5.035a.935.935,0,0,0,.935.935H25.258a.935.935,0,0,0,.935-.935V30.871h7.484v2.806a.935.935,0,0,0,.935.935H51.451a.935.935,0,0,0,.935-.935V28.643a4.325,4.325,0,0,0-4.32-4.32H47.93a2.419,2.419,0,0,1-1.873-.892,5.608,5.608,0,0,0,2.588-4.72V16.839a5.613,5.613,0,1,0-11.226,0V18.71a5.606,5.606,0,0,0,2.588,4.72,2.4,2.4,0,0,1-1.054.735,4.327,4.327,0,0,0-3.983-2.649h-.137a2.419,2.419,0,0,1-1.873-.892,5.608,5.608,0,0,0,2.588-4.72V14.032a5.613,5.613,0,1,0-11.226,0V15.9a5.606,5.606,0,0,0,2.588,4.72,2.421,2.421,0,0,1-1.874.892H24.9a4.325,4.325,0,0,0-3.983,2.65,2.4,2.4,0,0,1-1.054-.735,5.609,5.609,0,0,0,2.588-4.721V16.839a5.613,5.613,0,0,0-11.226,0Zm13.1,15.9H9.355v-4.1A2.452,2.452,0,0,1,11.8,26.193h.137a4.406,4.406,0,0,0,.706-.063l.337.337a5.443,5.443,0,0,0,7.6.1v3.365a.935.935,0,0,0,.935.935h2.806Zm23.744-6.548a2.452,2.452,0,0,1,2.449,2.449v4.1H35.548V30.871h2.806a.935.935,0,0,0,.935-.935V26.57a5.443,5.443,0,0,0,7.6-.1l.337-.337a4.406,4.406,0,0,0,.706.063ZM39.29,16.839a3.742,3.742,0,0,1,7.484,0V18.71a3.742,3.742,0,0,1-7.484,0Zm3.742,7.484a5.6,5.6,0,0,0,1.254-.146,4.3,4.3,0,0,0,1.055,1.149,3.664,3.664,0,0,1-4.618,0,4.289,4.289,0,0,0,1.055-1.149,5.6,5.6,0,0,0,1.254.146ZM26.193,14.032a3.742,3.742,0,0,1,7.484,0V15.9a3.742,3.742,0,0,1-7.484,0Zm3.742,7.484a5.6,5.6,0,0,0,1.254-.146,4.3,4.3,0,0,0,1.055,1.149,3.664,3.664,0,0,1-4.618,0,4.289,4.289,0,0,0,1.055-1.149,5.6,5.6,0,0,0,1.254.146Zm-7.484,4.32A2.452,2.452,0,0,1,24.9,23.387h.137a4.406,4.406,0,0,0,.706-.063l.337.337a5.452,5.452,0,0,0,7.71,0l.337-.337a4.406,4.406,0,0,0,.706.063h.137a2.452,2.452,0,0,1,2.449,2.449V29H22.452Zm-3.3-.512a3.664,3.664,0,0,1-4.618,0,4.289,4.289,0,0,0,1.055-1.149,5.44,5.44,0,0,0,2.507,0A4.271,4.271,0,0,0,19.147,25.324Zm1.433-8.486V18.71a3.742,3.742,0,1,1-7.484,0V16.839a3.742,3.742,0,0,1,7.484,0Z" fill="#fc8116"/>
      <path id="Trazado_136528" data-name="Trazado 136528" d="M53.036,40.524,33.869,45.752a3.6,3.6,0,0,0-.466-.575l-6.548-6.548a.936.936,0,0,0-.661-.273H15.9v-.935a.935.935,0,0,0-.935-.935H1.871a.935.935,0,0,0-.935.935V58a.935.935,0,0,0,.935.935H9.355A.935.935,0,0,0,10.29,58v-.935h4.677a.935.935,0,0,0,.935-.935v-.935h6.4l5.469,1.822a.923.923,0,0,0,.6,0L58.3,46.723a.934.934,0,0,0,.631-.884V44.9a4.545,4.545,0,0,0-5.9-4.379ZM8.419,57.064H2.806V38.355H8.419Zm5.613-1.871H10.29V38.355h3.742ZM57.064,45.171l-29,9.97L22.747,53.37a.963.963,0,0,0-.3-.048H15.9v-13.1h9.9L32.08,46.5a1.711,1.711,0,0,1-2.419,2.419l-4.677-4.677-1.323,1.323,4.677,4.677a3.568,3.568,0,0,0,6.1-2.7L53.528,42.33A2.677,2.677,0,0,1,57.064,44.9Z" fill="#fc8116"/>
      <path id="Trazado_136529" data-name="Trazado 136529" d="M38.506,2.223q-.909-.279-1.842-.5L36.23,3.54q.874.208,1.724.471Z" fill="#fc8116"/>
      <path id="Trazado_136530" data-name="Trazado 136530" d="M57.064,29.935c0,.421-.009.841-.029,1.257l1.869.086q.031-.668.031-1.343,0-.283-.006-.566l-1.871.036c0,.177.006.354.006.529Z" fill="#fc8116"/>
      <path id="Trazado_136531" data-name="Trazado 136531" d="M34.793,1.341c-.616-.1-1.253-.19-1.892-.255l-.19,1.862q.894.09,1.77.239Z" fill="#fc8116"/>
      <path id="Trazado_136532" data-name="Trazado 136532" d="M56.434,24.091l1.827-.4c-.137-.621-.295-1.243-.471-1.85l-1.8.521q.247.856.441,1.732Z" fill="#fc8116"/>
      <path id="Trazado_136533" data-name="Trazado 136533" d="M42.077,3.591c-.58-.268-1.173-.517-1.762-.743L39.646,4.6q.838.321,1.647.7Z" fill="#fc8116"/>
      <path id="Trazado_136534" data-name="Trazado 136534" d="M56.967,27.621l1.864-.159q-.081-.957-.224-1.9l-1.85.28q.135.878.21,1.775Z" fill="#fc8116"/>
      <path id="Trazado_136535" data-name="Trazado 136535" d="M52.144,14.352l1.53-1.076q-.549-.782-1.148-1.525l-1.458,1.173q.561.7,1.076,1.428Z" fill="#fc8116"/>
      <path id="Trazado_136536" data-name="Trazado 136536" d="M55.439,20.662l1.759-.64c-.218-.6-.457-1.194-.711-1.77l-1.712.755q.358.814.664,1.655Z" fill="#fc8116"/>
      <path id="Trazado_136537" data-name="Trazado 136537" d="M51.28,10.3c-.426-.463-.877-.921-1.339-1.362L48.651,10.3q.645.616,1.252,1.274Z" fill="#fc8116"/>
      <path id="Trazado_136538" data-name="Trazado 136538" d="M45.433,5.419c-.533-.338-1.088-.664-1.648-.969l-.893,1.645q.786.428,1.54.906Z" fill="#fc8116"/>
      <path id="Trazado_136539" data-name="Trazado 136539" d="M55.78,38.21l1.782.57c.195-.608.37-1.227.521-1.839l-1.816-.449q-.216.871-.487,1.718Z" fill="#fc8116"/>
      <path id="Trazado_136540" data-name="Trazado 136540" d="M58.756,33.182l-1.86-.207q-.1.892-.256,1.767l1.842.331c.111-.623.2-1.259.274-1.892Z" fill="#fc8116"/>
      <path id="Trazado_136541" data-name="Trazado 136541" d="M48.518,7.67c-.488-.407-1-.8-1.505-1.176L45.91,8q.723.528,1.408,1.1Z" fill="#fc8116"/>
      <path id="Trazado_136542" data-name="Trazado 136542" d="M54,17.4l1.659-.866c-.293-.56-.608-1.119-.938-1.66l-1.6.972Q53.587,16.606,54,17.4Z" fill="#fc8116"/>
      <path id="Trazado_136543" data-name="Trazado 136543" d="M3.935,22.166l-1.793-.535c-.181.611-.345,1.232-.485,1.849l1.824.414Q3.68,23.018,3.935,22.166Z" fill="#fc8116"/>
      <path id="Trazado_136544" data-name="Trazado 136544" d="M5.181,18.82l-1.705-.767c-.259.574-.5,1.17-.726,1.769l1.753.652q.312-.841.678-1.654Z" fill="#fc8116"/>
      <path id="Trazado_136545" data-name="Trazado 136545" d="M6.86,15.664l-1.589-.987c-.334.539-.655,1.1-.953,1.657l1.651.879Q6.389,16.423,6.86,15.664Z" fill="#fc8116"/>
      <path id="Trazado_136546" data-name="Trazado 136546" d="M8.938,12.756,7.489,11.572q-.6.738-1.161,1.515L7.85,14.176Q8.372,13.449,8.938,12.756Z" fill="#fc8116"/>
      <path id="Trazado_136547" data-name="Trazado 136547" d="M2.827,30.993c-.014-.351-.021-.7-.021-1.057,0-.245,0-.487.009-.73l-1.87-.051c-.007.258-.01.52-.01.782q0,.565.022,1.127Z" fill="#fc8116"/>
      <path id="Trazado_136548" data-name="Trazado 136548" d="M3.143,25.648l-1.849-.292c-.1.627-.179,1.264-.237,1.893l1.863.172Q3,26.525,3.143,25.648Z" fill="#fc8116"/>
      <path id="Trazado_136549" data-name="Trazado 136549" d="M1.092,32.969q.1.957.26,1.892L3.2,34.545q-.15-.876-.243-1.77Z" fill="#fc8116"/>
      <path id="Trazado_136550" data-name="Trazado 136550" d="M14.136,7.878,13.043,6.359q-.775.557-1.513,1.163L12.72,8.968Q13.409,8.4,14.136,7.878Z" fill="#fc8116"/>
      <path id="Trazado_136551" data-name="Trazado 136551" d="M20.414,4.525l-.657-1.752c-.6.224-1.189.469-1.762.728l.771,1.7q.811-.366,1.648-.68Z" fill="#fc8116"/>
      <path id="Trazado_136552" data-name="Trazado 136552" d="M23.831,3.495l-.417-1.823c-.617.141-1.24.306-1.848.489l.541,1.791C22.674,3.781,23.254,3.628,23.831,3.495Z" fill="#fc8116"/>
      <path id="Trazado_136553" data-name="Trazado 136553" d="M27.356,2.928l-.174-1.863c-.627.058-1.265.139-1.9.242l.3,1.848c.585-.094,1.175-.172,1.771-.226Z" fill="#fc8116"/>
      <path id="Trazado_136554" data-name="Trazado 136554" d="M17.165,5.994l-.881-1.65c-.561.3-1.117.62-1.653.955l.991,1.588Q16.375,6.415,17.165,5.994Z" fill="#fc8116"/>
      <path id="Trazado_136555" data-name="Trazado 136555" d="M29.855,2.806c.355,0,.718.006,1.075.018L30.994.955c-.351-.013-.7-.02-1.056-.02-.286,0-.57,0-.853.011l.057,1.871c.236-.007.472-.011.713-.011Z" fill="#fc8116"/>
      <path id="Trazado_136556" data-name="Trazado 136556" d="M11.376,10.15,10.1,8.783c-.457.428-.911.882-1.35,1.352l1.368,1.277c.409-.44.834-.864,1.26-1.262Z" fill="#fc8116"/>
    </g>
  </g>
</svg>
