<svg xmlns="http://www.w3.org/2000/svg" xmlns:xlink="http://www.w3.org/1999/xlink" width="58" height="58" viewBox="0 0 58 58">
  <defs>
    <clipPath id="clip-path">
      <rect id="Rectángulo_36991" data-name="Rectángulo 36991" width="58" height="58" transform="translate(1869 -4242)" fill="#fc8116"/>
    </clipPath>
  </defs>
  <g id="Enmascarar_grupo_138" data-name="Enmascarar grupo 138" transform="translate(-1869 4242)" clip-path="url(#clip-path)">
    <g id="trabajo-colaborativo" transform="translate(1869.042 -4242)">
      <path id="Trazado_136683" data-name="Trazado 136683" d="M8.53,49.218a3.821,3.821,0,0,0,2.72-1.127.861.861,0,0,0-1.218-1.218,2.126,2.126,0,0,1-3,0A.861.861,0,0,0,5.81,48.092,3.82,3.82,0,0,0,8.53,49.218Zm0,0" fill="#fc8116"/>
      <path id="Trazado_136684" data-name="Trazado 136684" d="M10.149,31.756A8.535,8.535,0,0,0,0,40.132v5.222a8.5,8.5,0,0,0,2.367,5.888A8.5,8.5,0,0,0,0,57.138.862.862,0,0,0,.862,58H16.2a.862.862,0,0,0,.862-.862,8.473,8.473,0,0,0-2.366-5.892,8.527,8.527,0,0,0,1.528-2.2.861.861,0,1,0-1.553-.746A6.808,6.808,0,0,1,1.723,45.354V41.847a6.027,6.027,0,0,0,2.87-2.735c1.57,1.142,4.875,2.84,10.744,3v3.242a.861.861,0,1,0,1.723,0V40.132a8.533,8.533,0,0,0-6.91-8.376Zm0,21.974a8.5,8.5,0,0,0,3.233-1.364,6.759,6.759,0,0,1,1.9,3.911H1.777a6.784,6.784,0,0,1,1.9-3.913A8.48,8.48,0,0,0,8.53,53.883a8.591,8.591,0,0,0,1.619-.154Zm5.188-13.341C7.525,40.162,4.794,37.024,4.771,37a.862.862,0,0,0-1.53.543A3.256,3.256,0,0,1,1.73,39.862a6.806,6.806,0,0,1,13.607.27Zm0,0" fill="#fc8116"/>
      <path id="Trazado_136685" data-name="Trazado 136685" d="M6.05,42.956a.861.861,0,0,0-1.723,0v1.885a.861.861,0,1,0,1.723,0Zm0,0" fill="#fc8116"/>
      <path id="Trazado_136686" data-name="Trazado 136686" d="M12.732,44.841V42.956a.861.861,0,1,0-1.723,0v1.885a.861.861,0,0,0,1.723,0Zm0,0" fill="#fc8116"/>
      <path id="Trazado_136687" data-name="Trazado 136687" d="M26.239,16.49a3.845,3.845,0,0,0,5.44,0,.861.861,0,0,0-1.218-1.218,2.126,2.126,0,0,1-3,0,.861.861,0,0,0-1.218,1.218Zm0,0" fill="#fc8116"/>
      <path id="Trazado_136688" data-name="Trazado 136688" d="M21.29,26.4H36.626a.862.862,0,0,0,.862-.862,8.474,8.474,0,0,0-2.366-5.892,8.527,8.527,0,0,0,2.366-5.892V8.53a8.554,8.554,0,0,0-.965-3.945.862.862,0,0,0-1.527.8,6.727,6.727,0,0,1,.77,3.147v.257C27.954,8.56,25.223,5.422,25.2,5.395a.861.861,0,0,0-1.53.543A3.258,3.258,0,0,1,22.158,8.26a6.811,6.811,0,0,1,8.094-6.415,6.723,6.723,0,0,1,2.622,1.115.861.861,0,0,0,.992-1.408,8.437,8.437,0,0,0-3.288-1.4A8.535,8.535,0,0,0,20.429,8.53v5.222A8.5,8.5,0,0,0,22.8,19.64a8.5,8.5,0,0,0-2.367,5.9.862.862,0,0,0,.862.862Zm.862-16.153a6.029,6.029,0,0,0,2.87-2.735c1.57,1.142,4.874,2.84,10.744,3v3.242a6.807,6.807,0,0,1-13.614,0V10.245Zm1.956,10.517a8.48,8.48,0,0,0,4.851,1.519,8.6,8.6,0,0,0,1.619-.154,8.468,8.468,0,0,0,3.234-1.362,6.759,6.759,0,0,1,1.9,3.91H22.206a6.782,6.782,0,0,1,1.9-3.913Zm0,0" fill="#fc8116"/>
      <path id="Trazado_136689" data-name="Trazado 136689" d="M25.618,14.1a.861.861,0,0,0,.861-.862V11.354a.861.861,0,1,0-1.723,0v1.885A.861.861,0,0,0,25.618,14.1Zm0,0" fill="#fc8116"/>
      <path id="Trazado_136690" data-name="Trazado 136690" d="M32.3,14.1a.861.861,0,0,0,.862-.862V11.354a.862.862,0,1,0-1.723,0v1.885A.861.861,0,0,0,32.3,14.1Zm0,0" fill="#fc8116"/>
      <path id="Trazado_136691" data-name="Trazado 136691" d="M50.889,46.874a2.126,2.126,0,0,1-3,0,.861.861,0,0,0-1.218,1.218,3.846,3.846,0,0,0,5.44,0,.861.861,0,0,0-1.218-1.218Zm0,0" fill="#fc8116"/>
      <path id="Trazado_136692" data-name="Trazado 136692" d="M57.917,40.132a8.534,8.534,0,0,0-6.91-8.377,8.537,8.537,0,0,0-10.149,8.377v5.222a8.5,8.5,0,0,0,2.367,5.888,8.5,8.5,0,0,0-2.367,5.9.862.862,0,0,0,.862.862H57.055a.861.861,0,0,0,.862-.862,8.472,8.472,0,0,0-2.366-5.892,8.526,8.526,0,0,0,2.366-5.892Zm-8.53-6.807a6.86,6.86,0,0,1,1.294.123,6.811,6.811,0,0,1,5.513,6.684v.257C48.383,40.162,45.651,37.024,45.628,37a.861.861,0,0,0-1.53.543,3.256,3.256,0,0,1-1.511,2.323,6.814,6.814,0,0,1,6.8-6.538ZM42.634,56.277a6.784,6.784,0,0,1,1.9-3.913,8.48,8.48,0,0,0,4.851,1.519,8.594,8.594,0,0,0,1.619-.154,8.471,8.471,0,0,0,3.234-1.362,6.759,6.759,0,0,1,1.9,3.91Zm8.046-4.239a6.885,6.885,0,0,1-1.293.123,6.815,6.815,0,0,1-6.807-6.807V41.847a6.028,6.028,0,0,0,2.87-2.735c1.57,1.142,4.875,2.84,10.744,3v3.242a6.812,6.812,0,0,1-5.514,6.684Zm0,0" fill="#fc8116"/>
      <path id="Trazado_136693" data-name="Trazado 136693" d="M46.908,44.841V42.956a.862.862,0,1,0-1.723,0v1.885a.862.862,0,0,0,1.723,0Zm0,0" fill="#fc8116"/>
      <path id="Trazado_136694" data-name="Trazado 136694" d="M52.728,42.1a.861.861,0,0,0-.862.861v1.885a.861.861,0,1,0,1.723,0V42.956A.861.861,0,0,0,52.728,42.1Zm0,0" fill="#fc8116"/>
      <path id="Trazado_136695" data-name="Trazado 136695" d="M39.569,45.372l-9.728-6V29a.862.862,0,0,0-1.723,0V39.377l-9.728,6a.861.861,0,1,0,.9,1.466l9.686-5.969,9.686,5.969a.861.861,0,1,0,.9-1.466Zm0,0" fill="#fc8116"/>
    </g>
  </g>
</svg>
