<svg xmlns="http://www.w3.org/2000/svg" xmlns:xlink="http://www.w3.org/1999/xlink" width="58" height="58" viewBox="0 0 58 58">
  <defs>
    <clipPath id="clip-path">
      <rect id="Rectángulo_36999" data-name="Rectángulo 36999" width="58" height="58" transform="translate(2045 -3744.5)" fill="#fc8116"/>
    </clipPath>
  </defs>
  <g id="Enmascarar_grupo_145" data-name="Enmascarar grupo 145" transform="translate(-2045 3744.5)" clip-path="url(#clip-path)">
    <g id="capacitacion" transform="translate(2045 -3744.5)">
      <path id="Trazado_136772" data-name="Trazado 136772" d="M57.094,0H20.844a.905.905,0,0,0-.906.906V18.124l-5.437,0v-.984a7.246,7.246,0,0,0,3.625-6.26V7.7a7.666,7.666,0,0,0-2.011-5.171.881.881,0,0,0-.068-.074A7.692,7.692,0,0,0,2.719,7.7v.45a1.049,1.049,0,0,0,.022.109.855.855,0,0,0,.035.175.915.915,0,0,0,.072.157.757.757,0,0,0,.223.259.791.791,0,0,0,.139.093.9.9,0,0,0,.172.064.952.952,0,0,0,.1.037c.05.008.092.01.142.017v1.813a7.246,7.246,0,0,0,3.625,6.26v.99H4.54l-.009,0A4.536,4.536,0,0,0,0,22.656v5.438a.906.906,0,0,0,1.813,0V22.656a2.721,2.721,0,0,1,2.712-2.718H7.787l.634.634c.009.01.022.013.032.021a.894.894,0,0,0,.228.151.721.721,0,0,0,.078.034.915.915,0,0,0,.3.059h.007a.892.892,0,0,0,.368-.088c.011,0,.021,0,.032-.007l1.407-.7,1.407.7c.011.005.021,0,.032.007a.9.9,0,0,0,.368.088h.007a.915.915,0,0,0,.3-.059.721.721,0,0,0,.078-.034.894.894,0,0,0,.229-.152c.009-.008.022-.012.031-.02l.641-.641,6.872,0h.909a3.629,3.629,0,0,0,3.625-3.625.906.906,0,0,1,1.813,0A5.443,5.443,0,0,1,21.75,21.75H17.219a.905.905,0,0,0-.906.906v5.438a.906.906,0,0,0,1.813,0V23.562h1.813v4.531a.905.905,0,0,0,.906.906h36.25A.905.905,0,0,0,58,28.094V.906A.905.905,0,0,0,57.094,0ZM15.559,4.829A5.864,5.864,0,0,1,16.2,6.571a3.722,3.722,0,0,0-1.189-.629ZM10.421,1.813A5.862,5.862,0,0,1,14.3,3.281L12.958,6.016c-.359.105-.73.246-1.126.4a13.31,13.31,0,0,1-7.283.934,5.891,5.891,0,0,1,5.872-5.539ZM5.437,10.87V9.261A14.721,14.721,0,0,0,12.5,8.1c1.709-.677,2.218-.871,3.814,1.155V10.87a5.438,5.438,0,0,1-10.875,0Zm5.437,7.247a7.213,7.213,0,0,0,1.813-.239v.773l-.179.179-1.228-.614c-.02-.01-.042-.008-.062-.017a.979.979,0,0,0-.177-.048.883.883,0,0,0-.167-.021.953.953,0,0,0-.167.021.91.91,0,0,0-.177.048c-.02.009-.042.007-.062.017l-1.228.614-.18-.179v-.773a7.172,7.172,0,0,0,1.812.239Zm45.313,9.07H21.75V23.563A7.258,7.258,0,0,0,29,16.313a2.719,2.719,0,0,0-5.437,0,1.814,1.814,0,0,1-1.812,1.813V1.813H56.188Z" fill="#fc8116"/>
      <path id="Trazado_136773" data-name="Trazado 136773" d="M5.438,28.094V23.563a.906.906,0,0,0-1.812,0v4.531a.906.906,0,0,0,1.813,0Z" fill="#fc8116"/>
      <path id="Trazado_136774" data-name="Trazado 136774" d="M54.375,50.746c-.01,0-.017.005-.026.005H52.563v-1.9a7.245,7.245,0,0,0,3.621-6.2c0-.005,0-.011,0-.017s0-.031,0-.047V38.072s0-.006,0-.009a3.623,3.623,0,0,0-2.721-3.5v-1.94a.905.905,0,0,0-.906-.906H48.031a6.352,6.352,0,0,0-6.344,6.339h0V42.6c0,.016,0,.031,0,.047s0,.012,0,.017a7.245,7.245,0,0,0,3.621,6.2v1.9H43.526c-.01,0-.017-.005-.026-.005a3.628,3.628,0,0,0-3.625,3.624v2.722a.905.905,0,0,0,.906.906H57.094A.905.905,0,0,0,58,57.094V54.37a3.628,3.628,0,0,0-3.625-3.624ZM48.031,33.531h3.625v1.813a.905.905,0,0,0,.906.906,1.815,1.815,0,0,1,1.813,1.8s0,0,0,0v4.295a6.477,6.477,0,0,1-10.875,0V38.063A4.536,4.536,0,0,1,48.031,33.531ZM44.7,45.991a8.473,8.473,0,0,0,8.468,0,5.426,5.426,0,0,1-8.468,0Zm4.234,3.845A7.213,7.213,0,0,0,50.75,49.6v1.148H47.125V49.6A7.172,7.172,0,0,0,48.938,49.837Zm-5.456,2.724c.006,0,.012,0,.018,0h2.719c.011,0,.019-.006.031-.006h5.376c.012,0,.02.006.031.006h2.719c.006,0,.012,0,.018,0a1.812,1.812,0,0,1,1.794,1.81v1.817h-14.5V54.37A1.813,1.813,0,0,1,43.482,52.561Z" fill="#fc8116"/>
      <path id="Trazado_136775" data-name="Trazado 136775" d="M.906,58H17.219a.905.905,0,0,0,.906-.906V54.37A3.628,3.628,0,0,0,14.5,50.746c-.01,0-.017.005-.026.005H12.688v-1.9a7.245,7.245,0,0,0,3.621-6.2c0-.005,0-.011,0-.017s0-.031,0-.047v-3.63a7.25,7.25,0,0,0-14.5,0V42.6c0,.016,0,.031,0,.047s0,.012,0,.017a7.245,7.245,0,0,0,3.621,6.2v1.9H3.651c-.01,0-.017-.005-.026-.005A3.628,3.628,0,0,0,0,54.37v2.723A.905.905,0,0,0,.906,58ZM9.063,33.531A5.441,5.441,0,0,1,14.5,38.965v3.388a6.306,6.306,0,0,1-5.437,2.959,6.276,6.276,0,0,1-5.437-2.957v-3.39a5.441,5.441,0,0,1,5.438-5.434ZM4.829,45.991a8.106,8.106,0,0,0,4.234,1.134A8.106,8.106,0,0,0,13.3,45.991a5.426,5.426,0,0,1-8.468,0Zm4.234,3.845a7.213,7.213,0,0,0,1.813-.239v1.148H7.25V49.6A7.172,7.172,0,0,0,9.063,49.837ZM3.607,52.561c.006,0,.012,0,.018,0H6.344c.011,0,.019-.006.031-.006H11.75c.012,0,.02.006.031.006H14.5c.006,0,.012,0,.018,0a1.812,1.812,0,0,1,1.794,1.81v1.817H1.813V54.37A1.813,1.813,0,0,1,3.607,52.561Z" fill="#fc8116"/>
      <path id="Trazado_136776" data-name="Trazado 136776" d="M25.375,50.752H23.589c-.01,0-.017-.005-.026-.005a3.628,3.628,0,0,0-3.625,3.624v2.723a.905.905,0,0,0,.906.906H37.156a.905.905,0,0,0,.906-.906V54.37a3.628,3.628,0,0,0-3.625-3.624c-.01,0-.017.005-.026.005H32.625v-.62a.873.873,0,0,0-.058-.288h4.589a.905.905,0,0,0,.906-.906V39.913a9.063,9.063,0,0,0-18.125,0v9.024a.905.905,0,0,0,.906.906h4.589a.877.877,0,0,0-.058.288ZM36.25,54.37v1.817H21.75V54.37a1.813,1.813,0,0,1,1.794-1.81c.006,0,.012,0,.018,0h2.591l2.559.853h0a.888.888,0,0,0,.565,0h0l2.559-.853h2.591c.006,0,.012,0,.018,0A1.813,1.813,0,0,1,36.25,54.37ZM29,32.663a7.258,7.258,0,0,1,7.25,7.25v8.118H21.75V39.913A7.258,7.258,0,0,1,29,32.663Zm1.87,17.181a.877.877,0,0,0-.058.288V51L29,51.6,27.188,51v-.866a.873.873,0,0,0-.058-.288Z" fill="#fc8116"/>
      <path id="Trazado_136777" data-name="Trazado 136777" d="M33.529,19.937a2.719,2.719,0,1,0,0,5.438h5.436a2.713,2.713,0,0,0,2.551-1.812h7.421a.905.905,0,0,0,.906-.906V17.22h3.625a.905.905,0,0,0,.906-.906V12.688a.905.905,0,0,0-.906-.906H44.406a.905.905,0,0,0-.906.906v.907H41.029l-3.875-2.325V9.063h1.812a2.719,2.719,0,0,0,0-5.437H33.529a2.719,2.719,0,0,0,0,5.438h1.812v2.207L31.25,13.724a.906.906,0,0,0,0,1.553l4.091,2.455v2.2Zm0-14.5h5.436a.906.906,0,0,1,0,1.813H33.529a.906.906,0,0,1,0-1.812Zm0,16.312h5.436a.906.906,0,0,1,0,1.813H33.529a.906.906,0,0,1,0-1.812Zm11.783-8.155h7.25v1.813h-7.25Zm-9.065-.755L39.017,14.5l-2.769,1.662L33.478,14.5Zm.906,4.894,3.875-2.325H43.5v.906a.905.905,0,0,0,.906.906h3.625v4.53H41.517a2.715,2.715,0,0,0-2.552-1.813H37.154Z" fill="#fc8116"/>
    </g>
  </g>
</svg>
