<svg xmlns="http://www.w3.org/2000/svg" width="290" height="186.836" viewBox="0 0 290 186.836">
  <g id="Grupo_106010" data-name="Grupo 106010" transform="translate(-192.141 -160.568)">
    <path id="Trazado_137344" data-name="Trazado 137344" d="M214.924,362.258s-38.025-42.415-15.826-82.9,55.146-12.114,53.7-59.229,68.571-51.163,90.857-37.5,22.152,30.115,68.159,24.671,54.8,39.937,42.827,63.065c-16.982,32.815,55.46,27.4,15.061,91.89Z" transform="translate(0 -15.218)" fill="#e1f3d7"/>
    <g id="Grupo_106011" data-name="Grupo 106011" transform="translate(371.161 227.508)">
      <path id="Trazado_137345" data-name="Trazado 137345" d="M1848.973,707.747l-11.146-35.37,47.155-14.859h0l19.868-6.261L1916,686.626l-37.1,11.691Z" transform="translate(-1837.826 -651.257)" fill="#85d161"/>
      <g id="Grupo_106010-2" data-name="Grupo 106010" transform="translate(5.079 4.885)">
        <path id="Trazado_137346" data-name="Trazado 137346" d="M1893.169,742.606l-8.653-27.46,60.242-18.983,8.653,27.46Zm-6.755-24.354,6.526,20.709a2.668,2.668,0,0,0,3.347,1.743l53.433-16.837a2.717,2.717,0,0,0,1.774-3.407l-6.5-20.626a2.694,2.694,0,0,0-3.379-1.76l-53.467,16.848A2.655,2.655,0,0,0,1886.414,718.252Z" transform="translate(-1884.516 -696.163)" fill="#529d2e"/>
      </g>
      <path id="Trazado_137347" data-name="Trazado 137347" d="M2135.375,838.761a7.746,7.746,0,1,1-5.06,9.716A7.746,7.746,0,0,1,2135.375,838.761Z" transform="translate(-2098.177 -818.043)" fill="#529d2e"/>
    </g>
    <g id="Grupo_106013" data-name="Grupo 106013" transform="translate(360.579 189.751)">
      <path id="Trazado_137348" data-name="Trazado 137348" d="M1767.794,380.949l-27.246-25.159,33.541-36.322h0l14.132-15.3,27.245,25.158L1789.08,357.9Z" transform="translate(-1740.549 -304.163)" fill="#85d161"/>
      <g id="Grupo_106012" data-name="Grupo 106012" transform="translate(5.773 5.085)">
        <path id="Trazado_137349" data-name="Trazado 137349" d="M1814.771,416.848l-21.152-19.532,42.851-46.4,21.152,19.532Zm-17.962-17.78,15.952,14.73a2.669,2.669,0,0,0,3.771-.15l38.007-41.158a2.717,2.717,0,0,0-.153-3.839L1838.5,353.979a2.694,2.694,0,0,0-3.807.152l-38.031,41.185A2.655,2.655,0,0,0,1796.809,399.068Z" transform="translate(-1793.619 -350.912)" fill="#529d2e"/>
      </g>
      <path id="Trazado_137350" data-name="Trazado 137350" d="M2018.642,585.258a7.746,7.746,0,1,1,.436,10.946A7.746,7.746,0,0,1,2018.642,585.258Z" transform="translate(-1986.559 -552.46)" fill="#529d2e"/>
    </g>
    <g id="Grupo_106017" data-name="Grupo 106017" transform="translate(255.25 229.723)">
      <path id="Trazado_137351" data-name="Trazado 137351" d="M923.85,748.189,800.82,788.027a5.532,5.532,0,0,1-6.968-3.559l-21.3-65.773a5.533,5.533,0,0,1,3.559-6.968l123.03-39.838a5.533,5.533,0,0,1,6.968,3.559l21.3,65.773A5.533,5.533,0,0,1,923.85,748.189Z" transform="translate(-772.283 -671.617)" fill="#fc8116"/>
      <g id="Grupo_106016" data-name="Grupo 106016" transform="translate(19.714 9.326)">
        <g id="Grupo_106014" data-name="Grupo 106014" transform="translate(45.729)">
          <path id="Trazado_137352" data-name="Trazado 137352" d="M1379.265,921.691l-5.38-16.614,3.131-1.014,5.38,16.614Zm1.577-.511-.977-3.016,3.988-1.291a3.792,3.792,0,0,0,2.188-1.529,2.758,2.758,0,0,0,.182-2.382l-1.584-4.891a2.758,2.758,0,0,0-1.543-1.823,3.792,3.792,0,0,0-2.668.044l-3.988,1.291-.977-3.017,3.919-1.269a7.276,7.276,0,0,1,5.344-.007,5.937,5.937,0,0,1,3.131,3.84l1.525,4.708a5.926,5.926,0,0,1-.291,4.948,7.3,7.3,0,0,1-4.34,3.129Z" transform="translate(-1373.885 -886.967)" fill="#ffead8"/>
          <path id="Trazado_137353" data-name="Trazado 137353" d="M1525.818,863.46l-5.38-16.614,3.131-1.014,5.38,16.614Zm-3.272-13.964-.977-3.016,10-3.237.977,3.016Zm2.22,6.856-.977-3.017,8.741-2.831.977,3.017Zm2.183,6.742-.94-2.9,10-3.237.94,2.9Z" transform="translate(-1504.496 -833.898)" fill="#ffead8"/>
          <path id="Trazado_137354" data-name="Trazado 137354" d="M1659.765,828.171l-5.38-16.614,3.119-1.01,5.38,16.614Zm1.371-.444-.958-2.959,4.73-1.532a3.549,3.549,0,0,0,2-1.255,1.91,1.91,0,0,0,.17-1.658l-.011-.034a2.207,2.207,0,0,0-1.01-1.327,2.4,2.4,0,0,0-1.907,0l-5.3,1.717-.955-2.948,5.3-1.717q2.034-.659,1.431-2.521-.581-1.794-2.935-1.032l-4.982,1.613-.958-2.959,5.4-1.75a5.567,5.567,0,0,1,4.229-.019,4.6,4.6,0,0,1,2.313,2.874,3.924,3.924,0,0,1-.044,2.514,3.87,3.87,0,0,1-2.047,2.14,4,4,0,0,1,3.007.535,4.241,4.241,0,0,1,1.746,2.294l.011.034a4.425,4.425,0,0,1-.315,3.725,5.627,5.627,0,0,1-3.328,2.454Z" transform="translate(-1623.872 -803.328)" fill="#ffead8"/>
          <path id="Trazado_137355" data-name="Trazado 137355" d="M1777.018,764.306l-.977-3.017,12.181-3.944.977,3.017Zm8.928,12.132-4.94-15.254,3.131-1.014,4.939,15.254Z" transform="translate(-1732.294 -757.345)" fill="#ffead8"/>
        </g>
        <rect id="Rectángulo_37086" data-name="Rectángulo 37086" width="34.949" height="2.35" transform="matrix(0.951, -0.308, 0.308, 0.951, 4.784, 82.475)" fill="#ffead8"/>
        <rect id="Rectángulo_37087" data-name="Rectángulo 37087" width="22.174" height="2.35" transform="translate(6.231 86.946) rotate(-17.943)" fill="#ffead8"/>
        <g id="Grupo_106015" data-name="Grupo 106015" transform="translate(0 24.427)">
          <path id="Trazado_137356" data-name="Trazado 137356" d="M958.462,1307.242c.679,2.1.284,3.67-1.274,4.174-1.488.482-2.726-.617-3.376-2.591-.657-2.027-.234-3.653,1.283-4.144C956.663,1304.173,957.845,1305.335,958.462,1307.242Zm-3.416,1.172c.514,1.588,1.209,2.267,1.878,2.051.729-.236.814-1.234.31-2.792-.488-1.508-1.125-2.283-1.864-2.044C954.72,1305.839,954.523,1306.8,955.047,1308.414Z" transform="translate(-953.513 -1269.461)" fill="#ffead8"/>
          <path id="Trazado_137357" data-name="Trazado 137357" d="M1014.541,1289.083c.679,2.1.284,3.67-1.274,4.174-1.488.482-2.726-.617-3.377-2.591-.656-2.027-.234-3.653,1.284-4.144C1012.742,1286.014,1013.924,1287.176,1014.541,1289.083Zm-3.415,1.172c.514,1.588,1.208,2.267,1.878,2.051.729-.236.814-1.234.309-2.792-.488-1.508-1.125-2.283-1.864-2.044C1010.8,1287.68,1010.6,1288.638,1011.126,1290.255Z" transform="translate(-1003.492 -1253.278)" fill="#ffead8"/>
          <path id="Trazado_137358" data-name="Trazado 137358" d="M1070.62,1270.925c.679,2.1.284,3.67-1.274,4.174-1.488.482-2.726-.617-3.376-2.591-.656-2.027-.234-3.653,1.284-4.144C1068.821,1267.856,1070,1269.017,1070.62,1270.925Zm-3.415,1.172c.514,1.588,1.209,2.267,1.878,2.051.729-.236.814-1.234.31-2.792-.488-1.508-1.125-2.283-1.865-2.044C1066.878,1269.522,1066.681,1270.479,1067.2,1272.1Z" transform="translate(-1053.47 -1237.094)" fill="#ffead8"/>
          <path id="Trazado_137359" data-name="Trazado 137359" d="M1126.7,1252.766c.679,2.1.284,3.67-1.274,4.175-1.488.482-2.726-.618-3.376-2.592-.656-2.027-.234-3.653,1.283-4.144C1124.9,1249.7,1126.081,1250.859,1126.7,1252.766Zm-3.415,1.172c.514,1.588,1.208,2.267,1.877,2.051.729-.236.814-1.234.31-2.792-.488-1.508-1.125-2.283-1.864-2.044C1122.957,1251.363,1122.76,1252.32,1123.283,1253.938Z" transform="translate(-1103.448 -1220.911)" fill="#ffead8"/>
          <path id="Trazado_137360" data-name="Trazado 137360" d="M1234.541,1217.845c.679,2.1.284,3.67-1.274,4.174-1.488.482-2.726-.617-3.376-2.591-.656-2.027-.234-3.653,1.284-4.144C1232.742,1214.776,1233.923,1215.938,1234.541,1217.845Zm-3.415,1.172c.514,1.588,1.209,2.267,1.878,2.051.729-.236.814-1.234.31-2.792-.488-1.508-1.125-2.283-1.865-2.044C1230.8,1216.442,1230.6,1217.4,1231.125,1219.017Z" transform="translate(-1199.559 -1189.789)" fill="#ffead8"/>
          <path id="Trazado_137361" data-name="Trazado 137361" d="M1290.619,1199.686c.679,2.1.284,3.67-1.274,4.174-1.488.482-2.726-.617-3.377-2.591-.656-2.027-.234-3.653,1.284-4.144C1288.82,1196.617,1290,1197.779,1290.619,1199.686Zm-3.416,1.172c.514,1.588,1.208,2.267,1.878,2.051.729-.236.814-1.234.31-2.792-.488-1.508-1.126-2.283-1.864-2.044C1286.877,1198.283,1286.68,1199.241,1287.2,1200.859Z" transform="translate(-1249.537 -1173.605)" fill="#ffead8"/>
          <path id="Trazado_137362" data-name="Trazado 137362" d="M1346.7,1181.527c.679,2.1.284,3.67-1.274,4.174-1.488.482-2.726-.617-3.377-2.591-.656-2.027-.234-3.653,1.284-4.145C1344.9,1178.458,1346.081,1179.62,1346.7,1181.527Zm-3.416,1.172c.514,1.588,1.208,2.267,1.878,2.051.729-.236.814-1.234.309-2.792-.488-1.508-1.125-2.283-1.864-2.044C1342.957,1180.124,1342.759,1181.082,1343.283,1182.7Z" transform="translate(-1299.516 -1157.421)" fill="#ffead8"/>
          <path id="Trazado_137363" data-name="Trazado 137363" d="M1402.777,1163.368c.679,2.1.284,3.67-1.274,4.174-1.488.482-2.726-.618-3.376-2.591-.656-2.027-.234-3.653,1.284-4.144C1400.978,1160.3,1402.159,1161.461,1402.777,1163.368Zm-3.415,1.172c.514,1.588,1.209,2.267,1.878,2.051.729-.236.814-1.234.31-2.792-.488-1.508-1.125-2.283-1.864-2.044C1399.035,1161.965,1398.838,1162.923,1399.361,1164.54Z" transform="translate(-1349.494 -1141.238)" fill="#ffead8"/>
          <path id="Trazado_137364" data-name="Trazado 137364" d="M1510.619,1128.448c.679,2.1.284,3.67-1.274,4.174-1.488.482-2.726-.617-3.376-2.591-.656-2.027-.234-3.653,1.284-4.144C1508.82,1125.379,1510,1126.541,1510.619,1128.448Zm-3.415,1.172c.514,1.588,1.208,2.267,1.877,2.051.729-.236.814-1.234.309-2.792-.488-1.508-1.125-2.283-1.864-2.044C1506.878,1127.045,1506.68,1128,1507.2,1129.62Z" transform="translate(-1445.605 -1110.116)" fill="#ffead8"/>
          <path id="Trazado_137365" data-name="Trazado 137365" d="M1566.7,1110.289c.679,2.1.284,3.67-1.274,4.174-1.488.482-2.726-.617-3.377-2.591-.656-2.027-.234-3.653,1.284-4.145C1564.9,1107.22,1566.08,1108.382,1566.7,1110.289Zm-3.415,1.172c.514,1.588,1.208,2.267,1.877,2.051.729-.236.814-1.234.31-2.792-.488-1.508-1.126-2.283-1.865-2.044C1562.956,1108.886,1562.758,1109.843,1563.282,1111.461Z" transform="translate(-1495.583 -1093.933)" fill="#ffead8"/>
          <path id="Trazado_137366" data-name="Trazado 137366" d="M1622.776,1092.13c.679,2.1.284,3.67-1.274,4.174-1.488.482-2.726-.618-3.376-2.591-.656-2.027-.234-3.653,1.284-4.144C1620.977,1089.061,1622.159,1090.223,1622.776,1092.13Zm-3.415,1.172c.514,1.588,1.208,2.267,1.877,2.051.729-.236.814-1.234.309-2.792-.488-1.508-1.125-2.283-1.864-2.044C1619.035,1090.727,1618.837,1091.685,1619.361,1093.3Z" transform="translate(-1545.562 -1077.75)" fill="#ffead8"/>
          <path id="Trazado_137367" data-name="Trazado 137367" d="M1678.855,1073.972c.679,2.1.284,3.67-1.274,4.174-1.488.482-2.726-.618-3.377-2.592-.656-2.027-.234-3.653,1.284-4.144C1677.056,1070.9,1678.237,1072.064,1678.855,1073.972Zm-3.415,1.172c.514,1.588,1.209,2.268,1.878,2.051.729-.236.814-1.234.309-2.792-.488-1.508-1.125-2.283-1.864-2.044C1675.113,1072.569,1674.916,1073.526,1675.44,1075.144Z" transform="translate(-1595.54 -1061.566)" fill="#ffead8"/>
          <path id="Trazado_137368" data-name="Trazado 137368" d="M1786.7,1039.051c.679,2.1.284,3.67-1.274,4.175-1.488.482-2.726-.618-3.376-2.591-.656-2.027-.234-3.653,1.284-4.145C1784.9,1035.982,1786.079,1037.143,1786.7,1039.051Zm-3.415,1.172c.514,1.588,1.208,2.267,1.877,2.051.729-.236.814-1.234.309-2.792-.488-1.508-1.125-2.283-1.864-2.044C1782.955,1037.648,1782.758,1038.605,1783.282,1040.223Z" transform="translate(-1691.651 -1030.444)" fill="#ffead8"/>
          <path id="Trazado_137369" data-name="Trazado 137369" d="M1842.776,1020.892c.679,2.1.284,3.67-1.274,4.174-1.487.482-2.726-.618-3.376-2.591-.656-2.027-.234-3.653,1.284-4.144C1840.977,1017.823,1842.158,1018.985,1842.776,1020.892Zm-3.415,1.172c.514,1.588,1.208,2.267,1.878,2.051.729-.236.814-1.234.309-2.792-.488-1.508-1.125-2.283-1.864-2.044C1839.034,1019.489,1838.837,1020.447,1839.361,1022.064Z" transform="translate(-1741.63 -1014.261)" fill="#ffead8"/>
          <path id="Trazado_137370" data-name="Trazado 137370" d="M1898.855,1002.733c.679,2.1.284,3.67-1.274,4.174-1.488.482-2.726-.617-3.376-2.591-.656-2.027-.234-3.653,1.284-4.144C1897.056,999.664,1898.237,1000.825,1898.855,1002.733Zm-3.415,1.172c.514,1.588,1.208,2.267,1.877,2.051.729-.236.814-1.234.309-2.792-.488-1.508-1.125-2.283-1.864-2.044C1895.113,1001.33,1894.916,1002.287,1895.439,1003.9Z" transform="translate(-1791.608 -998.077)" fill="#ffead8"/>
          <path id="Trazado_137371" data-name="Trazado 137371" d="M1954.933,984.574c.679,2.1.284,3.67-1.274,4.174-1.488.482-2.726-.618-3.376-2.591-.656-2.027-.234-3.653,1.284-4.144C1953.134,981.5,1954.316,982.667,1954.933,984.574Zm-3.415,1.172c.514,1.588,1.209,2.267,1.878,2.051.729-.236.814-1.234.309-2.792-.488-1.508-1.125-2.283-1.864-2.044C1951.191,983.171,1950.994,984.128,1951.518,985.746Z" transform="translate(-1841.586 -981.893)" fill="#ffead8"/>
        </g>
      </g>
    </g>
    <g id="Grupo_106019" data-name="Grupo 106019" transform="translate(329.38 288.868)">
      <path id="Trazado_137372" data-name="Trazado 137372" d="M1462.466,1449.744v5.825a2.1,2.1,0,0,1-2.15,2.028h-4.425a2.1,2.1,0,0,1-2.15-2.028v-5.825a2.1,2.1,0,0,1,2.15-2.028h4.425A2.1,2.1,0,0,1,1462.466,1449.744Z" transform="translate(-1453.742 -1422.435)" fill="#92aff2"/>
      <path id="Trazado_137373" data-name="Trazado 137373" d="M1462.466,1449.744v3.245a2.1,2.1,0,0,1-2.15,2.028h-4.425a2.1,2.1,0,0,1-2.15-2.028v-3.245a2.1,2.1,0,0,1,2.15-2.028h4.425A2.1,2.1,0,0,1,1462.466,1449.744Z" transform="translate(-1453.742 -1422.435)" fill="#aec3ff"/>
      <path id="Trazado_137374" data-name="Trazado 137374" d="M1554.28,1315.537a20.428,20.428,0,0,1-1.813,8.417,23.121,23.121,0,0,1-21.167,13.26h-6.57a23.324,23.324,0,0,1-19.776-10.669,20.478,20.478,0,0,1-1.391-19.424,23.12,23.12,0,0,1,21.167-13.26h6.57a23.281,23.281,0,0,1,20.1,11.205A20.54,20.54,0,0,1,1554.28,1315.537Z" transform="translate(-1496.527 -1285.317)" fill="#92aff2"/>
      <path id="Trazado_137375" data-name="Trazado 137375" d="M1791.117,1583.384l-2.144,13.129a1.626,1.626,0,0,0,1.644,2.013h5.633a3.253,3.253,0,0,0,2.867-1.649l8.755-16.473Z" transform="translate(-1752.455 -1540.689)" fill="#92aff2"/>
      <path id="Trazado_137376" data-name="Trazado 137376" d="M1548.616,1596.007l1.72,12.9a1.626,1.626,0,0,1-1.644,2.013h-5.633a3.253,3.253,0,0,1-2.867-1.649l-8.984-14.96Z" transform="translate(-1522.781 -1553.087)" fill="#92aff2"/>
      <g id="Grupo_106018" data-name="Grupo 106018" transform="translate(54.502 24.329)">
        <path id="Trazado_137377" data-name="Trazado 137377" d="M1963.492,1450.748a1.6,1.6,0,0,1-.388-.048c-1-.248-1.57-1.373-1.492-2.936a7.581,7.581,0,0,1,1.865-4.438,8.3,8.3,0,0,1,1.689-1.491,4.658,4.658,0,0,0-1.242-1.292,3.35,3.35,0,0,0-2.908-.574c-2.785.713-5.145,4.468-5.337,4.89a.479.479,0,0,1-.592.27.439.439,0,0,1-.3-.562,12.836,12.836,0,0,1,1.735-2.465,8.924,8.924,0,0,1,4.068-2.942,4.338,4.338,0,0,1,3.9.672,5.6,5.6,0,0,1,1.476,1.528,10.22,10.22,0,0,1,3.2-1.032.468.468,0,0,1,.541.366.448.448,0,0,1-.389.51,9.228,9.228,0,0,0-2.928.949,6.4,6.4,0,0,1,.5,2,8.354,8.354,0,0,1-.869,4.455C1965.325,1449.979,1964.4,1450.748,1963.492,1450.748Zm2.092-8.1a7.351,7.351,0,0,0-1.375,1.239,6.706,6.706,0,0,0-1.656,3.921c-.054,1.069.271,1.906.791,2.035s1.28-.535,1.835-1.619a7.591,7.591,0,0,0,.779-3.992A5.676,5.676,0,0,0,1965.585,1442.647Zm-9.9,2.2,0,.008Z" transform="translate(-1954.767 -1438.964)" fill="#92aff2"/>
      </g>
      <path id="Trazado_137378" data-name="Trazado 137378" d="M1551.4,1305.066a16.768,16.768,0,0,1-.581,7.966c-4.638,12.582-15.539,14.853-26.682,15.81-7.923.68-19.185-2.3-19.185-2.3a20.478,20.478,0,0,1-1.391-19.424,23.12,23.12,0,0,1,21.167-13.26h6.57A23.281,23.281,0,0,1,1551.4,1305.066Z" transform="translate(-1496.527 -1285.317)" fill="#aec3ff"/>
      <path id="Trazado_137379" data-name="Trazado 137379" d="M1600.524,1229.292h-9.039c-.911,0-1.65-.522-1.65-1.166v-11.641a.9.9,0,0,1,.181-.536,2.061,2.061,0,0,1,2.468-.392c3.432,1.835,9.054,5.823,9.687,12.491C1602.235,1228.72,1601.479,1229.292,1600.524,1229.292Z" transform="translate(-1575.031 -1215.317)" fill="#aec3ff"/>
      <path id="Trazado_137380" data-name="Trazado 137380" d="M1591.853,1234.465h-.368c-.911,0-1.65-.522-1.65-1.166v-11.641a.9.9,0,0,1,.181-.536,1.164,1.164,0,0,1,.112.1,14.1,14.1,0,0,1,4,11.786A2.13,2.13,0,0,1,1591.853,1234.465Z" transform="translate(-1575.031 -1220.49)" fill="#92aff2"/>
      <path id="Trazado_137381" data-name="Trazado 137381" d="M1564.59,1404.913a1.349,1.349,0,1,1,1.347,1.27A1.31,1.31,0,0,1,1564.59,1404.913Z" transform="translate(-1552.532 -1383.156)" fill="#2b478b"/>
    </g>
    <g id="Grupo_106048" data-name="Grupo 106048" transform="translate(372.185 295.109)">
      <g id="Grupo_106044" data-name="Grupo 106044">
        <g id="Grupo_106042" data-name="Grupo 106042" transform="translate(0 19.75)">
          <g id="Grupo_106021" data-name="Grupo 106021" transform="translate(0.827 28.923)">
            <path id="Trazado_137382" data-name="Trazado 137382" d="M1854.838,1720.767v1.647a.561.561,0,0,0,.13.354.752.752,0,0,0,.354.237.741.741,0,0,0,.138.033.863.863,0,0,0,.134.01h31.244a.732.732,0,0,0,.749-.54c0-.02.006-.041.007-.062s0-.021,0-.032v-1.647c0-.011,0-.021,0-.032s0-.042-.007-.062a.732.732,0,0,0-.749-.54h-31.244a.863.863,0,0,0-.134.01.8.8,0,0,0-.138.033.753.753,0,0,0-.354.237A.562.562,0,0,0,1854.838,1720.767Z" transform="translate(-1854.838 -1720.133)" fill="#ffb93e"/>
            <path id="Trazado_137383" data-name="Trazado 137383" d="M1995.875,1723.049h16.739a.67.67,0,0,0,.649-.47.521.521,0,0,0,.018-.07c0-.02.006-.041.007-.062s0-.021,0-.032v-1.647c0-.011,0-.021,0-.032s0-.042-.007-.062a.531.531,0,0,0-.018-.07.67.67,0,0,0-.649-.47h-14.683A5.11,5.11,0,0,1,1995.875,1723.049Z" transform="translate(-1980.533 -1720.133)" fill="#ffa412"/>
            <g id="Grupo_106020" data-name="Grupo 106020" transform="translate(0.13)">
              <rect id="Rectángulo_37088" data-name="Rectángulo 37088" width="0.355" height="2.917" transform="translate(4.027 2.917) rotate(180)" fill="#ffa412"/>
              <rect id="Rectángulo_37089" data-name="Rectángulo 37089" width="0.355" height="2.917" transform="translate(5.23 2.917) rotate(180)" fill="#ffa412"/>
              <rect id="Rectángulo_37090" data-name="Rectángulo 37090" width="0.355" height="2.917" transform="translate(6.671 2.917) rotate(180)" fill="#ffa412"/>
              <rect id="Rectángulo_37091" data-name="Rectángulo 37091" width="0.355" height="2.917" transform="translate(8.88 2.917) rotate(180)" fill="#ffa412"/>
              <rect id="Rectángulo_37092" data-name="Rectángulo 37092" width="0.355" height="2.917" transform="translate(11.217 2.917) rotate(180)" fill="#ffa412"/>
              <rect id="Rectángulo_37093" data-name="Rectángulo 37093" width="0.355" height="2.917" transform="translate(14.799 2.917) rotate(180)" fill="#ffa412"/>
              <rect id="Rectángulo_37094" data-name="Rectángulo 37094" width="0.355" height="2.917" transform="translate(18.152 2.917) rotate(180)" fill="#ffa412"/>
              <rect id="Rectángulo_37095" data-name="Rectángulo 37095" width="0.355" height="2.917" transform="translate(21.147 2.917) rotate(180)" fill="#ffa412"/>
              <rect id="Rectángulo_37096" data-name="Rectángulo 37096" width="0.355" height="2.917" transform="translate(2.883 2.917) rotate(180)" fill="#ffa412"/>
              <rect id="Rectángulo_37097" data-name="Rectángulo 37097" width="0.355" height="2.917" transform="translate(2.127 2.917) rotate(180)" fill="#ffa412"/>
              <rect id="Rectángulo_37098" data-name="Rectángulo 37098" width="0.355" height="2.917" transform="translate(1.397 2.917) rotate(180)" fill="#ffa412"/>
              <path id="Trazado_137384" data-name="Trazado 137384" d="M1860.564,1720.141v2.9a.866.866,0,0,0,.133.01h.222v-2.917h-.222A.866.866,0,0,0,1860.564,1720.141Z" transform="translate(-1860.071 -1720.131)" fill="#ffa412"/>
              <path id="Trazado_137385" data-name="Trazado 137385" d="M1856.03,1720.762v2.356a.753.753,0,0,0,.355.238v-2.831A.752.752,0,0,0,1856.03,1720.762Z" transform="translate(-1856.03 -1720.481)" fill="#ffa412"/>
            </g>
          </g>
          <g id="Grupo_106023" data-name="Grupo 106023" transform="translate(4.168 26.006)">
            <path id="Trazado_137386" data-name="Trazado 137386" d="M1885.55,1693.95v1.647a.567.567,0,0,0,.129.355.752.752,0,0,0,.071.075.811.811,0,0,0,.423.194.851.851,0,0,0,.133.011h31.245a.732.732,0,0,0,.748-.541c0-.021.006-.041.007-.061a.294.294,0,0,0,0-.033v-1.647a.3.3,0,0,0,0-.033c0-.021,0-.041-.007-.062a.732.732,0,0,0-.748-.541h-31.245l-.06,0-.021,0h0l-.028,0-.02,0a.788.788,0,0,0-.139.032c-.026.009-.052.019-.076.029h0l-.049.023-.027.016-.025.016a.563.563,0,0,0-.092.068c-.01.008-.018.016-.027.024l-.016.015-.008.009-.007.007a.3.3,0,0,0-.028.032A.565.565,0,0,0,1885.55,1693.95Z" transform="translate(-1885.55 -1693.315)" fill="#ffb93e"/>
            <path id="Trazado_137387" data-name="Trazado 137387" d="M2026.588,1696.232h16.739a.67.67,0,0,0,.649-.471.56.56,0,0,0,.018-.07c0-.021.006-.041.007-.061a.327.327,0,0,0,0-.033v-1.647c0-.011,0-.022,0-.033s0-.041-.007-.062a.552.552,0,0,0-.018-.069.67.67,0,0,0-.649-.471h-14.684c-.006.024-.013.048-.02.072A5.1,5.1,0,0,1,2026.588,1696.232Z" transform="translate(-2011.246 -1693.315)" fill="#ffa412"/>
            <g id="Grupo_106022" data-name="Grupo 106022" transform="translate(0.129 0)">
              <rect id="Rectángulo_37099" data-name="Rectángulo 37099" width="0.355" height="2.917" transform="translate(4.027 2.917) rotate(180)" fill="#ffa412"/>
              <rect id="Rectángulo_37100" data-name="Rectángulo 37100" width="0.355" height="2.917" transform="translate(5.23 2.917) rotate(180)" fill="#ffa412"/>
              <rect id="Rectángulo_37101" data-name="Rectángulo 37101" width="0.355" height="2.917" transform="translate(6.671 2.917) rotate(180)" fill="#ffa412"/>
              <rect id="Rectángulo_37102" data-name="Rectángulo 37102" width="0.355" height="2.917" transform="translate(8.88 2.917) rotate(180)" fill="#ffa412"/>
              <rect id="Rectángulo_37103" data-name="Rectángulo 37103" width="0.355" height="2.917" transform="translate(11.217 2.917) rotate(180)" fill="#ffa412"/>
              <rect id="Rectángulo_37104" data-name="Rectángulo 37104" width="0.355" height="2.917" transform="translate(14.799 2.917) rotate(180)" fill="#ffa412"/>
              <rect id="Rectángulo_37105" data-name="Rectángulo 37105" width="0.355" height="2.917" transform="translate(18.152 2.917) rotate(180)" fill="#ffa412"/>
              <rect id="Rectángulo_37106" data-name="Rectángulo 37106" width="0.355" height="2.917" transform="translate(21.147 2.917) rotate(180)" fill="#ffa412"/>
              <rect id="Rectángulo_37107" data-name="Rectángulo 37107" width="0.355" height="2.917" transform="translate(2.883 2.917) rotate(180)" fill="#ffa412"/>
              <rect id="Rectángulo_37108" data-name="Rectángulo 37108" width="0.355" height="2.917" transform="translate(2.127 2.917) rotate(180)" fill="#ffa412"/>
              <rect id="Rectángulo_37109" data-name="Rectángulo 37109" width="0.355" height="2.917" transform="translate(1.397 2.917) rotate(180)" fill="#ffa412"/>
              <path id="Trazado_137388" data-name="Trazado 137388" d="M1891.272,1693.326v2.9a.855.855,0,0,0,.133.01h.222v-2.917h-.222A.9.9,0,0,0,1891.272,1693.326Z" transform="translate(-1890.779 -1693.316)" fill="#ffa412"/>
              <path id="Trazado_137389" data-name="Trazado 137389" d="M1886.739,1693.948v2.356a.754.754,0,0,0,.355.238v-2.831A.752.752,0,0,0,1886.739,1693.948Z" transform="translate(-1886.739 -1693.667)" fill="#ffa412"/>
            </g>
          </g>
          <g id="Grupo_106025" data-name="Grupo 106025" transform="translate(2.553 23.161)">
            <path id="Trazado_137390" data-name="Trazado 137390" d="M1870.71,1667.8v1.648a.561.561,0,0,0,.13.354.748.748,0,0,0,.354.237.911.911,0,0,0,.139.033,1.008,1.008,0,0,0,.133.01h31.245a.868.868,0,0,0,.348-.072.659.659,0,0,0,.4-.461c0-.014,0-.027.006-.041s0-.019,0-.028,0-.021,0-.032V1667.8c0-.011,0-.022,0-.032a.437.437,0,0,0-.007-.061.731.731,0,0,0-.748-.541h-31.245a.849.849,0,0,0-.133.01.8.8,0,0,0-.139.032.758.758,0,0,0-.354.238A.562.562,0,0,0,1870.71,1667.8Z" transform="translate(-1870.71 -1667.167)" fill="#ffb93e"/>
            <path id="Trazado_137391" data-name="Trazado 137391" d="M2011.748,1670.084h16.739a.7.7,0,0,0,.31-.072.639.639,0,0,0,.355-.461c0-.014,0-.027.006-.041s0-.019,0-.028,0-.021,0-.032V1667.8c0-.011,0-.022,0-.032a.457.457,0,0,0-.007-.061.578.578,0,0,0-.018-.068.668.668,0,0,0-.649-.473H2013.8a5.121,5.121,0,0,1-1.953,2.844C2011.817,1670.036,2011.783,1670.061,2011.748,1670.084Z" transform="translate(-1996.406 -1667.167)" fill="#ffa412"/>
            <g id="Grupo_106024" data-name="Grupo 106024" transform="translate(0.129)">
              <rect id="Rectángulo_37110" data-name="Rectángulo 37110" width="0.355" height="2.917" transform="translate(4.028 2.917) rotate(180)" fill="#ffa412"/>
              <rect id="Rectángulo_37111" data-name="Rectángulo 37111" width="0.355" height="2.917" transform="translate(5.23 2.917) rotate(180)" fill="#ffa412"/>
              <rect id="Rectángulo_37112" data-name="Rectángulo 37112" width="0.355" height="2.917" transform="translate(6.671 2.917) rotate(180)" fill="#ffa412"/>
              <rect id="Rectángulo_37113" data-name="Rectángulo 37113" width="0.355" height="2.917" transform="translate(8.881 2.917) rotate(180)" fill="#ffa412"/>
              <rect id="Rectángulo_37114" data-name="Rectángulo 37114" width="0.355" height="2.917" transform="translate(11.217 2.917) rotate(180)" fill="#ffa412"/>
              <rect id="Rectángulo_37115" data-name="Rectángulo 37115" width="0.355" height="2.917" transform="translate(14.799 2.917) rotate(180)" fill="#ffa412"/>
              <rect id="Rectángulo_37116" data-name="Rectángulo 37116" width="0.355" height="2.917" transform="translate(18.152 2.917) rotate(180)" fill="#ffa412"/>
              <rect id="Rectángulo_37117" data-name="Rectángulo 37117" width="0.355" height="2.917" transform="translate(21.147 2.917) rotate(180)" fill="#ffa412"/>
              <rect id="Rectángulo_37118" data-name="Rectángulo 37118" width="0.355" height="2.917" transform="translate(2.883 2.917) rotate(180)" fill="#ffa412"/>
              <rect id="Rectángulo_37119" data-name="Rectángulo 37119" width="0.355" height="2.917" transform="translate(2.127 2.917) rotate(180)" fill="#ffa412"/>
              <rect id="Rectángulo_37120" data-name="Rectángulo 37120" width="0.355" height="2.917" transform="translate(1.398 2.917) rotate(180)" fill="#ffa412"/>
              <path id="Trazado_137392" data-name="Trazado 137392" d="M1876.432,1667.174v2.9a.871.871,0,0,0,.133.01h.222v-2.917h-.222A.871.871,0,0,0,1876.432,1667.174Z" transform="translate(-1875.939 -1667.164)" fill="#ffa412"/>
              <path id="Trazado_137393" data-name="Trazado 137393" d="M1871.9,1667.8v2.356a.754.754,0,0,0,.355.238v-2.831A.752.752,0,0,0,1871.9,1667.8Z" transform="translate(-1871.898 -1667.516)" fill="#ffa412"/>
            </g>
          </g>
          <g id="Grupo_106027" data-name="Grupo 106027" transform="translate(1.805 20.244)">
            <path id="Trazado_137394" data-name="Trazado 137394" d="M1863.828,1640.985v1.646a.56.56,0,0,0,.13.354c.011.014.022.026.034.039a.733.733,0,0,0,.216.157.876.876,0,0,0,.1.042.826.826,0,0,0,.139.032l.065.008.068,0h31.244a.732.732,0,0,0,.749-.541c0-.02.006-.041.007-.061v-1.713a.7.7,0,0,0-.666-.6c-.029,0-.06-.005-.09-.005h-31.244l-.068,0c-.022,0-.044,0-.065.008a.826.826,0,0,0-.139.032.754.754,0,0,0-.354.237A.563.563,0,0,0,1863.828,1640.985Z" transform="translate(-1863.828 -1640.35)" fill="#ffb93e"/>
            <path id="Trazado_137395" data-name="Trazado 137395" d="M2004.866,1643.267H2021.6a.671.671,0,0,0,.65-.471.539.539,0,0,0,.018-.07.613.613,0,0,0,.007-.061v-1.713a.656.656,0,0,0-.594-.6.719.719,0,0,0-.08-.005h-14.683s0,0,0,.005A5.116,5.116,0,0,1,2004.866,1643.267Z" transform="translate(-1989.524 -1640.35)" fill="#ffa412"/>
            <g id="Grupo_106026" data-name="Grupo 106026" transform="translate(0.13)">
              <rect id="Rectángulo_37121" data-name="Rectángulo 37121" width="0.355" height="2.917" transform="translate(4.027 2.917) rotate(180)" fill="#ffa412"/>
              <rect id="Rectángulo_37122" data-name="Rectángulo 37122" width="0.355" height="2.917" transform="translate(5.229 2.917) rotate(180)" fill="#ffa412"/>
              <rect id="Rectángulo_37123" data-name="Rectángulo 37123" width="0.355" height="2.917" transform="translate(6.671 2.917) rotate(180)" fill="#ffa412"/>
              <rect id="Rectángulo_37124" data-name="Rectángulo 37124" width="0.355" height="2.917" transform="translate(8.88 2.917) rotate(180)" fill="#ffa412"/>
              <rect id="Rectángulo_37125" data-name="Rectángulo 37125" width="0.355" height="2.917" transform="translate(11.217 2.917) rotate(180)" fill="#ffa412"/>
              <rect id="Rectángulo_37126" data-name="Rectángulo 37126" width="0.355" height="2.917" transform="translate(14.799 2.917) rotate(180)" fill="#ffa412"/>
              <rect id="Rectángulo_37127" data-name="Rectángulo 37127" width="0.355" height="2.917" transform="translate(18.152 2.917) rotate(180)" fill="#ffa412"/>
              <rect id="Rectángulo_37128" data-name="Rectángulo 37128" width="0.355" height="2.917" transform="translate(21.147 2.917) rotate(180)" fill="#ffa412"/>
              <rect id="Rectángulo_37129" data-name="Rectángulo 37129" width="0.355" height="2.917" transform="translate(2.883 2.917) rotate(180)" fill="#ffa412"/>
              <rect id="Rectángulo_37130" data-name="Rectángulo 37130" width="0.355" height="2.917" transform="translate(2.127 2.917) rotate(180)" fill="#ffa412"/>
              <rect id="Rectángulo_37131" data-name="Rectángulo 37131" width="0.355" height="2.917" transform="translate(1.397 2.917) rotate(180)" fill="#ffa412"/>
              <path id="Trazado_137396" data-name="Trazado 137396" d="M1869.552,1640.36v2.9a.868.868,0,0,0,.133.01h.222v-2.917h-.222A.868.868,0,0,0,1869.552,1640.36Z" transform="translate(-1869.059 -1640.35)" fill="#ffa412"/>
              <path id="Trazado_137397" data-name="Trazado 137397" d="M1865.02,1640.981v2.356a.752.752,0,0,0,.355.238v-2.831A.752.752,0,0,0,1865.02,1640.981Z" transform="translate(-1865.02 -1640.7)" fill="#ffa412"/>
            </g>
          </g>
          <g id="Grupo_106029" data-name="Grupo 106029" transform="translate(4.102 17.332)">
            <path id="Trazado_137398" data-name="Trazado 137398" d="M1884.949,1614.211v1.647a.558.558,0,0,0,.129.354.746.746,0,0,0,.355.238.792.792,0,0,0,.138.032l.044.006h.006l.023,0,.02,0h31.284a.715.715,0,0,0,.756-.6c0-.011,0-.021,0-.033v-1.647c0-.011,0-.022,0-.033a.209.209,0,0,0,0-.026.684.684,0,0,0-.567-.555l-.022,0a.9.9,0,0,0-.164-.016H1885.7c-.023,0-.045,0-.068,0l-.028,0h0l-.035,0a.792.792,0,0,0-.138.032.746.746,0,0,0-.355.238A.559.559,0,0,0,1884.949,1614.211Z" transform="translate(-1884.949 -1613.576)" fill="#ffb93e"/>
            <path id="Trazado_137399" data-name="Trazado 137399" d="M2025.987,1616.494h16.738a.661.661,0,0,0,.675-.6.322.322,0,0,0,0-.033v-1.647c0-.011,0-.022,0-.033a.209.209,0,0,0,0-.026.651.651,0,0,0-.524-.559.123.123,0,0,0-.028-.006.693.693,0,0,0-.12-.011h-14.682l-.006.021a5.113,5.113,0,0,1-2.043,2.891Z" transform="translate(-2010.645 -1613.576)" fill="#ffa412"/>
            <g id="Grupo_106028" data-name="Grupo 106028" transform="translate(0.129 0)">
              <rect id="Rectángulo_37132" data-name="Rectángulo 37132" width="0.355" height="2.917" transform="translate(4.027 2.917) rotate(180)" fill="#ffa412"/>
              <rect id="Rectángulo_37133" data-name="Rectángulo 37133" width="0.355" height="2.917" transform="translate(5.229 2.917) rotate(180)" fill="#ffa412"/>
              <rect id="Rectángulo_37134" data-name="Rectángulo 37134" width="0.355" height="2.917" transform="translate(6.671 2.917) rotate(180)" fill="#ffa412"/>
              <rect id="Rectángulo_37135" data-name="Rectángulo 37135" width="0.355" height="2.917" transform="translate(8.88 2.917) rotate(180)" fill="#ffa412"/>
              <rect id="Rectángulo_37136" data-name="Rectángulo 37136" width="0.355" height="2.917" transform="translate(11.217 2.917) rotate(180)" fill="#ffa412"/>
              <rect id="Rectángulo_37137" data-name="Rectángulo 37137" width="0.355" height="2.917" transform="translate(14.799 2.917) rotate(180)" fill="#ffa412"/>
              <rect id="Rectángulo_37138" data-name="Rectángulo 37138" width="0.355" height="2.917" transform="translate(18.152 2.917) rotate(180)" fill="#ffa412"/>
              <rect id="Rectángulo_37139" data-name="Rectángulo 37139" width="0.355" height="2.917" transform="translate(21.147 2.917) rotate(180)" fill="#ffa412"/>
              <rect id="Rectángulo_37140" data-name="Rectángulo 37140" width="0.355" height="2.917" transform="translate(2.883 2.917) rotate(180)" fill="#ffa412"/>
              <rect id="Rectángulo_37141" data-name="Rectángulo 37141" width="0.355" height="2.917" transform="translate(2.127 2.917) rotate(180)" fill="#ffa412"/>
              <rect id="Rectángulo_37142" data-name="Rectángulo 37142" width="0.355" height="2.917" transform="translate(1.397 2.917) rotate(180)" fill="#ffa412"/>
              <path id="Trazado_137400" data-name="Trazado 137400" d="M1890.668,1613.588v2.9a.886.886,0,0,0,.133.01h.222v-2.917h-.222A.871.871,0,0,0,1890.668,1613.588Z" transform="translate(-1890.175 -1613.578)" fill="#ffa412"/>
              <path id="Trazado_137401" data-name="Trazado 137401" d="M1886.136,1614.21v2.356a.755.755,0,0,0,.355.238v-2.831A.753.753,0,0,0,1886.136,1614.21Z" transform="translate(-1886.136 -1613.929)" fill="#ffa412"/>
            </g>
          </g>
          <g id="Grupo_106031" data-name="Grupo 106031" transform="translate(4.168 14.436)">
            <path id="Trazado_137402" data-name="Trazado 137402" d="M1885.55,1587.59v1.647a.565.565,0,0,0,.129.354.867.867,0,0,0,.071.076.782.782,0,0,0,.284.162.845.845,0,0,0,.107.027h0l.028,0a.867.867,0,0,0,.133.011h31.245a.816.816,0,0,0,.1-.006l.037,0a.7.7,0,0,0,.614-.537.519.519,0,0,0,.006-.055.31.31,0,0,0,0-.033v-1.647a.293.293,0,0,0,0-.033c0-.021,0-.041-.007-.062a.732.732,0,0,0-.748-.541h-31.245l-.06,0h-.025l-.028,0a.064.064,0,0,0-.02,0,.788.788,0,0,0-.139.032c-.026.009-.052.019-.076.029h0a.762.762,0,0,0-.25.176l-.028.032A.568.568,0,0,0,1885.55,1587.59Z" transform="translate(-1885.55 -1586.955)" fill="#ffb93e"/>
            <path id="Trazado_137403" data-name="Trazado 137403" d="M2026.588,1589.872h16.778l.043,0a.66.66,0,0,0,.586-.543.519.519,0,0,0,.006-.055c0-.012,0-.022,0-.033v-1.647a.326.326,0,0,0,0-.033c0-.021,0-.041-.007-.062a.56.56,0,0,0-.018-.07.67.67,0,0,0-.649-.471h-14.684c-.006.024-.013.048-.02.072a5.1,5.1,0,0,1-2,2.824Z" transform="translate(-2011.246 -1586.955)" fill="#ffa412"/>
            <g id="Grupo_106030" data-name="Grupo 106030" transform="translate(0.129 0)">
              <rect id="Rectángulo_37143" data-name="Rectángulo 37143" width="0.355" height="2.917" transform="translate(4.027 2.917) rotate(180)" fill="#ffa412"/>
              <rect id="Rectángulo_37144" data-name="Rectángulo 37144" width="0.355" height="2.917" transform="translate(5.23 2.917) rotate(180)" fill="#ffa412"/>
              <rect id="Rectángulo_37145" data-name="Rectángulo 37145" width="0.355" height="2.917" transform="translate(6.671 2.917) rotate(180)" fill="#ffa412"/>
              <rect id="Rectángulo_37146" data-name="Rectángulo 37146" width="0.355" height="2.917" transform="translate(8.88 2.917) rotate(180)" fill="#ffa412"/>
              <rect id="Rectángulo_37147" data-name="Rectángulo 37147" width="0.355" height="2.917" transform="translate(11.217 2.917) rotate(180)" fill="#ffa412"/>
              <rect id="Rectángulo_37148" data-name="Rectángulo 37148" width="0.355" height="2.917" transform="translate(14.799 2.917) rotate(180)" fill="#ffa412"/>
              <rect id="Rectángulo_37149" data-name="Rectángulo 37149" width="0.355" height="2.917" transform="translate(18.152 2.917) rotate(180)" fill="#ffa412"/>
              <rect id="Rectángulo_37150" data-name="Rectángulo 37150" width="0.355" height="2.917" transform="translate(21.147 2.917) rotate(180)" fill="#ffa412"/>
              <rect id="Rectángulo_37151" data-name="Rectángulo 37151" width="0.355" height="2.917" transform="translate(2.883 2.917) rotate(180)" fill="#ffa412"/>
              <rect id="Rectángulo_37152" data-name="Rectángulo 37152" width="0.355" height="2.917" transform="translate(2.127 2.917) rotate(180)" fill="#ffa412"/>
              <rect id="Rectángulo_37153" data-name="Rectángulo 37153" width="0.355" height="2.917" transform="translate(1.397 2.917) rotate(180)" fill="#ffa412"/>
              <path id="Trazado_137404" data-name="Trazado 137404" d="M1891.272,1586.966v2.9a.886.886,0,0,0,.133.01h.222v-2.917h-.222A.855.855,0,0,0,1891.272,1586.966Z" transform="translate(-1890.779 -1586.956)" fill="#ffa412"/>
              <path id="Trazado_137405" data-name="Trazado 137405" d="M1886.739,1587.588v2.356a.754.754,0,0,0,.355.238v-2.831A.753.753,0,0,0,1886.739,1587.588Z" transform="translate(-1886.739 -1587.307)" fill="#ffa412"/>
            </g>
          </g>
          <g id="Grupo_106033" data-name="Grupo 106033" transform="translate(2.553 11.591)">
            <path id="Trazado_137406" data-name="Trazado 137406" d="M1870.71,1561.435v1.647a.563.563,0,0,0,.13.355.749.749,0,0,0,.354.237.818.818,0,0,0,.139.032.849.849,0,0,0,.133.011h31.245a.869.869,0,0,0,.348-.072.659.659,0,0,0,.4-.461c0-.014,0-.027.006-.041s0-.019,0-.028,0-.021,0-.033v-1.647c0-.011,0-.022,0-.033a.454.454,0,0,0-.007-.062.732.732,0,0,0-.748-.541h-31.245a.864.864,0,0,0-.133.011.807.807,0,0,0-.139.032.742.742,0,0,0-.354.238A.56.56,0,0,0,1870.71,1561.435Z" transform="translate(-1870.71 -1560.8)" fill="#ffb93e"/>
            <path id="Trazado_137407" data-name="Trazado 137407" d="M2011.748,1563.718h16.739a.7.7,0,0,0,.31-.072.639.639,0,0,0,.355-.461c0-.014,0-.027.006-.041s0-.019,0-.028,0-.021,0-.033v-1.647c0-.011,0-.022,0-.033a.474.474,0,0,0-.007-.062.575.575,0,0,0-.018-.068.669.669,0,0,0-.649-.473H2013.8a5.12,5.12,0,0,1-1.953,2.845C2011.817,1563.67,2011.783,1563.693,2011.748,1563.718Z" transform="translate(-1996.406 -1560.8)" fill="#ffa412"/>
            <g id="Grupo_106032" data-name="Grupo 106032" transform="translate(0.129 0)">
              <rect id="Rectángulo_37154" data-name="Rectángulo 37154" width="0.355" height="2.917" transform="translate(4.028 2.917) rotate(180)" fill="#ffa412"/>
              <rect id="Rectángulo_37155" data-name="Rectángulo 37155" width="0.355" height="2.917" transform="translate(5.23 2.917) rotate(180)" fill="#ffa412"/>
              <rect id="Rectángulo_37156" data-name="Rectángulo 37156" width="0.355" height="2.917" transform="translate(6.671 2.917) rotate(180)" fill="#ffa412"/>
              <rect id="Rectángulo_37157" data-name="Rectángulo 37157" width="0.355" height="2.917" transform="translate(8.881 2.917) rotate(180)" fill="#ffa412"/>
              <rect id="Rectángulo_37158" data-name="Rectángulo 37158" width="0.355" height="2.917" transform="translate(11.217 2.917) rotate(180)" fill="#ffa412"/>
              <rect id="Rectángulo_37159" data-name="Rectángulo 37159" width="0.355" height="2.917" transform="translate(14.799 2.917) rotate(180)" fill="#ffa412"/>
              <rect id="Rectángulo_37160" data-name="Rectángulo 37160" width="0.355" height="2.917" transform="translate(18.152 2.917) rotate(180)" fill="#ffa412"/>
              <rect id="Rectángulo_37161" data-name="Rectángulo 37161" width="0.355" height="2.917" transform="translate(21.147 2.917) rotate(180)" fill="#ffa412"/>
              <rect id="Rectángulo_37162" data-name="Rectángulo 37162" width="0.355" height="2.917" transform="translate(2.883 2.917) rotate(180)" fill="#ffa412"/>
              <rect id="Rectángulo_37163" data-name="Rectángulo 37163" width="0.355" height="2.917" transform="translate(2.127 2.917) rotate(180)" fill="#ffa412"/>
              <rect id="Rectángulo_37164" data-name="Rectángulo 37164" width="0.355" height="2.917" transform="translate(1.398 2.917) rotate(180)" fill="#ffa412"/>
              <path id="Trazado_137408" data-name="Trazado 137408" d="M1876.432,1560.814v2.9a.855.855,0,0,0,.133.01h.222V1560.8h-.222A.886.886,0,0,0,1876.432,1560.814Z" transform="translate(-1875.939 -1560.804)" fill="#ffa412"/>
              <path id="Trazado_137409" data-name="Trazado 137409" d="M1871.9,1561.435v2.356a.754.754,0,0,0,.355.238V1561.2A.752.752,0,0,0,1871.9,1561.435Z" transform="translate(-1871.898 -1561.154)" fill="#ffa412"/>
            </g>
          </g>
          <g id="Grupo_106035" data-name="Grupo 106035" transform="translate(0 8.674)">
            <path id="Trazado_137410" data-name="Trazado 137410" d="M1847.238,1534.624v1.648a.564.564,0,0,0,.129.353h0c.011.014.022.026.034.039a.712.712,0,0,0,.167.131.816.816,0,0,0,.1.048h0c.017.007.034.014.053.02a.8.8,0,0,0,.139.032.851.851,0,0,0,.133.01h31.245a.731.731,0,0,0,.748-.54.419.419,0,0,0,.007-.062.317.317,0,0,0,0-.032v-1.648a.317.317,0,0,0,0-.032.7.7,0,0,0-.666-.6.667.667,0,0,0-.089,0h-31.245a.988.988,0,0,0-.133.01.9.9,0,0,0-.139.033.767.767,0,0,0-.32.2c-.012.013-.023.025-.034.039h0A.565.565,0,0,0,1847.238,1534.624Z" transform="translate(-1847.238 -1533.99)" fill="#ffb93e"/>
            <path id="Trazado_137411" data-name="Trazado 137411" d="M1988.275,1536.906h16.739a.669.669,0,0,0,.649-.472.6.6,0,0,0,.017-.068.419.419,0,0,0,.007-.062.317.317,0,0,0,0-.032v-1.648a.317.317,0,0,0,0-.032.655.655,0,0,0-.594-.6.541.541,0,0,0-.08,0h-14.683a.049.049,0,0,0,0,0A5.11,5.11,0,0,1,1988.275,1536.906Z" transform="translate(-1972.933 -1533.99)" fill="#ffa412"/>
            <g id="Grupo_106034" data-name="Grupo 106034" transform="translate(0.129)">
              <rect id="Rectángulo_37165" data-name="Rectángulo 37165" width="0.355" height="2.917" transform="translate(4.027 2.917) rotate(180)" fill="#ffa412"/>
              <rect id="Rectángulo_37166" data-name="Rectángulo 37166" width="0.355" height="2.917" transform="translate(5.229 2.917) rotate(180)" fill="#ffa412"/>
              <rect id="Rectángulo_37167" data-name="Rectángulo 37167" width="0.355" height="2.917" transform="translate(6.671 2.917) rotate(180)" fill="#ffa412"/>
              <rect id="Rectángulo_37168" data-name="Rectángulo 37168" width="0.355" height="2.917" transform="translate(8.88 2.917) rotate(180)" fill="#ffa412"/>
              <rect id="Rectángulo_37169" data-name="Rectángulo 37169" width="0.355" height="2.917" transform="translate(11.217 2.917) rotate(180)" fill="#ffa412"/>
              <rect id="Rectángulo_37170" data-name="Rectángulo 37170" width="0.355" height="2.917" transform="translate(14.799 2.917) rotate(180)" fill="#ffa412"/>
              <rect id="Rectángulo_37171" data-name="Rectángulo 37171" width="0.355" height="2.917" transform="translate(18.152 2.917) rotate(180)" fill="#ffa412"/>
              <rect id="Rectángulo_37172" data-name="Rectángulo 37172" width="0.355" height="2.917" transform="translate(21.147 2.917) rotate(180)" fill="#ffa412"/>
              <rect id="Rectángulo_37173" data-name="Rectángulo 37173" width="0.355" height="2.917" transform="translate(2.883 2.917) rotate(180)" fill="#ffa412"/>
              <rect id="Rectángulo_37174" data-name="Rectángulo 37174" width="0.355" height="2.917" transform="translate(2.127 2.917) rotate(180)" fill="#ffa412"/>
              <rect id="Rectángulo_37175" data-name="Rectángulo 37175" width="0.355" height="2.917" transform="translate(1.397 2.917) rotate(180)" fill="#ffa412"/>
              <path id="Trazado_137412" data-name="Trazado 137412" d="M1852.959,1534v2.9a.871.871,0,0,0,.133.01h.222v-2.917h-.222A.886.886,0,0,0,1852.959,1534Z" transform="translate(-1852.466 -1533.989)" fill="#ffa412"/>
              <path id="Trazado_137413" data-name="Trazado 137413" d="M1848.426,1534.621v2.356a.754.754,0,0,0,.355.238v-2.831A.753.753,0,0,0,1848.426,1534.621Z" transform="translate(-1848.426 -1534.34)" fill="#ffa412"/>
            </g>
          </g>
          <g id="Grupo_106037" data-name="Grupo 106037" transform="translate(4.102 5.762)">
            <path id="Trazado_137414" data-name="Trazado 137414" d="M1884.949,1507.852v1.647a.559.559,0,0,0,.129.354.746.746,0,0,0,.355.238.8.8,0,0,0,.138.032l.044.006h.006a.266.266,0,0,0,.029,0h31.3a.794.794,0,0,0,.643-.3.56.56,0,0,0,.112-.3c0-.012,0-.022,0-.033v-1.647c0-.012,0-.022,0-.033a.67.67,0,0,0-.536-.574.858.858,0,0,0-.22-.028h-31.284l-.019,0a.616.616,0,0,0-.074.008.8.8,0,0,0-.138.032.462.462,0,0,0-.064.024h0a.733.733,0,0,0-.219.138l0,0-.009.008a.6.6,0,0,0-.06.063A.562.562,0,0,0,1884.949,1507.852Z" transform="translate(-1884.949 -1507.217)" fill="#ffb93e"/>
            <path id="Trazado_137415" data-name="Trazado 137415" d="M2025.987,1510.134h16.738a.686.686,0,0,0,.564-.288.6.6,0,0,0,.11-.314c0-.012,0-.022,0-.033v-1.647a.323.323,0,0,0,0-.033.651.651,0,0,0-.538-.589.706.706,0,0,0-.137-.014h-14.682c-.006.022-.013.045-.02.067a5.1,5.1,0,0,1-2.029,2.845Z" transform="translate(-2010.645 -1507.217)" fill="#ffa412"/>
            <g id="Grupo_106036" data-name="Grupo 106036" transform="translate(0.129 0)">
              <rect id="Rectángulo_37176" data-name="Rectángulo 37176" width="0.355" height="2.917" transform="translate(4.027 2.917) rotate(180)" fill="#ffa412"/>
              <rect id="Rectángulo_37177" data-name="Rectángulo 37177" width="0.355" height="2.917" transform="translate(5.229 2.917) rotate(180)" fill="#ffa412"/>
              <rect id="Rectángulo_37178" data-name="Rectángulo 37178" width="0.355" height="2.917" transform="translate(6.671 2.917) rotate(180)" fill="#ffa412"/>
              <rect id="Rectángulo_37179" data-name="Rectángulo 37179" width="0.355" height="2.917" transform="translate(8.88 2.917) rotate(180)" fill="#ffa412"/>
              <rect id="Rectángulo_37180" data-name="Rectángulo 37180" width="0.355" height="2.917" transform="translate(11.217 2.917) rotate(180)" fill="#ffa412"/>
              <rect id="Rectángulo_37181" data-name="Rectángulo 37181" width="0.355" height="2.917" transform="translate(14.799 2.917) rotate(180)" fill="#ffa412"/>
              <rect id="Rectángulo_37182" data-name="Rectángulo 37182" width="0.355" height="2.917" transform="translate(18.152 2.917) rotate(180)" fill="#ffa412"/>
              <rect id="Rectángulo_37183" data-name="Rectángulo 37183" width="0.355" height="2.917" transform="translate(21.147 2.917) rotate(180)" fill="#ffa412"/>
              <rect id="Rectángulo_37184" data-name="Rectángulo 37184" width="0.355" height="2.917" transform="translate(2.883 2.917) rotate(180)" fill="#ffa412"/>
              <rect id="Rectángulo_37185" data-name="Rectángulo 37185" width="0.355" height="2.917" transform="translate(2.127 2.917) rotate(180)" fill="#ffa412"/>
              <rect id="Rectángulo_37186" data-name="Rectángulo 37186" width="0.355" height="2.917" transform="translate(1.397 2.917) rotate(180)" fill="#ffa412"/>
              <path id="Trazado_137416" data-name="Trazado 137416" d="M1890.668,1507.228v2.9a.9.9,0,0,0,.133.01h.222v-2.917h-.222A.886.886,0,0,0,1890.668,1507.228Z" transform="translate(-1890.175 -1507.218)" fill="#ffa412"/>
              <path id="Trazado_137417" data-name="Trazado 137417" d="M1886.136,1507.848v2.356a.753.753,0,0,0,.355.238v-2.831A.755.755,0,0,0,1886.136,1507.848Z" transform="translate(-1886.136 -1507.568)" fill="#ffa412"/>
            </g>
          </g>
          <g id="Grupo_106039" data-name="Grupo 106039" transform="translate(1.805 2.912)">
            <path id="Trazado_137418" data-name="Trazado 137418" d="M1863.828,1481.658v1.647a.56.56,0,0,0,.13.354.752.752,0,0,0,.354.238.823.823,0,0,0,.138.033.885.885,0,0,0,.133.01h31.244a.866.866,0,0,0,.338-.067.65.65,0,0,0,.415-.509c0-.008,0-.017,0-.026s0-.022,0-.033v-1.647c0-.011,0-.022,0-.032a.7.7,0,0,0-.666-.6.83.83,0,0,0-.089,0h-31.244a.885.885,0,0,0-.133.01.823.823,0,0,0-.138.033.749.749,0,0,0-.354.238A.559.559,0,0,0,1863.828,1481.658Z" transform="translate(-1863.828 -1481.023)" fill="#ffb93e"/>
            <path id="Trazado_137419" data-name="Trazado 137419" d="M2004.868,1483.94h16.739a.7.7,0,0,0,.3-.067.638.638,0,0,0,.371-.509c0-.008,0-.017,0-.026s0-.022,0-.033v-1.647c0-.011,0-.022,0-.032a.676.676,0,0,0-.674-.6h-14.683v0a5.117,5.117,0,0,1-1.958,2.845Z" transform="translate(-1989.525 -1481.023)" fill="#ffa412"/>
            <g id="Grupo_106038" data-name="Grupo 106038" transform="translate(0.13)">
              <rect id="Rectángulo_37187" data-name="Rectángulo 37187" width="0.355" height="2.917" transform="translate(4.027 2.917) rotate(180)" fill="#ffa412"/>
              <rect id="Rectángulo_37188" data-name="Rectángulo 37188" width="0.355" height="2.917" transform="translate(5.229 2.917) rotate(180)" fill="#ffa412"/>
              <rect id="Rectángulo_37189" data-name="Rectángulo 37189" width="0.355" height="2.917" transform="translate(6.671 2.917) rotate(180)" fill="#ffa412"/>
              <rect id="Rectángulo_37190" data-name="Rectángulo 37190" width="0.355" height="2.917" transform="translate(8.88 2.917) rotate(180)" fill="#ffa412"/>
              <rect id="Rectángulo_37191" data-name="Rectángulo 37191" width="0.355" height="2.917" transform="translate(11.217 2.917) rotate(180)" fill="#ffa412"/>
              <rect id="Rectángulo_37192" data-name="Rectángulo 37192" width="0.355" height="2.917" transform="translate(14.799 2.917) rotate(180)" fill="#ffa412"/>
              <rect id="Rectángulo_37193" data-name="Rectángulo 37193" width="0.355" height="2.917" transform="translate(18.152 2.917) rotate(180)" fill="#ffa412"/>
              <rect id="Rectángulo_37194" data-name="Rectángulo 37194" width="0.355" height="2.917" transform="translate(21.147 2.917) rotate(180)" fill="#ffa412"/>
              <rect id="Rectángulo_37195" data-name="Rectángulo 37195" width="0.355" height="2.917" transform="translate(2.883 2.917) rotate(180)" fill="#ffa412"/>
              <rect id="Rectángulo_37196" data-name="Rectángulo 37196" width="0.355" height="2.917" transform="translate(2.127 2.917) rotate(180)" fill="#ffa412"/>
              <rect id="Rectángulo_37197" data-name="Rectángulo 37197" width="0.355" height="2.917" transform="translate(1.397 2.917) rotate(180)" fill="#ffa412"/>
              <path id="Trazado_137420" data-name="Trazado 137420" d="M1869.552,1481.032v2.9a.868.868,0,0,0,.133.01h.222v-2.917h-.222A.884.884,0,0,0,1869.552,1481.032Z" transform="translate(-1869.059 -1481.022)" fill="#ffa412"/>
              <path id="Trazado_137421" data-name="Trazado 137421" d="M1865.02,1481.654v2.356a.752.752,0,0,0,.355.238v-2.831A.751.751,0,0,0,1865.02,1481.654Z" transform="translate(-1865.02 -1481.373)" fill="#ffa412"/>
            </g>
          </g>
          <g id="Grupo_106041" data-name="Grupo 106041" transform="translate(0.827)">
            <path id="Trazado_137422" data-name="Trazado 137422" d="M1854.839,1454.887v1.647a.561.561,0,0,0,.13.354.752.752,0,0,0,.355.238.833.833,0,0,0,.139.033l.044.005.025,0h31.309a.714.714,0,0,0,.755-.6c0-.011,0-.022,0-.033v-1.647c0-.011,0-.022,0-.033a.714.714,0,0,0-.755-.6h-31.244a.852.852,0,0,0-.133.01.8.8,0,0,0-.139.033.752.752,0,0,0-.355.237A.561.561,0,0,0,1854.839,1454.887Z" transform="translate(-1854.839 -1454.252)" fill="#ffb93e"/>
            <path id="Trazado_137423" data-name="Trazado 137423" d="M1995.879,1457.169h16.739a.66.66,0,0,0,.674-.6c0-.011,0-.022,0-.033v-1.647c0-.011,0-.022,0-.033a.66.66,0,0,0-.674-.6h-14.683a5.112,5.112,0,0,1-2.049,2.912Z" transform="translate(-1980.536 -1454.252)" fill="#ffa412"/>
            <g id="Grupo_106040" data-name="Grupo 106040" transform="translate(0.129)">
              <rect id="Rectángulo_37198" data-name="Rectángulo 37198" width="0.355" height="2.917" transform="translate(4.027 2.917) rotate(180)" fill="#ffa412"/>
              <rect id="Rectángulo_37199" data-name="Rectángulo 37199" width="0.355" height="2.917" transform="translate(5.23 2.917) rotate(180)" fill="#ffa412"/>
              <rect id="Rectángulo_37200" data-name="Rectángulo 37200" width="0.355" height="2.917" transform="translate(6.671 2.917) rotate(180)" fill="#ffa412"/>
              <rect id="Rectángulo_37201" data-name="Rectángulo 37201" width="0.355" height="2.917" transform="translate(8.88 2.917) rotate(180)" fill="#ffa412"/>
              <rect id="Rectángulo_37202" data-name="Rectángulo 37202" width="0.355" height="2.917" transform="translate(11.217 2.917) rotate(180)" fill="#ffa412"/>
              <rect id="Rectángulo_37203" data-name="Rectángulo 37203" width="0.355" height="2.917" transform="translate(14.799 2.917) rotate(180)" fill="#ffa412"/>
              <rect id="Rectángulo_37204" data-name="Rectángulo 37204" width="0.355" height="2.917" transform="translate(18.152 2.917) rotate(180)" fill="#ffa412"/>
              <rect id="Rectángulo_37205" data-name="Rectángulo 37205" width="0.355" height="2.917" transform="translate(20.792 0)" fill="#ffa412"/>
              <rect id="Rectángulo_37206" data-name="Rectángulo 37206" width="0.355" height="2.917" transform="translate(2.883 2.917) rotate(180)" fill="#ffa412"/>
              <rect id="Rectángulo_37207" data-name="Rectángulo 37207" width="0.355" height="2.917" transform="translate(2.127 2.917) rotate(180)" fill="#ffa412"/>
              <rect id="Rectángulo_37208" data-name="Rectángulo 37208" width="0.355" height="2.917" transform="translate(1.398 2.917) rotate(180)" fill="#ffa412"/>
              <path id="Trazado_137424" data-name="Trazado 137424" d="M1860.563,1454.261v2.9a.888.888,0,0,0,.133.01h.222v-2.917h-.222A.872.872,0,0,0,1860.563,1454.261Z" transform="translate(-1860.07 -1454.251)" fill="#ffa412"/>
              <path id="Trazado_137425" data-name="Trazado 137425" d="M1856.029,1454.883v2.356a.753.753,0,0,0,.355.238v-2.831A.751.751,0,0,0,1856.029,1454.883Z" transform="translate(-1856.029 -1454.602)" fill="#ffa412"/>
            </g>
          </g>
        </g>
        <g id="Grupo_106043" data-name="Grupo 106043" transform="translate(5.711)">
          <path id="Trazado_137426" data-name="Trazado 137426" d="M1945.882,1275.821s1.641,2.31,3.146,2.343a10.991,10.991,0,0,0,3.793-1.071s1.381-3.079.444-4.283a2.012,2.012,0,0,0-1.922.316,2.942,2.942,0,0,0-.509.487,1.615,1.615,0,0,1-.79.535c-1.073.327-2.348-.442-2.824.3a5.035,5.035,0,0,1-.83.983A3.763,3.763,0,0,1,1945.882,1275.821Z" transform="translate(-1940.862 -1272.693)" fill="#ffeddc"/>
          <path id="Trazado_137427" data-name="Trazado 137427" d="M1926.152,1337.3s-5.8-14.055-16.241-14.323c0,0-9.638,1.071-10.173,14.323Z" transform="translate(-1899.738 -1317.511)" fill="#ffeddc"/>
          <path id="Trazado_137428" data-name="Trazado 137428" d="M1974.633,1312.025s-4.185.931-5.476.384a1.293,1.293,0,0,1,1.567-1.5,3.7,3.7,0,0,0,2.454-.647C1973.832,1309.924,1974.806,1311.292,1974.633,1312.025Z" transform="translate(-1961.599 -1306.125)" fill="#db6a1d"/>
          <path id="Trazado_137429" data-name="Trazado 137429" d="M1984.317,1279.5c.268.2,1.09-2.83,1.09-2.83a2.946,2.946,0,0,0-.509.487,1.614,1.614,0,0,1-.79.535C1984.105,1277.777,1984.057,1279.3,1984.317,1279.5Z" transform="translate(-1974.925 -1276.234)" fill="#e5c1a1"/>
          <path id="Trazado_137430" data-name="Trazado 137430" d="M1950.558,1289.806a17.244,17.244,0,0,0,2.257,1.194c.268,0-1.427-2.177-1.427-2.177A5.038,5.038,0,0,1,1950.558,1289.806Z" transform="translate(-1945.029 -1287.068)" fill="#e5c1a1"/>
          <path id="Trazado_137431" data-name="Trazado 137431" d="M1960.044,1367.365c.107-.092-4.1-6.2-5.265-6.247s-3.766,1.339-5.653,1.517-3.716-.357-4.073.759-1.339,5.07-.736,5.7S1957.728,1369.344,1960.044,1367.365Z" transform="translate(-1939.296 -1351.498)" fill="#f9ddbf"/>
        </g>
      </g>
      <path id="Trazado_137432" data-name="Trazado 137432" d="M2053.831,1488.664c0,.008,0,.015,0,.021a13.974,13.974,0,0,0,.469,2.891.037.037,0,0,1,0,0c.037.137.076.273.118.409a14.263,14.263,0,0,0,1.03,2.5,14.5,14.5,0,0,0,1.963,2.844l.063.072a15.049,15.049,0,0,0,3.433,2.845q.416.253.853.483c.2.1.4.2.594.3.19.11.391.205.581.321a8.128,8.128,0,0,0,1.985.817v-1.283c0-.011,0-.021,0-.032s0-.042-.007-.062a.606.606,0,0,0-.018-.07.67.67,0,0,0-.649-.47h3.341a.67.67,0,0,0,.649-.471.56.56,0,0,0,.018-.07.585.585,0,0,0,.007-.062.293.293,0,0,0,0-.033v-1.646a.3.3,0,0,0,0-.033.588.588,0,0,0-.007-.062.552.552,0,0,0-.018-.069.67.67,0,0,0-.649-.471h-1.3a.639.639,0,0,0,.355-.461c0-.014,0-.027.006-.041s0-.018,0-.028,0-.021,0-.032v-1.648c0-.011,0-.022,0-.032a.453.453,0,0,0-.007-.061.536.536,0,0,0-.018-.068.668.668,0,0,0-.649-.473h-.749a.671.671,0,0,0,.649-.471.521.521,0,0,0,.018-.07c0-.02.006-.041.007-.061v-1.713a.657.657,0,0,0-.594-.6h2.217a.661.661,0,0,0,.675-.6c0-.011,0-.021,0-.033V1489.3c0-.011,0-.022,0-.033a.235.235,0,0,0,0-.026.651.651,0,0,0-.524-.559.66.66,0,0,0,.586-.542.463.463,0,0,0,.006-.055.307.307,0,0,0,0-.033V1486.4a.3.3,0,0,0,0-.033.586.586,0,0,0-.007-.061.56.56,0,0,0-.018-.07.67.67,0,0,0-.649-.471h-1.3a.639.639,0,0,0,.355-.461c0-.014,0-.027.006-.041s0-.019,0-.028,0-.021,0-.033v-1.646c0-.011,0-.022,0-.033a.478.478,0,0,0-.007-.062.536.536,0,0,0-.018-.068.669.669,0,0,0-.649-.473h-2.553a.669.669,0,0,0,.649-.472.633.633,0,0,0,.017-.068.439.439,0,0,0,.007-.062c0-.011,0-.022,0-.032v-1.648c0-.011,0-.021,0-.032a.655.655,0,0,0-.594-.6h4.021a.686.686,0,0,0,.564-.288l0-.015-.424-2.587,0-.015-.6-3.69a16.117,16.117,0,0,0-2.07.417l-.119.032-.008,0q-.593.166-1.17.376l-.01,0a15.469,15.469,0,0,0-4.851,2.845c-.025.021-.051.044-.075.067a14.626,14.626,0,0,0-2.034,2.191q-.183.24-.354.489c-.038.055-.076.109-.112.165a.006.006,0,0,0,0,0q-.277.409-.525.838a14.325,14.325,0,0,0-.989,2.073,13.869,13.869,0,0,0-.758,2.845c0,.024-.008.048-.011.072A13.916,13.916,0,0,0,2053.831,1488.664Z" transform="translate(-2031.339 -1451.582)" fill="#e2810e" opacity="0.5"/>
      <g id="Grupo_106047" data-name="Grupo 106047" transform="translate(19.573 13.842)">
        <circle id="Elipse_5296" data-name="Elipse 5296" cx="15.368" cy="15.368" r="15.368" transform="translate(6.366 37.102) rotate(-90)" fill="#e2810e"/>
        <path id="Trazado_137433" data-name="Trazado 137433" d="M2103.828,1492.879q.284.173.578.335c.066.037.132.073.2.107.151.081.3.159.456.234a15.369,15.369,0,0,0,14.184-27.26q-.3-.163-.6-.311c-.194-.1-.389-.189-.586-.276a15.346,15.346,0,0,0-4.613-1.24,15.371,15.371,0,0,0-9.622,28.41Z" transform="translate(-2088.916 -1457.374)" fill="#ffb93e"/>
        <g id="Grupo_106045" data-name="Grupo 106045" transform="translate(9.052 8.772)">
          <path id="Trazado_137434" data-name="Trazado 137434" d="M2117.505,1506.412a13.685,13.685,0,1,1,6.628,1.717A13.786,13.786,0,0,1,2117.505,1506.412Zm-5.086-18.528a13.405,13.405,0,1,0,11.756-6.928A13.414,13.414,0,0,0,2112.419,1487.884Z" transform="translate(-2110.385 -1480.585)" fill="#ffa412"/>
        </g>
        <g id="Grupo_106046" data-name="Grupo 106046" transform="translate(15.71 12.434)">
          <path id="Trazado_137435" data-name="Trazado 137435" d="M2171.586,1527.407a3.846,3.846,0,0,0,.377,1.571c.018.037.036.074.055.111a4.742,4.742,0,0,0,.97,1.267,7,7,0,0,0,1.608,1.122l-.813,2,1.722.7.809-1.992a7.813,7.813,0,0,0,1.9.313,4.957,4.957,0,0,0,1.843-.266,4.443,4.443,0,0,0,1.622-1.012,5.4,5.4,0,0,0,1.231-1.914l-3.13-1.271a3.329,3.329,0,0,1-.685,1.111,2.155,2.155,0,0,1-.846.547,2.1,2.1,0,0,1-.927.093,3.619,3.619,0,0,1-.919-.239,3.005,3.005,0,0,1-.841-.494,1.994,1.994,0,0,1-.5-.624,1.582,1.582,0,0,1-.167-.707,1.931,1.931,0,0,1,.15-.742,2.307,2.307,0,0,1,.422-.7,1.692,1.692,0,0,1,.627-.425,3.184,3.184,0,0,1,.9-.2,8.3,8.3,0,0,1,1.221-.008,22.034,22.034,0,0,0,2.245,0,6.946,6.946,0,0,0,1.865-.338,4.1,4.1,0,0,0,1.465-.858,4.626,4.626,0,0,0,1.362-3.245,3.9,3.9,0,0,0-.369-1.58,4.859,4.859,0,0,0-1-1.4,6.5,6.5,0,0,0-1.591-1.132l.874-2.153-1.733-.7-.887,2.184a5.8,5.8,0,0,0-1.889-.193,4.391,4.391,0,0,0-3.069,1.514,5.848,5.848,0,0,0-1.025,1.7l3.131,1.271a2.849,2.849,0,0,1,1.269-1.589,1.978,1.978,0,0,1,1.679-.016,2.5,2.5,0,0,1,.784.477,1.7,1.7,0,0,1,.428.607,1.586,1.586,0,0,1,.109.695,2.33,2.33,0,0,1-.174.738,2.143,2.143,0,0,1-.382.63,1.58,1.58,0,0,1-.6.407,3.2,3.2,0,0,1-.9.2,10.776,10.776,0,0,1-1.279.026q-1.21-.034-2.239.029a7.028,7.028,0,0,0-1.865.35,4.166,4.166,0,0,0-1.467.863,4.032,4.032,0,0,0-.932,1.332c-.033.072-.065.145-.1.221A4.223,4.223,0,0,0,2171.586,1527.407Z" transform="translate(-2171.584 -1514.249)" fill="#ffa412"/>
        </g>
      </g>
    </g>
    <g id="Grupo_106049" data-name="Grupo 106049" transform="translate(415.888 274.571)">
      <path id="Trazado_137436" data-name="Trazado 137436" d="M2310.509,1107.907a28.759,28.759,0,0,1,4.3,2.1c1.942,2.154,1.388,4.965.277,4.992-.712.017-.574,1.2-.574,1.2l-7.938-3.358S2307.532,1107.273,2310.509,1107.907Z" transform="translate(-2300.312 -1105.249)" fill="#2c3a64"/>
      <path id="Trazado_137437" data-name="Trazado 137437" d="M2333.695,1086.98a2.844,2.844,0,0,1,3.172-3.093,4.059,4.059,0,0,0-1.589.852,4.086,4.086,0,0,1,4.6.694c2.4,1.988.908,6.974,1.637,7.921s3.569,1.136,3.222,4.2-9.013,6.895-8.457,9.427c0,0-3.4-4.992-.968-7.271a4.5,4.5,0,0,0-1.3,2.44s-.321-2.588,1.325-3.415a6.078,6.078,0,0,0,2.525-3.89C2337.734,1094.365,2333.695,1086.98,2333.695,1086.98Z" transform="translate(-2324.475 -1083.888)" fill="#2c3a64"/>
      <path id="Trazado_137438" data-name="Trazado 137438" d="M2291.6,1225.866a3.068,3.068,0,0,1,5.434-1.266,2.777,2.777,0,0,1,.547,1.348c.359,2.912-4.3,14.775-4.964,15.849-1.214,1.955-8.363,8.659-8.363,8.659l-1.317-.8s5.071-8.584,5.856-9.388C2289.7,1239.34,2290.591,1230.738,2291.6,1225.866Z" transform="translate(-2279.246 -1208.225)" fill="#ed985f"/>
      <path id="Trazado_137439" data-name="Trazado 137439" d="M2254.5,1455.087s-1.923-1.262-2.651-1.181-2.835.688-2.861,1,2.347.5,2.507.672,1.771,1.245,2.355.908S2254.5,1455.087,2254.5,1455.087Z" transform="translate(-2248.99 -1413.651)" fill="#ed985f"/>
      <path id="Trazado_137440" data-name="Trazado 137440" d="M2422.961,1371.831l1.718-.253a20.308,20.308,0,0,0,6.636-13.155,15.275,15.275,0,0,0,.041-2.648.464.464,0,0,1,.06-.292l0,0c.185-.283.645-.993,1.268-2,.614-.995,1.665-2.875,2.821-4.986,2.083-3.8,4.508-8.346,5.339-9.794,2.65-4.614,1.373-7.717,1.373-7.717s-7.393-.731-9.419-2.5l-.73,1.125s-1.6,7.091-1.526,7.124l-.24.736a123.311,123.311,0,0,0-3.511,12.75,21.1,21.1,0,0,0-.555,5.509,9.677,9.677,0,0,1-.131,2.018C2425.392,1362.829,2422.961,1371.831,2422.961,1371.831Z" transform="translate(-2404.036 -1301.871)" fill="#2b478b"/>
      <path id="Trazado_137441" data-name="Trazado 137441" d="M2389.835,1714.318H2397a3.934,3.934,0,0,0-.2-1.921c-.359-.8-.87-.821-.065-2.067a4.365,4.365,0,0,1-2.956.524,8.775,8.775,0,0,1-1.242,1.891C2392.068,1713.082,2389.979,1712.962,2389.835,1714.318Z" transform="translate(-2374.514 -1642.185)" fill="#233862"/>
      <path id="Trazado_137442" data-name="Trazado 137442" d="M2490.464,1337.463c.626,3.453,2.1,9.2,5.2,11.028,2.083-3.8,4.507-8.346,5.339-9.794,2.65-4.614,1.373-7.717,1.373-7.717s-7.393-.731-9.419-2.5l-.729,1.125s-1.6,7.091-1.526,7.124Z" transform="translate(-2464.196 -1301.871)" fill="#233862"/>
      <path id="Trazado_137443" data-name="Trazado 137443" d="M2360.221,1226.908a8.923,8.923,0,0,0-1.224,3.384s1.3,4.065,5.075,4.647C2364.072,1234.94,2361.15,1226.906,2360.221,1226.908Z" transform="translate(-2347.03 -1211.35)" fill="#ed7d2b"/>
      <path id="Trazado_137444" data-name="Trazado 137444" d="M2536.472,1319.26l-.024-1.34c2.671.337,9.208-3.191,9.208-3.191s2.794,1.858,3.177,7.165c.187,2.59,1.368,13.545,1.5,16.817.048,1.186.063,2.031.069,2.37a.006.006,0,0,0,0,0,.467.467,0,0,0,.114.276,15.3,15.3,0,0,1,1.447,2.218c4.075,7.582,1.944,17.885,1.944,17.885l-.946-.241s-3.446-10.68-5.7-15.3a9.665,9.665,0,0,0-1.02-1.746,21.083,21.083,0,0,1-2.62-4.877,127.474,127.474,0,0,1-4.431-13.278C2539.108,1326.035,2536.472,1319.26,2536.472,1319.26Z" transform="translate(-2505.178 -1289.617)" fill="#2b478b"/>
      <path id="Trazado_137445" data-name="Trazado 137445" d="M2354.981,1189.852c4.366-1,1.577-7.137,1.324-7.029-.6-.123-1.933-1.185-3.122-3.26l-.161.139-2.682,2.351s.62.914,1.141,1.81a4.093,4.093,0,0,1,.7,1.629C2351.965,1185.662,2353.817,1190.12,2354.981,1189.852Z" transform="translate(-2339.316 -1169.155)" fill="#ffb27d"/>
      <path id="Trazado_137446" data-name="Trazado 137446" d="M2350.342,1183.2s.62.913,1.141,1.81c1.667-1.028,1.669-3.092,1.541-4.161Z" transform="translate(-2339.317 -1170.301)" fill="#ed985f"/>
      <path id="Trazado_137447" data-name="Trazado 137447" d="M2313.843,1145.108s4.048-2.253,2.607-4.752-1.89-4.474-4.536-3.141-2.593,2.573-2.315,3.525S2312.752,1145.629,2313.843,1145.108Z" transform="translate(-2302.892 -1131.032)" fill="#ffb27d"/>
      <path id="Trazado_137448" data-name="Trazado 137448" d="M2304.14,1136.509c.185-1.11.749-1.216,1.142-1.142a3.238,3.238,0,0,1,3.938-1.507,5.511,5.511,0,0,0,3.19,1.916s-.47.874-2.405,1.415a3.308,3.308,0,0,1-1.909-.152,10.809,10.809,0,0,0,2.747,1.035c-2.551.234-4.978-2.1-5.229-2.348a3.627,3.627,0,0,0-.2,1.671c.168.752.835,2.113.428,2.289C2305.84,1139.686,2303.862,1138.173,2304.14,1136.509Z" transform="translate(-2298.116 -1128.258)" fill="#2c3a64"/>
      <path id="Trazado_137449" data-name="Trazado 137449" d="M2644.531,1713.894h7.167a3.935,3.935,0,0,0-.2-1.921c-.359-.8-.921-1.157-.786-2.119a2.582,2.582,0,0,1-2.234.855,7.851,7.851,0,0,1-1.244,1.612C2646.764,1712.657,2644.675,1712.537,2644.531,1713.894Z" transform="translate(-2601.503 -1641.76)" fill="#233862"/>
      <path id="Trazado_137450" data-name="Trazado 137450" d="M2368.958,1217.162a17.441,17.441,0,0,0,3.541.642,23.914,23.914,0,0,1,4.85.753,1.094,1.094,0,0,1,.7.566,13.308,13.308,0,0,0,2.389,3.378c12.48-.568,13.85-5.788,13.85-5.788-8.4-9.763-22.761-11.893-22.761-11.893a2.217,2.217,0,0,0-2.666,1.308c-.756,2.045-2.241,1.475-2.241,1.475S2366.244,1216.216,2368.958,1217.162Z" transform="translate(-2353.806 -1191.602)" fill="#f99746"/>
      <path id="Trazado_137451" data-name="Trazado 137451" d="M2420.825,1241.579a23.925,23.925,0,0,1,4.849.753,19.872,19.872,0,0,0-2.521-10.906S2421.238,1239.223,2420.825,1241.579Z" transform="translate(-2402.133 -1215.377)" fill="#ed7d2b"/>
      <path id="Trazado_137452" data-name="Trazado 137452" d="M2318.361,1220.356s4.723.467,5.1,3.536-4.528,15.569-5.231,16.7c-1.279,2.061-8.813,9.124-8.813,9.124l-1.388-.842s5.344-9.046,6.171-9.893C2315.5,1237.654,2316.762,1221.419,2318.361,1220.356Z" transform="translate(-2301.608 -1205.511)" fill="#ffb27d"/>
      <path id="Trazado_137453" data-name="Trazado 137453" d="M2389.671,1219.712c-.012.07-4.359,1.42-7.156,0,0,0-.6-6.454,2.741-6.1s5.317,1.4,5.4,3A5.65,5.65,0,0,1,2389.671,1219.712Z" transform="translate(-2367.952 -1199.485)" fill="#f99746"/>
      <path id="Trazado_137454" data-name="Trazado 137454" d="M2280.406,1468.937s-1.694-1.556-2.426-1.593-2.909.222-2.984.523,2.236.875,2.366,1.068,1.547,1.514,2.178,1.276S2280.406,1468.937,2280.406,1468.937Z" transform="translate(-2272.166 -1425.628)" fill="#ffb27d"/>
    </g>
    <g id="Grupo_106052" data-name="Grupo 106052" transform="translate(329.62 189.993)">
      <path id="Trazado_137455" data-name="Trazado 137455" d="M1500.029,337.8a1.953,1.953,0,0,0-.258-.41h0a1.968,1.968,0,0,0-.251-.254l-.379-.384-.1.073c-1.939-.949-5.942.057-9.992,2.7-4.895,3.2-8.037,7.6-7.13,9.934l-.138.1.544.542q.039.041.08.08l.016.015,0,0a2.235,2.235,0,0,0,.471.328l0,0h0c1.914,1,5.96,0,10.054-2.669C1497.94,344.612,1501.108,340.107,1500.029,337.8Z" transform="translate(-1478.955 -333.205)" fill="#ffa412"/>
      <ellipse id="Elipse_5297" data-name="Elipse 5297" cx="10.805" cy="4.548" rx="10.805" ry="4.548" transform="translate(0 12.362) rotate(-34.892)" fill="#ffb93e"/>
      <g id="Grupo_106050" data-name="Grupo 106050" transform="translate(3.376 3.53)">
        <path id="Trazado_137456" data-name="Trazado 137456" d="M1489.537,351.453a3.976,3.976,0,0,1-1.1-.139,1.9,1.9,0,0,1-1.282-1.023c-.45-.98-.033-2.436,1.173-4.1a19.64,19.64,0,0,1,5.063-4.638h0c3.205-2.1,6.465-3.113,8.305-2.583a1.9,1.9,0,0,1,1.282,1.023c.45.98.033,2.436-1.173,4.1a19.642,19.642,0,0,1-5.063,4.639C1494.105,350.46,1491.427,351.453,1489.537,351.453Zm11.076-12.253c-1.808,0-4.464.987-7.019,2.661a19.271,19.271,0,0,0-4.968,4.547c-1.109,1.529-1.523,2.889-1.136,3.731a1.551,1.551,0,0,0,1.051.824,3.578,3.578,0,0,0,.984.123c1.808,0,4.464-.987,7.02-2.661a19.271,19.271,0,0,0,4.968-4.547c1.109-1.529,1.523-2.889,1.136-3.731a1.551,1.551,0,0,0-1.051-.824A3.578,3.578,0,0,0,1500.613,339.2Z" transform="translate(-1486.981 -338.833)" fill="#ffa412"/>
      </g>
      <g id="Grupo_106051" data-name="Grupo 106051" transform="translate(6.21 6.606)">
        <path id="Trazado_137457" data-name="Trazado 137457" d="M1516.281,371.6a2.645,2.645,0,0,0,.411-.222,1.936,1.936,0,0,0,.333-.283,2.6,2.6,0,0,0,.289-.371,4.867,4.867,0,0,0,.273-.486q.241-.477.494-.892a5.406,5.406,0,0,1,.566-.768,4.57,4.57,0,0,1,.715-.65,4.921,4.921,0,0,1,.941-.533,3.453,3.453,0,0,1,.841-.263,1.451,1.451,0,0,1,.64.022.772.772,0,0,1,.417.289.981.981,0,0,1,.166.543l1.177-.517-.062.633-1.193.524a2.7,2.7,0,0,1-.329.736,3.873,3.873,0,0,1-.573.7,5.342,5.342,0,0,1-.8.636,6.705,6.705,0,0,1-1,.541l.111-1.144a3.367,3.367,0,0,0,1.006-.629,1.122,1.122,0,0,0,.378-.668.428.428,0,0,0-.045-.274.277.277,0,0,0-.183-.122.7.7,0,0,0-.293.011,2.015,2.015,0,0,0-.376.127,2.458,2.458,0,0,0-.372.2,1.819,1.819,0,0,0-.318.271,2.623,2.623,0,0,0-.289.373q-.139.215-.294.51-.251.478-.507.892a5.507,5.507,0,0,1-.572.769,4.638,4.638,0,0,1-.718.651,4.887,4.887,0,0,1-.936.53,3.463,3.463,0,0,1-.857.269,1.412,1.412,0,0,1-.634-.027.73.73,0,0,1-.4-.3,1.074,1.074,0,0,1-.157-.551l-1.094.48.061-.629,1.088-.478a3.184,3.184,0,0,1,.276-.729,3.631,3.631,0,0,1,.528-.753,5.032,5.032,0,0,1,.82-.724,6.288,6.288,0,0,1,1.146-.64l-.111,1.144a3.852,3.852,0,0,0-.658.359,2.459,2.459,0,0,0-.437.379,1.421,1.421,0,0,0-.247.376,1.18,1.18,0,0,0-.094.346.523.523,0,0,0,.04.3.3.3,0,0,0,.175.149.589.589,0,0,0,.286.011A1.606,1.606,0,0,0,1516.281,371.6Z" transform="translate(-1513.036 -367.112)" fill="#ffa412"/>
      </g>
    </g>
    <g id="Grupo_106055" data-name="Grupo 106055" transform="translate(347.112 217.238)">
      <path id="Trazado_137458" data-name="Trazado 137458" d="M1616.9,561.692a1.414,1.414,0,0,1,.188-.3h0a1.423,1.423,0,0,1,.182-.185l.275-.279.072.053c1.407-.689,4.314.041,7.254,1.961,3.553,2.32,5.834,5.514,5.177,7.212l.1.074-.4.394c-.019.02-.038.039-.058.058l-.011.011,0,0a1.617,1.617,0,0,1-.342.238h0c-1.389.728-4.327,0-7.3-1.937C1618.42,566.635,1616.12,563.364,1616.9,561.692Z" transform="translate(-1616.75 -560.307)" fill="#ffa412"/>
      <path id="Trazado_137459" data-name="Trazado 137459" d="M1628.76,559.059c-3.62-2.363-7.189-2.924-7.972-1.253s1.517,4.943,5.137,7.306,7.189,2.924,7.972,1.252S1632.38,561.422,1628.76,559.059Z" transform="translate(-1620.213 -556.843)" fill="#ffb93e"/>
      <g id="Grupo_106053" data-name="Grupo 106053" transform="translate(1.258 0.609)">
        <path id="Trazado_137460" data-name="Trazado 137460" d="M1632.968,569.625a14.259,14.259,0,0,1-3.676-3.368c-.875-1.207-1.178-2.264-.851-2.976a1.379,1.379,0,0,1,.931-.743c1.336-.385,3.7.351,6.03,1.875h0a14.258,14.258,0,0,1,3.676,3.368c.875,1.207,1.178,2.264.851,2.976a1.38,1.38,0,0,1-.931.743,2.889,2.889,0,0,1-.8.1A10.639,10.639,0,0,1,1632.968,569.625Zm-3.523-6.831a1.126,1.126,0,0,0-.763.6c-.281.612.02,1.6.825,2.709a13.991,13.991,0,0,0,3.606,3.3,10.5,10.5,0,0,0,5.1,1.932,2.6,2.6,0,0,0,.715-.09,1.126,1.126,0,0,0,.763-.6c.281-.612-.02-1.6-.825-2.709a13.994,13.994,0,0,0-3.607-3.3,10.5,10.5,0,0,0-5.1-1.932A2.6,2.6,0,0,0,1629.445,562.794Z" transform="translate(-1628.313 -562.438)" fill="#ffa412"/>
      </g>
      <g id="Grupo_106054" data-name="Grupo 106054" transform="translate(3.316 2.842)">
        <path id="Trazado_137461" data-name="Trazado 137461" d="M1652.772,586.316a.427.427,0,0,0,.208-.008.217.217,0,0,0,.127-.108.379.379,0,0,0,.029-.214.855.855,0,0,0-.068-.252,1.031,1.031,0,0,0-.179-.273,1.787,1.787,0,0,0-.317-.276,2.788,2.788,0,0,0-.478-.261l-.08-.831a4.57,4.57,0,0,1,.832.465,3.653,3.653,0,0,1,.6.526,2.634,2.634,0,0,1,.384.547,2.317,2.317,0,0,1,.2.53l.79.347.044.457-.794-.349a.778.778,0,0,1-.114.4.53.53,0,0,1-.292.217,1.024,1.024,0,0,1-.46.019,2.517,2.517,0,0,1-.623-.2,3.547,3.547,0,0,1-.679-.385,3.374,3.374,0,0,1-.522-.473,4.017,4.017,0,0,1-.415-.558q-.186-.3-.368-.648-.113-.214-.214-.37a1.89,1.89,0,0,0-.21-.271,1.325,1.325,0,0,0-.231-.2,1.8,1.8,0,0,0-.27-.146,1.473,1.473,0,0,0-.273-.092.505.505,0,0,0-.213-.008.2.2,0,0,0-.133.089.31.31,0,0,0-.032.2.815.815,0,0,0,.274.485,2.444,2.444,0,0,0,.73.457l.08.831a4.851,4.851,0,0,1-.728-.393,3.877,3.877,0,0,1-.578-.462,2.813,2.813,0,0,1-.416-.51,1.958,1.958,0,0,1-.239-.534l-.866-.38-.045-.46.854.375a.714.714,0,0,1,.12-.394.561.561,0,0,1,.3-.21,1.054,1.054,0,0,1,.465-.016,2.508,2.508,0,0,1,.611.191,3.567,3.567,0,0,1,.683.387,3.308,3.308,0,0,1,.52.472,3.925,3.925,0,0,1,.411.558q.184.3.359.647a3.59,3.59,0,0,0,.2.353,1.913,1.913,0,0,0,.209.27,1.416,1.416,0,0,0,.242.205,1.945,1.945,0,0,0,.3.161A1.164,1.164,0,0,0,1652.772,586.316Z" transform="translate(-1647.229 -582.969)" fill="#ffa412"/>
      </g>
    </g>
    <g id="Grupo_106056" data-name="Grupo 106056" transform="translate(230.656 275.198)">
      <path id="Trazado_137462" data-name="Trazado 137462" d="M574.874,1109.83a1.972,1.972,0,0,0,.707-1.4s-8.909-7.294-9.812-7.888a109.911,109.911,0,0,1-10.243-9.767c-1.521-1.759-3.406-1.076-5.562-.458l-1.775.509a2.969,2.969,0,0,0-.942,5.07c4.954,4.1,13.2,8.719,14.737,9.689a85.022,85.022,0,0,0,11.321,5.269A4.749,4.749,0,0,0,574.874,1109.83Z" transform="translate(-546.201 -1089.655)" fill="#1e3d70"/>
    </g>
    <path id="Trazado_137463" data-name="Trazado 137463" d="M879.934,1687.063a6.716,6.716,0,0,0,5.475.764s2.671-.609,3.257.723c0,0-4.1,2.081-5.133,2.65a12.418,12.418,0,0,0-2.173,1.629,1.074,1.074,0,0,1-1.556-.12c-.18-.222-.386-.485-.612-.792-.631-.856-2.1-3.621-2.1-3.621Z" transform="translate(-610.438 -1346.878)" fill="#16375e"/>
    <g id="Grupo_106059" data-name="Grupo 106059" transform="translate(237.25 259.628)">
      <circle id="Elipse_5298" data-name="Elipse 5298" cx="15.116" cy="15.116" r="15.116" transform="translate(0 21.378) rotate(-45)" fill="#ffc76c"/>
      <g id="Grupo_106057" data-name="Grupo 106057" transform="translate(7.605 7.784)">
        <path id="Trazado_137464" data-name="Trazado 137464" d="M690.5,1045.626a13.773,13.773,0,1,1,9.739-4.034A13.683,13.683,0,0,1,690.5,1045.626Zm0-26.723a12.951,12.951,0,1,0,12.951,12.951A12.965,12.965,0,0,0,690.5,1018.9Z" transform="translate(-676.725 -1018.081)" fill="#ffa412"/>
      </g>
      <g id="Grupo_106058" data-name="Grupo 106058" transform="translate(14.758 11.921)">
        <path id="Trazado_137465" data-name="Trazado 137465" d="M752.945,1067.964a2.271,2.271,0,0,0-.481-.64,1.661,1.661,0,0,0-.655-.355,3.146,3.146,0,0,0-.9-.108,8.3,8.3,0,0,0-1.2.112,21.694,21.694,0,0,1-2.2.223,6.853,6.853,0,0,1-1.859-.149,4.031,4.031,0,0,1-1.518-.7,4.551,4.551,0,0,1-1.65-3.043,3.827,3.827,0,0,1,.206-1.582,4.779,4.779,0,0,1,.845-1.466,6.374,6.374,0,0,1,1.446-1.264l-1.066-2.022,1.628-.858,1.081,2.05a5.717,5.717,0,0,1,1.831-.374,4.319,4.319,0,0,1,3.152,1.182,5.755,5.755,0,0,1,1.169,1.563l-2.94,1.55a2.8,2.8,0,0,0-1.4-1.431,1.945,1.945,0,0,0-1.644.149,2.474,2.474,0,0,0-.721.543,1.676,1.676,0,0,0-.36.636,1.562,1.562,0,0,0-.039.691,2.293,2.293,0,0,0,.242.706,2.1,2.1,0,0,0,.435.579,1.556,1.556,0,0,0,.628.34,3.145,3.145,0,0,0,.9.1,10.649,10.649,0,0,0,1.254-.1q1.181-.152,2.194-.191a6.939,6.939,0,0,1,1.859.161,3.894,3.894,0,0,1,2.678,2.12,4.161,4.161,0,0,1,.5,1.646,3.783,3.783,0,0,1-.216,1.575,4.614,4.614,0,0,1-.868,1.448,6.88,6.88,0,0,1-1.464,1.255l.992,1.88-1.617.853-.987-1.871a7.718,7.718,0,0,1-1.827.493,4.889,4.889,0,0,1-1.83-.08,4.376,4.376,0,0,1-1.687-.832,5.327,5.327,0,0,1-1.393-1.753l2.94-1.55a3.282,3.282,0,0,0,.779,1.02,2.124,2.124,0,0,0,.882.453,2.06,2.06,0,0,0,.916,0,3.52,3.52,0,0,0,.876-.323,2.946,2.946,0,0,0,.774-.565,1.965,1.965,0,0,0,.426-.659,1.566,1.566,0,0,0,.095-.708A1.907,1.907,0,0,0,752.945,1067.964Z" transform="translate(-742.481 -1056.115)" fill="#ffa412"/>
      </g>
    </g>
    <path id="Trazado_137466" data-name="Trazado 137466" d="M641.826,1363.021s-1.317,3.036-4.355,2.478a84.806,84.806,0,0,1-10.455-10.441,23.631,23.631,0,0,1-3.249-5.077c-2.821-6.531-10.434-16.271-15.274-21.208l12.11-4.381s3.879,7.8,9.04,17.387C633.363,1348.685,637.747,1356.516,641.826,1363.021Z" transform="translate(-371.06 -1023.659)" fill="#2b478b"/>
    <path id="Trazado_137467" data-name="Trazado 137467" d="M629.643,1341.779l-2.628,13.278a23.631,23.631,0,0,1-3.249-5.077c-2.821-6.531-10.434-16.271-15.274-21.208l12.11-4.381S624.482,1332.195,629.643,1341.779Z" transform="translate(-371.06 -1023.659)" fill="#233862"/>
    <path id="Trazado_137468" data-name="Trazado 137468" d="M676.233,1696.277s-.132,2.422,2.8,2.745c0,0,1.817.047,1.822,1.588l-8.843,0s-.078-.63-.139-1.962a15.258,15.258,0,0,1,.991-3.7Z" transform="translate(-427.549 -1353.906)" fill="#16375e"/>
    <path id="Trazado_137469" data-name="Trazado 137469" d="M586.922,1319.987s5.4,5.928,8.82,16.608c1.863,5.811-3.5,20.965-4.529,26.041a24.466,24.466,0,0,1-5.877-1.18,117.441,117.441,0,0,1,1.232-18.565c.793-4.522-7.1-9.672-10.554-17.844-2.347-5.559.508-5.465,4.017-5.6Z" transform="translate(-341.351 -1019.255)" fill="#2b478b"/>
    <path id="Trazado_137470" data-name="Trazado 137470" d="M551.117,1021.323c-3,1.7-9.147.132-9.147.132a8.56,8.56,0,0,0,1.362-7.448l2.357,1.2,2.531,1.286a21,21,0,0,1,.278,2.269c.029.375.055.795.073,1.253A7.874,7.874,0,0,1,551.117,1021.323Z" transform="translate(-311.774 -747.038)" fill="#ffb07b"/>
    <path id="Trazado_137471" data-name="Trazado 137471" d="M543.6,1095.616c0,.527-.608.78-.737.806-1.211.221-4.591,1.536-7.636,1.838a24.42,24.42,0,0,1-7.56-.512c-.346-.07-1.159-.289-1.217-.62-.072-.362-10.088-20.418-2.3-29.034.183-.2,1.72.162,3.125.5a5.77,5.77,0,0,0,3.552-.29l1.318.694c1.619.9,4.682,4.107,5.04,6.621.182,1.279.913,2.226,1.125,3.351q.118.624.241,1.219.239,1.165.493,2.219c.458,1.9.941,3.539,1.416,4.953.505,1.5,1,2.751,1.443,3.8.574,1.355,1.059,2.368,1.362,3.143A3.876,3.876,0,0,1,543.6,1095.616Z" transform="translate(-293.246 -795.189)" fill="#aec3ff"/>
    <path id="Trazado_137472" data-name="Trazado 137472" d="M568.186,1150.06a39.353,39.353,0,0,1-19.035-19.452s11.487,4.238,14.321,5.341q.239,1.165.493,2.219c.458,1.9.941,3.539,1.416,4.954.505,1.5,1,2.751,1.443,3.8C567.4,1148.272,567.883,1149.285,568.186,1150.06Z" transform="translate(-318.174 -850.955)" fill="#91b0f2"/>
    <path id="Trazado_137473" data-name="Trazado 137473" d="M794.96,1266.963l1.222.448s5.428-1.935,5.75-1.083a7.3,7.3,0,0,1-1.734,2.434c-.674.614-1.757,1.36-4.824.476l-1.051-.194Z" transform="translate(-536.676 -971.718)" fill="#ffb07b"/>
    <path id="Trazado_137474" data-name="Trazado 137474" d="M566.05,1027.783c-3.121-.092-4.305-1.114-4.305-1.114a10.229,10.229,0,0,1,1.567-1.66l2.531,1.286S565.936,1026.326,566.05,1027.783Z" transform="translate(-329.398 -756.843)" fill="#ea8e50"/>
    <path id="Trazado_137475" data-name="Trazado 137475" d="M540.614,968.136s-4.472,3.21-6.428.394-3.85-4.3-1.078-6.466,4.08-1.483,4.961-.7S541.727,967.228,540.614,968.136Z" transform="translate(-302.633 -699.446)" fill="#ffb07b"/>
    <path id="Trazado_137476" data-name="Trazado 137476" d="M505.479,929.059a7.2,7.2,0,0,0-.521-1.844s-.281,1.163-2.405,1-5.492.209-6.615,2.63c-.071.154-.135.313-.192.475a5.6,5.6,0,0,1-.252-1.341,4.134,4.134,0,0,0,0,2.346h0c-.006.038-.011.076-.017.114a4.733,4.733,0,0,0-.863,1.629,1.476,1.476,0,0,1,.794-.706c-.009,1.884.755,3.726,2.1,4.274,1.961.8,1.945.19,3.918,1.5a3.675,3.675,0,0,0-.053-1.163c-.138-.553-1.5-1.017-.741-1.658s1.042.08,1.323-.361-1.122-1.724.682-2.927S505.64,930.142,505.479,929.059Z" transform="translate(-269.57 -669.688)" fill="#233862"/>
    <g id="Grupo_106062" data-name="Grupo 106062" transform="translate(278.772 202.886)">
      <g id="Grupo_106061" data-name="Grupo 106061" transform="translate(0 0)">
        <g id="Grupo_106060" data-name="Grupo 106060">
          <path id="Trazado_137477" data-name="Trazado 137477" d="M1156.984,634.3a3.673,3.673,0,0,0-3.277-1.52c-2.369.038-1.974,1.576-.75,1.913s1.224.692,2.448.653A1.709,1.709,0,0,0,1156.984,634.3Z" transform="translate(-1134.198 -610.164)" fill="#ffb27d"/>
          <path id="Trazado_137478" data-name="Trazado 137478" d="M1570.069,761.769c.248-.813.853.361,2.188.181a4.37,4.37,0,0,1,2.682-.128c.732.354,2.139,2.468.66,1.9-2.153-.825-3.448.79-4.647.113a8.972,8.972,0,0,1-1.911-1.423Z" transform="translate(-1505.89 -724.867)" fill="#ffb27d"/>
          <path id="Trazado_137479" data-name="Trazado 137479" d="M1240.66,980.891a.855.855,0,0,1,.152.915.007.007,0,0,1,0,0,5.689,5.689,0,0,1-1.8,1.971c-.108.087-.2.167-.288.24l-.065.058-.05.045c-.79.728-.493.895-1.911,2.372-1.618,1.683-2.732,1.714-3.049,1.56-.268-.131.277-1.024.88-2.027.029-.048.058-.1.088-.146.08-.133.16-.269.24-.4.707-1.208.526-1.774.358-3.572-.136-1.461-2.272-8.159-2.272-8.159l3.1-.534s.934,5.334,1.962,6.156c.55.438,1.166.443,1.695.768q.056.034.11.07A4.065,4.065,0,0,1,1240.66,980.891Z" transform="translate(-1206.354 -913.57)" fill="#ffb27d"/>
          <path id="Trazado_137480" data-name="Trazado 137480" d="M1245.87,1037.616a.855.855,0,0,1,.152.915.008.008,0,0,1,0,0,6.587,6.587,0,0,1-1.8,1.965c-.107.089-.2.17-.286.247-.022.019-.044.038-.065.058l-.05.045c-.79.728-.492.895-1.911,2.372-1.618,1.683-2.732,1.714-3.049,1.56-.268-.131.277-1.023.88-2.027a6.9,6.9,0,0,0,2.884-2.125c.974-1.243,1.624-2.84,2.287-3.766q.056.034.11.07A4.065,4.065,0,0,1,1245.87,1037.616Z" transform="translate(-1211.565 -970.296)" fill="#233862"/>
          <path id="Trazado_137481" data-name="Trazado 137481" d="M997.819,971.224c-.191.957-1.556.8-3.08.425s-1.162.07-3.331-.17-2.826-1.049-2.892-1.371c-.059-.286,1.013-.387,2.162-.519l.435-.052c1.3-.163,2.249-1,3.427-1.688,1.117-.652,2.783-3.306,2.783-3.306l2.975.236s-1.561,2.371-2.165,3.4a3.593,3.593,0,0,0-.292,2.027A3.821,3.821,0,0,1,997.819,971.224Z" transform="translate(-988.513 -905.84)" fill="#ffb27d"/>
          <path id="Trazado_137482" data-name="Trazado 137482" d="M994.739,1012.994c-1.524-.372-1.162.07-3.331-.17s-2.826-1.049-2.892-1.371c-.059-.286,1.013-.387,2.162-.519l.011.022a6.115,6.115,0,0,0,3.106.966c1.472.036,3.03-.386,4.047-.369a3.821,3.821,0,0,1-.023,1.018C997.627,1013.526,996.263,1013.366,994.739,1012.994Z" transform="translate(-988.513 -947.185)" fill="#233862"/>
          <path id="Trazado_137483" data-name="Trazado 137483" d="M1178.852,812.046l2.781,7.483,3.63,9.771a5.882,5.882,0,0,0,1.929-.176,8.361,8.361,0,0,0,1.865-.908s-1.008-10.491-2.889-16.513a10.722,10.722,0,0,0-1.618-3.5C1181.635,804.757,1178.852,812.046,1178.852,812.046Z" transform="translate(-1158.147 -765.683)" fill="#233862"/>
          <path id="Trazado_137484" data-name="Trazado 137484" d="M1070.12,729.624c1.822-.588,7.018.167,12.238,1.189l1.093-1.8,11.274-.88s3.947,6.122,1.91,11.379l-11.32,3.665c-5.607,0-11.735-4.111-12.545-4.273-1.325-.265-1.856,2.386-3.181,5.169s-12.458,12.326-12.458,12.326a9.8,9.8,0,0,1-2.418-.248,2.38,2.38,0,0,1-1.038-.655S1066.012,730.95,1070.12,729.624Z" transform="translate(-1046.588 -695.145)" fill="#2b478b"/>
          <path id="Trazado_137485" data-name="Trazado 137485" d="M1280,443.1a123.274,123.274,0,0,0,12.169,7.881,3.778,3.778,0,0,1,2.244-2.267c3.121-1.345,9.173-4.338,4.857-9.546-2.153-2.6-5.222-2.062-4.8-5.515.454-3.741-1.235-8.445-5.542-8.643a11.888,11.888,0,0,0-4.1.181C1280.86,426.437,1274.227,441.185,1280,443.1Z" transform="translate(-1246.274 -424.91)" fill="#233862"/>
          <path id="Trazado_137486" data-name="Trazado 137486" d="M1330.578,563.977c-.274,1.291-.5,2.449-.678,3.485a73.1,73.1,0,0,0-.911,8.477c-.109.3-1.508.586-3.322.781a41.851,41.851,0,0,1-6.474.2,4.755,4.755,0,0,1-2.239-.483c-1.237-1.074-1.114,1.289-1.283-10.019-.082-5.516,4.68-10.428,4.68-10.428s.391,2.963,5.114.159C1325.634,556.05,1331.373,560.225,1330.578,563.977Z" transform="translate(-1280.083 -541.731)" fill="#aec3ff"/>
          <path id="Trazado_137487" data-name="Trazado 137487" d="M1204.416,855.78l3.63,9.771a5.882,5.882,0,0,0,1.929-.176,8.363,8.363,0,0,0,1.865-.908s-1.008-10.491-2.889-16.513Z" transform="translate(-1180.93 -801.935)" fill="#2b478b"/>
          <path id="Trazado_137488" data-name="Trazado 137488" d="M1247.408,555.979l-.847,7.169s-1.718,2.187-3.817,4.4a23.583,23.583,0,0,1-4.662,4.029.252.252,0,0,1-.033.02c-1.406.791-4.225-.232-4.225-.232s6.792-10.2,8.155-12.468C1243.1,557.038,1247.408,555.979,1247.408,555.979Z" transform="translate(-1207.138 -541.721)" fill="#aec3ff"/>
          <path id="Trazado_137489" data-name="Trazado 137489" d="M1384.536,553.954s5.867-.727,8.739,2.83,4.049,9,6.5,11.609,6.5,7.723,6.5,7.723-.31,1.322-2.693,2.092c0,0-7.832-6.579-9.135-8.472s-5.745-7.342-5.745-7.342l-3.435-6.792Z" transform="translate(-1341.456 -539.862)" fill="#aec3ff"/>
          <path id="Trazado_137490" data-name="Trazado 137490" d="M1589.66,781.057a21.574,21.574,0,0,0,2.444.535c.387-.133-1-.937-1.358-.938A3.428,3.428,0,0,0,1589.66,781.057Z" transform="translate(-1524.266 -741.956)" fill="#ffb27d"/>
          <path id="Trazado_137491" data-name="Trazado 137491" d="M1178.848,645.426c-.065.208,5.98,4.149,5.98,4.149l2.793-3.281-6.574-2.558A2.748,2.748,0,0,0,1178.848,645.426Z" transform="translate(-1158.142 -619.933)" fill="#aec3ff"/>
          <path id="Trazado_137492" data-name="Trazado 137492" d="M1151.939,634.048s-.112.69.539.69.766-1.514.57-1.586A1.076,1.076,0,0,0,1151.939,634.048Z" transform="translate(-1134.155 -610.489)" fill="#ffb27d"/>
          <path id="Trazado_137493" data-name="Trazado 137493" d="M1180.521,627.694s-.557-.616-.942-1.08-.726-.983-.778-.642a1.775,1.775,0,0,0,.57,1.259A4.725,4.725,0,0,0,1180.521,627.694Z" transform="translate(-1158.096 -604.001)" fill="#ffb27d"/>
          <path id="Trazado_137494" data-name="Trazado 137494" d="M1359.347,520.205c.139.46-.184,1.454-2.058,2.015a3.474,3.474,0,0,1-2.744-.257c-.633-.518-.082-.876-.172-1.931,0-.05-.009-.1-.015-.152a19.085,19.085,0,0,0-.484-2.558.009.009,0,0,1,0,0l4.172-1.193-.134.23A10.894,10.894,0,0,0,1359.347,520.205Z" transform="translate(-1314.129 -506.203)" fill="#ffb27d"/>
          <path id="Trazado_137495" data-name="Trazado 137495" d="M1358.046,516.125a4.662,4.662,0,0,1-3.759,3.191,19.908,19.908,0,0,0-.412-1.994.009.009,0,0,1,0,0Z" transform="translate(-1314.129 -506.203)" fill="#ed975d"/>
          <path id="Trazado_137496" data-name="Trazado 137496" d="M1327.671,459.27s5.624-.374,5.338-3.873.246-5.9-3.357-5.813-4.19,1.483-4.379,2.674S1326.2,459.277,1327.671,459.27Z" transform="translate(-1288.621 -446.898)" fill="#ffb27d"/>
          <path id="Trazado_137497" data-name="Trazado 137497" d="M1338.2,442.843s1.4,4.1,4.715,4.577c2.42.348,3.382-.307,3.382-.307a9.5,9.5,0,0,1-2.083-3.258,1.71,1.71,0,0,0-1.339-1.1C1341.149,442.488,1338.926,441.348,1338.2,442.843Z" transform="translate(-1300.159 -440.219)" fill="#233862"/>
          <path id="Trazado_137498" data-name="Trazado 137498" d="M1324.581,449.5a3.712,3.712,0,0,0-1.7,1.9,7.157,7.157,0,0,0-.423,3.574s-1.617-3.741-.446-5.428A1.49,1.49,0,0,1,1324.581,449.5Z" transform="translate(-1285.35 -446.155)" fill="#233862"/>
          <path id="Trazado_137499" data-name="Trazado 137499" d="M1404.206,660.748v0a73.077,73.077,0,0,0-.911,8.477c-.109.3-1.508.586-3.322.781-2.745-1.484,1.432-3.055,1.919-6.476C1402.405,659.916,1404.206,660.748,1404.206,660.748Z" transform="translate(-1354.388 -635.019)" fill="#85a4e8"/>
          <path id="Trazado_137500" data-name="Trazado 137500" d="M1277.635,641.637a23.584,23.584,0,0,1-4.662,4.029c.39-.72,1.555-1.759,2.414-2.88,1.066-1.392,1.51-3.613,1.956-3.672S1277.635,641.637,1277.635,641.637Z" transform="translate(-1242.028 -615.812)" fill="#85a4e8"/>
        </g>
      </g>
    </g>
    <path id="Trazado_137501" data-name="Trazado 137501" d="M811.351,1262.713a1.928,1.928,0,0,1,.757-.985c.492-.227,1.288-1.231,1.326-.871s-.341.871-.36,1.363S811.351,1262.713,811.351,1262.713Z" transform="translate(-551.851 -966.967)" fill="#ffb07b"/>
    <path id="Trazado_137502" data-name="Trazado 137502" d="M561.923,1116.609a7.556,7.556,0,0,0,.506-1.789s-9.08-7.449-10.021-8.094c-.641-.44-7.023-5.21-10.134-8.927a6.512,6.512,0,0,0-6.33-2.193l-1.938.406a2.882,2.882,0,0,0-1.285,5.009c5.112,4.383,13.735,9.466,15.343,10.524,3.991,2.625,12.819,6.3,12.819,6.3A2.273,2.273,0,0,0,561.923,1116.609Z" transform="translate(-302.633 -819.637)" fill="#aec3ff"/>
    <path id="Rectángulo_37209" data-name="Rectángulo 37209" d="M.363,0h270.71a.363.363,0,0,1,.363.363v0a.363.363,0,0,1-.363.363H.363A.363.363,0,0,1,0,.363v0A.363.363,0,0,1,.363,0Z" transform="translate(205.065 346.677)" fill="#2e3552"/>
  </g>
</svg>
