<svg xmlns="http://www.w3.org/2000/svg" width="134.566" height="148.091" viewBox="0 0 134.566 148.091">
  <g id="megaphone" transform="translate(-21.921)">
    <path id="Trazado_136377" data-name="Trazado 136377" d="M159.546,84.719a8.74,8.74,0,0,1-14.9,6.17l-1.135-1.132a102.231,102.231,0,0,0-60.03,24.311,57.941,57.941,0,0,0,22.888,23.814A7.071,7.071,0,1,1,99.2,150.071l-32.4-19.88L61.884,135.1a8.545,8.545,0,0,1-12.091,0L32.409,117.721a8.554,8.554,0,0,1,0-12.094l15.873-15.87C65.837,71.6,76.232,48.82,77.757,24c-.429-.59-3.69-2.741-3.69-7.3a8.739,8.739,0,0,1,14.9-6.173l68.02,68.02a8.714,8.714,0,0,1,2.558,6.173Z" transform="translate(-5.521 -5.505)" fill="#cbe3fa"/>
    <path id="Trazado_136378" data-name="Trazado 136378" d="M255.972,78.563a8.728,8.728,0,0,1-12.344,12.344L175.6,22.886a8.729,8.729,0,0,1,12.347-12.344Z" transform="translate(-104.504 -5.522)" fill="#fe4f60"/>
    <path id="Trazado_136379" data-name="Trazado 136379" d="M168.689,360.094c-3.221,2.914-5.2,5.076-10.938,10.78a2.468,2.468,0,0,1-3.03.352l-5.231-3.21c8.673-8.546,11-11.339,16.681-16.123.764,1.476,1.722,3.179,2.92,5.019A2.471,2.471,0,0,1,168.689,360.094Z" transform="translate(-88.212 -243.33)" fill="#b5d5f5"/>
    <path id="Trazado_136380" data-name="Trazado 136380" d="M248.379,86.9a3.268,3.268,0,1,1-4.752,4.481L176.739,24.49c-.43-.59-3.69-2.736-3.69-7.3a8.719,8.719,0,0,1,6.279-8.38,3.26,3.26,0,0,1,3.877,4.508,8.735,8.735,0,0,0,1.654,10.042C224.427,62.925,241.148,79.7,248.379,86.9Z" transform="translate(-104.504 -5.993)" fill="#ff6d7a"/>
    <path id="Trazado_136381" data-name="Trazado 136381" d="M43.572,141.579a8.616,8.616,0,0,0,0,12.094c18.676,18.685,17.535,17.547,17.878,17.835a8.545,8.545,0,0,1-11.6-.454L32.465,153.672a8.616,8.616,0,0,1,0-12.094c11.341-11.822,42.458-34.586,45.348-81.626l7.26,7.26a7.428,7.428,0,0,1,2.02,6.718C79.5,111.808,54.5,130.188,43.572,141.579Z" transform="translate(-5.578 -41.457)" fill="#eef7ff"/>
    <path id="Trazado_136382" data-name="Trazado 136382" d="M77.757,302.568l-15.873,15.87a8.545,8.545,0,0,1-12.091,0L32.409,301.056a8.554,8.554,0,0,1,0-12.094l15.873-15.87Z" transform="translate(-5.521 -188.841)" fill="#fe4f60"/>
    <path id="Trazado_136383" data-name="Trazado 136383" d="M55.439,312.981c3.594,3.588-1.687,9.421-5.648,5.457-15.459-15.462,18.9,18.919-17.385-17.382a8.553,8.553,0,0,1,0-12.094l15.873-15.87,5.553,5.553a23.147,23.147,0,0,0,.007,32.738Z" transform="translate(-5.52 -188.841)" fill="#ff6d7a"/>
    <path id="Trazado_136384" data-name="Trazado 136384" d="M153.212,71.3,85.191,3.274A11.2,11.2,0,1,0,69.7,19.45C67.932,43.714,57.463,65.49,40.991,82.529L25.143,98.377a11.031,11.031,0,0,0,0,15.583l17.383,17.383a11.031,11.031,0,0,0,15.583,0C75.142,114.31,74.34,115.03,77.27,112.426a60.3,60.3,0,0,0,22.359,22.1,4.6,4.6,0,1,1-4.657,7.942l-20.88-12.811a2.468,2.468,0,1,0-2.581,4.207l20.88,12.811a9.54,9.54,0,1,0,9.676-16.442A55.385,55.385,0,0,1,81.1,109.178,101.316,101.316,0,0,1,120.9,89.3a2.468,2.468,0,0,0-1.161-4.8C101.7,88.869,84.471,99,72.285,110.286L53.454,91.455a2.468,2.468,0,0,0-3.49,3.49l18.781,18.781L54.618,127.853a6.079,6.079,0,0,1-8.6,0l-1.908-1.908,5.057-5.057a2.468,2.468,0,0,0-3.49-3.49l-5.057,5.057-6.587-6.587,5.057-5.057a2.468,2.468,0,0,0-3.49-3.49l-5.057,5.057-1.908-1.908a6.09,6.09,0,0,1,0-8.6C28.9,101.6,44.393,86.11,44.518,85.982a106.058,106.058,0,0,0,29.714-62L137.377,87.13A11.2,11.2,0,1,0,153.212,71.3Zm-3.49,12.344a6.268,6.268,0,0,1-8.854,0L72.847,15.619A6.261,6.261,0,0,1,81.7,6.765l68.021,68.02A6.269,6.269,0,0,1,149.722,83.64Zm-8.716-71.9,3.552-3.552a2.468,2.468,0,0,1,3.49,3.49c-3.669,3.669-3.944,4.274-5.3,4.274A2.471,2.471,0,0,1,141.006,11.738Zm-7.534,7.534.431-.431a2.468,2.468,0,0,1,3.49,3.49,2.83,2.83,0,0,1-2.176,1.154,2.471,2.471,0,0,1-1.745-4.213Zm-17.12-6.011V6.474a2.468,2.468,0,0,1,4.936,0v6.787a2.468,2.468,0,0,1-4.936,0Zm26.532,21.6h7.1a2.468,2.468,0,0,1,0,4.936h-7.1a2.468,2.468,0,1,1,0-4.936Z" transform="translate(0 0)"/>
  </g>
</svg>
