<svg id="contacto" xmlns="http://www.w3.org/2000/svg" width="126" height="126" viewBox="0 0 126 126">
  <g id="Grupo_106366" data-name="Grupo 106366" transform="translate(2.032 2.032)">
    <g id="Grupo_106359" data-name="Grupo 106359" transform="translate(16.258 8.129)">
      <path id="Trazado_138144" data-name="Trazado 138144" d="M14.182,61.9A5.2,5.2,0,0,0,9,67.085V22.091a1.988,1.988,0,0,1,.183-.833H21.194v6.1a2.038,2.038,0,0,0,2.032,2.032H63.871A2.038,2.038,0,0,0,65.9,27.355V19.226a2.038,2.038,0,0,0-2.032-2.032H25.258V5.183A1.988,1.988,0,0,1,26.091,5h51.7l-.691.691.508.508a4.063,4.063,0,0,1-2.886,6.93h-.691v8.129h.691a4.063,4.063,0,0,1,2.886,6.93L77.1,28.7l5.751,5.751.508-.508a4.063,4.063,0,0,1,6.93,2.886v.691h4.065v71.129a2.038,2.038,0,0,1-2.032,2.032h-63v-2.032a2.038,2.038,0,0,0-2.032-2.032l.813-3.272a40.41,40.41,0,0,0,1.219-9.856,40.529,40.529,0,0,0-5.792-20.912l-4.9-8.149a5.176,5.176,0,0,0-4.451-2.52Z" transform="translate(-9 -5)" fill="#e6e9ed"/>
    </g>
    <g id="Grupo_106360" data-name="Grupo 106360" transform="translate(8.129 109.742)">
      <path id="Trazado_138145" data-name="Trazado 138145" d="M33.452,59.065v8.129H5V57.032A2.038,2.038,0,0,1,7.032,55H31.419a2.038,2.038,0,0,1,2.032,2.032Z" transform="translate(-5 -55)" fill="#ff826e"/>
    </g>
    <g id="Grupo_106361" data-name="Grupo 106361" transform="translate(0 42.677)">
      <path id="Trazado_138146" data-name="Trazado 138146" d="M17.258,49.537a5.2,5.2,0,0,1,5.182-5.182,5.176,5.176,0,0,1,4.451,2.52l4.9,8.149a40.529,40.529,0,0,1,5.792,20.912,40.41,40.41,0,0,1-1.219,9.856l-.813,3.272H11.161l-8.434-25.3a33.773,33.773,0,0,1,.467-22.639,33.4,33.4,0,0,1,6.32-10.405L17.258,22Z" transform="translate(-1 -22)" fill="#f0d0b4"/>
    </g>
    <g id="Grupo_106362" data-name="Grupo 106362" transform="translate(28.452 20.323)">
      <path id="Trazado_138147" data-name="Trazado 138147" d="M59.71,13.032v8.129a2.038,2.038,0,0,1-2.032,2.032H17.032A2.038,2.038,0,0,1,15,21.161v-6.1h4.065V11H57.677A2.038,2.038,0,0,1,59.71,13.032Z" transform="translate(-15 -11)" fill="#ff826e"/>
    </g>
    <g id="Grupo_106363" data-name="Grupo 106363" transform="translate(16.461 8.332)">
      <path id="Trazado_138148" data-name="Trazado 138148" d="M21.09,21.155H9.1a1.651,1.651,0,0,1,.386-.589L24.565,5.486a1.651,1.651,0,0,1,.589-.386V21.155Z" transform="translate(-9.1 -5.1)" fill="#b4dd7f"/>
    </g>
    <g id="Grupo_106364" data-name="Grupo 106364" transform="translate(81.29)">
      <path id="Trazado_138149" data-name="Trazado 138149" d="M57.258,40.954a4.063,4.063,0,0,0-6.93-2.886l-.508.508-5.751-5.751.508-.508a4.063,4.063,0,0,0-2.886-6.93H41V17.258h.691a4.063,4.063,0,0,0,2.886-6.93l-.508-.508.691-.691h.02l5.04-5.06.508.508a4.063,4.063,0,0,0,6.93-2.886V1h8.129v.691a4.063,4.063,0,0,0,6.93,2.886l.508-.508L78.576,9.82l-.508.508a4.063,4.063,0,0,0,2.886,6.93h.691v8.129h-.691a4.063,4.063,0,0,0-2.886,6.93l.508.508-5.751,5.751-.508-.508a4.063,4.063,0,0,0-6.93,2.886v.691H57.258ZM49.129,21.323A12.194,12.194,0,1,0,61.323,9.129,12.2,12.2,0,0,0,49.129,21.323Z" transform="translate(-41 -1)" fill="#ffc729"/>
    </g>
    <g id="Grupo_106365" data-name="Grupo 106365" transform="translate(89.419 8.129)">
      <path id="Trazado_138150" data-name="Trazado 138150" d="M57.194,5A12.194,12.194,0,1,1,45,17.194,12.2,12.2,0,0,1,57.194,5Zm4.065,12.194a4.065,4.065,0,1,0-4.065,4.065A4.076,4.076,0,0,0,61.258,17.194Z" transform="translate(-45 -5)" fill="#fcd770"/>
    </g>
  </g>
  <g id="Grupo_106367" data-name="Grupo 106367" transform="translate(0 0)">
    <path id="Trazado_138151" data-name="Trazado 138151" d="M54.1,8a6.1,6.1,0,1,0,6.1,6.1A6.1,6.1,0,0,0,54.1,8Zm0,8.129A2.032,2.032,0,1,1,56.129,14.1,2.036,2.036,0,0,1,54.1,16.129Z" transform="translate(49.548 8.258)"/>
    <path id="Trazado_138152" data-name="Trazado 138152" d="M123.271,28.452H126V16.258h-2.729a2.032,2.032,0,0,1-1.437-3.469l1.931-1.931-8.623-8.623-1.931,1.931a2.032,2.032,0,0,1-3.469-1.437V0H97.548V2.729a2.032,2.032,0,0,1-3.469,1.437L92.149,2.235,86.257,8.129H35.39A4.037,4.037,0,0,0,32.516,9.32L17.449,24.387a4.037,4.037,0,0,0-1.191,2.874V43.935L9.029,52.068A35.749,35.749,0,0,0,1.835,87.125l7.838,23.517a4.047,4.047,0,0,0-1.545,3.164V126H40.645v-8.129h60.968a4.069,4.069,0,0,0,4.065-4.065V44.71h4.065V41.98a2.032,2.032,0,0,1,3.469-1.437l1.931,1.931,8.623-8.623-1.931-1.931a2.032,2.032,0,0,1,1.437-3.469ZM23.2,24.387l9.32-9.32v9.32Zm9.32,4.065h4.065V24.387H73.161v8.129H32.516ZM4.065,75.819a31.641,31.641,0,0,1,8-21.048l4.191-4.717v22.2a18.18,18.18,0,0,0,1.16,6.4l5.064,13.506,3.806-1.427L21.225,77.232a14.107,14.107,0,0,1-.9-4.977,3.159,3.159,0,0,1,5.867-1.626l4.89,8.151a38.614,38.614,0,0,1,5.5,19.863,38.688,38.688,0,0,1-1.152,9.363l-.435,1.736H13.659L5.69,85.839A31.628,31.628,0,0,1,4.065,75.819Zm32.516,46.116H12.194v-8.129H36.581Zm65.032-8.129H40.645a4.056,4.056,0,0,0-1.662-3.262l.388-1.553a42.728,42.728,0,0,0,1.274-10.348,42.68,42.68,0,0,0-6.081-21.952l-4.89-8.153a7.265,7.265,0,0,0-6.194-3.506,7.142,7.142,0,0,0-3.158.758V28.452h8.129v4.065a4.069,4.069,0,0,0,4.065,4.065H73.161a4.069,4.069,0,0,0,4.065-4.065V24.387a4.069,4.069,0,0,0-4.065-4.065H36.581V12.194h48.28l.6.6a2.032,2.032,0,0,1-1.437,3.469H81.29V28.452H84.02a2.032,2.032,0,0,1,1.437,3.469l-1.931,1.931,8.623,8.623,1.931-1.931a2.032,2.032,0,0,1,3.469,1.437V44.71h4.065Zm16.024-85.656a5.984,5.984,0,0,0,.478,5.6l-3.073,3.073a6.114,6.114,0,0,0-9.224,3.821h-4.347a6.114,6.114,0,0,0-9.224-3.821l-3.073-3.073a6.114,6.114,0,0,0-3.821-9.224V20.182a6.114,6.114,0,0,0,3.821-9.224l3.073-3.073a6,6,0,0,0,5.6.478,5.988,5.988,0,0,0,3.626-4.3h4.347a5.99,5.99,0,0,0,3.624,4.3,5.979,5.979,0,0,0,5.6-.478l3.073,3.073a6.114,6.114,0,0,0,3.819,9.224v4.347a5.983,5.983,0,0,0-4.3,3.621Z" transform="translate(0 0)"/>
    <path id="Trazado_138153" data-name="Trazado 138153" d="M58.226,4A14.226,14.226,0,1,0,72.452,18.226,14.241,14.241,0,0,0,58.226,4Zm0,24.387A10.161,10.161,0,1,1,68.387,18.226,10.173,10.173,0,0,1,58.226,28.387Z" transform="translate(45.419 4.129)"/>
    <path id="Trazado_138154" data-name="Trazado 138154" d="M14,20h8.129v4.065H14Z" transform="translate(14.452 20.645)"/>
    <path id="Trazado_138155" data-name="Trazado 138155" d="M20,20H56.581v4.065H20Z" transform="translate(20.645 20.645)"/>
    <path id="Trazado_138156" data-name="Trazado 138156" d="M14,24H62.774v4.065H14Z" transform="translate(14.452 24.774)"/>
    <path id="Trazado_138157" data-name="Trazado 138157" d="M14,28H46.516v4.065H14Z" transform="translate(14.452 28.903)"/>
    <path id="Trazado_138158" data-name="Trazado 138158" d="M32,28H44.194v4.065H32Z" transform="translate(33.032 28.903)"/>
    <path id="Trazado_138159" data-name="Trazado 138159" d="M20,32h4.065v4.065H20Z" transform="translate(20.645 33.032)"/>
    <path id="Trazado_138160" data-name="Trazado 138160" d="M24,32h4.065v4.065H24Z" transform="translate(24.774 33.032)"/>
    <path id="Trazado_138161" data-name="Trazado 138161" d="M28,32h4.065v4.065H28Z" transform="translate(28.903 33.032)"/>
    <path id="Trazado_138162" data-name="Trazado 138162" d="M68.659,41.884a4.039,4.039,0,0,0-2.341,3.191l-.894,7.154L63.235,48.58A5.051,5.051,0,0,0,54,49.956l-.128.512-2.859-5.717a4.857,4.857,0,0,0-9.109,1.219l-.673,3.363L33.379,40.6A7.889,7.889,0,0,0,27.53,38,5.537,5.537,0,0,0,22,43.53a5.341,5.341,0,0,0,.256,1.66l3.886,13.687,3.91-1.11L26.14,43.993a1.5,1.5,0,0,1-.075-.463,1.466,1.466,0,0,1,1.465-1.465,3.81,3.81,0,0,1,2.829,1.26l9.883,10.982-.925,4.623a6.289,6.289,0,0,0,6.166,7.521,4.969,4.969,0,0,0,3.693-8.294L44.625,53.1l1.268-6.335a.825.825,0,0,1,1.49-.2l2.859,5.717a4.064,4.064,0,0,0,7.578-.833l.128-.51a1.026,1.026,0,0,1,1.8-.268l2.189,3.648a4.064,4.064,0,0,0,7.517-1.587l.894-7.154,3.361,2.242,2.254-3.382L72.6,42.2a4.045,4.045,0,0,0-3.945-.313Zm-22.5,18.993a.905.905,0,0,1-.673,1.51A2.223,2.223,0,0,1,43.3,59.729l.331-1.654Z" transform="translate(22.71 39.226)"/>
  </g>
</svg>
