<svg xmlns="http://www.w3.org/2000/svg" width="506" height="387" viewBox="0 0 506 387">
  <g id="Grupo_117112" data-name="Grupo 117112" transform="translate(-862 -2840)">
    <g id="Trazado_141904" data-name="Trazado 141904" transform="translate(922 2859)" fill="#fff">
      <path d="M 184 365.5 C 171.6838073730469 365.5 159.3760986328125 364.2593383789062 147.4187469482422 361.8125610351562 C 135.7666015625 359.4281616210938 124.3051528930664 355.8703002929688 113.3527526855469 351.2378540039062 C 102.5987014770508 346.6892395019531 92.2261962890625 341.0592651367188 82.52335357666016 334.504150390625 C 72.91210174560547 328.0108947753906 63.87400054931641 320.5537414550781 55.66009902954102 312.3399047851562 C 47.44625091552734 304.1260070800781 39.98910140991211 295.087890625 33.495849609375 285.4766540527344 C 26.94075012207031 275.7738037109375 21.31074905395508 265.4013061523438 16.76214981079102 254.6472473144531 C 12.12969970703125 243.6948547363281 8.571849822998047 232.2333984375 6.187449932098389 220.5812530517578 C 3.740649938583374 208.6239013671875 2.5 196.3161926269531 2.5 184 C 2.5 171.6838073730469 3.740649938583374 159.3760986328125 6.187449932098389 147.4187469482422 C 8.571849822998047 135.7666015625 12.12969970703125 124.3051528930664 16.76214981079102 113.3527526855469 C 21.31074905395508 102.5987014770508 26.94075012207031 92.2261962890625 33.495849609375 82.52335357666016 C 39.98910140991211 72.91210174560547 47.44625091552734 63.87400054931641 55.66009902954102 55.66009902954102 C 63.87400054931641 47.44625091552734 72.91210174560547 39.98910140991211 82.52335357666016 33.495849609375 C 92.2261962890625 26.94075012207031 102.5987014770508 21.31074905395508 113.3527526855469 16.76214981079102 C 124.3051528930664 12.12969970703125 135.7666015625 8.571849822998047 147.4187469482422 6.187449932098389 C 159.3760986328125 3.740649938583374 171.6838073730469 2.5 184 2.5 C 196.3161926269531 2.5 208.6239013671875 3.740649938583374 220.5812530517578 6.187449932098389 C 232.2333984375 8.571849822998047 243.6948547363281 12.12969970703125 254.6472473144531 16.76214981079102 C 265.4013061523438 21.31074905395508 275.7738037109375 26.94075012207031 285.4766540527344 33.495849609375 C 295.087890625 39.98910140991211 304.1260070800781 47.44625091552734 312.3399047851562 55.66009902954102 C 320.5537414550781 63.87400054931641 328.0108947753906 72.91210174560547 334.504150390625 82.52335357666016 C 341.0592651367188 92.2261962890625 346.6892395019531 102.5987014770508 351.2378540039062 113.3527526855469 C 355.8703002929688 124.3051528930664 359.4281616210938 135.7666015625 361.8125610351562 147.4187469482422 C 364.2593383789062 159.3760986328125 365.5 171.6838073730469 365.5 184 C 365.5 196.3161926269531 364.2593383789062 208.6239013671875 361.8125610351562 220.5812530517578 C 359.4281616210938 232.2333984375 355.8703002929688 243.6948547363281 351.2378540039062 254.6472473144531 C 346.6892395019531 265.4013061523438 341.0592651367188 275.7738037109375 334.504150390625 285.4766540527344 C 328.0108947753906 295.087890625 320.5537414550781 304.1260070800781 312.3399047851562 312.3399047851562 C 304.1260070800781 320.5537414550781 295.087890625 328.0108947753906 285.4766540527344 334.504150390625 C 275.7738037109375 341.0592651367188 265.4013061523438 346.6892395019531 254.6472473144531 351.2378540039062 C 243.6948547363281 355.8703002929688 232.2333984375 359.4281616210938 220.5812530517578 361.8125610351562 C 208.6239013671875 364.2593383789062 196.3161926269531 365.5 184 365.5 Z" stroke="none"/>
      <path d="M 184 5 C 171.851806640625 5 159.7127532958984 6.223541259765625 147.9199523925781 8.636688232421875 C 136.429443359375 10.98800659179688 125.1269989013672 14.49649047851562 114.3266448974609 19.06463623046875 C 103.7212524414062 23.55035400390625 93.491943359375 29.10269165039062 83.92291259765625 35.56741333007812 C 74.44345092773438 41.97158813476562 65.52923583984375 49.32650756835938 57.42788696289062 57.42788696289062 C 49.32650756835938 65.52923583984375 41.97158813476562 74.44345092773438 35.56741333007812 83.92291259765625 C 29.10269165039062 93.491943359375 23.55035400390625 103.7212524414062 19.06463623046875 114.3266448974609 C 14.49649047851562 125.1269989013672 10.98800659179688 136.429443359375 8.636688232421875 147.9199523925781 C 6.223541259765625 159.7127532958984 5 171.851806640625 5 184 C 5 196.148193359375 6.223541259765625 208.2872467041016 8.636688232421875 220.0800476074219 C 10.98800659179688 231.570556640625 14.49649047851562 242.8730010986328 19.06463623046875 253.67333984375 C 23.55035400390625 264.2787475585938 29.10269165039062 274.508056640625 35.56741333007812 284.0770874023438 C 41.97158813476562 293.5565490722656 49.32650756835938 302.4707641601562 57.42788696289062 310.5721130371094 C 65.52923583984375 318.6734924316406 74.44345092773438 326.0284118652344 83.92291259765625 332.4325866699219 C 93.491943359375 338.8973083496094 103.7212524414062 344.4496459960938 114.3266448974609 348.9353637695312 C 125.1269989013672 353.5035095214844 136.429443359375 357.0119934082031 147.9199523925781 359.3633117675781 C 159.7127532958984 361.7764587402344 171.851806640625 363 184 363 C 196.148193359375 363 208.2872467041016 361.7764587402344 220.0800476074219 359.3633117675781 C 231.570556640625 357.0119934082031 242.8730010986328 353.5035095214844 253.67333984375 348.9353637695312 C 264.2787475585938 344.4496459960938 274.508056640625 338.8973083496094 284.0770874023438 332.4325866699219 C 293.5565490722656 326.0284118652344 302.4707641601562 318.6734924316406 310.5721130371094 310.5721130371094 C 318.6734924316406 302.4707641601562 326.0284118652344 293.5565490722656 332.4325866699219 284.0770874023438 C 338.8973083496094 274.508056640625 344.4496459960938 264.2787475585938 348.9353637695312 253.67333984375 C 353.5035095214844 242.8730010986328 357.0119934082031 231.570556640625 359.3633117675781 220.0800476074219 C 361.7764587402344 208.2872467041016 363 196.148193359375 363 184 C 363 171.851806640625 361.7764587402344 159.7127532958984 359.3633117675781 147.9199523925781 C 357.0119934082031 136.429443359375 353.5035095214844 125.1269989013672 348.9353637695312 114.3266448974609 C 344.4496459960938 103.7212524414062 338.8973083496094 93.491943359375 332.4325866699219 83.92291259765625 C 326.0284118652344 74.44345092773438 318.6734924316406 65.52923583984375 310.5721130371094 57.42788696289062 C 302.4707641601562 49.32650756835938 293.5565490722656 41.97158813476562 284.0770874023438 35.56741333007812 C 274.508056640625 29.10269165039062 264.2787475585938 23.55035400390625 253.67333984375 19.06463623046875 C 242.8730010986328 14.49649047851562 231.570556640625 10.98800659179688 220.0800476074219 8.636688232421875 C 208.2872467041016 6.223541259765625 196.148193359375 5 184 5 M 184 0 C 285.6203918457031 0 368 82.37960815429688 368 184 C 368 285.6203918457031 285.6203918457031 368 184 368 C 82.37960815429688 368 0 285.6203918457031 0 184 C 0 82.37960815429688 82.37960815429688 0 184 0 Z" stroke="none" fill="#529d2e"/>
    </g>
    <path id="Trazado_141905" data-name="Trazado 141905" d="M22,0h85a22,22,0,0,1,0,44H22A22,22,0,0,1,22,0Z" transform="translate(1042 2840)" fill="#85d161"/>
    <path id="Trazado_141906" data-name="Trazado 141906" d="M22,0h85a22,22,0,0,1,0,44H22A22,22,0,0,1,22,0Z" transform="translate(913 2923)" fill="#85d161"/>
    <path id="Trazado_141907" data-name="Trazado 141907" d="M22,0h86a22,22,0,0,1,0,44H22A22,22,0,0,1,22,0Z" transform="translate(1190 2923)" fill="#85d161"/>
    <path id="Trazado_141908" data-name="Trazado 141908" d="M22,0h85a22,22,0,0,1,0,44H22A22,22,0,0,1,22,0Z" transform="translate(1239 3062)" fill="#85d161"/>
    <path id="Trazado_141909" data-name="Trazado 141909" d="M22,0h85a22,22,0,0,1,0,44H22A22,22,0,0,1,22,0Z" transform="translate(862 3062)" fill="#85d161"/>
    <path id="Trazado_141910" data-name="Trazado 141910" d="M22,0h85a22,22,0,0,1,0,44H22A22,22,0,0,1,22,0Z" transform="translate(965 3166)" fill="#85d161"/>
    <path id="Trazado_141911" data-name="Trazado 141911" d="M22,0h85a22,22,0,0,1,0,44H22A22,22,0,0,1,22,0Z" transform="translate(1139 3166)" fill="#85d161"/>
    <path id="Trazado_141912" data-name="Trazado 141912" d="M-49.087-2.834a1.056,1.056,0,0,0-.4-.879,4.961,4.961,0,0,0-1.4-.652,13.456,13.456,0,0,1-1.641-.652,3.107,3.107,0,0,1-2.073-2.8,2.509,2.509,0,0,1,.516-1.564,3.34,3.34,0,0,1,1.461-1.055,5.686,5.686,0,0,1,2.124-.377,4.974,4.974,0,0,1,2.062.41,3.264,3.264,0,0,1,1.417,1.168A3.051,3.051,0,0,1-46.516-7.5H-49.08a1.289,1.289,0,0,0-.4-1.011,1.556,1.556,0,0,0-1.08-.359,1.755,1.755,0,0,0-1.088.3.932.932,0,0,0-.4.773.939.939,0,0,0,.439.743,5.542,5.542,0,0,0,1.545.688,9.467,9.467,0,0,1,1.816.765,3.052,3.052,0,0,1,1.729,2.747,2.6,2.6,0,0,1-1.055,2.2,4.691,4.691,0,0,1-2.893.8,5.74,5.74,0,0,1-2.347-.465,3.539,3.539,0,0,1-1.582-1.274,3.321,3.321,0,0,1-.531-1.864h2.578A1.635,1.635,0,0,0-51.9-2.194a2.094,2.094,0,0,0,1.439.406,1.655,1.655,0,0,0,1.007-.275A.907.907,0,0,0-49.087-2.834ZM-42.708,0h-2.476V-7.925h2.476ZM-45.33-9.968a1.1,1.1,0,0,1,.381-.864,1.437,1.437,0,0,1,.989-.337,1.437,1.437,0,0,1,.989.337,1.1,1.1,0,0,1,.381.864,1.1,1.1,0,0,1-.381.864,1.437,1.437,0,0,1-.989.337,1.437,1.437,0,0,1-.989-.337A1.1,1.1,0,0,1-45.33-9.968Zm8.291,7.742a.57.57,0,0,0-.33-.505,5.013,5.013,0,0,0-1.252-.4,5.711,5.711,0,0,1-1.523-.538,2.552,2.552,0,0,1-.916-.809,1.933,1.933,0,0,1-.315-1.091,2.19,2.19,0,0,1,.9-1.8,3.711,3.711,0,0,1,2.358-.707,4.112,4.112,0,0,1,2.52.71,2.222,2.222,0,0,1,.952,1.868h-2.476q0-.952-1-.952a1,1,0,0,0-.652.216.669.669,0,0,0-.264.538.614.614,0,0,0,.322.535,3.045,3.045,0,0,0,1.029.337,8.893,8.893,0,0,1,1.241.315,2.255,2.255,0,0,1,1.787,2.2,2.075,2.075,0,0,1-.963,1.765,4.224,4.224,0,0,1-2.494.681A4.31,4.31,0,0,1-39.932-.22a3.037,3.037,0,0,1-1.245-1,2.256,2.256,0,0,1-.447-1.326h2.307a.954.954,0,0,0,.366.8,1.506,1.506,0,0,0,.9.253,1.185,1.185,0,0,0,.758-.205A.656.656,0,0,0-37.039-2.227ZM-30.63-9.9v1.97h1.3v1.714h-1.3v3.625a.926.926,0,0,0,.161.623.864.864,0,0,0,.637.176,3.621,3.621,0,0,0,.615-.044V-.066a4.555,4.555,0,0,1-1.392.212,2.586,2.586,0,0,1-1.882-.6A2.462,2.462,0,0,1-33.1-2.278V-6.211h-1.011V-7.925H-33.1V-9.9ZM-24.521.146A4.074,4.074,0,0,1-27.473-.941,3.756,3.756,0,0,1-28.6-3.772v-.205a4.867,4.867,0,0,1,.45-2.146,3.3,3.3,0,0,1,1.315-1.439,3.969,3.969,0,0,1,2.051-.509,3.43,3.43,0,0,1,2.637,1.036,4.073,4.073,0,0,1,.967,2.889v.959h-4.907a1.779,1.779,0,0,0,.579,1.047,1.722,1.722,0,0,0,1.157.381,2.218,2.218,0,0,0,1.831-.82l1.128,1.333A3.153,3.153,0,0,1-22.7-.231,4.418,4.418,0,0,1-24.521.146ZM-24.8-6.167q-1.084,0-1.289,1.436h2.49v-.19a1.223,1.223,0,0,0-.3-.919A1.2,1.2,0,0,0-24.8-6.167Zm6.943-1.758.081.93a2.725,2.725,0,0,1,2.263-1.077,2.006,2.006,0,0,1,2.029,1.194,2.637,2.637,0,0,1,2.329-1.194q2.41,0,2.476,2.915V0h-2.476V-5a1.511,1.511,0,0,0-.205-.886.873.873,0,0,0-.747-.278,1.169,1.169,0,0,0-1.091.652l.007.1V0h-2.476V-4.988a1.588,1.588,0,0,0-.2-.9.87.87,0,0,0-.754-.278,1.184,1.184,0,0,0-1.084.652V0h-2.468V-7.925ZM-2.805,0A2.787,2.787,0,0,1-3.04-.71a2.3,2.3,0,0,1-1.9.857,2.812,2.812,0,0,1-1.9-.677,2.156,2.156,0,0,1-.784-1.7A2.216,2.216,0,0,1-6.68-4.182a4.851,4.851,0,0,1,2.769-.659h.762v-.42q0-1.1-.945-1.1a.772.772,0,0,0-.879.868H-7.441a2.213,2.213,0,0,1,.978-1.865A4.109,4.109,0,0,1-3.97-8.071a3.6,3.6,0,0,1,2.4.74A2.572,2.572,0,0,1-.674-5.3v3.508A3.593,3.593,0,0,0-.337-.125V0ZM-4.351-1.611a1.377,1.377,0,0,0,.765-.2,1.239,1.239,0,0,0,.436-.447V-3.523h-.718q-1.289,0-1.289,1.157a.707.707,0,0,0,.227.546A.822.822,0,0,0-4.351-1.611Z" transform="translate(1134 2867)" fill="#12263f"/>
    <path id="Trazado_141913" data-name="Trazado 141913" d="M-62.351-8.1h-2.987V0h-2.4V-8.1H-70.67V-9.953h8.319ZM-57.866.137A3.8,3.8,0,0,1-60.621-.878a3.506,3.506,0,0,1-1.053-2.642v-.191a4.542,4.542,0,0,1,.42-2,3.076,3.076,0,0,1,1.227-1.343,3.7,3.7,0,0,1,1.914-.475,3.2,3.2,0,0,1,2.461.967,3.8,3.8,0,0,1,.9,2.7v.9h-4.58a1.66,1.66,0,0,0,.54.978,1.607,1.607,0,0,0,1.08.355A2.07,2.07,0,0,0-56-2.406l1.053,1.244a2.943,2.943,0,0,1-1.22.947A4.123,4.123,0,0,1-57.866.137Zm-.26-5.893q-1.012,0-1.2,1.34H-57v-.178a1.141,1.141,0,0,0-.28-.858A1.115,1.115,0,0,0-58.126-5.756Zm8.777.444-.759-.055a1.363,1.363,0,0,0-1.395.684V0h-2.3V-7.4h2.16l.075.95a1.784,1.784,0,0,1,1.62-1.087,2.247,2.247,0,0,1,.643.082Zm5.3,0-.759-.055a1.363,1.363,0,0,0-1.395.684V0h-2.3V-7.4h2.16l.075.95a1.784,1.784,0,0,1,1.62-1.087A2.247,2.247,0,0,1-44-7.451Zm.294,1.545a4.366,4.366,0,0,1,.431-1.972,3.08,3.08,0,0,1,1.237-1.33,3.726,3.726,0,0,1,1.894-.465A3.4,3.4,0,0,1-37.57-6.5a3.948,3.948,0,0,1,.957,2.8v.082a3.83,3.83,0,0,1-.96,2.745,3.41,3.41,0,0,1-2.6,1.015A3.449,3.449,0,0,1-42.711-.81a3.7,3.7,0,0,1-1.032-2.567Zm2.3.144a2.752,2.752,0,0,0,.321,1.5,1.07,1.07,0,0,0,.95.479q1.23,0,1.258-1.894v-.232q0-1.989-1.271-1.989-1.155,0-1.251,1.716Zm10.322-1.688-.759-.055a1.363,1.363,0,0,0-1.395.684V0h-2.3V-7.4h2.16l.075.95a1.784,1.784,0,0,1,1.62-1.087,2.247,2.247,0,0,1,.643.082ZM-27.863,0h-2.311V-7.4h2.311Zm-2.447-9.3a1.028,1.028,0,0,1,.355-.807,1.341,1.341,0,0,1,.923-.314,1.341,1.341,0,0,1,.923.314,1.028,1.028,0,0,1,.355.807,1.028,1.028,0,0,1-.355.807,1.341,1.341,0,0,1-.923.314,1.341,1.341,0,0,1-.923-.314A1.028,1.028,0,0,1-30.311-9.3Zm7.738,7.226a.532.532,0,0,0-.308-.472,4.679,4.679,0,0,0-1.169-.369,5.33,5.33,0,0,1-1.422-.5,2.382,2.382,0,0,1-.854-.755A1.8,1.8,0,0,1-26.619-5.2a2.044,2.044,0,0,1,.841-1.678,3.464,3.464,0,0,1,2.2-.66,3.837,3.837,0,0,1,2.352.663,2.074,2.074,0,0,1,.889,1.743h-2.311q0-.889-.937-.889a.928.928,0,0,0-.608.2.624.624,0,0,0-.246.5.573.573,0,0,0,.3.5,2.842,2.842,0,0,0,.96.314,8.3,8.3,0,0,1,1.159.294,2.105,2.105,0,0,1,1.668,2.058A1.937,1.937,0,0,1-21.25-.5a3.942,3.942,0,0,1-2.328.636,4.023,4.023,0,0,1-1.7-.342,2.835,2.835,0,0,1-1.162-.93,2.105,2.105,0,0,1-.417-1.237H-24.7a.89.89,0,0,0,.342.749,1.406,1.406,0,0,0,.841.236,1.106,1.106,0,0,0,.708-.191A.612.612,0,0,0-22.572-2.078ZM-17.1-7.4l.075.868a2.543,2.543,0,0,1,2.112-1,1.872,1.872,0,0,1,1.894,1.114,2.462,2.462,0,0,1,2.174-1.114q2.249,0,2.311,2.721V0h-2.311V-4.669a1.41,1.41,0,0,0-.191-.827.815.815,0,0,0-.7-.26,1.091,1.091,0,0,0-1.019.608l.007.1V0h-2.311V-4.655a1.482,1.482,0,0,0-.185-.841.812.812,0,0,0-.7-.26,1.1,1.1,0,0,0-1.012.608V0h-2.3V-7.4Zm9.591,3.63a4.366,4.366,0,0,1,.431-1.972,3.08,3.08,0,0,1,1.237-1.33,3.726,3.726,0,0,1,1.894-.465A3.4,3.4,0,0,1-1.326-6.5a3.948,3.948,0,0,1,.957,2.8v.082A3.83,3.83,0,0,1-1.33-.878,3.41,3.41,0,0,1-3.931.137,3.449,3.449,0,0,1-6.467-.81,3.7,3.7,0,0,1-7.5-3.377Zm2.3.144a2.752,2.752,0,0,0,.321,1.5,1.07,1.07,0,0,0,.95.479q1.23,0,1.258-1.894v-.232q0-1.989-1.271-1.989Q-5.1-5.756-5.2-4.04Z" transform="translate(1010 2949)" fill="#12263f"/>
    <path id="Trazado_141914" data-name="Trazado 141914" d="M-96.584-4.248h-4.146V0H-103.3V-10.664h7.134v1.985h-4.563v2.454h4.146ZM-92.607,0h-2.476V-7.925h2.476Zm-2.622-9.968a1.1,1.1,0,0,1,.381-.864,1.437,1.437,0,0,1,.989-.337,1.437,1.437,0,0,1,.989.337,1.1,1.1,0,0,1,.381.864,1.1,1.1,0,0,1-.381.864,1.437,1.437,0,0,1-.989.337,1.437,1.437,0,0,1-.989-.337A1.1,1.1,0,0,1-95.229-9.968Zm6.409,2.043.081.93a2.687,2.687,0,0,1,2.263-1.077,2.261,2.261,0,0,1,1.849.74A3.522,3.522,0,0,1-83.994-5.1V0H-86.47V-5a1.337,1.337,0,0,0-.242-.883,1.118,1.118,0,0,0-.879-.282,1.177,1.177,0,0,0-1.077.571V0h-2.468V-7.925ZM-78.164,0A2.787,2.787,0,0,1-78.4-.71a2.3,2.3,0,0,1-1.9.857,2.812,2.812,0,0,1-1.9-.677,2.156,2.156,0,0,1-.784-1.7,2.216,2.216,0,0,1,.952-1.948,4.851,4.851,0,0,1,2.769-.659h.762v-.42q0-1.1-.945-1.1a.772.772,0,0,0-.879.868H-82.8a2.213,2.213,0,0,1,.978-1.865,4.109,4.109,0,0,1,2.494-.717,3.6,3.6,0,0,1,2.4.74,2.572,2.572,0,0,1,.9,2.029v3.508A3.593,3.593,0,0,0-75.7-.125V0Zm-1.545-1.611a1.377,1.377,0,0,0,.765-.2,1.239,1.239,0,0,0,.436-.447V-3.523h-.718q-1.289,0-1.289,1.157a.707.707,0,0,0,.227.546A.822.822,0,0,0-79.709-1.611Zm7.31-6.313.081.93a2.687,2.687,0,0,1,2.263-1.077,2.261,2.261,0,0,1,1.849.74A3.522,3.522,0,0,1-67.573-5.1V0h-2.476V-5a1.337,1.337,0,0,0-.242-.883,1.118,1.118,0,0,0-.879-.282,1.177,1.177,0,0,0-1.077.571V0h-2.468V-7.925Zm9.543,6.167a1.1,1.1,0,0,0,.806-.282,1.034,1.034,0,0,0,.278-.787h2.314a2.74,2.74,0,0,1-.934,2.139A3.474,3.474,0,0,1-62.8.146,3.517,3.517,0,0,1-65.522-.937a4.271,4.271,0,0,1-1-3v-.1a4.827,4.827,0,0,1,.443-2.12A3.226,3.226,0,0,1-64.8-7.577a3.811,3.811,0,0,1,1.978-.494,3.43,3.43,0,0,1,2.454.857,3.039,3.039,0,0,1,.908,2.322h-2.314a1.355,1.355,0,0,0-.3-.945,1.037,1.037,0,0,0-.806-.33q-.959,0-1.121,1.223a8.631,8.631,0,0,0-.051,1.069,3.39,3.39,0,0,0,.286,1.655A.989.989,0,0,0-62.856-1.758ZM-55.811,0h-2.476V-7.925h2.476Zm-2.622-9.968a1.1,1.1,0,0,1,.381-.864,1.437,1.437,0,0,1,.989-.337,1.437,1.437,0,0,1,.989.337,1.1,1.1,0,0,1,.381.864,1.1,1.1,0,0,1-.381.864,1.437,1.437,0,0,1-.989.337,1.437,1.437,0,0,1-.989-.337A1.1,1.1,0,0,1-58.433-9.968ZM-49.827,0a2.787,2.787,0,0,1-.234-.71,2.3,2.3,0,0,1-1.9.857,2.812,2.812,0,0,1-1.9-.677,2.156,2.156,0,0,1-.784-1.7A2.216,2.216,0,0,1-53.7-4.182a4.851,4.851,0,0,1,2.769-.659h.762v-.42q0-1.1-.945-1.1a.772.772,0,0,0-.879.868h-2.468a2.213,2.213,0,0,1,.978-1.865,4.109,4.109,0,0,1,2.494-.717,3.6,3.6,0,0,1,2.4.74A2.572,2.572,0,0,1-47.7-5.3v3.508a3.593,3.593,0,0,0,.337,1.67V0Zm-1.545-1.611a1.377,1.377,0,0,0,.765-.2,1.239,1.239,0,0,0,.436-.447V-3.523h-.718q-1.289,0-1.289,1.157a.707.707,0,0,0,.227.546A.822.822,0,0,0-51.372-1.611ZM-44-7.925l.081.93a2.725,2.725,0,0,1,2.263-1.077,2.006,2.006,0,0,1,2.029,1.194,2.637,2.637,0,0,1,2.329-1.194q2.41,0,2.476,2.915V0h-2.476V-5a1.511,1.511,0,0,0-.205-.886.873.873,0,0,0-.747-.278,1.169,1.169,0,0,0-1.091.652l.007.1V0h-2.476V-4.988a1.588,1.588,0,0,0-.2-.9.87.87,0,0,0-.754-.278,1.184,1.184,0,0,0-1.084.652V0h-2.468V-7.925ZM-30.806,0h-2.476V-7.925h2.476Zm-2.622-9.968a1.1,1.1,0,0,1,.381-.864,1.437,1.437,0,0,1,.989-.337,1.437,1.437,0,0,1,.989.337,1.1,1.1,0,0,1,.381.864,1.1,1.1,0,0,1-.381.864,1.437,1.437,0,0,1-.989.337,1.437,1.437,0,0,1-.989-.337A1.1,1.1,0,0,1-33.428-9.968ZM-25.452.146A4.074,4.074,0,0,1-28.4-.941a3.756,3.756,0,0,1-1.128-2.831v-.205a4.867,4.867,0,0,1,.45-2.146,3.3,3.3,0,0,1,1.315-1.439,3.969,3.969,0,0,1,2.051-.509,3.43,3.43,0,0,1,2.637,1.036,4.073,4.073,0,0,1,.967,2.889v.959h-4.907a1.779,1.779,0,0,0,.579,1.047,1.722,1.722,0,0,0,1.157.381,2.218,2.218,0,0,0,1.831-.82l1.128,1.333A3.153,3.153,0,0,1-23.632-.231,4.418,4.418,0,0,1-25.452.146Zm-.278-6.313q-1.084,0-1.289,1.436h2.49v-.19a1.223,1.223,0,0,0-.3-.919A1.2,1.2,0,0,0-25.73-6.167Zm6.877-1.758.081.93a2.687,2.687,0,0,1,2.263-1.077,2.261,2.261,0,0,1,1.849.74A3.522,3.522,0,0,1-14.026-5.1V0H-16.5V-5a1.337,1.337,0,0,0-.242-.883,1.118,1.118,0,0,0-.879-.282A1.177,1.177,0,0,0-18.7-5.6V0h-2.468V-7.925ZM-9.785-9.9v1.97h1.3v1.714h-1.3v3.625a.926.926,0,0,0,.161.623.864.864,0,0,0,.637.176,3.621,3.621,0,0,0,.615-.044V-.066A4.555,4.555,0,0,1-9.763.146a2.586,2.586,0,0,1-1.882-.6,2.462,2.462,0,0,1-.608-1.824V-6.211h-1.011V-7.925h1.011V-9.9Zm1.743,5.859a4.677,4.677,0,0,1,.461-2.113A3.3,3.3,0,0,1-6.255-7.573a3.993,3.993,0,0,1,2.029-.5,3.644,3.644,0,0,1,2.805,1.1A4.23,4.23,0,0,1-.4-3.97v.088A4.1,4.1,0,0,1-1.425-.941,3.654,3.654,0,0,1-4.211.146,3.7,3.7,0,0,1-6.929-.868a3.968,3.968,0,0,1-1.106-2.75Zm2.468.154a2.949,2.949,0,0,0,.344,1.611,1.147,1.147,0,0,0,1.018.513q1.318,0,1.348-2.029v-.249q0-2.131-1.362-2.131-1.238,0-1.34,1.838Z" transform="translate(979 3090)" fill="#12263f"/>
    <path id="Trazado_141915" data-name="Trazado 141915" d="M-46.409-3.521h-1.3V0h-2.4V-9.953h3.917a4.372,4.372,0,0,1,2.769.785,2.661,2.661,0,0,1,1,2.219,3.232,3.232,0,0,1-.42,1.721A2.984,2.984,0,0,1-44.16-4.121L-42.082-.1V0h-2.57Zm-1.3-1.846h1.518a1.362,1.362,0,0,0,1.029-.36,1.391,1.391,0,0,0,.345-1,1.407,1.407,0,0,0-.349-1.011,1.349,1.349,0,0,0-1.025-.367h-1.518ZM-38.65,0h-2.311V-7.4h2.311ZM-41.1-9.3a1.028,1.028,0,0,1,.355-.807,1.341,1.341,0,0,1,.923-.314,1.341,1.341,0,0,1,.923.314,1.028,1.028,0,0,1,.355.807A1.028,1.028,0,0,1-38.9-8.5a1.341,1.341,0,0,1-.923.314,1.341,1.341,0,0,1-.923-.314A1.028,1.028,0,0,1-41.1-9.3Zm7.444,9.44A3.8,3.8,0,0,1-36.408-.878a3.506,3.506,0,0,1-1.053-2.642v-.191a4.542,4.542,0,0,1,.42-2,3.076,3.076,0,0,1,1.227-1.343A3.7,3.7,0,0,1-33.9-7.533a3.2,3.2,0,0,1,2.461.967,3.8,3.8,0,0,1,.9,2.7v.9h-4.58a1.66,1.66,0,0,0,.54.978,1.607,1.607,0,0,0,1.08.355,2.07,2.07,0,0,0,1.709-.766l1.053,1.244a2.943,2.943,0,0,1-1.22.947A4.123,4.123,0,0,1-33.653.137Zm-.26-5.893q-1.012,0-1.2,1.34h2.324v-.178a1.141,1.141,0,0,0-.28-.858A1.115,1.115,0,0,0-33.913-5.756Zm8.176,3.678a.532.532,0,0,0-.308-.472,4.679,4.679,0,0,0-1.169-.369,5.33,5.33,0,0,1-1.422-.5,2.382,2.382,0,0,1-.854-.755A1.8,1.8,0,0,1-29.784-5.2a2.044,2.044,0,0,1,.841-1.678,3.464,3.464,0,0,1,2.2-.66,3.837,3.837,0,0,1,2.352.663A2.074,2.074,0,0,1-23.5-5.127h-2.311q0-.889-.937-.889a.928.928,0,0,0-.608.2.624.624,0,0,0-.246.5.573.573,0,0,0,.3.5,2.842,2.842,0,0,0,.96.314,8.3,8.3,0,0,1,1.159.294,2.105,2.105,0,0,1,1.668,2.058,1.937,1.937,0,0,1-.9,1.647,3.942,3.942,0,0,1-2.328.636,4.023,4.023,0,0,1-1.7-.342,2.835,2.835,0,0,1-1.162-.93,2.105,2.105,0,0,1-.417-1.237h2.153a.89.89,0,0,0,.342.749,1.406,1.406,0,0,0,.841.236,1.106,1.106,0,0,0,.708-.191A.612.612,0,0,0-25.737-2.078Zm3.028-1.675a4.994,4.994,0,0,1,.369-1.982,2.972,2.972,0,0,1,1.06-1.33,2.793,2.793,0,0,1,1.606-.468,2.221,2.221,0,0,1,1.8.779l.082-.643H-15.7V-.28a3.118,3.118,0,0,1-.455,1.7,2.917,2.917,0,0,1-1.316,1.107,4.837,4.837,0,0,1-2,.386A4.173,4.173,0,0,1-21.038,2.6,2.844,2.844,0,0,1-22.2,1.8l.964-1.354a2.112,2.112,0,0,0,1.7.759A1.372,1.372,0,0,0-18.013-.362V-.595a2.163,2.163,0,0,1-1.675.731A2.673,2.673,0,0,1-21.875-.9a4.291,4.291,0,0,1-.834-2.772Zm2.311.144a2.631,2.631,0,0,0,.342,1.439,1.078,1.078,0,0,0,.957.53,1.224,1.224,0,0,0,1.087-.5V-5.25a1.193,1.193,0,0,0-1.073-.506,1.086,1.086,0,0,0-.964.55A3,3,0,0,0-20.4-3.609Zm5.722-.157a4.366,4.366,0,0,1,.431-1.972,3.08,3.08,0,0,1,1.237-1.33,3.726,3.726,0,0,1,1.894-.465A3.4,3.4,0,0,1-8.5-6.5a3.948,3.948,0,0,1,.957,2.8v.082A3.83,3.83,0,0,1-8.5-.878,3.41,3.41,0,0,1-11.1.137,3.449,3.449,0,0,1-13.638-.81,3.7,3.7,0,0,1-14.67-3.377Zm2.3.144a2.752,2.752,0,0,0,.321,1.5,1.07,1.07,0,0,0,.95.479q1.23,0,1.258-1.894v-.232q0-1.989-1.271-1.989-1.155,0-1.251,1.716Zm9.721,1.545A.532.532,0,0,0-2.96-2.55a4.679,4.679,0,0,0-1.169-.369,5.33,5.33,0,0,1-1.422-.5,2.382,2.382,0,0,1-.854-.755A1.8,1.8,0,0,1-6.7-5.2a2.044,2.044,0,0,1,.841-1.678,3.464,3.464,0,0,1,2.2-.66,3.837,3.837,0,0,1,2.352.663A2.074,2.074,0,0,1-.417-5.127H-2.728q0-.889-.937-.889a.928.928,0,0,0-.608.2.624.624,0,0,0-.246.5.573.573,0,0,0,.3.5,2.842,2.842,0,0,0,.96.314A8.3,8.3,0,0,1-2.1-4.2,2.105,2.105,0,0,1-.431-2.146,1.937,1.937,0,0,1-1.33-.5,3.942,3.942,0,0,1-3.657.137a4.023,4.023,0,0,1-1.7-.342,2.835,2.835,0,0,1-1.162-.93,2.105,2.105,0,0,1-.417-1.237h2.153a.89.89,0,0,0,.342.749,1.406,1.406,0,0,0,.841.236,1.106,1.106,0,0,0,.708-.191A.612.612,0,0,0-2.652-2.078Z" transform="translate(1323 3089)" fill="#12263f"/>
    <path id="Trazado_141916" data-name="Trazado 141916" d="M-20.845-1.978h4.475V0h-7.046V-10.664h2.571ZM-10.935,0a2.787,2.787,0,0,1-.234-.71,2.3,2.3,0,0,1-1.9.857,2.812,2.812,0,0,1-1.9-.677,2.156,2.156,0,0,1-.784-1.7,2.216,2.216,0,0,1,.952-1.948,4.851,4.851,0,0,1,2.769-.659h.762v-.42q0-1.1-.945-1.1a.772.772,0,0,0-.879.868h-2.468a2.213,2.213,0,0,1,.978-1.865A4.109,4.109,0,0,1-12.1-8.071a3.6,3.6,0,0,1,2.4.74A2.572,2.572,0,0,1-8.8-5.3v3.508a3.593,3.593,0,0,0,.337,1.67V0ZM-12.48-1.611a1.377,1.377,0,0,0,.765-.2,1.239,1.239,0,0,0,.436-.447V-3.523H-12q-1.289,0-1.289,1.157a.707.707,0,0,0,.227.546A.822.822,0,0,0-12.48-1.611Zm8.093-1.326,1.252-4.988h2.6L-3.12,0H-5.64L-8.225-7.925h2.607ZM4.556,0a2.787,2.787,0,0,1-.234-.71,2.3,2.3,0,0,1-1.9.857,2.812,2.812,0,0,1-1.9-.677,2.156,2.156,0,0,1-.784-1.7A2.216,2.216,0,0,1,.681-4.182,4.851,4.851,0,0,1,3.45-4.841h.762v-.42q0-1.1-.945-1.1a.772.772,0,0,0-.879.868H-.081A2.213,2.213,0,0,1,.9-7.354a4.109,4.109,0,0,1,2.494-.717,3.6,3.6,0,0,1,2.4.74,2.572,2.572,0,0,1,.9,2.029v3.508a3.593,3.593,0,0,0,.337,1.67V0ZM3.01-1.611a1.377,1.377,0,0,0,.765-.2,1.239,1.239,0,0,0,.436-.447V-3.523H3.494Q2.2-3.523,2.2-2.366a.707.707,0,0,0,.227.546A.822.822,0,0,0,3.01-1.611Zm4.731-2.41a4.841,4.841,0,0,1,.813-2.966,2.676,2.676,0,0,1,2.271-1.084,2.276,2.276,0,0,1,1.787.835V-11.25h2.476V0H12.869l-.125-.85a2.337,2.337,0,0,1-1.934,1A2.671,2.671,0,0,1,8.569-.937,4.994,4.994,0,0,1,7.742-4.021Zm2.468.154q0,2.109,1.23,2.109a1.215,1.215,0,0,0,1.172-.688V-5.464a1.182,1.182,0,0,0-1.157-.7q-1.143,0-1.238,1.846Zm5.969-.168a4.677,4.677,0,0,1,.461-2.113,3.3,3.3,0,0,1,1.326-1.425A3.993,3.993,0,0,1,20-8.071a3.644,3.644,0,0,1,2.805,1.1,4.23,4.23,0,0,1,1.025,3v.088A4.1,4.1,0,0,1,22.8-.941,3.654,3.654,0,0,1,20.01.146,3.7,3.7,0,0,1,17.292-.868a3.968,3.968,0,0,1-1.106-2.75Zm2.468.154a2.949,2.949,0,0,0,.344,1.611,1.147,1.147,0,0,0,1.018.513q1.318,0,1.348-2.029v-.249q0-2.131-1.362-2.131-1.238,0-1.34,1.838Z" transform="translate(1203 3193)" fill="#12263f"/>
    <path id="Trazado_141917" data-name="Trazado 141917" d="M-18.651-1.992h-3.523L-22.789,0h-2.747l3.911-10.664h2.417L-15.267,0h-2.761Zm-2.908-1.985h2.292l-1.15-3.7Zm10.305,2.219a1.1,1.1,0,0,0,.806-.282,1.034,1.034,0,0,0,.278-.787h2.314A2.74,2.74,0,0,1-8.789-.688,3.474,3.474,0,0,1-11.2.146,3.517,3.517,0,0,1-13.92-.937a4.271,4.271,0,0,1-1-3v-.1a4.827,4.827,0,0,1,.443-2.12,3.226,3.226,0,0,1,1.278-1.414,3.811,3.811,0,0,1,1.978-.494,3.43,3.43,0,0,1,2.454.857,3.039,3.039,0,0,1,.908,2.322H-10.17a1.355,1.355,0,0,0-.3-.945,1.037,1.037,0,0,0-.806-.33q-.959,0-1.121,1.223a8.631,8.631,0,0,0-.051,1.069,3.39,3.39,0,0,0,.286,1.655A.989.989,0,0,0-11.254-1.758ZM-3.937-9.9v1.97h1.3v1.714h-1.3v3.625a.926.926,0,0,0,.161.623.864.864,0,0,0,.637.176,3.621,3.621,0,0,0,.615-.044V-.066A4.555,4.555,0,0,1-3.915.146,2.586,2.586,0,0,1-5.8-.454a2.462,2.462,0,0,1-.608-1.824V-6.211H-7.416V-7.925h1.011V-9.9ZM.941,0H-1.534V-7.925H.941ZM-1.681-9.968a1.1,1.1,0,0,1,.381-.864,1.437,1.437,0,0,1,.989-.337,1.437,1.437,0,0,1,.989.337,1.1,1.1,0,0,1,.381.864A1.1,1.1,0,0,1,.677-9.1a1.437,1.437,0,0,1-.989.337A1.437,1.437,0,0,1-1.3-9.1,1.1,1.1,0,0,1-1.681-9.968Zm7.3,7.031L6.874-7.925h2.6L6.888,0H4.369L1.783-7.925H4.391Zm4.167-1.1a4.677,4.677,0,0,1,.461-2.113,3.3,3.3,0,0,1,1.326-1.425,3.993,3.993,0,0,1,2.029-.5,3.644,3.644,0,0,1,2.805,1.1,4.23,4.23,0,0,1,1.025,3v.088A4.1,4.1,0,0,1,16.406-.941,3.654,3.654,0,0,1,13.619.146,3.7,3.7,0,0,1,10.9-.868,3.968,3.968,0,0,1,9.8-3.618Zm2.468.154A2.949,2.949,0,0,0,12.6-2.271a1.147,1.147,0,0,0,1.018.513q1.318,0,1.348-2.029v-.249q0-2.131-1.362-2.131-1.238,0-1.34,1.838ZM22.672-2.227a.57.57,0,0,0-.33-.505,5.013,5.013,0,0,0-1.252-.4,5.711,5.711,0,0,1-1.523-.538,2.552,2.552,0,0,1-.916-.809,1.933,1.933,0,0,1-.315-1.091,2.19,2.19,0,0,1,.9-1.8A3.711,3.711,0,0,1,21.6-8.071a4.112,4.112,0,0,1,2.52.71,2.222,2.222,0,0,1,.952,1.868H22.592q0-.952-1-.952a1,1,0,0,0-.652.216.669.669,0,0,0-.264.538.614.614,0,0,0,.322.535,3.045,3.045,0,0,0,1.029.337,8.893,8.893,0,0,1,1.241.315,2.255,2.255,0,0,1,1.787,2.2,2.075,2.075,0,0,1-.963,1.765A4.224,4.224,0,0,1,21.6.146,4.31,4.31,0,0,1,19.779-.22a3.037,3.037,0,0,1-1.245-1,2.256,2.256,0,0,1-.447-1.326h2.307a.954.954,0,0,0,.366.8,1.506,1.506,0,0,0,.9.253,1.185,1.185,0,0,0,.758-.205A.656.656,0,0,0,22.672-2.227Z" transform="translate(1030 3193)" fill="#12263f"/>
    <path id="Trazado_141918" data-name="Trazado 141918" d="M-96.475-1.992H-100L-100.613,0h-2.747l3.911-10.664h2.417L-93.091,0h-2.761Zm-2.908-1.985h2.292l-1.15-3.7Zm6.643-.044a4.841,4.841,0,0,1,.813-2.966,2.676,2.676,0,0,1,2.271-1.084,2.276,2.276,0,0,1,1.787.835V-11.25h2.476V0h-2.219l-.125-.85a2.337,2.337,0,0,1-1.934,1A2.671,2.671,0,0,1-91.912-.937,4.994,4.994,0,0,1-92.739-4.021Zm2.468.154q0,2.109,1.23,2.109a1.215,1.215,0,0,0,1.172-.688V-5.464a1.182,1.182,0,0,0-1.157-.7q-1.143,0-1.238,1.846Zm8.613-4.058.081.93a2.725,2.725,0,0,1,2.263-1.077,2.006,2.006,0,0,1,2.029,1.194,2.637,2.637,0,0,1,2.329-1.194q2.41,0,2.476,2.915V0h-2.476V-5a1.511,1.511,0,0,0-.205-.886.873.873,0,0,0-.747-.278A1.169,1.169,0,0,0-77-5.515l.007.1V0h-2.476V-4.988a1.588,1.588,0,0,0-.2-.9.87.87,0,0,0-.754-.278,1.184,1.184,0,0,0-1.084.652V0h-2.468V-7.925ZM-68.467,0h-2.476V-7.925h2.476Zm-2.622-9.968a1.1,1.1,0,0,1,.381-.864,1.437,1.437,0,0,1,.989-.337,1.437,1.437,0,0,1,.989.337,1.1,1.1,0,0,1,.381.864,1.1,1.1,0,0,1-.381.864,1.437,1.437,0,0,1-.989.337,1.437,1.437,0,0,1-.989-.337A1.1,1.1,0,0,1-71.089-9.968Zm6.409,2.043.081.93a2.687,2.687,0,0,1,2.263-1.077,2.261,2.261,0,0,1,1.849.74A3.522,3.522,0,0,1-59.854-5.1V0h-2.476V-5a1.337,1.337,0,0,0-.242-.883,1.118,1.118,0,0,0-.879-.282,1.177,1.177,0,0,0-1.077.571V0h-2.468V-7.925ZM-55.884,0h-2.476V-7.925h2.476Zm-2.622-9.968a1.1,1.1,0,0,1,.381-.864,1.437,1.437,0,0,1,.989-.337,1.437,1.437,0,0,1,.989.337,1.1,1.1,0,0,1,.381.864,1.1,1.1,0,0,1-.381.864,1.437,1.437,0,0,1-.989.337,1.437,1.437,0,0,1-.989-.337A1.1,1.1,0,0,1-58.506-9.968Zm8.291,7.742a.57.57,0,0,0-.33-.505,5.013,5.013,0,0,0-1.252-.4,5.711,5.711,0,0,1-1.523-.538,2.552,2.552,0,0,1-.916-.809,1.933,1.933,0,0,1-.315-1.091,2.19,2.19,0,0,1,.9-1.8,3.711,3.711,0,0,1,2.358-.707,4.112,4.112,0,0,1,2.52.71,2.222,2.222,0,0,1,.952,1.868H-50.3q0-.952-1-.952a1,1,0,0,0-.652.216.669.669,0,0,0-.264.538.614.614,0,0,0,.322.535,3.045,3.045,0,0,0,1.029.337,8.893,8.893,0,0,1,1.241.315,2.255,2.255,0,0,1,1.787,2.2A2.075,2.075,0,0,1-48.8-.535a4.224,4.224,0,0,1-2.494.681A4.31,4.31,0,0,1-53.108-.22a3.037,3.037,0,0,1-1.245-1A2.256,2.256,0,0,1-54.8-2.542h2.307a.954.954,0,0,0,.366.8,1.506,1.506,0,0,0,.9.253,1.185,1.185,0,0,0,.758-.205A.656.656,0,0,0-50.215-2.227ZM-43.806-9.9v1.97h1.3v1.714h-1.3v3.625a.926.926,0,0,0,.161.623.864.864,0,0,0,.637.176,3.621,3.621,0,0,0,.615-.044V-.066a4.555,4.555,0,0,1-1.392.212,2.586,2.586,0,0,1-1.882-.6,2.462,2.462,0,0,1-.608-1.824V-6.211h-1.011V-7.925h1.011V-9.9Zm7.068,4.2-.813-.059a1.46,1.46,0,0,0-1.494.732V0h-2.468V-7.925H-39.2l.081,1.018a1.911,1.911,0,0,1,1.736-1.165,2.407,2.407,0,0,1,.688.088ZM-31.6,0a2.787,2.787,0,0,1-.234-.71,2.3,2.3,0,0,1-1.9.857,2.812,2.812,0,0,1-1.9-.677,2.156,2.156,0,0,1-.784-1.7,2.216,2.216,0,0,1,.952-1.948,4.851,4.851,0,0,1,2.769-.659h.762v-.42q0-1.1-.945-1.1a.772.772,0,0,0-.879.868H-36.24a2.213,2.213,0,0,1,.978-1.865,4.109,4.109,0,0,1,2.494-.717,3.6,3.6,0,0,1,2.4.74,2.572,2.572,0,0,1,.9,2.029v3.508a3.593,3.593,0,0,0,.337,1.67V0Zm-1.545-1.611a1.377,1.377,0,0,0,.765-.2,1.239,1.239,0,0,0,.436-.447V-3.523h-.718q-1.289,0-1.289,1.157a.707.707,0,0,0,.227.546A.822.822,0,0,0-33.149-1.611Zm8.394-.146a1.1,1.1,0,0,0,.806-.282,1.034,1.034,0,0,0,.278-.787h2.314a2.74,2.74,0,0,1-.934,2.139A3.474,3.474,0,0,1-24.7.146,3.517,3.517,0,0,1-27.422-.937a4.271,4.271,0,0,1-1-3v-.1a4.827,4.827,0,0,1,.443-2.12A3.226,3.226,0,0,1-26.7-7.577a3.811,3.811,0,0,1,1.978-.494,3.43,3.43,0,0,1,2.454.857,3.039,3.039,0,0,1,.908,2.322h-2.314a1.355,1.355,0,0,0-.3-.945,1.037,1.037,0,0,0-.806-.33q-.959,0-1.121,1.223a8.631,8.631,0,0,0-.051,1.069,3.39,3.39,0,0,0,.286,1.655A.989.989,0,0,0-24.756-1.758ZM-17.71,0h-2.476V-7.925h2.476Zm-2.622-9.968a1.1,1.1,0,0,1,.381-.864,1.437,1.437,0,0,1,.989-.337,1.437,1.437,0,0,1,.989.337,1.1,1.1,0,0,1,.381.864,1.1,1.1,0,0,1-.381.864,1.437,1.437,0,0,1-.989.337,1.437,1.437,0,0,1-.989-.337A1.1,1.1,0,0,1-20.332-9.968ZM-16.5-4.036a4.677,4.677,0,0,1,.461-2.113,3.3,3.3,0,0,1,1.326-1.425,3.993,3.993,0,0,1,2.029-.5,3.644,3.644,0,0,1,2.805,1.1,4.23,4.23,0,0,1,1.025,3v.088A4.1,4.1,0,0,1-9.884-.941,3.654,3.654,0,0,1-12.671.146,3.7,3.7,0,0,1-15.388-.868a3.968,3.968,0,0,1-1.106-2.75Zm2.468.154a2.949,2.949,0,0,0,.344,1.611,1.147,1.147,0,0,0,1.018.513q1.318,0,1.348-2.029v-.249q0-2.131-1.362-2.131-1.238,0-1.34,1.838Zm1.685-7.368h2.607l-2.036,2.3-2.014,0ZM-5.5-7.925l.081.93A2.687,2.687,0,0,1-3.157-8.071a2.261,2.261,0,0,1,1.849.74A3.522,3.522,0,0,1-.674-5.1V0H-3.149V-5a1.337,1.337,0,0,0-.242-.883,1.118,1.118,0,0,0-.879-.282A1.177,1.177,0,0,0-5.347-5.6V0H-7.815V-7.925Z" transform="translate(1307 2950)" fill="#12263f"/>
    <g id="informe-financiero" transform="translate(1054 2968)">
      <g id="Grupo_106858" data-name="Grupo 106858" transform="translate(3.065 3.065)">
        <g id="Grupo_106840" data-name="Grupo 106840" transform="translate(43.355 111.484)">
          <path id="Trazado_138315" data-name="Trazado 138315" d="M68.419,62.194v6.194H23V62.194L41.581,56h8.258Z" transform="translate(-23 -56)" fill="#969faa"/>
        </g>
        <g id="Grupo_106841" data-name="Grupo 106841" transform="translate(20.645 8.258)">
          <path id="Trazado_138316" data-name="Trazado 138316" d="M12,6h90.839V84.452H12Z" transform="translate(-12 -6)" fill="#e6e9ed"/>
        </g>
        <g id="Grupo_106842" data-name="Grupo 106842" transform="translate(61.935 86.71)">
          <path id="Trazado_138317" data-name="Trazado 138317" d="M32,44h8.258V68.774H32Z" transform="translate(-32 -44)" fill="#aab2bd"/>
        </g>
        <g id="Grupo_106843" data-name="Grupo 106843" transform="translate(4.484 8.258)">
          <path id="Trazado_138318" data-name="Trazado 138318" d="M36.478,33.086a8.272,8.272,0,0,1-5.161,8.2c-1.528.6-3.2,1.259-4.79,1.879l-2.065-4.129-.124-.33a6.15,6.15,0,0,0,4.253-5.863V22.516a20.55,20.55,0,0,1-11.355-3.427l-1.032-.7a7.46,7.46,0,0,0-4.129,6.689v7.763A6.15,6.15,0,0,0,16.328,38.7l-.124.33L14.14,43.161c-1.59-.619-3.262-1.28-4.79-1.879a8.272,8.272,0,0,1-5.161-8.2l.785-12.655a15.39,15.39,0,0,1,30.72,0Z" transform="translate(-4.172 -6)" fill="#b27946"/>
        </g>
        <g id="Grupo_106844" data-name="Grupo 106844" transform="translate(20.645 115.613)">
          <path id="Trazado_138319" data-name="Trazado 138319" d="M14.126,60.126a7.188,7.188,0,0,1,8.526-1.259,7.227,7.227,0,0,1,3.8,6.359v1.032H12V65.226A7.143,7.143,0,0,1,14.126,60.126Z" transform="translate(-12 -58)" fill="#d3a06c"/>
        </g>
        <g id="Grupo_106845" data-name="Grupo 106845" transform="translate(6.194 115.613)">
          <path id="Trazado_138320" data-name="Trazado 138320" d="M19.452,65.226v1.032H5V65.226a7.143,7.143,0,0,1,2.126-5.1A7.725,7.725,0,0,1,8.8,58.867,7.1,7.1,0,0,1,12.226,58,7.234,7.234,0,0,1,19.452,65.226Z" transform="translate(-5 -58)" fill="#d3a06c"/>
        </g>
        <g id="Grupo_106846" data-name="Grupo 106846" transform="translate(20.645 99.097)">
          <path id="Trazado_138321" data-name="Trazado 138321" d="M14.126,68.643A7.143,7.143,0,0,0,12,73.742V50H24.387L22.653,67.383a7.188,7.188,0,0,0-8.526,1.259Z" transform="translate(-12 -50)" fill="#f0d0b4"/>
        </g>
        <g id="Grupo_106847" data-name="Grupo 106847" transform="translate(8.258 99.097)">
          <path id="Trazado_138322" data-name="Trazado 138322" d="M18.387,50V73.742a7.234,7.234,0,0,0-7.226-7.226,7.1,7.1,0,0,0-3.427.867L6,50Z" transform="translate(-6 -50)" fill="#f0d0b4"/>
        </g>
        <g id="Grupo_106848" data-name="Grupo 106848" transform="translate(6.194 74.323)">
          <path id="Trazado_138323" data-name="Trazado 138323" d="M33.9,51.646V62.774H5V51.646c0-.413.021-.846.041-1.259A24.638,24.638,0,0,1,9.129,38H29.774a24.638,24.638,0,0,1,4.088,12.387C33.883,50.8,33.9,51.234,33.9,51.646Z" transform="translate(-5 -38)" fill="#969faa"/>
        </g>
        <g id="Grupo_106849" data-name="Grupo 106849" transform="translate(0 45.832)">
          <path id="Trazado_138324" data-name="Trazado 138324" d="M34.248,37.206a17.074,17.074,0,0,1,.785,5.1,16.885,16.885,0,0,1-.516,4.191L32.968,52.69H12.323L11.29,48.561H2V40.448A16.715,16.715,0,0,1,6.108,29.423a16.535,16.535,0,0,1,8.3-5.2A8.259,8.259,0,0,0,30.9,24.2l3.262.661a16.745,16.745,0,0,1,8.609,4.6l1.61,1.61L39.925,41.748Z" transform="translate(-2 -24.2)" fill="#b4dd7f"/>
        </g>
        <g id="Grupo_106850" data-name="Grupo 106850" transform="translate(37.925 47.484)">
          <path id="Trazado_138325" data-name="Trazado 138325" d="M40.148,25a4.238,4.238,0,0,1,4.232,4.232,4.288,4.288,0,0,1-1.486,3.241l-10.55,9.043a8.707,8.707,0,0,1-5.595,2.065A8.581,8.581,0,0,1,21.382,41.7L20.37,40.9l4.459-10.674,3.035,3.035,9.166-7.329A4.206,4.206,0,0,1,39.673,25Z" transform="translate(-20.37 -25)" fill="#f0d0b4"/>
        </g>
        <g id="Grupo_106851" data-name="Grupo 106851" transform="translate(0 70.194)">
          <path id="Trazado_138326" data-name="Trazado 138326" d="M11.29,36l1.032,4.129A24.638,24.638,0,0,0,8.235,52.516H6.129A4.141,4.141,0,0,1,2,48.387V36Z" transform="translate(-2 -36)" fill="#f0d0b4"/>
        </g>
        <g id="Grupo_106852" data-name="Grupo 106852" transform="translate(12.408 40.96)">
          <path id="Trazado_138327" data-name="Trazado 138327" d="M20.376,22.17,22.441,26.3l2.065.413a8.258,8.258,0,0,1-16.5.021,16.3,16.3,0,0,1,2.044-.434l2.065-4.129.124-.33a5.477,5.477,0,0,0,1.941.33h4.129a5.477,5.477,0,0,0,1.941-.33Z" transform="translate(-8.01 -21.84)" fill="#f0d0b4"/>
        </g>
        <g id="Grupo_106853" data-name="Grupo 106853" transform="translate(12.387 20.645)">
          <path id="Trazado_138328" data-name="Trazado 138328" d="M24.516,16.129V26.452a6.15,6.15,0,0,1-4.253,5.863,5.477,5.477,0,0,1-1.941.33H14.194a5.477,5.477,0,0,1-1.941-.33A6.15,6.15,0,0,1,8,26.452V18.689A7.46,7.46,0,0,1,12.129,12l1.032.7a20.55,20.55,0,0,0,11.355,3.427Z" transform="translate(-8 -12)" fill="#f0d0b4"/>
        </g>
        <g id="Grupo_106854" data-name="Grupo 106854" transform="translate(82.581)">
          <path id="Trazado_138329" data-name="Trazado 138329" d="M62.645,2A20.639,20.639,0,0,1,70.9,41.556a20.4,20.4,0,0,1-8.258,1.734,20.645,20.645,0,1,1,0-41.29Z" transform="translate(-42 -2)" fill="#fcd770"/>
        </g>
        <g id="Grupo_106855" data-name="Grupo 106855" transform="translate(90.839 57.806)">
          <path id="Trazado_138330" data-name="Trazado 138330" d="M46,30h8.258V50.645H46Z" transform="translate(-46 -30)" fill="#ffeaa7"/>
        </g>
        <g id="Grupo_106856" data-name="Grupo 106856" transform="translate(74.323 45.419)">
          <path id="Trazado_138331" data-name="Trazado 138331" d="M38,24h8.258V57.032H38Z" transform="translate(-38 -24)" fill="#ffeaa7"/>
        </g>
        <g id="Grupo_106857" data-name="Grupo 106857" transform="translate(57.806 66.065)">
          <path id="Trazado_138332" data-name="Trazado 138332" d="M30,34h8.258V46.387H30Z" transform="translate(-30 -34)" fill="#ffeaa7"/>
        </g>
      </g>
      <g id="Grupo_106859" data-name="Grupo 106859" transform="translate(1 1)">
        <path id="Trazado_138333" data-name="Trazado 138333" d="M129,23.71A22.7,22.7,0,0,0,88.785,9.258H23.71A17.478,17.478,0,0,0,6.3,25.617L5.5,38.291a10.272,10.272,0,0,0,5.944,9.97A19,19,0,0,0,1,65.147v20.5a6.2,6.2,0,0,0,6.194,6.194v12.387H9.454l1.431,14.311A9.253,9.253,0,0,0,7.194,125.9V129H40.226v-3.1a9.253,9.253,0,0,0-3.691-7.366l1.431-14.311h2.261V91.839h22.71V113.06l-18.581,6.194V129H93.9v-9.747L75.323,113.06V91.839h41.29V43.913A22.72,22.72,0,0,0,129,23.71ZM9.626,38.549l.793-12.674a13.317,13.317,0,0,1,26.583,0l.793,12.674a6.173,6.173,0,0,1-3.871,6.132c-.968.388-1.992.793-3.016,1.2l-.458-.919a8.247,8.247,0,0,0,3.584-6.8V25.774H31.968a18.34,18.34,0,0,1-10.2-3.089l-2.038-1.358-1.071.535a9.485,9.485,0,0,0-5.271,8.529v7.771a8.247,8.247,0,0,0,3.584,6.8l-.458.919c-1.024-.4-2.048-.807-3.018-1.2a6.174,6.174,0,0,1-3.869-6.132ZM29.9,38.161a4.133,4.133,0,0,1-4.129,4.129H21.645a4.133,4.133,0,0,1-4.129-4.129V30.39a5.362,5.362,0,0,1,2.029-4.222A22.436,22.436,0,0,0,29.9,29.81ZM18.879,50.375l2.015-4.032c.252.023.5.076.751.076h4.129c.256,0,.5-.054.749-.076l1.984,3.968,1.026.2a6.156,6.156,0,0,1-11.648,0Zm-4.953,1.274a10.278,10.278,0,0,0,19.681-.318l1.218.244a14.724,14.724,0,0,1,7.546,4.038l.64.64-2.861,6.869-3.074-2.459a18.969,18.969,0,0,0-.952-2.29l-.244-.487-3.693,1.848.244.487a15.163,15.163,0,0,1,1.148,10.467L32.42,75.323H15l-1.158-4.635a15.169,15.169,0,0,1,1.148-10.469l.244-.487-3.693-1.848-.244.487a19.4,19.4,0,0,0-2.038,8.636,19.2,19.2,0,0,0,.485,4.187H5.129V65.147a14.857,14.857,0,0,1,8.8-13.5Zm32.242,7.761,2.164,2.164,10.6-8.483a2.183,2.183,0,0,1,1.361-.477h.465a2.177,2.177,0,0,1,1.414,3.832L51.618,65.493a6.7,6.7,0,0,1-8.105.287ZM36.1,100.1H11.323V91.023a22.427,22.427,0,0,1,3.217-11.572H32.88A22.427,22.427,0,0,1,36.1,91.023ZM5.129,85.645V75.323h5.613l.425,1.7A26.557,26.557,0,0,0,7.408,87.71H7.194a2.067,2.067,0,0,1-2.065-2.065Zm6.3,39.226a5.163,5.163,0,0,1,10.116,0Zm5.058-8.258a9.184,9.184,0,0,0-1.625.165L13.6,104.226h8.041v13.96A9.237,9.237,0,0,0,16.484,116.613Zm9.394,8.258a5.163,5.163,0,0,1,10.116,0Zm6.683-8.093a8.959,8.959,0,0,0-6.786,1.408v-13.96h8.041Zm57.214,8.093H48.484V122.23l16.851-5.618h7.589l16.851,5.618ZM71.194,112.484H67.065V91.839h4.129Zm41.29-24.774H40.011a26.557,26.557,0,0,0-3.759-10.688l1.334-5.335a19.343,19.343,0,0,0,.576-4.68c0-.066-.01-.132-.012-.2l2.56,2.048a10.659,10.659,0,0,0,13.6-.229l10.556-9.047a6.308,6.308,0,0,0-4.1-11.1h-.465a6.333,6.333,0,0,0-3.939,1.381L48.637,56.04l-3.349-3.349A18.779,18.779,0,0,0,36.8,47.848a10.287,10.287,0,0,0,5.114-9.559l-.793-12.674a17.4,17.4,0,0,0-6.185-12.228H86.089A22.658,22.658,0,0,0,112.484,45.54ZM106.29,42.29A18.581,18.581,0,1,1,124.871,23.71,18.6,18.6,0,0,1,106.29,42.29Z" transform="translate(-1 -1)"/>
        <path id="Trazado_138334" data-name="Trazado 138334" d="M54.194,13.258h4.129a2.068,2.068,0,0,1,2.065,2.065h4.129a6.2,6.2,0,0,0-6.194-6.194V5H54.194V9.129a6.194,6.194,0,1,0,0,12.387h4.129a2.065,2.065,0,1,1,0,4.129H54.194a2.068,2.068,0,0,1-2.065-2.065H48a6.2,6.2,0,0,0,6.194,6.194V33.9h4.129V29.774a6.194,6.194,0,0,0,0-12.387H54.194a2.065,2.065,0,1,1,0-4.129Z" transform="translate(49.032 3.258)"/>
        <path id="Trazado_138335" data-name="Trazado 138335" d="M76.548,35.387H64.161V56.032H60.032V23H47.645V56.032H43.516V43.645H31.129V56.032H27v4.129H80.677V56.032H76.548ZM68.29,39.516h4.129V56.032H68.29ZM51.774,27.129H55.9v28.9H51.774ZM35.258,47.774h4.129v8.258H35.258Z" transform="translate(26.677 22.419)"/>
        <path id="Trazado_138336" data-name="Trazado 138336" d="M23,9h4.129v4.129H23Z" transform="translate(22.419 7.516)"/>
        <path id="Trazado_138337" data-name="Trazado 138337" d="M27,9H51.774v4.129H27Z" transform="translate(26.677 7.516)"/>
        <path id="Trazado_138338" data-name="Trazado 138338" d="M23,13H56.032v4.129H23Z" transform="translate(22.419 11.774)"/>
        <path id="Trazado_138339" data-name="Trazado 138339" d="M23,17h8.258v4.129H23Z" transform="translate(22.419 16.032)"/>
        <path id="Trazado_138340" data-name="Trazado 138340" d="M29,17H49.645v4.129H29Z" transform="translate(28.806 16.032)"/>
        <path id="Trazado_138341" data-name="Trazado 138341" d="M23,21H39.516v4.129H23Z" transform="translate(22.419 20.29)"/>
      </g>
    </g>
  </g>
</svg>
