<svg xmlns="http://www.w3.org/2000/svg" xmlns:xlink="http://www.w3.org/1999/xlink" width="85" height="85" viewBox="0 0 85 85">
  <defs>
    <clipPath id="clip-path">
      <rect id="Rectángulo_37024" data-name="Rectángulo 37024" width="85" height="85" transform="translate(390 6422)" fill="#dbf049"/>
    </clipPath>
  </defs>
  <g id="Grupo_117118" data-name="Grupo 117118" transform="translate(-389.5 -6129.216)">
    <circle id="Elipse_5328" data-name="Elipse 5328" cx="42.5" cy="42.5" r="42.5" transform="translate(389.5 6129.216)" fill="#fcd03e"/>
    <g id="Enmascarar_grupo_159" data-name="Enmascarar grupo 159" transform="translate(-0.5 -292.784)" clip-path="url(#clip-path)">
      <g id="reduccion" transform="translate(389.989 6421.996)">
        <g id="Grupo_113126" data-name="Grupo 113126">
          <g id="Grupo_113123" data-name="Grupo 113123">
            <path id="Trazado_140075" data-name="Trazado 140075" d="M35.622,35.877h6.629a1.453,1.453,0,0,1,1.45,1.45V72.289a1.453,1.453,0,0,1-1.45,1.45H35.622a1.453,1.453,0,0,1-1.45-1.45V37.327A1.453,1.453,0,0,1,35.622,35.877Z" fill="#6cf5c2" fill-rule="evenodd"/>
            <path id="Trazado_140076" data-name="Trazado 140076" d="M35.622,35.877h2.9a1.453,1.453,0,0,0-1.45,1.45V72.289a1.453,1.453,0,0,0,1.45,1.45h-2.9a1.453,1.453,0,0,1-1.45-1.45V37.327A1.453,1.453,0,0,1,35.622,35.877Z" fill="#00e499" fill-rule="evenodd"/>
            <path id="Trazado_140077" data-name="Trazado 140077" d="M53.316,45.879h6.629a1.453,1.453,0,0,1,1.45,1.45v24.96a1.453,1.453,0,0,1-1.45,1.45H53.316a1.453,1.453,0,0,1-1.45-1.45V47.329A1.453,1.453,0,0,1,53.316,45.879Z" fill="#ffe177" fill-rule="evenodd"/>
            <path id="Trazado_140078" data-name="Trazado 140078" d="M53.316,45.879h2.9a1.453,1.453,0,0,0-1.45,1.45v24.96a1.453,1.453,0,0,0,1.45,1.45h-2.9a1.453,1.453,0,0,1-1.45-1.45V47.329A1.453,1.453,0,0,1,53.316,45.879Z" fill="#ffd064" fill-rule="evenodd"/>
            <path id="Trazado_140079" data-name="Trazado 140079" d="M77.64,55.457H71.011a1.453,1.453,0,0,0-1.45,1.45V72.289a1.453,1.453,0,0,0,1.45,1.45H77.64a1.453,1.453,0,0,0,1.45-1.45V56.907A1.453,1.453,0,0,0,77.64,55.457Z" fill="#fe646f" fill-rule="evenodd"/>
            <path id="Trazado_140080" data-name="Trazado 140080" d="M73.911,55.457h-2.9a1.453,1.453,0,0,0-1.45,1.45V72.289a1.453,1.453,0,0,0,1.45,1.45h2.9a1.453,1.453,0,0,1-1.45-1.45V56.907A1.453,1.453,0,0,1,73.911,55.457Z" fill="#fd4755" fill-rule="evenodd"/>
            <path id="Trazado_140081" data-name="Trazado 140081" d="M82.24,72.7H13.328a1.45,1.45,0,0,0-1.448,1.448v.7A1.45,1.45,0,0,0,13.328,76.3H82.24a1.45,1.45,0,0,0,1.448-1.448v-.7A1.45,1.45,0,0,0,82.24,72.7Z" fill="#a79ba7" fill-rule="evenodd"/>
            <path id="Trazado_140082" data-name="Trazado 140082" d="M11.881,74.5v.348A1.45,1.45,0,0,0,13.328,76.3H82.24a1.45,1.45,0,0,0,1.448-1.448V74.5Z" fill="#837683" fill-rule="evenodd"/>
          </g>
          <g id="Grupo_113124" data-name="Grupo 113124">
            <path id="Trazado_140083" data-name="Trazado 140083" d="M68.384,36.762a43.265,43.265,0,0,1-20.692-6.271c-9.987-5.964-16.674-14.936-18.925-24A41.624,41.624,0,0,0,44.274,22.031,57.413,57.413,0,0,0,68.886,29.3l.282-4.189a.438.438,0,0,1,.73-.3l9.364,8.453a.438.438,0,0,1-.043.685L68.8,41.193a.438.438,0,0,1-.687-.389Z" fill="#ffe177" fill-rule="evenodd"/>
            <path id="Trazado_140084" data-name="Trazado 140084" d="M68.384,36.762a43.265,43.265,0,0,1-20.692-6.271c-9.987-5.964-16.674-14.936-18.925-24l.152.266,0,.006,0,.006h0l0,.005,0,.006.061.1C31.808,15,39.256,23.481,47.111,28.171a41.656,41.656,0,0,0,21.273,6.307Zm9.583-4.667-9.724,6.762L68.112,40.8a.438.438,0,0,0,.687.389l10.419-7.245a.438.438,0,0,0,.043-.685Z" fill="#ffd064" fill-rule="evenodd"/>
          </g>
          <g id="Grupo_113125" data-name="Grupo 113125">
            <path id="Trazado_140085" data-name="Trazado 140085" d="M25.036,33l1.929,5.761c5.028,5.392,8.691,9.96,10.989,14,7.346,12.9-3.1,26-17.1,25.764-14,.236-24.446-12.865-17.1-25.764,2.3-4.035,5.962-8.6,10.989-14L16.678,33l-4.711-4.711a2.957,2.957,0,0,1,3.69-4.578,1.52,1.52,0,0,0,2.307-.955,2.957,2.957,0,0,1,5.779,0,1.52,1.52,0,0,0,2.307.955,2.969,2.969,0,0,1,3.69.4h0a2.966,2.966,0,0,1,0,4.182Z" fill="#ffc338" fill-rule="evenodd"/>
            <path id="Trazado_140086" data-name="Trazado 140086" d="M25.036,33l1.929,5.761c5.028,5.392,8.691,9.96,10.989,14,7.346,12.9-3.1,26-17.1,25.764-.274,0-.546,0-.817,0,13.58-.276,23.485-13.114,16.283-25.761-2.3-4.035-5.962-8.6-10.989-14L23.4,33l4.7-4.7a2.966,2.966,0,0,0,0-4.182h0a2.931,2.931,0,0,0-1.274-.748,2.965,2.965,0,0,1,2.909.748h0a2.966,2.966,0,0,1,0,4.182ZM13.244,23.363a2.969,2.969,0,0,1,2.414.352l.006,0a1.61,1.61,0,0,1-.237.122,1.48,1.48,0,0,1-1.4-.125,2.941,2.941,0,0,0-.779-.352Zm6.792-2.817a2.973,2.973,0,0,1,2.073,2.214,1.52,1.52,0,0,0,2.3.959,1.473,1.473,0,0,1-.666-.959,2.969,2.969,0,0,0-2.89-2.329,2.934,2.934,0,0,0-.818.116Z" fill="#f5b829" fill-rule="evenodd"/>
            <path id="Trazado_140087" data-name="Trazado 140087" d="M14.435,38.759H27.273a2.877,2.877,0,1,0,0-5.755H14.435a2.877,2.877,0,1,0,0,5.755Z" fill="#837683" fill-rule="evenodd"/>
            <path id="Trazado_140088" data-name="Trazado 140088" d="M25.638,38.759h1.635a2.877,2.877,0,1,0,0-5.755H25.638a2.877,2.877,0,1,1,0,5.755Z" fill="#685e68" fill-rule="evenodd"/>
          </g>
        </g>
        <path id="Trazado_140089" data-name="Trazado 140089" d="M27.081,62.163a4.3,4.3,0,0,1-1.007,3.421,6.494,6.494,0,0,1-3.95,1.976v.97a1.328,1.328,0,0,1-2.656,0v-.99a5.972,5.972,0,0,1-4.956-4.354,1.329,1.329,0,0,1,2.579-.642A3.59,3.59,0,0,0,20.786,65h.181a4.4,4.4,0,0,0,3.1-1.154,1.644,1.644,0,0,0,.378-1.364c-.109-.91-.647-2.024-3.848-2.549-4.471-.736-5.514-3.045-5.6-4.853a5.151,5.151,0,0,1,4.328-5.213l.146-.031v-1.01a1.328,1.328,0,1,1,2.656,0v1a5.936,5.936,0,0,1,4.48,3.61,1.328,1.328,0,0,1-2.449,1.028,3.429,3.429,0,0,0-3.281-2.11,5.311,5.311,0,0,0-.964.106,2.548,2.548,0,0,0-2.263,2.492c.024.5.089,1.82,3.378,2.361,1.38.225,5.578.915,6.056,4.852ZM82.354,75.006H35.118c.359-.3.706-.612,1.043-.936H82.355v.936ZM20.827,77.228c.015,0,.277,0,.393,0,6.657,0,12.683-3.22,15.787-8.46,2.8-4.724,2.726-10.166-.212-15.323-2.1-3.686-5.416-7.93-10.413-13.322H15.318C10.321,45.519,7,49.763,4.9,53.449c-2.937,5.156-3.012,10.6-.213,15.323,3.16,5.331,9.344,8.565,16.135,8.456Zm-6.4-42.857H27.269a1.55,1.55,0,0,1,0,3.1H14.431a1.55,1.55,0,0,1,0-3.1Zm-2-8.129a1.617,1.617,0,0,1,.473-1.152,1.639,1.639,0,0,1,2.033-.217,2.85,2.85,0,0,0,4.322-1.791,1.629,1.629,0,0,1,3.184,0,2.85,2.85,0,0,0,4.322,1.791,1.628,1.628,0,0,1,2.033,2.52l-4.323,4.322H17.224L12.9,27.392a1.614,1.614,0,0,1-.473-1.151Zm23.09,11.027h6.857V71.413H38.453c.3-.417.577-.843.84-1.286,3.259-5.5,3.19-12.057-.19-17.992a50.315,50.315,0,0,0-3.584-5.366v-9.5Zm17.663,9.985H60.04V71.413H53.183Zm17.666,9.563h6.857v14.6H70.849Zm12.834,14.6h-3.32V55.488a1.328,1.328,0,0,0-1.328-1.328H69.52a1.328,1.328,0,0,0-1.328,1.328V71.413H62.7V45.925A1.328,1.328,0,0,0,61.368,44.6H51.855a1.329,1.329,0,0,0-1.328,1.328V71.413H45.033V35.939A1.328,1.328,0,0,0,43.7,34.611H34.191a1.328,1.328,0,0,0-1.328,1.328v7.5q-1.559-1.86-3.429-3.917a4.2,4.2,0,0,0-1.293-7.717l2.535-2.535a4.286,4.286,0,0,0-5.348-6.636.157.157,0,0,1-.176.016.159.159,0,0,1-.114-.136,4.285,4.285,0,0,0-8.374,0,.192.192,0,0,1-.292.12,4.309,4.309,0,0,0-5.346.576,4.294,4.294,0,0,0,0,6.06l2.535,2.535a4.2,4.2,0,0,0-1.295,7.717A74.047,74.047,0,0,0,2.6,52.135C-.783,58.07-.851,64.626,2.408,70.127c3.583,6.045,10.48,9.761,18.072,9.761h.74A22.314,22.314,0,0,0,31,77.663H83.683a1.328,1.328,0,0,0,1.328-1.328V72.742a1.329,1.329,0,0,0-1.328-1.328ZM43.46,23.007a46.508,46.508,0,0,1-9.029-6.938A42.069,42.069,0,0,0,48.213,29.118,41.516,41.516,0,0,0,68.1,35.149a1.328,1.328,0,0,1,1.285,1.418l-.139,2.073L77.253,32.8l-7.211-6.073-.163,2.432A1.335,1.335,0,0,1,68.517,30.4,58.288,58.288,0,0,1,43.46,23.007Zm3.392,8.39c-9.9-5.909-16.962-14.887-19.379-24.628a1.328,1.328,0,0,1,2.444-.974A40.267,40.267,0,0,0,44.823,20.726a56,56,0,0,0,22.492,6.957l.252-3.749a1.328,1.328,0,0,1,2.18-.927l10.511,8.854a1.329,1.329,0,0,1-.074,2.091L68.507,42.461A1.328,1.328,0,0,1,66.4,41.3l.24-3.559A44.489,44.489,0,0,1,46.852,31.4Z" fill-rule="evenodd"/>
      </g>
    </g>
  </g>
</svg>
