<svg xmlns="http://www.w3.org/2000/svg" xmlns:xlink="http://www.w3.org/1999/xlink" width="105" height="105" viewBox="0 0 105 105">
  <defs>
    <clipPath id="clip-path">
      <rect id="Rectángulo_37032" data-name="Rectángulo 37032" width="85" height="85" transform="translate(915 648)" fill="#fff"/>
    </clipPath>
  </defs>
  <g id="Grupo_117121" data-name="Grupo 117121" transform="translate(-905 -642)">
    <circle id="Elipse_5187" data-name="Elipse 5187" cx="52.5" cy="52.5" r="52.5" transform="translate(905 642)" fill="#fff7df"/>
    <g id="Enmascarar_grupo_154" data-name="Enmascarar grupo 154" clip-path="url(#clip-path)">
      <g id="estrategia-digital" transform="translate(913.629 646.629)">
        <g id="Grupo_105723" data-name="Grupo 105723">
          <g id="Grupo_105714" data-name="Grupo 105714">
            <path id="Trazado_136879" data-name="Trazado 136879" d="M85,20.565V28.79L81.518,29.9a19.919,19.919,0,0,1-1.7,4.14l1.673,3.235L75.664,43.09l-3.235-1.659a19.919,19.919,0,0,1-4.14,1.7l-1.11,3.482H58.952l-1.11-3.482c-.1-.027-.192-.069-.288-.1.219-.466.439-.946.631-1.426a25.279,25.279,0,0,0,1.234-3.729,13.86,13.86,0,0,0,3.647.507,13.71,13.71,0,0,0,0-27.419A13.572,13.572,0,0,0,54.619,13.9a27.386,27.386,0,0,0-5.964-5.84l1.81-1.81L53.7,7.924a19.919,19.919,0,0,1,4.14-1.7l1.11-3.482h8.226l1.11,3.482a19.919,19.919,0,0,1,4.14,1.7l3.235-1.673,5.827,5.827-1.673,3.235a19.919,19.919,0,0,1,1.7,4.14Z" fill="#ffc729"/>
          </g>
          <g id="Grupo_105715" data-name="Grupo 105715">
            <path id="Trazado_136880" data-name="Trazado 136880" d="M63.065,10.968a13.71,13.71,0,0,1,0,27.419,13.86,13.86,0,0,1-3.647-.507,27.066,27.066,0,0,0,.85-5.47,8.224,8.224,0,1,0,2.8-15.958,8.16,8.16,0,0,0-5.539,2.166A28.121,28.121,0,0,0,54.619,13.9a13.572,13.572,0,0,1,8.445-2.934Z" fill="#fcd770"/>
          </g>
          <g id="Grupo_105716" data-name="Grupo 105716">
            <path id="Trazado_136881" data-name="Trazado 136881" d="M17.823,74.032H45.242A10.965,10.965,0,0,1,34.274,85H28.79A10.965,10.965,0,0,1,17.823,74.032Z" fill="#aab2bd"/>
          </g>
          <g id="Grupo_105717" data-name="Grupo 105717">
            <path id="Trazado_136882" data-name="Trazado 136882" d="M45.242,65.806h1.371a2.75,2.75,0,0,1,2.742,2.742V71.29a2.75,2.75,0,0,1-2.742,2.742H16.452A2.75,2.75,0,0,1,13.71,71.29V68.548a2.75,2.75,0,0,1,2.742-2.742h28.79Z" fill="#ccd1d9"/>
          </g>
          <g id="Grupo_105718" data-name="Grupo 105718">
            <path id="Trazado_136883" data-name="Trazado 136883" d="M57.526,18.618A28.121,28.121,0,0,0,54.619,13.9a27.386,27.386,0,0,0-5.964-5.84A27.938,27.938,0,0,0,32.2,2.742H30.86a28.113,28.113,0,0,0-19.879,48l1.028,1.028a19.873,19.873,0,0,1,5.813,14.039H45.242a19.873,19.873,0,0,1,5.813-14.039l1.028-1.028a28.487,28.487,0,0,0,5.47-7.7c.219-.466.439-.946.631-1.426a25.279,25.279,0,0,0,1.234-3.729,27.066,27.066,0,0,0,.85-5.47c.041-.507.055-1.028.055-1.549a28.114,28.114,0,0,0-2.8-12.243Z" fill="#ffeaa7"/>
          </g>
          <g id="Grupo_105719" data-name="Grupo 105719">
            <path id="Trazado_136884" data-name="Trazado 136884" d="M41.129,38.387H21.935L19.194,65.806H43.871Z" fill="#d3a06c"/>
          </g>
          <g id="Grupo_105720" data-name="Grupo 105720">
            <path id="Trazado_136885" data-name="Trazado 136885" d="M42.5,32.9a2.75,2.75,0,0,1,2.742,2.742A2.762,2.762,0,0,1,42.5,38.387H20.565a2.75,2.75,0,0,1-2.742-2.742A2.762,2.762,0,0,1,20.565,32.9H42.5Z" fill="#b27946"/>
          </g>
          <g id="Grupo_105721" data-name="Grupo 105721">
            <path id="Trazado_136886" data-name="Trazado 136886" d="M45.242,24.677,41.129,32.9H21.935l-4.113-8.226Z" fill="#d3a06c"/>
          </g>
          <g id="Grupo_105722" data-name="Grupo 105722">
            <path id="Trazado_136887" data-name="Trazado 136887" d="M45.242,16.452v8.226H17.823V16.452h5.484v2.742H28.79V16.452h5.484v2.742h5.484V16.452Z" fill="#d3a06c"/>
          </g>
        </g>
        <g id="Grupo_105724" data-name="Grupo 105724">
          <path id="Trazado_136888" data-name="Trazado 136888" d="M30.161,53.468H32.9V56.21H30.161Z"/>
          <path id="Trazado_136889" data-name="Trazado 136889" d="M30.161,58.952H32.9v2.742H30.161Z"/>
          <path id="Trazado_136890" data-name="Trazado 136890" d="M30.161,47.984H32.9v2.742H30.161Z"/>
          <path id="Trazado_136891" data-name="Trazado 136891" d="M30.161,42.5H32.9v2.742H30.161Z"/>
          <path id="Trazado_136892" data-name="Trazado 136892" d="M86.371,29.79V19.564l-3.748-1.2a20.476,20.476,0,0,0-1.26-3.056l1.8-3.495-7.23-7.23-3.495,1.8a20.475,20.475,0,0,0-3.056-1.26l-1.2-3.75H57.951l-1.2,3.748a20.475,20.475,0,0,0-3.056,1.26L50.2,4.58,48.487,6.293A29.316,29.316,0,0,0,32.21,1.371H30.855A29.485,29.485,0,0,0,10.005,51.7l1.031,1.031a18.334,18.334,0,0,1,5.348,11.708,4.113,4.113,0,0,0-4.046,4.106V71.29A4.118,4.118,0,0,0,16.452,75.4h.081A12.354,12.354,0,0,0,28.79,86.371h5.484A12.353,12.353,0,0,0,46.532,75.4h.081a4.118,4.118,0,0,0,4.113-4.113V68.548a4.114,4.114,0,0,0-4.047-4.106,18.326,18.326,0,0,1,5.35-11.708l1.03-1.031a29.578,29.578,0,0,0,4.314-5.526l.58,1.807H68.178l1.2-3.748a20.476,20.476,0,0,0,3.056-1.26l3.495,1.8,7.23-7.23-1.8-3.493a20.5,20.5,0,0,0,1.26-3.056Zm-56.21-9.225V17.823H32.9v2.742h8.226V17.823h2.742v5.484H19.194V17.823h2.742v2.742Zm12.862,5.484-2.742,5.484h-17.5l-2.742-5.484ZM21.088,34.274H42.5a1.371,1.371,0,1,1,0,2.742H20.565a1.371,1.371,0,1,1,0-2.742Zm2.088,5.484H39.888l2.468,24.677H20.708Zm11.1,43.871H28.79A9.6,9.6,0,0,1,19.3,75.4H43.761A9.6,9.6,0,0,1,34.274,83.629Zm13.71-15.081V71.29a1.372,1.372,0,0,1-1.371,1.371H16.452a1.372,1.372,0,0,1-1.371-1.371V68.548a1.372,1.372,0,0,1,1.371-1.371H46.613A1.372,1.372,0,0,1,47.984,68.548Zm3.135-18.784L50.09,50.8a21.083,21.083,0,0,0-5.415,9.257L42.643,39.744a4.106,4.106,0,0,0,.664-8.131L46.613,25v-9.92H38.387v2.742H35.645V15.081H27.419v2.742H24.677V15.081H16.452V25l3.307,6.614a4.105,4.105,0,0,0,.664,8.13l-2.03,20.308A21.1,21.1,0,0,0,12.976,50.8l-1.031-1.031A26.742,26.742,0,0,1,30.855,4.113H32.21a26.742,26.742,0,0,1,18.91,45.652Zm8.087-30.719a6.843,6.843,0,1,1,3.858,12.487,6.7,6.7,0,0,1-1.4-.165c0-.171.025-.34.025-.513a29.276,29.276,0,0,0-2.487-11.81ZM61.5,34.134a9.4,9.4,0,0,0,1.566.14,9.6,9.6,0,1,0-5.093-17.721q-.666-1.2-1.437-2.327a12.17,12.17,0,0,1,6.53-1.888,12.339,12.339,0,1,1,0,24.677,12.055,12.055,0,0,1-1.981-.186c.181-.887.315-1.788.415-2.7Zm18.9-5.31-.2.709a17.649,17.649,0,0,1-1.581,3.832l-.361.643,1.549,3.009-4.4,4.4L72.4,39.872l-.642.359a17.7,17.7,0,0,1-3.833,1.581l-.709.2-1.034,3.23H59.952l-.79-2.461a29.037,29.037,0,0,0,1.252-3.3,14.821,14.821,0,0,0,2.65.273,15.081,15.081,0,1,0,0-30.161,14.884,14.884,0,0,0-8.187,2.431,29.737,29.737,0,0,0-4.155-4.09l0,0,3.009,1.548.642-.359a17.7,17.7,0,0,1,3.833-1.581l.709-.2,1.034-3.23h6.226l1.035,3.23.709.2a17.774,17.774,0,0,1,3.833,1.581l.642.359L75.4,7.935l4.4,4.4-1.548,3.009.359.642A17.7,17.7,0,0,1,80.2,19.821l.2.709,3.23,1.034V27.79Z"/>
          <path id="Trazado_136893" data-name="Trazado 136893" d="M9.685,28.914l-2.731-.247c-.066.723-.1,1.459-.1,2.188a23.968,23.968,0,0,0,5.817,15.669l2.076-1.793A21.22,21.22,0,0,1,9.6,30.855c0-.647.029-1.3.088-1.941Z"/>
          <path id="Trazado_136894" data-name="Trazado 136894" d="M10.813,23.764l-2.584-.917A23.7,23.7,0,0,0,7.4,25.756l2.679.583a21.024,21.024,0,0,1,.733-2.575Z"/>
        </g>
      </g>
    </g>
  </g>
</svg>
