<svg xmlns="http://www.w3.org/2000/svg" width="295" height="210.44" viewBox="0 0 295 210.44">
  <g id="Grupo_117124" data-name="Grupo 117124" transform="translate(-915 -1969)">
    <rect id="Imagen_6" data-name="Imagen 6" width="295" height="166" rx="19" transform="translate(915 1998.369)" fill="#e1f3d7"/>
    <g id="Privacy_policy-pana" data-name="Privacy policy-pana" transform="translate(934.291 1944.598)">
      <g id="freepik--background-complete--inject-3" transform="translate(23.445 24.402)">
        <path id="Trazado_140518" data-name="Trazado 140518" d="M350.73,24.538,337.387,31.23a2.705,2.705,0,0,0-1.647,2.491v6.241A28.963,28.963,0,0,0,340.5,55.928c2.4,3.649,5.593,8.344,10.9,11.021h2.39c5.908-1.825,10.314-6.6,13.006-10.707a28.972,28.972,0,0,0,4.758-15.966V33.721a2.71,2.71,0,0,0-1.642-2.491l-15.2-6.478A9.328,9.328,0,0,0,350.73,24.538Z" transform="translate(-193.333 -24.402)" fill="#e0e0e0"/>
        <path id="Trazado_140519" data-name="Trazado 140519" d="M347.337,24.915l-15.2,6.478a2.705,2.705,0,0,0-1.647,2.491v6.241a29.222,29.222,0,0,0,18.049,27c5.9-1.824,10.311-6.6,13.007-10.706a29.009,29.009,0,0,0,4.758-15.98V33.884a2.705,2.705,0,0,0-1.647-2.491l-15.2-6.478A2.737,2.737,0,0,0,347.337,24.915Z" transform="translate(-190.478 -24.565)" fill="#f5f5f5"/>
        <path id="Trazado_140520" data-name="Trazado 140520" d="M395.621,55.49a1.2,1.2,0,0,1,.027.287c0,.214.023.488.036.826a11.293,11.293,0,0,1,0,1.309c-.036.511,0,1.095-.082,1.733s-.1,1.369-.237,2.094c-.059.374-.1.762-.182,1.159s-.173.8-.26,1.213a29.688,29.688,0,0,1-1.756,5.251,31.348,31.348,0,0,1-2.737,4.817,23.458,23.458,0,0,1-1.478,1.911c-.246.287-.456.579-.707.835l-.693.734c-.433.456-.876.858-1.245,1.213s-.707.634-.985.858l-.6.52a1.266,1.266,0,0,1-.233.169,1.326,1.326,0,0,1,.205-.205l.616-.552a11.04,11.04,0,0,0,.953-.912c.356-.388.794-.744,1.213-1.227l.68-.744c.233-.255.456-.547.693-.835.493-.57.949-1.232,1.446-1.916a31.934,31.934,0,0,0,2.691-4.785,30.831,30.831,0,0,0,1.756-5.205l.269-1.2c.082-.392.132-.78.2-1.15.137-.739.192-1.437.26-2.076s.078-1.213.114-1.724.032-.944.032-1.3v-.826a1.291,1.291,0,0,1,0-.265Z" transform="translate(-219.845 -41.308)" fill="#e0e0e0"/>
        <path id="Trazado_140521" data-name="Trazado 140521" d="M356.868,67.491l-8.718-6.929,2.418-3.043,5.848,4.649,8.54-9.557,2.9,2.591Z" transform="translate(-200.082 -39.742)" fill="#fff"/>
        <path id="Trazado_140522" data-name="Trazado 140522" d="M444.467,82.326h-1.651V73.344a3.832,3.832,0,1,0-7.664,0v8.982H433.5V73.344a5.474,5.474,0,1,1,10.948,0Z" transform="translate(-246.497 -48.041)" fill="#ebebeb"/>
        <rect id="Rectángulo_37891" data-name="Rectángulo 37891" width="14.776" height="11.582" rx="3.08" transform="translate(185.096 28.191)" fill="#ebebeb"/>
        <path id="Trazado_140523" data-name="Trazado 140523" d="M444.661,96.246a1.587,1.587,0,0,0,.456-1.131,1.629,1.629,0,1,0-2.071,1.556l-.347,1.542h1.546l-.31-1.542a1.615,1.615,0,0,0,.712-.424" transform="translate(-251.043 -61.965)" fill="#fafafa"/>
        <path id="Trazado_140524" data-name="Trazado 140524" d="M35.809,384.488a13.686,13.686,0,0,0-5.853-2.012,3.887,3.887,0,0,0-2.769.506.57.57,0,0,0-.287.506.634.634,0,0,0,.274.347,8.362,8.362,0,0,0,8.636.652" transform="translate(-25.381 -219.104)" fill="#e0e0e0"/>
        <path id="Trazado_140525" data-name="Trazado 140525" d="M38.671,375.638a28.855,28.855,0,0,1-3.782-3.326,9.539,9.539,0,0,1-2.368-4.384,1.766,1.766,0,0,1,.187-1.469c3.011,2.354,5.378,5.4,5.962,9.178" transform="translate(-28.394 -210.419)" fill="#e0e0e0"/>
        <path id="Trazado_140526" data-name="Trazado 140526" d="M46.132,376.073a13.745,13.745,0,0,1,.073-4.968A6.724,6.724,0,0,1,48.846,367a5.877,5.877,0,0,1-.068,3.891,18.786,18.786,0,0,1-2.623,5.52" transform="translate(-35.736 -210.713)" fill="#e0e0e0"/>
        <path id="Trazado_140527" data-name="Trazado 140527" d="M44.041,398.5a8.668,8.668,0,0,0-4.694,2.377,8.873,8.873,0,0,0-2.687,4.607,6.4,6.4,0,0,0,4.334-2.737c1.081-1.369,1.825-2.915,3.024-4.215" transform="translate(-30.689 -227.843)" fill="#e0e0e0"/>
        <path id="Trazado_140528" data-name="Trazado 140528" d="M53.289,387.3a11.569,11.569,0,0,1,1.337-10.948A13.93,13.93,0,0,1,53.289,387.3" transform="translate(-39.294 -215.797)" fill="#e0e0e0"/>
        <path id="Trazado_140529" data-name="Trazado 140529" d="M53.113,410.522a8.389,8.389,0,0,0-8.006,4.612c-.1.2-.187.456-.05.625a.584.584,0,0,0,.529.155,6.947,6.947,0,0,0,4.128-2.13,39.971,39.971,0,0,1,3.435-3.266" transform="translate(-35.217 -234.372)" fill="#e0e0e0"/>
        <path id="Trazado_140530" data-name="Trazado 140530" d="M61.73,396.78a14.913,14.913,0,0,1-.151-8.33,4.07,4.07,0,0,1,1.779-2.7.347.347,0,0,1,.274-.05.351.351,0,0,1,.169.2,4.968,4.968,0,0,1,.42,2.386,15.022,15.022,0,0,1-.374,2.422,12.322,12.322,0,0,1-1.291,4.343,9.122,9.122,0,0,0-.515.953,7.433,7.433,0,0,1-.292.693" transform="translate(-43.957 -220.876)" fill="#e0e0e0"/>
        <path id="Trazado_140531" data-name="Trazado 140531" d="M84.859,402.417a10.72,10.72,0,0,1,1.884-8.832c.132-.178.31-.365.534-.347.338.032.424.484.411.821a15.966,15.966,0,0,1-2.828,8.353" transform="translate(-56.754 -224.981)" fill="#e0e0e0"/>
        <path id="Trazado_140532" data-name="Trazado 140532" d="M87.22,411.122a12.837,12.837,0,0,0,10.542-2.144,8.517,8.517,0,0,0-5.707-.7,8.232,8.232,0,0,0-4.836,2.842" transform="translate(-58.184 -233.047)" fill="#e0e0e0"/>
        <path id="Trazado_140533" data-name="Trazado 140533" d="M88.94,403.914a12.211,12.211,0,0,1,9.58-5.534,5.962,5.962,0,0,1-3.129,3.462,17.422,17.422,0,0,1-4.6,1.341,3.122,3.122,0,0,0-1.825.73" transform="translate(-59.119 -227.778)" fill="#e0e0e0"/>
        <path id="Trazado_140534" data-name="Trazado 140534" d="M83.973,376.6A27.484,27.484,0,0,0,85.2,371a9.3,9.3,0,0,0-1.113-5.538,12.2,12.2,0,0,0-.164,11.336" transform="translate(-55.671 -209.875)" fill="#e0e0e0"/>
        <path id="Trazado_140535" data-name="Trazado 140535" d="M99.27,374.038a15.03,15.03,0,0,1,11.049-7.518,12.311,12.311,0,0,1-11.049,7.518" transform="translate(-64.737 -210.452)" fill="#e0e0e0"/>
        <path id="Trazado_140536" data-name="Trazado 140536" d="M96.29,383.883c3.225.493,5.976,2.555,8.991,3.8a4.06,4.06,0,0,0,2.035.388,1.592,1.592,0,0,0,1-2.815,4.379,4.379,0,0,0-1.478-.912,16.4,16.4,0,0,0-10.269-.57" transform="translate(-63.116 -219.535)" fill="#e0e0e0"/>
        <path id="Trazado_140537" data-name="Trazado 140537" d="M92.19,389.446a3.833,3.833,0,0,1,1.56,1.081,16.783,16.783,0,0,0,6.843,3.5c.26.064.6.091.734-.141s-.032-.456-.178-.639a9.365,9.365,0,0,0-4.106-2.8c-1.574-.589-2.938-1.3-4.817-1.14" transform="translate(-60.887 -222.836)" fill="#e0e0e0"/>
        <path id="Trazado_140538" data-name="Trazado 140538" d="M87.57,359.26a12.91,12.91,0,0,0,9.9,3.367.67.67,0,0,0,.456-.16c.251-.274-.05-.693-.338-.912a11.384,11.384,0,0,0-10.009-2.281" transform="translate(-58.374 -206.321)" fill="#e0e0e0"/>
        <path id="Trazado_140539" data-name="Trazado 140539" d="M93.05,354.453a13.8,13.8,0,0,1,12.349-2.035A9.817,9.817,0,0,1,99.514,355a18.513,18.513,0,0,1-6.464-.547" transform="translate(-61.354 -202.431)" fill="#e0e0e0"/>
        <path id="Trazado_140540" data-name="Trazado 140540" d="M88.884,333.468c-.283-2.906-.1-5.2-.3-8.116,0-.233-.064-.511-.283-.6-.306-.114-.557.255-.657.566A9.3,9.3,0,0,0,88.88,333.4" transform="translate(-58.183 -187.727)" fill="#e0e0e0"/>
        <path id="Trazado_140541" data-name="Trazado 140541" d="M90.41,333.7a17.02,17.02,0,0,0,4.831-4.676,6.4,6.4,0,0,0,1.537-4.452,4.6,4.6,0,0,0-3.472,1.724,9.731,9.731,0,0,0-1.77,3.558c-.383,1.277-.652,2.591-1.109,3.846" transform="translate(-59.919 -187.638)" fill="#e0e0e0"/>
        <path id="Trazado_140542" data-name="Trazado 140542" d="M100.731,333.03a38.776,38.776,0,0,0,11.861-6.98,6.045,6.045,0,0,0-4.448.342A14.014,14.014,0,0,0,100.69,333" transform="translate(-65.509 -188.284)" fill="#e0e0e0"/>
        <path id="Trazado_140543" data-name="Trazado 140543" d="M93.33,343.987a24.219,24.219,0,0,0,6.574.032,28.012,28.012,0,0,0,6.136-2.039.748.748,0,0,0,.42-.319.488.488,0,0,0-.151-.525,1.3,1.3,0,0,0-.525-.246,11.412,11.412,0,0,0-6.633.4,30.787,30.787,0,0,0-5.821,2.7" transform="translate(-61.507 -196.335)" fill="#e0e0e0"/>
        <path id="Trazado_140544" data-name="Trazado 140544" d="M64.706,348.405a11.723,11.723,0,0,1-.1-9.625,7.31,7.31,0,0,1,.853,4.785c-.164,1.647-.666,3.335-.7,4.986" transform="translate(-45.35 -195.366)" fill="#e0e0e0"/>
        <path id="Trazado_140545" data-name="Trazado 140545" d="M41.022,353.289a13.4,13.4,0,0,0-9.972,4.252,9.347,9.347,0,0,0,5.474-1.013,27.666,27.666,0,0,0,4.68-3.134" transform="translate(-27.638 -203.255)" fill="#e0e0e0"/>
        <path id="Trazado_140546" data-name="Trazado 140546" d="M32.949,350.143a14,14,0,0,0-5.324.164,6.387,6.387,0,0,0-4.055,3.444,9.626,9.626,0,0,0,4.991-.944,28.566,28.566,0,0,0,4.388-2.664" transform="translate(-23.57 -201.452)" fill="#e0e0e0"/>
        <path id="Trazado_140547" data-name="Trazado 140547" d="M44.4,347.153a16.89,16.89,0,0,0-5.228-2.614,5.7,5.7,0,0,0-5.447,1.323,10.127,10.127,0,0,0,5.21,1.013,18.006,18.006,0,0,1,5.67.575" transform="translate(-29.095 -198.397)" fill="#e0e0e0"/>
        <path id="Trazado_140548" data-name="Trazado 140548" d="M53.361,337.03a12.158,12.158,0,0,1-2.737-11.45,17.463,17.463,0,0,1,2.737,11.45" transform="translate(-38.043 -188.188)" fill="#e0e0e0"/>
        <path id="Trazado_140549" data-name="Trazado 140549" d="M74,322.794c.529-1.232.912-2.518,1.369-3.768a10.825,10.825,0,0,1,1.957-3.472A5.173,5.173,0,0,1,80.8,313.73a14,14,0,0,1-6.733,9.06" transform="translate(-50.995 -181.743)" fill="#e0e0e0"/>
        <path id="Trazado_140550" data-name="Trazado 140550" d="M62.364,331.272a17.908,17.908,0,0,0-3.07-3.736,5.15,5.15,0,0,0-4.174-1.1,9.74,9.74,0,0,0,7.244,4.836" transform="translate(-40.727 -188.597)" fill="#e0e0e0"/>
        <path id="Trazado_140551" data-name="Trazado 140551" d="M69.82,323.047a21.071,21.071,0,0,1-1.369-4.475,7.021,7.021,0,0,1,.7-4.562,10.329,10.329,0,0,1,.762,9.06" transform="translate(-47.914 -181.896)" fill="#e0e0e0"/>
        <path id="Trazado_140552" data-name="Trazado 140552" d="M74.07,306.667a9.728,9.728,0,0,1,6.359-5.976,2.335,2.335,0,0,1,1.113-.164.958.958,0,0,1,.821.684c.1.488-.3.912-.684,1.255a21.6,21.6,0,0,1-7.609,4.2" transform="translate(-51.033 -174.558)" fill="#e0e0e0"/>
        <path id="Trazado_140553" data-name="Trazado 140553" d="M74.086,297.325a20.5,20.5,0,0,1,.83-5.506,6.963,6.963,0,0,1,3.462-4.179A8.154,8.154,0,0,1,76.841,293a24.435,24.435,0,0,0-2.8,4.94" transform="translate(-51.016 -167.555)" fill="#e0e0e0"/>
        <path id="Trazado_140554" data-name="Trazado 140554" d="M67.565,299.63c-.721-2.1-.794-4.767-2.053-6.6-.88-1.277-2.281-2.149-3.043-3.5a5.324,5.324,0,0,0,.178,3.978,11.509,11.509,0,0,0,2.327,3.33c.912.994,1.724,1.743,2.591,2.792" transform="translate(-44.56 -168.583)" fill="#e0e0e0"/>
        <path id="Trazado_140555" data-name="Trazado 140555" d="M73.939,372.635c-.055,0-.1-14-.109-31.28s.041-31.285.1-31.285.1,14,.109,31.285S73.994,372.635,73.939,372.635Z" transform="translate(-50.902 -179.753)" fill="#e0e0e0"/>
        <path id="Trazado_140556" data-name="Trazado 140556" d="M86.267,355.24a2.692,2.692,0,0,1-.525.2l-1.451.488c-1.223.415-2.9,1.017-4.721,1.765a17.894,17.894,0,0,0-4.475,2.24,3.285,3.285,0,0,0-.912,1.191c-.141.328-.164.529-.182.529s0-.055,0-.151a2.423,2.423,0,0,1,.1-.406,3.157,3.157,0,0,1,.876-1.268,7.8,7.8,0,0,1,1.943-1.2c.776-.365,1.638-.744,2.55-1.118,1.825-.748,3.517-1.332,4.753-1.715.62-.192,1.122-.333,1.473-.429a3.074,3.074,0,0,1,.566-.123Z" transform="translate(-50.99 -204.317)" fill="#e0e0e0"/>
        <path id="Trazado_140557" data-name="Trazado 140557" d="M91.439,333.64a.79.79,0,0,1-.151.155l-.456.424-1.679,1.524-5.584,4.972c-2.181,1.943-4.065,3.8-5.369,5.191-.657.7-1.172,1.277-1.524,1.679l-.406.456a.715.715,0,0,1-.151.151.936.936,0,0,1,.123-.178c.082-.114.205-.283.374-.488.333-.42.835-1.013,1.478-1.724a70.5,70.5,0,0,1,5.337-5.246c2.19-1.934,4.179-3.677,5.625-4.927.712-.611,1.3-1.109,1.72-1.478l.456-.392a.868.868,0,0,1,.205-.119Z" transform="translate(-52.148 -192.571)" fill="#e0e0e0"/>
        <path id="Trazado_140558" data-name="Trazado 140558" d="M87.3,347.7c-.059-.027.4-1.077.853-2.409s.671-2.45.73-2.441a8.211,8.211,0,0,1-.538,2.5,16.473,16.473,0,0,1-.68,1.67,2.942,2.942,0,0,1-.365.675Z" transform="translate(-58.227 -197.579)" fill="#e0e0e0"/>
        <path id="Trazado_140559" data-name="Trazado 140559" d="M64.436,359.868a2.118,2.118,0,0,1-.338-.388l-.862-1.1c-.721-.935-1.72-2.226-2.842-3.649s-2.149-2.678-2.9-3.595l-.862-1.077a2.591,2.591,0,0,1-.306-.415,2.666,2.666,0,0,1,.365.365c.224.242.543.6.912,1.049.776.912,1.825,2.144,2.947,3.558s2.1,2.737,2.8,3.677c.351.456.625.871.812,1.145A2.518,2.518,0,0,1,64.436,359.868Z" transform="translate(-41.385 -201.272)" fill="#e0e0e0"/>
        <path id="Trazado_140560" data-name="Trazado 140560" d="M66.554,359.453a4.918,4.918,0,0,1-1.122-2.1,5.93,5.93,0,0,1-.255-2.126h.091a.67.67,0,0,1-.087.246v-.26h.091a9.58,9.58,0,0,0,.356,2.067A16.37,16.37,0,0,0,66.554,359.453Z" transform="translate(-46.19 -204.301)" fill="#e0e0e0"/>
        <path id="Trazado_140561" data-name="Trazado 140561" d="M53.382,353.955a3.854,3.854,0,0,0-.785-.456,5.159,5.159,0,0,0-2.181-.173,12.916,12.916,0,0,0-2.194.351,7.411,7.411,0,0,1-.912.219,2.906,2.906,0,0,1,.862-.356,9.987,9.987,0,0,1,2.222-.42,4.763,4.763,0,0,1,2.244.242A1.41,1.41,0,0,1,53.382,353.955Z" transform="translate(-36.48 -203.142)" fill="#e0e0e0"/>
        <path id="Trazado_140562" data-name="Trazado 140562" d="M48.661,351.087c0,.032-.456-.182-1.2-.456a12.149,12.149,0,0,0-6.063-.456c-.776.137-1.241.283-1.255.251a1.048,1.048,0,0,1,.319-.137,7.384,7.384,0,0,1,.912-.255,10.688,10.688,0,0,1,6.14.465,7.486,7.486,0,0,1,.858.392,1.149,1.149,0,0,1,.292.2Z" transform="translate(-32.581 -201.35)" fill="#e0e0e0"/>
        <path id="Trazado_140563" data-name="Trazado 140563" d="M72.14,335.525a50.782,50.782,0,0,1-1.56-6.145,25.063,25.063,0,0,1,.88,3.047,24.953,24.953,0,0,1,.68,3.1Z" transform="translate(-49.135 -190.254)" fill="#e0e0e0"/>
        <path id="Trazado_140564" data-name="Trazado 140564" d="M71.294,338.913a14.626,14.626,0,0,0-.972-1.825,7.878,7.878,0,0,0-1.432-1.478,1.369,1.369,0,0,1,.552.287,4.425,4.425,0,0,1,1.045,1.072A4.046,4.046,0,0,1,71.294,338.913Z" transform="translate(-48.216 -193.642)" fill="#e0e0e0"/>
        <path id="Trazado_140565" data-name="Trazado 140565" d="M58.8,406.5s-.064-.338-.224-.912a13.184,13.184,0,0,0-.912-2.427,33.585,33.585,0,0,0-4.963-6.993c-1.109-1.268-2.185-2.463-3.1-3.608a24.852,24.852,0,0,1-2.217-3.193A15.2,15.2,0,0,1,46.268,387c-.1-.292-.178-.52-.219-.675a1.446,1.446,0,0,1-.059-.242s.119.319.351.89a17.644,17.644,0,0,0,1.168,2.327,26.852,26.852,0,0,0,2.235,3.152c.912,1.131,2,2.317,3.107,3.586A31.932,31.932,0,0,1,57.8,403.1a12.2,12.2,0,0,1,.88,2.468,6.428,6.428,0,0,1,.123.7A1.241,1.241,0,0,1,58.8,406.5Z" transform="translate(-35.762 -221.089)" fill="#e0e0e0"/>
        <path id="Trazado_140566" data-name="Trazado 140566" d="M85.116,403.467a6.45,6.45,0,0,1-.579.324,12.2,12.2,0,0,0-1.505.994,16.521,16.521,0,0,0-1.975,1.8c-.693.73-1.405,1.578-2.135,2.491-1.455,1.825-2.819,3.449-3.649,4.74-.415.639-.716,1.177-.912,1.556a5.156,5.156,0,0,1-.319.584.4.4,0,0,1,.055-.164c.055-.1.1-.26.192-.456a14.722,14.722,0,0,1,.876-1.592,52.782,52.782,0,0,1,3.6-4.79c.73-.912,1.455-1.761,2.162-2.5a15.963,15.963,0,0,1,2.021-1.784,10.232,10.232,0,0,1,1.569-.967,4.2,4.2,0,0,1,.456-.2Q85.112,403.453,85.116,403.467Z" transform="translate(-51.016 -230.542)" fill="#e0e0e0"/>
        <path id="Trazado_140567" data-name="Trazado 140567" d="M89.667,412.336a8.614,8.614,0,0,1-1.227.178,15.908,15.908,0,0,0-2.906.575,8.667,8.667,0,0,0-2.6,1.369c-.6.456-.88.844-.912.826s.046-.114.178-.283a4.562,4.562,0,0,1,.639-.652A7.874,7.874,0,0,1,85.47,412.9a13,13,0,0,1,2.951-.52A6.786,6.786,0,0,1,89.667,412.336Z" transform="translate(-55.353 -235.361)" fill="#e0e0e0"/>
        <path id="Trazado_140568" data-name="Trazado 140568" d="M82.814,412.871c-.064-.036.488-.88.912-2.016s.5-2.149.566-2.135a1.861,1.861,0,0,1,0,.657,7.363,7.363,0,0,1-.356,1.551,7.688,7.688,0,0,1-.712,1.419A1.971,1.971,0,0,1,82.814,412.871Z" transform="translate(-55.785 -233.401)" fill="#e0e0e0"/>
        <path id="Trazado_140569" data-name="Trazado 140569" d="M88.746,379.61a.711.711,0,0,1-.2.1l-.575.26c-.255.109-.561.246-.912.429s-.753.365-1.172.616l-.666.379c-.233.137-.456.292-.707.456-.493.3-.985.666-1.515,1.04a29,29,0,0,0-3.157,2.778,28.317,28.317,0,0,0-2.66,3.239c-.36.543-.712,1.049-.994,1.551-.141.246-.292.484-.42.721l-.333.684c-.237.429-.406.839-.575,1.191s-.3.661-.4.912-.178.429-.242.584a1.094,1.094,0,0,1-.1.2.73.73,0,0,1,.059-.214l.205-.6c.091-.26.205-.579.365-.935s.319-.776.552-1.209c.109-.224.228-.456.347-.693s.269-.456.415-.73c.278-.511.625-1.022.981-1.569a25.208,25.208,0,0,1,5.871-6.076c.534-.374,1.036-.739,1.533-1.031.251-.151.484-.31.716-.456l.68-.374c.429-.242.839-.42,1.191-.588a9.494,9.494,0,0,1,.912-.4l.593-.228A1.025,1.025,0,0,1,88.746,379.61Z" transform="translate(-51.065 -217.57)" fill="#e0e0e0"/>
        <path id="Trazado_140570" data-name="Trazado 140570" d="M87,390.73a1.369,1.369,0,0,1,.456-.716,3.029,3.029,0,0,1,1.943-.744,5.31,5.31,0,0,1,2.039.4,3.069,3.069,0,0,1,.771.374,4.389,4.389,0,0,1-.817-.237,6.067,6.067,0,0,0-1.989-.333,3.148,3.148,0,0,0-1.852.652,5.167,5.167,0,0,0-.552.607Z" transform="translate(-58.064 -222.823)" fill="#e0e0e0"/>
        <path id="Trazado_140571" data-name="Trazado 140571" d="M84.11,391.063a7.363,7.363,0,0,0,.552-1.793,7.536,7.536,0,0,0-.123-1.87,1.2,1.2,0,0,1,.228.525,3.709,3.709,0,0,1-.315,2.682C84.279,390.917,84.128,391.077,84.11,391.063Z" transform="translate(-56.493 -221.807)" fill="#e0e0e0"/>
        <path id="Trazado_140572" data-name="Trazado 140572" d="M52.86,435.25a46.347,46.347,0,0,0,4.4,16.3H68.046a46.792,46.792,0,0,0,4.133-16.3Z" transform="translate(-39.498 -247.828)" fill="#e0e0e0"/>
        <path id="Trazado_140573" data-name="Trazado 140573" d="M72.466,454.109c0,.055-3.554.1-7.933.1s-7.933-.046-7.933-.1S60.149,454,64.538,454,72.466,454.055,72.466,454.109Z" transform="translate(-41.532 -258.025)" fill="#fafafa"/>
        <path id="Trazado_140574" data-name="Trazado 140574" d="M73.116,458.37c0,.055-3.33.1-7.436.1s-7.44-.046-7.44-.1,3.33-.1,7.44-.1S73.116,458.316,73.116,458.37Z" transform="translate(-42.424 -260.347)" fill="#fafafa"/>
        <path id="Trazado_140575" data-name="Trazado 140575" d="M62.76,443a30.789,30.789,0,0,1,0,4.968A30.788,30.788,0,0,1,62.76,443Z" transform="translate(-44.828 -252.043)" fill="#fafafa"/>
        <path id="Trazado_140576" data-name="Trazado 140576" d="M75.43,443a33.028,33.028,0,0,1,0,5.146,33.028,33.028,0,0,1,0-5.146Z" transform="translate(-51.718 -252.043)" fill="#fafafa"/>
        <path id="Trazado_140577" data-name="Trazado 140577" d="M87.33,442.86a34.387,34.387,0,0,1,0,5.251A34.387,34.387,0,0,1,87.33,442.86Z" transform="translate(-58.189 -251.967)" fill="#fafafa"/>
        <path id="Trazado_140578" data-name="Trazado 140578" d="M72.272,442.88c0,.055-4.165.1-9.3.1s-9.311-.046-9.311-.1,4.17-.1,9.311-.1S72.272,442.8,72.272,442.88Z" transform="translate(-39.933 -251.923)" fill="#fafafa"/>
        <path id="Trazado_140579" data-name="Trazado 140579" d="M447.841,320.843a5.52,5.52,0,0,0,3.289-5.1,5.183,5.183,0,1,0-10.346-.064,5.511,5.511,0,0,0,3.294,5.15c-7.96,1.2-7.6,9.849-7.6,9.849l18.827.087S455.732,322.033,447.841,320.843Z" transform="translate(-248.115 -179.824)" fill="#ebebeb"/>
        <path id="Trazado_140580" data-name="Trazado 140580" d="M265.494,49.318a3.649,3.649,0,0,0,2.856-2.774,3.394,3.394,0,1,0-6.6-1.56,3.6,3.6,0,0,0,1.341,3.777c-5.26-.415-6.3,5.159-6.3,5.159l12,2.842S270.357,51.229,265.494,49.318Z" transform="translate(-150.399 -34.078)" fill="#ebebeb"/>
        <path id="Trazado_140581" data-name="Trazado 140581" d="M455.055,151.888a3.467,3.467,0,0,0,1.588-3.472,3.257,3.257,0,1,0-6.437.912,3.453,3.453,0,0,0,2.514,2.906c-4.84,1.464-3.841,6.811-3.841,6.811l11.715-1.638S460.068,151.92,455.055,151.888Z" transform="translate(-254.814 -90.208)" fill="#f5f5f5"/>
        <path id="Trazado_140582" data-name="Trazado 140582" d="M42.937,150.368l-6.327-5.032,1.752-2.208,4.247,3.371L48.8,139.57l2.1,1.879Z" transform="translate(-30.661 -87.032)" fill="#f5f5f5"/>
      </g>
      <g id="freepik--Floor--inject-3" transform="translate(23.34 228.169)">
        <path id="Trazado_140583" data-name="Trazado 140583" d="M227.4,471.2c0,.068-45.687.119-102.025.119S23.34,471.267,23.34,471.2s45.673-.119,102.034-.119S227.4,471.135,227.4,471.2Z" transform="translate(-23.34 -471.08)" fill="#263238"/>
      </g>
      <g id="freepik--Icon--inject-3" transform="translate(26.123 94.881)">
        <path id="Trazado_140584" data-name="Trazado 140584" d="M50.693,179.041,36.7,186.062a2.833,2.833,0,0,0-1.7,2.609v6.546a30.386,30.386,0,0,0,4.986,16.76c2.523,3.841,5.867,8.75,11.427,11.555h2.509c6.195-1.889,10.816-6.92,13.64-11.227a30.391,30.391,0,0,0,4.991-16.76v-6.875a2.842,2.842,0,0,0-1.724-2.609l-15.962-6.793A9.781,9.781,0,0,0,50.693,179.041Z" transform="translate(-32.463 -178.9)" fill="#ffb118"/>
        <path id="Trazado_140585" data-name="Trazado 140585" d="M50.693,179.041,36.7,186.062a2.833,2.833,0,0,0-1.7,2.609v6.546a30.386,30.386,0,0,0,4.986,16.76c2.523,3.841,5.867,8.75,11.427,11.555h2.509c6.195-1.889,10.816-6.92,13.64-11.227a30.391,30.391,0,0,0,4.991-16.76v-6.875a2.842,2.842,0,0,0-1.724-2.609l-15.962-6.793A9.781,9.781,0,0,0,50.693,179.041Z" transform="translate(-32.463 -178.9)" opacity="0.3"/>
        <path id="Trazado_140586" data-name="Trazado 140586" d="M47.108,179.446l-15.944,6.793a2.842,2.842,0,0,0-1.724,2.609v6.546a30.646,30.646,0,0,0,18.925,28.315c6.192-1.888,10.813-6.92,13.642-11.226A30.391,30.391,0,0,0,67,195.722v-6.875a2.842,2.842,0,0,0-1.72-2.609l-15.966-6.793A2.847,2.847,0,0,0,47.108,179.446Z" transform="translate(-29.44 -179.076)" fill="#ffb118"/>
        <circle id="Elipse_5335" data-name="Elipse 5335" cx="10.451" cy="10.451" r="10.451" transform="translate(5.259 14.353) rotate(-21.2)" opacity="0.3"/>
        <circle id="Elipse_5336" data-name="Elipse 5336" cx="4.338" cy="4.338" r="4.338" transform="translate(14.438 12.221)" fill="#fff"/>
        <path id="Trazado_140587" data-name="Trazado 140587" d="M53.24,232.626A8.471,8.471,0,0,1,61,227.809a9.223,9.223,0,0,1,8.1,4.816,9.733,9.733,0,0,1-8.211,3.651,9.917,9.917,0,0,1-7.646-3.649Z" transform="translate(-42.383 -205.497)" fill="#fff"/>
        <path id="Trazado_140588" data-name="Trazado 140588" d="M68.484,210.845a.913.913,0,0,1,0-.169,2.356,2.356,0,0,0-.041-.493v-.365a4.466,4.466,0,0,0-.068-.456,7.727,7.727,0,0,0-.219-1.072,10.1,10.1,0,0,0-1.163-2.764,10.41,10.41,0,0,0-2.646-2.938,10.26,10.26,0,0,0-4.361-1.925,10.378,10.378,0,0,0-5.433.456,9.981,9.981,0,0,0-1.369.593,11.045,11.045,0,0,0-1.268.812,12.692,12.692,0,0,0-1.172,1,12.171,12.171,0,0,0-1.013,1.2,10.317,10.317,0,0,0-1.473,9.37,10.036,10.036,0,0,0,1.473,2.847,12.235,12.235,0,0,0,1.013,1.2,11.968,11.968,0,0,0,1.172.994,9.5,9.5,0,0,0,2.614,1.41,10.357,10.357,0,0,0,12.44-4.411,9.936,9.936,0,0,0,1.145-2.746,7.915,7.915,0,0,0,.219-1.077c0-.155.055-.3.068-.456a3.217,3.217,0,0,0,0-.365l.041-.5a1.02,1.02,0,0,1,0-.169.968.968,0,0,1,0,.169v.867a4.053,4.053,0,0,1-.059.456,6.656,6.656,0,0,1-.2,1.09,9.826,9.826,0,0,1-1.136,2.806,10.492,10.492,0,0,1-12.627,4.562,10.778,10.778,0,0,1-1.369-.6,10.563,10.563,0,0,1-1.286-.853,11.466,11.466,0,0,1-1.2-1.017,12.2,12.2,0,0,1-1.013-1.2,10.328,10.328,0,0,1-1.515-2.91,11.341,11.341,0,0,1-.543-3.335,11.2,11.2,0,0,1,.547-3.335,10.2,10.2,0,0,1,1.51-2.91,12.776,12.776,0,0,1,1.04-1.223,11.507,11.507,0,0,1,1.2-1.017,11.09,11.09,0,0,1,1.273-.839,10.805,10.805,0,0,1,1.369-.607,10.454,10.454,0,0,1,12.636,4.562,9.849,9.849,0,0,1,1.136,2.81,6.61,6.61,0,0,1,.2,1.086c0,.16.05.306.059.456v.867A.913.913,0,0,1,68.484,210.845Z" transform="translate(-39.256 -190.527)" fill="#263238"/>
        <path id="Trazado_140589" data-name="Trazado 140589" d="M97.745,211.5a1.474,1.474,0,0,1,.032.306,8.1,8.1,0,0,0,.036.867,8.489,8.489,0,0,1,0,1.369v.858a5.349,5.349,0,0,1-.059.958c-.064.671-.109,1.41-.251,2.194-.059.392-.109.8-.192,1.213s-.182.839-.274,1.277a31.65,31.65,0,0,1-1.825,5.5,32.543,32.543,0,0,1-2.86,5.05c-.529.716-1.017,1.41-1.546,2.007-.255.3-.493.607-.744.876l-.725.766c-.456.506-.912.912-1.3,1.273a12.608,12.608,0,0,1-1.036.912l-.675.547a1.368,1.368,0,0,1-.242.173,1.628,1.628,0,0,1,.214-.21l.643-.579c.287-.246.63-.552,1-.912s.83-.785,1.273-1.291l.712-.776c.246-.269.456-.575.73-.876.515-.6.994-1.291,1.519-2.012a33.3,33.3,0,0,0,2.819-5.018,32.187,32.187,0,0,0,1.825-5.474l.283-1.268c.082-.411.137-.817.205-1.2.146-.776.2-1.51.274-2.176.041-.333.068-.652.078-.953l.041-.853c.041-.534.032-.994.032-1.369v-.867A2.061,2.061,0,0,1,97.745,211.5Z" transform="translate(-60.242 -196.628)" fill="#263238"/>
      </g>
      <g id="freepik--Device--inject-3" transform="translate(61.394 52.465)">
        <path id="Trazado_140590" data-name="Trazado 140590" d="M219.915,261.742H112.046a5.378,5.378,0,0,1-5.287-5.474V91.394a5.378,5.378,0,0,1,5.287-5.474H219.915a5.374,5.374,0,0,1,5.283,5.474V256.277a5.374,5.374,0,0,1-5.283,5.465Z" transform="translate(-106.758 -85.92)" fill="#263238"/>
        <path id="Trazado_140591" data-name="Trazado 140591" d="M229.147,447.931A5.018,5.018,0,1,1,224.129,443,5.018,5.018,0,0,1,229.147,447.931Z" transform="translate(-167.858 -280.106)" fill="#455a64"/>
        <path id="Trazado_140592" data-name="Trazado 140592" d="M232.345,102.14H208.168a1.715,1.715,0,0,1-1.688-1.743h0a1.72,1.72,0,0,1,1.688-1.747h24.178a1.72,1.72,0,0,1,1.688,1.747h0A1.715,1.715,0,0,1,232.345,102.14Z" transform="translate(-160.988 -92.843)" fill="#455a64"/>
        <rect id="Rectángulo_37892" data-name="Rectángulo 37892" width="110.971" height="146.827" transform="translate(3.637 12.55)" fill="#fff"/>
        <rect id="Rectángulo_37893" data-name="Rectángulo 37893" width="4.735" height="146.827" transform="translate(109.872 12.55)" fill="#f5f5f5"/>
        <path id="Trazado_140593" data-name="Trazado 140593" d="M351.033,186.832h0a1.478,1.478,0,0,1-1.473-1.478V152.878a1.478,1.478,0,0,1,1.473-1.478h0a1.478,1.478,0,0,1,1.478,1.478v32.476a1.478,1.478,0,0,1-1.478,1.478Z" transform="translate(-238.798 -121.529)" fill="#e0e0e0"/>
        <path id="Trazado_140594" data-name="Trazado 140594" d="M225.915,181.068H144.094a2.354,2.354,0,0,1-2.354-2.354h0a2.354,2.354,0,0,1,2.354-2.354h81.821a2.354,2.354,0,0,1,2.354,2.354h0A2.354,2.354,0,0,1,225.915,181.068Z" transform="translate(-125.782 -135.103)" fill="#e0e0e0"/>
        <path id="Trazado_140595" data-name="Trazado 140595" d="M234.505,143.388H183.034a2.354,2.354,0,0,1-2.354-2.354h0a2.354,2.354,0,0,1,2.354-2.354h51.471a2.354,2.354,0,0,1,2.354,2.354h0A2.354,2.354,0,0,1,234.505,143.388Z" transform="translate(-146.958 -114.612)" fill="#ffb118"/>
        <path id="Trazado_140596" data-name="Trazado 140596" d="M228.147,201.838H169.564a2.354,2.354,0,0,1-2.354-2.354h0a2.354,2.354,0,0,1,2.354-2.354h58.583a2.354,2.354,0,0,1,2.354,2.354h0a2.354,2.354,0,0,1-2.354,2.354Z" transform="translate(-139.633 -146.398)" fill="#e0e0e0"/>
        <path id="Trazado_140597" data-name="Trazado 140597" d="M186.269,292.388H141.194a2.354,2.354,0,0,1-2.354-2.354h0a2.354,2.354,0,0,1,2.354-2.354h45.075a2.354,2.354,0,0,1,2.354,2.354h0A2.354,2.354,0,0,1,186.269,292.388Z" transform="translate(-124.205 -195.641)" fill="#e0e0e0"/>
        <path id="Trazado_140598" data-name="Trazado 140598" d="M223.015,270.763H141.194a2.354,2.354,0,0,1-2.354-2.354h0a2.349,2.349,0,0,1,2.354-2.349h81.821a2.349,2.349,0,0,1,2.354,2.349h0A2.354,2.354,0,0,1,223.015,270.763Z" transform="translate(-124.205 -183.883)" fill="#e0e0e0"/>
        <rect id="Rectángulo_37894" data-name="Rectángulo 37894" width="76.324" height="4.708" rx="2.354" transform="translate(24.84 113.923)" fill="#e0e0e0"/>
        <path id="Trazado_140599" data-name="Trazado 140599" d="M223.015,362.4H141.194a2.354,2.354,0,0,1-2.354-2.354h0a2.354,2.354,0,0,1,2.354-2.345h81.821a2.354,2.354,0,0,1,2.354,2.354h0A2.354,2.354,0,0,1,223.015,362.4Z" transform="translate(-124.205 -233.719)" fill="#e0e0e0"/>
        <path id="Trazado_140600" data-name="Trazado 140600" d="M223.015,384.808H141.194a2.354,2.354,0,0,1-2.354-2.354h0a2.354,2.354,0,0,1,2.354-2.354h81.821a2.354,2.354,0,0,1,2.354,2.354h0A2.354,2.354,0,0,1,223.015,384.808Z" transform="translate(-124.205 -245.9)" fill="#e0e0e0"/>
        <path id="Trazado_140601" data-name="Trazado 140601" d="M146.24,337.9a2.445,2.445,0,1,1-2.441-2.445A2.445,2.445,0,0,1,146.24,337.9Z" transform="translate(-125.57 -221.619)" fill="#ffb118"/>
        <path id="Trazado_140602" data-name="Trazado 140602" d="M235.175,250.608H163.554a2.354,2.354,0,0,1-2.354-2.354h0a2.354,2.354,0,0,1,2.354-2.354h71.621a2.354,2.354,0,0,1,2.354,2.354h0A2.354,2.354,0,0,1,235.175,250.608Z" transform="translate(-136.365 -172.92)" fill="#e0e0e0"/>
        <circle id="Elipse_5337" data-name="Elipse 5337" cx="2.445" cy="2.445" r="2.445" transform="translate(15.785 72.889)" fill="#ffb118"/>
        <path id="Trazado_140603" data-name="Trazado 140603" d="M291.991,414.29H273.63a3.75,3.75,0,0,1-3.75-3.75h0a3.75,3.75,0,0,1,3.75-3.75h18.361a3.75,3.75,0,0,1,3.75,3.75h0A3.75,3.75,0,0,1,291.991,414.29Z" transform="translate(-195.467 -260.415)" fill="#ffb118"/>
      </g>
      <g id="freepik--Padlock--inject-3" transform="translate(38.535 29.202)">
        <path id="Trazado_140604" data-name="Trazado 140604" d="M85.511,35.119,66.479,44.667a3.859,3.859,0,0,0-2.349,3.549v8.9A41.33,41.33,0,0,0,70.918,79.93c3.431,5.21,7.974,11.888,15.542,15.7h3.412c8.421-2.568,14.707-9.416,18.553-15.268a41.33,41.33,0,0,0,6.788-22.809V48.216a3.859,3.859,0,0,0-2.331-3.549l-21.7-9.251C90.219,35.019,86.478,34.708,85.511,35.119Z" transform="translate(-60.718 -34.925)" fill="#ffb118"/>
        <path id="Trazado_140605" data-name="Trazado 140605" d="M85.511,35.119,66.479,44.667a3.859,3.859,0,0,0-2.349,3.549v8.9A41.33,41.33,0,0,0,70.918,79.93c3.431,5.21,7.974,11.888,15.542,15.7h3.412c8.421-2.568,14.707-9.416,18.553-15.268a41.33,41.33,0,0,0,6.788-22.809V48.216a3.859,3.859,0,0,0-2.331-3.549l-21.7-9.251C90.219,35.019,86.478,34.708,85.511,35.119Z" transform="translate(-60.718 -34.925)" opacity="0.3"/>
        <path id="Trazado_140606" data-name="Trazado 140606" d="M80.677,35.627,58.995,44.879a3.855,3.855,0,0,0-2.345,3.549v8.9A41.684,41.684,0,0,0,82.387,95.841c8.426-2.566,14.712-9.413,18.554-15.266a41.294,41.294,0,0,0,6.788-22.809V48.428a3.855,3.855,0,0,0-2.345-3.549l-21.66-9.251A3.868,3.868,0,0,0,80.677,35.627Z" transform="translate(-56.65 -35.137)" fill="#ffb118"/>
        <path id="Trazado_140607" data-name="Trazado 140607" d="M149.507,79.27a.328.328,0,0,1,0,.1c0,.082,0,.182,0,.306,0,.292.023.684.041,1.182a18.025,18.025,0,0,1,0,1.866c0,.365,0,.753-.036,1.163v.639a6.541,6.541,0,0,1-.064.671c-.091.912-.151,1.916-.342,2.979-.087.529-.155,1.086-.265,1.647s-.246,1.14-.374,1.733a42.719,42.719,0,0,1-2.5,7.477,44.5,44.5,0,0,1-3.878,6.866c-.721.976-1.369,1.921-2.1,2.737-.351.411-.671.826-1.013,1.191l-.985,1.049c-.611.684-1.241,1.227-1.765,1.734-.269.246-.511.484-.744.689l-.639.515-.912.748-.242.192c-.055.041-.087.059-.087.055s0-.027.068-.078l.228-.205.88-.78.643-.561c.233-.205.456-.456.73-.7.515-.511,1.131-1.058,1.733-1.747l.972-1.058c.338-.365.652-.78.994-1.191.707-.812,1.369-1.756,2.071-2.737a45.044,45.044,0,0,0,3.846-6.843,44,44,0,0,0,2.5-7.431c.132-.588.255-1.163.383-1.72s.182-1.113.274-1.642c.2-1.058.269-2.057.37-2.965.027-.224.05-.456.073-.661s0-.429.027-.634q.027-.616.055-1.163c.05-.725.036-1.369.036-1.861V79.375A.274.274,0,0,1,149.507,79.27Z" transform="translate(-98.497 -59.041)" fill="#263238"/>
        <path id="Trazado_140608" data-name="Trazado 140608" d="M113.139,81.556h-2.313V68.97a5.374,5.374,0,0,0-10.743,0V81.556H97.77V68.97a7.687,7.687,0,0,1,15.369,0Z" transform="translate(-79.012 -49.361)" fill="#f5f5f5"/>
        <rect id="Rectángulo_37895" data-name="Rectángulo 37895" width="20.711" height="16.231" rx="5.81" transform="translate(16.09 23.655)" fill="#fff"/>
        <path id="Trazado_140609" data-name="Trazado 140609" d="M109.846,102.858a5.369,5.369,0,0,0,.689-.119,2.632,2.632,0,0,0,1.9-2.555V89.091a2.55,2.55,0,0,0-1.505-2.139,3.052,3.052,0,0,0-1.419-.219H107.98l-13.544,0a2.532,2.532,0,0,0-2.463,1.943,3.385,3.385,0,0,0-.073.839v9.078c.041,1.031-.173,2.094.356,2.906a2.564,2.564,0,0,0,2.3,1.264h5.132l7.431.041h2.541a.968.968,0,0,1,.182,0,.817.817,0,0,1-.182,0h-2.541l-7.431.036H94.559a2.76,2.76,0,0,1-2.883-2.81v-10.5a3.544,3.544,0,0,1,.078-.912,2.737,2.737,0,0,1,.981-1.505,2.792,2.792,0,0,1,1.724-.6h15.027a3.23,3.23,0,0,1,1.505.246,2.737,2.737,0,0,1,1.615,2.313v11.108a2.682,2.682,0,0,1-.4,1.414,2.632,2.632,0,0,1-1.6,1.186A2.053,2.053,0,0,1,109.846,102.858Z" transform="translate(-75.696 -62.972)" fill="#263238"/>
        <path id="Trazado_140610" data-name="Trazado 140610" d="M113.445,100.861a2.235,2.235,0,0,0,.657-1.588,2.281,2.281,0,1,0-2.9,2.181l-.488,2.162h2.167l-.456-2.162a2.281,2.281,0,0,0,1-.593" transform="translate(-85.412 -68.671)" fill="#ffb118"/>
      </g>
      <g id="freepik--Character--inject-3" transform="translate(163.003 65.761)">
        <path id="Trazado_140611" data-name="Trazado 140611" d="M409.261,130.39v18.485c.041,3.193.511,8.211-4.562,8.047h0c-4.375-.456-5.538-4.621-5.57-7.6,0-1.414-.032-2.6-.046-2.737,0,0-4.79-.392-5.2-5.128-.2-2.281-.214-7.03-.182-11.322a8.85,8.85,0,0,1,8.211-8.75l.456-.032C407.331,121.276,409.343,125.441,409.261,130.39Z" transform="translate(-364.408 -118.482)" fill="#ffbf9d"/>
        <path id="Trazado_140612" data-name="Trazado 140612" d="M405.54,173.941a11.487,11.487,0,0,0,6.035-2.281s-1.25,3.572-6.008,3.49Z" transform="translate(-370.85 -145.843)" fill="#ff9a6c"/>
        <path id="Trazado_140613" data-name="Trazado 140613" d="M411.475,143.858c.1.1.643-.347,1.432-.365s1.369.365,1.469.265-.055-.224-.315-.4a1.993,1.993,0,0,0-1.177-.338,1.943,1.943,0,0,0-1.14.415C411.507,143.635,411.43,143.812,411.475,143.858Z" transform="translate(-374.071 -130.266)" fill="#263238"/>
        <path id="Trazado_140614" data-name="Trazado 140614" d="M411.46,149.025a.639.639,0,0,0,.666.6.611.611,0,0,0,.616-.625.643.643,0,0,0-.661-.6.62.62,0,0,0-.62.625Z" transform="translate(-374.07 -133.193)" fill="#263238"/>
        <path id="Trazado_140615" data-name="Trazado 140615" d="M404.9,149.74a4.931,4.931,0,0,0-1.2-.128c-.187,0-.365-.032-.406-.155a.949.949,0,0,1,.082-.561c.146-.456.292-.944.456-1.455a24.931,24.931,0,0,0,.967-3.791,24.515,24.515,0,0,0-1.268,3.7q-.219.766-.424,1.464a1.081,1.081,0,0,0-.041.734.456.456,0,0,0,.324.251,1.369,1.369,0,0,0,.319,0A5.018,5.018,0,0,0,404.9,149.74Z" transform="translate(-369.48 -130.61)" fill="#263238"/>
        <path id="Trazado_140616" data-name="Trazado 140616" d="M412.224,136.751c.078.178.712.046,1.473.082s1.369.205,1.473.036c.036-.078-.082-.242-.338-.4a2.477,2.477,0,0,0-2.244-.091C412.32,136.514,412.192,136.669,412.224,136.751Z" transform="translate(-374.483 -126.535)" fill="#263238"/>
        <path id="Trazado_140617" data-name="Trazado 140617" d="M395.712,139.327c.087.146.7,0,1.455-.036s1.369.073,1.451-.078c.032-.073-.091-.2-.351-.315a2.614,2.614,0,0,0-1.108-.182,2.66,2.66,0,0,0-1.1.274C395.8,139.122,395.676,139.258,395.712,139.327Z" transform="translate(-365.503 -127.925)" fill="#263238"/>
        <path id="Trazado_140618" data-name="Trazado 140618" d="M379.969,122.467a.748.748,0,0,1,.36-.456,2.327,2.327,0,0,1,1.209-.2,6.811,6.811,0,0,0,3.558-1.081,15.935,15.935,0,0,1,1.656-2.007,12.11,12.11,0,0,1,3.836-2.979,10.771,10.771,0,0,1,5.867-.456,4.486,4.486,0,0,1,3.358,3.453,3.416,3.416,0,0,1,3.435-.319h.027a4.318,4.318,0,0,1,2.331,3.047,15.976,15.976,0,0,0,1.2,3.791c.141.237.31.525.187.776a.529.529,0,0,1-.552.237,1.506,1.506,0,0,1-.584-.265c.141.338.278.671.42,1a2.938,2.938,0,0,1-1.369-.087,29.483,29.483,0,0,1-.89,3.367,1.957,1.957,0,0,0-1.327.324c-.456.4-.634,1.14-1.369.858-.37-.146-.707-.912-.835-1.3a18.539,18.539,0,0,1-.8-7.842,5.985,5.985,0,0,0-1.825-1.323l.055.05c-1.323-.456-2.819-.912-4.074-.292-.972.484-1.542,1.492-2.281,2.281a7.417,7.417,0,0,1-5.3,2.477c-.068,1.332.041,3.216-.027,4.562l-1.122-2.135h0q-.132-.222-.242-.456v-.046h0a7.881,7.881,0,0,0-.379-.762h0a.835.835,0,0,1-1.218-1.113,1.885,1.885,0,0,1,.4-.406,1.3,1.3,0,0,1-1.254.324,1.031,1.031,0,0,1-.73-1.022.885.885,0,0,1,.525-.7,2.942,2.942,0,0,1-1.688-.374C380.174,123.2,379.845,122.887,379.969,122.467Z" transform="translate(-356.93 -115.066)" fill="#263238"/>
        <path id="Trazado_140619" data-name="Trazado 140619" d="M420.21,124.34a3.709,3.709,0,0,1,.456.456,3.353,3.353,0,0,1,.725,1.569,5.817,5.817,0,0,1,.123,1.2c0,.456-.032.912-.068,1.4a12.392,12.392,0,0,0-.032,1.551,5.128,5.128,0,0,0,.1.821,1.734,1.734,0,0,0,.333.794.716.716,0,0,0,.671.224,1.049,1.049,0,0,0,.6-.338,2.423,2.423,0,0,0,.456-1.2h-.1a3.883,3.883,0,0,0,.575.994,1.419,1.419,0,0,0,.912.5.912.912,0,0,0,.488-.087.8.8,0,0,0,.333-.328.862.862,0,0,0,.1-.42.579.579,0,0,0-.155-.365l-.05.046a3.066,3.066,0,0,0,1.017.762,2.742,2.742,0,0,0,.315.123l.114.027-.1-.046c-.073-.032-.178-.073-.306-.137a3.193,3.193,0,0,1-.985-.776l-.05.046a.607.607,0,0,1,.032.7.693.693,0,0,1-.3.287.807.807,0,0,1-.456.073,1.328,1.328,0,0,1-.858-.456,3.934,3.934,0,0,1-.552-.972l-.068-.151-.032.164a2.4,2.4,0,0,1-.456,1.15.994.994,0,0,1-.538.3.607.607,0,0,1-.57-.187,1.583,1.583,0,0,1-.306-.744,5.478,5.478,0,0,1-.109-.8,12.258,12.258,0,0,1,.032-1.542c.027-.493.059-.958.055-1.4a5.848,5.848,0,0,0-.137-1.218,3.362,3.362,0,0,0-.771-1.588A1.825,1.825,0,0,0,420.21,124.34Z" transform="translate(-378.828 -120.109)" fill="#455a64"/>
        <path id="Trazado_140620" data-name="Trazado 140620" d="M388.1,125.781l.041.032a1.009,1.009,0,0,0,.119.087,1.174,1.174,0,0,0,.2.132,3.244,3.244,0,0,0,.287.151,4.2,4.2,0,0,0,2.025.365,5.369,5.369,0,0,0,2.856-1.058,9.169,9.169,0,0,0,2.454-2.828c.347-.57.625-1.159.912-1.7a6.387,6.387,0,0,1,1.095-1.442,3.239,3.239,0,0,1,1.369-.83,2.322,2.322,0,0,1,.721-.082,2.5,2.5,0,0,1,.648.137,2.737,2.737,0,0,1,.99.593,2.7,2.7,0,0,1,.534.693,2.97,2.97,0,0,1,.242.712s0,0,0-.05a.347.347,0,0,0-.023-.146,2.225,2.225,0,0,0-.182-.534,2.737,2.737,0,0,0-1.533-1.341,2.683,2.683,0,0,0-.68-.141,2.5,2.5,0,0,0-.748.082,3.289,3.289,0,0,0-1.41.844,6.191,6.191,0,0,0-1.081,1.46c-.315.547-.6,1.131-.935,1.7a9.265,9.265,0,0,1-2.422,2.8,5.315,5.315,0,0,1-2.8,1.063,4.247,4.247,0,0,1-2-.328,6.175,6.175,0,0,1-.675-.37Z" transform="translate(-361.366 -116.947)" fill="#455a64"/>
        <path id="Trazado_140621" data-name="Trazado 140621" d="M387.16,129.868a1.137,1.137,0,0,0,.169.119,3.8,3.8,0,0,0,.5.255,4.831,4.831,0,0,0,.8.26,5.271,5.271,0,0,0,1.017.137,5.647,5.647,0,0,0,1.026-.068,4.788,4.788,0,0,0,.807-.21,3.7,3.7,0,0,0,.52-.224.938.938,0,0,0,.178-.1s-.269.114-.721.255a6.253,6.253,0,0,1-.8.182,6.355,6.355,0,0,1-1,.059,6.428,6.428,0,0,1-1-.123,5.472,5.472,0,0,1-.789-.237C387.425,130,387.169,129.85,387.16,129.868Z" transform="translate(-360.855 -123.115)" fill="#455a64"/>
        <path id="Trazado_140622" data-name="Trazado 140622" d="M395.633,143.858c.091.1.639-.347,1.432-.365s1.369.365,1.469.265-.059-.224-.315-.4a2.012,2.012,0,0,0-1.182-.338,1.925,1.925,0,0,0-1.136.415C395.66,143.635,395.583,143.813,395.633,143.858Z" transform="translate(-365.455 -130.266)" fill="#263238"/>
        <path id="Trazado_140623" data-name="Trazado 140623" d="M397.42,149.025a.643.643,0,0,0,.661.6.616.616,0,0,0,.62-.625.648.648,0,0,0-.666-.6.616.616,0,0,0-.616.625Z" transform="translate(-366.435 -133.193)" fill="#263238"/>
        <path id="Trazado_140624" data-name="Trazado 140624" d="M427.55,148.641c.078-.041,3.193-1.2,3.316,2.044s-3.152,2.705-3.161,2.614S427.55,148.641,427.55,148.641Z" transform="translate(-382.82 -133.197)" fill="#ffbf9d"/>
        <path id="Trazado_140625" data-name="Trazado 140625" d="M429.986,153.271a1.306,1.306,0,0,0,.155.078.588.588,0,0,0,.424,0,1.4,1.4,0,0,0,.593-1.282,1.825,1.825,0,0,0-.187-.8.648.648,0,0,0-.456-.415.292.292,0,0,0-.324.169c-.041.091,0,.155-.036.164s-.068-.05-.05-.187a.4.4,0,0,1,.119-.21.456.456,0,0,1,.31-.1.8.8,0,0,1,.611.479,1.9,1.9,0,0,1,.233.912,1.473,1.473,0,0,1-.766,1.432.607.607,0,0,1-.52-.064C429.986,153.348,429.954,153.275,429.986,153.271Z" transform="translate(-384.138 -134.438)" fill="#ff9a6c"/>
        <path id="Trazado_140626" data-name="Trazado 140626" d="M409.372,158.42c.027,0,.027.192-.082.456a1.989,1.989,0,0,1-.748.867,1.825,1.825,0,0,1-1.086.31A.723.723,0,0,1,407,159.9a2.433,2.433,0,0,1,.456,0,2.075,2.075,0,0,0,.976-.328,2.308,2.308,0,0,0,.725-.744C409.281,158.579,409.336,158.41,409.372,158.42Z" transform="translate(-371.644 -138.642)" fill="#263238"/>
        <path id="Trazado_140627" data-name="Trazado 140627" d="M437.928,439.59l.967,10.948,3.431,8.467a1.113,1.113,0,0,1-.776,1.478h0a1.236,1.236,0,0,1-1.077-.182c-1.957-1.423-9.014-6.66-9.092-7.34-.1-.885-1.9-11.665-1.9-11.665Z" transform="translate(-383.869 -291.548)" fill="#455a64"/>
        <path id="Trazado_140628" data-name="Trazado 140628" d="M443.644,474.962,433.28,466.19l.1.812c.068.456.078.684.388.963a98.118,98.118,0,0,0,8.667,7,1.4,1.4,0,0,0,1.186,0Z" transform="translate(-385.936 -306.013)" fill="#263238"/>
        <path id="Trazado_140629" data-name="Trazado 140629" d="M436.526,458.62a.666.666,0,0,1,.3.867.725.725,0,0,1-.912.287.7.7,0,0,1-.31-.912.748.748,0,0,1,.981-.2" transform="translate(-387.165 -301.864)" fill="#fff"/>
        <path id="Trazado_140630" data-name="Trazado 140630" d="M448.917,473.812c.068.027.265-.575.912-.949a3.968,3.968,0,0,1,1.309-.379c0-.027-.151-.1-.424-.1a1.971,1.971,0,0,0-1.026.278,1.784,1.784,0,0,0-.7.748C448.886,473.644,448.886,473.808,448.917,473.812Z" transform="translate(-394.43 -309.379)" fill="#263238"/>
        <path id="Trazado_140631" data-name="Trazado 140631" d="M451.112,477.42c.059.046.392-.351.976-.57a9.307,9.307,0,0,1,1.122-.251,1.4,1.4,0,0,0-1.218.027C451.326,476.882,451.057,477.4,451.112,477.42Z" transform="translate(-395.629 -311.605)" fill="#263238"/>
        <path id="Trazado_140632" data-name="Trazado 140632" d="M445.087,469.886a11.668,11.668,0,0,1,1.446-.981,12.428,12.428,0,0,1,1.683-.552,2.792,2.792,0,0,0-1.8.338A2.647,2.647,0,0,0,445.087,469.886Z" transform="translate(-392.355 -307.173)" fill="#263238"/>
        <path id="Trazado_140633" data-name="Trazado 140633" d="M443.8,463.7c.036.064.652-.255,1.483-.365s1.519,0,1.537-.059a2.431,2.431,0,0,0-1.574-.182A2.368,2.368,0,0,0,443.8,463.7Z" transform="translate(-391.657 -304.298)" fill="#263238"/>
        <path id="Trazado_140634" data-name="Trazado 140634" d="M443,456.654a4.033,4.033,0,0,1,3.12-.21c0-.027-.123-.151-.411-.269a2.737,2.737,0,0,0-1.191-.182,2.6,2.6,0,0,0-1.15.342C443.091,456.489,442.968,456.631,443,456.654Z" transform="translate(-391.217 -300.464)" fill="#263238"/>
        <path id="Trazado_140635" data-name="Trazado 140635" d="M444.009,452.761a1.2,1.2,0,0,0-.027-.415,2.875,2.875,0,0,0-.456-1.049,1.341,1.341,0,0,0-.648-.552.506.506,0,0,0-.529.155.689.689,0,0,0-.128.515,1.66,1.66,0,0,0,1.642,1.318,1.971,1.971,0,0,0,1.825-1.154.611.611,0,0,0-.027-.534.5.5,0,0,0-.52-.187,1.738,1.738,0,0,0-.725.456,3.315,3.315,0,0,0-.7.912.985.985,0,0,0-.137.4,5.273,5.273,0,0,1,.963-1.2,1.578,1.578,0,0,1,.639-.383.26.26,0,0,1,.283.1.424.424,0,0,1,0,.351,1.761,1.761,0,0,1-1.583.985,1.451,1.451,0,0,1-1.414-1.1.5.5,0,0,1,.073-.36.269.269,0,0,1,.292-.087,1.223,1.223,0,0,1,.561.456A4.106,4.106,0,0,1,444.009,452.761Z" transform="translate(-390.794 -297.602)" fill="#263238"/>
        <path id="Trazado_140636" data-name="Trazado 140636" d="M376.062,440.716,376.49,450s-9.895,3.531-9.99,5.255l19.182-.141-.041-14.493Z" transform="translate(-349.62 -292.108)" fill="#455a64"/>
        <path id="Trazado_140637" data-name="Trazado 140637" d="M400.3,459.341a.735.735,0,0,1,.547.839.753.753,0,0,1-.876.516.771.771,0,0,1-.575-.885.794.794,0,0,1,.976-.456" transform="translate(-367.502 -302.276)" fill="#e0e0e0"/>
        <path id="Trazado_140638" data-name="Trazado 140638" d="M385.673,470.65l-.064-1.46-18.37.68s-.848.356-.748.912Z" transform="translate(-349.61 -307.645)" fill="#263238"/>
        <path id="Trazado_140639" data-name="Trazado 140639" d="M387.719,460.9c0,.087.456.123.912.4s.712.648.8.611-.059-.543-.625-.871S387.7,460.812,387.719,460.9Z" transform="translate(-361.159 -303.089)" fill="#263238"/>
        <path id="Trazado_140640" data-name="Trazado 140640" d="M383.32,462.689c0,.087.388.233.707.6s.42.766.511.762.151-.506-.26-.958S383.325,462.606,383.32,462.689Z" transform="translate(-358.767 -304.09)" fill="#263238"/>
        <path id="Trazado_140641" data-name="Trazado 140641" d="M379.952,465.9c.087,0,.21-.42-.032-.912s-.684-.666-.725-.593.237.328.429.725S379.861,465.892,379.952,465.9Z" transform="translate(-356.521 -305.026)" fill="#263238"/>
        <path id="Trazado_140642" data-name="Trazado 140642" d="M388.049,455.953c.041.082.456-.041,1,0s.944.182.99.109-.347-.388-.972-.415S388.026,455.885,388.049,455.953Z" transform="translate(-361.338 -300.279)" fill="#263238"/>
        <path id="Trazado_140643" data-name="Trazado 140643" d="M380.14,291.874c0,.534,2.226,74.746,2.226,74.746h11.861l2.4-63.482s2.806,33.192,2.806,33.908,2.473,29.93,2.473,29.93l10.994-.844-.725-66.813-1.341-9.8Z" transform="translate(-357.037 -209.937)" fill="#263238"/>
        <path id="Trazado_140644" data-name="Trazado 140644" d="M416.23,304.709a1.915,1.915,0,0,1-.479.192c-.315.109-.776.26-1.341.456l-.1.032v-.1c-.064-.89-.141-2.085-.21-3.394-.078-1.419-.132-2.7-.16-3.649,0-.456-.023-.844-.023-1.1a1.228,1.228,0,0,1,.027-.406,1.619,1.619,0,0,1,.064.4c.032.26.064.639.1,1.1.073.912.155,2.212.228,3.649.073,1.309.123,2.5.151,3.4l-.114-.073c.575-.16,1.04-.287,1.369-.37A2.637,2.637,0,0,1,416.23,304.709Z" transform="translate(-375.4 -213.858)" fill="#455a64"/>
        <path id="Trazado_140645" data-name="Trazado 140645" d="M416.375,297.089a.3.3,0,0,1,.16-.1.771.771,0,0,1,.52.046.607.607,0,0,1,.4.607.757.757,0,0,1-.62.675.912.912,0,0,1-.876-.37.648.648,0,0,1,0-.707.789.789,0,0,1,.392-.306c.119-.041.187-.032.192-.023a.907.907,0,0,0-.433.4.493.493,0,0,0,.027.538.684.684,0,0,0,.643.265.575.575,0,0,0,.456-.456.456.456,0,0,0-.26-.456.981.981,0,0,0-.6-.109Z" transform="translate(-376.457 -213.952)" fill="#455a64"/>
        <path id="Trazado_140646" data-name="Trazado 140646" d="M428.669,297.26c-.064,0-.155-.319-.2-.721s-.032-.734.032-.739.155.315.2.716S428.733,297.26,428.669,297.26Z" transform="translate(-383.304 -213.352)" fill="#455a64"/>
        <path id="Trazado_140647" data-name="Trazado 140647" d="M430.6,296.983c-.064,0-.119-.342-.119-.766s.046-.766.114-.766.119.342.119.766S430.667,296.983,430.6,296.983Z" transform="translate(-384.413 -213.162)" fill="#455a64"/>
        <path id="Trazado_140648" data-name="Trazado 140648" d="M399.093,297.853a1.8,1.8,0,0,1-.224-.858,1.948,1.948,0,0,1,0-.885,1.914,1.914,0,0,1,.224.862C399.152,297.456,399.156,297.848,399.093,297.853Z" transform="translate(-367.199 -213.521)" fill="#455a64"/>
        <path id="Trazado_140649" data-name="Trazado 140649" d="M401.234,297.915a1.291,1.291,0,0,1-.292-.912,1.278,1.278,0,0,1,.205-.912c.068,0,0,.42.032.912S401.3,297.9,401.234,297.915Z" transform="translate(-368.342 -213.51)" fill="#455a64"/>
        <path id="Trazado_140650" data-name="Trazado 140650" d="M387.137,297.92a.963.963,0,0,1-.041.324,6.059,6.059,0,0,1-.237.871,9.087,9.087,0,0,1-1.469,2.646,10.137,10.137,0,0,1-2.317,2.108,7.993,7.993,0,0,1-.839.484,1.641,1.641,0,0,1-.333.141c0-.027.429-.265,1.081-.734a11.109,11.109,0,0,0,2.235-2.108,10.4,10.4,0,0,0,1.5-2.577C387,298.367,387.1,297.911,387.137,297.92Z" transform="translate(-357.995 -214.505)" fill="#455a64"/>
        <path id="Trazado_140651" data-name="Trazado 140651" d="M441.5,303.578a1.326,1.326,0,0,1-.36.055,6.3,6.3,0,0,1-.994,0,6.788,6.788,0,0,1-3.038-1.058,5.8,5.8,0,0,1-2.021-2.281,4.227,4.227,0,0,1-.31-.844.853.853,0,0,1-.05-.319c.036,0,.137.456.5,1.109a6.131,6.131,0,0,0,2.012,2.185,7.121,7.121,0,0,0,2.929,1.077C440.984,303.591,441.5,303.541,441.5,303.578Z" transform="translate(-386.724 -215.163)" fill="#455a64"/>
        <path id="Trazado_140652" data-name="Trazado 140652" d="M396.832,388.775c0,.05-1.98-.379-4.388-.949s-4.352-1.081-4.334-1.131,1.98.374,4.388.949S396.846,388.725,396.832,388.775Z" transform="translate(-361.372 -262.78)" fill="#455a64"/>
        <path id="Trazado_140653" data-name="Trazado 140653" d="M439.881,385.338c.027.046-1.683.935-3.818,1.993s-3.9,1.875-3.923,1.825,1.683-.94,3.818-1.994S439.854,385.292,439.881,385.338Z" transform="translate(-385.316 -262.043)" fill="#455a64"/>
        <path id="Trazado_140654" data-name="Trazado 140654" d="M360.309,237.094l1.619,2.03v-3.49h5.109s.566,7.988.456,9.689a13.449,13.449,0,0,1-.625,2.6,3,3,0,0,1-4.972,1.241,17.635,17.635,0,0,1-1.6-1.779,96.336,96.336,0,0,1-6.04-10.036L358.2,235Z" transform="translate(-342.964 -180.288)" fill="#ffbf9d"/>
        <path id="Trazado_140655" data-name="Trazado 140655" d="M366.81,238.768a6.042,6.042,0,0,0,.666.912c.456.534,1.031,1.268,1.711,2.062s1.328,1.5,1.825,1.975a3.723,3.723,0,0,0,.867.7,8.6,8.6,0,0,0-.748-.821c-.456-.5-1.086-1.218-1.765-2.012A23.859,23.859,0,0,0,366.81,238.768Z" transform="translate(-349.788 -182.336)" fill="#ff9a6c"/>
        <path id="Trazado_140656" data-name="Trazado 140656" d="M393.06,182.608l5.388-2.117,9.922-.561,4.662,1.775-6.391,3.549-5.511-.2Z" transform="translate(-364.064 -150.34)" fill="#ffbf9d"/>
        <path id="Trazado_140657" data-name="Trazado 140657" d="M372.534,233.268c.488.082,33,1.464,33,1.464l-1.122-29.246-.1-5.739-1.825-17.385s-4.863-1.674-7.34-2.473a10.557,10.557,0,0,1-7.573,2.646c-4.849-.068-5.862-1.163-5.862-1.163l-6.779,2.6s-4.822,1.729-5.652,3.864S367,201.773,367,201.773h7.03l-.187,20.971Z" transform="translate(-349.892 -150.318)" fill="#455a64"/>
        <g id="Grupo_114520" data-name="Grupo 114520" transform="translate(43.083 43.572)" opacity="0.2">
          <path id="Trazado_140658" data-name="Trazado 140658" d="M423.94,210.945l1.008,7.372,4.877,2.176,3.6-3.07V210.58l-9.489.365" transform="translate(-423.94 -210.58)"/>
        </g>
        <path id="Trazado_140659" data-name="Trazado 140659" d="M433.665,215.847c0,.059-2.025.109-4.525.109s-4.53-.05-4.53-.109a89.931,89.931,0,0,1,9.055,0Z" transform="translate(-381.221 -169.802)" fill="#263238"/>
        <path id="Trazado_140660" data-name="Trazado 140660" d="M374.33,204a1.34,1.34,0,0,1,.055.2c.032.146.073.328.128.561a18.564,18.564,0,0,0,.648,2.076c.324.871.78,1.9,1.341,3.047a35.606,35.606,0,0,1,1.505,3.982h0c0,1.752,0,3.649-.036,5.67-.046,4.471-.091,8.517-.119,11.468-.027,1.451-.046,2.632-.064,3.476q0,.588-.027.944a1.864,1.864,0,0,1-.023.328,2.341,2.341,0,0,1,0-.333V231c0-2.952.036-7,.059-11.464,0-2,.036-3.919.05-5.67v.032c-.488-1.46-.958-2.815-1.469-3.978a32.165,32.165,0,0,1-1.3-3.075,16.047,16.047,0,0,1-.6-2.1c-.046-.251-.082-.456-.1-.575A.95.95,0,0,1,374.33,204Z" transform="translate(-353.878 -163.43)" fill="#263238"/>
        <path id="Trazado_140661" data-name="Trazado 140661" d="M449.028,196.52a4.108,4.108,0,0,1,0,.625c0,.456-.036,1.013-.064,1.7-.059,1.469-.137,3.43-.224,5.6s-.187,4.133-.251,5.6c-.041.684-.073,1.254-.1,1.7a3.192,3.192,0,0,1-.064.62,3.956,3.956,0,0,1,0-.625c0-.456,0-1.013.032-1.7.036-1.437.1-3.417.192-5.6s.192-4.17.283-5.6c.046-.716.091-1.3.132-1.7A3.541,3.541,0,0,1,449.028,196.52Z" transform="translate(-394.111 -159.362)" fill="#263238"/>
        <g id="Grupo_114521" data-name="Grupo 114521" transform="translate(20.461 41.642)" opacity="0.3">
          <path id="Trazado_140662" data-name="Trazado 140662" d="M374.359,206.35a12.2,12.2,0,0,0,3.193,8.709C376.891,212.043,375.24,209.238,374.359,206.35Z" transform="translate(-374.35 -206.35)"/>
        </g>
        <g id="Grupo_114522" data-name="Grupo 114522" transform="translate(34.749 58.649)" opacity="0.3">
          <path id="Trazado_140663" data-name="Trazado 140663" d="M405.67,255.559a6.085,6.085,0,0,0,3.9-2.171,18.489,18.489,0,0,0,2.623-3.791,14.945,14.945,0,0,0,1.533-5.967A28.091,28.091,0,0,1,405.67,255.559Z" transform="translate(-405.67 -243.63)"/>
        </g>
        <path id="Trazado_140664" data-name="Trazado 140664" d="M412.615,238.78a.968.968,0,0,1-.027.187c-.032.146-.073.319-.119.529s-.119.506-.219.826-.2.684-.342,1.081a24.921,24.921,0,0,1-1.122,2.737,26.153,26.153,0,0,1-3.992,6.008,22.812,22.812,0,0,1-2.1,2.08c-.306.287-.611.515-.871.725s-.488.379-.684.511l-.456.306c-.1.064-.16.1-.164.091a.753.753,0,0,1,.137-.128l.424-.338c.187-.137.411-.315.661-.534s.547-.456.849-.744a26.835,26.835,0,0,0,2.048-2.1,30.87,30.87,0,0,0,2.176-2.856,31.658,31.658,0,0,0,1.788-3.107,28.014,28.014,0,0,0,1.154-2.7c.155-.388.265-.753.37-1.067s.192-.588.255-.812.109-.374.155-.516S412.606,238.775,412.615,238.78Z" transform="translate(-369.208 -182.343)" fill="#263238"/>
        <path id="Trazado_140665" data-name="Trazado 140665" d="M404.617,218.72a2.311,2.311,0,0,1-.041.3c-.036.214-.087.5-.146.848s-.151.817-.283,1.332-.251,1.113-.456,1.752c-.091.319-.192.657-.3,1.008s-.242.707-.37,1.077c-.242.753-.57,1.528-.912,2.349a39.077,39.077,0,0,1-5.976,9.8c-.579.666-1.122,1.314-1.679,1.87-.274.283-.529.566-.794.817s-.515.5-.762.725c-.456.456-.949.853-1.369,1.2s-.757.634-1.058.858l-.689.52a1.258,1.258,0,0,1-.246.169,1.584,1.584,0,0,1,.219-.2l.661-.552c.292-.233.648-.52,1.036-.88s.858-.744,1.327-1.223l.748-.73c.26-.255.511-.538.78-.821.552-.561,1.086-1.209,1.661-1.879a40.291,40.291,0,0,0,5.967-9.753c.338-.817.666-1.583.912-2.327.132-.374.269-.725.379-1.072s.21-.68.31-1c.21-.634.342-1.223.484-1.738s.242-.958.315-1.323.141-.625.187-.839a1.414,1.414,0,0,1,.091-.292Z" transform="translate(-362.149 -171.435)" fill="#263238"/>
        <path id="Trazado_140666" data-name="Trazado 140666" d="M346.358,196.557l12.518,19.032a.561.561,0,0,1-.543.867l-14.415-1.825a.575.575,0,0,1-.383-.228l-13.768-18.8a.566.566,0,0,1,.5-.912l14.831,1.095a1.67,1.67,0,0,1,1.264.776Z" transform="translate(-329.578 -158.364)" fill="#e0e0e0"/>
        <path id="Trazado_140667" data-name="Trazado 140667" d="M346.277,196.511a.883.883,0,0,0-.114-.173,1.666,1.666,0,0,0-.456-.392,2.048,2.048,0,0,0-.963-.233l-1.332-.109-8.549-.671-2.833-.219-1.505-.114h-.4a.648.648,0,0,0-.415.169.661.661,0,0,0-.109.848l4.005,5.5c2.828,3.864,5.93,8.111,9.192,12.572.21.278.4.547.625.839a.652.652,0,0,0,.255.173.993.993,0,0,0,.278.055l.511.064,2.016.255,3.941.493,7.454.912c.155,0,.283.041.456.05a.67.67,0,0,0,.479-.2.693.693,0,0,0,.2-.456.771.771,0,0,0-.173-.456l-.967-1.478-1.825-2.737-3.266-4.94c-2-3.006-3.613-5.447-4.74-7.139l-1.3-1.939c-.146-.21-.26-.379-.347-.5a1.367,1.367,0,0,0-.123-.169,1.761,1.761,0,0,0,.1.182l.324.511c.292.456.716,1.118,1.259,1.962l4.68,7.185,3.243,4.954,1.825,2.76.949,1.446a.574.574,0,0,1,.137.342.484.484,0,0,1-.137.319.456.456,0,0,1-.319.132c-.123,0-.292-.036-.433-.05l-7.468-.953-3.941-.5-2.016-.255-.506-.064a1.159,1.159,0,0,1-.224-.041.456.456,0,0,1-.169-.114c-.2-.274-.4-.543-.6-.821-3.266-4.452-6.387-8.695-9.206-12.559-1.419-1.925-2.76-3.759-4.019-5.474a.456.456,0,0,1,.365-.716,2.164,2.164,0,0,1,.374.023L332,194.9l2.837.2,8.576.593,1.341.091a1.971,1.971,0,0,1,.944.205A1.824,1.824,0,0,1,346.277,196.511Z" transform="translate(-329.497 -158.318)" fill="#263238"/>
        <path id="Trazado_140668" data-name="Trazado 140668" d="M329.91,196.717a1.5,1.5,0,0,0,.3.046l.876.091,3.257.287,11.076.912-.087-.05c.693,1.031,1.41,2.1,2.126,3.193,2.924,4.493,5.474,8.626,7.4,11.564.958,1.473,1.756,2.65,2.313,3.462l.648.912a1.943,1.943,0,0,0,.242.31,3.271,3.271,0,0,0-.2-.338l-.611-.953-2.249-3.5c-1.889-2.961-4.42-7.1-7.345-11.6-.716-1.109-1.437-2.176-2.135-3.193l-.032-.046h-.032L334.381,197l-3.262-.219-.88-.05A2.207,2.207,0,0,0,329.91,196.717Z" transform="translate(-329.722 -159.468)" fill="#263238"/>
        <path id="Trazado_140669" data-name="Trazado 140669" d="M349.5,202.62Z" transform="translate(-340.375 -162.679)" fill="#fff"/>
        <path id="Trazado_140670" data-name="Trazado 140670" d="M348.717,202.822a.287.287,0,0,1,.356-.214.8.8,0,0,1,.388.214.392.392,0,0,1,.068.5c-.141.178-.456.109-.611-.036a.516.516,0,0,1-.2-.461Z" transform="translate(-339.948 -162.667)" fill="#fff"/>
        <path id="Trazado_140671" data-name="Trazado 140671" d="M353.34,224.562s.566-1.369-.876-1.533a50.42,50.42,0,0,0-5.232,0s-2.076.219-1.638,1.706c0,0-1.223,1.095-.566,2.281s.912.83.912.83-.173,1.446.912,1.66c0,0,1.186,1.4,2.281,1.314a23.247,23.247,0,0,0,6.031-2.737c.306-.42.744-.684.484-1.172,0,0,.566-1.282-.657-1.478C355,225.41,354.914,224.347,353.34,224.562Z" transform="translate(-337.838 -173.741)" fill="#ffbf9d"/>
        <path id="Trazado_140672" data-name="Trazado 140672" d="M349.06,226.844a3.75,3.75,0,0,0,.976.073h2.349a13.628,13.628,0,0,0,2.363-.137c.62-.146.867-.511.839-.52a2.586,2.586,0,0,1-.876.351c-.57.1-1.414.037-2.331.068s-1.747.041-2.349.068A4.074,4.074,0,0,0,349.06,226.844Z" transform="translate(-340.136 -175.535)" fill="#ff9a6c"/>
        <path id="Trazado_140673" data-name="Trazado 140673" d="M351.32,229.684a.8.8,0,0,0,.315.1,3.38,3.38,0,0,0,.912.059,6.319,6.319,0,0,0,1.314-.242c.484-.132,1-.319,1.542-.484a6.967,6.967,0,0,1,1.556-.324,2.358,2.358,0,0,0,1.323-.265.762.762,0,0,0,.315-.456.62.62,0,0,0-.055-.411c-.114-.205-.269-.219-.265-.21a.512.512,0,0,1,.178.251.561.561,0,0,1-.269.68,2.4,2.4,0,0,1-1.241.187,6.419,6.419,0,0,0-1.61.31l-1.533.506a7.937,7.937,0,0,1-1.268.283A10.031,10.031,0,0,1,351.32,229.684Z" transform="translate(-341.365 -176.185)" fill="#ff9a6c"/>
        <path id="Trazado_140674" data-name="Trazado 140674" d="M354.72,233.882a3.773,3.773,0,0,0,.976-.187c.593-.151,1.405-.383,2.281-.671s1.679-.584,2.244-.817a3.854,3.854,0,0,0,.912-.424c-.027-.064-1.451.456-3.193,1.008A31.609,31.609,0,0,0,354.72,233.882Z" transform="translate(-343.213 -178.536)" fill="#ff9a6c"/>
        <path id="Trazado_140675" data-name="Trazado 140675" d="M353.91,237.725a2.044,2.044,0,0,0,.807-.091,9.7,9.7,0,0,0,1.848-.652c.693-.315,1.3-.639,1.738-.871a2.814,2.814,0,0,0,.693-.42,15.639,15.639,0,0,0-2.532,1.072C355.1,237.419,353.9,237.656,353.91,237.725Z" transform="translate(-342.773 -180.663)" fill="#ff9a6c"/>
        <path id="Trazado_140676" data-name="Trazado 140676" d="M427.391,201.788s-2.947,11.806-6.628,16.167c-3.567,4.224-9.156,2.281-11.09-3.193s-5.383-17.933-5.383-17.933l4.233-3.239,7.3,14.183,3.3-9.667Z" transform="translate(-370.171 -157.769)" fill="#ffbf9d"/>
        <path id="Trazado_140677" data-name="Trazado 140677" d="M398.124,184.576l-3.107-4.5a7.851,7.851,0,0,1-1.323-.411c-.351-.205-.7-1.993-.689-2.34s-.6-1.163-.356-1.4,1.077-.246,1.031-.579c0-.073-.616-.821-.132-1.369a2.587,2.587,0,0,1,.876-.37l-.05-1.72s.912-2.025,1.875-1.291c0,0,3.572,2.737,3.932,3.193a67.353,67.353,0,0,1,1.98,7.226" transform="translate(-363.809 -145.178)" fill="#ffbf9d"/>
        <path id="Trazado_140678" data-name="Trazado 140678" d="M402.026,180.893a1.492,1.492,0,0,0-.046-.3c-.05-.219-.109-.5-.187-.858-.164-.748-.415-1.825-.753-3.152-.173-.666-.36-1.369-.6-2.167-.059-.192-.123-.388-.205-.588a1.336,1.336,0,0,0-.42-.515c-.328-.287-.671-.57-1.022-.858-.707-.57-1.46-1.163-2.24-1.77a2.735,2.735,0,0,0-.657-.433.912.912,0,0,0-.8.192,3.718,3.718,0,0,0-.953,1.286h0v.552c0,.4,0,.8.036,1.2l.082-.109a3.92,3.92,0,0,0-.63.21.981.981,0,0,0-.306.2.885.885,0,0,0-.173.315,1.058,1.058,0,0,0,.055.684,1.767,1.767,0,0,0,.141.3l.078.132v.032h0a.077.077,0,0,1,0,.032c0,.036-.091.091-.178.123s-.182.064-.278.1a2.74,2.74,0,0,0-.292.1.552.552,0,0,0-.3.21.484.484,0,0,0,0,.365,1.955,1.955,0,0,0,.1.287c.078.182.164.356.228.525a.707.707,0,0,1,.055.242,1.984,1.984,0,0,0,.027.292c.027.187.059.37.1.552a7.518,7.518,0,0,0,.287,1.036,1.369,1.369,0,0,0,.274.479,1.693,1.693,0,0,0,.484.214c.315.1.625.173.912.242l-.05-.032,2.281,3.266.639.885a2.34,2.34,0,0,0,.237.3,3.054,3.054,0,0,0-.2-.328l-.6-.912c-.543-.807-1.3-1.934-2.24-3.312v-.027h0c-.292-.073-.6-.155-.912-.251a1.67,1.67,0,0,1-.415-.182,1.219,1.219,0,0,1-.219-.406,7.013,7.013,0,0,1-.274-1.013c-.036-.178-.068-.356-.1-.538v-.265a.962.962,0,0,0-.064-.31c-.068-.187-.155-.36-.228-.538a1.494,1.494,0,0,1-.1-.26.306.306,0,0,1,0-.21.419.419,0,0,1,.192-.114,2.487,2.487,0,0,1,.278-.091c.1-.032.2-.059.3-.1a.5.5,0,0,0,.292-.242.265.265,0,0,0,.023-.119.187.187,0,0,0-.023-.082v-.036l-.078-.132a2.064,2.064,0,0,1-.128-.269.862.862,0,0,1-.046-.543.6.6,0,0,1,.128-.237.785.785,0,0,1,.233-.141,3.939,3.939,0,0,1,.593-.2l.082-.023v-.087c0-.392-.023-.789-.036-1.191v-.474a3.476,3.476,0,0,1,.88-1.2.671.671,0,0,1,.611-.16,2.7,2.7,0,0,1,.589.392c.785.607,1.537,1.2,2.244,1.761.356.283.7.561,1.022.839a1.149,1.149,0,0,1,.379.456c.078.187.141.383.205.57.242.766.456,1.492.62,2.149.342,1.309.625,2.372.821,3.134.1.351.169.634.224.848a1.433,1.433,0,0,0,0,.3Z" transform="translate(-363.673 -145.062)" fill="#ff9a6c"/>
        <path id="Trazado_140679" data-name="Trazado 140679" d="M396.61,177.251c0,.036.36,0,.912.064a6.958,6.958,0,0,1,.976.224,4.5,4.5,0,0,0,1.264,0,2.39,2.39,0,0,1,1.994.648,2.633,2.633,0,0,1,.479.762,1.186,1.186,0,0,0-.365-.871,2.35,2.35,0,0,0-.858-.6,2.632,2.632,0,0,0-1.264-.16,4.891,4.891,0,0,1-1.209,0,5.286,5.286,0,0,0-1.008-.178A2.363,2.363,0,0,0,396.61,177.251Z" transform="translate(-365.994 -148.819)" fill="#ff9a6c"/>
        <path id="Trazado_140680" data-name="Trazado 140680" d="M399.291,176.062c.05.027.2-.182.178-.479s-.187-.484-.233-.456,0,.228,0,.456S399.231,176.039,399.291,176.062Z" transform="translate(-367.411 -147.727)" fill="#ff9a6c"/>
        <path id="Trazado_140681" data-name="Trazado 140681" d="M394.74,180.667a7.842,7.842,0,0,0,2.691-.21,2.66,2.66,0,0,1,.99-.128,1.077,1.077,0,0,1,.643.424,5.325,5.325,0,0,1,.356.671,1.218,1.218,0,0,0-.224-.775,1.186,1.186,0,0,0-.73-.529,2.55,2.55,0,0,0-1.077.1C395.944,180.553,394.74,180.6,394.74,180.667Z" transform="translate(-364.977 -150.434)" fill="#ff9a6c"/>
        <path id="Trazado_140682" data-name="Trazado 140682" d="M393.7,184.189a1.455,1.455,0,0,0,.661,0c.406-.046.953-.187,1.546-.306a3.466,3.466,0,0,1,.835-.082.972.972,0,0,1,.6.219.985.985,0,0,1,.3.525.317.317,0,0,0,.036-.182.743.743,0,0,0-.224-.456,1.067,1.067,0,0,0-.689-.306,3.193,3.193,0,0,0-.912.068c-.611.119-1.14.283-1.533.365A3.125,3.125,0,0,0,393.7,184.189Z" transform="translate(-364.412 -152.332)" fill="#ff9a6c"/>
        <path id="Trazado_140683" data-name="Trazado 140683" d="M396,187.72c-.036.027.269.347.826.347l-.109-.1a.884.884,0,0,0,.032.287,3.194,3.194,0,0,0,.255,1.136,3.107,3.107,0,0,0-.036-1.159l-.041-.287v-.1h-.1A3.782,3.782,0,0,1,396,187.72Z" transform="translate(-365.659 -154.576)" fill="#ff9a6c"/>
        <path id="Trazado_140684" data-name="Trazado 140684" d="M436.449,185.35s6.035,1.46,6.022,9.466-1.825,11.957-1.825,11.957L429.52,200.7l2.5-6.218Z" transform="translate(-383.891 -153.288)" fill="#455a64"/>
        <path id="Trazado_140685" data-name="Trazado 140685" d="M440.472,208.763a.954.954,0,0,1-.228-.1l-.648-.328-2.372-1.25-7.933-4.274-.091-.046.036-.1.6-1.56c.712-1.848,1.369-3.608,2.007-5.21q.465-1.2.88-2.281a13.781,13.781,0,0,1,.88-1.943,6.049,6.049,0,0,1,2.007-2.322,2.39,2.39,0,0,1,.785-.315,1.288,1.288,0,0,1,.214-.027h.078a3.047,3.047,0,0,0-1.026.42,6.049,6.049,0,0,0-1.911,2.327,14.47,14.47,0,0,0-.844,1.93q-.4,1.074-.862,2.281l-1.989,5.219-.6,1.56-.055-.146,7.919,4.347,2.336,1.314.625.365a1.078,1.078,0,0,1,.192.137Z" transform="translate(-383.717 -155.278)" fill="#263238"/>
      </g>
    </g>
  </g>
</svg>
