<svg xmlns="http://www.w3.org/2000/svg" width="340.539" height="324.825" viewBox="0 0 340.539 324.825">
  <g id="Banknote-pana" transform="translate(-14 -30.2)">
    <g id="freepik--background-complete--inject-8" transform="translate(19.876 30.2)">
      <path id="Trazado_140389" data-name="Trazado 140389" d="M136.179,45.24l.311.521a3.568,3.568,0,0,0,1.447,1.361l.543.268-.521.311a3.546,3.546,0,0,0-1.353,1.447l-.275.55-.311-.521a3.568,3.568,0,0,0-1.447-1.361l-.543-.268.521-.318a3.553,3.553,0,0,0,1.361-1.447Z" transform="translate(-53.041 -34.356)" fill="#e0e0e0"/>
      <path id="Trazado_140390" data-name="Trazado 140390" d="M242.259,100.49l.311.521a3.568,3.568,0,0,0,1.447,1.361l.543.268-.521.311a3.618,3.618,0,0,0-1.361,1.447l-.268.543-.311-.514a3.568,3.568,0,0,0-1.447-1.361l-.543-.268.521-.318a3.488,3.488,0,0,0,1.353-1.447Z" transform="translate(-82.351 -49.621)" fill="#e0e0e0"/>
      <path id="Trazado_140391" data-name="Trazado 140391" d="M59.807,254l.311.521a3.619,3.619,0,0,0,1.447,1.361l.55.268-.521.311a3.618,3.618,0,0,0-1.361,1.447l-.268.55-.318-.521a3.554,3.554,0,0,0-1.447-1.361l-.55-.268.521-.318a3.553,3.553,0,0,0,1.361-1.447Z" transform="translate(-31.937 -92.036)" fill="#e0e0e0"/>
      <path id="Trazado_140392" data-name="Trazado 140392" d="M345.845,447.26l.318.521a3.553,3.553,0,0,0,1.447,1.361l.55.268-.521.318a3.553,3.553,0,0,0-1.361,1.447l-.268.55-.311-.521a3.618,3.618,0,0,0-1.447-1.361l-.543-.268.521-.318a3.619,3.619,0,0,0,1.353-1.447Z" transform="translate(-110.976 -145.434)" fill="#e0e0e0"/>
      <path id="Trazado_140393" data-name="Trazado 140393" d="M426.311,232.89l.724,1.136a7.83,7.83,0,0,0,3.22,2.974l1.194.586-1.136.724a7.83,7.83,0,0,0-2.974,3.22l-.586,1.194-.687-1.136a7.788,7.788,0,0,0-3.22-2.974l-1.194-.586,1.143-.688a7.816,7.816,0,0,0,2.967-3.22Z" transform="translate(-132.51 -86.203)" fill="#e0e0e0"/>
      <path id="Trazado_140394" data-name="Trazado 140394" d="M335.747,32l.688,1.143a7.765,7.765,0,0,0,3.22,2.967l1.194.586-1.143.724a7.816,7.816,0,0,0-2.967,3.22l-.586,1.194-.724-1.136a7.8,7.8,0,0,0-3.228-2.974l-1.151-.659,1.136-.688a7.787,7.787,0,0,0,2.974-3.22Z" transform="translate(-107.478 -30.697)" fill="#e0e0e0"/>
      <path id="Trazado_140395" data-name="Trazado 140395" d="M141.867,423.34l.68,1.143a7.787,7.787,0,0,0,3.228,2.967l1.187.586-1.136.688a7.743,7.743,0,0,0-2.967,3.228l-.593,1.187-.68-1.136a7.779,7.779,0,0,0-3.228-2.967l-1.187-.593,1.136-.68a7.831,7.831,0,0,0,2.967-3.228Z" transform="translate(-53.908 -138.825)" fill="#e0e0e0"/>
      <path id="Trazado_140396" data-name="Trazado 140396" d="M376.173,156.322s-5.84,2.895-13.475,7.4c-9.307,5.529-28.463,16.392-40.708,7.809l-11.21-22.008s7.194,3.3,18.143,1.874c9.77-1.266,17.586-6.412,21.1-8.778,1.447-.963,3.3-2.258,4.769-3.141,2.461-1.447,5.413-3.618,9.712-5.732Z" transform="translate(-101.877 -58.811)" fill="#ebebeb"/>
      <ellipse id="Elipse_5331" data-name="Elipse 5331" cx="8.981" cy="8.525" rx="8.981" ry="8.525" transform="matrix(0.985, -0.173, 0.173, 0.985, 232.689, 94.503)" fill="#f5f5f5"/>
      <path id="Trazado_140397" data-name="Trazado 140397" d="M353.451,164.8l-.724-1.114.89-.579.724,1.093a4.646,4.646,0,0,1,2.728-.63l.3,1.534a3.937,3.937,0,0,0-2.171.405l1.078,1.665c1.158-.369,2.5-.724,3.416.724a2.531,2.531,0,0,1-.724,3.5l.724,1.107-.89.572-.724-1.086a4.385,4.385,0,0,1-2.171.55l-.347-1.513a3.915,3.915,0,0,0,1.693-.362l-1.093-1.693c-1.151.376-2.475.724-3.38-.724A2.5,2.5,0,0,1,353.451,164.8Zm.651,2.417c.224.355.6.376,1.086.275l-.89-1.375A.839.839,0,0,0,354.1,167.221Zm3.076,1.447.912,1.447a.883.883,0,0,0,.188-1.158c-.224-.413-.615-.427-1.115-.318Z" transform="translate(-113.364 -66.923)" fill="#ebebeb"/>
      <path id="Trazado_140398" data-name="Trazado 140398" d="M323.98,172.178l.145.087c.362.217,9.1,5.189,24.671-1.9a117.966,117.966,0,0,0,16.725-9.328c3.372-2.171,5.79-3.77,8.482-4.48l.724-.188L364.645,135.66l-.572.405c-.166.116-16.6,11.543-23.926,14.539-5.79,2.381-16.812,5.79-25.105,1.99l-1.592-.724Zm16.6-20.459c5.29-2.171,14.908-8.417,20.264-12.028a3.807,3.807,0,0,0,2.128,1.585,3.879,3.879,0,0,0,2.895-.333l5.522,11.34a3.148,3.148,0,0,0-1.831,2.077,4.537,4.537,0,0,0,.145,2.7c-1.447.8-3.018,1.795-4.834,2.974a115.289,115.289,0,0,1-16.565,9.242c-7.823,3.561-13.815,3.9-17.463,3.561a20.887,20.887,0,0,1-2.83-.456,5.413,5.413,0,0,0-4.661-4.024l-5.884-11.333c.6-.051,1.39-.413,1.541-1.932,7.773,1.469,16.551-1.324,21.537-3.372Z" transform="translate(-102.615 -59.339)" fill="#f5f5f5"/>
      <path id="Trazado_140399" data-name="Trazado 140399" d="M101.783,52.765s-5.84,2.895-13.475,7.4C79,65.69,59.845,76.56,47.6,67.977l-11.21-22s7.194,3.293,18.143,1.874c9.77-1.266,17.586-6.412,21.1-8.786,1.447-.955,3.3-2.258,4.769-3.141,2.461-1.447,5.413-3.618,9.712-5.724Z" transform="translate(-26.063 -30.2)" fill="#ebebeb"/>
      <ellipse id="Elipse_5332" data-name="Elipse 5332" cx="8.981" cy="8.525" rx="8.981" ry="8.525" transform="matrix(0.985, -0.173, 0.173, 0.985, 34.114, 19.542)" fill="#f5f5f5"/>
      <path id="Trazado_140400" data-name="Trazado 140400" d="M79.058,61.243l-.724-1.122.89-.572.724,1.093a4.6,4.6,0,0,1,2.728-.63l.3,1.534a4,4,0,0,0-2.171.4l1.078,1.672c1.158-.369,2.5-.724,3.416.724a2.533,2.533,0,0,1-.724,3.488l.724,1.107-.89.579-.724-1.093a4.393,4.393,0,0,1-2.171.557l-.347-1.513a4.016,4.016,0,0,0,1.693-.362l-1.093-1.693c-1.151.376-2.475.724-3.38-.724A2.479,2.479,0,0,1,79.058,61.243Zm.651,2.417c.224.347.6.376,1.086.275l-.89-1.375a.84.84,0,0,0-.2,1.1Zm3.076,1.447.912,1.447a.9.9,0,0,0,.188-1.165c-.224-.405-.615-.449-1.1-.311Z" transform="translate(-37.546 -38.309)" fill="#ebebeb"/>
      <path id="Trazado_140401" data-name="Trazado 140401" d="M49.532,68.618l.145.087c.362.217,9.1,5.189,24.671-1.9A118.686,118.686,0,0,0,91.1,57.48c3.372-2.171,5.79-3.77,8.482-4.48l.724-.188L90.174,32.1l-.572.405c-.166.116-16.594,11.536-23.925,14.539-5.79,2.381-16.812,5.79-25.105,1.99l-1.592-.724Zm16.6-20.459c5.29-2.171,14.908-8.417,20.264-12.028a3.756,3.756,0,0,0,4.994,1.252l5.522,11.34A3.134,3.134,0,0,0,95.081,50.8a4.509,4.509,0,0,0,.145,2.692c-1.447.8-3.018,1.8-4.834,2.982a115.294,115.294,0,0,1-16.544,9.242c-7.823,3.561-13.815,3.9-17.485,3.553a20.988,20.988,0,0,1-2.83-.449,5.413,5.413,0,0,0-4.661-4.031L43.011,53.456c.6-.043,1.389-.405,1.541-1.932C52.368,53.015,61.125,50.207,66.133,48.159Z" transform="translate(-26.778 -30.725)" fill="#f5f5f5"/>
      <path id="Trazado_140402" data-name="Trazado 140402" d="M388.9,397.532s-5.84,2.895-13.475,7.4c-9.3,5.515-28.463,16.37-40.708,7.809l-11.21-22.008s7.194,3.3,18.143,1.882c9.77-1.274,17.586-6.419,21.1-8.786,1.447-.962,3.3-2.258,4.769-3.141,2.461-1.447,5.413-3.618,9.712-5.732Z" transform="translate(-105.394 -125.457)" fill="#ebebeb"/>
      <path id="Trazado_140403" data-name="Trazado 140403" d="M358.363,409.736a8.99,8.99,0,1,1,10.313,6.846A8.769,8.769,0,0,1,358.363,409.736Z" transform="translate(-114.99 -132.277)" fill="#f5f5f5"/>
      <path id="Trazado_140404" data-name="Trazado 140404" d="M366.178,406.016l-.724-1.115.89-.572.724,1.086a4.646,4.646,0,0,1,2.728-.63l.3,1.534a4.01,4.01,0,0,0-2.171.405L369,408.39c1.158-.369,2.5-.724,3.423.724a2.543,2.543,0,0,1-.724,3.5l.724,1.107-.89.572-.724-1.086a4.407,4.407,0,0,1-2.171.55l-.347-1.513a3.973,3.973,0,0,0,1.693-.355l-1.093-1.7c-1.151.376-2.475.724-3.38-.724A2.471,2.471,0,0,1,366.178,406.016Zm.651,2.424c.224.347.608.369,1.086.275l-.89-1.382a.861.861,0,0,0-.2,1.1Zm3.076,1.447.919,1.411a.89.89,0,0,0,.181-1.158c-.2-.376-.615-.4-1.1-.261Z" transform="translate(-116.878 -133.572)" fill="#ebebeb"/>
      <path id="Trazado_140405" data-name="Trazado 140405" d="M336.66,413.391l.145.087c.369.217,9.1,5.189,24.671-1.889a118.122,118.122,0,0,0,16.725-9.336c3.372-2.171,5.79-3.77,8.482-4.48l.724-.188L377.325,376.88l-.579.4c-.166.116-16.594,11.543-23.925,14.539-5.79,2.381-16.812,5.79-25.105,1.99l-1.585-.724Zm16.6-20.459c5.29-2.171,14.908-8.417,20.264-12.028a3.756,3.756,0,0,0,4.993,1.252l5.522,11.34a3.17,3.17,0,0,0-1.831,2.077,4.53,4.53,0,0,0,.152,2.7c-1.447.8-3.025,1.8-4.834,2.974a116.475,116.475,0,0,1-16.573,9.249c-7.823,3.553-13.815,3.894-17.463,3.553a20.758,20.758,0,0,1-2.822-.456,5.428,5.428,0,0,0-4.661-4.024l-5.884-11.333c.6-.043,1.382-.405,1.534-1.932C339.5,397.773,348.254,394.987,353.261,392.932Z" transform="translate(-106.118 -125.988)" fill="#f5f5f5"/>
      <path id="Trazado_140406" data-name="Trazado 140406" d="M87.506,303.582s-5.833,2.895-13.468,7.4c-9.307,5.522-28.463,16.392-40.708,7.809L22.12,296.787s7.194,3.3,18.143,1.874c9.763-1.266,17.586-6.412,21.1-8.786,1.447-.955,3.293-2.258,4.769-3.134,2.461-1.447,5.406-3.618,9.712-5.732Z" transform="translate(-22.12 -99.499)" fill="#ebebeb"/>
      <path id="Trazado_140407" data-name="Trazado 140407" d="M56.953,315.786a8.994,8.994,0,1,1,10.327,6.846A8.765,8.765,0,0,1,56.953,315.786Z" transform="translate(-31.711 -106.319)" fill="#f5f5f5"/>
      <path id="Trazado_140408" data-name="Trazado 140408" d="M64.776,312.063l-.724-1.122.89-.572.724,1.093a4.646,4.646,0,0,1,2.728-.63l.289,1.534a3.98,3.98,0,0,0-2.171.4l1.049,1.679c1.165-.369,2.5-.724,3.423.724a2.544,2.544,0,0,1-.724,3.5l.724,1.107-.89.572-.724-1.093a4.342,4.342,0,0,1-2.171.557l-.34-1.513a4.017,4.017,0,0,0,1.693-.362l-1.093-1.693c-1.158.376-2.475.724-3.387-.724A2.53,2.53,0,0,1,64.776,312.063Zm.651,2.417c.232.347.608.376,1.086.275l-.883-1.375A.847.847,0,0,0,65.428,314.481Zm3.083,1.447.912,1.447a.883.883,0,0,0,.181-1.165c-.224-.405-.63-.42-1.093-.318Z" transform="translate(-33.599 -107.611)" fill="#ebebeb"/>
      <path id="Trazado_140409" data-name="Trazado 140409" d="M35.254,319.438l.152.087c.362.217,9.1,5.189,24.671-1.9A117.962,117.962,0,0,0,76.8,308.307c3.372-2.171,5.79-3.77,8.482-4.48l.724-.188L75.9,282.92l-.572.405c-.166.116-16.6,11.536-23.925,14.539-5.79,2.381-16.812,5.79-25.105,1.99l-1.592-.724Zm16.609-20.459c5.29-2.171,14.908-8.417,20.264-12.028a3.763,3.763,0,0,0,5,1.252l5.515,11.34a3.127,3.127,0,0,0-1.824,2.077,4.48,4.48,0,0,0,.145,2.7c-1.447.8-3.018,1.795-4.834,2.974a115.291,115.291,0,0,1-16.565,9.242c-7.823,3.561-13.815,3.9-17.47,3.561a20.985,20.985,0,0,1-2.822-.456,5.428,5.428,0,0,0-4.661-4.031l-5.884-11.333c.6-.043,1.382-.405,1.541-1.932C38.1,303.82,46.848,301.027,51.863,298.979Z" transform="translate(-22.836 -100.027)" fill="#f5f5f5"/>
      <path id="Trazado_140410" data-name="Trazado 140410" d="M361.33,313.863s11.181-13.106,33.16-4.668a13.416,13.416,0,0,0,2.576.724,14.286,14.286,0,0,0,7.5-.536c4.277-1.722,10.371-4.234,10.371-4.234l18.816,11.145s-7.9,5.79-15.538,6.238-16.645-5.79-25.445-3.618a22,22,0,0,0-11.579,6.658Z" transform="translate(-115.844 -106.169)" fill="#ebebeb"/>
      <path id="Trazado_140411" data-name="Trazado 140411" d="M416.428,318.827c-.847.724-5.942.058-11.384-1.556s-9.176-3.539-8.33-4.3,5.949-.065,11.391,1.556S417.3,318.067,416.428,318.827Z" transform="translate(-125.588 -108.245)" fill="#f5f5f5"/>
      <path id="Trazado_140412" data-name="Trazado 140412" d="M411.461,318.013l.347.369-1.143-.253-.34-.355a28.709,28.709,0,0,1-3.1-.89l.253-.26a22.974,22.974,0,0,0,2.439.724l-.514-.543a9.794,9.794,0,0,1-3.329-1.274c-.333-.34.268-.449,2.019-.109l-.34-.362,1.143.253.34.355a24.294,24.294,0,0,1,2.511.724l-.2.275c-.673-.224-1.317-.405-1.911-.55l.528.55c1.346.369,2.895.8,3.3,1.252C413.791,318.244,413.234,318.346,411.461,318.013Zm-2.511-1.693-.441-.463c-.564-.094-.724-.051-.615.058a3.192,3.192,0,0,0,1.057.405Zm2.714,1.223a3.142,3.142,0,0,0-1.035-.405l.427.449C411.591,317.673,411.786,317.644,411.663,317.542Z" transform="translate(-128.183 -108.907)" fill="#ebebeb"/>
      <path id="Trazado_140413" data-name="Trazado 140413" d="M415.65,307l-.2.1a66.055,66.055,0,0,1-11.007,4.241,11.96,11.96,0,0,1-6.1.065c-.434-.072-.9-.159-1.447-.239a30.009,30.009,0,0,1-3.865-1.078,36.969,36.969,0,0,0-9.922-2.171h-.065c-.1,0-9.85-.832-17.752,5.529l-.478.376,16.92,10.24.232-.21c.094-.087,9.169-8.286,21.436-5.2,1.447.362,2.8.724,4.067,1.057,9.944,2.627,14.93,3.944,24.917-2.055l.615-.369Zm-7.961,11.861c-1.266-.34-2.62-.724-4.074-1.064a24.973,24.973,0,0,0-19.055,3.134,4.567,4.567,0,0,0-5.471.507l-9.893-5.992c1.911-1.664.8-3.1.145-3.7A27.016,27.016,0,0,1,383,308.73a36.372,36.372,0,0,1,9.8,2.128,29.471,29.471,0,0,0,3.995,1.107l1.447.239a12.773,12.773,0,0,0,6.455-.072,58.89,58.89,0,0,0,8.272-2.96,4.6,4.6,0,0,0,5.341.384l10.1,5.971c-.724.362-1.889,1.288-.087,3.322-7.432,3.51-12.223,2.251-20.669.029Z" transform="translate(-116.806 -106.68)" fill="#f5f5f5"/>
      <path id="Trazado_140414" data-name="Trazado 140414" d="M126,170.428s-.181-17.231,21.935-25.329a13.236,13.236,0,0,0,2.424-1.143,14.148,14.148,0,0,0,5.312-5.29c2.1-4.111,5.066-10,5.066-10l21.516-3.973s-2.171,9.531-7.613,14.915-16.377,6.593-21.573,13.967a22.022,22.022,0,0,0-4.342,12.629Z" transform="translate(-50.822 -56.308)" fill="#ebebeb"/>
      <path id="Trazado_140415" data-name="Trazado 140415" d="M168.776,149.513c-.138,1.129-4.444,3.951-9.611,6.311s-9.234,3.358-9.1,2.229,4.444-3.959,9.611-6.311S168.914,148.384,168.776,149.513Z" transform="translate(-57.471 -63.038)" fill="#f5f5f5"/>
      <path id="Trazado_140416" data-name="Trazado 140416" d="M164.433,154.506l.507.051-1.028.557-.492-.043a31.39,31.39,0,0,1-2.895,1.368v-.362a24.3,24.3,0,0,0,2.309-1.064l-.724-.072a9.829,9.829,0,0,1-3.343,1.23c-.478-.043-.094-.514,1.447-1.411l-.5-.043,1.028-.564.485.043c.8-.42,1.643-.818,2.367-1.114v.333c-.659.275-1.266.564-1.809.839l.76.072a9.945,9.945,0,0,1,3.315-1.223C166.344,153.152,165.967,153.616,164.433,154.506Zm-3,.369-.637-.058c-.492.3-.579.434-.427.449a3.314,3.314,0,0,0,1.064-.391Zm2.844-.861a3.292,3.292,0,0,0-1.049.376l.622.058C164.31,154.166,164.418,154.028,164.274,154.014Z" transform="translate(-59.822 -64.152)" fill="#ebebeb"/>
      <path id="Trazado_140417" data-name="Trazado 140417" d="M162,130.385l-.087.21a66.449,66.449,0,0,1-5.536,10.4,11.848,11.848,0,0,1-4.559,4.06l-1.238.724a29.673,29.673,0,0,1-3.618,1.722,36.875,36.875,0,0,0-8.9,4.892l-.065.051c-.08.058-7.961,5.84-9.755,15.827l-.109.6,19.446-3.358.036-.318c0-.123,1.447-12.267,12.744-18,1.339-.68,2.591-1.3,3.763-1.874,9.249-4.552,13.852-6.817,17.47-17.919l.224-.673Zm1.773,14.177c-1.172.579-2.432,1.2-3.763,1.882a24.915,24.915,0,0,0-12.3,14.879,4.559,4.559,0,0,0-3.792,3.973l-11.4,1.983c.347-2.5-1.447-2.859-2.316-2.895a26.958,26.958,0,0,1,8.308-11.246,36.154,36.154,0,0,1,8.786-4.834,29.832,29.832,0,0,0,3.742-1.788c.449-.282.854-.528,1.23-.724a12.821,12.821,0,0,0,4.813-4.3,58.529,58.529,0,0,0,4.342-7.693,4.591,4.591,0,0,0,4.277-3.22l11.55-2.142c-.333.724-.579,2.171,2.113,2.562C176.017,138.5,171.581,140.712,163.772,144.562Z" transform="translate(-51.411 -56.871)" fill="#f5f5f5"/>
      <path id="Trazado_140418" data-name="Trazado 140418" d="M347.39,80.054s10.573-13.627,32.907-6.246a13.9,13.9,0,0,0,2.605.608,14.228,14.228,0,0,0,7.469-.89C394.561,71.6,400.5,68.8,400.5,68.8l19.344,10.233s-7.613,6.122-15.2,6.976-16.935-4.986-25.583-2.432a22.029,22.029,0,0,0-11.254,7.237Z" transform="translate(-111.992 -40.865)" fill="#ebebeb"/>
      <path id="Trazado_140419" data-name="Trazado 140419" d="M402.563,83.309c-.811.8-5.942.347-11.456-1.006s-9.329-3.1-8.518-3.894,5.934-.347,11.449,1.006S403.373,82.513,402.563,83.309Z" transform="translate(-121.688 -43.412)" fill="#f5f5f5"/>
      <path id="Trazado_140420" data-name="Trazado 140420" d="M397.514,82.745l.362.347-1.151-.2-.355-.34a27.662,27.662,0,0,1-3.141-.724l.239-.268c.724.21,1.621.434,2.475.6l-.543-.521a10.128,10.128,0,0,1-3.387-1.107c-.347-.326.246-.463,2.019-.2l-.362-.347,1.151.2.355.34c.89.166,1.795.369,2.547.586l-.181.289c-.68-.2-1.339-.347-1.932-.463l.55.528a9.632,9.632,0,0,1,3.351,1.093C399.852,82.889,399.265,83,397.514,82.745Zm-2.591-1.57-.463-.441c-.572-.065-.724,0-.615.087A3.394,3.394,0,0,0,394.923,81.174Zm2.772,1.086a3.344,3.344,0,0,0-1.057-.355l.449.427C397.63,82.4,397.767,82.361,397.695,82.26Z" transform="translate(-124.296 -43.954)" fill="#ebebeb"/>
      <path id="Trazado_140421" data-name="Trazado 140421" d="M401.284,70.67l-.2.109A66.833,66.833,0,0,1,390.3,75.5a12,12,0,0,1-6.094.355l-1.447-.174a29.51,29.51,0,0,1-3.915-.89,36.914,36.914,0,0,0-10.016-1.686h-.087c-.1,0-9.871-.362-17.47,6.369l-.449.4,17.369,9.408.224-.224c.087-.087,8.764-8.684,21.161-6.217,1.447.3,2.837.586,4.118.861,10.052,2.171,15.1,3.228,24.787-3.242l.593-.4Zm-7.4,12.223c-1.281-.275-2.649-.572-4.118-.868a24.776,24.776,0,0,0-18.889,4.082,4.567,4.567,0,0,0-5.457.724l-10.132-5.515c1.824-1.751.637-3.134-.036-3.7a27.045,27.045,0,0,1,13.5-3.669,36.157,36.157,0,0,1,9.886,1.657,30.469,30.469,0,0,0,4.045.919l1.447.166a12.788,12.788,0,0,0,6.441-.384,57.9,57.9,0,0,0,8.142-3.343,4.618,4.618,0,0,0,5.355.13l10.363,5.478c-.724.391-1.816,1.375.072,3.322C407.24,85.745,402.405,84.71,393.887,82.893Z" transform="translate(-112.94 -41.382)" fill="#f5f5f5"/>
    </g>
    <g id="freepik--Floor--inject-8" transform="translate(35.132 354.649)">
      <path id="Trazado_140422" data-name="Trazado 140422" d="M348.312,478.708c0,.1-68.31.188-152.549.188S43.2,478.809,43.2,478.708s68.3-.188,152.563-.188S348.312,478.607,348.312,478.708Z" transform="translate(-43.2 -478.52)" fill="#263238"/>
    </g>
    <g id="freepik--Sparkles--inject-8" transform="translate(55.678 54.567)">
      <path id="Trazado_140423" data-name="Trazado 140423" d="M444.054,265.43l.456.76a5.211,5.211,0,0,0,2.171,1.983l.8.391-.76.456a5.211,5.211,0,0,0-1.983,2.171l-.391.8-.456-.724a5.211,5.211,0,0,0-2.171-1.983l-.8-.391.76-.456a5.211,5.211,0,0,0,1.983-2.171Z" transform="translate(-173.636 -119.561)" fill="#66d065"/>
      <path id="Trazado_140424" data-name="Trazado 140424" d="M139.305,460.89l.441.724a5.066,5.066,0,0,0,2.084,1.925l.774.376-.724.441a5.066,5.066,0,0,0-1.918,2.092l-.384.767-.441-.724a5.066,5.066,0,0,0-2.084-1.918l-.774-.384.724-.441a5.138,5.138,0,0,0,1.925-2.084Z" transform="translate(-89.464 -173.567)" fill="#66d065"/>
      <path id="Trazado_140425" data-name="Trazado 140425" d="M77.047,127.88l.8,1.324a9.075,9.075,0,0,0,3.749,3.452l1.382.724-1.317.8a8.988,8.988,0,0,0-3.452,3.749l-.724,1.382-.8-1.324a9.032,9.032,0,0,0-3.713-3.5l-1.382-.724,1.324-.8a9.1,9.1,0,0,0,3.452-3.742Z" transform="translate(-71.59 -81.556)" fill="#66d065"/>
      <path id="Trazado_140426" data-name="Trazado 140426" d="M297.914,63.87l.8,1.324a9.032,9.032,0,0,0,3.749,3.452l1.382.724-1.324.8a9.032,9.032,0,0,0-3.452,3.749l-.68,1.382-.8-1.324a9.119,9.119,0,0,0-3.749-3.5l-1.39-.724,1.324-.8a9.032,9.032,0,0,0,3.452-3.749Z" transform="translate(-132.614 -63.87)" fill="#66d065"/>
      <path id="Trazado_140427" data-name="Trazado 140427" d="M466.179,224.43l.311.514a3.568,3.568,0,0,0,1.447,1.361l.543.268-.521.318a3.553,3.553,0,0,0-1.361,1.447l-.268.55-.311-.521a3.568,3.568,0,0,0-1.447-1.361l-.543-.268.521-.311a3.619,3.619,0,0,0,1.361-1.447Z" transform="translate(-180.021 -108.233)" fill="#66d065"/>
      <path id="Trazado_140428" data-name="Trazado 140428" d="M97.845,220.27l.326.536a3.619,3.619,0,0,0,1.52,1.4l.564.275-.543.326a3.676,3.676,0,0,0-1.4,1.52l-.282.564-.318-.543a3.676,3.676,0,0,0-1.52-1.4l-.564-.275.536-.326a3.618,3.618,0,0,0,1.4-1.52Z" transform="translate(-78.232 -107.083)" fill="#66d065"/>
      <path id="Trazado_140429" data-name="Trazado 140429" d="M174.065,90.26l.326.536a3.741,3.741,0,0,0,1.52,1.4l.557.275-.536.326a3.676,3.676,0,0,0-1.4,1.52l-.282.557-.318-.536a3.691,3.691,0,0,0-1.527-1.375l-.557-.282.536-.318a3.763,3.763,0,0,0,1.4-1.57Z" transform="translate(-99.292 -71.162)" fill="#66d065"/>
    </g>
    <g id="freepik--Character--inject-8" transform="translate(26.455 97.206)">
      <path id="Trazado_140430" data-name="Trazado 140430" d="M340.546,318.288c0,.774,4.668,21.378,4.668,21.378s9.719-6.607,13.41-9.719S380.2,310.32,380.2,310.32l10.725,9.9s-35.461,48.235-48.017,51.137c-6.448,1.484-13.6-3.387-14.988-6.832-3.134-7.686-7.917-40.44-7.917-40.44l6.955-3.076Z" transform="translate(-111.003 -174.603)" fill="#ba7e6d"/>
      <path id="Trazado_140431" data-name="Trazado 140431" d="M351.967,350.913a11.936,11.936,0,0,0-2.207.579,9.162,9.162,0,0,0-4.038,3.575,20,20,0,0,0-2.091,5.1,16.128,16.128,0,0,1-.68,2.215,12.071,12.071,0,0,1,.413-2.287,17.456,17.456,0,0,1,2.026-5.24,8.873,8.873,0,0,1,4.27-3.618,5.747,5.747,0,0,1,1.679-.355A1.737,1.737,0,0,1,351.967,350.913Z" transform="translate(-117.344 -185.806)" fill="#875149"/>
      <path id="Trazado_140432" data-name="Trazado 140432" d="M399.26,308.07s9.77-10.942,13.714-10.631,9.611,1.165,11.188.9a42.914,42.914,0,0,1,5.985,0s10.24-5.544,12.129-5.109c0,0,1.759-.094,2.366.9,0,0,3.893-2.468,6.7-.934l-10.2,8.5,3.112-.391s9.169-4.849,12.071-1.513l-6.926,3.72s5.753-.087,6.622,2.251l-12.889,2.07s-24.49,2.048-25.785,2.613-6.477,7.237-6.477,7.237Z" transform="translate(-132.903 -169.733)" fill="#ba7e6d"/>
      <path id="Trazado_140433" data-name="Trazado 140433" d="M455.178,294.75a3.468,3.468,0,0,1-.615.6c-.413.362-1.02.876-1.8,1.447a59,59,0,0,1-6.376,4.306c-1.238.724-2.41,1.382-3.553,1.911a4.82,4.82,0,0,1-3.329.449l.181-.1a2.9,2.9,0,0,1-1.824,1.853,2.468,2.468,0,0,1-.724.13h-.246a7.587,7.587,0,0,0,.9-.253,2.815,2.815,0,0,0,1.6-1.78l.043-.145.138.043a4.6,4.6,0,0,0,3.1-.5c1.1-.528,2.287-1.209,3.5-1.918,2.584-1.505,4.82-3.04,6.412-4.19l1.874-1.375A3.792,3.792,0,0,1,455.178,294.75Z" transform="translate(-143.3 -170.301)" fill="#875149"/>
      <path id="Trazado_140434" data-name="Trazado 140434" d="M452.972,305.41a4.806,4.806,0,0,1-1.368,1.064,11.775,11.775,0,0,1-3.893,1.505c-.811.159-1.592.188-2.265.311a6,6,0,0,0-1.7.608,2.96,2.96,0,0,1-1.664.478,12.887,12.887,0,0,0,1.534-.724,5.717,5.717,0,0,1,1.766-.724c.724-.152,1.447-.188,2.251-.347A17.942,17.942,0,0,0,452.972,305.41Z" transform="translate(-144.734 -173.246)" fill="#875149"/>
      <path id="Trazado_140435" data-name="Trazado 140435" d="M465.017,306.638a5.854,5.854,0,0,1-1.389,1.071,16.074,16.074,0,0,1-8.026,2.424,5.789,5.789,0,0,1-1.751-.123,29.564,29.564,0,0,0,5.79-.934A30.146,30.146,0,0,0,465.017,306.638Z" transform="translate(-147.986 -173.584)" fill="#875149"/>
      <path id="Trazado_140436" data-name="Trazado 140436" d="M185.243,402c-10.573,16.457-22.847,37.046-30.323,55.595H282.291L267.093,402Z" transform="translate(-65.391 -199.934)" fill="#263238"/>
      <path id="Trazado_140437" data-name="Trazado 140437" d="M87.84,313.983s9,13.193,12.05,16.645,15.921,21.906,22.616,29.3,14,11.456,18.722,11.456c4.849,0,9.755-1.657,13.606-10.7,5.558-13.027,10.24-51.383,10.24-51.383l-21.711-7.961-7.888,39.717h0c-2.12-2.113-35.577-33.29-35.577-33.29l-7.671,3.184Z" transform="translate(-46.857 -172.122)" fill="#ba7e6d"/>
      <path id="Trazado_140438" data-name="Trazado 140438" d="M44.287,296.116s.514-.919,3.372-.507,7.874,3.372,9,3.372,13.692.405,16.146,1.02,6.267.984,8.511,3.329l3.618,3.228-12.136,6.673a5.015,5.015,0,0,0-3.879-2c-2.757-.166-15.422-.8-15.422-.8l-9.813-2.258L31.21,302.137a3.126,3.126,0,0,1,3.575-1.845c2.555.615,7.36,2.352,7.36,2.352l4.19,1.281L35.3,298.656a5.392,5.392,0,0,1,5.616-1.324c3.474,1.122,9.408,3.778,9.408,3.778l.818-.3Z" transform="translate(-31.21 -170.509)" fill="#ba7e6d"/>
      <path id="Trazado_140439" data-name="Trazado 140439" d="M65.676,305.4a8,8,0,0,1-3.734-.608,8,8,0,0,1-3.242-1.961c.065-.094,1.447.912,3.365,1.614S65.684,305.288,65.676,305.4Z" transform="translate(-38.806 -172.531)" fill="#875149"/>
      <path id="Trazado_140440" data-name="Trazado 140440" d="M61.188,309.526a4.993,4.993,0,0,1-1.628.123,14.38,14.38,0,0,1-7.469-2.309,5.319,5.319,0,0,1-1.281-1.02,25.843,25.843,0,0,0,4.965,2.338A25.713,25.713,0,0,0,61.188,309.526Z" transform="translate(-36.625 -173.498)" fill="#875149"/>
      <path id="Trazado_140441" data-name="Trazado 140441" d="M34.389,306.5A2.446,2.446,0,0,0,33,308.809a72.891,72.891,0,0,0,12.723,2.931" transform="translate(-31.704 -173.548)" fill="#875149"/>
      <path id="Trazado_140442" data-name="Trazado 140442" d="M161.25,372.88c-.08,0,.072-1.1-.043-2.895a18.736,18.736,0,0,0-.456-3.054,20.721,20.721,0,0,0-1.23-3.568,20.214,20.214,0,0,0-1.911-3.257,18.75,18.75,0,0,0-2.019-2.338c-1.266-1.23-2.171-1.831-2.171-1.889a2.939,2.939,0,0,1,.673.391,5.722,5.722,0,0,1,.724.536c.275.224.608.463.926.774a17.166,17.166,0,0,1,2.113,2.323,17.948,17.948,0,0,1,3.2,6.955,17.2,17.2,0,0,1,.384,3.119,10.926,10.926,0,0,1,0,1.2,6,6,0,0,1-.08.9A3.256,3.256,0,0,1,161.25,372.88Z" transform="translate(-64.977 -187.191)" fill="#875149"/>
      <path id="Trazado_140443" data-name="Trazado 140443" d="M181.785,247.463c-3,1.853-9.944,7.476-17.123,22.673-9.56,20.213-12.042,32.827-12.042,32.827l25.409,9.075,7.7-66.479S182.777,246.855,181.785,247.463Z" transform="translate(-64.756 -156.71)" fill="#455a64"/>
      <path id="Trazado_140444" data-name="Trazado 140444" d="M185.3,267.763s.6,21.45.6,27.276,2.605,49.639,2.605,49.639,0,14.416,8.952,14.192,24.258,1.513,30.316,1.513c4.465,0,29.845.3,43.2-.9,6.332-.565,8.771-3.655,10.725-8.684.261-.68.1-.282.261-.68,3.828-9.408.868-49.667.868-49.667l-4.74-36.395-10.8-21.472-61.16-.2C186.53,243.736,186.53,251.784,185.3,267.763Z" transform="translate(-73.785 -155.834)" fill="#455a64"/>
      <path id="Trazado_140445" data-name="Trazado 140445" d="M324.168,260.286C314.094,243.568,298.6,242.7,298.6,242.7l9.148,75.388,7.237-2.012c.536-.181,27.139-10.79,27.139-10.79S330.363,270.548,324.168,260.286Z" transform="translate(-105.09 -155.92)" fill="#455a64"/>
      <path id="Trazado_140446" data-name="Trazado 140446" d="M309.13,274.44a1.111,1.111,0,0,1,.094.145c.058.1.138.268.224.449.188.391.492.97.832,1.737a64.015,64.015,0,0,1,2.584,6.607,101.753,101.753,0,0,1,4.675,22.891,211.7,211.7,0,0,1,.724,23.375c-.051,2.989-.123,5.406-.181,7.078,0,.811-.058,1.447-.072,1.925v.507a.644.644,0,0,1,0,.166.8.8,0,0,1,0-.174v-2.424c0-1.708,0-4.118.058-7.085a232.65,232.65,0,0,0-.818-23.332,106.305,106.305,0,0,0-4.552-22.847c-.926-2.837-1.809-5.066-2.468-6.629-.311-.774-.593-1.361-.724-1.766l-.2-.463a1.176,1.176,0,0,1-.181-.159Z" transform="translate(-108 -164.689)" fill="#263238"/>
      <g id="Grupo_114494" data-name="Grupo 114494" transform="translate(156.645 137.056)" opacity="0.3">
        <path id="Trazado_140447" data-name="Trazado 140447" d="M247.66,334.655a29.288,29.288,0,0,1,11.463-7.092c5.717-1.845,22.652-5.377,27.146-7.027a37.632,37.632,0,0,0,13.251-8.366L319.4,328.5a61.378,61.378,0,0,1-11.3,8.033c-6.4,3.438-22.167,3.452-30.656,8.547-5.5,3.3-12.621,12.961-12.621,12.961Z" transform="translate(-247.66 -312.17)"/>
      </g>
      <g id="Grupo_114495" data-name="Grupo 114495" transform="translate(132.828 197.239)" opacity="0.3">
        <path id="Trazado_140448" data-name="Trazado 140448" d="M265.93,445.982a29.317,29.317,0,0,1-12.831-4.14c-5.117-3.155-18.773-13.75-22.941-16.117a52.658,52.658,0,0,0-14.981-5.609l-.427-24.787a61.276,61.276,0,0,1,13.439,3.4c6.767,2.649,16.992,14.648,26.379,17.818,6.072,2.048,18.049,1.209,18.049,1.209Z" transform="translate(-214.75 -395.33)"/>
      </g>
      <g id="Grupo_114496" data-name="Grupo 114496" transform="translate(95.123 103.165)" opacity="0.3">
        <path id="Trazado_140449" data-name="Trazado 140449" d="M162.65,285.763c5.066,1.708,11.478-1.194,14.727-5.442s6.426-9.69,7.2-14.981c-3.713,0-8.757.275-12.469.268Z" transform="translate(-162.65 -265.34)"/>
      </g>
      <path id="Trazado_140450" data-name="Trazado 140450" d="M186.981,301.62a3.149,3.149,0,0,1,.043.593l.065,1.708c.043,1.52.1,3.662.174,6.289.145,5.334.34,12.65.55,20.734s.492,15.422.724,20.727c.13,2.627.232,4.762.3,6.282,0,.724.058,1.281.08,1.708a5.245,5.245,0,0,1,0,.593,3,3,0,0,1-.08-.593c-.043-.42-.094-.991-.152-1.7-.138-1.447-.268-3.619-.427-6.274-.3-5.3-.6-12.636-.839-20.734s-.369-15.429-.441-20.741c0-2.627-.036-4.762-.051-6.289v-1.708A3.4,3.4,0,0,1,186.981,301.62Z" transform="translate(-74.236 -172.199)" fill="#263238"/>
      <g id="Grupo_114497" data-name="Grupo 114497" transform="translate(108.735 127.163)" opacity="0.3">
        <path id="Trazado_140451" data-name="Trazado 140451" d="M186.135,345.613c-6.615-14.908-5.63-31.553-.666-47.113.724,15.161,1.057,31.937.688,47.113" transform="translate(-181.459 -298.5)"/>
      </g>
      <path id="Trazado_140452" data-name="Trazado 140452" d="M273.605,137.915a21.363,21.363,0,0,0-10.58-12.636c-5.522-2.815-12.108-3.054-18.15-1.665s-11.623,4.306-16.9,7.563c-2.96,1.824-5.905,3.821-7.961,6.607-3.807,5.066-7.476,13.352-7.678,19.7-.159,5.131,2.171,17.9,4.465,22.485.818,1.636,2.736,3.076,5.066,4.292a43.479,43.479,0,0,0,9.632,12.013q1.628-5.211,3.264-10.421Z" transform="translate(-81.253 -122.788)" fill="#263238"/>
      <path id="Trazado_140453" data-name="Trazado 140453" d="M288.752,134.5l-10.132-1.52c5.891,12.983,8.25,42.995,11.8,56.8,3.568-5.507,11.738-22.2,11.087-28.724S300.715,133.038,288.752,134.5Z" transform="translate(-99.57 -125.604)" fill="#263238"/>
      <path id="Trazado_140454" data-name="Trazado 140454" d="M227.333,158.429a17.251,17.251,0,0,1,12.52-16.247l23.079-6.593c10.016-1.375,17.072,10.8,18.02,20.857,1.049,11.181,1.838,22.992.767,31.394-2.171,16.891-14.966,19.431-14.966,19.431s.224,7.961.355,12.9l-13.692,28.579-21.27-34.245-4.842-55.87C227.261,158.35,227.318,158.813,227.333,158.429Z" transform="translate(-85.387 -126.295)" fill="#ba7e6d"/>
      <path id="Trazado_140455" data-name="Trazado 140455" d="M290.908,180.79a2.171,2.171,0,0,1-2.012,2.243,2.07,2.07,0,0,1-2.287-1.874,2.171,2.171,0,0,1,2.012-2.243,2.07,2.07,0,0,1,2.287,1.874Z" transform="translate(-101.777 -138.292)" fill="#263238"/>
      <path id="Trazado_140456" data-name="Trazado 140456" d="M294.957,172.834c-.253.289-1.925-.868-4.248-.789s-3.98,1.288-4.241,1.013c-.13-.123.13-.637.854-1.2a5.905,5.905,0,0,1,3.387-1.158,5.63,5.63,0,0,1,3.387.984C294.8,172.2,295.087,172.7,294.957,172.834Z" transform="translate(-101.729 -136.025)" fill="#263238"/>
      <path id="Trazado_140457" data-name="Trazado 140457" d="M263.228,180.8a2.171,2.171,0,0,1-2.012,2.236,2.07,2.07,0,0,1-2.287-1.874,2.171,2.171,0,0,1,2.012-2.243,2.07,2.07,0,0,1,2.287,1.882Z" transform="translate(-94.129 -138.292)" fill="#263238"/>
      <path id="Trazado_140458" data-name="Trazado 140458" d="M264.515,173.7c-.26.289-1.932-.868-4.248-.789s-3.988,1.288-4.248,1.013c-.123-.123.13-.637.854-1.2a5.927,5.927,0,0,1,3.387-1.158,5.7,5.7,0,0,1,3.394.977C264.385,173.074,264.638,173.573,264.515,173.7Z" transform="translate(-93.317 -136.265)" fill="#263238"/>
      <path id="Trazado_140459" data-name="Trazado 140459" d="M277.869,192.043a16.505,16.505,0,0,1,3.749-.8c.586-.08,1.143-.21,1.23-.615a2.96,2.96,0,0,0-.449-1.744l-1.889-4.458c-2.627-6.347-4.552-11.579-4.3-11.681s2.6,4.957,5.225,11.3l1.824,4.487a3.467,3.467,0,0,1,.376,2.316,1.491,1.491,0,0,1-.948.9,3.677,3.677,0,0,1-1,.166C279.338,192.123,277.883,192.181,277.869,192.043Z" transform="translate(-98.898 -136.592)" fill="#263238"/>
      <path id="Trazado_140460" data-name="Trazado 140460" d="M250.77,227.29s5.79,11.391,22.579,9.3l-.109-3.951a42.387,42.387,0,0,1-22.471-5.348Z" transform="translate(-91.875 -151.662)" fill="#875149"/>
      <path id="Trazado_140461" data-name="Trazado 140461" d="M262.4,162.388c-.21.637-2.533.405-5.247.818s-4.885,1.223-5.269.666c-.166-.261.2-.868,1.064-1.505a9.256,9.256,0,0,1,8.011-1.136C261.973,161.585,262.487,162.062,262.4,162.388Z" transform="translate(-92.172 -133.286)" fill="#263238"/>
      <path id="Trazado_140462" data-name="Trazado 140462" d="M293.869,163.007c-.391.536-2.012.043-3.93.072s-3.539.463-3.93-.072c-.174-.268.065-.8.76-1.324a5.529,5.529,0,0,1,3.17-.963,5.45,5.45,0,0,1,3.163.97C293.8,162.2,294.042,162.739,293.869,163.007Z" transform="translate(-101.596 -133.268)" fill="#263238"/>
      <path id="Trazado_140463" data-name="Trazado 140463" d="M274.441,138.811a7.38,7.38,0,0,0-6.644-4,14.4,14.4,0,0,0-7.693,2.482c-9.85,6.072-14.6,20.2-24.316,26.466-2.388,1.541-5.594.282-7.613,2.294s-3.264,5.167-2.048,7.736a23.794,23.794,0,0,1-3.618-5.71,7.961,7.961,0,0,1,.094-6.557c.811-1.505,2.294-2.685,2.656-4.342.326-1.447-.3-2.982-.275-4.494a9.784,9.784,0,0,1,1.447-4.342c3.676-6.969,8.836-13.316,15.588-17.369A28.514,28.514,0,0,1,256.7,126.74a21.776,21.776,0,0,1,14.192,5.167c2.272,2,4.661,4.067,3.618,6.9" transform="translate(-83.883 -123.88)" fill="#263238"/>
      <path id="Trazado_140464" data-name="Trazado 140464" d="M227.6,183.622c-.188-.478-9.046-3.394-8.9,5.934.145,9.061,9.234,7.013,9.242,6.752S227.6,183.622,227.6,183.622Z" transform="translate(-83.013 -139.374)" fill="#ba7e6d"/>
      <path id="Trazado_140465" data-name="Trazado 140465" d="M225.961,194.066c-.036,0-.152.116-.42.246a1.592,1.592,0,0,1-1.18.043c-.963-.333-1.795-1.838-1.874-3.466a5.3,5.3,0,0,1,.4-2.265,1.831,1.831,0,0,1,1.165-1.238.811.811,0,0,1,.941.413c.123.253.072.434.123.449s.188-.152.109-.528a1,1,0,0,0-.369-.557,1.18,1.18,0,0,0-.876-.217,2.222,2.222,0,0,0-1.621,1.447,5.327,5.327,0,0,0-.5,2.533c.094,1.824,1.064,3.517,2.381,3.865a1.643,1.643,0,0,0,1.447-.268C225.946,194.291,226,194.088,225.961,194.066Z" transform="translate(-83.884 -140.511)" fill="#875149"/>
      <path id="Trazado_140466" data-name="Trazado 140466" d="M225.85,165.564a2.8,2.8,0,0,0,.536-.318c.34-.232.868-.543,1.491-1.006a31.068,31.068,0,0,0,4.762-4.6,85.929,85.929,0,0,0,5.79-7.961,70.645,70.645,0,0,1,7.237-9.524,28.225,28.225,0,0,1,4.711-3.944,23.4,23.4,0,0,1,5.138-2.511,25.829,25.829,0,0,1,9.56-1.447,24.663,24.663,0,0,1,6.463,1.078c.724.2,1.31.441,1.693.572a3.923,3.923,0,0,0,.6.2,2.953,2.953,0,0,0-.564-.268,13.753,13.753,0,0,0-1.679-.651,23.4,23.4,0,0,0-6.513-1.216,25.518,25.518,0,0,0-9.7,1.382,23.341,23.341,0,0,0-5.232,2.533,28.514,28.514,0,0,0-4.8,4,69.879,69.879,0,0,0-7.237,9.589,93.428,93.428,0,0,1-5.667,7.961,33.48,33.48,0,0,1-4.632,4.653c-.608.485-1.115.818-1.447,1.064a4.061,4.061,0,0,0-.514.413Z" transform="translate(-84.989 -125.867)" fill="#455a64"/>
      <path id="Trazado_140467" data-name="Trazado 140467" d="M225.385,199.042a1.78,1.78,0,1,0,.427.123" transform="translate(-84.293 -143.851)" fill="#fff"/>
      <path id="Trazado_140468" data-name="Trazado 140468" d="M225.745,199.145a2.424,2.424,0,0,1,.854,1.187,1.534,1.534,0,0,1-.318,1.447,1.578,1.578,0,0,1-2.808-.8,1.549,1.549,0,0,1,.492-1.382,2.388,2.388,0,0,1,1.353-.557.766.766,0,0,0-.427-.087,1.889,1.889,0,0,0-1.795,2.077,1.94,1.94,0,0,0,3.474,1,1.78,1.78,0,0,0,.3-1.759,1.838,1.838,0,0,0-.724-.955C225.919,199.138,225.752,199.124,225.745,199.145Z" transform="translate(-84.226 -143.831)" fill="#263238"/>
      <path id="Trazado_140469" data-name="Trazado 140469" d="M229.088,176.045c-.072,2.482-.116,5.066,1.093,7.237s4.132,3.575,6.246,2.287c1.722-1.049,2.171-3.315,2.424-5.319.724-5.79.926-11.637,1.665-17.419Z" transform="translate(-85.876 -133.851)" fill="#263238"/>
      <path id="Trazado_140470" data-name="Trazado 140470" d="M274.167,137.432c0,.058-.8-.123-2.251-.13a15.422,15.422,0,0,0-5.963,1.266,19.542,19.542,0,0,0-3.7,2.041,41.52,41.52,0,0,0-3.792,3.068,46.456,46.456,0,0,0-7.346,8.388c-1.107,1.65-2.077,3.336-3.141,4.907a23.02,23.02,0,0,1-3.51,4.19,40.578,40.578,0,0,1-7.5,5.334c-2.287,1.288-4.2,2.171-5.515,2.837l-1.527.724a2.611,2.611,0,0,1-.55.217,2.309,2.309,0,0,1,.5-.311l1.491-.789c1.288-.68,3.17-1.643,5.421-2.967a41.746,41.746,0,0,0,7.367-5.37,22.971,22.971,0,0,0,3.416-4.118c1.042-1.556,2.012-3.249,3.126-4.914a45.431,45.431,0,0,1,7.461-8.453,38.29,38.29,0,0,1,3.865-3.068,19.488,19.488,0,0,1,3.8-2.026,14.836,14.836,0,0,1,6.1-1.129,10.422,10.422,0,0,1,1.679.181A2.658,2.658,0,0,1,274.167,137.432Z" transform="translate(-85.962 -126.748)" fill="#455a64"/>
      <path id="Trazado_140471" data-name="Trazado 140471" d="M224.644,168.98a3.914,3.914,0,0,1-.782.564l-2.258,1.411-.76.47a2.526,2.526,0,0,1-.984.355.926.926,0,0,1-.615-.13.767.767,0,0,1-.355-.586,2,2,0,0,1,.4-1.158c.774-1.332,1.628-2.786,2.54-4.342l.369.326a9.6,9.6,0,0,1-2.895,1.534,9.407,9.407,0,0,1-3.228.47,2.735,2.735,0,0,1-.825-.116,1.136,1.136,0,0,1-.724-.593.97.97,0,0,1,.13-.919,3.7,3.7,0,0,1,.5-.579,19.171,19.171,0,0,0,2.967-3.98,31.223,31.223,0,0,0,1.845-4.226,4.785,4.785,0,0,1-.253,1.23,16.7,16.7,0,0,1-1.274,3.17,18.352,18.352,0,0,1-2.953,4.132c-.326.326-.651.724-.514.984a1.3,1.3,0,0,0,1.114.4,9.1,9.1,0,0,0,5.79-1.9l1.057-.818-.724,1.143-2.6,4.342a1.737,1.737,0,0,0-.355.9c0,.253.239.4.528.369a4.718,4.718,0,0,0,1.607-.724l2.33-1.288A4.537,4.537,0,0,1,224.644,168.98Z" transform="translate(-81.843 -132.373)" fill="#455a64"/>
      <path id="Trazado_140472" data-name="Trazado 140472" d="M266.465,204.758a3.047,3.047,0,0,1,3.068-2.388,3.191,3.191,0,0,1,2.482,1.664,3.922,3.922,0,0,1,.224,3.025l-.043.217a3.438,3.438,0,0,1-3.857.934,3.22,3.22,0,0,1-1.874-3.452Z" transform="translate(-96.2 -144.776)" fill="#875149"/>
      <path id="Trazado_140473" data-name="Trazado 140473" d="M270.214,207.862a1.063,1.063,0,0,1-.463.463,2.526,2.526,0,0,1-1.773.268,3.09,3.09,0,0,1-2.084-1.679,4.241,4.241,0,0,1,.9-4.719,1.947,1.947,0,0,1,1.665-.478,5.977,5.977,0,0,1,2.287,1.288,7.626,7.626,0,0,1,1.751,1.52,7.708,7.708,0,0,1-2.055-1.078,6.376,6.376,0,0,0-2.092-1.042,1.238,1.238,0,0,0-1.064.34,3.445,3.445,0,0,0-.724,1.18,3.394,3.394,0,0,0,0,2.685,2.591,2.591,0,0,0,1.585,1.447,2.555,2.555,0,0,0,1.527,0C269.983,207.949,270.171,207.819,270.214,207.862Z" transform="translate(-95.955 -144.587)" fill="#263238"/>
    </g>
    <g id="freepik--Banknotes--inject-8" transform="translate(14 33.208)">
      <path id="Trazado_140474" data-name="Trazado 140474" d="M342.8,186.67a30.33,30.33,0,0,1,11.268,8.236c4,4.769,13.982,19.641,17.318,23.31a39.007,39.007,0,0,0,13.186,9.459l-7.917,25.431a63.469,63.469,0,0,1-12.107-7.715c-5.79-4.8-11.948-19.923-20.148-26.089-5.3-3.988-17.369-7.056-17.369-7.056Z" transform="translate(-100.49 -76.44)" fill="#66d065"/>
      <g id="Grupo_114498" data-name="Grupo 114498" transform="translate(229.246 112.813)" opacity="0.2">
        <path id="Trazado_140475" data-name="Trazado 140475" d="M384.063,229.421h0c-.072-.051-7.961-4.516-11.3-8.228-2.366-2.613-6.014-7.577-9.546-12.382-2.67-3.618-5.2-7.078-7.1-9.408-6.079-7.454-10.921-8.959-11.123-9.017l-.47-.145L330.77,211.7l.861.232c.087,0,8.967,2.424,13.157,5.486,5.58,4.074,8.8,9.495,11.919,14.735a58.3,58.3,0,0,0,7.237,10.385,49.724,49.724,0,0,0,8.583,7.317,33.416,33.416,0,0,0,3.9,2.287l.68.311Zm-38.537-13.027a38.584,38.584,0,0,0-9.408-4.4,3.351,3.351,0,0,0,.724-2.229c-.347-1.31-1.447-1.578-2.584-1.049l8.959-13.938.072.109c1.382,1.939,4.089.268,4.27-1.73a.991.991,0,0,0,.145.094,34.318,34.318,0,0,1,7.4,6.947c1.882,2.309,4.4,5.732,7.063,9.365.311.413.615.832.919,1.245-2.041-.941-4.733-.492-7.273,3.068-2.345,3.3-2.678,7.751-2.063,11.152a35.462,35.462,0,0,0-8.221-8.663Zm19.33,25.279a58.251,58.251,0,0,1-7.063-10.132l-.622-1.049a7.02,7.02,0,0,0,7.961-2.989c1.693-2.844,3.315-6.919,2.171-11.015,1.722,2.265,3.3,4.263,4.538,5.638a65.4,65.4,0,0,0,8.887,7.476,1.447,1.447,0,0,0-.984,1.845c.159.8.912,1.795,1.824,1.6l.123-.051-4.7,15.48c-.724-2.171-3.119-1.158-2.743.977a48.206,48.206,0,0,1-9.386-7.809Z" transform="translate(-330.77 -190.24)" fill="#fff"/>
      </g>
      <path id="Trazado_140476" data-name="Trazado 140476" d="M368.169,234.914l-.832,1.324-1.057-.659.811-1.3a5.45,5.45,0,0,1-2.041-2.6l1.484-1.086a4.748,4.748,0,0,0,1.527,2.128l1.237-1.983c-.97-1.049-2-2.309-.948-4.009a3,3,0,0,1,4.082-1l.825-1.317,1.057.659-.811,1.3a5.2,5.2,0,0,1,1.7,2.07l-1.447,1.129a4.66,4.66,0,0,0-1.23-1.636l-1.259,2.019c.977,1.049,2,2.294.948,3.966A3.017,3.017,0,0,1,368.169,234.914ZM370.427,233c.26-.42.094-.832-.253-1.3l-1.02,1.636A1,1,0,0,0,370.427,233Zm-.036-4,1.057-1.686a1.049,1.049,0,0,0-1.332.391C369.855,228.118,370.029,228.545,370.391,229Z" transform="translate(-110.995 -86.871)" fill="#66d065"/>
      <path id="Trazado_140477" data-name="Trazado 140477" d="M249,319.443a30.33,30.33,0,0,1,11.869-7.338c5.92-1.918,23.455-5.572,28.108-7.28a38.993,38.993,0,0,0,13.75-8.684l20.582,16.906a63.682,63.682,0,0,1-11.724,8.323c-6.629,3.561-22.956,3.575-31.749,8.851-5.7,3.416-13.07,13.425-13.07,13.425Z" transform="translate(-78.931 -106.687)" fill="#66d065"/>
      <g id="Grupo_114499" data-name="Grupo 114499" transform="translate(172.711 191.19)" opacity="0.2">
        <path id="Trazado_140478" data-name="Trazado 140478" d="M303.837,298.54h0c-.072.051-7.172,5.659-11.883,7.382-3.307,1.209-9.278,2.721-15.06,4.183-4.342,1.107-8.518,2.171-11.391,3.04-9.191,2.83-12.411,6.745-12.542,6.911l-.311.376,14.727,20.857.536-.724c.058-.08,5.623-7.4,10.038-10.132,5.869-3.618,12.1-4.581,18.129-5.5a58.479,58.479,0,0,0,12.346-2.793,49.7,49.7,0,0,0,10.009-5.211,31.846,31.846,0,0,0,3.618-2.75l.55-.514Zm-26.6,30.8a38.6,38.6,0,0,0-7.621,7.063,3.278,3.278,0,0,0-1.809-1.447c-1.339-.174-2,.724-1.939,2l-9.546-13.548h.13c2.316-.557,1.788-3.691,0-4.61l.138-.1a34.463,34.463,0,0,1,9.285-4.263c2.844-.876,6.969-1.918,11.333-3.025l1.5-.376c-1.636,1.534-2.236,4.2.109,7.9,2.171,3.409,6.173,5.392,9.56,6.1A35.462,35.462,0,0,0,277.241,329.341Zm30.663-8.409a59.01,59.01,0,0,1-12.071,2.728l-1.2.181a7.034,7.034,0,0,0,.217-8.474c-2-2.634-5.167-5.674-9.408-6.13,2.757-.724,5.2-1.447,6.933-2.091a64.679,64.679,0,0,0,10.277-5.421,1.447,1.447,0,0,0,1.339,1.607c.8.159,2-.166,2.171-1.086a.78.78,0,0,0,0-.13l12.6,10.175c-2.294-.116-2.251,2.453-.13,2.895a47.547,47.547,0,0,1-10.725,5.746Z" transform="translate(-252.65 -298.54)" fill="#fff"/>
      </g>
      <path id="Trazado_140479" data-name="Trazado 140479" d="M302.063,325.414l.919,1.266-1.006.724-.9-1.238a5.529,5.529,0,0,1-3.177.919l-.441-1.788a4.718,4.718,0,0,0,2.54-.615l-1.368-1.9c-1.346.507-2.895,1-4.074-.622a3.009,3.009,0,0,1,.608-4.161l-.912-1.259,1.013-.724.9,1.238a5.167,5.167,0,0,1,2.547-.8l.507,1.759a4.77,4.77,0,0,0-1.976.528l1.4,1.932c1.339-.521,2.895-.991,4.031.608A2.989,2.989,0,0,1,302.063,325.414Zm-4.639-4.284-1.165-1.614a1.049,1.049,0,0,0-.138,1.382c.282.427.767.42,1.3.261Zm3.72,1.447c-.289-.4-.724-.405-1.3-.261l1.129,1.57a1,1,0,0,0,.166-1.252Z" transform="translate(-91.358 -112.18)" fill="#66d065"/>
      <path id="Trazado_140480" data-name="Trazado 140480" d="M233.325,38.947,208.72,35.64l-2.605.261c-4.458.608-8.019,1.686-13.323,7.3-5.16,5.464-7.331,19.424-7.331,19.424a35.054,35.054,0,0,1,15.552-2.938c9.43.21,12.86,1.86,12.86,1.86s.065-9.408,4.1-14.127C223.006,41.567,233.325,38.947,233.325,38.947Z" transform="translate(-61.375 -34.711)" fill="#66d065"/>
      <g id="Grupo_114500" data-name="Grupo 114500" transform="translate(124.085 0.929)" opacity="0.2">
        <path id="Trazado_140481" data-name="Trazado 140481" d="M233.325,38.947,208.72,35.64l-2.605.261c-4.458.608-8.019,1.686-13.323,7.3-5.16,5.464-7.331,19.424-7.331,19.424a35.054,35.054,0,0,1,15.552-2.938c9.43.21,12.86,1.86,12.86,1.86s.065-9.408,4.1-14.127C223.006,41.567,233.325,38.947,233.325,38.947Z" transform="translate(-185.46 -35.64)"/>
      </g>
      <path id="Trazado_140482" data-name="Trazado 140482" d="M214,35.586s5.79-.818,14.952,7.056c5.862,5.022,15.921,20.43,15.921,20.43a26.35,26.35,0,0,1,7.787-7.1c8.171-4.842,12.853-6.065,12.853-6.065s-5.2-7.809-13-10.884C233.663,31.563,214,35.586,214,35.586Z" transform="translate(-69.26 -34.396)" fill="#66d065"/>
      <g id="Grupo_114501" data-name="Grupo 114501" transform="translate(152.382)" opacity="0.2">
        <path id="Trazado_140483" data-name="Trazado 140483" d="M224.56,34.6c1.281.68,8.844,3.358,14.076,2.895s6.513-1.31,4.4-1.86a37.785,37.785,0,0,0-8.988-1.216,77.988,77.988,0,0,0-9.488.181Z" transform="translate(-224.56 -34.356)" fill="#fff"/>
      </g>
      <g id="Grupo_114502" data-name="Grupo 114502" transform="translate(149.133 0.271)" opacity="0.2">
        <path id="Trazado_140484" data-name="Trazado 140484" d="M264.454,48.314a52.888,52.888,0,0,0-11.869-9.365c-.926-.507-1.911-.991-2.895-1.447A66.927,66.927,0,0,0,239.4,35.244c3.3.724,7.577,1.071,13.077,4.849a75.924,75.924,0,0,1,7.859,6.282c-.861.5-.876,2.222-.261,2.895a36.07,36.07,0,0,0-6.477,3.278,61.855,61.855,0,0,0-5.421,4.024,1.947,1.947,0,0,0,.174-1.035,2.442,2.442,0,0,0-2.895-1.57,1.187,1.187,0,0,0-.934.825c-3.1-4.509-8.243-11.681-11.21-14.17a39.992,39.992,0,0,0-9.886-5.891h-.08c-1.274.08-2.28.217-3.278.326a39.347,39.347,0,0,1,12.3,6.723c4.19,3.517,13.4,17.521,13.5,17.665l.478.724.637-.579a71.819,71.819,0,0,1,7.454-5.79,34.014,34.014,0,0,1,9.683-4.255l1.252-.282Z" transform="translate(-220.07 -34.73)" fill="#fff"/>
      </g>
      <path id="Trazado_140485" data-name="Trazado 140485" d="M127.73,274.053l22.268,3.8,2.338-.159c4.067-.405,7.331-1.266,12.3-6.195,4.863-4.8,7.28-17.369,7.28-17.369a31.836,31.836,0,0,1-14.213,2.171c-8.554-.492-11.615-2.106-11.615-2.106s-.362,8.561-4.176,12.694C137.189,272.005,127.73,274.053,127.73,274.053Z" transform="translate(-45.424 -95.08)" fill="#66d065"/>
      <g id="Grupo_114503" data-name="Grupo 114503" transform="translate(82.306 159.05)" opacity="0.2">
        <path id="Trazado_140486" data-name="Trazado 140486" d="M127.73,274.053l22.268,3.8,2.338-.159c4.067-.405,7.331-1.266,12.3-6.195,4.863-4.8,7.28-17.369,7.28-17.369a31.836,31.836,0,0,1-14.213,2.171c-8.554-.492-11.615-2.106-11.615-2.106s-.362,8.561-4.176,12.694C137.189,272.005,127.73,274.053,127.73,274.053Z" transform="translate(-127.73 -254.13)"/>
      </g>
      <path id="Trazado_140487" data-name="Trazado 140487" d="M144.066,276.782s-5.269.557-13.352-6.882c-5.16-4.747-13.75-19.069-13.75-19.069a23.925,23.925,0,0,1-7.295,6.2C102.1,261.164,97.8,262.1,97.8,262.1s4.436,7.237,11.427,10.305C126.082,279.807,144.066,276.782,144.066,276.782Z" transform="translate(-37.154 -94.168)" fill="#66d065"/>
      <g id="Grupo_114504" data-name="Grupo 114504" transform="translate(82.351 180.148)" opacity="0.2">
        <path id="Trazado_140488" data-name="Trazado 140488" d="M145.384,286.364c-1.143-.666-7.917-3.336-12.686-3.061s-5.927.977-4.053,1.549a34.68,34.68,0,0,0,8.12,1.4,71.73,71.73,0,0,0,8.619.116Z" transform="translate(-127.792 -283.283)" fill="#fff"/>
      </g>
      <g id="Grupo_114505" data-name="Grupo 114505" transform="translate(62.267 159.347)" opacity="0.2">
        <path id="Trazado_140489" data-name="Trazado 140489" d="M100.807,264.744a48.356,48.356,0,0,0,10.465,8.88c.825.492,1.7.962,2.605,1.4a59.909,59.909,0,0,0,9.271,2.388c-2.974-.789-6.846-1.223-11.724-4.827a71.054,71.054,0,0,1-6.933-5.956,1.979,1.979,0,0,0,.333-2.62,32.247,32.247,0,0,0,5.985-2.772,54.962,54.962,0,0,0,5.066-3.474,1.744,1.744,0,0,0-.188.934,2.227,2.227,0,0,0,2.591,1.52,1.107,1.107,0,0,0,.883-.724c2.663,4.19,7.1,10.855,9.719,13.229a36.186,36.186,0,0,0,8.764,5.667h.065c1.165-.036,2.084-.13,2.989-.2a35.635,35.635,0,0,1-10.942-6.513c-3.691-3.322-11.579-16.341-11.681-16.471l-.413-.673-.6.507a63.337,63.337,0,0,1-6.948,4.994,30.75,30.75,0,0,1-8.93,3.553l-1.143.217Z" transform="translate(-100.04 -254.54)" fill="#fff"/>
      </g>
      <path id="Trazado_140490" data-name="Trazado 140490" d="M348.18,89.2s5.2-4.234,11.825-10.552c8.076-7.7,24.823-23.043,39.08-17.239l16.348,19.54s-7.961-1.657-18.671,2.3c-9.488,3.51-16.146,10.486-19.149,13.692-1.209,1.3-2.793,3.032-4.067,4.255a112.621,112.621,0,0,1-8.438,8Z" transform="translate(-106.334 -41.477)" fill="#66d065"/>
      <g id="Grupo_114506" data-name="Grupo 114506" transform="translate(262.982 28.23)" opacity="0.2">
        <path id="Trazado_140491" data-name="Trazado 140491" d="M395.1,78.622a9.27,9.27,0,1,1-11.941-4.494A9.033,9.033,0,0,1,395.1,78.622Z" transform="translate(-377.386 -73.363)" fill="#fff"/>
      </g>
      <path id="Trazado_140492" data-name="Trazado 140492" d="M392.589,86.148l.977.955-.724.782-.984-.941a4.834,4.834,0,0,1-2.6,1.266l-.651-1.447a4.132,4.132,0,0,0,2.1-.9l-1.447-1.447c-1.086.637-2.352,1.288-3.618.065a2.619,2.619,0,0,1-.1-3.669l-.97-.948.76-.782.955.934a4.61,4.61,0,0,1,2.084-1.071l.724,1.447a4.3,4.3,0,0,0-1.621.724l1.491,1.447c1.078-.644,2.33-1.281,3.568-.072A2.67,2.67,0,0,1,392.589,86.148Zm-4.632-3-1.245-1.216a.912.912,0,0,0,.08,1.209C387.1,83.449,387.494,83.376,387.957,83.152Zm3.423.724c-.311-.3-.724-.239-1.158,0l1.209,1.18a.868.868,0,0,0-.036-1.187Z" transform="translate(-116.389 -46.674)" fill="#66d065"/>
      <g id="Grupo_114507" data-name="Grupo 114507" transform="translate(244.205 19.561)" opacity="0.2">
        <path id="Trazado_140493" data-name="Trazado 140493" d="M398.77,61.917l-.166-.051c-.42-.138-10.342-3.112-24.352,7.592A121.678,121.678,0,0,0,359.6,82.694c-2.895,2.982-4.972,5.131-7.49,6.463l-.666.347,14.879,18.483.485-.536c.145-.152,14.018-15.422,20.691-20.133,5.29-3.734,15.552-9.712,24.765-7.787l1.824.391Zm-11.963,24.4c-4.82,3.394-13.027,11.9-17.608,16.761a3.872,3.872,0,0,0-5.312-.1l-8.156-10.132a3.257,3.257,0,0,0,1.353-2.5,4.689,4.689,0,0,0-.767-2.685c1.3-1.143,2.62-2.5,4.169-4.1A119.183,119.183,0,0,1,375,70.442c7.042-5.377,12.983-7.1,16.725-7.6a21.713,21.713,0,0,1,2.945-.2,5.58,5.58,0,0,0,5.616,2.974l8.525,10.03c-.593.188-1.3.724-1.1,2.294C399.515,78.265,391.366,83.092,386.807,86.313Z" transform="translate(-351.44 -61.385)" fill="#fff"/>
      </g>
      <path id="Trazado_140494" data-name="Trazado 140494" d="M55.366,358.63s5.2,4.241,12.723,9.444c9.184,6.354,27.595,19.648,24.808,34.81l-15.82,19.96s0-8.163-6.028-17.817c-5.384-8.6-13.562-13.75-17.3-16.008-1.513-.919-3.532-2.12-4.994-3.119a106.157,106.157,0,0,1-9.538-6.644Z" transform="translate(-20.968 -123.953)" fill="#66d065"/>
      <g id="Grupo_114508" data-name="Grupo 114508" transform="translate(38.453 249.631)" opacity="0.2">
        <ellipse id="Elipse_5333" data-name="Elipse 5333" cx="8.793" cy="9.256" rx="8.793" ry="9.256" transform="matrix(0.824, -0.567, 0.567, 0.824, 0, 9.973)" fill="#fff"/>
      </g>
      <path id="Trazado_140495" data-name="Trazado 140495" d="M81.168,399.256l-.724,1.158-.919-.586.724-1.129a4.82,4.82,0,0,1-1.759-2.287l1.31-.934a4.19,4.19,0,0,0,1.317,1.874l1.1-1.73c-.847-.926-1.737-2.041-.8-3.51A2.628,2.628,0,0,1,85,391.273l.724-1.143.919.586-.724,1.122a4.566,4.566,0,0,1,1.447,1.824l-1.274.977a4.176,4.176,0,0,0-1.064-1.447l-1.107,1.766c.847.919,1.73,2.019.8,3.474A2.623,2.623,0,0,1,81.168,399.256Zm1.99-1.65c.232-.362.087-.724-.21-1.136l-.912,1.447a.876.876,0,0,0,1.122-.311Zm0-3.5.934-1.447a.926.926,0,0,0-1.165.333c-.224.34-.072.709.275,1.115Z" transform="translate(-31.819 -132.656)" fill="#66d065"/>
      <g id="Grupo_114509" data-name="Grupo 114509" transform="translate(19.829 236.978)" opacity="0.2">
        <path id="Trazado_140496" data-name="Trazado 140496" d="M93.087,402.576V402.4c.051-.434.955-10.754-12.368-22.3A121.808,121.808,0,0,0,64.8,368.417c-3.5-2.222-6.028-3.828-7.838-6.028l-.485-.579L41.4,380.156l.622.362c.181.109,17.948,10.6,23.882,16.182,4.726,4.429,12.657,13.265,12.643,22.681v1.8Zm-26.314-6.781c-4.3-4.024-14.286-10.356-19.981-13.844a3.872,3.872,0,0,0-.97-5.218l8.257-10.045a3.249,3.249,0,0,0,2.728.818,4.581,4.581,0,0,0,2.468-1.3c1.382,1.042,2.989,2.063,4.87,3.257a119.83,119.83,0,0,1,15.777,11.579c6.694,5.79,9.589,11.275,10.855,14.843a21.383,21.383,0,0,1,.789,2.844,5.58,5.58,0,0,0-1.773,6.094l-8.12,10.363c-.3-.543-.977-1.122-2.468-.615-1.983-7.961-8.351-14.959-12.433-18.78Z" transform="translate(-41.4 -361.81)" fill="#fff"/>
      </g>
      <path id="Trazado_140497" data-name="Trazado 140497" d="M14,189.621s11.579-13.511,34.2-4.813a14.251,14.251,0,0,0,2.656.724,14.72,14.72,0,0,0,7.736-.55c4.415-1.773,10.689-4.342,10.689-4.342L88.7,192.132s-8.142,5.934-16.023,6.434-17.2-5.971-26.234-3.763A22.674,22.674,0,0,0,34.5,201.671Z" transform="translate(-14 -74.774)" fill="#66d065"/>
      <g id="Grupo_114510" data-name="Grupo 114510" transform="translate(26.356 111.454)" opacity="0.2">
        <path id="Trazado_140498" data-name="Trazado 140498" d="M70.871,194.729c-.876.782-6.13.065-11.746-1.6s-9.459-3.618-8.583-4.436,6.13-.065,11.746,1.607S71.74,193.947,70.871,194.729Z" transform="translate(-50.418 -188.361)" fill="#fff"/>
      </g>
      <path id="Trazado_140499" data-name="Trazado 140499" d="M65.705,193.9l.355.376-1.18-.261-.347-.369a30.832,30.832,0,0,1-3.192-.912l.261-.268a23.776,23.776,0,0,0,2.511.724l-.528-.557a10.274,10.274,0,0,1-3.438-1.31c-.333-.355.282-.463,2.091-.116l-.355-.369,1.18.253.347.369c.9.217,1.831.47,2.591.724l-.2.289c-.688-.232-1.361-.427-1.968-.572l.543.572a10.234,10.234,0,0,1,3.4,1.288C68.108,194.14,67.5,194.241,65.705,193.9Zm-2.591-1.751-.456-.478c-.586-.094-.724-.051-.637.058A3.524,3.524,0,0,0,63.114,192.15Zm2.8,1.259a3.4,3.4,0,0,0-1.071-.42l.441.463c.521.094.731.065.63-.043Z" transform="translate(-26.727 -77.593)" fill="#66d065"/>
      <g id="Grupo_114511" data-name="Grupo 114511" transform="translate(2.613 107.262)" opacity="0.2">
        <path id="Trazado_140500" data-name="Trazado 140500" d="M70,182.57l-.217.1a67.784,67.784,0,0,1-11.34,4.342,11.906,11.906,0,0,1-6.289.065l-1.447-.246a29.775,29.775,0,0,1-3.988-1.114,37.9,37.9,0,0,0-10.226-2.229H36.4c-.1,0-10.132-.868-18.3,5.7l-.485.391,17.441,10.559.239-.224c.094-.087,9.452-8.54,22.1-5.355,1.5.376,2.895.724,4.2,1.093,10.248,2.707,15.386,4.067,25.691-2.12l.622-.376Zm-8.192,12.223c-1.31-.347-2.707-.724-4.2-1.093a25.711,25.711,0,0,0-19.648,3.235,4.7,4.7,0,0,0-5.638.514l-10.2-6.173c1.968-1.715.818-3.2.152-3.814a27.891,27.891,0,0,1,14.076-3.134A38.652,38.652,0,0,1,46.471,186.5a31.17,31.17,0,0,0,4.118,1.143l1.447.246a13.135,13.135,0,0,0,6.651-.08,59.954,59.954,0,0,0,8.569-3.047,4.761,4.761,0,0,0,5.515.4l10.407,6.151c-.782.369-1.947,1.332-.087,3.43C75.412,198.39,70.483,197.087,61.806,194.793Z" transform="translate(-17.61 -182.57)" fill="#fff"/>
      </g>
      <path id="Trazado_140501" data-name="Trazado 140501" d="M379.994,425.573s-1.368-17.709,20.835-27.5a14.378,14.378,0,0,0,2.417-1.346,14.691,14.691,0,0,0,5.066-5.84c1.874-4.342,4.5-10.638,4.5-10.638l21.863-5.558s-1.578,9.951-6.81,15.863-16.4,7.9-21.248,15.849A22.688,22.688,0,0,0,403,419.69Z" transform="translate(-115.12 -128.39)" fill="#66d065"/>
      <g id="Grupo_114512" data-name="Grupo 114512" transform="translate(281.482 265.865)" opacity="0.2">
        <path id="Trazado_140502" data-name="Trazado 140502" d="M421.614,402.163c-.065,1.172-4.3,4.342-9.452,7.15s-9.278,4.089-9.213,2.895,4.3-4.342,9.452-7.15S421.679,400.991,421.614,402.163Z" transform="translate(-402.949 -401.726)" fill="#fff"/>
      </g>
      <path id="Trazado_140503" data-name="Trazado 140503" d="M417.326,407.9h.521l-1.02.651h-.507a30.088,30.088,0,0,1-2.895,1.6v-.369a24.9,24.9,0,0,0,2.309-1.252h-.782a10.117,10.117,0,0,1-3.351,1.5c-.492,0-.13-.528,1.4-1.556h-.514l1.02-.651h.507c.789-.485,1.628-.955,2.352-1.3l.058.34c-.651.326-1.259.659-1.8.984h.789c1.252-.724,2.67-1.505,3.322-1.447C419.2,406.377,418.838,406.884,417.326,407.9Zm-3.068.586H413.6c-.485.34-.564.485-.405.485A3.444,3.444,0,0,0,414.257,408.49Zm2.895-1.078a3.445,3.445,0,0,0-1.057.456h.644c.434-.311.543-.456.391-.456Z" transform="translate(-123.801 -137.151)" fill="#66d065"/>
      <g id="Grupo_114513" data-name="Grupo 114513" transform="translate(266.3 247.921)" opacity="0.2">
        <path id="Trazado_140504" data-name="Trazado 140504" d="M414.189,382.047l-.072.224a68.537,68.537,0,0,1-4.986,11.08,12.484,12.484,0,0,1-4.407,4.487c-.376.261-.782.543-1.223.861a30.469,30.469,0,0,1-3.618,2.026,38.041,38.041,0,0,0-8.822,5.638l-.065.065c-.08.065-7.8,6.513-8.952,16.949l-.072.622,19.815-4.827v-.326c0-.13.673-12.723,11.876-19.4,1.332-.789,2.576-1.505,3.742-2.171,9.176-5.3,13.75-7.961,16.71-19.627l.181-.724Zm2.8,14.474c-1.172.68-2.424,1.4-3.749,2.171A25.759,25.759,0,0,0,401.6,414.845a4.718,4.718,0,0,0-3.618,4.342L386.4,422c.181-2.605-1.679-2.844-2.584-2.808a27.79,27.79,0,0,1,7.78-12.136,37.4,37.4,0,0,1,8.684-5.572,31.609,31.609,0,0,0,3.727-2.1c.434-.318.839-.6,1.209-.861a13.035,13.035,0,0,0,4.661-4.747,60.129,60.129,0,0,0,3.959-8.207,4.753,4.753,0,0,0,4.183-3.618l11.717-2.974c-.289.8-.441,2.309,2.352,2.49C429.17,389.436,424.755,392,416.99,396.521Z" transform="translate(-381.97 -376.93)" fill="#fff"/>
      </g>
      <path id="Trazado_140505" data-name="Trazado 140505" d="M424.562,179.545s-4.921-17.072,14.829-31.184a13.859,13.859,0,0,0,2.1-1.8,14.64,14.64,0,0,0,3.8-6.752c.955-4.661,2.258-11.326,2.258-11.326l20.264-9.871s.463,10.059-3.459,16.913-14.474,11.058-17.6,19.822a22.7,22.7,0,0,0-.847,13.75Z" transform="translate(-127.288 -57.635)" fill="#66d065"/>
      <g id="Grupo_114514" data-name="Grupo 114514" transform="translate(309.303 84.182)" opacity="0.2">
        <path id="Trazado_140506" data-name="Trazado 140506" d="M457.637,151c.174,1.158-3.322,5.153-7.809,8.916s-8.257,5.876-8.431,4.719,3.329-5.153,7.809-8.916S457.464,149.833,457.637,151Z" transform="translate(-441.391 -150.678)" fill="#fff"/>
      </g>
      <path id="Trazado_140507" data-name="Trazado 140507" d="M454.059,158.324l.514-.094-.868.847-.5.087a28.559,28.559,0,0,1-2.526,2.171l-.08-.362a25.609,25.609,0,0,0,2-1.686l-.76.13a10.943,10.943,0,0,1-2.982,2.171c-.485.08-.232-.492,1.057-1.809l-.514.094.868-.847.5-.087c.68-.637,1.4-1.266,2.041-1.759l.123.326c-.572.449-1.1.9-1.563,1.324l.782-.138a9.916,9.916,0,0,1,2.953-2.12C455.578,156.443,455.332,157.007,454.059,158.324Zm-2.895,1.2-.651.109c-.4.441-.449.593-.3.564a3.5,3.5,0,0,0,.955-.68Zm2.591-1.643a3.329,3.329,0,0,0-.941.659l.637-.109c.391-.42.456-.586.311-.557Z" transform="translate(-134.089 -68.119)" fill="#66d065"/>
      <g id="Grupo_114515" data-name="Grupo 114515" transform="translate(298.082 62.748)" opacity="0.2">
        <path id="Trazado_140508" data-name="Trazado 140508" d="M449.069,130.135v.232a68.752,68.752,0,0,1-2.634,11.854,12.288,12.288,0,0,1-3.409,5.283c-.318.34-.659.724-1.028,1.1a30.035,30.035,0,0,1-3.119,2.714,38.272,38.272,0,0,0-7.5,7.309l-.058.072c-.058.08-6.311,8-5.334,18.411l.058.622L444.474,169l-.051-.326c0-.123-1.918-12.592,7.707-21.393,1.136-1.042,2.215-2,3.22-2.895,7.91-7.056,11.876-10.595,12.39-22.6v-.724Zm5.674,13.591q-1.52,1.357-3.228,2.895a25.7,25.7,0,0,0-8.134,18.172,4.7,4.7,0,0,0-2.67,4.994L429.935,174.9c-.347-2.584-2.222-2.446-3.1-2.229A27.739,27.739,0,0,1,432,159.206a38.891,38.891,0,0,1,7.4-7.237,30.245,30.245,0,0,0,3.228-2.808c.362-.4.724-.724,1.006-1.086a13.319,13.319,0,0,0,3.618-5.594,60.787,60.787,0,0,0,2.171-8.829,4.747,4.747,0,0,0,3.365-4.386l10.855-5.29c-.116.854.043,2.352,2.815,1.968C465.244,134.354,461.43,137.756,454.743,143.726Z" transform="translate(-425.887 -121.06)" fill="#fff"/>
      </g>
      <path id="Trazado_140509" data-name="Trazado 140509" d="M114.646,102.769a30.352,30.352,0,0,1-13.287-4.284c-5.29-3.271-19.439-14.257-23.752-16.7A54.531,54.531,0,0,0,62.091,76L61.65,50.33a63.953,63.953,0,0,1,13.917,3.524c7.005,2.743,17.6,15.2,27.312,18.447,6.3,2.128,18.693,1.252,18.693,1.252Z" transform="translate(-27.166 -38.77)" fill="#66d065"/>
      <g id="Grupo_114516" data-name="Grupo 114516" transform="translate(35.599 12.914)" opacity="0.2">
        <path id="Trazado_140510" data-name="Trazado 140510" d="M63.776,75.474l.463.138c.087,0,8.518,2.439,12.875,4.914,3.068,1.737,8.091,5.3,12.947,8.757,3.684,2.62,7.165,5.066,9.7,6.709,8.113,5.167,13.179,5.066,13.4,5.066h.485L120,76.343l-.89.051c-.094,0-9.285.514-14.221-1.078C98.318,73.2,93.556,69.069,88.968,65.067a58.252,58.252,0,0,0-10.132-7.584,49.7,49.7,0,0,0-10.5-4.255,31.567,31.567,0,0,0-4.422-.941L63.19,52.2Zm40.715,1.086A39.009,39.009,0,0,0,114.8,77.783a3.344,3.344,0,0,0,.051,2.33c.724,1.129,1.867,1.042,2.779.181l-4.125,16.052-.1-.087c-1.925-1.4-3.973,1.035-3.517,2.982l-.166-.043a34.354,34.354,0,0,1-9.263-4.342c-2.511-1.6-5.978-4.06-9.647-6.673l-1.259-.9c2.229.253,4.653-1.02,5.942-5.2,1.194-3.865.109-8.192-1.541-11.232a35.57,35.57,0,0,0,10.5,5.7ZM78.163,58.626a56.41,56.41,0,0,1,9.893,7.432c.311.261.615.528.919.8a7.027,7.027,0,0,0-6.593,5.326c-.724,3.228-.97,7.613,1.447,11.138-2.374-1.592-4.494-3.04-6.108-3.93a67.208,67.208,0,0,0-10.783-4.342,1.447,1.447,0,0,0,.355-2c-.405-.724-1.447-1.447-2.229-.948l-.1.08-.4-16.167c1.4,1.816,3.329.123,2.3-1.788a47.655,47.655,0,0,1,11.3,4.407Z" transform="translate(-63.19 -52.2)" fill="#fff"/>
      </g>
      <path id="Trazado_140511" data-name="Trazado 140511" d="M97.226,79.057,97.6,77.53l1.216.3-.362,1.447A5.5,5.5,0,0,1,101.2,81.1l-1.078,1.534a4.762,4.762,0,0,0-2.113-1.541l-.557,2.272c1.259.724,2.634,1.563,2.171,3.51A3,3,0,0,1,96.054,89.1l-.362,1.513-1.216-.3.362-1.447a5.218,5.218,0,0,1-2.258-1.447l1.028-1.541a4.8,4.8,0,0,0,1.686,1.158l.564-2.316c-1.259-.68-2.62-1.541-2.171-3.459A2.981,2.981,0,0,1,97.226,79.057Zm-1.541,2.518c-.116.478.174.818.644,1.151l.456-1.874a.991.991,0,0,0-1.114.724Zm1.288,3.785-.47,1.918a1.049,1.049,0,0,0,1.143-.789c.094-.456-.2-.8-.688-1.129Z" transform="translate(-35.712 -46.285)" fill="#66d065"/>
      <path id="Trazado_140512" data-name="Trazado 140512" d="M265.376,432.219a30.266,30.266,0,0,1-13.28-4.292c-5.3-3.264-19.446-14.25-23.759-16.688a54.529,54.529,0,0,0-15.509-5.79l-.449-25.67A63.364,63.364,0,0,1,226.3,383.3c7.005,2.743,17.6,15.162,27.32,18.447C259.905,403.872,272.3,403,272.3,403Z" transform="translate(-68.813 -129.797)" fill="#66d065"/>
      <g id="Grupo_114517" data-name="Grupo 114517" transform="translate(144.66 251.337)" opacity="0.2">
        <path id="Trazado_140513" data-name="Trazado 140513" d="M214.462,404.924l.463.13c.087,0,8.525,2.446,12.882,4.921,3.061,1.737,8.084,5.3,12.94,8.757,3.684,2.62,7.165,5.066,9.7,6.709,8.105,5.167,13.179,5.066,13.388,5.066h.492l6.354-24.722-.89.051c-.094,0-9.278.514-14.221-1.078-6.571-2.113-11.333-6.246-15.921-10.248a58.525,58.525,0,0,0-10.132-7.584,49.542,49.542,0,0,0-10.486-4.248,31.566,31.566,0,0,0-4.422-.941l-.724-.087Zm40.715,1.086a39.063,39.063,0,0,0,10.32,1.223,3.344,3.344,0,0,0,.051,2.33c.724,1.129,1.867,1.042,2.779.181L264.194,425.8l-.1-.087c-1.918-1.4-3.966,1.035-3.51,2.982l-.166-.043a34.159,34.159,0,0,1-9.263-4.306c-2.511-1.6-5.978-4.06-9.647-6.673l-1.266-.9c2.236.253,4.653-1.02,5.942-5.2,1.194-3.865.116-8.192-1.541-11.232a35.57,35.57,0,0,0,10.537,5.667Zm-26.292-17.933a56.683,56.683,0,0,1,9.9,7.425c.3.268.608.536.919.8a7.049,7.049,0,0,0-6.6,5.334c-.724,3.228-.97,7.613,1.447,11.13-2.345-1.614-4.472-3.011-6.079-3.922a67.274,67.274,0,0,0-10.79-4.342,1.447,1.447,0,0,0,.362-2.063c-.405-.724-1.447-1.447-2.236-.941l-.1.08-.391-16.175c1.4,1.824,3.322.13,2.294-1.78A47.422,47.422,0,0,1,228.885,388.076Z" transform="translate(-213.89 -381.65)" fill="#fff"/>
      </g>
      <path id="Trazado_140514" data-name="Trazado 140514" d="M247.931,408.5l.376-1.52,1.209.3-.362,1.484a5.464,5.464,0,0,1,2.757,1.824l-1.071,1.476a4.726,4.726,0,0,0-2.12-1.542l-.579,2.265c1.259.724,2.641,1.563,2.171,3.51a2.992,2.992,0,0,1-3.561,2.229l-.369,1.513-1.209-.3.362-1.447a5.189,5.189,0,0,1-2.265-1.447l1.02-1.52a4.777,4.777,0,0,0,1.679,1.158l.564-2.316c-1.259-.68-2.613-1.541-2.171-3.459A3.062,3.062,0,0,1,247.931,408.5Zm-1.542,2.526c-.116.478.174.818.644,1.151l.463-1.874a1,1,0,0,0-1.107.724Zm1.288,3.785-.47,1.932a1.057,1.057,0,0,0,1.143-.789C248.466,415.476,248.141,415.129,247.677,414.81Z" transform="translate(-77.347 -137.312)" fill="#66d065"/>
      <path id="Trazado_140515" data-name="Trazado 140515" d="M199.282,156.785c-4.624.116-13.121-.065-21.154-3.749-9.951-4.567-14.257-11.116-14.257-11.116L161.7,166.3c5.79,13.649,28.8,14.59,39.521,14.843C198.384,169.334,197.646,163.783,199.282,156.785Z" transform="translate(-54.81 -64.076)" fill="#66d065"/>
      <g id="Grupo_114518" data-name="Grupo 114518" transform="translate(121.153 93.38)" opacity="0.2">
        <ellipse id="Elipse_5334" data-name="Elipse 5334" cx="8.453" cy="8.902" rx="8.453" ry="8.902" transform="translate(0 15.664) rotate(-67.9)" fill="#fff"/>
      </g>
      <path id="Trazado_140516" data-name="Trazado 140516" d="M194.719,172.347V171.03h1.049v1.288a4.625,4.625,0,0,1,2.627.9l-.557,1.447a3.908,3.908,0,0,0-2.048-.811v1.961c1.165.3,2.475.724,2.5,2.41a2.544,2.544,0,0,1-2.432,2.562v1.3h-1.049v-1.281a4.443,4.443,0,0,1-2.171-.724l.507-1.447a4.024,4.024,0,0,0,1.614.586v-2c-1.165-.289-2.453-.724-2.475-2.374A2.561,2.561,0,0,1,194.719,172.347ZM194,174.728c0,.413.311.63.767.8V173.9C194.248,174.041,194,174.352,194,174.728Zm1.845,2.793v1.665a.876.876,0,0,0,.76-.876C196.622,177.92,196.3,177.7,195.841,177.522Z" transform="translate(-63.259 -72.119)" fill="#66d065"/>
      <g id="Grupo_114519" data-name="Grupo 114519" transform="translate(107.867 80.37)" opacity="0.2">
        <path id="Trazado_140517" data-name="Trazado 140517" d="M200.957,179.351a86.691,86.691,0,0,1-16.015-.948c-8.446-1.129-13.656-3.995-16.544-6.2a21.127,21.127,0,0,1-2.135-1.86,5.363,5.363,0,0,0-1.795-5.833l1.013-12.614c.528.275,1.375.384,2.309-.818,5.79,5.348,14.611,7.606,19.9,8.511a80.611,80.611,0,0,0,11.463.724l.224-1.281a82.253,82.253,0,0,1-11.427-.651c-6.137-1.057-17.173-3.959-22.131-11.521l-.955-1.447-1.816,22.608.08.152c.188.376,4.914,9.14,21.711,11.384a89.548,89.548,0,0,0,16.319.984Z" transform="translate(-163.05 -145.41)" fill="#fff"/>
      </g>
    </g>
  </g>
</svg>
