<svg xmlns="http://www.w3.org/2000/svg" xmlns:xlink="http://www.w3.org/1999/xlink" width="105" height="105" viewBox="0 0 105 105">
  <defs>
    <clipPath id="clip-path">
      <rect id="Rectángulo_37033" data-name="Rectángulo 37033" width="85" height="85" transform="translate(1230 648)" fill="#fff"/>
    </clipPath>
  </defs>
  <g id="Grupo_117122" data-name="Grupo 117122" transform="translate(-1220 -642)">
    <circle id="Elipse_5188" data-name="Elipse 5188" cx="52.5" cy="52.5" r="52.5" transform="translate(1220 642)" fill="#fff7df"/>
    <g id="Enmascarar_grupo_155" data-name="Enmascarar grupo 155" clip-path="url(#clip-path)">
      <g id="XMLID_2147_" transform="translate(1230 648)">
        <g id="XMLID_1644_">
          <g id="XMLID_2911_">
            <path id="XMLID_1515_" d="M54.972,72.715H30.028l2.407-9.3H52.565Z" fill="#8aa8bd"/>
          </g>
          <g id="XMLID_2910_">
            <path id="XMLID_1514_" d="M58.105,80.02H26.895a3.652,3.652,0,0,1,0-7.3H58.105a3.652,3.652,0,0,1,0,7.3Z" fill="#e2e9ee"/>
          </g>
          <g id="XMLID_2909_">
            <path id="XMLID_1512_" d="M76.7,63.418H8.3A6.641,6.641,0,0,1,1.66,56.777V11.621A6.641,6.641,0,0,1,8.3,4.98H76.7a6.641,6.641,0,0,1,6.641,6.641V56.777A6.641,6.641,0,0,1,76.7,63.418Z" fill="#99ebfa"/>
          </g>
          <g id="XMLID_2908_">
            <path id="XMLID_1495_" d="M83.34,51.465v5.313A6.641,6.641,0,0,1,76.7,63.418H8.3A6.641,6.641,0,0,1,1.66,56.777V51.465Z" fill="#e2e9ee"/>
          </g>
          <g id="XMLID_2902_">
            <path id="XMLID_1492_" d="M2.967,67.687a4.462,4.462,0,0,1,0-6.31L21.356,42.988l6.31,6.31L9.277,67.687a4.462,4.462,0,0,1-6.31,0Z" fill="#ffcd69"/>
          </g>
          <g id="XMLID_2900_">
            <circle id="XMLID_1491_" cx="18.372" cy="18.372" r="18.372" transform="translate(15.205 18.705)" fill="#fff"/>
          </g>
          <g id="XMLID_2899_">
            <ellipse id="XMLID_1489_" cx="11.583" cy="7.028" rx="11.583" ry="7.028" transform="translate(21.995 30.049)" fill="#ccf5fc"/>
          </g>
          <g id="XMLID_2799_">
            <circle id="XMLID_540_" cx="4.372" cy="4.372" r="4.372" transform="translate(29.205 32.705)" fill="#ff7b79"/>
          </g>
        </g>
        <g id="XMLID_529_">
          <path id="XMLID_1481_" d="M76.7,3.32H49.971a1.66,1.66,0,0,0,0,3.32H76.7a4.986,4.986,0,0,1,4.98,4.98V49.677H49.138a20.029,20.029,0,1,0-33.375-3.444L12.191,49.8H3.32V11.621A4.986,4.986,0,0,1,8.3,6.641H35.029a1.66,1.66,0,0,0,0-3.32H8.3a8.31,8.31,0,0,0-8.3,8.3V56.777a8.335,8.335,0,0,0,1.141,4.2,6.122,6.122,0,0,0,9.31,7.887l3.783-3.783H30.291l-1.548,5.977H26.895a5.313,5.313,0,1,0,0,10.625H58.105a5.313,5.313,0,0,0,0-10.625H56.257l-1.548-5.977H76.7a8.31,8.31,0,0,0,8.3-8.3V11.621A8.31,8.31,0,0,0,76.7,3.32ZM33.577,20.365A16.712,16.712,0,1,1,16.865,37.077,16.731,16.731,0,0,1,33.577,20.365ZM8.871,53.125,3.591,58.4a4.973,4.973,0,0,1-.271-1.628V53.125ZM8.1,66.513a2.8,2.8,0,1,1-3.962-3.962L17.576,49.116a20.2,20.2,0,0,0,3.962,3.962ZM60.1,76.367a1.994,1.994,0,0,1-1.992,1.992H26.895a1.992,1.992,0,0,1,0-3.984H58.105A1.994,1.994,0,0,1,60.1,76.367Zm-7.27-5.312H32.173l1.547-5.977H51.28Zm23.872-9.3H17.554l6.867-6.867A20,20,0,0,0,45.72,53H81.68v3.78A4.986,4.986,0,0,1,76.7,61.758Z"/>
          <path id="XMLID_1509_" d="M33.577,45.765a14.684,14.684,0,0,0,13.054-7.92,1.66,1.66,0,0,0,0-1.536,14.719,14.719,0,0,0-26.109,0,1.66,1.66,0,0,0,0,1.536A14.684,14.684,0,0,0,33.577,45.765Zm0-11.4a2.712,2.712,0,1,1-2.712,2.712A2.715,2.715,0,0,1,33.577,34.365Zm9.672,2.712a11.371,11.371,0,0,1-5.959,4.748,6.021,6.021,0,0,0,0-9.5A11.371,11.371,0,0,1,43.249,37.077ZM29.864,32.329a6.021,6.021,0,0,0,0,9.5,11.37,11.37,0,0,1-5.959-4.748A11.372,11.372,0,0,1,29.864,32.329Z"/>
          <path id="XMLID_1518_" d="M57.673,23.766a1.66,1.66,0,0,0,1.66,1.66h16.7a1.66,1.66,0,0,0,0-3.32h-16.7A1.66,1.66,0,0,0,57.673,23.766Z"/>
          <path id="XMLID_1519_" d="M76.035,17.458a1.66,1.66,0,0,0,0-3.32H66.424a1.66,1.66,0,0,0,0,3.32Z"/>
          <path id="XMLID_1520_" d="M59.193,14.138a1.664,1.664,0,1,0,1.174.486A1.672,1.672,0,0,0,59.193,14.138Z"/>
          <path id="XMLID_1521_" d="M77.209,32.909a1.659,1.659,0,1,0-1.174.487A1.672,1.672,0,0,0,77.209,32.909Z"/>
          <path id="XMLID_1522_" d="M67.685,33.4a1.661,1.661,0,1,0-1.174-.487A1.671,1.671,0,0,0,67.685,33.4Z"/>
          <path id="XMLID_1523_" d="M60.508,32.909a1.661,1.661,0,1,0-1.174.487A1.671,1.671,0,0,0,60.508,32.909Z"/>
          <path id="XMLID_1524_" d="M59.333,41.364h5.33a1.66,1.66,0,0,0,0-3.32h-5.33a1.66,1.66,0,0,0,0,3.32Z"/>
          <path id="XMLID_1525_" d="M70.308,39.7a1.66,1.66,0,0,0,1.66,1.66h5.469a1.66,1.66,0,0,0,0-3.32H71.968A1.66,1.66,0,0,0,70.308,39.7Z"/>
          <path id="XMLID_1526_" d="M42.5,6.641a1.661,1.661,0,1,0-1.174-.487A1.671,1.671,0,0,0,42.5,6.641Z"/>
        </g>
      </g>
    </g>
  </g>
</svg>
