<svg xmlns="http://www.w3.org/2000/svg" width="276.801" height="206.407" viewBox="0 0 276.801 206.407">
  <g id="Data_report-pana" data-name="Data report-pana" transform="translate(-126.413 -61.972)">
    <g id="freepik--background-complete--inject-2" transform="translate(36.213 47.393)">
      <rect id="Rectángulo_37920" data-name="Rectángulo 37920" width="3.045" height="22.784" transform="translate(233.3 139.474) rotate(-90)" fill="#e0e0e0"/>
      <path id="Trazado_141057" data-name="Trazado 141057" d="M472.406,299.42a7.276,7.276,0,0,1,0,2.85A7.011,7.011,0,0,1,472.406,299.42Z" transform="translate(-236.001 -162.867)" fill="#fafafa"/>
      <path id="Trazado_141058" data-name="Trazado 141058" d="M471.491,299.31a7.275,7.275,0,0,1,0,2.85,7.276,7.276,0,0,1,0-2.85Z" transform="translate(-235.584 -162.816)" fill="#fafafa"/>
      <path id="Trazado_141059" data-name="Trazado 141059" d="M505.471,299.42a7.011,7.011,0,0,1,0,2.85A7.276,7.276,0,0,1,505.471,299.42Z" transform="translate(-251.153 -162.867)" fill="#fafafa"/>
      <ellipse id="Elipse_5343" data-name="Elipse 5343" cx="0.141" cy="1.425" rx="0.141" ry="1.425" transform="translate(253.684 136.494)" fill="#fafafa"/>
      <path id="Trazado_141060" data-name="Trazado 141060" d="M489.325,302.031c0,.076-2.606.141-5.825.141s-5.83-.065-5.83-.141a116.137,116.137,0,0,1,11.655,0Z" transform="translate(-238.48 -163.987)" fill="#fafafa"/>
      <rect id="Rectángulo_37921" data-name="Rectángulo 37921" width="6.085" height="22.784" transform="translate(233.203 156.216) rotate(-90)" fill="#e0e0e0"/>
      <path id="Trazado_141061" data-name="Trazado 141061" d="M489.718,329.3a.542.542,0,0,1-.125.07c-.081.043-.211.1-.379.173a6.5,6.5,0,0,1-1.544.444,4,4,0,0,1-2.5-.358,3.311,3.311,0,0,1-1.192-1.084,2.514,2.514,0,0,1-.417-1.756,1.831,1.831,0,0,1,.423-.9,1.176,1.176,0,0,1,.959-.433,1.371,1.371,0,0,1,.964.542,1.88,1.88,0,0,1,.444,1.035,2.78,2.78,0,0,1-.786,2.167,3.489,3.489,0,0,1-2.167,1.084,5.867,5.867,0,0,1-2.547-.314,4.708,4.708,0,0,1-2.238-1.506,2.433,2.433,0,0,1-.542-1.311,1.707,1.707,0,0,1,.488-1.371,1.084,1.084,0,0,1,.71-.309,1.279,1.279,0,0,1,.748.206,1.972,1.972,0,0,1,.834,1.23,2.866,2.866,0,0,1-.894,2.682,4.5,4.5,0,0,1-2.568,1.046,6.377,6.377,0,0,1-2.66-.266,3.674,3.674,0,0,1-2.021-1.571,2.709,2.709,0,0,1-.255-2.417,1.268,1.268,0,0,1,.932-.786,1.441,1.441,0,0,1,1.149.276,1.907,1.907,0,0,1,.542,2.048,3.56,3.56,0,0,1-1.149,1.625,5.223,5.223,0,0,1-3.126,1.214,5.017,5.017,0,0,1-2.471-.542,4.877,4.877,0,0,1-1.295-.959,3.116,3.116,0,0,1-.271-.314c-.06-.076-.087-.114-.081-.119a5.8,5.8,0,0,0,1.7,1.295,4.957,4.957,0,0,0,2.417.5,5.017,5.017,0,0,0,3-1.208,3.338,3.338,0,0,0,1.084-1.523,1.674,1.674,0,0,0-.477-1.8,1.219,1.219,0,0,0-.954-.228,1.018,1.018,0,0,0-.748.645,2.444,2.444,0,0,0,.249,2.167,3.392,3.392,0,0,0,1.885,1.447,5.96,5.96,0,0,0,2.541.244,4.178,4.178,0,0,0,2.4-.975,2.585,2.585,0,0,0,.813-2.406,1.7,1.7,0,0,0-.71-1.051.872.872,0,0,0-1.111.07,1.409,1.409,0,0,0-.4,1.138,2.167,2.167,0,0,0,.461,1.165,4.433,4.433,0,0,0,2.086,1.4,5.587,5.587,0,0,0,2.422.309,3.213,3.213,0,0,0,2.037-.975,2.547,2.547,0,0,0,.732-1.961,1.458,1.458,0,0,0-1.181-1.365.991.991,0,0,0-.791.358,1.69,1.69,0,0,0-.379.8,2.325,2.325,0,0,0,.368,1.625,3.164,3.164,0,0,0,1.116,1.035,3.917,3.917,0,0,0,2.411.385,7.184,7.184,0,0,0,1.539-.385A3.434,3.434,0,0,1,489.718,329.3Z" transform="translate(-233.444 -174.792)" fill="#fafafa"/>
      <rect id="Rectángulo_37922" data-name="Rectángulo 37922" width="10.56" height="20.746" transform="translate(235.235 150.121) rotate(-90)" fill="#ebebeb"/>
      <path id="Trazado_141062" data-name="Trazado 141062" d="M476.6,305.64a89.3,89.3,0,0,1,0,10.219,92.749,92.749,0,0,1,0-10.219Z" transform="translate(-237.916 -165.717)" fill="#e0e0e0"/>
      <path id="Trazado_141063" data-name="Trazado 141063" d="M479.5,305.39a90.483,90.483,0,0,1,0,10.094,87.147,87.147,0,0,1,0-10.094Z" transform="translate(-239.243 -165.602)" fill="#e0e0e0"/>
      <path id="Trazado_141064" data-name="Trazado 141064" d="M504.2,304.77a96.529,96.529,0,0,1,0,10.625,100.289,100.289,0,0,1,0-10.625Z" transform="translate(-250.562 -165.318)" fill="#e0e0e0"/>
      <path id="Trazado_141065" data-name="Trazado 141065" d="M500.785,305a91.635,91.635,0,0,1,0,10.354,95.2,95.2,0,0,1,0-10.354Z" transform="translate(-248.998 -165.423)" fill="#e0e0e0"/>
      <rect id="Rectángulo_37923" data-name="Rectángulo 37923" width="139.865" height="92.776" transform="translate(111.711 19.325)" fill="#85d161"/>
      <path id="Trazado_141069" data-name="Trazado 141069" d="M244.349,436.991a3.348,3.348,0,0,1-.916-4.1,3.657,3.657,0,0,1,1.934-1.365,7.786,7.786,0,0,0,2.129-1.084c1.149-.981,1.468-2.612,2.232-3.917a4.893,4.893,0,0,1,4.248-2.547,5.371,5.371,0,0,1,4.389,3.554,15.868,15.868,0,0,1,.791,5.9c0,1.084-.043,2.346-.851,3.088a3.814,3.814,0,0,1-2.882.666l-10.836-.336" transform="translate(-130.98 -219.934)" fill="#f5f5f5"/>
      <path id="Trazado_141070" data-name="Trazado 141070" d="M259.61,393h-28.5l5.131,30.613a3.419,3.419,0,0,0,2.433,2.709l.1.027a1.6,1.6,0,0,1,.255.065,3.948,3.948,0,0,0,.58.07v.027h12.847a3.625,3.625,0,0,0,.694-.07,3.43,3.43,0,0,0,2.883-2.991l2.476-21.093.114-.84h0l.981-8.349Zm-5.38,19.506h-2.92l.293-8.88h3.386Zm1.046-8.88h2.8l-1.019,8.88h-2.514Zm-8.355,18.731-.157-7.716h4.21l-.255,7.721Zm-4.557-7.721h4.1l.179,7.721H242.97Zm.32,7.721h-3.43c-.331-2.086-.753-4.8-1.214-7.721h4.042Zm-.482-9.85-.694-8.88h4.714l.206,8.88Zm4.492,0-.206-8.88h4.833l-.3,8.88Zm-.255-11.015-.19-8.225h5.418l-.271,8.225Zm-.282,0h-4.811l-.639-8.225h5.261Zm-5.093,0H235.97c-.179-1.132-.352-2.211-.5-3.175-.542-3.327-.731-4.578-.845-5.05h5.8Zm.163,2.135.694,8.88h-4.21c-.146-.9-.287-1.81-.433-2.709-.325-2.1-.656-4.194-.97-6.155Zm-3.793,8.88h-2.752l-1.49-8.88h2.839c.439,2.747.9,5.8,1.392,8.88Zm.331,2.129c.423,2.671.834,5.3,1.214,7.721h-2.644l-1.295-7.721Zm13.226,7.721.26-7.721h2.812l-.661,7.721Zm.694-20.866.276-8.225h3.928l-.7,8.225Zm-17.338-8.225c.114.6.634,3.831,1.327,8.225h-2.861l-1.376-8.225Zm21.521,29.09h-2.2l.683-7.716H256.8Zm2.449-20.866h-2.882l.7-8.225h3.132Z" transform="translate(-125.511 -205.743)" fill="#e0e0e0"/>
      <rect id="Rectángulo_37924" data-name="Rectángulo 37924" width="6.139" height="24.512" transform="translate(334.193 33.781)" fill="#e0e0e0"/>
      <rect id="Rectángulo_37925" data-name="Rectángulo 37925" width="6.139" height="19.164" transform="translate(343.219 39.129)" fill="#e0e0e0"/>
      <rect id="Rectángulo_37926" data-name="Rectángulo 37926" width="6.139" height="14.786" transform="translate(352.382 43.507)" fill="#e0e0e0"/>
      <rect id="Rectángulo_37927" data-name="Rectángulo 37927" width="6.139" height="8.783" transform="translate(360.861 49.515)" fill="#e0e0e0"/>
      <path id="Trazado_141071" data-name="Trazado 141071" d="M665.287,206.476a21.228,21.228,0,0,0-29.849,1.008,20.931,20.931,0,0,0,1.013,29.675,21.234,21.234,0,0,0,29.854-1.013,20.925,20.925,0,0,0-1.019-29.67Zm-7.044,22.215a10.154,10.154,0,0,1-14.272.482,10.013,10.013,0,0,1-.488-14.19,10.165,10.165,0,0,1,14.277-.482,10.007,10.007,0,0,1,.488,14.169Z" transform="translate(-308.164 -117.695)" fill="#f5f5f5"/>
      <path id="Trazado_141072" data-name="Trazado 141072" d="M635.442,207.484a21.229,21.229,0,0,1,29.849-1.008l-7.521,7.992a10.164,10.164,0,0,0-14.277.482,10.013,10.013,0,0,0,.488,14.19l-7.526,8.008a20.931,20.931,0,0,1-1.013-29.665Z" transform="translate(-308.169 -117.695)" fill="#ebebeb"/>
      <path id="Trazado_141073" data-name="Trazado 141073" d="M686.432,204.91c10.425,9.682,11.676,25.422,1.934,35.76l-10.576-9.162c4.66-4.952,5.667-11.568.683-16.2Z" transform="translate(-330.171 -119.564)" fill="#fafafa"/>
      <rect id="Rectángulo_37928" data-name="Rectángulo 37928" width="59.844" height="16.856" rx="3.23" transform="translate(90.199 123.506)" fill="#fdab64"/>
      <ellipse id="Elipse_5344" data-name="Elipse 5344" cx="3.646" cy="3.663" rx="3.646" ry="3.663" transform="translate(96.322 128.794)" fill="#fc8116"/>
      <path id="Trazado_141074" data-name="Trazado 141074" d="M183.746,289.56a15.084,15.084,0,0,1-1.961,2.119c-.163.163-.325.314-.482.466l-.1.1-.092-.1a10.186,10.186,0,0,1-1.463-1.663,10.528,10.528,0,0,1,1.658,1.468h-.2l.477-.471a14.971,14.971,0,0,1,2.156-1.918Z" transform="translate(-81.73 -158.349)" fill="#fcd03e"/>
      <path id="Trazado_141075" data-name="Trazado 141075" d="M234.659,288.4c0,.076-8.035.141-17.94.141s-17.94-.065-17.94-.141,8.03-.141,17.94-.141S234.659,288.32,234.659,288.4Z" transform="translate(-90.495 -157.753)" fill="#fc8116"/>
      <path id="Trazado_141076" data-name="Trazado 141076" d="M234.929,294.031c0,.081-8.035.141-17.94.141s-17.94-.06-17.94-.141,8.03-.141,17.94-.141S234.929,293.95,234.929,294.031Z" transform="translate(-90.619 -160.333)" fill="#fc8116"/>
      <path id="Trazado_141077" data-name="Trazado 141077" d="M613.145,298.25l-1.095,85.066h48.943V299.41Z" transform="translate(-300.05 -162.331)" fill="#f5f5f5"/>
      <path id="Trazado_141078" data-name="Trazado 141078" d="M662.373,299.43l-.433,84.426h21.911V299.95Z" transform="translate(-322.909 -162.871)" fill="#e0e0e0"/>
      <path id="Trazado_141079" data-name="Trazado 141079" d="M616.91,301.08v17.4h23.185V301.9Z" transform="translate(-302.277 -163.627)" fill="#e0e0e0"/>
      <path id="Trazado_141080" data-name="Trazado 141080" d="M631.66,309.713v2.574h7.092V309.48Z" transform="translate(-309.035 -167.476)" fill="#f5f5f5"/>
      <rect id="Rectángulo_37929" data-name="Rectángulo 37929" width="7.325" height="1.051" transform="translate(322.625 146.967)" fill="#f5f5f5"/>
      <path id="Trazado_141081" data-name="Trazado 141081" d="M616.91,413.61v17.4h23.185V414.434Z" transform="translate(-302.277 -215.186)" fill="#e0e0e0"/>
      <path id="Trazado_141082" data-name="Trazado 141082" d="M631.66,422.243v2.574h7.092V422.01Z" transform="translate(-309.035 -219.035)" fill="#f5f5f5"/>
      <rect id="Rectángulo_37930" data-name="Rectángulo 37930" width="7.325" height="1.051" transform="translate(322.625 207.938)" fill="#f5f5f5"/>
      <path id="Trazado_141083" data-name="Trazado 141083" d="M616.91,337.28v17.4h23.185V338.1Z" transform="translate(-302.277 -180.213)" fill="#e0e0e0"/>
      <path id="Trazado_141084" data-name="Trazado 141084" d="M631.66,345.913v2.574h7.092V345.68Z" transform="translate(-309.035 -184.062)" fill="#f5f5f5"/>
      <rect id="Rectángulo_37931" data-name="Rectángulo 37931" width="7.325" height="1.051" transform="translate(322.625 166.581)" fill="#f5f5f5"/>
      <rect id="Rectángulo_37932" data-name="Rectángulo 37932" width="23.184" height="17.398" transform="translate(314.33 177.9)" fill="#e0e0e0"/>
      <path id="Trazado_141085" data-name="Trazado 141085" d="M631.39,390.017v2.417h6.67V389.8Z" transform="translate(-308.911 -204.277)" fill="#f5f5f5"/>
      <rect id="Rectángulo_37933" data-name="Rectángulo 37933" width="6.887" height="0.986" transform="translate(322.479 190.188)" fill="#f5f5f5"/>
    </g>
    <g id="freepik--Screens--inject-2" transform="translate(60.642 61.972)">
      <rect id="Rectángulo_37934" data-name="Rectángulo 37934" width="144.845" height="95.008" transform="translate(78.9 7.071)" fill="#fafafa"/>
      <path id="Trazado_141087" data-name="Trazado 141087" d="M371.673,182.216c0-.916-.043-37.06-.114-95.008l.114.114H226.839l.141-.141v95.008l-.13-.13,144.845.13-144.845.13h-.13V87.04h.152l144.834.033h.114v.108C371.716,145.156,371.673,181.3,371.673,182.216Z" transform="translate(-147.929 -80.137)" fill="#263238"/>
      <path id="Trazado_141088" data-name="Trazado 141088" d="M308.547,184.18l14.244.2a14.184,14.184,0,0,1-14.244,13.778h-.087Z" transform="translate(-185.38 -124.645)" fill="#455a64"/>
      <path id="Trazado_141089" data-name="Trazado 141089" d="M336.352,210.668a1.746,1.746,0,0,1-.309,0h-.867l-3.186.038h-.027l-.027-.033c-1.273-1.6-2.91-3.668-4.7-5.922l-3.793-4.828.076.033-4.194-.038-1.181.027a1.951,1.951,0,0,1-.417,0,2.539,2.539,0,0,1,.417-.027h1.17l4.194-.038h.043v.033l3.793,4.817,4.66,5.96-.065-.033,3.186.038h.867A1.409,1.409,0,0,1,336.352,210.668Z" transform="translate(-189.628 -131.838)" fill="#263238"/>
      <path id="Trazado_141090" data-name="Trazado 141090" d="M353.732,222.728c0,.06-2.064.108-4.611.108s-4.611-.049-4.611-.108,2.064-.108,4.611-.108S353.732,222.669,353.732,222.728Z" transform="translate(-201.898 -142.257)" fill="#263238"/>
      <path id="Trazado_141091" data-name="Trazado 141091" d="M353.732,225.908c0,.06-2.064.108-4.611.108s-4.611-.049-4.611-.108,2.064-.108,4.611-.108A43.359,43.359,0,0,1,353.732,225.908Z" transform="translate(-201.898 -143.714)" fill="#263238"/>
      <path id="Trazado_141092" data-name="Trazado 141092" d="M292.41,168.624l-.2,13.979a13.981,13.981,0,1,1,14.45-13.979Z" transform="translate(-171.497 -111.115)" fill="#3cc265"/>
      <path id="Trazado_141093" data-name="Trazado 141093" d="M283.313,164.623a1.019,1.019,0,0,1-.244.054l-.71.114-2.557.363h-.043l-.033-.033-3.413-3.321c-1.625-1.625-3.115-3.072-4.177-4.14l-1.246-1.273a3.715,3.715,0,0,1-.439-.488,3.478,3.478,0,0,1,.5.428l1.295,1.219c1.084,1.04,2.579,2.487,4.221,4.1l3.386,3.348h-.076l2.574-.282.71-.065a.7.7,0,0,1,.255-.022Z" transform="translate(-167.965 -111.688)" fill="#263238"/>
      <path id="Trazado_141094" data-name="Trazado 141094" d="M256,154.688c0,.06-2.064.108-4.611.108s-4.605-.049-4.605-.108,2.059-.108,4.605-.108S256,154.629,256,154.688Z" transform="translate(-157.12 -111.083)" fill="#263238"/>
      <path id="Trazado_141095" data-name="Trazado 141095" d="M256,157.838c0,.06-2.064.108-4.611.108s-4.605-.049-4.605-.108,2.059-.108,4.605-.108S256,157.779,256,157.838Z" transform="translate(-157.12 -112.526)" fill="#263238"/>
      <path id="Trazado_141096" data-name="Trazado 141096" d="M387.361,122.149l-.054-8.669a11.107,11.107,0,0,0-7.168,2.8,10.3,10.3,0,0,0-3.451,8.994,11.975,11.975,0,0,0,.206,1.262.07.07,0,0,0,0,.033h0l10.463-2.357Z" transform="translate(-216.606 -92.251)" fill="#fdab64"/>
      <path id="Trazado_141098" data-name="Trazado 141098" d="M408.177,119.524a10.3,10.3,0,0,0-8.447-5.911l-.331-.033h-.9l.06,8.669v2.037l10.506,2.27h0a10.061,10.061,0,0,0,.233-2.249,11.221,11.221,0,0,0-1.122-4.784Z" transform="translate(-226.635 -92.297)" fill="#fd963d"/>
      <path id="Trazado_141100" data-name="Trazado 141100" d="M388.638,135.25l-10.468,2.357a10.728,10.728,0,0,0,20.947-.07l-10.468-2.286" transform="translate(-217.32 -102.226)" fill="#fed5b1"/>
      <path id="Trazado_141101" data-name="Trazado 141101" d="M452.231,132.246c0,.076-5.418.141-12.083.141s-12.088-.065-12.088-.141,5.418-.146,12.088-.146S452.231,132.165,452.231,132.246Z" transform="translate(-240.178 -100.783)" fill="#263238"/>
      <path id="Trazado_141102" data-name="Trazado 141102" d="M452.231,127.161c0,.076-5.418.141-12.083.141s-12.088-.065-12.088-.141,5.418-.141,12.088-.141S452.231,127.085,452.231,127.161Z" transform="translate(-240.178 -98.455)" fill="#263238"/>
      <path id="Trazado_141103" data-name="Trazado 141103" d="M452.231,122.081c0,.076-5.418.141-12.083.141s-12.088-.065-12.088-.141,5.418-.141,12.088-.141S452.231,122,452.231,122.081Z" transform="translate(-240.178 -96.128)" fill="#263238"/>
      <path id="Trazado_141104" data-name="Trazado 141104" d="M452.231,136.976c0,.076-5.418.141-12.083.141s-12.088-.065-12.088-.141,5.418-.146,12.088-.146S452.231,136.922,452.231,136.976Z" transform="translate(-240.178 -102.95)" fill="#263238"/>
      <path id="Trazado_141105" data-name="Trazado 141105" d="M444.821,142.121c0,.081-3.717.141-8.3.141s-8.3-.06-8.3-.141,3.717-.141,8.3-.141S444.821,142.045,444.821,142.121Z" transform="translate(-240.252 -105.31)" fill="#263238"/>
      <rect id="Rectángulo_37935" data-name="Rectángulo 37935" width="2.487" height="27.801" transform="translate(162.541 56.756)" fill="#3cc265"/>
      <rect id="Rectángulo_37936" data-name="Rectángulo 37936" width="2.487" height="18.357" transform="translate(167.347 66.194)" fill="#3cc265"/>
      <rect id="Rectángulo_37937" data-name="Rectángulo 37937" width="2.487" height="24.485" transform="translate(172.152 60.207)" fill="#3cc265"/>
      <rect id="Rectángulo_37938" data-name="Rectángulo 37938" width="2.487" height="26.728" transform="translate(176.958 57.828)" fill="#3cc265"/>
      <rect id="Rectángulo_37939" data-name="Rectángulo 37939" width="2.487" height="17.793" transform="translate(181.759 66.758)" fill="#3cc265"/>
      <rect id="Rectángulo_37940" data-name="Rectángulo 37940" width="2.487" height="14.304" transform="translate(186.565 70.247)" fill="#3cc265"/>
      <rect id="Rectángulo_37941" data-name="Rectángulo 37941" width="2.487" height="24.945" transform="translate(191.371 59.606)" fill="#3cc265"/>
      <rect id="Rectángulo_37942" data-name="Rectángulo 37942" width="2.487" height="20.448" transform="translate(196.177 64.103)" fill="#3cc265"/>
      <rect id="Rectángulo_37943" data-name="Rectángulo 37943" width="2.487" height="24.041" transform="translate(200.983 60.51)" fill="#3cc265"/>
      <rect id="Rectángulo_37944" data-name="Rectángulo 37944" width="2.487" height="16.379" transform="translate(205.789 68.172)" fill="#3cc265"/>
      <rect id="Rectángulo_37945" data-name="Rectángulo 37945" width="2.487" height="19.495" transform="translate(210.595 65.056)" fill="#3cc265"/>
      <path id="Trazado_141106" data-name="Trazado 141106" d="M431.851,233.843c0,.054-11.806.1-26.37.1s-26.37-.049-26.37-.1,11.806-.1,26.37-.1S431.851,233.783,431.851,233.843Z" transform="translate(-217.751 -147.352)" fill="#263238"/>
      <path id="Trazado_141107" data-name="Trazado 141107" d="M384.715,237.913a17.55,17.55,0,0,1-3.7,0A16.634,16.634,0,0,1,384.715,237.913Z" transform="translate(-218.626 -149.217)" fill="#263238"/>
      <path id="Trazado_141108" data-name="Trazado 141108" d="M395.416,238.083a23.726,23.726,0,0,1-4.416,0,23.726,23.726,0,0,1,4.416,0Z" transform="translate(-223.198 -149.295)" fill="#263238"/>
      <path id="Trazado_141109" data-name="Trazado 141109" d="M405.066,238.083a23.726,23.726,0,0,1-4.416,0A23.729,23.729,0,0,1,405.066,238.083Z" transform="translate(-227.62 -149.295)" fill="#263238"/>
      <path id="Trazado_141110" data-name="Trazado 141110" d="M414.706,238.083a23.726,23.726,0,0,1-4.416,0,23.726,23.726,0,0,1,4.416,0Z" transform="translate(-232.037 -149.295)" fill="#263238"/>
      <path id="Trazado_141111" data-name="Trazado 141111" d="M424.356,238.083a23.725,23.725,0,0,1-4.416,0A23.728,23.728,0,0,1,424.356,238.083Z" transform="translate(-236.458 -149.295)" fill="#263238"/>
      <path id="Trazado_141112" data-name="Trazado 141112" d="M434,238.083a23.726,23.726,0,0,1-4.416,0,23.726,23.726,0,0,1,4.416,0Z" transform="translate(-240.875 -149.295)" fill="#263238"/>
      <path id="Trazado_141113" data-name="Trazado 141113" d="M443.646,238.083a23.726,23.726,0,0,1-4.416,0A23.729,23.729,0,0,1,443.646,238.083Z" transform="translate(-245.296 -149.295)" fill="#263238"/>
      <path id="Trazado_141114" data-name="Trazado 141114" d="M453.266,238.083a23.726,23.726,0,0,1-4.416,0A23.729,23.729,0,0,1,453.266,238.083Z" transform="translate(-249.704 -149.295)" fill="#263238"/>
      <path id="Trazado_141115" data-name="Trazado 141115" d="M462.936,238.083a23.726,23.726,0,0,1-4.416,0A23.728,23.728,0,0,1,462.936,238.083Z" transform="translate(-254.135 -149.295)" fill="#263238"/>
      <path id="Trazado_141116" data-name="Trazado 141116" d="M472.586,238.083a23.728,23.728,0,0,1-4.416,0,23.728,23.728,0,0,1,4.416,0Z" transform="translate(-258.556 -149.295)" fill="#263238"/>
      <g id="Grupo_115056" data-name="Grupo 115056" transform="translate(167.347 66.194)" opacity="0.3">
        <rect id="Rectángulo_37946" data-name="Rectángulo 37946" width="2.487" height="18.357" transform="translate(0 0)" fill="#fff"/>
      </g>
      <g id="Grupo_115057" data-name="Grupo 115057" transform="translate(176.958 57.828)" opacity="0.3">
        <rect id="Rectángulo_37947" data-name="Rectángulo 37947" width="2.487" height="26.728" fill="#fff"/>
      </g>
      <g id="Grupo_115058" data-name="Grupo 115058" transform="translate(186.565 70.247)" opacity="0.3">
        <rect id="Rectángulo_37948" data-name="Rectángulo 37948" width="2.487" height="14.304" fill="#fff"/>
      </g>
      <g id="Grupo_115059" data-name="Grupo 115059" transform="translate(196.177 64.103)" opacity="0.3">
        <rect id="Rectángulo_37949" data-name="Rectángulo 37949" width="2.487" height="20.448" transform="translate(0 0)" fill="#fff"/>
      </g>
      <g id="Grupo_115060" data-name="Grupo 115060" transform="translate(205.789 68.172)" opacity="0.3">
        <rect id="Rectángulo_37950" data-name="Rectángulo 37950" width="2.487" height="16.379" transform="translate(0 0)" fill="#fff"/>
      </g>
      <path id="Trazado_141117" data-name="Trazado 141117" d="M255.34,118.285a2.4,2.4,0,1,1-2.395-2.395A2.4,2.4,0,0,1,255.34,118.285Z" transform="translate(-158.842 -93.356)" fill="#3cc265"/>
      <path id="Trazado_141118" data-name="Trazado 141118" d="M304.915,116.7c0,.081-8.079.141-18.043.141s-18.043-.06-18.043-.141,8.073-.141,18.043-.141S304.915,116.625,304.915,116.7Z" transform="translate(-167.223 -93.663)" fill="#3cc265"/>
      <path id="Trazado_141119" data-name="Trazado 141119" d="M283.56,122.051a2,2,0,0,1-.542.054l-1.523.049c-1.29,0-3.067.038-5.028.038s-3.744,0-5.028-.038l-1.528-.049a2.043,2.043,0,0,1-.542-.054,2.357,2.357,0,0,1,.542-.054c.363,0,.883-.033,1.528-.043,1.284,0,3.061-.043,5.028-.043s3.739,0,5.028.043c.645,0,1.165.027,1.522.043a2.3,2.3,0,0,1,.542.054Z" transform="translate(-167.47 -96.114)" fill="#3cc265"/>
      <rect id="Rectángulo_37963" data-name="Rectángulo 37963" width="83.245" height="95.008" transform="translate(230.848 0.141)" fill="#fafafa"/>
      <path id="Trazado_141129" data-name="Trazado 141129" d="M590.527,169.449v-6.9c0-4.486,0-11.048-.033-19.381,0-16.661-.038-40.4-.06-68.73l.125.125H507.32l.146-.141c0,35.029,0,67.695-.027,95.008l-.119-.119,60.386.06,16.878.033h.049l-16.862.092-60.462.06h-.119V74.3h83.516v.125c0,28.364-.049,52.129-.065,68.811,0,8.328,0,14.878-.033,19.359V169A1.979,1.979,0,0,0,590.527,169.449Z" transform="translate(-276.434 -74.3)" fill="#263238"/>
      <rect id="Rectángulo_37964" data-name="Rectángulo 37964" width="67.435" height="54.101" transform="translate(237.512 7.737)" fill="#e0e0e0"/>
      <rect id="Rectángulo_37965" data-name="Rectángulo 37965" width="2.211" height="0.639" transform="translate(242.221 52.221)" fill="#263238"/>
      <rect id="Rectángulo_37966" data-name="Rectángulo 37966" width="2.828" height="0.639" transform="translate(247.232 55.629)" fill="#263238"/>
      <rect id="Rectángulo_37967" data-name="Rectángulo 37967" width="2.828" height="0.639" transform="translate(257.083 55.629)" fill="#263238"/>
      <rect id="Rectángulo_37968" data-name="Rectángulo 37968" width="2.828" height="0.639" transform="translate(266.938 55.629)" fill="#263238"/>
      <rect id="Rectángulo_37969" data-name="Rectángulo 37969" width="2.828" height="0.639" transform="translate(276.789 55.629)" fill="#263238"/>
      <rect id="Rectángulo_37970" data-name="Rectángulo 37970" width="2.828" height="0.639" transform="translate(286.644 55.629)" fill="#263238"/>
      <rect id="Rectángulo_37971" data-name="Rectángulo 37971" width="2.828" height="0.639" transform="translate(296.495 55.629)" fill="#263238"/>
      <rect id="Rectángulo_37972" data-name="Rectángulo 37972" width="2.211" height="0.639" transform="translate(242.221 43.698)" fill="#263238"/>
      <rect id="Rectángulo_37973" data-name="Rectángulo 37973" width="2.211" height="0.639" transform="translate(242.221 27.671)" fill="#263238"/>
      <rect id="Rectángulo_37974" data-name="Rectángulo 37974" width="2.211" height="0.639" transform="translate(242.221 19.614)" fill="#263238"/>
      <rect id="Rectángulo_37975" data-name="Rectángulo 37975" width="2.211" height="0.639" transform="translate(242.334 35.684)" fill="#263238"/>
      <path id="Trazado_141130" data-name="Trazado 141130" d="M588.107,139.47a1.352,1.352,0,0,1-.238,0h-3.4l-9.845.049-32.509.038h-7.8v-.141c0-10.836.038-20.421.049-27.281,0-3.413.033-6.155.043-8.057V101.37a.73.73,0,0,1,0-.19.73.73,0,0,1,0,.19v2.709c0,1.9.027,4.643.043,8.057,0,6.859,0,16.423.049,27.281l-.141-.135h7.7l32.509.043,9.845.043,2.709.027h.694Z" transform="translate(-288.86 -86.616)" fill="#263238"/>
      <path id="Trazado_141131" data-name="Trazado 141131" d="M590.659,140.631c0,.076-11.671.141-26.067.141s-26.072-.065-26.072-.141,11.671-.141,26.072-.141S590.659,140.555,590.659,140.631Z" transform="translate(-290.789 -104.627)" fill="#263238"/>
      <path id="Trazado_141132" data-name="Trazado 141132" d="M590.659,125.881c0,.081-11.671.141-26.067.141s-26.072-.06-26.072-.141,11.671-.141,26.072-.141S590.659,125.778,590.659,125.881Z" transform="translate(-290.789 -97.869)" fill="#263238"/>
      <path id="Trazado_141133" data-name="Trazado 141133" d="M590.659,110.961c0,.081-11.671.141-26.067.141s-26.072-.06-26.072-.141,11.671-.141,26.072-.141S590.659,110.885,590.659,110.961Z" transform="translate(-290.789 -91.033)" fill="#263238"/>
      <path id="Trazado_141134" data-name="Trazado 141134" d="M590.659,155.421c0,.081-11.671.141-26.067.141s-26.072-.06-26.072-.141,11.671-.141,26.072-.141S590.659,155.345,590.659,155.421Z" transform="translate(-290.789 -111.403)" fill="#263238"/>
      <path id="Trazado_141135" data-name="Trazado 141135" d="M539.51,138.274V131.16l4.432-6.881,3.013,2.308,6.171-9.59,3.641,2.563,5.066-8.848,4.118,3.354,6.171-11.736,6.664,13.117,5.38-6.561,6.334-1.815v31.2Z" transform="translate(-291.243 -87.143)" fill="#455a64"/>
      <path id="Trazado_141136" data-name="Trazado 141136" d="M591.113,106.328h-1.728l-4.876.038.065-.033-5.2,6.811-.032.043H566.292l.114-.065c-1.718,2.855-3.565,5.96-5.478,9.124l-5.386,8.945-.1.173-.125-.163c-2.568-3.543-4.952-6.822-7.044-9.715h.173l-6.475,10.078-1.8,2.769-.482.721c-.108.163-.173.244-.173.244s.043-.092.146-.26l.45-.742,1.755-2.8,6.366-10.083.092-.146.1.141,7.071,9.7h-.228l5.375-8.951,5.489-9.119.038-.065H579.28l-.087.043,5.25-6.767v-.033h.038l4.876.038h1.615Z" transform="translate(-291.243 -88.925)" fill="#3cc265"/>
      <path id="Trazado_141137" data-name="Trazado 141137" d="M558.878,138.2a.5.5,0,1,1-.5-.482A.493.493,0,0,1,558.878,138.2Z" transform="translate(-299.655 -103.358)" fill="#3cc265"/>
      <path id="Trazado_141138" data-name="Trazado 141138" d="M586.628,122.427a.5.5,0,1,1-.5-.477.493.493,0,0,1,.5.477Z" transform="translate(-312.37 -96.132)" fill="#3cc265"/>
      <path id="Trazado_141139" data-name="Trazado 141139" d="M608.208,118.592a.5.5,0,1,1-.5-.482A.493.493,0,0,1,608.208,118.592Z" transform="translate(-322.257 -94.373)" fill="#3cc265"/>
      <path id="Trazado_141140" data-name="Trazado 141140" d="M584.761,203.151c0,.081-14.228.141-31.778.141s-31.783-.06-31.783-.141,14.228-.141,31.783-.141S584.761,203.075,584.761,203.151Z" transform="translate(-282.853 -133.272)" fill="#263238"/>
      <path id="Trazado_141141" data-name="Trazado 141141" d="M584.761,209.491c0,.081-14.228.141-31.778.141s-31.783-.06-31.783-.141,14.228-.141,31.783-.141S584.761,209.415,584.761,209.491Z" transform="translate(-282.853 -136.177)" fill="#263238"/>
      <path id="Trazado_141142" data-name="Trazado 141142" d="M584.761,215.881c0,.076-14.228.141-31.778.141s-31.783-.065-31.783-.141,14.228-.141,31.783-.141S584.761,215.778,584.761,215.881Z" transform="translate(-282.853 -139.105)" fill="#263238"/>
      <path id="Trazado_141143" data-name="Trazado 141143" d="M584.761,222.181c0,.076-14.228.141-31.778.141s-31.783-.065-31.783-.141,14.228-.141,31.783-.141S584.761,222.1,584.761,222.181Z" transform="translate(-282.853 -141.992)" fill="#263238"/>
    </g>
    <g id="freepik--character-2--inject-2" transform="translate(299.879 120.013)">
      <path id="Trazado_141144" data-name="Trazado 141144" d="M587.924,203.584c1.739-2.92,2.249-6.811,2.709-10.181.206-1.588.574-3.841-.542-4.838s-1.3-2.709-2.671-3.527a4.215,4.215,0,0,0-4.53.038" transform="translate(-550.355 -182.785)" fill="#263238"/>
      <path id="Trazado_141145" data-name="Trazado 141145" d="M575.191,215.282h0a4.692,4.692,0,0,1-5.05-4.5c-.1-2.557-.184-5.136-.184-5.136s-3.869-.363-4.15-4.194-.152-12.673-.152-12.673h0a13.345,13.345,0,0,1,13.491.867l-.238,13.48v7.255C578.88,212.817,577.618,215.1,575.191,215.282Z" transform="translate(-542.444 -184.14)" fill="#ffbe9d"/>
      <path id="Trazado_141146" data-name="Trazado 141146" d="M566.871,194.062a1.961,1.961,0,0,1,2.617-.574,2.232,2.232,0,0,1,.742,2.785,2.942,2.942,0,0,1-1.88,1.42,1.479,1.479,0,0,0-1.154,1.588c.114.959,1.712,1.322,2.433,2.119,1.122,1.235,3.587,1.761,5.25,1.956s1.43.206,2.379-1.132a5.1,5.1,0,0,0,.932-3.11l.179-8.474a12.136,12.136,0,0,0-.2-3.04,4.075,4.075,0,0,0-1.625-2.514,12.516,12.516,0,0,0-3.17-1.008,26.159,26.159,0,0,1-3.7-1.945,4.555,4.555,0,0,0-4.01-.39c-.894.45-1.5,1.344-2.368,1.837-1.235.7-2.92.542-3.522,2.368a3.029,3.029,0,0,0,0,1.945A4.5,4.5,0,0,0,565.9,190.3a6.114,6.114,0,0,0,.07,2.682c.141.423.2,1.084.856,1.084" transform="translate(-539.695 -181.423)" fill="#263238"/>
      <path id="Trazado_141147" data-name="Trazado 141147" d="M574.263,207.585a.675.675,0,0,0,.482.184.9.9,0,0,0,.715-.878.959.959,0,0,0-.656-.954c-.32-.114-.542-.054-.542-.1s.211-.173.607-.092a1.176,1.176,0,0,1,.6.347,1.127,1.127,0,0,1,.282.813,1.051,1.051,0,0,1-1,1.084.574.574,0,0,1-.428-.211C574.247,207.655,574.247,207.59,574.263,207.585Z" transform="translate(-546.398 -192.556)" fill="#eb996e"/>
      <path id="Trazado_141148" data-name="Trazado 141148" d="M581.63,187.161a1.2,1.2,0,0,1,.32-.325,2.633,2.633,0,0,1,1.165-.45,3.349,3.349,0,0,1,1.831.276,4.194,4.194,0,0,1,1.69,1.512,8.594,8.594,0,0,1,1.192,3.879,10.228,10.228,0,0,1,.1,1.674,9.368,9.368,0,0,1-.3-1.625,9.21,9.21,0,0,0-1.225-3.749,4.08,4.08,0,0,0-1.566-1.43,3.094,3.094,0,0,0-3.208.26Z" transform="translate(-549.777 -183.684)" fill="#455a64"/>
      <path id="Trazado_141149" data-name="Trazado 141149" d="M560.771,190.41a.373.373,0,0,1-.146,0,1.16,1.16,0,0,1-.379-.173,1.4,1.4,0,0,1-.444-.5,1.268,1.268,0,0,1-.119-.889,1.457,1.457,0,0,1,.618-.894,2.091,2.091,0,0,1,1.214-.238,1.658,1.658,0,0,0,1.154-.293,8.131,8.131,0,0,0,.937-1.008,4.746,4.746,0,0,1,2.389-1.376,5.11,5.11,0,0,1,2.243-.054,4.334,4.334,0,0,1,1.414.542,1.727,1.727,0,0,1,.439.336,6.772,6.772,0,0,0-1.885-.683,5.1,5.1,0,0,0-2.167.1A4.606,4.606,0,0,0,563.8,186.6a8.039,8.039,0,0,1-.981,1.04,1.594,1.594,0,0,1-.661.3,3.12,3.12,0,0,1-.666.033,1.88,1.88,0,0,0-1.084.173,1.257,1.257,0,0,0-.542.748,1.23,1.23,0,0,0,.433,1.252,3.2,3.2,0,0,0,.471.266Z" transform="translate(-539.706 -183.01)" fill="#455a64"/>
      <path id="Trazado_141150" data-name="Trazado 141150" d="M577.684,204.61c0-.027.19-.1.5-.309a3.169,3.169,0,0,0,1.046-1.181,2.9,2.9,0,0,0,.173-2.243,2.866,2.866,0,0,0-.693-1.154,5.587,5.587,0,0,0-1.2-.872c-.45-.26-.9-.5-1.317-.786a4.373,4.373,0,0,1-1.084-1,4.627,4.627,0,0,1-.9-2.265,4.232,4.232,0,0,1,.13-1.625,1.823,1.823,0,0,1,.152-.417c.043-.1.07-.141.076-.135a5.787,5.787,0,0,0-.157,2.167,4.579,4.579,0,0,0,.9,2.135,4.388,4.388,0,0,0,1.008.932c.4.266.851.5,1.306.769a5.629,5.629,0,0,1,1.257.927,3.116,3.116,0,0,1,.742,1.262,3.072,3.072,0,0,1-.249,2.422,3.034,3.034,0,0,1-1.159,1.16A1.489,1.489,0,0,1,577.684,204.61Z" transform="translate(-546.368 -186.553)" fill="#455a64"/>
      <path id="Trazado_141151" data-name="Trazado 141151" d="M585.236,198.7a1.663,1.663,0,0,1-.493.114,7.543,7.543,0,0,1-1.382.038,8.49,8.49,0,0,1-4.269-1.468,6.772,6.772,0,0,1-2.807-3.527,2.937,2.937,0,0,1-.054-1.387,1.084,1.084,0,0,1,.19-.471,3.424,3.424,0,0,0,.06,1.8,6.924,6.924,0,0,0,2.769,3.348,8.988,8.988,0,0,0,4.129,1.5C584.515,198.778,585.23,198.648,585.236,198.7Z" transform="translate(-547.277 -186.269)" fill="#455a64"/>
      <path id="Trazado_141152" data-name="Trazado 141152" d="M593.5,197.5a6.778,6.778,0,0,1,5.283-2.395,4.868,4.868,0,0,1,4.427,3.43c.368,1.463-.081,2.985-.266,4.475s0,3.251,1.208,4.123a6.939,6.939,0,0,0,2.568.845,2.8,2.8,0,0,1,2.124,1.512A2.157,2.157,0,0,1,607.524,212a4.876,4.876,0,0,1-3.067.043,2.563,2.563,0,0,1-1.138,3.067,3.386,3.386,0,0,1-3.4-.141,5.082,5.082,0,0,1-2.075-2.817,2.522,2.522,0,0,1-3.484.661,3.641,3.641,0,0,1-1.409-3.5,6.773,6.773,0,0,1,1.766-3.5,8.785,8.785,0,0,0,1.23-1.571,1.988,1.988,0,0,0,.076-1.913,1.149,1.149,0,0,0-1.7-.341" transform="translate(-554.942 -187.693)" fill="#263238"/>
      <path id="Trazado_141153" data-name="Trazado 141153" d="M595.855,202.514a1.322,1.322,0,0,1-1.149,0,2.758,2.758,0,0,1-1.669-2.167,2.839,2.839,0,0,1,.179-1.555,2.943,2.943,0,0,1,.737-1.04,1.858,1.858,0,0,1,1.008-.542,8.742,8.742,0,0,0-.867.7,2.839,2.839,0,0,0-.78,2.411,2.709,2.709,0,0,0,1.468,2.037A2.8,2.8,0,0,0,595.855,202.514Z" transform="translate(-554.987 -188.656)" fill="#3cc265"/>
      <path id="Trazado_141154" data-name="Trazado 141154" d="M569.862,217.884a1.8,1.8,0,0,1-.878-.087,4.735,4.735,0,0,1-3.1-2.742,1.782,1.782,0,0,1-.2-.856,6.268,6.268,0,0,1,.374.775A5.445,5.445,0,0,0,567.3,216.6a5.559,5.559,0,0,0,1.739,1.035A5.5,5.5,0,0,1,569.862,217.884Z" transform="translate(-542.474 -196.441)" fill="#eb996e"/>
      <path id="Trazado_141155" data-name="Trazado 141155" d="M597.5,215.4h-.19a1.8,1.8,0,0,1-.5-.222,2.709,2.709,0,0,1-1.084-1.653,3.489,3.489,0,0,1-.049-1.392,5.5,5.5,0,0,1,.509-1.506c.482-1.013,1.241-1.972,1.8-3.083a5.418,5.418,0,0,0,.542-1.707,3.3,3.3,0,0,0-2.129-3.554,3.511,3.511,0,0,0-1.9-.114c-.45.092-.677.217-.688.2s.049-.043.157-.108a2.888,2.888,0,0,1,.5-.2,3.408,3.408,0,0,1,4.112,2.053,3.581,3.581,0,0,1,.217,1.755,5.755,5.755,0,0,1-.591,1.8c-.585,1.149-1.349,2.1-1.826,3.072a4.1,4.1,0,0,0-.5,2.742,2.709,2.709,0,0,0,.954,1.625A4.2,4.2,0,0,0,597.5,215.4Z" transform="translate(-555.362 -190.818)" fill="#455a64"/>
      <path id="Trazado_141156" data-name="Trazado 141156" d="M603.288,217.759a1.148,1.148,0,0,1-.238,0,2.71,2.71,0,0,1-.683-.119,3.863,3.863,0,0,1-2-1.555,5.916,5.916,0,0,1-.856-3.652,36.264,36.264,0,0,1,.737-4.535,10.779,10.779,0,0,0,.163-2.335,6.074,6.074,0,0,0-.493-2.091,3.793,3.793,0,0,0-2.709-2.243,5.533,5.533,0,0,0-2.465,0c-.58.13-.883.26-.894.233s.07-.049.211-.114a5.7,5.7,0,0,1,.656-.228,5.369,5.369,0,0,1,2.536-.092,4.026,4.026,0,0,1,1.625.726,4.173,4.173,0,0,1,1.262,1.625,6.123,6.123,0,0,1,.542,2.167,10.29,10.29,0,0,1-.157,2.395,41.8,41.8,0,0,0-.759,4.5,5.814,5.814,0,0,0,.769,3.527,3.825,3.825,0,0,0,1.864,1.56,5.958,5.958,0,0,0,.889.228Z" transform="translate(-555.376 -190.355)" fill="#455a64"/>
      <path id="Trazado_141157" data-name="Trazado 141157" d="M606.5,264.17l-8.154,6.361,3.419,5.624,9.829-7.239Z" transform="translate(-557.438 -219.336)" fill="#ffbe9d"/>
      <path id="Trazado_141158" data-name="Trazado 141158" d="M556.436,220.017s.043-.683-1.739-.78a18.221,18.221,0,0,0-1.978-.065,4.519,4.519,0,0,1-.851-1.625,4.989,4.989,0,0,1,.379-1.68l1.8-.163-.488-1.225-1.273.087L548.71,215l-1.425,6.263L537.5,239.523a4.719,4.719,0,0,0,1.869,6.865h0c2.53,1.225,5.917-1.371,6.854-4.02l5.418-20.313,1.907-1.485,2.709-.5" transform="translate(-529.195 -196.569)" fill="#ffbe9d"/>
      <path id="Trazado_141159" data-name="Trazado 141159" d="M532,373.9l13.3-76.613h0c.033-.114.06-.222.087-.331h0c2.27-8.989,5.765-11.866,5.765-11.866l20.378,1.279c1.734,3.115,1.956,10.587,1.956,10.587.238.916-4.307,75.161-4.307,75.161l-6.838-.211-3.7-70.242L538.811,374.2Z" transform="translate(-527.038 -228.921)" fill="#ffbe9d"/>
      <path id="Trazado_141160" data-name="Trazado 141160" d="M527.641,449.7l.027-.688,7.011.2-.06,2.281h-.433c-1.929.049-9.812.114-11.091-.282C521.676,450.782,527.641,449.7,527.641,449.7Z" transform="translate(-522.858 -304.026)" fill="#3cc265"/>
      <g id="Grupo_115061" data-name="Grupo 115061" transform="translate(9.232 145.549)" opacity="0.6">
        <path id="Trazado_141161" data-name="Trazado 141161" d="M539.88,451.85a2.265,2.265,0,0,1,.932-1.36,2.5,2.5,0,0,1,1.625-.428l-.054,1.815Z" transform="translate(-539.88 -450.053)" fill="#fff"/>
      </g>
      <g id="Grupo_115062" data-name="Grupo 115062" transform="translate(0 146.301)" opacity="0.6">
        <path id="Trazado_141162" data-name="Trazado 141162" d="M524.7,451.44s-2.091.5-1.842.824,8.219.542,11.741.341v-.146l-9.3-.173S525.095,451.467,524.7,451.44Z" transform="translate(-522.842 -451.44)" fill="#fff"/>
      </g>
      <path id="Trazado_141163" data-name="Trazado 141163" d="M534.724,453.068H532.99c-1.084,0-2.557,0-4.194-.043s-3.115-.108-4.188-.173l-1.268-.081h.005l1.268.054c1.084.049,2.552.108,4.188.152s3.115.054,4.188.065h1.734Z" transform="translate(-522.859 -305.749)" fill="#263238"/>
      <path id="Trazado_141164" data-name="Trazado 141164" d="M526.829,452.319a1.625,1.625,0,0,0-.639-1.029.877.877,0,0,1,.493.423.813.813,0,0,1,.146.607Z" transform="translate(-524.376 -305.071)" fill="#263238"/>
      <path id="Trazado_141165" data-name="Trazado 141165" d="M530.929,451.037a1.4,1.4,0,0,1-.211-.255c-.1-.152-.163-.282-.141-.293s.114.1.211.255S530.95,451.026,530.929,451.037Z" transform="translate(-526.384 -304.703)" fill="#263238"/>
      <path id="Trazado_141166" data-name="Trazado 141166" d="M531.926,450.679a1.236,1.236,0,0,1-.244-.163c-.119-.1-.2-.2-.184-.217a.66.66,0,0,1,.244.163C531.861,450.576,531.943,450.679,531.926,450.679Z" transform="translate(-526.807 -304.617)" fill="#263238"/>
      <path id="Trazado_141167" data-name="Trazado 141167" d="M532.386,449.857a.888.888,0,0,1-.363.038.862.862,0,0,1-.363-.049.835.835,0,0,1,.363-.032A.943.943,0,0,1,532.386,449.857Z" transform="translate(-526.882 -304.391)" fill="#263238"/>
      <path id="Trazado_141168" data-name="Trazado 141168" d="M532.529,449.11a.7.7,0,0,1-.406.1.748.748,0,0,1-.423-.065,2.519,2.519,0,0,1,.417,0A2.274,2.274,0,0,1,532.529,449.11Z" transform="translate(-526.901 -304.072)" fill="#263238"/>
      <path id="Trazado_141169" data-name="Trazado 141169" d="M529.718,449.95a1.561,1.561,0,0,1-.444,0,3.246,3.246,0,0,1-.477-.108,1.625,1.625,0,0,1-.271-.114.233.233,0,0,1-.108-.135.157.157,0,0,1,.076-.163.856.856,0,0,1,1.008.249.709.709,0,0,1,.141.282v.114a1.132,1.132,0,0,0-.19-.363.846.846,0,0,0-.379-.238.737.737,0,0,0-.542,0c-.07.043-.043.125.032.168a1.282,1.282,0,0,0,.249.108,3.308,3.308,0,0,0,.461.125C529.55,449.929,529.718,449.934,529.718,449.95Z" transform="translate(-525.396 -304.186)" fill="#263238"/>
      <path id="Trazado_141170" data-name="Trazado 141170" d="M530.564,449.806a.39.39,0,0,1-.043-.293.661.661,0,0,1,.13-.3.471.471,0,0,1,.379-.2.168.168,0,0,1,.136.2.445.445,0,0,1-.081.184,1.473,1.473,0,0,1-.222.249.7.7,0,0,1-.26.163s.092-.076.217-.2a1.21,1.21,0,0,0,.2-.249c.065-.087.114-.244,0-.265a.417.417,0,0,0-.3.173.591.591,0,0,0-.135.265,1.221,1.221,0,0,0-.016.282Z" transform="translate(-526.355 -304.026)" fill="#263238"/>
      <path id="Trazado_141171" data-name="Trazado 141171" d="M542.412,449.946h-.542a2.465,2.465,0,0,0-1.138.4,2.135,2.135,0,0,0-.731.91c-.114.271-.13.461-.146.455a.335.335,0,0,1,0-.13,1.587,1.587,0,0,1,.087-.347,2,2,0,0,1,.737-.948,2.265,2.265,0,0,1,1.187-.4,1.816,1.816,0,0,1,.379,0,.358.358,0,0,1,.168.054Z" transform="translate(-530.634 -304.425)" fill="#263238"/>
      <path id="Trazado_141172" data-name="Trazado 141172" d="M536.573,452.122a4.1,4.1,0,0,1-1.024.07,4.586,4.586,0,0,1-1.019-.1c0-.027.461,0,1.019,0A7.485,7.485,0,0,1,536.573,452.122Z" transform="translate(-528.197 -305.432)" fill="#263238"/>
      <path id="Trazado_141173" data-name="Trazado 141173" d="M540.642,452.227s-.038.087-.087.184-.081.179-.1.179-.033-.1,0-.217S540.626,452.211,540.642,452.227Z" transform="translate(-530.901 -305.499)" fill="#263238"/>
      <path id="Trazado_141174" data-name="Trazado 141174" d="M541.578,451.147a.421.421,0,0,1-.108.146c-.076.065-.146.108-.162.092s.032-.081.1-.146S541.562,451.131,541.578,451.147Z" transform="translate(-531.301 -305.004)" fill="#263238"/>
      <path id="Trazado_141175" data-name="Trazado 141175" d="M542.843,450.645a.52.52,0,0,0-.2.049c-.1.049-.179.081-.2.065s.043-.1.168-.141S542.854,450.629,542.843,450.645Z" transform="translate(-531.824 -304.756)" fill="#263238"/>
      <path id="Trazado_141176" data-name="Trazado 141176" d="M543.981,450.458a.172.172,0,0,1-.092.07.261.261,0,0,1-.119,0,.149.149,0,0,1,.092-.07C543.921,450.442,543.97,450.436,543.981,450.458Z" transform="translate(-532.43 -304.683)" fill="#263238"/>
      <path id="Trazado_141177" data-name="Trazado 141177" d="M594.87,228.68a13.432,13.432,0,0,1,5.418,2.124c6.442,4.177,17.219,13,16.325,17.105-.78,3.478-9.211,7.71-9.211,7.71l-5.418-6.567,3.343-1.913-8.219-5.472Z" transform="translate(-555.844 -203.075)" fill="#263238"/>
      <path id="Trazado_141178" data-name="Trazado 141178" d="M571.711,241.656l-.266.975-.948,4.53-.222,6.637c4.876,6.3,4.963,11.595,4.963,11.595l-24.691,2.882a47.954,47.954,0,0,1,1.783-11.021c1.425-2.422,1.36-9.672,1.084-9.937-1.539-1.528-1.913-2.65-.683-4.605,0,0-7.656,8.041-8.442,8.761-2.709,2.482-5.31,1.788-6.5.71-3.381-3.018.087-6.908.087-6.908l12.9-14.775a6.432,6.432,0,0,1,3.348-2.043,27.811,27.811,0,0,1,2.763-.488l8.61.07a14.586,14.586,0,0,1,2.563.314,6.15,6.15,0,0,1,3.76,4.66A28.212,28.212,0,0,1,571.711,241.656Z" transform="translate(-529.012 -202.75)" fill="#263238"/>
      <path id="Trazado_141179" data-name="Trazado 141179" d="M600.665,242.3a3.294,3.294,0,0,1,.054.715c0,.461,0,1.132-.049,1.956a51.255,51.255,0,0,1-.851,6.377c-.157.84-.331,1.653-.509,2.406v-.027c-.076,1.918-.152,3.576-.217,4.757-.038.542-.065,1.008-.087,1.376a2.078,2.078,0,0,1-.065.5,1.917,1.917,0,0,1-.027-.5v-1.382c0-1.181.06-2.845.119-4.763v-.027c.168-.742.336-1.555.493-2.395.471-2.46.786-4.708.932-6.345.07-.818.108-1.479.135-1.94A3.791,3.791,0,0,1,600.665,242.3Z" transform="translate(-557.695 -209.316)" fill="#455a64"/>
      <path id="Trazado_141180" data-name="Trazado 141180" d="M602.3,254.55a103.3,103.3,0,0,1,8.859,6.128,50.036,50.036,0,0,1-4.508-2.947,51.7,51.7,0,0,1-4.351-3.181Z" transform="translate(-559.248 -214.928)" fill="#455a64"/>
      <path id="Trazado_141181" data-name="Trazado 141181" d="M567.892,236.69a.634.634,0,0,1,.13.1,2.575,2.575,0,0,1,.3.336,3.744,3.744,0,0,1,.672,1.528,5.05,5.05,0,0,1-.141,2.476,10.115,10.115,0,0,1-1.387,2.709,9.56,9.56,0,0,1-1.019,1.2c-.358.363-.742.661-1.084.97-.683.612-1.268,1.192-1.755,1.69s-.872.9-1.138,1.187-.417.444-.433.428a2.663,2.663,0,0,1,.352-.5c.238-.3.6-.737,1.084-1.257s1.046-1.084,1.728-1.739c.341-.32.715-.623,1.084-.975a9.523,9.523,0,0,0,.986-1.17,10.372,10.372,0,0,0,1.365-2.6,5.06,5.06,0,0,0,.2-2.362A4.428,4.428,0,0,0,567.892,236.69Z" transform="translate(-540.802 -206.745)" fill="#455a64"/>
      <path id="Trazado_141182" data-name="Trazado 141182" d="M567.54,274.176l.287-3.316h16.84l-.092,2.59Z" transform="translate(-543.322 -222.401)" fill="#455a64"/>
      <path id="Trazado_141183" data-name="Trazado 141183" d="M539.137,258.708a10.746,10.746,0,0,0-.937.975,4.481,4.481,0,0,0,.238,5.879,12.962,12.962,0,0,0,1.013.9.688.688,0,0,1-.347-.146,3.832,3.832,0,0,1-.807-.612,4.448,4.448,0,0,1-.249-6.15,3.712,3.712,0,0,1,.753-.677C539.018,258.746,539.137,258.691,539.137,258.708Z" transform="translate(-529.298 -216.832)" fill="#455a64"/>
      <path id="Trazado_141184" data-name="Trazado 141184" d="M594.816,445.51l1.913,4.443-8.55-.1L588,445.32Z" transform="translate(-552.696 -302.335)" fill="#3cc265"/>
      <path id="Trazado_141185" data-name="Trazado 141185" d="M588.22,452.157a7.777,7.777,0,0,0,1.192.06h2.893l2.883-.06a8.345,8.345,0,0,0,1.2-.065,8.486,8.486,0,0,0-1.2-.054H592.3l-2.888.054A10.16,10.16,0,0,0,588.22,452.157Z" transform="translate(-552.797 -305.412)" fill="#263238"/>
      <path id="Trazado_141186" data-name="Trazado 141186" d="M594.717,445.49a5.878,5.878,0,0,0-.033,1.8,6.037,6.037,0,0,0,.233,1.788,5.878,5.878,0,0,0,.033-1.8A6.037,6.037,0,0,0,594.717,445.49Z" transform="translate(-555.734 -302.413)" fill="#263238"/>
      <path id="Trazado_141187" data-name="Trazado 141187" d="M596.813,453.11l-8.539-.287-.054-.813,8.165.07.433.932" transform="translate(-552.797 -305.4)" fill="#fff" opacity="0.6"/>
      <path id="Trazado_141188" data-name="Trazado 141188" d="M569.82,282.955c6.431,20.291-1.858,44.922.13,68.567.2,2.324,1.138,5.1-1.035,6.421a3.544,3.544,0,0,1-1.961.482c-1.734-.06-3.186-.959-4.736-1.577a14.088,14.088,0,0,0-9.319-.363c-2.048.639-4.085,1.772-6.209,1.452-2.823-.428-4.649-3.218-7.244-4.4-2.433-1.084-5.239-.694-7.911-.759h-.081a5.993,5.993,0,0,1-5.537-7.585c3.885-14.217,16.753-60.391,22.453-68.811l17.046-.742A24.933,24.933,0,0,1,569.82,282.955Z" transform="translate(-524.151 -224.591)" fill="#3cc265"/>
      <path id="Trazado_141189" data-name="Trazado 141189" d="M589.553,306.77a7.585,7.585,0,0,1-.927,1.165,27.538,27.538,0,0,1-2.514,2.574,16.825,16.825,0,0,1-2.969,2.037,6.715,6.715,0,0,1-1.354.629,45.222,45.222,0,0,0,4.134-2.883c1.051-.91,1.913-1.837,2.557-2.492A7.67,7.67,0,0,1,589.553,306.77Z" transform="translate(-549.85 -238.854)" fill="#263238"/>
      <g id="Grupo_115063" data-name="Grupo 115063" transform="translate(22.144 75.571)" opacity="0.1">
        <path id="Trazado_141190" data-name="Trazado 141190" d="M573.751,320.9a72.544,72.544,0,0,0-2.839,43.432c.3,1.241.618,2.649-.092,3.717-.91,1.376-3.126,1.284-4.378.2a7.514,7.514,0,0,1-2.064-4.4c-2.341-12.1,1.9-24.274,6.469-35.722" transform="translate(-563.712 -320.9)"/>
      </g>
    </g>
    <g id="freepik--character-1--inject-2" transform="translate(164.921 144.787)">
      <rect id="Rectángulo_37976" data-name="Rectángulo 37976" width="32.287" height="1.571" transform="translate(38.236 57.635)" fill="#263238"/>
      <path id="Trazado_141191" data-name="Trazado 141191" d="M329.972,317.231,323.92,294.54h25.205l5.483,22.691Z" transform="translate(-296.742 -258.025)" fill="#263238"/>
      <path id="Trazado_141192" data-name="Trazado 141192" d="M354.3,316.4H331.779L326.54,296.47h22.632Z" transform="translate(-297.943 -258.909)" fill="#f5f5f5"/>
      <path id="Trazado_141193" data-name="Trazado 141193" d="M326.914,297.906h22.632l-.385-1.436H326.54Z" transform="translate(-297.943 -258.909)" fill="#ebebeb"/>
      <path id="Trazado_141194" data-name="Trazado 141194" d="M331.74,297.589a.249.249,0,1,0,.249-.249A.249.249,0,0,0,331.74,297.589Z" transform="translate(-300.325 -259.308)" fill="#fafafa"/>
      <path id="Trazado_141195" data-name="Trazado 141195" d="M330.17,297.589a.249.249,0,1,0,.249-.249A.249.249,0,0,0,330.17,297.589Z" transform="translate(-299.606 -259.308)" fill="#fafafa"/>
      <path id="Trazado_141196" data-name="Trazado 141196" d="M328.6,297.589a.232.232,0,1,0,.249-.249A.249.249,0,0,0,328.6,297.589Z" transform="translate(-298.887 -259.308)" fill="#fafafa"/>
      <path id="Trazado_141197" data-name="Trazado 141197" d="M355.239,312.174l2.482,2.839a3.506,3.506,0,0,0,1.512-2.855,4.022,4.022,0,0,0-8,.033Z" transform="translate(-309.255 -264.449)" fill="#3cc265"/>
      <path id="Trazado_141198" data-name="Trazado 141198" d="M354.655,316.035a5.546,5.546,0,0,1,.71.71c.444.477,1.084,1.17,1.831,2.016l.087.1-.108.076a4.264,4.264,0,0,1-4.177.412,4.118,4.118,0,0,1-1.723-1.382,3.527,3.527,0,0,1-.634-1.864V316h2.975a6.47,6.47,0,0,1,1.046.049,7.392,7.392,0,0,1-1.084.087c-.683.033-1.625.065-2.807.1l.119-.13a3.4,3.4,0,0,0,.618,1.718,3.842,3.842,0,0,0,1.625,1.279,4.107,4.107,0,0,0,3.928-.341v.173c-.721-.84-1.311-1.55-1.723-2.054A7.2,7.2,0,0,1,354.655,316.035Z" transform="translate(-308.985 -267.854)" fill="#263238"/>
      <path id="Trazado_141199" data-name="Trazado 141199" d="M355.06,311.092a.233.233,0,0,0,.228.228.228.228,0,0,0,.222-.228.225.225,0,0,0-.45,0Z" transform="translate(-311.01 -265.507)" fill="#263238"/>
      <path id="Trazado_141200" data-name="Trazado 141200" d="M346.83,308.148a12.593,12.593,0,0,1,2.682-.152h.412l.043.038a10.725,10.725,0,0,1,1.55,1.734,10.929,10.929,0,0,1-1.75-1.533l.1.038h-.358A13.108,13.108,0,0,1,346.83,308.148Z" transform="translate(-307.239 -264.183)" fill="#263238"/>
      <path id="Trazado_141201" data-name="Trazado 141201" d="M336.719,310.01a7.015,7.015,0,0,1-.26-1.046c-.152-.688-.363-1.69-.612-2.92l-.027-.135h.141l5.6-.049c-.033,0,.266.222.141.119h0v.26l.049.266c.033.179.07.352.1.542.065.347.125.688.19,1.024.125.666.238,1.306.352,1.913l.027.152h-.152c-1.685,0-3.1-.027-4.085-.043l-1.132-.033a1.586,1.586,0,0,1-.385-.033,2.441,2.441,0,0,1,.433-.033l1.159-.038c.992-.027,2.373-.06,4.009-.076l-.125.152-.325-1.929c-.065-.331-.13-.672-.2-1.019-.033-.173-.07-.352-.1-.542l-.049-.265-.027-.135v-.119h0c-.125-.1.168.141.135.119h-5.624l.114-.135c.211,1.187.374,2.167.488,2.883S336.73,309.994,336.719,310.01Z" transform="translate(-302.195 -263.211)" fill="#263238"/>
      <path id="Trazado_141202" data-name="Trazado 141202" d="M354.45,319.418a.225.225,0,1,0,.222-.228.222.222,0,0,0-.222.228Z" transform="translate(-310.73 -269.319)" fill="#263238"/>
      <path id="Trazado_141203" data-name="Trazado 141203" d="M347.35,319.494a7.3,7.3,0,0,1,2.037-.152,7.179,7.179,0,0,1,2.032.135,7.406,7.406,0,0,1-2.032.146A7.584,7.584,0,0,1,347.35,319.494Z" transform="translate(-307.478 -269.38)" fill="#263238"/>
      <path id="Trazado_141204" data-name="Trazado 141204" d="M336.759,320.279a4.987,4.987,0,0,1-.244-.748c-.146-.5-.358-1.235-.612-2.167l-.033-.13h.135c1.528-.027,3.56-.049,5.781-.054l.135.1h0v.19l.049.2.1.379c.065.255.13.5.19.748.125.488.244.964.358,1.42l.043.163h-.168c-1.712,0-3.175,0-4.194-.043l-1.181-.033a1.875,1.875,0,0,1-.406-.033,3.157,3.157,0,0,1,.455-.038l1.208-.038c1.024-.033,2.449-.06,4.118-.076l-.13.163c-.119-.455-.244-.927-.368-1.414l-.2-.748-.1-.385-.049-.19-.027-.1v-.087h0c-.033,0,.26.2.135.108h-5.776l.1-.135c.217.889.379,1.625.493,2.129a5.389,5.389,0,0,1,.184.818Z" transform="translate(-302.218 -268.398)" fill="#263238"/>
      <path id="Trazado_141205" data-name="Trazado 141205" d="M338.3,308.269a6.8,6.8,0,0,1,1.913-.146,6.394,6.394,0,0,1,1.918.135,6.83,6.83,0,0,1-1.918.146,6.371,6.371,0,0,1-1.913-.135Z" transform="translate(-303.331 -264.239)" fill="#263238"/>
      <path id="Trazado_141206" data-name="Trazado 141206" d="M338.38,309.43a6.941,6.941,0,0,1,1.929-.146,6.811,6.811,0,0,1,1.929.13,13,13,0,0,1-3.858,0Z" transform="translate(-303.368 -264.771)" fill="#263238"/>
      <path id="Trazado_141207" data-name="Trazado 141207" d="M338.59,310.548a6.145,6.145,0,0,1,1.864-.152,6.464,6.464,0,0,1,1.858.135,6.091,6.091,0,0,1-1.858.152A6.5,6.5,0,0,1,338.59,310.548Z" transform="translate(-303.464 -265.282)" fill="#263238"/>
      <path id="Trazado_141208" data-name="Trazado 141208" d="M338.51,319.4a6.16,6.16,0,0,1,1.826-.146,5.818,5.818,0,0,1,1.826.135,6.22,6.22,0,0,1-1.826.146A5.818,5.818,0,0,1,338.51,319.4Z" transform="translate(-303.427 -269.338)" fill="#263238"/>
      <path id="Trazado_141209" data-name="Trazado 141209" d="M338.92,320.7a8.714,8.714,0,0,1,3.121,0A8.711,8.711,0,0,1,338.92,320.7Z" transform="translate(-303.615 -269.947)" fill="#263238"/>
      <path id="Trazado_141210" data-name="Trazado 141210" d="M273.76,336.29v2.975h1.951V399.52h4V339.265h21.223V399.52h4V339.265H397V399.5h4v-60.24h1.728V336.29Z" transform="translate(-273.76 -277.154)" fill="#263238"/>
      <path id="Trazado_141211" data-name="Trazado 141211" d="M433.8,377.628a29.8,29.8,0,0,0,5.2,0,31.259,31.259,0,0,0-5.2,0Z" transform="translate(-347.087 -296.045)" fill="#263238"/>
      <ellipse id="Elipse_5346" data-name="Elipse 5346" cx="0.141" cy="0.07" rx="0.141" ry="0.07" transform="translate(48.693 82.06)" fill="#455a64"/>
      <path id="Trazado_141212" data-name="Trazado 141212" d="M391.734,260.427,376.8,245.257l-.325-1.625c-.06-.3-.125-.634-.184-1.019a4.074,4.074,0,0,1,.027-1.333,5.961,5.961,0,0,1,.461-1.593c.249-.439-.152-.97-.569-.786a4.227,4.227,0,0,0-1.295,3.013c-.157,1.642-1.555-.542-2.075-1.322s-2.254-3.126-2.617-3.153c-.542-.043-.661.542-.125,1.3s2,3.2,1.593,3.451h0a1.951,1.951,0,0,0-2.064,1.024c-.379.721-.8,1.75-.455,2.221a26.934,26.934,0,0,0,2.384,2.525l.5.428s12.922,18.725,15.74,19.338c1.75.374,28.83,2.622,28.83,2.622l2.043-7.461Z" transform="translate(-317.418 -231.861)" fill="#b78876"/>
      <path id="Trazado_141213" data-name="Trazado 141213" d="M369,250.7l1.382,1.327a1.706,1.706,0,0,0,.542.385.574.574,0,0,0,.607-.1.585.585,0,0,0,.081-.542,1.625,1.625,0,0,0-.32-.488l-1.344-1.625" transform="translate(-317.397 -237.462)" fill="#b78876"/>
      <path id="Trazado_141214" data-name="Trazado 141214" d="M369.965,249.648c.033-.027.287.228.683.666.222.249.45.5.683.775a2.5,2.5,0,0,1,.385.515.737.737,0,0,1-.038.764.677.677,0,0,1-.758.173,1.533,1.533,0,0,1-.542-.379l-.721-.737c-.406-.423-.645-.7-.618-.731a3.283,3.283,0,0,1,.753.591l.764.688a1.306,1.306,0,0,0,.455.309.417.417,0,0,0,.444-.087.471.471,0,0,0,0-.471,2.656,2.656,0,0,0-.331-.471c-.222-.276-.433-.542-.639-.813A3.143,3.143,0,0,1,369.965,249.648Z" transform="translate(-317.414 -237.456)" fill="#aa6550"/>
      <path id="Trazado_141215" data-name="Trazado 141215" d="M370.85,248.911l1.382,1.327a1.626,1.626,0,0,0,.542.379.542.542,0,0,0,.607-.1.574.574,0,0,0,.081-.542,1.711,1.711,0,0,0-.32-.493L371.8,247.86" transform="translate(-318.245 -236.637)" fill="#b78876"/>
      <path id="Trazado_141216" data-name="Trazado 141216" d="M371.781,247.86a4.239,4.239,0,0,1,.683.672l.683.769a2.5,2.5,0,0,1,.385.515.748.748,0,0,1-.038.769.677.677,0,0,1-.759.173,1.534,1.534,0,0,1-.542-.379l-.715-.737a3.348,3.348,0,0,1-.618-.731,3.337,3.337,0,0,1,.753.585l.764.694a1.306,1.306,0,0,0,.455.309.417.417,0,0,0,.444-.087.482.482,0,0,0,0-.477,2.406,2.406,0,0,0-.336-.466l-.634-.813a3.008,3.008,0,0,1-.526-.8Z" transform="translate(-318.249 -236.637)" fill="#aa6550"/>
      <path id="Trazado_141217" data-name="Trazado 141217" d="M372.84,247.442l1.382,1.327a1.5,1.5,0,0,0,.542.379.493.493,0,0,0,.683-.65,1.626,1.626,0,0,0-.32-.493c-.444-.542-.894-1.084-1.338-1.625" transform="translate(-319.156 -235.959)" fill="#b78876"/>
      <path id="Trazado_141218" data-name="Trazado 141218" d="M373.78,246.4a3.533,3.533,0,0,1,.683.666l.683.775a2.486,2.486,0,0,1,.379.515.721.721,0,0,1-.038.769.666.666,0,0,1-.753.173,1.533,1.533,0,0,1-.542-.379l-.71-.737a3.208,3.208,0,0,1-.612-.731,3.251,3.251,0,0,1,.753.585l.764.694a1.338,1.338,0,0,0,.45.309.412.412,0,0,0,.444-.087.455.455,0,0,0,0-.477,2.624,2.624,0,0,0-.331-.466l-.634-.813A3.007,3.007,0,0,1,373.78,246.4Z" transform="translate(-319.17 -235.968)" fill="#aa6550"/>
      <path id="Trazado_141219" data-name="Trazado 141219" d="M376.87,250.675c0-.049.341-.114.84.038l-.157.135a2.362,2.362,0,0,1-.038-.948,2.411,2.411,0,0,1,.542-1.154c.211-.249.39-.347.412-.32a4.9,4.9,0,0,0-.65,1.517,2.857,2.857,0,0,0,0,.856l.027.217-.184-.081C377.2,250.751,376.865,250.729,376.87,250.675Z" transform="translate(-321.003 -236.895)" fill="#aa6550"/>
      <path id="Trazado_141220" data-name="Trazado 141220" d="M435.561,235.717l.065,20.79-8.127.385-.325-4.979s-3.912.591-4.73-2.351c-.542-1.88-.39-16.4-.39-16.4Z" transform="translate(-341.696 -229.902)" fill="#b78876"/>
      <path id="Trazado_141221" data-name="Trazado 141221" d="M418.126,232.453c.6,1.246,3.462,3.516,3.462,3.516l1.295,3.462c1.122-.878,2.628-.829,2.915,1.143.206,1.43-1.566,1.718-1.566,1.718a24.854,24.854,0,0,0,3.251,4.844c1.625,1.81,2.536,1.988,4.3,2.021h1.945s3.977-3.327,3.191-12.083-8.68-6.215-10.56-8.382C423.317,225.122,416.122,228.308,418.126,232.453Z" transform="translate(-339.747 -227.147)" fill="#263238"/>
      <path id="Trazado_141222" data-name="Trazado 141222" d="M436.815,247.229a2.768,2.768,0,0,1-.959-.043,4.985,4.985,0,0,1-2.324-1.192,12.667,12.667,0,0,1-2.346-3.1,11.219,11.219,0,0,0-2.98-3.646,11.5,11.5,0,0,0-4.492-1.425,8.506,8.506,0,0,1-3.625-1.382,3.885,3.885,0,0,1-1.452-2.167,2.168,2.168,0,0,1-.038-.959,2.991,2.991,0,0,0,.081.948,3.879,3.879,0,0,0,1.457,2.1,8.523,8.523,0,0,0,3.6,1.338,11.936,11.936,0,0,1,4.535,1.436,10.691,10.691,0,0,1,3,3.684,12.852,12.852,0,0,0,2.314,3.1,5.055,5.055,0,0,0,2.276,1.208,3.913,3.913,0,0,0,.7.087Z" transform="translate(-340.106 -229.971)" fill="#455a64"/>
      <path id="Trazado_141223" data-name="Trazado 141223" d="M437.348,239.118l-.417-.13a7.009,7.009,0,0,0-1.225-.271,2.709,2.709,0,0,0-1.875.423,1.539,1.539,0,0,0-.656.986,1.376,1.376,0,0,0,.379,1.241,1.084,1.084,0,0,0,.656.26,1.333,1.333,0,0,0,.721-.2,2.205,2.205,0,0,0,.981-1.252,3.094,3.094,0,0,0-2.617-4.064,5.484,5.484,0,0,0-2.01.26,14.289,14.289,0,0,1-2.086.5,8.387,8.387,0,0,1-2.211,0,7.347,7.347,0,0,1-2.135-.591,2.568,2.568,0,0,1-1.457-1.539,2.021,2.021,0,0,1,.493-1.967,1.734,1.734,0,0,1,1.907-.276,1.441,1.441,0,0,1,.7.661,1.626,1.626,0,0,1,.152.932,2.129,2.129,0,0,1-.948,1.485,3.061,3.061,0,0,1-1.625.45,4.757,4.757,0,0,1-1.517-.233,5.483,5.483,0,0,1-2.232-1.376,5.65,5.65,0,0,1-1.138-1.625,5.921,5.921,0,0,1-.406-1.192c-.049-.282-.065-.433-.065-.433s.033.146.087.428a6.252,6.252,0,0,0,.423,1.176,5.558,5.558,0,0,0,1.143,1.625,5.348,5.348,0,0,0,2.211,1.344,4.627,4.627,0,0,0,1.5.228,2.985,2.985,0,0,0,1.55-.439,2.021,2.021,0,0,0,.9-1.42,1.392,1.392,0,0,0-.8-1.49,1.626,1.626,0,0,0-1.788.265,1.907,1.907,0,0,0-.466,1.853,2.481,2.481,0,0,0,1.4,1.468,7.087,7.087,0,0,0,2.118.558,8.181,8.181,0,0,0,2.167,0,13.87,13.87,0,0,0,2.07-.493,5.477,5.477,0,0,1,2.059-.265,3.2,3.2,0,0,1,2.709,4.2,2.314,2.314,0,0,1-1.029,1.295,1.419,1.419,0,0,1-.764.206,1.122,1.122,0,0,1-.71-.282,1.463,1.463,0,0,1-.4-1.311,1.626,1.626,0,0,1,.688-1.029,2.8,2.8,0,0,1,1.918-.412,6.059,6.059,0,0,1,1.225.293C437.207,239.059,437.348,239.118,437.348,239.118Z" transform="translate(-340.178 -228.99)" fill="#455a64"/>
      <path id="Trazado_141224" data-name="Trazado 141224" d="M431.407,436.518l-2.644-3.4,6.334-5,3.928,4.931-.374.336c-1.669,1.474-8.6,7.4-10.051,7.965C426.985,441.985,431.407,436.518,431.407,436.518Z" transform="translate(-344.542 -319.229)" fill="#3cc265"/>
      <g id="Grupo_115064" data-name="Grupo 115064" transform="translate(83.705 113.692)" opacity="0.4">
        <path id="Trazado_141225" data-name="Trazado 141225" d="M429.323,443.341s-1.457,2.037-.975,2.167,7.71-5.592,10.679-8.393l-.125-.135-8.377,6.74S429.7,443.065,429.323,443.341Z" transform="translate(-428.249 -436.98)" fill="#fff"/>
      </g>
      <path id="Trazado_141226" data-name="Trazado 141226" d="M439.009,436.82a.622.622,0,0,1-.1.1l-.3.266-1.111.959c-.948.8-2.265,1.9-3.749,3.072s-2.85,2.211-3.847,2.942l-1.192.867-.325.228-.119.07.108-.087.314-.244,1.17-.889c.986-.748,2.346-1.788,3.831-2.964s2.807-2.259,3.76-3.05l1.132-.932.309-.255Z" transform="translate(-344.553 -323.215)" fill="#263238"/>
      <path id="Trazado_141227" data-name="Trazado 141227" d="M431.427,449.114a3.309,3.309,0,0,0-.65-.379,3.158,3.158,0,0,0-.737-.13,1.3,1.3,0,0,1,1.387.509Z" transform="translate(-345.364 -328.59)" fill="#263238"/>
      <path id="Trazado_141228" data-name="Trazado 141228" d="M434.033,444.882c0,.027-.184,0-.4-.081s-.368-.152-.358-.179.184,0,.39.087a.927.927,0,0,1,.363.173Z" transform="translate(-346.848 -326.785)" fill="#263238"/>
      <path id="Trazado_141229" data-name="Trazado 141229" d="M434.647,443.8c0,.027-.157.043-.341.033s-.336-.043-.336-.07.152-.043.341-.027a.737.737,0,0,1,.336.065Z" transform="translate(-347.165 -326.38)" fill="#263238"/>
      <path id="Trazado_141230" data-name="Trazado 141230" d="M434.384,442.288a1.739,1.739,0,0,1-.3.3c-.184.146-.341.249-.358.228s.119-.157.3-.3S434.368,442.266,434.384,442.288Z" transform="translate(-347.054 -325.719)" fill="#263238"/>
      <path id="Trazado_141231" data-name="Trazado 141231" d="M433.934,441.349a1.2,1.2,0,0,1-.7.65,3.517,3.517,0,0,1,.358-.325C433.783,441.5,433.913,441.333,433.934,441.349Z" transform="translate(-346.826 -325.289)" fill="#263238"/>
      <path id="Trazado_141232" data-name="Trazado 141232" d="M432.175,444.295a1.4,1.4,0,0,1-.406.32,3.211,3.211,0,0,1-.509.244,1.4,1.4,0,0,1-.331.1.314.314,0,0,1-.2-.049.2.2,0,0,1-.065-.211.948.948,0,0,1,1.084-.509.9.9,0,0,1,.347.163c.07.06.1.1.1.1a1.365,1.365,0,0,0-.461-.2.91.91,0,0,0-.542.049.813.813,0,0,0-.461.417.131.131,0,0,0,.168.141,2.1,2.1,0,0,0,.3-.081,4.729,4.729,0,0,0,.509-.222C432.012,444.4,432.164,444.278,432.175,444.295Z" transform="translate(-345.646 -326.577)" fill="#263238"/>
      <path id="Trazado_141233" data-name="Trazado 141233" d="M432.962,443.646a.585.585,0,0,1-.271-.244.873.873,0,0,1-.125-.39.542.542,0,0,1,.173-.471.206.206,0,0,1,.276.087.585.585,0,0,1,.076.238,1.626,1.626,0,0,1,0,.4.753.753,0,0,1-.1.352,2.671,2.671,0,0,1,.033-.358,1.572,1.572,0,0,0,0-.379c0-.13-.1-.314-.211-.249a.455.455,0,0,0-.13.385.841.841,0,0,0,.092.352A1.941,1.941,0,0,0,432.962,443.646Z" transform="translate(-346.52 -325.825)" fill="#263238"/>
      <path id="Trazado_141234" data-name="Trazado 141234" d="M444.224,433.81a2.879,2.879,0,0,0-.45.385,2.547,2.547,0,0,0-.618,2.633,5.8,5.8,0,0,0,.238.542c-.016,0-.043-.038-.1-.125a2.6,2.6,0,0,1-.2-.4,2.546,2.546,0,0,1-.1-1.452,2.449,2.449,0,0,1,.737-1.257,2.119,2.119,0,0,1,.352-.265.482.482,0,0,1,.146-.065Z" transform="translate(-351.269 -321.836)" fill="#263238"/>
      <path id="Trazado_141235" data-name="Trazado 141235" d="M440.27,429.9a14.831,14.831,0,0,1,1.084,1.257c.574.715,1.024,1.306,1.008,1.322a13.757,13.757,0,0,1-1.084-1.257,12.526,12.526,0,0,1-1.008-1.322Z" transform="translate(-350.052 -320.044)" fill="#263238"/>
      <path id="Trazado_141236" data-name="Trazado 141236" d="M439.9,440.5a4.335,4.335,0,0,1-.851.824,4.623,4.623,0,0,1-.981.656s.417-.325.921-.737S439.885,440.478,439.9,440.5Z" transform="translate(-349.044 -324.9)" fill="#263238"/>
      <path id="Trazado_141237" data-name="Trazado 141237" d="M443.7,438.68c.027,0,.038.114.07.244s.076.233.054.249-.114-.076-.152-.228S443.683,438.674,443.7,438.68Z" transform="translate(-351.606 -324.067)" fill="#263238"/>
      <path id="Trazado_141238" data-name="Trazado 141238" d="M443.674,436.93c.027,0,.038.1,0,.217s-.043.211-.07.211-.038-.1-.027-.222S443.647,436.924,443.674,436.93Z" transform="translate(-351.565 -323.265)" fill="#263238"/>
      <path id="Trazado_141239" data-name="Trazado 141239" d="M444.361,435.453s-.07.092-.135.2-.1.211-.125.206-.043-.13.038-.26S444.356,435.426,444.361,435.453Z" transform="translate(-351.797 -322.585)" fill="#263238"/>
      <path id="Trazado_141240" data-name="Trazado 141240" d="M445.2,434.528v.135a.111.111,0,0,1-.108.092c-.022-.011,0-.076,0-.141A.1.1,0,0,1,445.2,434.528Z" transform="translate(-352.256 -322.164)" fill="#263238"/>
      <g id="Grupo_115065" data-name="Grupo 115065" transform="translate(85.813 111.373)" opacity="0.3">
        <path id="Trazado_141241" data-name="Trazado 141241" d="M439.14,433.139l-6.41,4.9-.591-.775,6.735-4.562Z" transform="translate(-432.14 -432.7)"/>
      </g>
      <path id="Trazado_141242" data-name="Trazado 141242" d="M375.7,446.25v-4.307l8.073-.033.049,6.307-.5.033c-2.227.135-11.329.515-12.819.07C368.85,447.821,375.7,446.25,375.7,446.25Z" transform="translate(-317.968 -325.547)" fill="#3cc265"/>
      <g id="Grupo_115066" data-name="Grupo 115066" transform="translate(52.259 121.592)" opacity="0.4">
        <path id="Trazado_141243" data-name="Trazado 141243" d="M372.34,451.56s-2.406.7-2.1,1.084,9.52.358,13.583,0v-.179l-10.75.135S372.806,451.576,372.34,451.56Z" transform="translate(-370.211 -451.56)" fill="#fff"/>
      </g>
      <path id="Trazado_141244" data-name="Trazado 141244" d="M383.953,453.192h-.542l-1.463.07c-1.241.049-2.953.1-4.844.108s-3.609,0-4.849-.06l-1.463-.054h1.468c1.235,0,2.953.038,4.844.033s3.6-.049,4.838-.081l1.468-.038h.542Z" transform="translate(-317.97 -330.706)" fill="#263238"/>
      <path id="Trazado_141245" data-name="Trazado 141245" d="M374.81,452.651a3.372,3.372,0,0,0-.282-.7,3.121,3.121,0,0,0-.5-.542,1.309,1.309,0,0,1,.78,1.241Z" transform="translate(-319.702 -329.9)" fill="#263238"/>
      <path id="Trazado_141246" data-name="Trazado 141246" d="M379.485,450.886a1.772,1.772,0,0,1-.255-.309c-.119-.184-.2-.347-.173-.358s.135.119.255.309S379.507,450.875,379.485,450.886Z" transform="translate(-322.003 -329.354)" fill="#263238"/>
      <path id="Trazado_141247" data-name="Trazado 141247" d="M380.628,450.427a1.257,1.257,0,0,1-.287-.19c-.141-.125-.238-.238-.222-.26s.146.065.287.19S380.644,450.405,380.628,450.427Z" transform="translate(-322.491 -329.242)" fill="#263238"/>
      <path id="Trazado_141248" data-name="Trazado 141248" d="M381.1,449.358a.883.883,0,0,1-.417.054.911.911,0,0,1-.423-.043.97.97,0,0,1,.417-.054,1.009,1.009,0,0,1,.423.043Z" transform="translate(-322.556 -328.937)" fill="#263238"/>
      <path id="Trazado_141249" data-name="Trazado 141249" d="M381.264,448.41a.851.851,0,0,1-.471.135.813.813,0,0,1-.482-.06,2.512,2.512,0,0,1,.477-.038A2.748,2.748,0,0,1,381.264,448.41Z" transform="translate(-322.579 -328.525)" fill="#263238"/>
      <path id="Trazado_141250" data-name="Trazado 141250" d="M378.044,449.558a1.56,1.56,0,0,1-.542,0,2.835,2.835,0,0,1-.542-.119,1.452,1.452,0,0,1-.314-.125.3.3,0,0,1-.13-.162.2.2,0,0,1,.081-.206.948.948,0,0,1,1.176.271.9.9,0,0,1,.168.347.308.308,0,0,1,0,.141,1.451,1.451,0,0,0-.238-.444.959.959,0,0,0-.444-.287.791.791,0,0,0-.618.049c-.081.06-.049.157.043.211a1.272,1.272,0,0,0,.293.119,3.246,3.246,0,0,0,.542.141C377.86,449.542,378.044,449.542,378.044,449.558Z" transform="translate(-320.839 -328.725)" fill="#263238"/>
      <path id="Trazado_141251" data-name="Trazado 141251" d="M379.033,449.352a.542.542,0,0,1-.06-.358.84.84,0,0,1,.141-.379.542.542,0,0,1,.428-.266.2.2,0,0,1,.163.238.6.6,0,0,1-.087.233,1.546,1.546,0,0,1-.244.314c-.163.157-.287.222-.3.211s.1-.092.249-.26a1.9,1.9,0,0,0,.217-.309c.07-.114.114-.309,0-.33s-.26.114-.336.217a.834.834,0,0,0-.146.341,3.287,3.287,0,0,0-.027.347Z" transform="translate(-321.963 -328.498)" fill="#263238"/>
      <path id="Trazado_141252" data-name="Trazado 141252" d="M392.793,449.055h-.6a2.645,2.645,0,0,0-1.295.542,2.563,2.563,0,0,0-.807,1.154,5.566,5.566,0,0,0-.152.58.422.422,0,0,1,0-.163,1.914,1.914,0,0,1,.081-.439,2.574,2.574,0,0,1,.813-1.208,2.476,2.476,0,0,1,1.355-.542,1.872,1.872,0,0,1,.444,0A.391.391,0,0,1,392.793,449.055Z" transform="translate(-326.989 -328.78)" fill="#263238"/>
      <path id="Trazado_141253" data-name="Trazado 141253" d="M393.622,442.94a13.715,13.715,0,0,1,.081,1.658,15.237,15.237,0,0,1,0,1.658,13.126,13.126,0,0,1-.076-1.658,14.524,14.524,0,0,1-.005-1.658Z" transform="translate(-328.669 -326.019)" fill="#263238"/>
      <path id="Trazado_141254" data-name="Trazado 141254" d="M386.007,452a4.664,4.664,0,0,1-1.176.119,4.844,4.844,0,0,1-1.181-.087c0-.027.542,0,1.181,0S386.007,452,386.007,452Z" transform="translate(-324.109 -330.17)" fill="#263238"/>
      <path id="Trazado_141255" data-name="Trazado 141255" d="M390.805,452s-.038.114-.092.233-.087.228-.114.228-.038-.13,0-.266A.277.277,0,0,1,390.805,452Z" transform="translate(-327.282 -330.17)" fill="#263238"/>
      <path id="Trazado_141256" data-name="Trazado 141256" d="M391.8,450.616a.509.509,0,0,1-.114.184c-.081.081-.168.141-.19.125s.033-.108.119-.19S391.767,450.595,391.8,450.616Z" transform="translate(-327.702 -329.534)" fill="#263238"/>
      <path id="Trazado_141257" data-name="Trazado 141257" d="M393.242,449.962a.505.505,0,0,0-.233.07c-.119.07-.2.108-.222.087s.043-.13.2-.179S393.253,449.929,393.242,449.962Z" transform="translate(-328.294 -329.216)" fill="#263238"/>
      <path id="Trazado_141258" data-name="Trazado 141258" d="M394.543,449.667c0,.027-.038.07-.1.1s-.13.027-.141,0,.038-.065.1-.092S394.532,449.645,394.543,449.667Z" transform="translate(-328.988 -329.094)" fill="#263238"/>
      <g id="Grupo_115067" data-name="Grupo 115067" transform="translate(57.731 118.937)" opacity="0.3">
        <path id="Trazado_141259" data-name="Trazado 141259" d="M388.448,447.673l-8.138.011.005-.975,8.1-.049Z" transform="translate(-380.31 -446.66)"/>
      </g>
      <path id="Trazado_141260" data-name="Trazado 141260" d="M394.14,309.639l-3.251,9.753c-.872,2.628-3.17,3.078-5.96,3.078H367v-4.031l16.428-2.346,3.912-10Z" transform="translate(-316.481 -263.317)" fill="#b78876"/>
      <path id="Trazado_141261" data-name="Trazado 141261" d="M355.733,324.3l-1.425-.672s-1.539-2.975-1.891-2.855-.461.992.157,2.362l-1.891-.542s-4.112,1.9-3.928,2.167a.948.948,0,0,0,1.414.406c.894-.461,2.064-1,2.064-1l2.216.634-2.855.363-2.709,2.444a1.317,1.317,0,0,0,1.625-.043l7.044,1.485,2.167.119v-4.031Z" transform="translate(-307.202 -270.045)" fill="#b78876"/>
      <path id="Trazado_141262" data-name="Trazado 141262" d="M350.07,332.094a4.61,4.61,0,0,0,.412-.461,1.966,1.966,0,0,1,.509-.39,2.129,2.129,0,0,1,.753-.2,9.868,9.868,0,0,0,2.091-.358,10.619,10.619,0,0,0-2.118.141,2.108,2.108,0,0,0-.829.244,1.766,1.766,0,0,0-.542.466A1.344,1.344,0,0,0,350.07,332.094Z" transform="translate(-308.724 -274.583)" fill="#aa6550"/>
      <path id="Trazado_141263" data-name="Trazado 141263" d="M352.063,333.341c.027,0,.049-.146.244-.19s.515-.07.845-.1a7.462,7.462,0,0,0,1.225-.125,2.454,2.454,0,0,0-1.246-.1,3.76,3.76,0,0,0-.878.184.352.352,0,0,0-.211.217C352.014,333.3,352.047,333.341,352.063,333.341Z" transform="translate(-309.622 -275.549)" fill="#aa6550"/>
      <path id="Trazado_141264" data-name="Trazado 141264" d="M411.309,292.024l-1.382,4.687-8.777-3.993c.32-.981,1.772-5.348,4.546-12.278a11.92,11.92,0,0,1,9.1-7.336,52.09,52.09,0,0,1,8.4-.824c4.925.054,12.169,3.132,13.139,7.954.748,3.684.027,10.186.027,18.086l-.618,15.111-25.222.851Z" transform="translate(-332.128 -247.826)" fill="#3cc265"/>
      <g id="Grupo_115068" data-name="Grupo 115068" transform="translate(85.515 46.735)" opacity="0.3">
        <path id="Trazado_141265" data-name="Trazado 141265" d="M450.283,313.683c-3.067.629-6.22,0-9.346-.19-1.9-.114-4-.32-5.5.845a6.771,6.771,0,0,0-2.01,3.944,75.285,75.285,0,0,0-1.837,15.068l15.171.921Z" transform="translate(-431.59 -313.403)"/>
      </g>
      <path id="Trazado_141266" data-name="Trazado 141266" d="M418.71,278.484a3.323,3.323,0,0,1,2.124,1.376,4.876,4.876,0,0,1,.867,2.628,16.254,16.254,0,0,1-.265,3.457,58.558,58.558,0,0,1-1.409,6.182c-.206.759-.379,1.382-.509,1.858a3.993,3.993,0,0,0-.163.688,3.83,3.83,0,0,0,.244-.666c.141-.433.341-1.057.574-1.837a47.141,47.141,0,0,0,1.479-6.193,15.847,15.847,0,0,0,.249-3.506,4.985,4.985,0,0,0-.943-2.709,3.467,3.467,0,0,0-1.55-1.165,2.959,2.959,0,0,0-.515-.119C418.775,278.479,418.71,278.473,418.71,278.484Z" transform="translate(-340.173 -250.665)" fill="#263238"/>
      <path id="Trazado_141267" data-name="Trazado 141267" d="M401.66,307.83a8.809,8.809,0,0,0,1.235.71c.78.406,1.869.943,3.094,1.5s2.352,1.013,3.175,1.327a7.589,7.589,0,0,0,1.349.455,10.33,10.33,0,0,0-1.295-.6c-.8-.352-1.918-.834-3.137-1.387s-2.319-1.084-3.115-1.436A9.538,9.538,0,0,0,401.66,307.83Z" transform="translate(-332.361 -264.114)" fill="#263238"/>
      <path id="Trazado_141268" data-name="Trazado 141268" d="M390.279,351.92a8.989,8.989,0,0,0-3.668,12.039l21.96,37.689,10.127-6.117L401.651,361.5l12.337-8.068" transform="translate(-325 -284.315)" fill="#263238"/>
      <path id="Trazado_141269" data-name="Trazado 141269" d="M410.754,348.47l-30.136,1.084a8.989,8.989,0,0,0-8.669,9.124l1.252,43.037h12.673l-.423-40.691,25.3-.666Z" transform="translate(-318.748 -282.735)" fill="#263238"/>
      <path id="Trazado_141270" data-name="Trazado 141270" d="M396.869,374.27a2.092,2.092,0,0,1,.038.4q0,.433.049,1.138c.038.992.076,2.427.114,4.2.076,3.549.125,8.452.152,13.865s.054,10.295.07,13.865c0,1.755,0,3.18.027,4.2v1.143a2.115,2.115,0,0,1,0,.4,2.169,2.169,0,0,1-.038-.4c0-.287-.027-.666-.049-1.143-.038-.992-.076-2.427-.114-4.2-.076-3.549-.125-8.452-.152-13.871s-.054-10.295-.07-13.865v-5.348A2.061,2.061,0,0,1,396.869,374.27Z" transform="translate(-330.166 -294.556)" fill="#455a64"/>
      <path id="Trazado_141271" data-name="Trazado 141271" d="M435.061,298.07h-9.119a6.643,6.643,0,0,0-6.643,6.643V336.5H401.11a4.6,4.6,0,0,0-4.6,4.6h41.585a3.793,3.793,0,0,0,3.636-3.793v-32.6a6.643,6.643,0,0,0-6.67-6.643Z" transform="translate(-330.002 -259.642)" fill="#455a64"/>
      <path id="Trazado_141272" data-name="Trazado 141272" d="M443.341,300c.076,0,.141,9.346.141,20.876s-.065,20.876-.141,20.876-.141-9.346-.141-20.876S443.265,300,443.341,300Z" transform="translate(-351.394 -260.527)" fill="#263238"/>
      <path id="Trazado_141273" data-name="Trazado 141273" d="M429.317,410.925V377.56h-2.964v33.365c-1.81,3.565-6.063,5.96-11.243,7.954h26.419C436.181,416.7,431.3,415.027,429.317,410.925Z" transform="translate(-338.524 -296.063)" fill="#455a64"/>
    </g>
  </g>
</svg>
