<svg xmlns="http://www.w3.org/2000/svg" width="255" height="203.5" viewBox="0 0 255 203.5">
  <g id="Grupo_97972" data-name="Grupo 97972" transform="translate(-66.54 -65.934)">
    <g id="Background_Complete" data-name="Background Complete" transform="translate(84.844 65.933)">
      <g id="Grupo_98009" data-name="Grupo 98009" transform="translate(0 0)">
        <g id="Grupo_98008" data-name="Grupo 98008">
          <g id="Grupo_98002" data-name="Grupo 98002">
            <g id="Grupo_97977" data-name="Grupo 97977">
              <path id="Trazado_131558" data-name="Trazado 131558" d="M126.589,226.262l1.778,200.478H48.954V229Z" transform="translate(-48.954 -226.262)" fill="#f5f5f5"/>
            </g>
            <g id="Grupo_97978" data-name="Grupo 97978" transform="translate(0 1.507)">
              <path id="Trazado_131559" data-name="Trazado 131559" d="M83.807,228.02l.7,198.971H48.954V229.247Z" transform="translate(-48.954 -228.02)" fill="#e0e0e0"/>
            </g>
            <g id="Grupo_97983" data-name="Grupo 97983" transform="translate(37.523 2.473)">
              <g id="Grupo_97979" data-name="Grupo 97979">
                <path id="Trazado_131560" data-name="Trazado 131560" d="M130.362,229.148v28.1H92.746V230.476Z" transform="translate(-92.746 -229.148)" fill="#e0e0e0"/>
              </g>
              <g id="Grupo_97982" data-name="Grupo 97982" transform="translate(12.763 7.353)">
                <g id="Grupo_97980" data-name="Grupo 97980" transform="translate(0.377)">
                  <path id="Trazado_131561" data-name="Trazado 131561" d="M119.589,238.107v4.151H108.081V237.73Z" transform="translate(-108.081 -237.73)" fill="#f5f5f5"/>
                </g>
                <g id="Grupo_97981" data-name="Grupo 97981" transform="translate(0 8.018)">
                  <rect id="Rectángulo_36376" data-name="Rectángulo 36376" width="11.886" height="1.698" fill="#f5f5f5"/>
                </g>
              </g>
            </g>
            <g id="Grupo_97988" data-name="Grupo 97988" transform="translate(37.523 100.946)">
              <g id="Grupo_97984" data-name="Grupo 97984">
                <path id="Trazado_131562" data-name="Trazado 131562" d="M130.362,344.074v28.1H92.746V345.4Z" transform="translate(-92.746 -344.074)" fill="#e0e0e0"/>
              </g>
              <g id="Grupo_97987" data-name="Grupo 97987" transform="translate(12.763 7.354)">
                <g id="Grupo_97985" data-name="Grupo 97985" transform="translate(0.377)">
                  <path id="Trazado_131563" data-name="Trazado 131563" d="M119.589,353.033v4.151H108.081v-4.528Z" transform="translate(-108.081 -352.656)" fill="#f5f5f5"/>
                </g>
                <g id="Grupo_97986" data-name="Grupo 97986" transform="translate(0 8.018)">
                  <rect id="Rectángulo_36377" data-name="Rectángulo 36377" width="11.886" height="1.698" fill="#f5f5f5"/>
                </g>
              </g>
            </g>
            <g id="Grupo_97993" data-name="Grupo 97993" transform="translate(37.523 34.151)">
              <g id="Grupo_97989" data-name="Grupo 97989">
                <path id="Trazado_131564" data-name="Trazado 131564" d="M130.362,266.119v28.1H92.746V267.448Z" transform="translate(-92.746 -266.119)" fill="#e0e0e0"/>
              </g>
              <g id="Grupo_97992" data-name="Grupo 97992" transform="translate(12.763 7.354)">
                <g id="Grupo_97990" data-name="Grupo 97990" transform="translate(0.377)">
                  <path id="Trazado_131565" data-name="Trazado 131565" d="M119.589,275.079v4.151H108.081V274.7Z" transform="translate(-108.081 -274.702)" fill="#f5f5f5"/>
                </g>
                <g id="Grupo_97991" data-name="Grupo 97991" transform="translate(0 8.018)">
                  <rect id="Rectángulo_36378" data-name="Rectángulo 36378" width="11.886" height="1.698" fill="#f5f5f5"/>
                </g>
              </g>
            </g>
            <g id="Grupo_97997" data-name="Grupo 97997" transform="translate(37.523 132.619)">
              <g id="Grupo_97994" data-name="Grupo 97994">
                <path id="Trazado_131566" data-name="Trazado 131566" d="M130.362,381.038v28.1H92.746V382.366Z" transform="translate(-92.746 -381.038)" fill="#e0e0e0"/>
              </g>
              <g id="Grupo_97995" data-name="Grupo 97995" transform="translate(13.14 7.353)">
                <path id="Trazado_131567" data-name="Trazado 131567" d="M119.589,390v4.15H108.081V389.62Z" transform="translate(-108.081 -389.62)" fill="#f5f5f5"/>
              </g>
              <g id="Grupo_97996" data-name="Grupo 97996" transform="translate(12.763 15.371)">
                <rect id="Rectángulo_36379" data-name="Rectángulo 36379" width="11.886" height="1.698" fill="#f5f5f5"/>
              </g>
            </g>
            <g id="Grupo_98001" data-name="Grupo 98001" transform="translate(37.928 164.291)">
              <g id="Grupo_97998" data-name="Grupo 97998">
                <path id="Trazado_131568" data-name="Trazado 131568" d="M130.835,418v28.1H93.219V419.329Z" transform="translate(-93.219 -418.002)" fill="#e0e0e0"/>
              </g>
              <g id="Grupo_97999" data-name="Grupo 97999" transform="translate(13.14 7.353)">
                <path id="Trazado_131569" data-name="Trazado 131569" d="M120.062,426.961v4.15H108.554v-4.528Z" transform="translate(-108.554 -426.584)" fill="#f5f5f5"/>
              </g>
              <g id="Grupo_98000" data-name="Grupo 98000" transform="translate(12.762 15.371)">
                <rect id="Rectángulo_36380" data-name="Rectángulo 36380" width="11.886" height="1.698" fill="#f5f5f5"/>
              </g>
            </g>
          </g>
          <g id="Grupo_98007" data-name="Grupo 98007" transform="translate(38.013 67.798)">
            <g id="Grupo_98006" data-name="Grupo 98006">
              <g id="Grupo_98003" data-name="Grupo 98003">
                <rect id="Rectángulo_36381" data-name="Rectángulo 36381" width="37.616" height="28.101" fill="#e0e0e0"/>
              </g>
              <g id="Grupo_98004" data-name="Grupo 98004" transform="translate(13.576 12.311)">
                <path id="Trazado_131570" data-name="Trazado 131570" d="M119.981,320.11v3.9H109.163v-4.256Z" transform="translate(-109.163 -319.755)" fill="#f5f5f5"/>
              </g>
              <g id="Grupo_98005" data-name="Grupo 98005" transform="translate(13.222 19.847)">
                <rect id="Rectángulo_36382" data-name="Rectángulo 36382" width="11.173" height="1.596" fill="#f5f5f5"/>
              </g>
            </g>
          </g>
        </g>
      </g>
      <g id="Grupo_98016" data-name="Grupo 98016" transform="translate(142.886 180.334)">
        <g id="Grupo_98015" data-name="Grupo 98015">
          <g id="Grupo_98010" data-name="Grupo 98010" transform="translate(2.034 4.406)">
            <path id="Trazado_131571" data-name="Trazado 131571" d="M410.14,431.69v15.761h48.469V431.69Z" transform="translate(-410.14 -431.69)" fill="#f5f5f5"/>
          </g>
          <g id="Grupo_98011" data-name="Grupo 98011">
            <path id="Trazado_131572" data-name="Trazado 131572" d="M406.451,423.7V428.1h52.2V423.7h-52.2Z" transform="translate(-406.451 -423.697)" fill="#e0e0e0"/>
          </g>
          <g id="Grupo_98012" data-name="Grupo 98012" transform="translate(25.082)">
            <path id="Trazado_131573" data-name="Trazado 131573" d="M452.963,443.865h24.4V428.1h1.695V423.7H451.946v4Z" transform="translate(-451.946 -423.697)" fill="#e0e0e0"/>
          </g>
          <g id="Grupo_98013" data-name="Grupo 98013" transform="translate(8.812 6.948)">
            <rect id="Rectángulo_36383" data-name="Rectángulo 36383" width="9.829" height="2.372" fill="#e0e0e0"/>
          </g>
          <g id="Grupo_98014" data-name="Grupo 98014" transform="translate(7.547 12.286)">
            <rect id="Rectángulo_36384" data-name="Rectángulo 36384" width="12.622" height="5.01" fill="#fff"/>
          </g>
        </g>
      </g>
      <g id="Grupo_98023" data-name="Grupo 98023" transform="translate(184.498 160.167)">
        <g id="Grupo_98022" data-name="Grupo 98022">
          <g id="Grupo_98017" data-name="Grupo 98017" transform="translate(2.034 4.406)">
            <path id="Trazado_131574" data-name="Trazado 131574" d="M523.725,395.11V410.87h48.469V395.11Z" transform="translate(-523.725 -395.11)" fill="#f5f5f5"/>
          </g>
          <g id="Grupo_98018" data-name="Grupo 98018">
            <path id="Trazado_131575" data-name="Trazado 131575" d="M520.036,387.117v4.406h52.2v-4.406h-52.2Z" transform="translate(-520.036 -387.117)" fill="#e0e0e0"/>
          </g>
          <g id="Grupo_98019" data-name="Grupo 98019" transform="translate(25.082)">
            <path id="Trazado_131576" data-name="Trazado 131576" d="M566.548,407.284h24.4V391.523h1.695v-4.406H565.531v4Z" transform="translate(-565.531 -387.117)" fill="#e0e0e0"/>
          </g>
          <g id="Grupo_98020" data-name="Grupo 98020" transform="translate(8.812 6.948)">
            <rect id="Rectángulo_36385" data-name="Rectángulo 36385" width="9.829" height="2.372" fill="#e0e0e0"/>
          </g>
          <g id="Grupo_98021" data-name="Grupo 98021" transform="translate(7.547 12.286)">
            <rect id="Rectángulo_36386" data-name="Rectángulo 36386" width="12.622" height="5.01" fill="#fff"/>
          </g>
        </g>
      </g>
      <g id="Grupo_98030" data-name="Grupo 98030" transform="translate(182.177 180.334)">
        <g id="Grupo_98029" data-name="Grupo 98029">
          <g id="Grupo_98024" data-name="Grupo 98024" transform="translate(2.034 4.406)">
            <path id="Trazado_131577" data-name="Trazado 131577" d="M519.516,431.69v15.761h48.469V431.69Z" transform="translate(-519.516 -431.69)" fill="#f5f5f5"/>
          </g>
          <g id="Grupo_98025" data-name="Grupo 98025">
            <path id="Trazado_131578" data-name="Trazado 131578" d="M515.827,423.7V428.1h52.2V423.7h-52.2Z" transform="translate(-515.827 -423.697)" fill="#e0e0e0"/>
          </g>
          <g id="Grupo_98026" data-name="Grupo 98026" transform="translate(25.082)">
            <path id="Trazado_131579" data-name="Trazado 131579" d="M562.338,443.865h24.4V428.1h1.695V423.7H561.321v4Z" transform="translate(-561.321 -423.697)" fill="#e0e0e0"/>
          </g>
          <g id="Grupo_98027" data-name="Grupo 98027" transform="translate(8.812 6.948)">
            <rect id="Rectángulo_36387" data-name="Rectángulo 36387" width="9.829" height="2.372" fill="#e0e0e0"/>
          </g>
          <g id="Grupo_98028" data-name="Grupo 98028" transform="translate(7.547 12.286)">
            <rect id="Rectángulo_36388" data-name="Rectángulo 36388" width="12.622" height="5.01" fill="#fff"/>
          </g>
        </g>
      </g>
    </g>
    <g id="Folder" transform="translate(134.703 95.205)">
      <g id="Grupo_98089" data-name="Grupo 98089">
        <g id="Grupo_98064" data-name="Grupo 98064" transform="translate(2.214 23.139)">
          <path id="Trazado_131593" data-name="Trazado 131593" d="M232.274,187.071l3.511,59.862a4.042,4.042,0,0,0,4.023,3.806l107.747.329a4.043,4.043,0,0,0,4.055-4.031l.142-46.608a4.042,4.042,0,0,0-4.056-4.055l-66.265.225a4.042,4.042,0,0,1-2.859-1.172L267.09,184.049a4.044,4.044,0,0,0-2.833-1.171l-27.935-.085A4.042,4.042,0,0,0,232.274,187.071Z" transform="translate(-232.267 -182.792)" fill="#fc8116"/>
        </g>
        <g id="Grupo_98070" data-name="Grupo 98070" transform="translate(3.282 0.631)">
          <g id="Grupo_98067" data-name="Grupo 98067">
            <g id="Grupo_98066" data-name="Grupo 98066">
              <rect id="Rectángulo_36396" data-name="Rectángulo 36396" width="58.472" height="46.747" transform="matrix(0.606, -0.795, 0.795, 0.606, 0.163, 46.514)" fill="#fff"/>
              <g id="Grupo_98065" data-name="Grupo 98065">
                <path id="Trazado_131595" data-name="Trazado 131595" d="M270.01,137.527s-.056.08-.166.228l-.49.655-1.912,2.532-7.227,9.538-25.545,33.63-.022-.162,37.191,28.313,0,0-.181.024,35.449-46.5.02.151-26.945-20.6-7.518-5.762-1.978-1.523c-.448-.346-.68-.533-.68-.533s.229.165.676.5l1.977,1.491,7.533,5.7,27.066,20.548.086.065-.066.086-35.414,46.527-.079.1-.1-.079,0,0-37.174-28.334-.092-.071.071-.092,25.683-33.619,7.26-9.48,1.92-2.5.494-.637C269.953,137.595,270.01,137.527,270.01,137.527Z" transform="translate(-234.415 -137.527)" fill="#263238"/>
              </g>
            </g>
          </g>
          <rect id="Rectángulo_36397" data-name="Rectángulo 36397" width="54.364" height="40.861" transform="matrix(0.606, -0.795, 0.795, 0.606, 3.725, 46.693)" fill="#263238"/>
          <path id="Trazado_131596" data-name="Trazado 131596" d="M298.482,238.532l-8.7-30.5,19.768.273-1.923-11.494,23.8-1.529Z" transform="translate(-262.253 -166.566)" fill="#455a64"/>
          <g id="Grupo_98069" data-name="Grupo 98069" transform="translate(27.796 24.33)">
            <g id="Grupo_98068" data-name="Grupo 98068" transform="translate(0 0)">
              <circle id="Elipse_5231" data-name="Elipse 5231" cx="4.28" cy="4.28" r="4.28" transform="translate(0 1.157) rotate(-7.768)" fill="#455a64"/>
            </g>
          </g>
        </g>
        <g id="Grupo_98076" data-name="Grupo 98076" transform="translate(43.923)">
          <g id="Grupo_98073" data-name="Grupo 98073">
            <g id="Grupo_98072" data-name="Grupo 98072">
              <rect id="Rectángulo_36398" data-name="Rectángulo 36398" width="65.064" height="81.384" transform="matrix(0.041, -0.999, 0.999, 0.041, 0.135, 65.13)" fill="#fff"/>
              <g id="Grupo_98071" data-name="Grupo 98071">
                <path id="Trazado_131597" data-name="Trazado 131597" d="M400.273,139.723s-.133,0-.389-.009l-1.136-.04-4.409-.168-16.638-.653-58.748-2.359.12-.111c-.792,19.348-1.7,41.53-2.66,65v.007l-.124-.135,81.314,3.367-.112.1c.829-19.591,1.517-35.83,2-47.175.246-5.677.438-10.129.57-13.166.068-1.517.119-2.68.155-3.468s.061-1.2.061-1.2-.008.4-.036,1.173-.073,1.94-.13,3.448c-.118,3.033-.292,7.477-.513,13.145-.454,11.363-1.1,27.626-1.888,47.247l0,.107-.107,0-81.316-3.323-.13-.005.005-.129v-.007c.97-23.472,1.887-45.654,2.688-65l0-.116.116,0,58.818,2.477,16.61.714,4.385.194,1.123.053C400.149,139.713,400.273,139.723,400.273,139.723Z" transform="translate(-316.149 -136.257)" fill="#263238"/>
              </g>
            </g>
          </g>
          <rect id="Rectángulo_36399" data-name="Rectángulo 36399" width="56.872" height="75.666" transform="translate(3.107 61.153) rotate(-87.644)" fill="#455a64"/>
          <path id="Trazado_131598" data-name="Trazado 131598" d="M322.4,224.627l27.859-34.235L365.7,213.163l11.58-11.357L398,227.737Z" transform="translate(-319.29 -163.474)" fill="#263238"/>
          <g id="Grupo_98075" data-name="Grupo 98075" transform="translate(41.374 16.187)">
            <g id="Grupo_98074" data-name="Grupo 98074" transform="translate(0 0)">
              <circle id="Elipse_5232" data-name="Elipse 5232" cx="5.958" cy="5.958" r="5.958" transform="matrix(0.219, -0.976, 0.976, 0.219, 0, 11.627)" fill="#263238"/>
            </g>
          </g>
        </g>
        <g id="Grupo_98088" data-name="Grupo 98088" transform="translate(17.758 12.404)">
          <path id="Trazado_131599" data-name="Trazado 131599" d="M381.877,199.428,271.73,214.593l11.663,80.673,109.246-15.389Z" transform="translate(-267.651 -180.421)" fill="#ebebeb"/>
          <path id="Trazado_131600" data-name="Trazado 131600" d="M384.013,179.188,275.141,201.755l17.083,79.7,107.958-22.729Z" transform="translate(-269.366 -170.245)" fill="#e0e0e0"/>
          <g id="Grupo_98087" data-name="Grupo 98087">
            <g id="Grupo_98078" data-name="Grupo 98078">
              <path id="Trazado_131601" data-name="Trazado 131601" d="M368.713,161.2,263.83,198.1,291.4,274.811l103.956-36.941Z" transform="translate(-263.679 -161.203)" fill="#fff"/>
              <g id="Grupo_98077" data-name="Grupo 98077" transform="translate(0 0)">
                <path id="Trazado_131602" data-name="Trazado 131602" d="M368.561,161.2c.287.822,10.542,30.207,26.744,76.633l.035.1-.1.035L291.293,274.933l-.121.043-.044-.121-.2-.559-27.36-76.151-.04-.111.111-.039L368.561,161.2,263.716,198.215l.072-.15,27.382,76.143.2.559-.165-.078L395.17,237.771l-.065.134C379.024,191.437,368.846,162.025,368.561,161.2Z" transform="translate(-263.527 -161.203)" fill="#263238"/>
              </g>
            </g>
            <g id="Grupo_98079" data-name="Grupo 98079" transform="translate(86.204 14.87)">
              <path id="Trazado_131603" data-name="Trazado 131603" d="M458.679,249.81c-.2.075-5.24-13.007-11.253-29.215S436.7,191.182,436.9,191.108s5.239,13,11.254,29.218S458.88,249.736,458.679,249.81Z" transform="translate(-436.895 -191.107)" fill="#263238"/>
            </g>
            <g id="Grupo_98080" data-name="Grupo 98080" transform="translate(77.246 18.964)">
              <path id="Trazado_131604" data-name="Trazado 131604" d="M440.665,258.044c-.2.075-5.24-13.007-11.253-29.215s-10.727-29.413-10.525-29.488,5.239,13,11.254,29.218S440.865,257.97,440.665,258.044Z" transform="translate(-418.879 -199.341)" fill="#263238"/>
            </g>
            <g id="Grupo_98081" data-name="Grupo 98081" transform="translate(49.436 30.612)">
              <path id="Trazado_131605" data-name="Trazado 131605" d="M384.734,281.471c-.2.075-5.24-13.007-11.253-29.215s-10.727-29.413-10.525-29.488,5.239,13,11.254,29.218S384.934,281.4,384.734,281.471Z" transform="translate(-362.949 -222.768)" fill="#263238"/>
            </g>
            <g id="Grupo_98082" data-name="Grupo 98082" transform="translate(58.299 27.043)">
              <path id="Trazado_131606" data-name="Trazado 131606" d="M402.56,274.294c-.2.075-5.24-13.007-11.253-29.215s-10.727-29.413-10.526-29.488,5.239,13,11.254,29.217S402.76,274.219,402.56,274.294Z" transform="translate(-380.775 -215.59)" fill="#263238"/>
            </g>
            <g id="Grupo_98083" data-name="Grupo 98083" transform="translate(67.163 23.474)">
              <path id="Trazado_131607" data-name="Trazado 131607" d="M420.386,267.115c-.2.075-5.24-13.007-11.253-29.215s-10.727-29.414-10.525-29.488,5.238,13,11.254,29.218S420.587,267.04,420.386,267.115Z" transform="translate(-398.602 -208.411)" fill="#263238"/>
            </g>
            <g id="Grupo_98084" data-name="Grupo 98084" transform="translate(39.168 33.567)">
              <path id="Trazado_131608" data-name="Trazado 131608" d="M364.085,287.413c-.2.075-5.24-13.007-11.253-29.215S342.1,228.785,342.306,228.71s5.239,13,11.254,29.218S364.285,287.338,364.085,287.413Z" transform="translate(-342.3 -228.709)" fill="#263238"/>
            </g>
            <g id="Grupo_98085" data-name="Grupo 98085" transform="translate(29.349 37.167)">
              <path id="Trazado_131609" data-name="Trazado 131609" d="M344.337,294.655c-.2.075-5.24-13.007-11.253-29.215s-10.727-29.413-10.526-29.488,5.239,13,11.254,29.218S344.537,294.58,344.337,294.655Z" transform="translate(-322.552 -235.951)" fill="#263238"/>
            </g>
            <g id="Grupo_98086" data-name="Grupo 98086" transform="translate(19.53 40.768)">
              <path id="Trazado_131610" data-name="Trazado 131610" d="M324.589,301.9c-.2.075-5.24-13.007-11.253-29.215s-10.727-29.413-10.526-29.488,5.239,13,11.254,29.218S324.789,301.822,324.589,301.9Z" transform="translate(-302.804 -243.193)" fill="#263238"/>
            </g>
          </g>
        </g>
        <path id="Trazado_131611" data-name="Trazado 131611" d="M227.832,254.356l8.765,73.387a2.6,2.6,0,0,0,2.574,2.291l114.732.35A2.6,2.6,0,0,0,356.5,328l6-73.343a2.6,2.6,0,0,0-2.583-2.811l-129.5-.395A2.6,2.6,0,0,0,227.832,254.356Z" transform="translate(-227.813 -194.171)" fill="#fdab64"/>
      </g>
    </g>
    <g id="Character_2" data-name="Character 2" transform="translate(254.765 94.348)">
      <g id="Grupo_98236" data-name="Grupo 98236">
        <path id="Trazado_131612" data-name="Trazado 131612" d="M506.671,216.138l-4.288,3.071,2.5,12.294,5.637-5.028Z" transform="translate(-485.169 -178.649)" fill="#bf7a62"/>
        <g id="Grupo_98234" data-name="Grupo 98234" transform="translate(19.174)">
          <path id="Trazado_131613" data-name="Trazado 131613" d="M511.928,376.806l17.836-8.666,22.88,2.746a7.455,7.455,0,0,1,2.872,4.747,2.432,2.432,0,0,1-.26,1.8,2.283,2.283,0,0,1-2.419.594,21.251,21.251,0,0,0-2.532-.756c-1.7-.2-3.273.887-4.552,2.028s-2.553,2.443-4.224,2.824a6.476,6.476,0,0,1-4.353-.812c-1.336-.7-2.529-1.642-3.833-2.4a12.924,12.924,0,0,0-8.055-1.79c-2.221.29-4.3,1.263-6.514,1.613s-5.644-.04-6.845-1.931" transform="translate(-508.627 -246.85)" fill="#455a64"/>
          <g id="Grupo_98197" data-name="Grupo 98197" transform="translate(5.967 68.55)">
            <g id="Grupo_98094" data-name="Grupo 98094" transform="translate(4.269)">
              <g id="Grupo_98090" data-name="Grupo 98090">
                <path id="Trazado_131614" data-name="Trazado 131614" d="M560.1,369.273s-14.61-49.812-14.887-51.4c-.25-1.44,2.028-36.336,3.046-45.391l-16.092.136-.007.151-7.648.189,3.428,99.072,9.894.763-.066-32.686c6.241,15.762,13.473,33.338,13.473,33.338Z" transform="translate(-524.507 -272.478)" fill="#d89377"/>
              </g>
              <g id="Grupo_98092" data-name="Grupo 98092" transform="translate(6.45 43.108)">
                <g id="Grupo_98091" data-name="Grupo 98091">
                  <path id="Trazado_131615" data-name="Trazado 131615" d="M536.488,350.669c.031,0-.03.388-.066,1.086a21.366,21.366,0,0,0,.044,2.952,27.076,27.076,0,0,0,.721,4.315,42.933,42.933,0,0,0,1.745,5.076c1.356,3.576,2.567,6.82,3.429,9.174l1.005,2.793a7.106,7.106,0,0,1,.328,1.039,7.131,7.131,0,0,1-.444-1l-1.1-2.757c-.915-2.333-2.16-5.564-3.516-9.141q-.5-1.343-.983-2.614a24.146,24.146,0,0,1-.749-2.505,25.324,25.324,0,0,1-.661-4.369,17.85,17.85,0,0,1,.057-2.978,8.084,8.084,0,0,1,.12-.8A.977.977,0,0,1,536.488,350.669Z" transform="translate(-536.206 -350.669)" fill="#bf7a62"/>
                </g>
              </g>
              <g id="Grupo_98093" data-name="Grupo 98093" transform="translate(9.824 58.695)">
                <path id="Trazado_131616" data-name="Trazado 131616" d="M545.783,399.735c.018-.3.226-11.084.226-11.084s-3.587-10.008-3.68-9.7S545.783,399.735,545.783,399.735Z" transform="translate(-542.327 -378.941)" fill="#bf7a62"/>
              </g>
            </g>
            <g id="Grupo_98145" data-name="Grupo 98145" transform="translate(0 98.375)">
              <g id="Grupo_98144" data-name="Grupo 98144">
                <g id="Grupo_98099" data-name="Grupo 98099" transform="translate(0.032)">
                  <g id="Grupo_98096" data-name="Grupo 98096">
                    <g id="Grupo_98095" data-name="Grupo 98095">
                      <path id="Trazado_131617" data-name="Trazado 131617" d="M523.925,452.029l.027-1.114,10.492.211-.05,3.674-.648.03c-2.885.109-14.677.348-16.593-.27C515.015,453.869,523.925,452.029,523.925,452.029Z" transform="translate(-516.821 -450.915)" fill="#e8505b"/>
                    </g>
                  </g>
                  <g id="Grupo_98098" data-name="Grupo 98098" transform="translate(13.787 0.8)" opacity="0.3">
                    <g id="Grupo_98097" data-name="Grupo 98097">
                      <path id="Trazado_131618" data-name="Trazado 131618" d="M541.829,455.3a3.623,3.623,0,0,1,1.372-2.2,3.52,3.52,0,0,1,2.455-.716l-.05,2.919Z" transform="translate(-541.829 -452.366)" fill="#fff"/>
                    </g>
                  </g>
                </g>
                <g id="Grupo_98101" data-name="Grupo 98101" transform="translate(0 2.168)">
                  <g id="Grupo_98100" data-name="Grupo 98100">
                    <path id="Trazado_131619" data-name="Trazado 131619" d="M519.543,454.847s-3.126.842-2.748,1.361,12.3.726,17.573.356l-.013-.234-13.912-.122S520.15,454.883,519.543,454.847Z" transform="translate(-516.763 -454.847)" fill="#fff" opacity="0.3"/>
                  </g>
                </g>
                <g id="Grupo_98104" data-name="Grupo 98104" transform="translate(0.032 3.35)">
                  <g id="Grupo_98103" data-name="Grupo 98103">
                    <g id="Grupo_98102" data-name="Grupo 98102">
                      <path id="Trazado_131620" data-name="Trazado 131620" d="M534.545,457.288a.979.979,0,0,1-.18.017l-.517.022-1.9.049c-1.6.03-3.821.042-6.269,0s-4.665-.126-6.267-.209l-1.9-.111-.515-.039a.09.09,0,1,1,0-.026l.517.016,1.9.071c1.6.06,3.818.131,6.266.172s4.662.042,6.266.035l1.9-.009.516,0A.969.969,0,0,1,534.545,457.288Z" transform="translate(-516.821 -456.991)" fill="#263238"/>
                    </g>
                  </g>
                </g>
                <g id="Grupo_98107" data-name="Grupo 98107" transform="translate(2.705 2.038)">
                  <g id="Grupo_98106" data-name="Grupo 98106">
                    <g id="Grupo_98105" data-name="Grupo 98105">
                      <path id="Trazado_131621" data-name="Trazado 131621" d="M522.645,456.265a2.764,2.764,0,0,0-.974-1.65,1.688,1.688,0,0,1,.974,1.65Z" transform="translate(-521.67 -454.611)" fill="#263238"/>
                    </g>
                  </g>
                </g>
                <g id="Grupo_98110" data-name="Grupo 98110" transform="translate(6.246 1.301)">
                  <g id="Grupo_98109" data-name="Grupo 98109">
                    <g id="Grupo_98108" data-name="Grupo 98108">
                      <path id="Trazado_131622" data-name="Trazado 131622" d="M528.636,454.155c-.03.018-.174-.164-.323-.406s-.244-.454-.214-.472.174.164.323.406S528.665,454.137,528.636,454.155Z" transform="translate(-528.093 -453.275)" fill="#263238"/>
                    </g>
                  </g>
                </g>
                <g id="Grupo_98113" data-name="Grupo 98113" transform="translate(6.998 1.148)">
                  <g id="Grupo_98112" data-name="Grupo 98112">
                    <g id="Grupo_98111" data-name="Grupo 98111">
                      <path id="Trazado_131623" data-name="Trazado 131623" d="M530.1,453.6c-.024.026-.187-.087-.364-.252s-.3-.319-.278-.345.187.087.364.252S530.124,453.572,530.1,453.6Z" transform="translate(-529.456 -452.998)" fill="#263238"/>
                    </g>
                  </g>
                </g>
                <g id="Grupo_98116" data-name="Grupo 98116" transform="translate(7.102 0.705)">
                  <g id="Grupo_98115" data-name="Grupo 98115">
                    <g id="Grupo_98114" data-name="Grupo 98114">
                      <path id="Trazado_131624" data-name="Trazado 131624" d="M530.737,452.261a2.381,2.381,0,1,1-.545-.067A1.226,1.226,0,0,1,530.737,452.261Z" transform="translate(-529.645 -452.194)" fill="#263238"/>
                    </g>
                  </g>
                </g>
                <g id="Grupo_98119" data-name="Grupo 98119" transform="translate(7.151 0.069)">
                  <g id="Grupo_98118" data-name="Grupo 98118">
                    <g id="Grupo_98117" data-name="Grupo 98117">
                      <path id="Trazado_131625" data-name="Trazado 131625" d="M530.973,451.051a1.533,1.533,0,0,1-1.238.072,3.394,3.394,0,0,1,.619-.032A3.336,3.336,0,0,1,530.973,451.051Z" transform="translate(-529.735 -451.039)" fill="#263238"/>
                    </g>
                  </g>
                </g>
                <g id="Grupo_98122" data-name="Grupo 98122" transform="translate(4.492 0.301)">
                  <g id="Grupo_98121" data-name="Grupo 98121">
                    <g id="Grupo_98120" data-name="Grupo 98120">
                      <path id="Trazado_131626" data-name="Trazado 131626" d="M526.869,452.424a1.928,1.928,0,0,1-.671-.015,3.954,3.954,0,0,1-.712-.17,1.95,1.95,0,0,1-.406-.175.364.364,0,0,1-.162-.212.264.264,0,0,1,.106-.266,1.23,1.23,0,0,1,1.516.386,1.2,1.2,0,0,1,.211.452.37.37,0,0,1,.014.181,1.9,1.9,0,0,0-.3-.578,1.211,1.211,0,0,0-.567-.382,1.041,1.041,0,0,0-.8.04c-.108.077-.069.2.049.276a2.061,2.061,0,0,0,.374.168,4.649,4.649,0,0,0,.688.192C526.614,452.4,526.869,452.4,526.869,452.424Z" transform="translate(-524.911 -451.462)" fill="#263238"/>
                    </g>
                  </g>
                </g>
                <g id="Grupo_98125" data-name="Grupo 98125" transform="translate(6.198 0.006)">
                  <g id="Grupo_98124" data-name="Grupo 98124">
                    <g id="Grupo_98123" data-name="Grupo 98123">
                      <path id="Trazado_131627" data-name="Trazado 131627" d="M528.083,452.214a.664.664,0,0,1-.07-.467,1.107,1.107,0,0,1,.192-.487.673.673,0,0,1,.565-.332.267.267,0,0,1,.2.313.744.744,0,0,1-.119.3,2.052,2.052,0,0,1-.324.4.963.963,0,0,1-.389.265c-.012-.017.136-.118.324-.327a2.35,2.35,0,0,0,.288-.4c.094-.141.162-.394-.006-.428s-.342.145-.447.277a1.11,1.11,0,0,0-.2.433A2.489,2.489,0,0,0,528.083,452.214Z" transform="translate(-528.005 -450.926)" fill="#263238"/>
                    </g>
                  </g>
                </g>
                <g id="Grupo_98128" data-name="Grupo 98128" transform="translate(13.829 0.706)">
                  <g id="Grupo_98127" data-name="Grupo 98127">
                    <g id="Grupo_98126" data-name="Grupo 98126">
                      <path id="Trazado_131628" data-name="Trazado 131628" d="M545.611,452.275c0,.024-.3-.034-.772.014a3.273,3.273,0,0,0-2.774,2.134c-.167.445-.187.745-.211.742a.609.609,0,0,1,0-.211,2.772,2.772,0,0,1,.124-.561,3.175,3.175,0,0,1,2.851-2.193,2.737,2.737,0,0,1,.574.025A.606.606,0,0,1,545.611,452.275Z" transform="translate(-541.848 -452.195)" fill="#263238"/>
                    </g>
                  </g>
                </g>
                <g id="Grupo_98131" data-name="Grupo 98131" transform="translate(9.469 2.657)">
                  <g id="Grupo_98130" data-name="Grupo 98130">
                    <g id="Grupo_98129" data-name="Grupo 98129">
                      <path id="Trazado_131629" data-name="Trazado 131629" d="M536.992,455.771a8.572,8.572,0,0,1-3.053-.024c0-.037.685.017,1.527.022S536.988,455.734,536.992,455.771Z" transform="translate(-533.939 -455.735)" fill="#263238"/>
                    </g>
                  </g>
                </g>
                <g id="Grupo_98134" data-name="Grupo 98134" transform="translate(14.262 2.722)">
                  <g id="Grupo_98133" data-name="Grupo 98133">
                    <g id="Grupo_98132" data-name="Grupo 98132">
                      <path id="Trazado_131630" data-name="Trazado 131630" d="M542.939,455.856c.025.026-.058.144-.13.3s-.113.293-.149.29-.051-.166.034-.345S542.917,455.83,542.939,455.856Z" transform="translate(-542.632 -455.851)" fill="#263238"/>
                    </g>
                  </g>
                </g>
                <g id="Grupo_98137" data-name="Grupo 98137" transform="translate(14.954 1.774)">
                  <g id="Grupo_98136" data-name="Grupo 98136">
                    <g id="Grupo_98135" data-name="Grupo 98135">
                      <path id="Trazado_131631" data-name="Trazado 131631" d="M544.291,454.138c.024.025-.045.133-.155.24s-.219.175-.243.149.045-.132.155-.24S544.267,454.113,544.291,454.138Z" transform="translate(-543.888 -454.133)" fill="#263238"/>
                    </g>
                  </g>
                </g>
                <g id="Grupo_98140" data-name="Grupo 98140" transform="translate(15.87 1.297)">
                  <g id="Grupo_98139" data-name="Grupo 98139">
                    <g id="Grupo_98138" data-name="Grupo 98138">
                      <path id="Trazado_131632" data-name="Trazado 131632" d="M546.147,453.33c-.008.035-.147.032-.3.083s-.266.131-.293.107.063-.167.255-.228S546.158,453.3,546.147,453.33Z" transform="translate(-545.548 -453.267)" fill="#263238"/>
                    </g>
                  </g>
                </g>
                <g id="Grupo_98143" data-name="Grupo 98143" transform="translate(16.941 1.141)">
                  <g id="Grupo_98142" data-name="Grupo 98142">
                    <g id="Grupo_98141" data-name="Grupo 98141">
                      <path id="Trazado_131633" data-name="Trazado 131633" d="M547.809,453.01c.012.033-.049.085-.136.117s-.168.032-.18,0,.048-.085.136-.117S547.8,452.977,547.809,453.01Z" transform="translate(-547.491 -452.985)" fill="#263238"/>
                    </g>
                  </g>
                </g>
              </g>
            </g>
            <g id="Grupo_98196" data-name="Grupo 98196" transform="translate(25.631 95.692)">
              <g id="Grupo_98195" data-name="Grupo 98195">
                <g id="Grupo_98150" data-name="Grupo 98150" transform="translate(0.007)">
                  <g id="Grupo_98147" data-name="Grupo 98147">
                    <g id="Grupo_98146" data-name="Grupo 98146">
                      <path id="Trazado_131634" data-name="Trazado 131634" d="M568.628,451.549l-.473-1.009,9.484-4.492,1.594,3.311-.567.316c-2.533,1.384-12.98,6.859-14.971,7.16C561.474,457.17,568.628,451.549,568.628,451.549Z" transform="translate(-563.268 -446.047)" fill="#e8505b"/>
                    </g>
                  </g>
                  <g id="Grupo_98149" data-name="Grupo 98149" transform="translate(12.377 0.546)" opacity="0.3">
                    <g id="Grupo_98148" data-name="Grupo 98148">
                      <path id="Trazado_131635" data-name="Trazado 131635" d="M585.851,451.357a3.622,3.622,0,0,1,.246-2.584,3.516,3.516,0,0,1,1.878-1.736l1.258,2.635Z" transform="translate(-585.718 -447.037)" fill="#fff"/>
                    </g>
                  </g>
                </g>
                <g id="Grupo_98152" data-name="Grupo 98152" transform="translate(0 3.107)">
                  <g id="Grupo_98151" data-name="Grupo 98151">
                    <path id="Trazado_131636" data-name="Trazado 131636" d="M565.193,456.964s-2.422,2.148-1.852,2.444,11.336-4.84,15.886-7.521l-.116-.2-12.505,6.1S565.753,456.725,565.193,456.964Z" transform="translate(-563.254 -451.683)" fill="#fff" opacity="0.3"/>
                  </g>
                </g>
                <g id="Grupo_98155" data-name="Grupo 98155" transform="translate(0.009 3.03)">
                  <g id="Grupo_98154" data-name="Grupo 98154">
                    <g id="Grupo_98153" data-name="Grupo 98153">
                      <path id="Trazado_131637" data-name="Trazado 131637" d="M579.264,451.544a1.023,1.023,0,0,1-.154.095l-.452.25-1.679.891c-1.422.742-3.4,1.742-5.61,2.8s-4.231,1.968-5.7,2.609l-1.748.746-.479.195a1.021,1.021,0,0,1-.17.06.955.955,0,0,1,.16-.084l.469-.216,1.731-.783c1.461-.662,3.475-1.586,5.684-2.641s4.192-2.043,5.624-2.764l1.7-.855.463-.229A.944.944,0,0,1,579.264,451.544Z" transform="translate(-563.27 -451.543)" fill="#263238"/>
                    </g>
                  </g>
                </g>
                <g id="Grupo_98158" data-name="Grupo 98158" transform="translate(1.816 8.291)">
                  <g id="Grupo_98157" data-name="Grupo 98157">
                    <g id="Grupo_98156" data-name="Grupo 98156">
                      <path id="Trazado_131638" data-name="Trazado 131638" d="M568.157,462.145a4.31,4.31,0,0,0-.711-.665,4.237,4.237,0,0,0-.9-.377,1.687,1.687,0,0,1,1.608,1.043Z" transform="translate(-566.549 -461.086)" fill="#263238"/>
                    </g>
                  </g>
                </g>
                <g id="Grupo_98161" data-name="Grupo 98161" transform="translate(4.659 6.059)">
                  <g id="Grupo_98160" data-name="Grupo 98160">
                    <g id="Grupo_98159" data-name="Grupo 98159">
                      <path id="Trazado_131639" data-name="Trazado 131639" d="M572.578,457.589c-.018.03-.229-.068-.47-.219s-.421-.3-.4-.327.229.069.47.22S572.6,457.559,572.578,457.589Z" transform="translate(-571.705 -457.036)" fill="#263238"/>
                    </g>
                  </g>
                </g>
                <g id="Grupo_98164" data-name="Grupo 98164" transform="translate(5.262 5.581)">
                  <g id="Grupo_98163" data-name="Grupo 98163">
                    <g id="Grupo_98162" data-name="Grupo 98162">
                      <path id="Trazado_131640" data-name="Trazado 131640" d="M573.641,456.433c-.01.034-.206,0-.438-.063s-.412-.151-.4-.185.206-.005.438.063S573.651,456.4,573.641,456.433Z" transform="translate(-572.799 -456.17)" fill="#263238"/>
                    </g>
                  </g>
                </g>
                <g id="Grupo_98167" data-name="Grupo 98167" transform="translate(5.181 4.716)">
                  <g id="Grupo_98166" data-name="Grupo 98166">
                    <g id="Grupo_98165" data-name="Grupo 98165">
                      <path id="Trazado_131641" data-name="Trazado 131641" d="M573.632,454.609c.016.031-.191.164-.462.3a1.23,1.23,0,0,1-.518.184c-.015-.031.191-.164.462-.3A1.23,1.23,0,0,1,573.632,454.609Z" transform="translate(-572.652 -454.602)" fill="#263238"/>
                    </g>
                  </g>
                </g>
                <g id="Grupo_98170" data-name="Grupo 98170" transform="translate(4.952 4.014)">
                  <g id="Grupo_98169" data-name="Grupo 98169">
                    <g id="Grupo_98168" data-name="Grupo 98168">
                      <path id="Trazado_131642" data-name="Trazado 131642" d="M573.312,453.33c.024.023-.164.246-.473.422a1.056,1.056,0,0,1-.6.195,44.916,44.916,0,0,0,1.076-.616Z" transform="translate(-572.237 -453.327)" fill="#263238"/>
                    </g>
                  </g>
                </g>
                <g id="Grupo_98173" data-name="Grupo 98173" transform="translate(2.764 5.548)">
                  <g id="Grupo_98172" data-name="Grupo 98172">
                    <g id="Grupo_98171" data-name="Grupo 98171">
                      <path id="Trazado_131643" data-name="Trazado 131643" d="M570.323,456.5a1.912,1.912,0,0,1-.607.286,3.944,3.944,0,0,1-.713.165,1.921,1.921,0,0,1-.442.024.362.362,0,0,1-.24-.116.264.264,0,0,1-.024-.286,1.231,1.231,0,0,1,1.529-.33,1.2,1.2,0,0,1,.391.31c.074.092.1.152.094.156a1.9,1.9,0,0,0-.523-.385,1.2,1.2,0,0,0-.678-.09,1.042,1.042,0,0,0-.7.394c-.062.117.029.213.166.225a2,2,0,0,0,.41-.017,4.556,4.556,0,0,0,.7-.136C570.084,456.594,570.315,456.485,570.323,456.5Z" transform="translate(-568.267 -456.111)" fill="#263238"/>
                    </g>
                  </g>
                </g>
                <g id="Grupo_98176" data-name="Grupo 98176" transform="translate(4.349 4.577)">
                  <g id="Grupo_98175" data-name="Grupo 98175">
                    <g id="Grupo_98174" data-name="Grupo 98174">
                      <path id="Trazado_131644" data-name="Trazado 131644" d="M571.471,455.818a.664.664,0,0,1-.271-.388,1.1,1.1,0,0,1-.046-.522.674.674,0,0,1,.357-.55.268.268,0,0,1,.32.191.736.736,0,0,1,.026.32,2.01,2.01,0,0,1-.111.5.969.969,0,0,1-.229.411c-.018-.01.068-.167.145-.438a2.364,2.364,0,0,0,.08-.485c.022-.168-.031-.425-.2-.38s-.242.282-.276.447a1.1,1.1,0,0,0,.016.476A2.421,2.421,0,0,0,571.471,455.818Z" transform="translate(-571.142 -454.349)" fill="#263238"/>
                    </g>
                  </g>
                </g>
                <g id="Grupo_98179" data-name="Grupo 98179" transform="translate(12.241 0.541)">
                  <g id="Grupo_98178" data-name="Grupo 98178">
                    <g id="Grupo_98177" data-name="Grupo 98177">
                      <path id="Trazado_131645" data-name="Trazado 131645" d="M587.8,447.029c.008.023-.282.1-.684.357a3.272,3.272,0,0,0-1.53,3.147c.048.472.164.751.142.758a.6.6,0,0,1-.091-.19,2.745,2.745,0,0,1-.139-.557,3.175,3.175,0,0,1,1.573-3.235,2.764,2.764,0,0,1,.525-.234A.616.616,0,0,1,587.8,447.029Z" transform="translate(-585.457 -447.028)" fill="#263238"/>
                    </g>
                  </g>
                </g>
                <g id="Grupo_98182" data-name="Grupo 98182" transform="translate(8.15 4.51)">
                  <g id="Grupo_98181" data-name="Grupo 98181">
                    <g id="Grupo_98180" data-name="Grupo 98180">
                      <path id="Trazado_131646" data-name="Trazado 131646" d="M580.78,454.229a8.589,8.589,0,0,1-2.743,1.341c-.013-.035.621-.291,1.376-.661S580.76,454.2,580.78,454.229Z" transform="translate(-578.037 -454.227)" fill="#263238"/>
                    </g>
                  </g>
                </g>
                <g id="Grupo_98185" data-name="Grupo 98185" transform="translate(12.629 3.627)">
                  <g id="Grupo_98184" data-name="Grupo 98184">
                    <g id="Grupo_98183" data-name="Grupo 98183">
                      <path id="Trazado_131647" data-name="Trazado 131647" d="M586.271,452.626c.034.012.011.154.016.326s.03.313,0,.326-.12-.126-.123-.324S586.24,452.613,586.271,452.626Z" transform="translate(-586.161 -452.626)" fill="#263238"/>
                    </g>
                  </g>
                </g>
                <g id="Grupo_98188" data-name="Grupo 98188" transform="translate(12.822 2.428)">
                  <g id="Grupo_98187" data-name="Grupo 98187">
                    <g id="Grupo_98186" data-name="Grupo 98186">
                      <path id="Trazado_131648" data-name="Trazado 131648" d="M586.711,450.451c.033.012.019.139-.031.284s-.118.254-.151.243-.019-.139.031-.284S586.678,450.44,586.711,450.451Z" transform="translate(-586.511 -450.451)" fill="#263238"/>
                    </g>
                  </g>
                </g>
                <g id="Grupo_98191" data-name="Grupo 98191" transform="translate(13.368 1.541)">
                  <g id="Grupo_98190" data-name="Grupo 98190">
                    <g id="Grupo_98189" data-name="Grupo 98189">
                      <path id="Trazado_131649" data-name="Trazado 131649" d="M587.963,448.859c.009.035-.117.094-.232.208s-.18.236-.215.227-.018-.177.126-.317S587.959,448.825,587.963,448.859Z" transform="translate(-587.501 -448.843)" fill="#263238"/>
                    </g>
                  </g>
                </g>
                <g id="Grupo_98194" data-name="Grupo 98194" transform="translate(14.21 1.025)">
                  <g id="Grupo_98193" data-name="Grupo 98193">
                    <g id="Grupo_98192" data-name="Grupo 98192">
                      <path id="Trazado_131650" data-name="Trazado 131650" d="M589.269,447.913c.025.024-.005.1-.07.166s-.136.1-.161.079.006-.1.07-.166S589.244,447.889,589.269,447.913Z" transform="translate(-589.029 -447.906)" fill="#263238"/>
                    </g>
                  </g>
                </g>
              </g>
            </g>
          </g>
          <g id="Grupo_98206" data-name="Grupo 98206" transform="translate(0 28.318)">
            <g id="Grupo_98199" data-name="Grupo 98199">
              <g id="Grupo_98198" data-name="Grupo 98198">
                <path id="Trazado_131651" data-name="Trazado 131651" d="M539.493,236.928h.005c-4.4-7.611-5.515-6.721-4.024-11.154l4.3-14.414-1.807-9.048a9.958,9.958,0,0,0-7.618-2.786l-8.976.617s-4.417-.968-10.923,5.353L505.94,209.7l5.676,10.77.283,4.882,4.093,13.361L514.9,244.6c-.475,4.484-6.5,55.89-5.686,56.7.853.848,13.419-5.442,16.462-2.872s9.17,4.145,12.626,3.039,8.639-7.986,13.869-3.348C552.172,298.126,550.462,252.519,539.493,236.928Z" transform="translate(-505.94 -199.504)" fill="#263238"/>
              </g>
            </g>
            <path id="Trazado_131652" data-name="Trazado 131652" d="M551.5,200.666s9.349,2.49,7.969,9.166c-.679,3.284-5.161,10.132-5.161,10.132l-10.6-5.013Z" transform="translate(-522.888 -200.025)" fill="#263238"/>
            <g id="Grupo_98200" data-name="Grupo 98200" transform="translate(7.219 39.56)">
              <path id="Trazado_131653" data-name="Trazado 131653" d="M521.36,273.65a8.711,8.711,0,0,1,1.581-1.119,9.022,9.022,0,0,1,5.09-1.255,7.323,7.323,0,0,1,3.5,1.043,6.76,6.76,0,0,1,2.737,3.17,5.2,5.2,0,0,1,.387,2.268,5.543,5.543,0,0,1-.691,2.295c-.757,1.449-1.946,2.653-2.734,4.131a8.237,8.237,0,0,0-.744,4.748,15.932,15.932,0,0,1-.012,4.638,6.372,6.372,0,0,1-.8,2.03,3.858,3.858,0,0,1-1.486,1.437,3.181,3.181,0,0,1-1.905.324,4.444,4.444,0,0,1-1.662-.632,13.085,13.085,0,0,1-2.278-1.98,21.332,21.332,0,0,0-1.7-1.492,10.7,10.7,0,0,0-1.178-.8c-.282-.165-.44-.233-.434-.246a.437.437,0,0,1,.121.04,3.625,3.625,0,0,1,.341.155,8.928,8.928,0,0,1,1.217.766,19.533,19.533,0,0,1,1.74,1.465,13.231,13.231,0,0,0,2.271,1.922,4.254,4.254,0,0,0,1.587.586,2.952,2.952,0,0,0,1.764-.315,3.62,3.62,0,0,0,1.382-1.36,6.137,6.137,0,0,0,.761-1.953,15.852,15.852,0,0,0-.01-4.562,13.47,13.47,0,0,1,.01-2.466,6.546,6.546,0,0,1,.761-2.437c.818-1.527,2.006-2.727,2.738-4.127a5.283,5.283,0,0,0,.666-2.181,4.95,4.95,0,0,0-.358-2.151,6.543,6.543,0,0,0-2.617-3.066,7.159,7.159,0,0,0-3.392-1.043A9.076,9.076,0,0,0,523,272.629a13.629,13.629,0,0,0-1.219.745l-.307.211A.453.453,0,0,1,521.36,273.65Z" transform="translate(-519.034 -271.26)" fill="#fafafa"/>
            </g>
            <g id="Grupo_98201" data-name="Grupo 98201" transform="translate(23.784 51.203)">
              <path id="Trazado_131654" data-name="Trazado 131654" d="M570.428,325.874a.563.563,0,0,1-.145.035l-.429.073c-.378.061-.936.147-1.657.245a38.051,38.051,0,0,1-6.149.416,18.9,18.9,0,0,1-4.229-.572,14.044,14.044,0,0,1-4.476-1.99,9.793,9.793,0,0,1-3.5-4.1,8.713,8.713,0,0,1-.471-5.755,6.88,6.88,0,0,1,1.429-2.611,17.038,17.038,0,0,1,2.147-1.909,12.209,12.209,0,0,0,1.978-1.86,5.561,5.561,0,0,0,1.07-2.321,28.8,28.8,0,0,0,.265-4.84,8.217,8.217,0,0,1,3.414-6.741,8.106,8.106,0,0,1,2.365-1.213,7.241,7.241,0,0,1,1.646-.333l.437-.015a.583.583,0,0,1,.148,0,9.571,9.571,0,0,0-2.2.45,8.2,8.2,0,0,0-2.3,1.236,8.082,8.082,0,0,0-3.271,6.622,28.5,28.5,0,0,1-.244,4.888,5.832,5.832,0,0,1-1.113,2.434,12.4,12.4,0,0,1-2.018,1.91,17,17,0,0,0-2.109,1.879,6.6,6.6,0,0,0-1.367,2.5,8.454,8.454,0,0,0,.453,5.562,9.553,9.553,0,0,0,3.4,4,13.9,13.9,0,0,0,4.386,1.977,18.9,18.9,0,0,0,4.175.6,41.106,41.106,0,0,0,6.128-.324l1.662-.191.433-.045A.58.58,0,0,1,570.428,325.874Z" transform="translate(-549.081 -292.378)" fill="#fafafa"/>
            </g>
            <g id="Grupo_98202" data-name="Grupo 98202" transform="translate(4.247 86.233)">
              <path id="Trazado_131655" data-name="Trazado 131655" d="M528.248,368.166c0-.007.058-.06.188-.142a2.584,2.584,0,0,0,.533-.37c.195-.2.113-.567-.008-.945a7.721,7.721,0,0,0-.6-1.243c-.5-.906-1.092-1.991-1.821-3.145a17.716,17.716,0,0,0-2.756-3.447,10.207,10.207,0,0,0-3.708-2.307,7.319,7.319,0,0,0-3.532-.332,5.114,5.114,0,0,0-2.2.942c-.458.346-.673.588-.694.568s.041-.071.142-.187a4.15,4.15,0,0,1,.482-.469,4.954,4.954,0,0,1,2.233-1.054,7.346,7.346,0,0,1,3.653.281,10.234,10.234,0,0,1,3.822,2.348,17.256,17.256,0,0,1,2.784,3.516c.724,1.173,1.295,2.271,1.775,3.19a7.341,7.341,0,0,1,.578,1.29,2.5,2.5,0,0,1,.107.582.625.625,0,0,1-.169.487,2.127,2.127,0,0,1-.587.346A.838.838,0,0,1,528.248,368.166Z" transform="translate(-513.644 -355.917)" fill="#fafafa"/>
            </g>
            <g id="Grupo_98203" data-name="Grupo 98203" transform="translate(25.747 28.301)">
              <path id="Trazado_131656" data-name="Trazado 131656" d="M557.811,256.2c.011.01-.067.128-.265.284a2.344,2.344,0,0,1-.974.429,2.914,2.914,0,0,1-1.578-.132,3.37,3.37,0,0,1-1.519-1.2,4.93,4.93,0,0,1-.807-3.346,3.982,3.982,0,0,1,.309-1.4c.047.009-.071.543-.106,1.409a5.081,5.081,0,0,0,.837,3.166,3.244,3.244,0,0,0,1.383,1.124,2.86,2.86,0,0,0,1.448.179A3.417,3.417,0,0,0,557.811,256.2Z" transform="translate(-552.641 -250.838)" fill="#fafafa"/>
            </g>
            <g id="Grupo_98204" data-name="Grupo 98204" transform="translate(27.148 2.407)">
              <path id="Trazado_131657" data-name="Trazado 131657" d="M559.741,219.267a.642.642,0,0,1-.214.048,3.31,3.31,0,0,1-.628.02,4.121,4.121,0,0,1-2.154-.808,3.874,3.874,0,0,1-1.065-1.211,4,4,0,0,1-.5-1.785,4.182,4.182,0,0,1,.412-2.006,7.887,7.887,0,0,1,1.336-1.72,3.942,3.942,0,0,0,.6-.859,1.7,1.7,0,0,0,.158-.952,5.9,5.9,0,0,0-.806-1.765,3,3,0,0,1-.365-1.82,2.946,2.946,0,0,1,.623-1.494,2.866,2.866,0,0,1,2.037-1.039,2.5,2.5,0,0,1,.629.037.592.592,0,0,1,.209.065,6.584,6.584,0,0,0-.828.009,2.828,2.828,0,0,0-1.888,1.054,2.781,2.781,0,0,0-.184,3.065,5.912,5.912,0,0,1,.851,1.852,1.97,1.97,0,0,1-.179,1.109,4.186,4.186,0,0,1-.641.927,7.835,7.835,0,0,0-1.3,1.655,3.947,3.947,0,0,0-.4,1.872,3.729,3.729,0,0,0,1.42,2.845,4.209,4.209,0,0,0,2.041.858C559.439,219.284,559.739,219.239,559.741,219.267Z" transform="translate(-555.182 -203.87)" fill="#fafafa"/>
            </g>
            <g id="Grupo_98205" data-name="Grupo 98205" transform="translate(4.282 6.517)">
              <path id="Trazado_131658" data-name="Trazado 131658" d="M515.831,227.92a7.439,7.439,0,0,0,.889.042,3.528,3.528,0,0,0,2.167-.9,3.247,3.247,0,0,0,.91-3.209,3.337,3.337,0,0,0-1.085-1.72,7.593,7.593,0,0,1-1.624-1.678,3.792,3.792,0,0,1-.369-2.323c.082-.754.258-1.454.375-2.122a6.412,6.412,0,0,0,.115-1.893,2.853,2.853,0,0,0-.6-1.492,3.238,3.238,0,0,0-2.016-1.174,6.089,6.089,0,0,0-.887-.033.72.72,0,0,1,.227-.061,2.626,2.626,0,0,1,.674-.017,3.263,3.263,0,0,1,2.16,1.157,3.04,3.04,0,0,1,.677,1.589,6.543,6.543,0,0,1-.09,1.969c-.113.68-.281,1.378-.356,2.105a3.546,3.546,0,0,0,.339,2.152,7.577,7.577,0,0,0,1.566,1.614,3.589,3.589,0,0,1,1.151,1.862,3.444,3.444,0,0,1-1.033,3.425,3.523,3.523,0,0,1-2.3.861,2.829,2.829,0,0,1-.67-.076A.74.74,0,0,1,515.831,227.92Z" transform="translate(-513.707 -211.325)" fill="#fafafa"/>
            </g>
          </g>
          <g id="Grupo_98233" data-name="Grupo 98233" transform="translate(2.327)">
            <g id="Grupo_98232" data-name="Grupo 98232">
              <path id="Trazado_131659" data-name="Trazado 131659" d="M527.829,150.394a6.724,6.724,0,0,1,8.026,6.175c.066,1.057-.065,2.27.682,3.021a7.721,7.721,0,0,0,1.987,1,3.038,3.038,0,0,1,1.346,3.638c-.254.66-.739,1.213-.986,1.876a5.06,5.06,0,0,0-.372,3.095c1.537,5.234-2.174,5.879-4.153,6.228-2.788.491-5.617-.395-5.906-3.315-.094-.943-1.772-.836-2.712-.714a5.494,5.494,0,0,0-2.8,1.868,9.513,9.513,0,0,1-4.573,2.593,5.439,5.439,0,0,1-4.93-1.335,3.849,3.849,0,0,1-.449-4.863,4.827,4.827,0,0,1-1.828-7.348,16.282,16.282,0,0,0,2.143-2.524c.41-.842.849-2.767,1.169-3.647a8.9,8.9,0,0,1,3.2-3.98" transform="translate(-510.161 -149.095)" fill="#455a64"/>
              <g id="Grupo_98217" data-name="Grupo 98217" transform="translate(6.314 3.695)">
                <g id="Grupo_98216" data-name="Grupo 98216">
                  <g id="Grupo_98215" data-name="Grupo 98215">
                    <g id="Grupo_98214" data-name="Grupo 98214">
                      <g id="Grupo_98208" data-name="Grupo 98208">
                        <g id="Grupo_98207" data-name="Grupo 98207">
                          <path id="Trazado_131660" data-name="Trazado 131660" d="M537.927,181.051l-10.353.147c-.177-1.194-.528-5.843-.528-5.843s-4.338-.262-4.794-4.532-.638-14.156-.638-14.156h0a14.922,14.922,0,0,1,15.1.471l.68.428Z" transform="translate(-521.613 -154.841)" fill="#d89377"/>
                        </g>
                      </g>
                      <g id="Grupo_98211" data-name="Grupo 98211" transform="translate(3.515 8.046)">
                        <g id="Grupo_98210" data-name="Grupo 98210">
                          <g id="Grupo_98209" data-name="Grupo 98209">
                            <path id="Trazado_131661" data-name="Trazado 131661" d="M529.561,174.586a2.869,2.869,0,0,0-.971-.112c-.156,0-.28-.026-.3-.107a.84.84,0,0,1,.069-.452l.353-1.24a16.514,16.514,0,0,0,.712-3.24,16.455,16.455,0,0,0-1.036,3.151c-.113.43-.221.841-.328,1.247a.986.986,0,0,0-.024.648.4.4,0,0,0,.288.221.972.972,0,0,0,.266.009A2.873,2.873,0,0,0,529.561,174.586Z" transform="translate(-527.988 -169.434)" fill="#263238"/>
                          </g>
                        </g>
                      </g>
                      <g id="Grupo_98213" data-name="Grupo 98213" transform="translate(5.419 18.343)">
                        <g id="Grupo_98212" data-name="Grupo 98212">
                          <path id="Trazado_131662" data-name="Trazado 131662" d="M531.442,190.221a9.981,9.981,0,0,0,5.424-2.108s-1.028,3.2-5.329,3.217Z" transform="translate(-531.442 -188.113)" fill="#bf7a62"/>
                        </g>
                      </g>
                    </g>
                  </g>
                </g>
              </g>
              <g id="Grupo_98221" data-name="Grupo 98221" transform="translate(13.369 11.249)">
                <g id="Grupo_98218" data-name="Grupo 98218" transform="translate(0.168 0.679)">
                  <path id="Trazado_131663" data-name="Trazado 131663" d="M535.8,170.276a.541.541,0,0,1-.533.536.518.518,0,0,1-.549-.5.542.542,0,0,1,.533-.536A.519.519,0,0,1,535.8,170.276Z" transform="translate(-534.716 -169.775)" fill="#263238"/>
                </g>
                <g id="Grupo_98220" data-name="Grupo 98220">
                  <g id="Grupo_98219" data-name="Grupo 98219">
                    <path id="Trazado_131664" data-name="Trazado 131664" d="M536.551,169.134c-.068.069-.473-.243-1.056-.253s-1.016.272-1.078.2c-.03-.032.041-.158.23-.29a1.486,1.486,0,0,1,.864-.248,1.432,1.432,0,0,1,.839.289C536.527,168.974,536.585,169.1,536.551,169.134Z" transform="translate(-534.411 -168.543)" fill="#263238"/>
                  </g>
                </g>
              </g>
              <g id="Grupo_98225" data-name="Grupo 98225" transform="translate(7.284 11.338)">
                <g id="Grupo_98222" data-name="Grupo 98222" transform="translate(0.285 0.573)">
                  <path id="Trazado_131665" data-name="Trazado 131665" d="M524.972,170.244a.541.541,0,0,1-.533.536.518.518,0,0,1-.549-.5.541.541,0,0,1,.533-.536A.518.518,0,0,1,524.972,170.244Z" transform="translate(-523.89 -169.744)" fill="#263238"/>
                </g>
                <g id="Grupo_98224" data-name="Grupo 98224">
                  <g id="Grupo_98223" data-name="Grupo 98223">
                    <path id="Trazado_131666" data-name="Trazado 131666" d="M525.513,169.3c-.068.069-.473-.243-1.056-.253s-1.016.273-1.077.2c-.03-.033.04-.158.229-.291a1.493,1.493,0,0,1,.865-.248,1.425,1.425,0,0,1,.839.29C525.488,169.136,525.546,169.265,525.513,169.3Z" transform="translate(-523.373 -168.704)" fill="#263238"/>
                  </g>
                </g>
              </g>
              <path id="Trazado_131667" data-name="Trazado 131667" d="M532.544,180.317a1.126,1.126,0,0,1-.093-.434.385.385,0,0,1,.23-.352c.1-.035.221-.012.31-.07.123-.079.121-.257.189-.386a.476.476,0,0,1,.514-.208,1.01,1.01,0,0,1,.5.307.9.9,0,0,1,.308.592.7.7,0,0,1-.322.562,1.475,1.475,0,0,1-.631.218,3.377,3.377,0,0,1-.727.029.481.481,0,0,1-.2-.046.184.184,0,0,1-.1-.17" transform="translate(-520.162 -161.922)" fill="#bf7a62"/>
              <g id="Grupo_98227" data-name="Grupo 98227" transform="translate(11.959 16.823)">
                <path id="Trazado_131668" data-name="Trazado 131668" d="M531.853,180.312a2.755,2.755,0,0,0,2.219-1.656" transform="translate(-531.853 -178.655)" fill="#bf7a62"/>
                <g id="Grupo_98226" data-name="Grupo 98226">
                  <path id="Trazado_131669" data-name="Trazado 131669" d="M534.072,178.655a2.112,2.112,0,0,1-2.219,1.656,10.138,10.138,0,0,0,1.246-.644C533.721,179.213,533.994,178.621,534.072,178.655Z" transform="translate(-531.853 -178.654)" fill="#263238"/>
                </g>
              </g>
              <g id="Grupo_98229" data-name="Grupo 98229" transform="translate(7.299 9.836)">
                <path id="Trazado_131670" data-name="Trazado 131670" d="M523.422,166.723a2.482,2.482,0,0,1,1.6-.178" transform="translate(-523.41 -166.207)" fill="#bf7a62"/>
                <g id="Grupo_98228" data-name="Grupo 98228">
                  <path id="Trazado_131671" data-name="Trazado 131671" d="M525.01,166.318c-.043.155-.39.194-.782.241s-.74.079-.816-.063.238-.451.752-.507S525.057,166.17,525.01,166.318Z" transform="translate(-523.401 -165.98)" fill="#263238"/>
                </g>
              </g>
              <g id="Grupo_98231" data-name="Grupo 98231" transform="translate(13.311 9.948)">
                <path id="Trazado_131672" data-name="Trazado 131672" d="M534.315,166.861a3.031,3.031,0,0,1,2.255.124" transform="translate(-534.309 -166.415)" fill="#bf7a62"/>
                <g id="Grupo_98230" data-name="Grupo 98230">
                  <path id="Trazado_131673" data-name="Trazado 131673" d="M536.566,166.753c-.076.144-.557.033-1.131.007s-1.064.021-1.124-.131.44-.484,1.155-.443S536.646,166.621,536.566,166.753Z" transform="translate(-534.305 -166.183)" fill="#263238"/>
                </g>
              </g>
              <path id="Trazado_131674" data-name="Trazado 131674" d="M529.83,149.356a3.423,3.423,0,0,0-2.449-1.171,8.043,8.043,0,0,0-7.335,3.323c-.945,1.355-1.42,3.246-.538,4.642a2.889,2.889,0,0,0,5.213-.726,2.413,2.413,0,1,0,4.819-.217,4.385,4.385,0,0,0,1.533,2.2,1.7,1.7,0,0,0,2.372-.451c.483.574,1.164,1.16,1.893.981a1.473,1.473,0,0,0,.985-1.478,3.781,3.781,0,0,0-.626-1.79c-1.414-2.46-3.5-4.72-6.236-5.466" transform="translate(-514.145 -148.14)" fill="#455a64"/>
              <path id="Trazado_131675" data-name="Trazado 131675" d="M543.561,158.917a7.7,7.7,0,0,1,.058,7.45,12.552,12.552,0,0,0-1.174,2.162,2.043,2.043,0,0,0,.5,2.254c.4.3,1.019.453,1.115.947a1.359,1.359,0,0,1-.152.724,4.9,4.9,0,0,0-.13,3.107,2.682,2.682,0,0,0,1.831,2.224,3.236,3.236,0,0,0,2.955.519c3.022-.777,1.955-7.527,1.673-10.634s-1.729-8.641-3.473-11.229" transform="translate(-524.589 -151.864)" fill="#455a64"/>
            </g>
            <path id="Trazado_131676" data-name="Trazado 131676" d="M530.6,197.7s-3.132,11.692-1.136,10.534,11.684-8.857,11.684-8.857l-4.9-3.7Z" transform="translate(-518.526 -169.468)" fill="#d89377"/>
          </g>
        </g>
        <g id="Grupo_98235" data-name="Grupo 98235" transform="translate(0 40.559)">
          <path id="Trazado_131677" data-name="Trazado 131677" d="M475.252,229.515c-.347-1.144-4.68-3.505-4.024-4.142.854-.829,4.411,2.669,4.733,2.942s.717-.194.412-.424c-.437-.332-4.939-3.933-4.108-4.756.46-.456,1.186.472,1.186.472s3.972,3.687,4.352,3.284-1.877-2.652-2.691-3.355-.812-1.367-.218-1.476c.405-.074,2.949,2.015,3.738,2.728s2.923,2.709,2.647.851c0-.029-.005-.056-.009-.085-.32-1.822.036-3.332.437-3.7a.64.64,0,0,1,1.03.51.651.651,0,0,1-.014.269c-.011.039-.016.094-.024.138a9.214,9.214,0,0,0,.12,1.891,5.007,5.007,0,0,0,.52,1.611c.307.581.593,1.07.845,1.474,2.9,1.609,11.233,5.854,19.591,6.521,1.509.12,8.177-10.4,8.177-10.4l9.907,4.687a96.5,96.5,0,0,1-7.9,12.456c-8.363,11.365-34.509-7.575-34.509-7.575h0l-.245-.121a60.776,60.776,0,0,1-5.778-3.262c-2.248-1.589-2.113-1.8-1.889-2.033C472.142,227.383,475.6,230.659,475.252,229.515Z" transform="translate(-471.161 -221.707)" fill="#d89377"/>
        </g>
      </g>
    </g>
    <g id="Character_1" data-name="Character 1" transform="translate(66.54 85.767)">
      <g id="Grupo_98407" data-name="Grupo 98407" transform="translate(0 0)">
        <g id="Grupo_98349" data-name="Grupo 98349" transform="translate(0 79.368)">
          <g id="Grupo_98286" data-name="Grupo 98286" transform="translate(49.03 94.237)">
            <g id="Grupo_98285" data-name="Grupo 98285">
              <g id="Grupo_98239" data-name="Grupo 98239" transform="translate(0.114)">
                <g id="Grupo_98238" data-name="Grupo 98238">
                  <g id="Grupo_98237" data-name="Grupo 98237">
                    <path id="Trazado_131678" data-name="Trazado 131678" d="M198.672,451.991l-.053-4.524-8.474.045.007,6.619.526.031c2.339.117,11.9.433,13.462-.049C205.88,453.575,198.672,451.991,198.672,451.991Z" transform="translate(-190.145 -447.467)" fill="#455a64"/>
                  </g>
                </g>
              </g>
              <g id="Grupo_98242" data-name="Grupo 98242" transform="translate(0 6.409)">
                <g id="Grupo_98241" data-name="Grupo 98241">
                  <g id="Grupo_98240" data-name="Grupo 98240">
                    <path id="Trazado_131679" data-name="Trazado 131679" d="M189.939,459.152a.783.783,0,0,0,.146.015l.418.024,1.54.059c1.3.041,3.1.073,5.086.066s3.785-.054,5.085-.1l1.54-.071.418-.026a.87.87,0,0,0,.146-.017.8.8,0,0,0-.146,0l-.42.007-1.54.039c-1.3.033-3.1.067-5.084.075s-3.783-.013-5.084-.036l-1.54-.026-.42,0A.724.724,0,0,0,189.939,459.152Z" transform="translate(-189.939 -459.092)" fill="#263238"/>
                  </g>
                </g>
              </g>
              <g id="Grupo_98245" data-name="Grupo 98245" transform="translate(11.402 5.318)">
                <g id="Grupo_98244" data-name="Grupo 98244">
                  <g id="Grupo_98243" data-name="Grupo 98243">
                    <path id="Trazado_131680" data-name="Trazado 131680" d="M210.635,458.445a3.444,3.444,0,0,1,.284-.737,3.489,3.489,0,0,1,.523-.592,1.368,1.368,0,0,0-.807,1.329Z" transform="translate(-210.62 -457.113)" fill="#263238"/>
                  </g>
                </g>
              </g>
              <g id="Grupo_98248" data-name="Grupo 98248" transform="translate(8.907 4.684)">
                <g id="Grupo_98247" data-name="Grupo 98247">
                  <g id="Grupo_98246" data-name="Grupo 98246">
                    <path id="Trazado_131681" data-name="Trazado 131681" d="M206.1,456.672c.024.015.143-.131.266-.326s.2-.366.179-.381-.143.131-.266.326S206.074,456.657,206.1,456.672Z" transform="translate(-206.094 -455.963)" fill="#263238"/>
                  </g>
                </g>
              </g>
              <g id="Grupo_98251" data-name="Grupo 98251" transform="translate(8.221 4.553)">
                <g id="Grupo_98250" data-name="Grupo 98250">
                  <g id="Grupo_98249" data-name="Grupo 98249">
                    <path id="Trazado_131682" data-name="Trazado 131682" d="M204.852,456.205c.019.021.153-.069.3-.2s.248-.256.229-.277-.152.069-.3.2S204.833,456.184,204.852,456.205Z" transform="translate(-204.85 -455.725)" fill="#263238"/>
                  </g>
                </g>
              </g>
              <g id="Grupo_98254" data-name="Grupo 98254" transform="translate(7.786 4.187)">
                <g id="Grupo_98253" data-name="Grupo 98253">
                  <g id="Grupo_98252" data-name="Grupo 98252">
                    <path id="Trazado_131683" data-name="Trazado 131683" d="M204.061,455.109a1.937,1.937,0,1,0,.443-.049A1,1,0,0,0,204.061,455.109Z" transform="translate(-204.061 -455.061)" fill="#263238"/>
                  </g>
                </g>
              </g>
              <g id="Grupo_98257" data-name="Grupo 98257" transform="translate(7.634 3.663)">
                <g id="Grupo_98256" data-name="Grupo 98256">
                  <g id="Grupo_98255" data-name="Grupo 98255">
                    <path id="Trazado_131684" data-name="Trazado 131684" d="M203.786,454.12a1.247,1.247,0,0,0,1,.071,2.649,2.649,0,0,0-.5-.033A2.744,2.744,0,0,0,203.786,454.12Z" transform="translate(-203.785 -454.111)" fill="#263238"/>
                  </g>
                </g>
              </g>
              <g id="Grupo_98260" data-name="Grupo 98260" transform="translate(9.195 3.885)">
                <g id="Grupo_98259" data-name="Grupo 98259">
                  <g id="Grupo_98258" data-name="Grupo 98258">
                    <path id="Trazado_131685" data-name="Trazado 131685" d="M206.617,455.281a1.578,1.578,0,0,0,.545-.006,3.2,3.2,0,0,0,.579-.131,1.584,1.584,0,0,0,.331-.138.3.3,0,0,0,.134-.17.215.215,0,0,0-.084-.218,1,1,0,0,0-1.233.3.971.971,0,0,0-.176.364.3.3,0,0,0-.014.147,1.545,1.545,0,0,1,.246-.466.984.984,0,0,1,.464-.3.843.843,0,0,1,.649.041c.087.063.053.165-.042.223a1.639,1.639,0,0,1-.305.132,3.779,3.779,0,0,1-.56.148C206.824,455.263,206.617,455.264,206.617,455.281Z" transform="translate(-206.617 -454.514)" fill="#263238"/>
                  </g>
                </g>
              </g>
              <g id="Grupo_98263" data-name="Grupo 98263" transform="translate(8.621 3.627)">
                <g id="Grupo_98262" data-name="Grupo 98262">
                  <g id="Grupo_98261" data-name="Grupo 98261">
                    <path id="Trazado_131686" data-name="Trazado 131686" d="M206.291,455.1a.535.535,0,0,0,.061-.378.89.89,0,0,0-.15-.4.547.547,0,0,0-.455-.276.217.217,0,0,0-.167.253.591.591,0,0,0,.094.243,1.66,1.66,0,0,0,.259.329.788.788,0,0,0,.313.219c.009-.013-.109-.1-.26-.269a1.934,1.934,0,0,1-.23-.326c-.075-.115-.127-.321.009-.346s.276.121.359.229a.892.892,0,0,1,.156.353A1.994,1.994,0,0,1,206.291,455.1Z" transform="translate(-205.577 -454.045)" fill="#263238"/>
                  </g>
                </g>
              </g>
              <g id="Grupo_98266" data-name="Grupo 98266" transform="translate(0.162 4.091)">
                <g id="Grupo_98265" data-name="Grupo 98265">
                  <g id="Grupo_98264" data-name="Grupo 98264">
                    <path id="Trazado_131687" data-name="Trazado 131687" d="M190.233,454.946c0,.019.243-.024.626.019a2.654,2.654,0,0,1,2.228,1.759c.131.363.144.606.164.6a.5.5,0,0,0,0-.171,2.227,2.227,0,0,0-.095-.457,2.575,2.575,0,0,0-2.29-1.808,2.227,2.227,0,0,0-.466.014A.49.49,0,0,0,190.233,454.946Z" transform="translate(-190.233 -454.887)" fill="#263238"/>
                  </g>
                </g>
              </g>
              <g id="Grupo_98269" data-name="Grupo 98269" transform="translate(0.957 0.619)">
                <g id="Grupo_98268" data-name="Grupo 98268">
                  <g id="Grupo_98267" data-name="Grupo 98267">
                    <path id="Trazado_131688" data-name="Trazado 131688" d="M191.742,448.59a29.427,29.427,0,0,0-.028,3.483,29.753,29.753,0,0,0,.028-3.483Z" transform="translate(-191.675 -448.59)" fill="#263238"/>
                  </g>
                </g>
              </g>
              <g id="Grupo_98272" data-name="Grupo 98272" transform="translate(4.255 5.739)">
                <g id="Grupo_98271" data-name="Grupo 98271">
                  <g id="Grupo_98270" data-name="Grupo 98270">
                    <path id="Trazado_131689" data-name="Trazado 131689" d="M197.657,457.887a6.958,6.958,0,0,0,2.477.012c0-.03-.556.007-1.238,0S197.66,457.858,197.657,457.887Z" transform="translate(-197.657 -457.877)" fill="#263238"/>
                  </g>
                </g>
              </g>
              <g id="Grupo_98275" data-name="Grupo 98275" transform="translate(2.59 5.751)">
                <g id="Grupo_98274" data-name="Grupo 98274">
                  <g id="Grupo_98273" data-name="Grupo 98273">
                    <path id="Trazado_131690" data-name="Trazado 131690" d="M194.641,457.9c-.02.021.046.117.1.244s.089.239.118.237.043-.134-.025-.28S194.659,457.882,194.641,457.9Z" transform="translate(-194.637 -457.899)" fill="#263238"/>
                  </g>
                </g>
              </g>
              <g id="Grupo_98278" data-name="Grupo 98278" transform="translate(1.961 4.974)">
                <g id="Grupo_98277" data-name="Grupo 98277">
                  <g id="Grupo_98276" data-name="Grupo 98276">
                    <path id="Trazado_131691" data-name="Trazado 131691" d="M193.5,456.494c-.02.02.035.108.123.2s.176.144.2.123-.035-.108-.123-.2S193.519,456.474,193.5,456.494Z" transform="translate(-193.495 -456.49)" fill="#263238"/>
                  </g>
                </g>
              </g>
              <g id="Grupo_98281" data-name="Grupo 98281" transform="translate(1.067 4.578)">
                <g id="Grupo_98280" data-name="Grupo 98280">
                  <g id="Grupo_98279" data-name="Grupo 98279">
                    <path id="Trazado_131692" data-name="Trazado 131692" d="M191.875,455.819c.006.029.119.027.243.071s.215.109.237.09-.049-.136-.2-.187S191.866,455.793,191.875,455.819Z" transform="translate(-191.874 -455.77)" fill="#263238"/>
                  </g>
                </g>
              </g>
              <g id="Grupo_98284" data-name="Grupo 98284" transform="translate(0.428 4.442)">
                <g id="Grupo_98283" data-name="Grupo 98283">
                  <g id="Grupo_98282" data-name="Grupo 98282">
                    <path id="Trazado_131693" data-name="Trazado 131693" d="M190.716,455.544c-.01.026.039.07.109.1s.136.028.146,0-.039-.07-.109-.1S190.726,455.518,190.716,455.544Z" transform="translate(-190.715 -455.525)" fill="#263238"/>
                  </g>
                </g>
              </g>
            </g>
          </g>
          <g id="Grupo_98336" data-name="Grupo 98336" transform="translate(0 83.867)">
            <g id="Grupo_98335" data-name="Grupo 98335">
              <g id="Grupo_98289" data-name="Grupo 98289">
                <g id="Grupo_98288" data-name="Grupo 98288">
                  <g id="Grupo_98287" data-name="Grupo 98287">
                    <path id="Trazado_131694" data-name="Trazado 131694" d="M109.335,437.026l2.394-3.839-7.162-4.53-3.562,5.579.426.309c1.906,1.36,9.791,6.779,11.365,7.214C114.554,442.245,109.335,437.026,109.335,437.026Z" transform="translate(-101.006 -428.658)" fill="#455a64"/>
                  </g>
                </g>
              </g>
              <g id="Grupo_98292" data-name="Grupo 98292" transform="translate(0.003 5.35)">
                <g id="Grupo_98291" data-name="Grupo 98291">
                  <g id="Grupo_98290" data-name="Grupo 98290">
                    <path id="Trazado_131695" data-name="Trazado 131695" d="M101.012,438.362a.721.721,0,0,0,.114.092l.34.245,1.266.88c1.074.735,2.571,1.732,4.248,2.8s3.217,1.994,4.341,2.652l1.336.77.367.2a.073.073,0,1,0,.01-.018l-.357-.22-1.318-.8c-1.113-.674-2.646-1.613-4.323-2.677s-3.178-2.05-4.262-2.77l-1.284-.853-.351-.229A.882.882,0,0,0,101.012,438.362Z" transform="translate(-101.012 -438.362)" fill="#263238"/>
                  </g>
                </g>
              </g>
              <g id="Grupo_98295" data-name="Grupo 98295" transform="translate(9.521 10.944)">
                <g id="Grupo_98294" data-name="Grupo 98294">
                  <g id="Grupo_98293" data-name="Grupo 98293">
                    <path id="Trazado_131696" data-name="Trazado 131696" d="M118.277,449.22a2.242,2.242,0,0,1,1.4-.684,1.368,1.368,0,0,0-1.4.684Z" transform="translate(-118.275 -448.509)" fill="#263238"/>
                  </g>
                </g>
              </g>
              <g id="Grupo_98298" data-name="Grupo 98298" transform="translate(8.089 8.884)">
                <g id="Grupo_98297" data-name="Grupo 98297">
                  <g id="Grupo_98296" data-name="Grupo 98296">
                    <path id="Trazado_131697" data-name="Trazado 131697" d="M115.678,445.134c.012.025.191-.034.4-.132s.368-.2.356-.225a.906.906,0,0,0-.4.132C115.826,445.008,115.666,445.108,115.678,445.134Z" transform="translate(-115.678 -444.771)" fill="#263238"/>
                  </g>
                </g>
              </g>
              <g id="Grupo_98301" data-name="Grupo 98301" transform="translate(7.703 8.435)">
                <g id="Grupo_98300" data-name="Grupo 98300">
                  <g id="Grupo_98299" data-name="Grupo 98299">
                    <path id="Trazado_131698" data-name="Trazado 131698" d="M114.979,444.1c0,.028.166.024.359-.009s.346-.082.342-.11-.165-.024-.359.008S114.975,444.067,114.979,444.1Z" transform="translate(-114.979 -443.958)" fill="#263238"/>
                  </g>
                </g>
              </g>
              <g id="Grupo_98304" data-name="Grupo 98304" transform="translate(7.764 7.661)">
                <g id="Grupo_98303" data-name="Grupo 98303">
                  <g id="Grupo_98302" data-name="Grupo 98302">
                    <path id="Trazado_131699" data-name="Trazado 131699" d="M115.09,442.557c-.015.024.138.151.343.285s.384.222.4.2-.138-.151-.343-.284S115.106,442.533,115.09,442.557Z" transform="translate(-115.089 -442.553)" fill="#263238"/>
                  </g>
                </g>
              </g>
              <g id="Grupo_98307" data-name="Grupo 98307" transform="translate(7.939 7.107)">
                <g id="Grupo_98306" data-name="Grupo 98306">
                  <g id="Grupo_98305" data-name="Grupo 98305">
                    <path id="Trazado_131700" data-name="Trazado 131700" d="M115.408,441.55c-.022.017.109.214.34.385a.859.859,0,0,0,.467.215c.012-.027-.187-.133-.406-.3S115.431,441.531,115.408,441.55Z" transform="translate(-115.406 -441.548)" fill="#263238"/>
                  </g>
                </g>
              </g>
              <g id="Grupo_98310" data-name="Grupo 98310" transform="translate(8.717 8.554)">
                <g id="Grupo_98309" data-name="Grupo 98309">
                  <g id="Grupo_98308" data-name="Grupo 98308">
                    <path id="Trazado_131701" data-name="Trazado 131701" d="M116.828,444.4a1.565,1.565,0,0,0,.462.288,3.159,3.159,0,0,0,.558.2,1.588,1.588,0,0,0,.353.062.293.293,0,0,0,.2-.071.214.214,0,0,0,.047-.228,1,1,0,0,0-1.2-.414.981.981,0,0,0-.345.212c-.068.067-.1.112-.09.117a1.524,1.524,0,0,1,.458-.26.986.986,0,0,1,.555-.006.844.844,0,0,1,.524.384c.039.1-.044.168-.156.165a1.606,1.606,0,0,1-.329-.053,3.8,3.8,0,0,1-.552-.176C117.013,444.492,116.837,444.381,116.828,444.4Z" transform="translate(-116.818 -444.174)" fill="#263238"/>
                  </g>
                </g>
              </g>
              <g id="Grupo_98313" data-name="Grupo 98313" transform="translate(8.611 7.678)">
                <g id="Grupo_98312" data-name="Grupo 98312">
                  <g id="Grupo_98311" data-name="Grupo 98311">
                    <path id="Trazado_131702" data-name="Trazado 131702" d="M116.847,443.781c0,.009.146-.065.255-.286a.9.9,0,0,0,.087-.416.547.547,0,0,0-.234-.477.217.217,0,0,0-.276.123.59.59,0,0,0-.052.255,1.641,1.641,0,0,0,.041.416.782.782,0,0,0,.145.353c.015-.006-.039-.141-.074-.367a1.883,1.883,0,0,1-.018-.4c0-.137.066-.339.194-.287s.168.251.18.387a.9.9,0,0,1-.06.382A2,2,0,0,1,116.847,443.781Z" transform="translate(-116.626 -442.586)" fill="#263238"/>
                  </g>
                </g>
              </g>
              <g id="Grupo_98316" data-name="Grupo 98316" transform="translate(1.39 3.483)">
                <g id="Grupo_98315" data-name="Grupo 98315">
                  <g id="Grupo_98314" data-name="Grupo 98314">
                    <path id="Trazado_131703" data-name="Trazado 131703" d="M103.527,434.976c-.009.017.217.11.517.353a2.655,2.655,0,0,1,.928,2.683c-.085.376-.205.589-.187.6a.489.489,0,0,0,.092-.144,2.21,2.21,0,0,0,.166-.436,2.576,2.576,0,0,0-.954-2.757,2.262,2.262,0,0,0-.4-.239A.491.491,0,0,0,103.527,434.976Z" transform="translate(-103.527 -434.975)" fill="#263238"/>
                  </g>
                </g>
              </g>
              <g id="Grupo_98319" data-name="Grupo 98319" transform="translate(2.117 0.974)">
                <g id="Grupo_98318" data-name="Grupo 98318">
                  <g id="Grupo_98317" data-name="Grupo 98317">
                    <path id="Trazado_131704" data-name="Trazado 131704" d="M106.748,430.426a29.66,29.66,0,0,0-1.9,2.919,29.577,29.577,0,0,0,1.9-2.919Z" transform="translate(-104.846 -430.426)" fill="#263238"/>
                  </g>
                </g>
              </g>
              <g id="Grupo_98322" data-name="Grupo 98322" transform="translate(3.974 7.036)">
                <g id="Grupo_98321" data-name="Grupo 98321">
                  <g id="Grupo_98320" data-name="Grupo 98320">
                    <path id="Trazado_131705" data-name="Trazado 131705" d="M108.216,441.422a6.984,6.984,0,0,0,2.08,1.345c.014-.026-.472-.294-1.044-.665S108.234,441.4,108.216,441.422Z" transform="translate(-108.215 -441.421)" fill="#263238"/>
                  </g>
                </g>
              </g>
              <g id="Grupo_98325" data-name="Grupo 98325" transform="translate(2.491 6.146)">
                <g id="Grupo_98324" data-name="Grupo 98324">
                  <g id="Grupo_98323" data-name="Grupo 98323">
                    <path id="Trazado_131706" data-name="Trazado 131706" d="M105.607,439.807c-.029.007-.024.123-.045.261s-.055.249-.029.263.109-.089.13-.249S105.633,439.8,105.607,439.807Z" transform="translate(-105.525 -439.806)" fill="#263238"/>
                  </g>
                </g>
              </g>
              <g id="Grupo_98328" data-name="Grupo 98328" transform="translate(2.44 5.153)">
                <g id="Grupo_98327" data-name="Grupo 98327">
                  <g id="Grupo_98326" data-name="Grupo 98326">
                    <path id="Trazado_131707" data-name="Trazado 131707" d="M105.453,438.006c-.028.006-.029.11,0,.232s.07.216.1.21.029-.11,0-.232S105.481,438,105.453,438.006Z" transform="translate(-105.432 -438.005)" fill="#263238"/>
                  </g>
                </g>
              </g>
              <g id="Grupo_98331" data-name="Grupo 98331" transform="translate(1.895 4.364)">
                <g id="Grupo_98330" data-name="Grupo 98330">
                  <g id="Grupo_98329" data-name="Grupo 98329">
                    <path id="Trazado_131708" data-name="Trazado 131708" d="M104.443,436.583c-.01.028.085.087.167.191s.122.207.151.2.031-.141-.072-.267S104.45,436.557,104.443,436.583Z" transform="translate(-104.443 -436.574)" fill="#263238"/>
                  </g>
                </g>
              </g>
              <g id="Grupo_98334" data-name="Grupo 98334" transform="translate(1.437 3.887)">
                <g id="Grupo_98333" data-name="Grupo 98333">
                  <g id="Grupo_98332" data-name="Grupo 98332">
                    <path id="Trazado_131709" data-name="Trazado 131709" d="M103.622,435.712c-.023.017,0,.08.04.141s.1.1.122.079,0-.079-.04-.14S103.644,435.7,103.622,435.712Z" transform="translate(-103.612 -435.708)" fill="#263238"/>
                  </g>
                </g>
              </g>
            </g>
          </g>
          <g id="Grupo_98346" data-name="Grupo 98346" transform="translate(0.31)">
            <g id="Grupo_98343" data-name="Grupo 98343">
              <g id="Grupo_98339" data-name="Grupo 98339" transform="translate(0 0.654)">
                <g id="Grupo_98338" data-name="Grupo 98338">
                  <g id="Grupo_98337" data-name="Grupo 98337">
                    <path id="Trazado_131710" data-name="Trazado 131710" d="M142.409,281.565s7.19,47.768,6.144,50.077-34.613,39.224-34.613,39.224l-12.371-8.2s29.321-36.916,29.1-37.8-11.111-47.144-11.111-47.144Z" transform="translate(-101.569 -277.723)" fill="#fd963d"/>
                  </g>
                </g>
              </g>
              <g id="Grupo_98342" data-name="Grupo 98342" transform="translate(12.872)">
                <g id="Grupo_98341" data-name="Grupo 98341">
                  <g id="Grupo_98340" data-name="Grupo 98340">
                    <path id="Trazado_131711" data-name="Trazado 131711" d="M125.951,276.536l-.434,1.773a20.865,20.865,0,0,0,2.193,15.394l19.5,33.795a27.151,27.151,0,0,1,2.988,7.682l8.8,39.034h13.58c0,.813-3.514-32.155-5.273-43.1-1.328-8.258-12.379-33.892-17.733-46l3.317-4.081-5.762-.962Z" transform="translate(-124.917 -276.536)" fill="#fd963d"/>
                  </g>
                </g>
              </g>
            </g>
            <g id="Grupo_98344" data-name="Grupo 98344" transform="translate(37.942 8.485)">
              <path id="Trazado_131712" data-name="Trazado 131712" d="M170.393,291.926a2.511,2.511,0,0,1,.3.538c.177.353.421.87.712,1.514.584,1.286,1.35,3.082,2.132,5.091s1.429,3.852,1.868,5.2c.219.671.389,1.217.5,1.6a2.556,2.556,0,0,1,.141.6,2.538,2.538,0,0,1-.248-.563l-.583-1.566c-.487-1.324-1.164-3.151-1.943-5.158s-1.516-3.81-2.051-5.115l-.628-1.549A2.568,2.568,0,0,1,170.393,291.926Z" transform="translate(-170.39 -291.926)" fill="#263238"/>
            </g>
            <g id="Grupo_98345" data-name="Grupo 98345" transform="translate(23.521 30.787)">
              <path id="Trazado_131713" data-name="Trazado 131713" d="M160.26,366.735a1.945,1.945,0,0,1-.088-.38l-.2-1.1q-.061-.362-.135-.793-.1-.434-.208-.935c-.151-.67-.3-1.437-.548-2.266l-.356-1.309-.446-1.4c-.29-.974-.693-1.984-1.078-3.059-.837-2.126-1.856-4.425-3.045-6.78a127.587,127.587,0,0,0-6.852-11.648l-2.262-3.419-.614-.932a1.981,1.981,0,0,1-.2-.336,2.04,2.04,0,0,1,.245.3l.657.9c.567.786,1.372,1.934,2.34,3.371a112.742,112.742,0,0,1,6.938,11.631c1.194,2.363,2.209,4.675,3.036,6.815.38,1.083.776,2.1,1.058,3.081l.432,1.411.34,1.32c.232.836.373,1.609.508,2.285l.185.942q.06.434.111.8c.06.458.107.825.144,1.107A1.966,1.966,0,0,1,160.26,366.735Z" transform="translate(-144.233 -332.379)" fill="#263238"/>
            </g>
          </g>
          <g id="Grupo_98347" data-name="Grupo 98347" transform="translate(1.812 83.698)">
            <path id="Trazado_131714" data-name="Trazado 131714" d="M116.976,436.475a2.378,2.378,0,0,1-.566-.186,13.754,13.754,0,0,1-1.475-.679,34.2,34.2,0,0,1-4.484-2.915c-1.673-1.247-3.176-2.379-4.312-3.132s-1.869-1.168-1.847-1.21a2.353,2.353,0,0,1,.546.24c.345.167.827.442,1.411.8,1.171.713,2.7,1.827,4.372,3.071a44.218,44.218,0,0,0,4.411,2.968C116.215,436.1,117,436.427,116.976,436.475Z" transform="translate(-104.292 -428.35)" fill="#263238"/>
          </g>
          <g id="Grupo_98348" data-name="Grupo 98348" transform="translate(46.488 95.345)">
            <path id="Trazado_131715" data-name="Trazado 131715" d="M199.648,449.785a2.141,2.141,0,0,1-.565.032l-1.535-.011-5.06-.042-5.061.031-1.535.007a.284.284,0,1,1,0-.111c.362-.033.885-.066,1.533-.1,1.3-.066,3.087-.118,5.067-.116s3.771.058,5.067.127c.648.034,1.172.069,1.533.1A2.137,2.137,0,0,1,199.648,449.785Z" transform="translate(-185.328 -449.476)" fill="#263238"/>
          </g>
        </g>
        <g id="Grupo_98378" data-name="Grupo 98378" transform="translate(16.673 8.562)">
          <path id="Trazado_131716" data-name="Trazado 131716" d="M137.737,170.15a6.189,6.189,0,0,1-3.492-.527,3.285,3.285,0,0,1-1.84-2.858,10.782,10.782,0,0,0,.21-2.077,6.6,6.6,0,0,0-.958-1.861,3.861,3.861,0,0,1,1.036-4.728,14.463,14.463,0,0,0,2.25-1.515c.717-.8.831-1.958,1.269-2.94a4.758,4.758,0,0,1,3.541-2.714,15.166,15.166,0,0,0,2.54-.31,8.71,8.71,0,0,0,1.879-1.119,8.7,8.7,0,0,1,6.481-1.215,5.2,5.2,0,0,1,2.628,1.293,6.864,6.864,0,0,1,2.088,2.7,8.625,8.625,0,0,1-.415,4.117,3.382,3.382,0,0,1-2.655,2.574" transform="translate(-131.248 -148.106)" fill="#263238"/>
          <g id="Grupo_98368" data-name="Grupo 98368" transform="translate(4.018 5.585)">
            <g id="Grupo_98365" data-name="Grupo 98365">
              <g id="Grupo_98358" data-name="Grupo 98358" transform="translate(2.191)">
                <g id="Grupo_98357" data-name="Grupo 98357">
                  <g id="Grupo_98351" data-name="Grupo 98351">
                    <g id="Grupo_98350" data-name="Grupo 98350">
                      <path id="Trazado_131717" data-name="Trazado 131717" d="M142.512,184.445l10.353.147c.177-1.194.528-5.843.528-5.843s4.338-.262,4.794-4.532.638-14.156.638-14.156h0a14.924,14.924,0,0,0-15.106.471l-.679.428Z" transform="translate(-142.512 -158.236)" fill="#ffbe9d"/>
                    </g>
                  </g>
                  <g id="Grupo_98354" data-name="Grupo 98354" transform="translate(11.226 8.046)">
                    <g id="Grupo_98353" data-name="Grupo 98353">
                      <g id="Grupo_98352" data-name="Grupo 98352">
                        <path id="Trazado_131718" data-name="Trazado 131718" d="M162.874,177.981a2.861,2.861,0,0,1,.971-.112c.155,0,.28-.026.3-.108a.841.841,0,0,0-.069-.452l-.353-1.24a16.466,16.466,0,0,1-.712-3.24,16.431,16.431,0,0,1,1.036,3.151l.327,1.248a.985.985,0,0,1,.024.648.407.407,0,0,1-.289.221,1.013,1.013,0,0,1-.266.009A2.872,2.872,0,0,1,162.874,177.981Z" transform="translate(-162.874 -172.829)" fill="#263238"/>
                      </g>
                    </g>
                  </g>
                  <g id="Grupo_98356" data-name="Grupo 98356" transform="translate(5.47 18.344)">
                    <g id="Grupo_98355" data-name="Grupo 98355">
                      <path id="Trazado_131719" data-name="Trazado 131719" d="M157.858,193.616a9.987,9.987,0,0,1-5.424-2.108s1.028,3.2,5.33,3.217Z" transform="translate(-152.434 -191.508)" fill="#eb996e"/>
                    </g>
                  </g>
                </g>
              </g>
              <g id="Grupo_98364" data-name="Grupo 98364" transform="translate(0 7.178)">
                <g id="Grupo_98360" data-name="Grupo 98360">
                  <g id="Grupo_98359" data-name="Grupo 98359">
                    <path id="Trazado_131720" data-name="Trazado 131720" d="M141.31,171.3c-.085-.035-2.927-.5-2.766,2.881s3.52,2.1,3.521,2S141.31,171.3,141.31,171.3Z" transform="translate(-138.537 -171.255)" fill="#ffbe9d"/>
                  </g>
                </g>
                <g id="Grupo_98363" data-name="Grupo 98363" transform="translate(0.865 1.143)">
                  <g id="Grupo_98362" data-name="Grupo 98362">
                    <g id="Grupo_98361" data-name="Grupo 98361">
                      <path id="Trazado_131721" data-name="Trazado 131721" d="M141.678,175.971c-.015-.01-.057.044-.154.094a.59.59,0,0,1-.439.03,1.458,1.458,0,0,1-.736-1.275,1.938,1.938,0,0,1,.125-.851.678.678,0,0,1,.421-.472.3.3,0,0,1,.355.144c.05.093.031.161.05.166s.069-.06.036-.2a.377.377,0,0,0-.143-.205.443.443,0,0,0-.33-.071.828.828,0,0,0-.59.553,2,2,0,0,0-.159.952,1.529,1.529,0,0,0,.928,1.418.632.632,0,0,0,.534-.115C141.675,176.053,141.689,175.977,141.678,175.971Z" transform="translate(-140.107 -173.328)" fill="#eb996e"/>
                    </g>
                  </g>
                </g>
              </g>
            </g>
            <g id="Grupo_98366" data-name="Grupo 98366" transform="translate(9.564 6.388)">
              <path id="Trazado_131722" data-name="Trazado 131722" d="M155.9,170.57c-.046-.06.034-.221.253-.389a1.978,1.978,0,0,1,2.038-.14c.24.137.341.284.3.35-.085.14-.633-.047-1.3.009C156.517,170.437,156,170.7,155.9,170.57Z" transform="translate(-155.884 -169.823)" fill="#263238"/>
            </g>
            <g id="Grupo_98367" data-name="Grupo 98367" transform="translate(15.568 6.805)">
              <path id="Trazado_131723" data-name="Trazado 131723" d="M166.776,170.946c-.03-.154.433-.369,1.04-.367s1.069.219,1.039.373-.492.2-1.04.2S166.8,171.1,166.776,170.946Z" transform="translate(-166.775 -170.579)" fill="#263238"/>
            </g>
          </g>
          <path id="Trazado_131724" data-name="Trazado 131724" d="M141.625,159.639l.481,3.117a2.6,2.6,0,0,0,.494,1.376,1.853,1.853,0,0,0,2.259.144,5.4,5.4,0,0,0,2.033-2.862,8.831,8.831,0,0,1,1.661-3.14,4.115,4.115,0,0,0,4.747.875c.689-.347,1.263-.884,1.924-1.28a2.522,2.522,0,0,1,2.2-.353c.391.162.742.483,1.164.464a.941.941,0,0,0,.759-.522,1.612,1.612,0,0,0,.139-.939,3.691,3.691,0,0,0-2.2-2.672,11.41,11.41,0,0,0-5.031-.863,19.02,19.02,0,0,0-4.852.48,8.386,8.386,0,0,0-4.18,2.4,5.42,5.42,0,0,0-1.385,4.511" transform="translate(-135.904 -150.294)" fill="#263238"/>
          <path id="Trazado_131725" data-name="Trazado 131725" d="M165.816,157.435a5.111,5.111,0,0,0,1.626,2.823,2.187,2.187,0,0,0,1.431.641,1.774,1.774,0,0,0,1.56-1.771,3.38,3.38,0,0,0-1.057-2.309,3.205,3.205,0,0,0-2.151-1.135,1.642,1.642,0,0,0-1.72,1.442" transform="translate(-146.619 -151.506)" fill="#263238"/>
          <g id="Grupo_98372" data-name="Grupo 98372" transform="translate(13.318 13.139)">
            <g id="Grupo_98369" data-name="Grupo 98369" transform="translate(0.899 0.679)">
              <path id="Trazado_131726" data-name="Trazado 131726" d="M157.037,173.671a.542.542,0,0,0,.533.536.518.518,0,0,0,.549-.5.542.542,0,0,0-.533-.536A.519.519,0,0,0,157.037,173.671Z" transform="translate(-157.037 -173.17)" fill="#263238"/>
            </g>
            <g id="Grupo_98371" data-name="Grupo 98371">
              <g id="Grupo_98370" data-name="Grupo 98370">
                <path id="Trazado_131727" data-name="Trazado 131727" d="M155.415,172.529c.068.069.473-.243,1.056-.253s1.016.273,1.077.2c.03-.032-.04-.158-.229-.29a1.489,1.489,0,0,0-.864-.248,1.425,1.425,0,0,0-.839.289C155.439,172.369,155.381,172.5,155.415,172.529Z" transform="translate(-155.405 -171.938)" fill="#263238"/>
              </g>
            </g>
          </g>
          <g id="Grupo_98376" data-name="Grupo 98376" transform="translate(19.404 13.228)">
            <g id="Grupo_98373" data-name="Grupo 98373" transform="translate(0.782 0.573)">
              <path id="Trazado_131728" data-name="Trazado 131728" d="M167.863,173.639a.542.542,0,0,0,.533.536.518.518,0,0,0,.549-.5.542.542,0,0,0-.533-.536A.519.519,0,0,0,167.863,173.639Z" transform="translate(-167.863 -173.138)" fill="#263238"/>
            </g>
            <g id="Grupo_98375" data-name="Grupo 98375">
              <g id="Grupo_98374" data-name="Grupo 98374">
                <path id="Trazado_131729" data-name="Trazado 131729" d="M166.453,172.69c.069.069.474-.243,1.056-.252s1.016.272,1.078.2c.03-.032-.04-.158-.23-.29a1.486,1.486,0,0,0-.864-.248,1.429,1.429,0,0,0-.839.289C166.477,172.53,166.419,172.659,166.453,172.69Z" transform="translate(-166.444 -172.099)" fill="#263238"/>
              </g>
            </g>
          </g>
          <g id="Grupo_98377" data-name="Grupo 98377" transform="translate(15.593 18.842)">
            <path id="Trazado_131730" data-name="Trazado 131730" d="M161.234,183.954c.005.035-.146.1-.406.087a1.409,1.409,0,0,1-1.3-1.357c0-.261.07-.409.1-.4.079,0,.019.632.493,1.129S161.237,183.875,161.234,183.954Z" transform="translate(-159.531 -182.282)" fill="#263238"/>
          </g>
        </g>
        <g id="Grupo_98380" data-name="Grupo 98380" transform="translate(35.859 48.282)">
          <g id="Grupo_98379" data-name="Grupo 98379">
            <path id="Trazado_131731" data-name="Trazado 131731" d="M166.111,223.029l8.6-2.877s5.992,14.171,7.534,14.311c8.542.779,17.681-2.053,20.886-3.173.325-.365.7-.8,1.11-1.34a5.122,5.122,0,0,0,.8-1.535,7.786,7.786,0,0,0,.457-2.11.67.67,0,0,1,1.152-.528c.37.477.464,2.308-.379,4.278s2.141.4,3.239-.149,4.574-2.1,5.011-1.895c.641.3.439,1.04-.67,1.565s-4.324,2.334-4,2.9,5.864-2.325,5.864-2.325,1.087-.808,1.477-.166c.7,1.157-5.421,3.787-6.01,4.022-.409.164-.084.791.346.592s5.469-3,6.2-1.833c.559.9-5.019,2.21-5.739,3.37s4.129-1.425,4.627-.544c.186.328.279.6-2.72,1.68a63.729,63.729,0,0,1-6.684,1.706l.01.031s-30.866,13.813-36.417.483C165.15,225.91,166.111,223.029,166.111,223.029Z" transform="translate(-166.049 -220.152)" fill="#eb996e"/>
          </g>
        </g>
        <path id="Trazado_131732" data-name="Trazado 131732" d="M157.259,216.009c-3.443-8.066-7.957-11.225-10.338-12.391a6.906,6.906,0,0,0-2.665-.685h0l-.286-1.386-11.415-1.028-.28,1.764-1.675-.09s-9.84.985-9.858,12.383c-.008,5.331,2.871,10.518,3.887,13.059.633,5.317-1.647,14.955-1.586,17.306l27.968,1.985,1.184-17.483-.262-1.64,9.207-2.819Zm-24.7-13.711h0Z" transform="translate(-109.862 -163.061)" fill="#ebebeb"/>
        <g id="Grupo_98384" data-name="Grupo 98384" transform="translate(31.625)">
          <g id="Grupo_98381" data-name="Grupo 98381">
            <path id="Trazado_131733" data-name="Trazado 131733" d="M238.221,148.82a32.5,32.5,0,0,0-57.6,16.952h0a32.471,32.471,0,0,0,10.97,27.932l-28.445,33.379,4.082,3.479L195.912,196.9a32.3,32.3,0,0,0,13.566,4.634,33.06,33.06,0,0,0,3.515.188,32.5,32.5,0,0,0,25.228-52.9Zm1.689,23.289a27.13,27.13,0,1,1-5.862-19.921A26.954,26.954,0,0,1,239.909,172.108Z" transform="translate(-160.512 -134.439)" fill="#263238"/>
            <path id="Trazado_131734" data-name="Trazado 131734" d="M233.787,144.667a32.5,32.5,0,0,0-57.6,16.952h0a32.473,32.473,0,0,0,10.971,27.932L158.369,223.2l4.364,3.49,28.746-33.946a32.3,32.3,0,0,0,13.566,4.634,33.071,33.071,0,0,0,3.515.188,32.5,32.5,0,0,0,25.227-52.9Zm1.689,23.289a27.131,27.131,0,1,1-5.863-19.921A26.955,26.955,0,0,1,235.476,167.956Z" transform="translate(-158.369 -132.576)" fill="#455a64"/>
          </g>
          <g id="Grupo_98382" data-name="Grupo 98382" transform="translate(29.496 20.438)">
            <path id="Trazado_131735" data-name="Trazado 131735" d="M217.757,199.309a1.363,1.363,0,0,1-.214-.239c-.13-.165-.333-.4-.564-.725a24.7,24.7,0,0,1-1.811-2.854,26.878,26.878,0,0,1-1.839-21.645,24.759,24.759,0,0,1,1.3-3.118c.173-.36.334-.626.434-.81a1.307,1.307,0,0,1,.171-.271,1.344,1.344,0,0,1-.12.3c-.083.192-.228.466-.384.831a29.508,29.508,0,0,0-1.211,3.134,27.61,27.61,0,0,0,1.825,21.485,29.377,29.377,0,0,0,1.723,2.886c.216.334.4.579.519.755A1.346,1.346,0,0,1,217.757,199.309Z" transform="translate(-211.87 -169.647)" fill="#263238"/>
          </g>
          <g id="Grupo_98383" data-name="Grupo 98383" transform="translate(35.48 16.723)">
            <path id="Trazado_131736" data-name="Trazado 131736" d="M223.984,162.918c.048.067-.283.375-.614.809s-.547.83-.625.8.033-.505.4-.976S223.942,162.854,223.984,162.918Z" transform="translate(-222.724 -162.908)" fill="#263238"/>
          </g>
        </g>
        <g id="Grupo_98406" data-name="Grupo 98406" transform="translate(11.529 37.724)">
          <g id="Grupo_98386" data-name="Grupo 98386" transform="translate(28.244 9.133)">
            <g id="Grupo_98385" data-name="Grupo 98385">
              <path id="Trazado_131737" data-name="Trazado 131737" d="M173.153,217.567a4.072,4.072,0,0,1,.2.761c.111.494.256,1.211.422,2.1.334,1.777.735,4.246,1.075,6.985s.549,5.233.658,7.039c.055.9.088,1.634.1,2.14a4.146,4.146,0,0,1-.008.787,4.112,4.112,0,0,1-.1-.78l-.192-2.131c-.16-1.8-.4-4.283-.739-7.018s-.708-5.2-.99-6.986l-.333-2.114A4.189,4.189,0,0,1,173.153,217.567Z" transform="translate(-173.147 -217.567)" fill="#263238"/>
            </g>
          </g>
          <g id="Grupo_98388" data-name="Grupo 98388" transform="translate(2.301 17.391)">
            <g id="Grupo_98387" data-name="Grupo 98387">
              <path id="Trazado_131738" data-name="Trazado 131738" d="M167.254,251.369s-30.856,13.844-36.406.513c-5.655-13.579-4.694-16.46-4.694-16.46l8.6-2.877s5.992,14.17,7.534,14.311c8.542.779,17.681-2.053,20.886-3.173.325-.365.7-.8,1.11-1.341.355-.461.724-1.125,1.087-1.58a11.412,11.412,0,0,1,1.816-1.593c.852-.964,1.631-.26,1.26.259a9.29,9.29,0,0,0-2.13,3.018c-.843,1.969,2.161,1,3.349.689,1.314-.346,3.781-1.3,3.781-1.3a2.889,2.889,0,0,1-1.706,2.267,17.618,17.618,0,0,1-1.849.769s2.281-.277,2.341.243-.675,4.365-3.1,5.508Z" transform="translate(-126.092 -232.545)" fill="#ffbe9d"/>
            </g>
          </g>
          <path id="Trazado_131739" data-name="Trazado 131739" d="M130.88,210.139l5.542,16.745-12.131,4.8s-6.329-16.444,1.686-20.47Z" transform="translate(-121.918 -205.101)" fill="#ebebeb"/>
          <g id="Grupo_98395" data-name="Grupo 98395" transform="translate(2.343 2.57)">
            <g id="Grupo_98389" data-name="Grupo 98389" transform="translate(3.365)">
              <path id="Trazado_131740" data-name="Trazado 131740" d="M141.874,224.223c-.006,0-.068-.044-.164-.157a3.088,3.088,0,0,1-.363-.539,18.426,18.426,0,0,1-.875-2.2c-.68-1.877-1.6-4.476-2.6-7.352l-1.4-4.059a10.078,10.078,0,0,0-1.4-3.148,2.556,2.556,0,0,0-1.982-.985,2.508,2.508,0,0,0-.822.2c0-.007.055-.058.186-.131a1.628,1.628,0,0,1,.63-.178,2.628,2.628,0,0,1,2.143.965,9.858,9.858,0,0,1,1.494,3.193l1.419,4.051c1,2.876,1.889,5.486,2.519,7.379.321.946.543,1.723.783,2.22S141.895,224.207,141.874,224.223Z" transform="translate(-132.272 -205.663)" fill="#263238"/>
            </g>
            <g id="Grupo_98390" data-name="Grupo 98390" transform="translate(0 18.87)">
              <path id="Trazado_131741" data-name="Trazado 131741" d="M138.878,239.894a1.981,1.981,0,0,1-.459.288c-.3.17-.75.4-1.307.678-1.114.553-2.676,1.27-4.435,1.98s-3.382,1.277-4.568,1.651c-.593.187-1.075.33-1.411.419a2,2,0,0,1-.53.111,16.036,16.036,0,0,1,1.876-.722c1.166-.423,2.771-1.018,4.526-1.726s3.322-1.393,4.455-1.9A16.213,16.213,0,0,1,138.878,239.894Z" transform="translate(-126.168 -239.891)" fill="#263238"/>
            </g>
            <g id="Grupo_98391" data-name="Grupo 98391" transform="translate(1.021 20.899)">
              <path id="Trazado_131742" data-name="Trazado 131742" d="M129.019,246.062a6.3,6.3,0,0,1-.982-2.491,6.314,6.314,0,0,1,.982,2.491Z" transform="translate(-128.019 -243.57)" fill="#263238"/>
            </g>
            <g id="Grupo_98392" data-name="Grupo 98392" transform="translate(3.687 20.001)">
              <path id="Trazado_131743" data-name="Trazado 131743" d="M133.749,244.347c-.067.037-.4-.447-.645-1.126a2.338,2.338,0,0,1-.217-1.279,13.766,13.766,0,0,1,.862,2.4Z" transform="translate(-132.854 -241.941)" fill="#263238"/>
            </g>
            <g id="Grupo_98393" data-name="Grupo 98393" transform="translate(6.315 18.76)">
              <path id="Trazado_131744" data-name="Trazado 131744" d="M138.576,242.173a3.726,3.726,0,0,1-.921-2.482,19.99,19.99,0,0,1,.921,2.482Z" transform="translate(-137.622 -239.69)" fill="#263238"/>
            </g>
            <g id="Grupo_98394" data-name="Grupo 98394" transform="translate(9.293 17.439)">
              <path id="Trazado_131745" data-name="Trazado 131745" d="M143.873,239.936a6.732,6.732,0,0,1-.826-2.64,6.738,6.738,0,0,1,.826,2.64Z" transform="translate(-143.024 -237.295)" fill="#263238"/>
            </g>
          </g>
          <g id="Grupo_98400" data-name="Grupo 98400" transform="translate(30.543 22.253)">
            <g id="Grupo_98396" data-name="Grupo 98396" transform="translate(0 1.756)">
              <path id="Trazado_131746" data-name="Trazado 131746" d="M186.747,244.555a42.747,42.747,0,0,1-4.67,1.638,42.766,42.766,0,0,1-4.758,1.364,42.8,42.8,0,0,1,4.671-1.638A42.768,42.768,0,0,1,186.747,244.555Z" transform="translate(-177.319 -244.549)" fill="#263238"/>
            </g>
            <g id="Grupo_98397" data-name="Grupo 98397" transform="translate(1.199 1.785)">
              <path id="Trazado_131747" data-name="Trazado 131747" d="M180.333,246.525c-.073.031-.315-.374-.542-.9s-.351-.986-.277-1.017.315.374.541.9S180.406,246.494,180.333,246.525Z" transform="translate(-179.493 -244.602)" fill="#263238"/>
            </g>
            <g id="Grupo_98398" data-name="Grupo 98398" transform="translate(3.741 0.875)">
              <path id="Trazado_131748" data-name="Trazado 131748" d="M184.776,245.248c-.072.03-.334-.45-.509-1.095a2.175,2.175,0,0,1-.12-1.2c.08-.013.224.5.4,1.126A3.233,3.233,0,0,1,184.776,245.248Z" transform="translate(-184.104 -242.952)" fill="#263238"/>
            </g>
            <g id="Grupo_98399" data-name="Grupo 98399" transform="translate(6.445)">
              <path id="Trazado_131749" data-name="Trazado 131749" d="M189.528,243.719a5.1,5.1,0,0,1-.481-2.355,5.105,5.105,0,0,1,.481,2.355Z" transform="translate(-189.009 -241.364)" fill="#263238"/>
            </g>
          </g>
          <g id="Grupo_98401" data-name="Grupo 98401" transform="translate(12.191)">
            <path id="Trazado_131750" data-name="Trazado 131750" d="M144.134,202.347c-.079-.006-.122-.311-.1-.683s.112-.669.191-.663.122.311.1.683S144.212,202.353,144.134,202.347Z" transform="translate(-144.03 -201.001)" fill="#263238"/>
          </g>
          <g id="Grupo_98402" data-name="Grupo 98402" transform="translate(14.635 0.146)">
            <path id="Trazado_131751" data-name="Trazado 131751" d="M148.637,202.611c-.079,0-.155-.295-.17-.667s.037-.675.116-.679.155.3.17.667S148.717,202.608,148.637,202.611Z" transform="translate(-148.464 -201.266)" fill="#263238"/>
          </g>
          <g id="Grupo_98403" data-name="Grupo 98403" transform="translate(16.613 0.434)">
            <path id="Trazado_131752" data-name="Trazado 131752" d="M152.19,203.182c-.079,0-.141-.313-.138-.7s.07-.7.149-.7.141.313.138.7S152.269,203.182,152.19,203.182Z" transform="translate(-152.052 -201.788)" fill="#263238"/>
          </g>
          <g id="Grupo_98404" data-name="Grupo 98404" transform="translate(19.13 0.481)">
            <path id="Trazado_131753" data-name="Trazado 131753" d="M156.863,203.509c-.074.02-.232-.338-.245-.81s.12-.84.2-.824.076.378.091.815S156.942,203.489,156.863,203.509Z" transform="translate(-156.617 -201.874)" fill="#263238"/>
          </g>
          <g id="Grupo_98405" data-name="Grupo 98405" transform="translate(21.268 0.482)">
            <path id="Trazado_131754" data-name="Trazado 131754" d="M160.765,203.51c-.079.009-.186-.349-.24-.8s-.034-.824.045-.834.186.349.24.8S160.844,203.5,160.765,203.51Z" transform="translate(-160.494 -201.876)" fill="#263238"/>
          </g>
        </g>
      </g>
    </g>
  </g>
</svg>
