<svg xmlns="http://www.w3.org/2000/svg" width="113.271" height="113.271" viewBox="0 0 113.271 113.271">
  <g id="layer2" transform="translate(-0.529 -0.529)">
    <path id="path6751" d="M104.622,5.821a5.651,5.651,0,0,1,5.664,5.664v62.3a5.651,5.651,0,0,1-5.664,5.664H7.4c-3.337,0-6.561-2.92-6.561-6.135C.831,48.656.794,30.363.794,5.821" transform="translate(1.626 32.465)" fill="#e4eff8"/>
    <path id="path6753" d="M109.911,73.581a5.651,5.651,0,0,1-5.664,5.664H7.024a6.9,6.9,0,0,1-6.169-4.27,6.288,6.288,0,0,0,2.393.494h97.224a5.651,5.651,0,0,0,5.664-5.664V7.48a5.616,5.616,0,0,0-.262-1.626,5.633,5.633,0,0,1,4.038,5.4Z" transform="translate(2.001 32.667)" fill="#c4dcf0"/>
    <path id="path6755" d="M.794,11.52a7.551,7.551,0,0,1,15.1,0V71.931a5.651,5.651,0,0,1-5.664,5.664H7.4A6.593,6.593,0,0,0,.794,84.2Z" transform="translate(1.623 21.102)" fill="#549ad4"/>
    <path id="path6757" d="M15.9,71.364a5.651,5.651,0,0,1-5.664,5.664H7.4A6.593,6.593,0,0,0,.794,83.635V73.9a6.575,6.575,0,0,1,2.832-.653H6.457a5.651,5.651,0,0,0,5.664-5.664V7.162a7.532,7.532,0,0,0-.675-3.1A7.524,7.524,0,0,1,15.9,10.938Z" transform="translate(1.623 21.67)" fill="#3588cb"/>
    <path id="path6759" d="M17.341,14.359a3.776,3.776,0,1,1-3.776-3.776A3.776,3.776,0,0,1,17.341,14.359Z" transform="translate(56.814 61.684)" fill="#ff5151"/>
    <path id="path6761" d="M49.277,23.448A22.654,22.654,0,1,1,26.623.794,22.654,22.654,0,0,1,49.277,23.448Z" transform="translate(21.103 1.623)" fill="#ffca28"/>
    <path id="path6763" d="M22.39.794A22.654,22.654,0,0,0,4.659,9.389,22.633,22.633,0,0,1,36.346,41.283,22.647,22.647,0,0,0,22.39.794Z" transform="translate(25.335 1.623)" fill="#ecb200"/>
    <path id="path6765" d="M14.166,12.242A3.776,3.776,0,1,1,10.39,8.467,3.776,3.776,0,0,1,14.166,12.242Z" transform="translate(37.335 48.698)" fill="#ff5151"/>
    <path id="path6767" d="M14.588,7.408h7.551A1.884,1.884,0,0,1,24.027,9.3V14.96a1.884,1.884,0,0,1-1.888,1.888H14.588A1.884,1.884,0,0,1,12.7,14.96V9.3A1.884,1.884,0,0,1,14.588,7.408Z" transform="translate(74.67 42.205)" fill="#549ad4"/>
    <path id="path6769" d="M14.588,7.408A1.884,1.884,0,0,0,12.7,9.3V14.96a1.884,1.884,0,0,0,1.888,1.888h7.551a1.884,1.884,0,0,0,1.888-1.888V13.072H18.364a1.884,1.884,0,0,1-1.888-1.888V7.408Z" transform="translate(74.67 42.205)" fill="#3588cb"/>
    <path id="path6771" d="M13.494,2.618l18.878,9.439L13.494,19.609" transform="translate(79.54 12.815)" fill="#ff5151"/>
    <g id="Grupo_105637" data-name="Grupo 105637" transform="translate(43.95 15.433)">
      <path id="path6773" d="M13.494,2.618V19.609L17.269,18.1V4.506Z" transform="translate(35.591 -2.618)" fill="#ff2929"/>
      <path id="path6775" d="M12.341,10.614a3.768,3.768,0,1,0,4.926,4.277,3.751,3.751,0,0,1-4.926-4.277Z" transform="translate(12.865 46.441)" fill="#ff2929"/>
      <path id="path6777" d="M9.166,8.5a3.768,3.768,0,1,0,4.926,4.277A3.751,3.751,0,0,1,9.166,8.5Z" transform="translate(-6.615 33.455)" fill="#ff2929"/>
    </g>
    <path id="path6779" d="M23.183,25.071A24.358,24.358,0,0,0,25.96,36.4H19.415V32.626a9.443,9.443,0,0,0-18.886,0V105.3a8.481,8.481,0,0,0,8.5,8.5h97.217a7.548,7.548,0,0,0,7.551-7.551v-62.3a7.534,7.534,0,0,0-7.551-7.551H94.918V33.7l17.7-7.079a1.888,1.888,0,0,0,.14-3.429L94.917,14.264V13.74a1.888,1.888,0,1,0-3.776,0V36.4H69.479a24.536,24.536,0,1,0-46.3-11.331ZM93.008.529a1.888,1.888,0,0,0-1.866,1.91v1.9a1.888,1.888,0,0,0,3.776,0v-1.9a1.887,1.887,0,0,0-1.91-1.91ZM47.733,4.309A20.763,20.763,0,1,1,26.959,25.071,20.769,20.769,0,0,1,47.733,4.309ZM82.809,8.166,84.144,9.5a1.892,1.892,0,0,0,2.677-2.673L85.482,5.492a1.8,1.8,0,0,0-1.318-.551A1.885,1.885,0,0,0,82.809,8.166ZM100.6,5.492,99.265,6.831A1.892,1.892,0,0,0,101.942,9.5l1.338-1.338a1.892,1.892,0,0,0-1.4-3.223,1.813,1.813,0,0,0-1.276.549ZM45.834,11.86V25.071a1.889,1.889,0,0,0,.56,1.338l5.656,5.656A1.888,1.888,0,0,0,54.727,29.4L49.613,24.29V11.86a1.89,1.89,0,0,0-3.779,0Zm49.084,6.633,12.389,6.187L94.918,29.636ZM9.965,26.952a5.668,5.668,0,0,1,5.671,5.675V93.038a3.779,3.779,0,0,1-3.776,3.776H9.032a8.485,8.485,0,0,0-4.723,1.412v-65.6a5.655,5.655,0,0,1,5.656-5.675Zm9.45,13.226h8.967a24.548,24.548,0,0,0,38.69,0h24.07v7.555h-1.88a3.765,3.765,0,0,0-3.779,3.776v5.656a1.876,1.876,0,0,0-.2,0,1.9,1.9,0,0,0,.2,3.779h3.672L74.237,71.9a5.651,5.651,0,0,0-7.625-.085L53.245,62.172a5.538,5.538,0,0,0,.144-1.228,5.665,5.665,0,1,0-11.331,0,5.489,5.489,0,0,0,.2,1.4L23.914,76.438a1.888,1.888,0,1,0,2.316,2.983L44.356,65.49a5.679,5.679,0,0,0,6.88-.1l13.55,9.767a6.183,6.183,0,0,0-.064.9,5.665,5.665,0,0,0,11.331,0A5.3,5.3,0,0,0,76,75.295L95.534,60.944h5.055a1.89,1.89,0,0,0,0-3.779V51.508a3.781,3.781,0,0,0-3.776-3.776h-1.9V40.178h11.331a3.754,3.754,0,0,1,3.776,3.776v62.3a3.763,3.763,0,0,1-3.776,3.776H9.033a4.718,4.718,0,1,1,0-9.436h2.828a7.553,7.553,0,0,0,7.555-7.551ZM66.6,51.494a1.9,1.9,0,0,0-1.338,3.234l1.5,1.493-1.5,1.5a1.888,1.888,0,0,0,2.677,2.662l1.493-1.493,1.5,1.493A1.882,1.882,0,1,0,73.6,57.721l-1.493-1.5L73.6,54.727a1.887,1.887,0,0,0-1.349-3.234,1.907,1.907,0,0,0-1.313.557l-1.5,1.5-1.493-1.5a1.84,1.84,0,0,0-1.338-.557Zm22.662.015h7.551v5.656H89.262ZM47.733,59.045a1.9,1.9,0,0,1,1.88,1.9,1.875,1.875,0,0,1-1.88,1.88,1.89,1.89,0,1,1,0-3.779Zm47.2,11.331A1.885,1.885,0,0,0,93.58,73.6l1.5,1.5-1.5,1.5a1.893,1.893,0,1,0,2.677,2.677l1.493-1.5,1.5,1.5a1.888,1.888,0,0,0,2.662-2.677l-1.482-1.5,1.5-1.5a1.887,1.887,0,0,0-1.394-3.219,1.838,1.838,0,0,0-1.283.557l-1.5,1.5-1.493-1.5a1.807,1.807,0,0,0-1.324-.557ZM70.376,74.152a1.89,1.89,0,1,1-1.88,1.9A1.894,1.894,0,0,1,70.376,74.152Zm-35.884,7.54a1.887,1.887,0,0,0-1.032.321L27.8,85.789a1.891,1.891,0,1,0,2.091,3.153l4.613-3.082,4.627,3.082a1.888,1.888,0,0,0,2.087,0l4.613-3.082,4.616,3.082a1.888,1.888,0,0,0,2.1,0l4.613-3.082,4.613,3.082a1.891,1.891,0,1,0,2.091-3.153l-5.656-3.776a1.888,1.888,0,0,0-2.091,0l-4.613,3.079-4.627-3.079a1.888,1.888,0,0,0-2.091,0l-4.613,3.079-4.627-3.079a1.888,1.888,0,0,0-1.058-.321Zm47.215,7.566a1.888,1.888,0,1,0,0,3.776h1.888a1.888,1.888,0,1,0,0-3.776Zm9.439,0a1.888,1.888,0,1,0,0,3.776h1.888a1.888,1.888,0,1,0,0-3.776Zm9.439,0a1.888,1.888,0,1,0,0,3.776h1.888a1.888,1.888,0,1,0,0-3.776ZM34.492,91.143a1.887,1.887,0,0,0-1.032.321L27.8,95.224a1.89,1.89,0,1,0,2.091,3.149l4.613-3.079,4.627,3.079a1.888,1.888,0,0,0,2.087,0l4.613-3.079,4.616,3.079a1.888,1.888,0,0,0,2.1,0l4.613-3.079,4.613,3.079a1.89,1.89,0,1,0,2.091-3.149l-5.656-3.761a1.888,1.888,0,0,0-2.091,0l-4.613,3.064-4.627-3.064a1.888,1.888,0,0,0-2.091,0l-4.613,3.064-4.627-3.064a1.887,1.887,0,0,0-1.058-.321Z" transform="translate(0 0)"/>
  </g>
</svg>
