<svg xmlns="http://www.w3.org/2000/svg" width="399" height="399.26" viewBox="0 0 399 399.26">
  <g id="Grupo_105590" data-name="Grupo 105590" transform="translate(-29.653 -41.717)">
    <g id="Background_Simple" data-name="Background Simple" transform="translate(29.653 41.717)">
      <g id="Grupo_102272" data-name="Grupo 102272">
        <path id="Trazado_133081" data-name="Trazado 133081" d="M401.169,87.95C348.333,29.515,249.336,38.487,203.329,50.792c-31.648,8.464-49.9,36.348-72.029,39.76C64.631,100.836,20.77,134.821,31.18,192.828s65.542,76.237,92.592,160.248,93.845,97.818,164.743,69.39,83.641-50.555,100.472-129.69S461.7,154.892,401.169,87.95Z" transform="translate(-29.653 -41.717)" fill="#e1f3d7"/>
      </g>
    </g>
    <g id="Doodles" transform="translate(52.347 55.378)">
      <g id="Grupo_102290" data-name="Grupo 102290">
        <g id="Grupo_102273" data-name="Grupo 102273" transform="translate(7.133 202.321)">
          <path id="Trazado_133084" data-name="Trazado 133084" d="M70.079,291.248a.411.411,0,0,1-.106-.013.464.464,0,0,1-.316-.255L61.684,274a.466.466,0,0,1,.422-.665H91.5a.467.467,0,0,1,.29.832L70.368,291.148A.462.462,0,0,1,70.079,291.248ZM62.84,274.264l7.411,15.786,19.914-15.786Z" transform="translate(-61.64 -273.332)" fill="#263238"/>
        </g>
        <g id="Grupo_102276" data-name="Grupo 102276" transform="translate(318.425 261.069)">
          <path id="Trazado_133087" data-name="Trazado 133087" d="M414.916,356.172H395.929a.465.465,0,0,1-.355-.164.459.459,0,0,1-.1-.378l2.976-18.135a.466.466,0,0,1,.411-.388l7.258-.772a.467.467,0,0,1,.508.547L404.3,349.55l12.1.106a.465.465,0,0,1,.447.586l-1.482,5.583A.467.467,0,0,1,414.916,356.172Zm-18.437-.933h18.078l1.237-4.656-12.052-.105a.466.466,0,0,1-.455-.55l2.3-12.6-6.284.669Z" transform="translate(-395.463 -336.332)" fill="#263238"/>
        </g>
        <g id="Grupo_102277" data-name="Grupo 102277" transform="translate(273.341 306.258)">
          <path id="Trazado_133088" data-name="Trazado 133088" d="M355.584,401.73a8.469,8.469,0,1,1,8.469-8.469A8.478,8.478,0,0,1,355.584,401.73Zm0-16.006a7.536,7.536,0,1,0,7.536,7.536A7.546,7.546,0,0,0,355.584,385.725Z" transform="translate(-347.115 -384.792)" fill="#263238"/>
        </g>
        <g id="Grupo_102278" data-name="Grupo 102278" transform="translate(83.513 15.147)">
          <path id="Trazado_133089" data-name="Trazado 133089" d="M152.017,119.548a8.469,8.469,0,1,1,8.469-8.469A8.478,8.478,0,0,1,152.017,119.548Zm0-16.006a7.537,7.537,0,1,0,7.537,7.536A7.544,7.544,0,0,0,152.017,103.543Z" transform="translate(-143.548 -102.61)" fill="#263238"/>
        </g>
        <g id="Grupo_102279" data-name="Grupo 102279" transform="translate(336.888 186.815)">
          <path id="Trazado_133090" data-name="Trazado 133090" d="M433.353,267.709a.469.469,0,0,1-.231-.062L415.5,257.574a.467.467,0,1,1,.462-.81l17.624,10.074a.466.466,0,0,1-.231.872Z" transform="translate(-415.262 -256.703)" fill="#263238"/>
        </g>
        <g id="Grupo_102280" data-name="Grupo 102280" transform="translate(342.307 186.367)">
          <path id="Trazado_133091" data-name="Trazado 133091" d="M421.539,270.52a.474.474,0,0,1-.211-.05.468.468,0,0,1-.205-.628l6.787-13.365a.467.467,0,0,1,.833.422l-6.787,13.365A.468.468,0,0,1,421.539,270.52Z" transform="translate(-421.073 -256.223)" fill="#263238"/>
        </g>
        <g id="Grupo_102283" data-name="Grupo 102283" transform="translate(71.143 190.643)">
          <path id="Trazado_133094" data-name="Trazado 133094" d="M137.584,283.473a.461.461,0,0,1-.17-.032.466.466,0,0,1-.257-.248l-6.815-15.625a.484.484,0,0,1-.029-.4.467.467,0,0,1,.425-.3h.04c1.016-.3,8.833-3.811,13.654-6.016a.462.462,0,0,1,.361-.01.467.467,0,0,1,.261.248l6.839,15.674a.466.466,0,0,1-.241.614l-13.882,6.058A.444.444,0,0,1,137.584,283.473Zm-6.206-15.863,6.447,14.783,13.027-5.685L144.389,261.9C135.871,265.787,132.661,267.18,131.379,267.61Z" transform="translate(-130.282 -260.809)" fill="#263238"/>
        </g>
        <g id="Grupo_102284" data-name="Grupo 102284" transform="translate(258.082 175.698)">
          <path id="Trazado_133095" data-name="Trazado 133095" d="M334.913,254.515l-.052,0a.463.463,0,0,1-.312-.173l-3.695-4.629a.467.467,0,0,1,.074-.656l5.2-4.152a.472.472,0,0,1,.363-.118.466.466,0,0,1,.392.308c.3.441,2.345,2.952,3.613,4.487a.468.468,0,0,1-.069.661l-5.227,4.172A.457.457,0,0,1,334.913,254.515Zm-3.039-5.022,3.113,3.9,4.491-3.586c-1.791-2.166-2.7-3.272-3.138-3.878Z" transform="translate(-330.752 -244.782)" fill="#263238"/>
        </g>
        <g id="Grupo_102285" data-name="Grupo 102285" transform="translate(0 128.626)">
          <path id="Trazado_133096" data-name="Trazado 133096" d="M58.023,202.37a4.034,4.034,0,1,1,4.033-4.033A4.037,4.037,0,0,1,58.023,202.37Zm0-7.135a3.1,3.1,0,1,0,3.1,3.1A3.1,3.1,0,0,0,58.023,195.236Z" transform="translate(-53.99 -194.303)" fill="#263238"/>
        </g>
        <g id="Grupo_102286" data-name="Grupo 102286" transform="translate(216.207)">
          <path id="Trazado_133097" data-name="Trazado 133097" d="M289.878,64.434a4.034,4.034,0,1,1,4.033-4.033A4.037,4.037,0,0,1,289.878,64.434Zm0-7.135a3.1,3.1,0,1,0,3.1,3.1A3.1,3.1,0,0,0,289.878,57.3Z" transform="translate(-285.846 -56.367)" fill="#263238"/>
        </g>
        <g id="Grupo_102287" data-name="Grupo 102287" transform="translate(257.834 218.739)">
          <path id="Trazado_133098" data-name="Trazado 133098" d="M335.136,316.787a.467.467,0,0,1-.438-.3L330.515,305.1a.466.466,0,0,1,.4-.627l8-.605-1.856-5.363a.466.466,0,0,1,.4-.616l7.006-.548-3.408-5.693a.466.466,0,0,1,.8-.478l3.794,6.337a.465.465,0,0,1-.364.7l-7.154.56,1.857,5.364a.467.467,0,0,1-.406.617l-7.983.6,3.971,10.806a.468.468,0,0,1-.276.6A.493.493,0,0,1,335.136,316.787Z" transform="translate(-330.486 -290.939)" fill="#263238"/>
        </g>
        <g id="Grupo_102288" data-name="Grupo 102288" transform="translate(63.29 270.409)">
          <path id="Trazado_133099" data-name="Trazado 133099" d="M122.327,370.166a.466.466,0,0,1-.346-.779l6.845-7.588-5.144-3.248a.468.468,0,0,1-.045-.756l8.45-6.893-6.128-3.689a.466.466,0,0,1,.481-.8l6.7,4.031a.468.468,0,0,1,.054.762l-8.462,6.9,5.064,3.2a.466.466,0,0,1,.1.706l-7.216,8A.467.467,0,0,1,122.327,370.166Z" transform="translate(-121.861 -346.348)" fill="#263238"/>
        </g>
        <g id="Grupo_102289" data-name="Grupo 102289" transform="translate(339.681 23.616)">
          <path id="Trazado_133100" data-name="Trazado 133100" d="M333.562,126.895a.464.464,0,0,1-.33-.137l-5.515-5.538a.467.467,0,0,1,.132-.752l9.885-4.638L333.6,111.5a.47.47,0,0,1-.127-.373.465.465,0,0,1,.2-.336l8.943-6a.466.466,0,0,1,.519.774l-8.483,5.7,4.2,4.4a.466.466,0,0,1-.14.744l-9.871,4.632,5.048,5.068a.466.466,0,0,1-.331.8Z" transform="translate(-327.581 -104.705)" fill="#263238"/>
        </g>
      </g>
    </g>
    <g id="Character" transform="translate(130.41 238.106)">
      <g id="Grupo_102351" data-name="Grupo 102351">
        <g id="Grupo_102292" data-name="Grupo 102292" transform="translate(5.162 111.086)">
          <path id="Trazado_133101" data-name="Trazado 133101" d="M291.357,452.624c4.769-5.906,7.614-22.846,7.614-22.846a47.835,47.835,0,0,1,10.5,10.724,83.617,83.617,0,0,0,15.586-3.889,63.434,63.434,0,0,0,14.721-7.3c-10.138-14.944-27.3-40.343-37.856-48.328-4.087-3.091-16.739-6.1-16.739-6.1-2.87-2.594-9.114,0-9.114,0-33.8,8.6-64.718-2.541-64.718-2.541s-4.38-2.021-7.971,0a48.2,48.2,0,0,0-10.52,0c-7.736,1.067-16.192,9.9-19.679,13.92-1.042,1.2-29.7,34.4-29.7,34.4s-.994,13.538,1.1,15.329c16.8,14.389,41.539-18.307,41.539-18.307.158.066.542,28.474,13.789,43.329,0,0,9.394,4.288,45.909.932C282.041,458.621,291.357,452.624,291.357,452.624Z" transform="translate(-143.238 -371.447)" fill="#67c53a"/>
          <g id="Grupo_102291" data-name="Grupo 102291" transform="translate(11.808 13.757)">
            <path id="Trazado_133102" data-name="Trazado 133102" d="M165.551,411.5c-5.623.494-8.532-.849-9.651-3.236v-.009c8.094-9.362,17.54-20.31,18.128-20.991.28-.326.6-.681.932-1.063C179.157,395.6,182.644,410.007,165.551,411.5Z" transform="translate(-155.9 -386.2)" opacity="0.2"/>
            <path id="Trazado_133103" data-name="Trazado 133103" d="M192.67,442.686a113.99,113.99,0,0,1-3.46-22.436s4.066-5.325,5.194-10.92C194.4,409.33,199.682,430.377,192.67,442.686Z" transform="translate(-158.148 -387.761)" opacity="0.2"/>
            <path id="Trazado_133104" data-name="Trazado 133104" d="M317.653,439.546a44.519,44.519,0,0,0-7.413-6.835s.4-13.363,4.131-17.41C317.374,412.046,320.572,428.943,317.653,439.546Z" transform="translate(-166.317 -388.137)" opacity="0.2"/>
          </g>
        </g>
        <g id="Grupo_102293" data-name="Grupo 102293" transform="translate(152.815 168.951)">
          <path id="Trazado_133105" data-name="Trazado 133105" d="M302.044,457.279a.466.466,0,0,1-.363-.759c4.637-5.743,7.489-22.462,7.517-22.631a.466.466,0,0,1,.73-.3,48.762,48.762,0,0,1,10.613,10.842.466.466,0,1,1-.772.522,48.261,48.261,0,0,0-9.781-10.167c-.615,3.375-3.307,17.028-7.581,22.321A.463.463,0,0,1,302.044,457.279Z" transform="translate(-301.578 -433.5)" fill="#263238"/>
        </g>
        <g id="Grupo_102294" data-name="Grupo 102294" transform="translate(4.689 110.614)">
          <path id="Trazado_133106" data-name="Trazado 133106" d="M199.865,461.449a.468.468,0,0,1-.348-.156c-7.7-8.64-12.606-23.687-13.815-42.4-3.282,4.1-16.563,19.686-29.648,21.1a15.083,15.083,0,0,1-11.82-3.669c-2.206-1.89-1.362-14.308-1.258-15.719a.46.46,0,0,1,.112-.27l29.7-34.4c3.359-3.869,12.027-12.982,19.969-14.077a47.576,47.576,0,0,1,10.489-.018c3.727-1.994,8.075-.029,8.26.056.27.1,31.144,10.973,64.408,2.512.2-.089,6.364-2.6,9.449.026,1.351.324,12.843,3.158,16.8,6.152,10.479,7.926,27.429,32.913,37.555,47.841l.406.6a.466.466,0,1,1-.772.522l-.4-.6c-10.094-14.881-26.989-39.787-37.346-47.622-3.963-3-16.44-5.986-16.566-6.016a.459.459,0,0,1-.205-.107c-2.618-2.366-8.563.06-8.624.085-33.612,8.555-64.744-2.422-65.054-2.533-.078-.035-4.248-1.908-7.583-.033a.462.462,0,0,1-.284.056,48.052,48.052,0,0,0-10.4,0c-7.63,1.052-16.1,9.977-19.392,13.765l-29.6,34.282c-.368,5.16-.433,13.607.946,14.788a14.158,14.158,0,0,0,11.115,3.451c14.36-1.548,29.6-21.484,29.75-21.685a.469.469,0,0,1,.554-.148c.282.119.284.161.351,1.233,1.155,18.683,5.988,33.675,13.6,42.215a.466.466,0,0,1-.348.777Z" transform="translate(-142.73 -370.941)" fill="#263238"/>
        </g>
        <g id="Grupo_102295" data-name="Grupo 102295" transform="translate(60.99)">
          <path id="Trazado_133107" data-name="Trazado 133107" d="M286.986,366.335c-.279.117-.447.178-.447.178A1.82,1.82,0,0,0,286.986,366.335Z" transform="translate(-208.739 -260.016)" fill="#263238"/>
          <path id="Trazado_133108" data-name="Trazado 133108" d="M291.4,333.473c3.55.523,4.416-2.077,4.416-2.077s-4.416,2.077-8.316-5.92c-2.22-4.557-1.127-12.933.226-19.3,2.731-4.506,6.7-10.728,7.22-18.12.9-12.681-5.026-19.109-11.9-17.223,0,0-.5-10.714-10.173-14.557s-11.212-.684-20.484-3.017-18.449-.3-21.789,5.736-4.47,16.99-10.172,21.228-15.668,14.454-12.515,25.879,1.368,15.331-2.811,20.73-1.636,16.027,6.34,19.328c0,0-3.368-1.8-.988-4.809,0,0,1.849,7.162,8.086,5.854s14.117-1.739,18.142,2.673,18.756,5.615,22.074,2.235,5.893-.242,11.909,2.77,12.691.369,12.691.369-.563,2.605-2,3.384c1.223-.517,4.607-2.132,5.555-4.552.93-2.378,1.547-4.772.361-10.43,4.171-1.635,2.243-4.388,2.243-4.388,3.9,2.254,5.767-4.257,5.767-4.257C291.66,334.962,291.4,333.473,291.4,333.473Z" transform="translate(-203.107 -252.321)" fill="#263238"/>
        </g>
        <g id="Grupo_102299" data-name="Grupo 102299" transform="translate(68.897 71.143)">
          <g id="Grupo_102296" data-name="Grupo 102296">
            <path id="Trazado_133109" data-name="Trazado 133109" d="M284.1,373.189s-26.325,11.717-34.776,12.189-37.233-14.825-37.233-14.825l21.935-5.986c2.987-5.7,3.06-12.383,2.346-20.23-.23-2.43-.52-4.729-.835-6.784-.75-4.97-1.572-8.44-1.572-8.44l30.993,1.281a55.1,55.1,0,0,0-1.6,6.011,75.193,75.193,0,0,0-1.463,12.782c-.351,10.725,1.306,16.82,1.306,16.82Z" transform="translate(-211.62 -328.647)" fill="#fff"/>
            <path id="Trazado_133110" data-name="Trazado 133110" d="M248.883,385.821c-8.951,0-35.889-14.274-37.049-14.891a.466.466,0,0,1,.1-.862l21.738-5.932c2.817-5.5,2.919-11.9,2.2-19.792-.218-2.3-.5-4.576-.831-6.755-.738-4.892-1.556-8.367-1.565-8.4a.466.466,0,0,1,.094-.4.486.486,0,0,1,.379-.17l30.993,1.281a.468.468,0,0,1,.423.614,53.979,53.979,0,0,0-1.582,5.959,74.466,74.466,0,0,0-1.454,12.7,65.569,65.569,0,0,0,1.232,16.446l20.654,7.1a.466.466,0,0,1,.038.867c-1.078.48-26.5,11.757-34.939,12.228C249.174,385.818,249.031,385.821,248.883,385.821ZM213.32,370.656c5.241,2.727,28.6,14.647,35.939,14.223,7.3-.408,28.468-9.467,33.523-11.67l-19.765-6.8a.462.462,0,0,1-.3-.318c-.068-.252-1.672-6.286-1.323-16.958a75.4,75.4,0,0,1,1.473-12.862,55.628,55.628,0,0,1,1.42-5.474l-29.771-1.231c.266,1.206.879,4.131,1.444,7.88.335,2.194.617,4.485.837,6.809.74,8.145.616,14.745-2.4,20.49a.463.463,0,0,1-.29.233Z" transform="translate(-211.586 -328.613)" fill="#263238"/>
          </g>
          <g id="Grupo_102297" data-name="Grupo 102297" transform="translate(7.93 45.462)">
            <path id="Trazado_133111" data-name="Trazado 133111" d="M220.59,377.868s16.6,2.911,20.72,2.433,7.357,3.587,7.357,3.587" transform="translate(-220.123 -377.4)" fill="#fff"/>
            <path id="Trazado_133112" data-name="Trazado 133112" d="M248.635,384.321a.466.466,0,0,1-.366-.175c-.031-.038-3.133-3.87-6.939-3.415-4.149.469-20.175-2.318-20.855-2.438a.466.466,0,1,1,.161-.918c.166.028,16.574,2.9,20.586,2.427,4.331-.493,7.637,3.587,7.777,3.762a.466.466,0,0,1-.365.756Z" transform="translate(-220.09 -377.366)" fill="#263238"/>
          </g>
          <g id="Grupo_102298" data-name="Grupo 102298" transform="translate(39.946 46.547)">
            <path id="Trazado_133113" data-name="Trazado 133113" d="M281.236,379.029s-16.9,1.788-21.007,1.927-5.305,3.01-5.305,3.01" transform="translate(-254.457 -378.563)" fill="#fff"/>
            <path id="Trazado_133114" data-name="Trazado 133114" d="M254.89,384.4a.465.465,0,0,1-.431-.645c.054-.129,1.362-3.147,5.72-3.3,4.044-.137,20.8-1.907,20.973-1.925a.466.466,0,1,1,.1.927c-.691.073-16.962,1.791-21.039,1.93-3.765.129-4.881,2.7-4.89,2.724A.467.467,0,0,1,254.89,384.4Z" transform="translate(-254.424 -378.529)" fill="#263238"/>
          </g>
          <path id="Trazado_133115" data-name="Trazado 133115" d="M265.054,336.933a75.2,75.2,0,0,0-1.463,12.782,26.672,26.672,0,0,1-8.682,5.126c-5.213,1.729-12.141-4.631-16.845-9.976-.23-2.43-.52-4.729-.835-6.784Z" transform="translate(-213.317 -329.175)" fill="#263238"/>
        </g>
        <g id="Grupo_102326" data-name="Grupo 102326" transform="translate(65.131 3.638)">
          <g id="Grupo_102302" data-name="Grupo 102302" transform="translate(11.453 38.173)">
            <g id="Grupo_102300" data-name="Grupo 102300">
              <path id="Trazado_133116" data-name="Trazado 133116" d="M227.317,300.893s-2.555-3.922-4.837-3.13-2.275,11.432-2.092,14.2,5.744,8.951,8.075,7.257" transform="translate(-219.862 -297.192)" fill="#fff"/>
              <path id="Trazado_133117" data-name="Trazado 133117" d="M227.489,319.938a3.645,3.645,0,0,1-1.54-.392c-2.679-1.255-5.906-5.3-6.058-7.589-.008-.135-.651-13.609,2.4-14.67,2.6-.893,5.269,3.144,5.381,3.317a.466.466,0,0,1-.781.509c-.656-1.005-2.7-3.493-4.294-2.945-1.63.566-2.078,9.209-1.778,13.727.119,1.8,3,5.621,5.523,6.806a1.78,1.78,0,0,0,1.812.1.466.466,0,0,1,.548.754A2.029,2.029,0,0,1,227.489,319.938Z" transform="translate(-219.829 -297.159)" fill="#263238"/>
            </g>
            <g id="Grupo_102301" data-name="Grupo 102301" transform="translate(56.72 9.523)">
              <path id="Trazado_133118" data-name="Trazado 133118" d="M287.535,309.847s3.578-3.018,5.535-1.6-1.12,11.6-2.093,14.2-8.082,6.915-9.824,4.621" transform="translate(-280.688 -307.405)" fill="#fff"/>
              <path id="Trazado_133119" data-name="Trazado 133119" d="M282.7,328.145a2.3,2.3,0,0,1-1.955-.833.467.467,0,0,1,.743-.565c.309.407.9.545,1.762.423,2.762-.4,6.621-3.237,7.254-4.926,1.588-4.24,3.651-12.645,2.255-13.656-1.368-.988-4.043.808-4.962,1.58a.466.466,0,1,1-.6-.712c.158-.132,3.884-3.233,6.109-1.623,2.616,1.894-1.881,14.612-1.929,14.74-.806,2.149-5.063,5.091-7.99,5.52A4.769,4.769,0,0,1,282.7,328.145Z" transform="translate(-280.654 -307.371)" fill="#263238"/>
            </g>
          </g>
          <g id="Grupo_102303" data-name="Grupo 102303" transform="translate(18.221 5.471)">
            <path id="Trazado_133120" data-name="Trazado 133120" d="M249.256,347.521c-9.4-1.384-18.724-17.316-19.847-21.8-1.249-4.99-4.005-29.6,1.361-43.086,6.031-15.152,18.65-21.545,30.948-19.733s22.54,11.571,23.945,27.818c1.251,14.459-8.485,37.231-11.121,41.649C272.176,336.34,259.16,348.98,249.256,347.521Z" transform="translate(-227.12 -262.124)" fill="#fff"/>
            <path id="Trazado_133121" data-name="Trazado 133121" d="M250.9,348.073a11.933,11.933,0,0,1-1.745-.125h0c-9.672-1.425-19.03-17.348-20.231-22.147-1.083-4.324-4.174-29.414,1.381-43.372,5.715-14.364,17.759-22.036,31.45-20.022s23.008,12.837,24.34,28.24c1.294,14.969-8.9,38.1-11.184,41.928C272.873,335.991,261.07,348.071,250.9,348.073Zm6.593-85.049c-11.5,0-21.357,7.277-26.321,19.75-5.473,13.752-2.412,38.528-1.343,42.8,1.034,4.131,10.158,20.08,19.461,21.45h0a10.648,10.648,0,0,0,1.557.111c9.243,0,20.863-11.015,23.262-15.038,2.257-3.783,12.331-26.624,11.057-41.371-1.293-14.949-10.315-25.448-23.549-27.4A28.189,28.189,0,0,0,257.492,263.023Z" transform="translate(-227.087 -262.089)" fill="#263238"/>
          </g>
          <path id="Trazado_133122" data-name="Trazado 133122" d="M273.4,311.083c-.256,1.74-1.241,3.036-2.2,2.9s-1.528-1.667-1.271-3.406,1.241-3.037,2.2-2.895S273.654,309.343,273.4,311.083Z" transform="translate(-211.753 -259.695)" fill="#263238"/>
          <path id="Trazado_133123" data-name="Trazado 133123" d="M240.768,306.276c-.256,1.741.312,3.266,1.271,3.406s1.943-1.155,2.2-2.9-.313-3.265-1.272-3.406S241.023,304.536,240.768,306.276Z" transform="translate(-209.785 -259.405)" fill="#263238"/>
          <path id="Trazado_133124" data-name="Trazado 133124" d="M262.043,331.555s-4.865,9.549-11.083,7.988c-6.106-1.535-6.158-10.225-6.158-10.512,0,0,.312.131.876.339a37.223,37.223,0,0,0,7.59,1.951,41.776,41.776,0,0,0,7.571.3C261.594,331.59,262.043,331.555,262.043,331.555Z" transform="translate(-210.062 -261.137)" fill="#757575"/>
          <g id="Grupo_102304" data-name="Grupo 102304" transform="translate(39.366 50.082)">
            <path id="Trazado_133125" data-name="Trazado 133125" d="M254.307,310.43c.245,6-4.9,7.013-3.918,9.094a5.727,5.727,0,0,0,3.3,2.742" transform="translate(-249.796 -309.963)" fill="#fff"/>
            <path id="Trazado_133126" data-name="Trazado 133126" d="M253.659,322.7a.468.468,0,0,1-.128-.018,6.16,6.16,0,0,1-3.6-2.991c-.543-1.15.3-2.04,1.2-2.984a7.906,7.906,0,0,0,2.678-6.291.467.467,0,0,1,.447-.485.476.476,0,0,1,.486.447,8.819,8.819,0,0,1-2.935,6.97c-.943.995-1.276,1.42-1.028,1.943a5.257,5.257,0,0,0,3.01,2.494.466.466,0,0,1-.129.914Z" transform="translate(-249.763 -309.93)" fill="#263238"/>
          </g>
          <g id="Grupo_102305" data-name="Grupo 102305" transform="translate(34.274 67.416)">
            <path id="Trazado_133127" data-name="Trazado 133127" d="M252.332,340.153a6.2,6.2,0,0,1-1.515-.188c-6.5-1.631-6.516-10.6-6.514-10.983a.466.466,0,0,1,.466-.463h0a.466.466,0,0,1,.463.469c0,.085.022,8.621,5.81,10.072s10.5-7.655,10.548-7.745a.466.466,0,1,1,.83.422C262.234,332.107,258.066,340.153,252.332,340.153Z" transform="translate(-244.302 -328.518)" fill="#263238"/>
          </g>
          <g id="Grupo_102306" data-name="Grupo 102306" transform="translate(24.97 33.238)">
            <path id="Trazado_133128" data-name="Trazado 133128" d="M234.79,298.062a.458.458,0,0,1-.289-.1.466.466,0,0,1-.076-.655c.058-.073,5.892-7.281,14.757-4.989a.466.466,0,0,1-.234.9c-8.265-2.141-13.739,4.6-13.793,4.665A.465.465,0,0,1,234.79,298.062Z" transform="translate(-234.325 -291.867)" fill="#263238"/>
          </g>
          <g id="Grupo_102307" data-name="Grupo 102307" transform="translate(55.668 36.093)">
            <path id="Trazado_133129" data-name="Trazado 133129" d="M279.988,304.6a.467.467,0,0,1-.434-.295c-.032-.081-3.331-8.11-11.861-8.444a.466.466,0,0,1-.449-.485.458.458,0,0,1,.485-.448c9.146.359,12.657,8.945,12.691,9.032a.467.467,0,0,1-.261.606A.489.489,0,0,1,279.988,304.6Z" transform="translate(-267.245 -294.928)" fill="#263238"/>
          </g>
          <g id="Grupo_102310" data-name="Grupo 102310" transform="translate(75.55 39.186)">
            <g id="Grupo_102308" data-name="Grupo 102308" transform="translate(0 0.001)">
              <path id="Trazado_133130" data-name="Trazado 133130" d="M307.692,298.746l-1.737,1.92-1.344,1.489-15.544,9.028.641-4.355,12.726-7.4,2.754-.351Z" transform="translate(-288.6 -298.28)" fill="#92e3a9"/>
              <path id="Trazado_133131" data-name="Trazado 133131" d="M289.032,311.615a.467.467,0,0,1-.462-.534l.642-4.355a.468.468,0,0,1,.228-.336l12.726-7.4a.466.466,0,0,1,.175-.059l5.257-.68a.467.467,0,0,1,.406.776l-3.082,3.407a.478.478,0,0,1-.112.091l-15.544,9.029A.466.466,0,0,1,289.032,311.615Zm1.071-4.53-.468,3.175,14.645-8.506,2.182-2.415-3.909.5Z" transform="translate(-288.566 -298.246)" fill="#263238"/>
            </g>
            <g id="Grupo_102309" data-name="Grupo 102309" transform="translate(13.245)">
              <path id="Trazado_133132" data-name="Trazado 133132" d="M304.921,302.535c-2.3-.434-1.529-3.114-1.529-3.114l5.258-.675Z" transform="translate(-302.803 -298.279)" fill="#fff"/>
              <path id="Trazado_133133" data-name="Trazado 133133" d="M304.888,302.967a.454.454,0,0,1-.087-.008,2.337,2.337,0,0,1-1.644-1.06,3.683,3.683,0,0,1-.246-2.641.466.466,0,0,1,.389-.333l5.258-.675a.458.458,0,0,1,.477.255.467.467,0,0,1-.086.535l-3.729,3.788A.462.462,0,0,1,304.888,302.967Zm-1.141-3.159a2.462,2.462,0,0,0,.206,1.6,1.334,1.334,0,0,0,.788.573l2.6-2.64Z" transform="translate(-302.769 -298.245)" fill="#263238"/>
            </g>
            <path id="Trazado_133134" data-name="Trazado 133134" d="M308.853,298.746l-1.737,1.92a1.161,1.161,0,0,1-.767-1.592Z" transform="translate(-289.76 -298.279)" fill="#263238"/>
          </g>
          <path id="Trazado_133135" data-name="Trazado 133135" d="M270.687,275.436s-5.9,7.745-18.714,9.976c-16.046,2.795-24.9,16.678-24.687,22.465a49.392,49.392,0,0,1-2.743-25.539c3.183-21.295,23.053-27.389,37.5-25.9S283.465,272.4,283.465,272.4s10.848,8.448,9.277,19.1c-1.505,10.189-3.984,10.474-5.291,12.778-1.812,3.2.565,4.527-5.776,9.773,0,0,2.506-14.223-.605-24.835S270.687,275.436,270.687,275.436Z" transform="translate(-208.656 -256.223)" fill="#263238"/>
          <path id="Trazado_133136" data-name="Trazado 133136" d="M275.59,272.961s-5.656,21.611-37.825,24.991c0,0,21.67-3.919,31.688-23.719Z" transform="translate(-209.587 -257.352)" fill="#263238"/>
          <path id="Trazado_133137" data-name="Trazado 133137" d="M251.784,335.114s4.424-1.577,6.126,0c0,0-2.907,4.637-6.644,3.524s-4.536-5.593-4.536-5.593S248.754,332.1,251.784,335.114Z" transform="translate(-210.192 -261.398)" fill="#bfbfbf"/>
          <path id="Trazado_133138" data-name="Trazado 133138" d="M261.49,331.641l-1.263,1.427a26.082,26.082,0,0,1-14.518-2.317l-.438-1.554a40.7,40.7,0,0,0,8.028,2.135A48.746,48.746,0,0,0,261.49,331.641Z" transform="translate(-210.093 -261.148)" fill="#fff"/>
          <g id="Grupo_102311" data-name="Grupo 102311" transform="translate(32.884 66.837)">
            <path id="Trazado_133139" data-name="Trazado 133139" d="M258.459,332.167a40.441,40.441,0,0,1-15.378-3.379.467.467,0,0,1,.394-.846c.1.047,10.094,4.63,19.6,2.892a.473.473,0,0,1,.543.375.467.467,0,0,1-.375.543A26.635,26.635,0,0,1,258.459,332.167Z" transform="translate(-242.811 -327.898)" fill="#263238"/>
          </g>
          <g id="Grupo_102312" data-name="Grupo 102312" transform="translate(19.588 9.806)">
            <path id="Trazado_133140" data-name="Trazado 133140" d="M229.018,286.312a.467.467,0,0,1-.381-.733c.2-.29,5.156-7.113,21.88-8.487,16.275-1.338,23.159-10.084,23.227-10.172a.466.466,0,0,1,.741.566c-.285.373-7.177,9.161-23.892,10.535-16.235,1.334-21.146,8.026-21.193,8.094A.47.47,0,0,1,229.018,286.312Z" transform="translate(-228.553 -266.738)" fill="#757575"/>
          </g>
          <g id="Grupo_102313" data-name="Grupo 102313" transform="translate(22.653 10.528)">
            <path id="Trazado_133141" data-name="Trazado 133141" d="M232.305,270.87a.46.46,0,0,1-.2-.045.466.466,0,0,1-.223-.62c.827-1.758,3.113-2.374,4.759-2.685a.466.466,0,1,1,.173.916c-1.446.273-3.443.794-4.088,2.166A.466.466,0,0,1,232.305,270.87Z" transform="translate(-231.839 -267.513)" fill="#757575"/>
          </g>
          <g id="Grupo_102314" data-name="Grupo 102314" transform="translate(30.446 2.83)">
            <path id="Trazado_133142" data-name="Trazado 133142" d="M249.4,267.908c-3.051,0-6.006-.167-8.776-.392a.465.465,0,0,1-.427-.5.473.473,0,0,1,.5-.427c16.41,1.325,27.505-.9,35.977-7.236a.467.467,0,1,1,.56.747C268.873,266.351,258.7,267.908,249.4,267.908Z" transform="translate(-240.197 -259.257)" fill="#757575"/>
          </g>
          <g id="Grupo_102315" data-name="Grupo 102315" transform="translate(0 71.668)">
            <path id="Trazado_133143" data-name="Trazado 133143" d="M208.021,341.515a.466.466,0,0,1-.465-.449,10.852,10.852,0,0,1,3.04-7.825.466.466,0,0,1,.71.6,9.995,9.995,0,0,0-2.818,7.185.466.466,0,0,1-.448.484Z" transform="translate(-207.547 -333.078)" fill="#757575"/>
          </g>
          <g id="Grupo_102316" data-name="Grupo 102316" transform="translate(5.62 29.698)">
            <path id="Trazado_133144" data-name="Trazado 133144" d="M214.04,327.878a.466.466,0,0,1-.356-.767c4.339-5.112,3.13-10.379,1.85-15.957a35.531,35.531,0,0,1-1.288-9.6c.242-5.3,3.661-10.439,8.923-13.422a.466.466,0,1,1,.46.81c-4.985,2.826-8.224,7.675-8.451,12.654a34.831,34.831,0,0,0,1.265,9.348c1.333,5.811,2.593,11.3-2.048,16.767A.465.465,0,0,1,214.04,327.878Z" transform="translate(-213.574 -288.071)" fill="#757575"/>
          </g>
          <g id="Grupo_102317" data-name="Grupo 102317" transform="translate(11.913 60.02)">
            <path id="Trazado_133145" data-name="Trazado 133145" d="M225.524,347.835a.461.461,0,0,1-.238-.066c-2.593-1.543-4.187-3.44-4.737-5.639-.891-3.561,1.021-7.372,2.786-10.3,3.137-5.191-1.7-10.408-1.752-10.459a.466.466,0,0,1,.677-.642c.054.058,5.372,5.791,1.873,11.584-2.483,4.111-3.31,7.068-2.68,9.586.494,1.976,1.9,3.633,4.309,5.064a.466.466,0,0,1-.239.867Z" transform="translate(-220.322 -320.587)" fill="#757575"/>
          </g>
          <g id="Grupo_102318" data-name="Grupo 102318" transform="translate(47.313 31.353)">
            <path id="Trazado_133146" data-name="Trazado 133146" d="M258.751,292.657a.466.466,0,0,1-.2-.887,33.6,33.6,0,0,0,3.366-1.854.466.466,0,0,1,.5.789,34.57,34.57,0,0,1-3.461,1.907A.469.469,0,0,1,258.751,292.657Z" transform="translate(-258.285 -289.845)" fill="#757575"/>
          </g>
          <g id="Grupo_102319" data-name="Grupo 102319" transform="translate(53.647 17.586)">
            <path id="Trazado_133147" data-name="Trazado 133147" d="M265.543,287.714a.467.467,0,0,1-.289-.832,29.058,29.058,0,0,0,9.005-11.507.466.466,0,1,1,.865.346,29.981,29.981,0,0,1-9.291,11.892A.463.463,0,0,1,265.543,287.714Z" transform="translate(-265.077 -275.081)" fill="#757575"/>
          </g>
          <g id="Grupo_102320" data-name="Grupo 102320" transform="translate(66.741 18.354)">
            <path id="Trazado_133148" data-name="Trazado 133148" d="M289.912,305.144a.466.466,0,0,1-.4-.234c-.85-1.481-.542-4.03-.184-6.984.448-3.689.954-7.869-.5-11.278-2.587-6.065-9.393-9.83-9.461-9.867a.467.467,0,0,1,.446-.82c.291.159,7.156,3.952,9.873,10.32,1.553,3.64,1.006,8.14.569,11.757-.339,2.787-.629,5.194.066,6.406a.467.467,0,0,1-.4.7Z" transform="translate(-279.119 -275.905)" fill="#757575"/>
          </g>
          <g id="Grupo_102321" data-name="Grupo 102321" transform="translate(77.605 79.753)">
            <path id="Trazado_133149" data-name="Trazado 133149" d="M294.357,343.987a.429.429,0,0,1-.107-.012,10.688,10.688,0,0,1-3.263-1.365.466.466,0,0,1,.5-.789,9.784,9.784,0,0,0,2.979,1.247.466.466,0,0,1-.106.919Z" transform="translate(-290.77 -341.749)" fill="#757575"/>
          </g>
          <g id="Grupo_102322" data-name="Grupo 102322" transform="translate(72.074 71.043)">
            <path id="Trazado_133150" data-name="Trazado 133150" d="M288.138,339.588a.466.466,0,0,1-.367-.178,15.313,15.313,0,0,1-2.924-6.448.466.466,0,1,1,.916-.176,14.353,14.353,0,0,0,2.743,6.049.466.466,0,0,1-.367.753Z" transform="translate(-284.838 -332.407)" fill="#757575"/>
          </g>
          <g id="Grupo_102323" data-name="Grupo 102323" transform="translate(69.279 76.052)">
            <path id="Trazado_133151" data-name="Trazado 133151" d="M289.429,358.144a.466.466,0,0,1-.426-.657c.009-.022,1.093-2.745-3.116-7.115-4.621-4.8-4.035-11.87-4.008-12.169a.475.475,0,0,1,.506-.422.468.468,0,0,1,.422.506c-.007.069-.57,6.954,3.75,11.439,4.692,4.87,3.355,8.013,3.3,8.144A.466.466,0,0,1,289.429,358.144Z" transform="translate(-281.841 -337.779)" fill="#757575"/>
          </g>
          <g id="Grupo_102324" data-name="Grupo 102324" transform="translate(60.222 84.155)">
            <path id="Trazado_133152" data-name="Trazado 133152" d="M272.594,357a.466.466,0,0,1-.228-.874c3.9-2.18,1.4-8.959,1.376-9.027a.466.466,0,0,1,.873-.328c.117.309,2.792,7.6-1.794,10.169A.466.466,0,0,1,272.594,357Z" transform="translate(-272.128 -346.468)" fill="#757575"/>
          </g>
          <g id="Grupo_102325" data-name="Grupo 102325" transform="translate(72.074 16.385)">
            <path id="Trazado_133153" data-name="Trazado 133153" d="M297,290.849a.492.492,0,0,1-.131-.019.467.467,0,0,1-.318-.578c.015-.049,1.436-5.06.007-9.325-1.394-4.158-11.251-6.19-11.35-6.21a.466.466,0,1,1,.185-.914c.428.087,10.487,2.164,12.049,6.828,1.525,4.547.07,9.666.007,9.883A.466.466,0,0,1,297,290.849Z" transform="translate(-284.838 -273.793)" fill="#757575"/>
          </g>
        </g>
        <g id="Grupo_102327" data-name="Grupo 102327" transform="translate(0 81.13)">
          <path id="Trazado_133154" data-name="Trazado 133154" d="M144.232,433.859c-8.647-4.8-6.972-22.07-1.244-43.635C145.8,379.632,155.5,352.95,155.3,351.953a25.443,25.443,0,0,0-2.142-5.169s2.775-2.854,3.972-3.365c5.049-2.15,15-4.865,19.575-2.975,1.423.589,3.5,3.919,3.21,5.282s-4.381,5.837-3.99,10.121-3.33,18.448-3.226,24.085c.018,1.162.069,2.619.139,4.2.043,1.006-.011,18.645-6.8,27.66" transform="translate(-137.737 -339.356)" fill="#67c53a"/>
          <path id="Trazado_133155" data-name="Trazado 133155" d="M144.2,434.293a.472.472,0,0,1-.227-.059c-7.847-4.356-8.314-18.388-1.468-44.162,1.541-5.8,5.151-16.442,8.05-24.989,2.176-6.411,4.23-12.466,4.251-13.127a25.406,25.406,0,0,0-2.089-4.983.466.466,0,0,1,.076-.547c.291-.3,2.877-2.936,4.124-3.469,5.551-2.364,15.406-4.848,19.936-2.977,1.529.634,3.834,4.153,3.488,5.809a8.619,8.619,0,0,1-1.116,2.111c-1.245,2-3.126,5.021-2.866,7.871.2,2.219-.641,6.863-1.534,11.78-.856,4.715-1.741,9.591-1.691,12.339.018,1.159.07,2.612.138,4.186.008.178.195,18.55-6.887,27.961a.466.466,0,0,1-.745-.561c6.9-9.164,6.708-27.184,6.7-27.36-.069-1.583-.121-3.045-.139-4.21-.052-2.839.842-7.761,1.706-12.521.843-4.64,1.714-9.436,1.523-11.529-.288-3.162,1.692-6.343,3-8.449a9.453,9.453,0,0,0,1-1.814c.236-1.123-1.681-4.234-2.932-4.752-4.28-1.767-13.813.672-19.214,2.973a19.594,19.594,0,0,0-3.583,3.02,23.6,23.6,0,0,1,2.027,4.993c.1.508-.77,3.185-4.288,13.556-2.9,8.533-6.5,19.156-8.033,24.928-6.627,24.948-6.294,39.049,1.019,43.107a.467.467,0,0,1-.227.875Z" transform="translate(-137.702 -339.323)" fill="#263238"/>
        </g>
        <g id="Grupo_102333" data-name="Grupo 102333" transform="translate(13.459 28.728)">
          <g id="Grupo_102328" data-name="Grupo 102328">
            <path id="Trazado_133156" data-name="Trazado 133156" d="M173.344,296.128c.181,1.716,3.89,13.949,5.03,26.455a24.929,24.929,0,0,0,6.58-3.546c2.323-2.03,7.181-.408,6.978.945s-4.652,1.115-8.439,6.191-4.545,10.691-9.559,13.4-12.82,3.66-15.831.049-6.411-22.75-5.233-24.749a14.882,14.882,0,0,1,3.718-3.762s1.275-3.737,3.213-4.018,6.565-.389,6.565-.389a5.352,5.352,0,0,1,3.706-1.021s-1.509-14.365-2.837-19.185S171.82,281.712,173.344,296.128Z" transform="translate(-152.169 -283.161)" fill="#fff"/>
            <path id="Trazado_133157" data-name="Trazado 133157" d="M164.608,342.412c-2.87,0-5.432-.765-6.9-2.522-3.039-3.643-6.644-22.962-5.276-25.284a14.822,14.822,0,0,1,3.728-3.819c.288-.79,1.541-3.9,3.538-4.186,1.771-.257,5.653-.369,6.472-.39a5.916,5.916,0,0,1,3.276-1.063h.065c-.293-2.682-1.608-14.363-2.762-18.558-.385-1.4-.24-2.529.4-3.109a1.469,1.469,0,0,1,1.562-.233c1.783.679,4.179,4.439,5.062,12.8h0c.044.417.337,1.6.742,3.244a160.845,160.845,0,0,1,4.231,22.607,22.71,22.71,0,0,0,5.866-3.244c1.858-1.624,5.007-1.129,6.55-.285.861.471,1.286,1.057,1.2,1.651-.116.767-.928,1.108-2.051,1.579a14.073,14.073,0,0,0-6.476,4.821,36.881,36.881,0,0,0-3.253,5.547c-1.62,3.187-3.149,6.2-6.459,7.987A20.835,20.835,0,0,1,164.608,342.412Zm4.843-36.331a4.993,4.993,0,0,0-2.828.957.467.467,0,0,1-.281.1c-.046,0-4.62.11-6.509.384-1.356.2-2.509,2.742-2.839,3.709a.481.481,0,0,1-.175.232,14.452,14.452,0,0,0-3.582,3.614c-1,1.7,2.2,20.624,5.189,24.213,2.739,3.285,10.235,2.55,15.251-.159,3.053-1.652,4.452-4.4,6.072-7.59a37.537,37.537,0,0,1,3.336-5.683,14.9,14.9,0,0,1,6.864-5.124c.713-.3,1.451-.608,1.488-.857.016-.107-.166-.391-.722-.695-1.364-.748-4.031-1.1-5.488.17a25.025,25.025,0,0,1-6.731,3.635.467.467,0,0,1-.621-.4,157.813,157.813,0,0,0-4.264-23.079c-.43-1.74-.714-2.89-.765-3.369h0c-.9-8.507-3.315-11.585-4.467-12.024a.556.556,0,0,0-.6.051c-.268.243-.462.958-.128,2.172,1.322,4.8,2.789,18.673,2.851,19.261a.465.465,0,0,1-.524.511A4.071,4.071,0,0,0,169.452,306.081Z" transform="translate(-152.136 -283.128)" fill="#263238"/>
          </g>
          <g id="Grupo_102329" data-name="Grupo 102329" transform="translate(4.016 22.059)">
            <path id="Trazado_133158" data-name="Trazado 133158" d="M163.516,327.558a1.321,1.321,0,0,1-.358-.05c-1.377-.386-2.136-2.822-2.01-6.392-1.6-.416-4.531-1.335-4.7-2.525a.466.466,0,1,1,.923-.132c.1.429,2.179,1.309,4.371,1.846a.467.467,0,0,1,.355.477c-.206,3.947.672,5.649,1.313,5.828.389.106.737-.462.834-.641,1.054-1.953,1.287-6.073,1.289-6.115a.478.478,0,0,1,.478-.441.468.468,0,0,1,.454.466c0,1.359.315,5.144,1.744,6.321.213.176.392.239.531.194.384-.13.747-.981.871-1.515a.466.466,0,0,1,.784-.226c.244.244,1.08.917,1.684.806.1-.019.41-.076.684-.67a76.211,76.211,0,0,0,2.816-7.691c-.028-.534-1.714-7.742-5.442-9.423a.467.467,0,0,1,.384-.85c4.237,1.912,5.989,9.791,5.989,10.287a65.807,65.807,0,0,1-2.9,8.065,1.879,1.879,0,0,1-1.368,1.2,2.7,2.7,0,0,1-1.943-.594,2.462,2.462,0,0,1-1.259,1.495,1.441,1.441,0,0,1-1.425-.357,6.021,6.021,0,0,1-1.646-3.25,10.631,10.631,0,0,1-.905,2.743A1.862,1.862,0,0,1,163.516,327.558Z" transform="translate(-156.443 -306.783)" fill="#263238"/>
          </g>
          <g id="Grupo_102330" data-name="Grupo 102330" transform="translate(7.684 29.178)">
            <path id="Trazado_133159" data-name="Trazado 133159" d="M166.264,320.861a.467.467,0,0,1-.435-.3c-1.047-2.693-5.189-5.257-5.23-5.283a.466.466,0,1,1,.487-.794c.182.111,4.454,2.756,5.613,5.739a.466.466,0,0,1-.435.635Z" transform="translate(-160.376 -314.418)" fill="#263238"/>
          </g>
          <g id="Grupo_102331" data-name="Grupo 102331" transform="translate(14.381 26.875)">
            <path id="Trazado_133160" data-name="Trazado 133160" d="M170.814,325.8a.458.458,0,0,1-.152-.026.466.466,0,0,1-.288-.593c.908-2.624,2.023-6.694,1.656-7.53-.466-1.061-3.282-3.9-4.329-4.9a.467.467,0,0,1,.645-.674c.4.382,3.912,3.773,4.538,5.195.645,1.472-1.244,7.1-1.629,8.212A.468.468,0,0,1,170.814,325.8Z" transform="translate(-167.558 -311.948)" fill="#263238"/>
          </g>
          <g id="Grupo_102332" data-name="Grupo 102332" transform="translate(19.648 38.956)">
            <path id="Trazado_133161" data-name="Trazado 133161" d="M173.673,332.133a.467.467,0,0,1-.441-.62c1.942-5.564,6.25-6.559,6.431-6.6a.466.466,0,0,1,.2.911c-.162.036-3.987.944-5.75,6A.468.468,0,0,1,173.673,332.133Z" transform="translate(-173.206 -324.903)" fill="#263238"/>
          </g>
        </g>
        <g id="Grupo_102334" data-name="Grupo 102334" transform="translate(17.099 93.261)">
          <path id="Trazado_133162" data-name="Trazado 133162" d="M164.469,356.031a14.386,14.386,0,0,1-8.26-2.873.466.466,0,0,1,.592-.721c.269.221,6.642,5.331,13.581.864a.466.466,0,1,1,.5.783A11.665,11.665,0,0,1,164.469,356.031Z" transform="translate(-156.039 -352.332)" fill="#263238"/>
        </g>
        <g id="Grupo_102335" data-name="Grupo 102335" transform="translate(18.648 109.867)">
          <path id="Trazado_133163" data-name="Trazado 133163" d="M158.166,372.837a.466.466,0,0,1-.12-.917,17.145,17.145,0,0,0,4.068-1.718.466.466,0,0,1,.464.808,18.151,18.151,0,0,1-4.29,1.811A.539.539,0,0,1,158.166,372.837Z" transform="translate(-157.7 -370.141)" fill="#263238"/>
        </g>
        <g id="Grupo_102336" data-name="Grupo 102336" transform="translate(26.152 91.493)">
          <path id="Trazado_133164" data-name="Trazado 133164" d="M166.214,367.459a.466.466,0,0,1-.292-.83,54.27,54.27,0,0,0,12.929-15.953.466.466,0,0,1,.815.454,55.226,55.226,0,0,1-13.161,16.227A.471.471,0,0,1,166.214,367.459Z" transform="translate(-165.747 -350.436)" fill="#263238"/>
        </g>
        <g id="Grupo_102337" data-name="Grupo 102337" transform="translate(64.834 111.517)">
          <path id="Trazado_133165" data-name="Trazado 133165" d="M228.757,388.744a.483.483,0,0,1-.187-.039c-7.76-3.42-20.648-15.477-21.193-15.989a.466.466,0,0,1,.639-.679c.131.124,13.316,12.458,20.931,15.813a.467.467,0,0,1-.189.893Z" transform="translate(-207.229 -371.909)" fill="#263238"/>
        </g>
        <g id="Grupo_102338" data-name="Grupo 102338" transform="translate(51.587 125.016)">
          <path id="Trazado_133166" data-name="Trazado 133166" d="M194.663,392.46a.466.466,0,0,1-.464-.428A21.975,21.975,0,0,0,193.047,387a.466.466,0,1,1,.885-.295,22.888,22.888,0,0,1,1.2,5.251.465.465,0,0,1-.426.5Z" transform="translate(-193.023 -386.385)" fill="#263238"/>
        </g>
        <g id="Grupo_102339" data-name="Grupo 102339" transform="translate(46.97 114.445)">
          <path id="Trazado_133167" data-name="Trazado 133167" d="M191.789,382.908a.465.465,0,0,1-.431-.289c-.976-2.361-2.063-4.678-3.232-6.886a.467.467,0,1,1,.824-.437c1.182,2.235,2.283,4.58,3.269,6.968a.466.466,0,0,1-.253.608A.448.448,0,0,1,191.789,382.908Z" transform="translate(-188.072 -375.049)" fill="#263238"/>
        </g>
        <g id="Grupo_102340" data-name="Grupo 102340" transform="translate(101.202 122.302)">
          <path id="Trazado_133168" data-name="Trazado 133168" d="M246.841,393.638h-.151a.466.466,0,0,1,.007-.933h.152c1.921,0,22.211-.222,35.287-9.15a.467.467,0,1,1,.527.77C269.357,393.409,248.807,393.638,246.841,393.638Z" transform="translate(-246.23 -383.475)" fill="#263238"/>
        </g>
        <g id="Grupo_102341" data-name="Grupo 102341" transform="translate(141.539 114.058)">
          <path id="Trazado_133169" data-name="Trazado 133169" d="M289.952,380a.459.459,0,0,1-.3-.107.466.466,0,0,1-.062-.656,28.16,28.16,0,0,1,5.2-4.525.466.466,0,1,1,.519.774,27.9,27.9,0,0,0-5,4.345A.467.467,0,0,1,289.952,380Z" transform="translate(-289.486 -374.635)" fill="#263238"/>
        </g>
        <g id="Grupo_102342" data-name="Grupo 102342" transform="translate(149.994 129.995)">
          <path id="Trazado_133170" data-name="Trazado 133170" d="M299.02,398.579a.466.466,0,0,1-.23-.871,34.359,34.359,0,0,0,7.453-5.844.466.466,0,1,1,.665.654,35.256,35.256,0,0,1-7.658,6A.458.458,0,0,1,299.02,398.579Z" transform="translate(-298.553 -391.725)" fill="#263238"/>
        </g>
        <g id="Grupo_102343" data-name="Grupo 102343" transform="translate(159.994 124.212)">
          <path id="Trazado_133171" data-name="Trazado 133171" d="M309.742,389.53a.466.466,0,0,1-.358-.764,34.5,34.5,0,0,0,2.269-3.033.466.466,0,1,1,.78.512,35.709,35.709,0,0,1-2.331,3.116A.465.465,0,0,1,309.742,389.53Z" transform="translate(-309.276 -385.523)" fill="#263238"/>
        </g>
        <g id="Grupo_102344" data-name="Grupo 102344" transform="translate(47.568 141.752)">
          <path id="Trazado_133172" data-name="Trazado 133172" d="M189.179,420.374a.467.467,0,0,1-.369-.752c.052-.067,5.2-6.845,5.1-14.817a.466.466,0,0,1,.46-.473h.007a.467.467,0,0,1,.466.46c.108,8.3-5.07,15.114-5.291,15.4A.465.465,0,0,1,189.179,420.374Z" transform="translate(-188.713 -404.333)" fill="#263238"/>
        </g>
        <g id="Grupo_102345" data-name="Grupo 102345" transform="translate(160.393 145.016)">
          <path id="Trazado_133173" data-name="Trazado 133173" d="M310.206,432.7a.466.466,0,0,1-.463-.428c-.012-.14-1.05-14.16,8.69-24.3a.467.467,0,0,1,.672.647c-9.442,9.826-8.445,23.437-8.434,23.573a.465.465,0,0,1-.426.5Z" transform="translate(-309.705 -407.833)" fill="#263238"/>
        </g>
        <g id="Grupo_102346" data-name="Grupo 102346" transform="translate(160.569 152.631)">
          <path id="Trazado_133174" data-name="Trazado 133174" d="M310.36,428.439a.466.466,0,0,1-.4-.709c1.16-1.909,4.308-5.055,6.837-7.583a41.749,41.749,0,0,0,3.452-3.657.466.466,0,0,1,.8-.353c.437.438-.062,1.024-.913,1.942-.667.72-1.6,1.651-2.675,2.728-2.495,2.493-5.6,5.6-6.7,7.409A.462.462,0,0,1,310.36,428.439ZM320.387,416.8h0Zm0,0" transform="translate(-309.894 -416)" fill="#263238"/>
        </g>
        <g id="Grupo_102347" data-name="Grupo 102347" transform="translate(75.365 186.824)">
          <path id="Trazado_133175" data-name="Trazado 133175" d="M266.789,465.99c-16.526,0-47.657-12.3-47.972-12.424a.467.467,0,0,1,.344-.867c.314.125,31.279,12.359,47.621,12.359.172,0,.339,0,.506,0a.459.459,0,0,1,.474.459.467.467,0,0,1-.459.474C267.134,465.989,266.962,465.99,266.789,465.99Z" transform="translate(-218.522 -452.667)" fill="#263238"/>
        </g>
        <g id="Grupo_102350" data-name="Grupo 102350" transform="translate(86.303 106.595)">
          <g id="Grupo_102348" data-name="Grupo 102348" transform="translate(18.599 49.562)">
            <path id="Rectángulo_36598" data-name="Rectángulo 36598" d="M1.191,0H4.8A1.191,1.191,0,0,1,5.994,1.191v5.6A1.192,1.192,0,0,1,4.8,7.986H1.191A1.191,1.191,0,0,1,0,6.794v-5.6A1.191,1.191,0,0,1,1.191,0Z" transform="translate(0.592 0.592)" fill="#bfbfbf"/>
            <path id="Trazado_133176" data-name="Trazado 133176" d="M255.672,428.951H251.9a1.7,1.7,0,0,1-1.7-1.7v-5.764a1.705,1.705,0,0,1,1.7-1.7h3.772a1.7,1.7,0,0,1,1.7,1.7v5.764A1.7,1.7,0,0,1,255.672,428.951Zm-3.772-7.986a.52.52,0,0,0-.518.518v5.764a.519.519,0,0,0,.518.519h3.772a.52.52,0,0,0,.519-.519v-5.764a.52.52,0,0,0-.519-.518Z" transform="translate(-250.197 -419.781)" fill="#263238"/>
          </g>
          <g id="Grupo_102349" data-name="Grupo 102349">
            <path id="Trazado_133177" data-name="Trazado 133177" d="M252.441,416.374a.467.467,0,0,1-.366-.178c-1.023-1.3-25.029-31.909-21.461-44.73a6.908,6.908,0,0,1,4.47-4.8.466.466,0,0,1,.327.873,5.944,5.944,0,0,0-3.9,4.179c-3.2,11.493,17.724,39.27,20.9,43.39,16.776-25.634,17.788-37.211,15.662-42.41a5.8,5.8,0,0,0-3.741-3.7.466.466,0,0,1,.19-.912,6.684,6.684,0,0,1,4.4,4.218c2.252,5.435,1.29,17.457-16.087,43.862a.47.47,0,0,1-.37.211Z" transform="translate(-230.252 -366.632)" fill="#263238"/>
          </g>
          <path id="Trazado_133178" data-name="Trazado 133178" d="M254.594,418.916c0,.643-.286,1.166-.641,1.166s-.642-.522-.642-1.166.287-1.166.642-1.166S254.594,418.272,254.594,418.916Z" transform="translate(-231.809 -370.082)" fill="#263238"/>
        </g>
      </g>
    </g>
  </g>
</svg>
