<svg xmlns="http://www.w3.org/2000/svg" width="400" height="362" viewBox="0 0 400 362">
  <g id="Grupo_117113" data-name="Grupo 117113" transform="translate(-1020 -3621)">
    <path id="Trazado_141904" data-name="Trazado 141904" d="M0,0H400V362H0Z" transform="translate(1020 3621)" fill="#fff7df"/>
    <g id="Grupo_105944" data-name="Grupo 105944" transform="translate(1079.596 3649.995)" opacity="0.35">
      <g id="Grupo_105943" data-name="Grupo 105943">
        <path id="Trazado_137240" data-name="Trazado 137240" d="M544.894,514.729l-8.822,2.866a141.836,141.836,0,0,0-107.9-90.372l22.358,24.228a11.7,11.7,0,0,1,0,15.79l-25.493,27.626a75.208,75.208,0,0,1,47.575,43.349L462.1,541.63a4.227,4.227,0,0,0-.46,7.86l53.809,24.752a4.225,4.225,0,0,0,5.453-1.772l28.984-51.652A4.227,4.227,0,0,0,544.894,514.729Z" transform="translate(-255.069 -411.584)" fill="#161615"/>
        <path id="Trazado_137241" data-name="Trazado 137241" d="M508.912,463.282l-40.168-43.526a4.228,4.228,0,0,0-7.335,2.866v9.3A141.613,141.613,0,0,0,342.142,506.58l29.927-13.765a11.635,11.635,0,0,1,15.017,4.878l18.4,32.8a74.94,74.94,0,0,1,55.921-31.863v11.048a4.228,4.228,0,0,0,7.335,2.867l40.168-43.526A4.229,4.229,0,0,0,508.912,463.282Z" transform="translate(-318.897 -418.387)" fill="#161615"/>
        <path id="Trazado_137242" data-name="Trazado 137242" d="M414.724,523.924a4.227,4.227,0,0,0,4.991-6.089l-28.983-51.653a4.225,4.225,0,0,0-5.452-1.772l-53.809,24.751a4.227,4.227,0,0,0,.46,7.86l8.829,2.869A141.7,141.7,0,0,0,374.92,636.379l-3.843-32.7a11.7,11.7,0,0,1,9.282-12.774l36.876-7.368a74.878,74.878,0,0,1-13.029-63.033Z" transform="translate(-329.009 -383.249)" fill="#161615"/>
        <path id="Trazado_137243" data-name="Trazado 137243" d="M517.329,612.539l-32.313-6.455a11.7,11.7,0,0,1-9.282-12.774l4.386-37.325a75.046,75.046,0,0,1-63.98-7.1l6.508-8.958A4.226,4.226,0,0,0,418.4,533.3l-58.08,11.6a4.225,4.225,0,0,0-3.37,4.639l6.912,58.824a4.227,4.227,0,0,0,7.618,1.991l5.478-7.538a141.574,141.574,0,0,0,140.37,9.721Z" transform="translate(-307.517 -329.974)" fill="#161615"/>
        <path id="Trazado_137244" data-name="Trazado 137244" d="M542.386,514.385a142.564,142.564,0,0,0-1.328-19.28L524.941,523.83a11.639,11.639,0,0,1-15.017,4.88L475.773,513c.009.462.025.92.025,1.384a74.853,74.853,0,0,1-26.559,57.245l-6.487-8.928a4.227,4.227,0,0,0-7.618,1.991l-6.914,58.824a4.229,4.229,0,0,0,3.37,4.639l58.082,11.6a4.226,4.226,0,0,0,4.248-6.629l-5.467-7.526A141.385,141.385,0,0,0,542.386,514.385Z" transform="translate(-252.641 -359.316)" fill="#161615"/>
      </g>
    </g>
    <path id="Trazado_137245" data-name="Trazado 137245" d="M544.894,514.729l-8.822,2.866a141.836,141.836,0,0,0-107.9-90.372l22.358,24.228a11.7,11.7,0,0,1,0,15.79l-25.493,27.626a75.208,75.208,0,0,1,47.575,43.349L462.1,541.63a4.227,4.227,0,0,0-.46,7.86l53.809,24.752a4.225,4.225,0,0,0,5.453-1.772l28.984-51.652A4.227,4.227,0,0,0,544.894,514.729Z" transform="translate(824.527 3238.411)" fill="#fc8116"/>
    <path id="Trazado_137246" data-name="Trazado 137246" d="M508.912,463.282l-40.168-43.526a4.228,4.228,0,0,0-7.335,2.866v9.3A141.613,141.613,0,0,0,342.142,506.58l29.927-13.765a11.635,11.635,0,0,1,15.017,4.878l18.4,32.8a74.94,74.94,0,0,1,55.921-31.863v11.048a4.228,4.228,0,0,0,7.335,2.867l40.168-43.526A4.229,4.229,0,0,0,508.912,463.282Z" transform="translate(760.698 3231.607)" fill="#67c53a"/>
    <path id="Trazado_137247" data-name="Trazado 137247" d="M414.724,523.924a4.227,4.227,0,0,0,4.991-6.089l-28.983-51.653a4.225,4.225,0,0,0-5.452-1.772l-53.809,24.751a4.227,4.227,0,0,0,.46,7.86l8.829,2.869A141.7,141.7,0,0,0,374.92,636.379l-3.843-32.7a11.7,11.7,0,0,1,9.282-12.774l36.876-7.368a74.878,74.878,0,0,1-13.029-63.033Z" transform="translate(750.586 3266.746)" fill="#fde07e"/>
    <path id="Trazado_137248" data-name="Trazado 137248" d="M517.329,612.539l-32.313-6.455a11.7,11.7,0,0,1-9.282-12.774l4.386-37.325a75.046,75.046,0,0,1-63.98-7.1l6.508-8.958A4.226,4.226,0,0,0,418.4,533.3l-58.08,11.6a4.225,4.225,0,0,0-3.37,4.639l6.912,58.824a4.227,4.227,0,0,0,7.618,1.991l5.478-7.538a141.574,141.574,0,0,0,140.37,9.721Z" transform="translate(772.078 3320.021)" fill="#fdab64"/>
    <path id="Trazado_137249" data-name="Trazado 137249" d="M542.386,514.385a142.564,142.564,0,0,0-1.328-19.28L524.941,523.83a11.639,11.639,0,0,1-15.017,4.88L475.773,513c.009.462.025.92.025,1.384a74.853,74.853,0,0,1-26.559,57.245l-6.487-8.928a4.227,4.227,0,0,0-7.618,1.991l-6.914,58.824a4.229,4.229,0,0,0,3.37,4.639l58.082,11.6a4.226,4.226,0,0,0,4.248-6.629l-5.467-7.526A141.385,141.385,0,0,0,542.386,514.385Z" transform="translate(826.955 3290.679)" fill="#529d2e"/>
    <g id="Grupo_105945" data-name="Grupo 105945" transform="translate(1221.573 3687.456)">
      <path id="Trazado_137250" data-name="Trazado 137250" d="M422.385,448.889c0,5.878-2.306,9.563-6.664,9.563-4.22,0-6.469-3.827-6.5-9.393,0-5.682,2.42-9.507,6.694-9.507C420.331,439.552,422.385,443.489,422.385,448.889Zm-9.675.17c-.028,4.443,1.211,6.749,3.122,6.749,2.025,0,3.094-2.474,3.094-6.862,0-4.246-1.012-6.749-3.094-6.749C413.977,442.2,412.682,444.474,412.71,449.059Z" transform="translate(-409.223 -439.552)" fill="#12263f"/>
      <path id="Trazado_137251" data-name="Trazado 137251" d="M422.684,442.849h-.057l-3.347,1.687-.589-2.616,4.443-2.193h2.9v18.28h-3.347Z" transform="translate(-401.933 -439.417)" fill="#12263f"/>
    </g>
    <g id="Grupo_105946" data-name="Grupo 105946" transform="translate(1317.306 3767.195)">
      <path id="Trazado_137252" data-name="Trazado 137252" d="M476.473,493.94c0,5.878-2.308,9.563-6.666,9.563-4.218,0-6.469-3.825-6.5-9.393,0-5.682,2.42-9.507,6.694-9.507C474.419,484.6,476.473,488.54,476.473,493.94Zm-9.675.17c-.03,4.443,1.209,6.749,3.12,6.749,2.025,0,3.094-2.474,3.094-6.862,0-4.246-1.012-6.749-3.094-6.749C468.064,487.247,466.769,489.525,466.8,494.11Z" transform="translate(-463.31 -484.603)" fill="#12263f"/>
      <path id="Trazado_137253" data-name="Trazado 137253" d="M471.967,503.193v-2.11l2.166-2c4.3-3.993,6.328-6.186,6.356-8.606,0-1.63-.873-3.066-3.262-3.066a6.658,6.658,0,0,0-3.91,1.519l-1.012-2.448a9.057,9.057,0,0,1,5.625-1.883c4.05,0,6.018,2.559,6.018,5.54,0,3.207-2.306,5.793-5.483,8.747l-1.6,1.377v.057h7.508v2.869Z" transform="translate(-456.644 -484.603)" fill="#12263f"/>
    </g>
    <g id="Grupo_105947" data-name="Grupo 105947" transform="translate(1274.998 3884.535)">
      <path id="Trazado_137254" data-name="Trazado 137254" d="M452.57,560.235c0,5.876-2.308,9.563-6.666,9.563-4.218,0-6.469-3.827-6.5-9.4,0-5.68,2.419-9.507,6.694-9.507C450.517,550.9,452.57,554.835,452.57,560.235Zm-9.675.168c-.028,4.443,1.209,6.751,3.12,6.751,2.025,0,3.094-2.476,3.094-6.864,0-4.246-1.013-6.749-3.094-6.749C444.161,553.541,442.867,555.819,442.9,560.4Z" transform="translate(-439.407 -550.897)" fill="#12263f"/>
      <path id="Trazado_137255" data-name="Trazado 137255" d="M448.8,565.915a9.023,9.023,0,0,0,4.161,1.126c2.644,0,3.713-1.49,3.683-2.926,0-2.165-2.023-3.092-4.133-3.092h-1.6v-2.531h1.549c1.6,0,3.627-.733,3.627-2.559,0-1.239-.927-2.28-2.926-2.28a7.362,7.362,0,0,0-3.74,1.154l-.788-2.5a9.874,9.874,0,0,1,5.26-1.407c3.768,0,5.708,2.082,5.708,4.473a4.458,4.458,0,0,1-3.375,4.274v.057a4.614,4.614,0,0,1,4.021,4.556c0,3.094-2.586,5.542-7.114,5.542a9.979,9.979,0,0,1-5.119-1.267Z" transform="translate(-432.778 -550.897)" fill="#12263f"/>
    </g>
    <g id="Grupo_105948" data-name="Grupo 105948" transform="translate(1147.922 3880.104)">
      <path id="Trazado_137256" data-name="Trazado 137256" d="M380.775,557.731c0,5.878-2.306,9.563-6.666,9.563-4.218,0-6.468-3.825-6.5-9.393,0-5.682,2.421-9.507,6.7-9.507C378.722,548.394,380.775,552.331,380.775,557.731Zm-9.675.17c-.028,4.443,1.209,6.749,3.12,6.749,2.027,0,3.1-2.475,3.1-6.862,0-4.246-1.012-6.749-3.1-6.749C372.366,551.038,371.072,553.316,371.1,557.9Z" transform="translate(-367.612 -548.394)" fill="#12263f"/>
      <path id="Trazado_137257" data-name="Trazado 137257" d="M384.173,566.849v-4.641H375.9v-2.25l7.453-11.39h4.078v11.023H389.8v2.616h-2.363v4.641Zm0-7.257v-4.977c0-1.041.028-2.11.112-3.177h-.112c-.563,1.152-1.041,2.08-1.6,3.092l-3.347,5.005-.026.057Z" transform="translate(-361.227 -548.259)" fill="#12263f"/>
    </g>
    <g id="Grupo_105949" data-name="Grupo 105949" transform="translate(1110.991 3758.232)">
      <path id="Trazado_137258" data-name="Trazado 137258" d="M359.91,488.877c0,5.876-2.306,9.562-6.666,9.562-4.218,0-6.467-3.825-6.5-9.393,0-5.68,2.42-9.507,6.694-9.507C357.857,479.539,359.91,483.477,359.91,488.877Zm-9.675.168c-.028,4.443,1.209,6.751,3.12,6.751,2.027,0,3.094-2.476,3.094-6.864,0-4.246-1.011-6.749-3.094-6.749C351.5,482.183,350.207,484.461,350.236,489.046Z" transform="translate(-346.747 -479.539)" fill="#12263f"/>
      <path id="Trazado_137259" data-name="Trazado 137259" d="M367.032,482.583H360l-.535,3.657a9.141,9.141,0,0,1,1.322-.085,8.16,8.16,0,0,1,4.443,1.181,5.242,5.242,0,0,1,2.389,4.641c0,3.487-2.9,6.328-7.395,6.328a10.539,10.539,0,0,1-4.837-1.067l.7-2.618a9.239,9.239,0,0,0,4.023.958c2.023,0,3.965-1.154,3.965-3.347,0-2.081-1.547-3.459-5.2-3.459a15.813,15.813,0,0,0-2.5.168l1.209-9.225h9.45Z" transform="translate(-340.093 -479.404)" fill="#12263f"/>
    </g>
    <path id="Trazado_141905" data-name="Trazado 141905" d="M8.176-3.129a3.375,3.375,0,0,1-.521,1.7A3.141,3.141,0,0,1,6.319-.279,4.548,4.548,0,0,1,4.354.127,3.629,3.629,0,0,1,1.485-1.06,4.9,4.9,0,0,1,.438-4.412v-.457A5.594,5.594,0,0,1,.911-7.246,3.583,3.583,0,0,1,2.272-8.82a3.8,3.8,0,0,1,2.057-.555,3.984,3.984,0,0,1,2.7.885A3.5,3.5,0,0,1,8.195-6.049H5.973a1.655,1.655,0,0,0-.425-1.212A1.749,1.749,0,0,0,4.329-7.63a1.331,1.331,0,0,0-1.219.622A4,4,0,0,0,2.7-5.021v.654a4.424,4.424,0,0,0,.371,2.114,1.359,1.359,0,0,0,1.279.635A1.711,1.711,0,0,0,5.529-1.98,1.536,1.536,0,0,0,5.96-3.129Zm3.282,1.416h3.878V0H9.229V-9.242h2.228ZM18.649,0H16.428V-9.242h2.222ZM25.93-3.923h-3.5v2.209h4.139V0H20.2V-9.242h6.379v1.72H22.426v1.949h3.5ZM35.191,0H32.976L29.7-5.751V0H27.473V-9.242H29.7L32.97-3.491V-9.242h2.222Zm8.665-7.522H41.082V0H38.854V-7.522H36.131v-1.72h7.725Zm6.671,3.6h-3.5v2.209h4.139V0H44.8V-9.242h6.379v1.72H47.023v1.949h3.5Z" transform="translate(1199.479 3822.631)" fill="#12263f"/>
    <path id="Trazado_141906" data-name="Trazado 141906" d="M-64.347-4.225H-68.12v2.379h4.457V0H-70.52V-9.953h6.87V-8.1H-68.12V-6h3.773Zm5.428,2.146a.532.532,0,0,0-.308-.472A4.679,4.679,0,0,0-60.4-2.919a5.33,5.33,0,0,1-1.422-.5,2.382,2.382,0,0,1-.854-.755A1.8,1.8,0,0,1-62.966-5.2a2.044,2.044,0,0,1,.841-1.678,3.464,3.464,0,0,1,2.2-.66,3.837,3.837,0,0,1,2.352.663,2.074,2.074,0,0,1,.889,1.743h-2.311q0-.889-.937-.889a.928.928,0,0,0-.608.2.624.624,0,0,0-.246.5.573.573,0,0,0,.3.5,2.842,2.842,0,0,0,.96.314,8.3,8.3,0,0,1,1.159.294A2.105,2.105,0,0,1-56.7-2.146,1.937,1.937,0,0,1-57.6-.5a3.942,3.942,0,0,1-2.328.636,4.023,4.023,0,0,1-1.7-.342,2.835,2.835,0,0,1-1.162-.93A2.105,2.105,0,0,1-63.2-2.372h2.153a.89.89,0,0,0,.342.749,1.406,1.406,0,0,0,.841.236,1.106,1.106,0,0,0,.708-.191A.612.612,0,0,0-58.919-2.078Zm5.981-7.157V-7.4h1.217v1.6h-1.217v3.384a.864.864,0,0,0,.15.581.807.807,0,0,0,.595.164,3.38,3.38,0,0,0,.574-.041V-.062a4.252,4.252,0,0,1-1.3.2,2.413,2.413,0,0,1-1.757-.561,2.3,2.3,0,0,1-.567-1.7V-5.8h-.943V-7.4h.943V-9.235Zm6.6,3.924-.759-.055a1.363,1.363,0,0,0-1.395.684V0h-2.3V-7.4h2.16l.075.95a1.784,1.784,0,0,1,1.62-1.087,2.247,2.247,0,0,1,.643.082ZM-41.549,0a2.6,2.6,0,0,1-.219-.663,2.142,2.142,0,0,1-1.777.8A2.624,2.624,0,0,1-45.322-.5a2.013,2.013,0,0,1-.731-1.589A2.069,2.069,0,0,1-45.165-3.9a4.527,4.527,0,0,1,2.584-.615h.711V-4.91q0-1.023-.882-1.023a.721.721,0,0,0-.82.811h-2.3a2.065,2.065,0,0,1,.913-1.741,3.835,3.835,0,0,1,2.328-.669,3.363,3.363,0,0,1,2.235.69,2.4,2.4,0,0,1,.841,1.894v3.274a3.353,3.353,0,0,0,.314,1.559V0Zm-1.442-1.5a1.285,1.285,0,0,0,.714-.185,1.157,1.157,0,0,0,.407-.417V-3.288h-.67q-1.2,0-1.2,1.08a.659.659,0,0,0,.212.509A.767.767,0,0,0-42.991-1.5Zm7.39-7.731V-7.4h1.217v1.6H-35.6v3.384a.864.864,0,0,0,.15.581.807.807,0,0,0,.595.164,3.38,3.38,0,0,0,.574-.041V-.062a4.252,4.252,0,0,1-1.3.2,2.413,2.413,0,0,1-1.757-.561,2.3,2.3,0,0,1-.567-1.7V-5.8h-.943V-7.4h.943V-9.235ZM-29.9.137A3.8,3.8,0,0,1-32.655-.878a3.506,3.506,0,0,1-1.053-2.642v-.191a4.542,4.542,0,0,1,.42-2,3.076,3.076,0,0,1,1.227-1.343,3.7,3.7,0,0,1,1.914-.475,3.2,3.2,0,0,1,2.461.967,3.8,3.8,0,0,1,.9,2.7v.9h-4.58a1.66,1.66,0,0,0,.54.978,1.607,1.607,0,0,0,1.08.355,2.07,2.07,0,0,0,1.709-.766l1.053,1.244a2.943,2.943,0,0,1-1.22.947A4.123,4.123,0,0,1-29.9.137Zm-.26-5.893q-1.012,0-1.2,1.34h2.324v-.178a1.141,1.141,0,0,0-.28-.858A1.115,1.115,0,0,0-30.16-5.756Zm4.033,2a4.994,4.994,0,0,1,.369-1.982,2.972,2.972,0,0,1,1.06-1.33,2.793,2.793,0,0,1,1.606-.468,2.221,2.221,0,0,1,1.8.779l.082-.643h2.092V-.28a3.118,3.118,0,0,1-.455,1.7,2.917,2.917,0,0,1-1.316,1.107,4.837,4.837,0,0,1-2,.386A4.173,4.173,0,0,1-24.456,2.6a2.844,2.844,0,0,1-1.166-.8l.964-1.354a2.112,2.112,0,0,0,1.7.759A1.372,1.372,0,0,0-21.431-.362V-.595a2.163,2.163,0,0,1-1.675.731A2.673,2.673,0,0,1-25.293-.9a4.291,4.291,0,0,1-.834-2.772Zm2.311.144a2.631,2.631,0,0,0,.342,1.439,1.078,1.078,0,0,0,.957.53,1.224,1.224,0,0,0,1.087-.5V-5.25A1.193,1.193,0,0,0-22.5-5.756a1.086,1.086,0,0,0-.964.55A3,3,0,0,0-23.816-3.609ZM-15.374,0h-2.311V-7.4h2.311Zm-2.447-9.3a1.028,1.028,0,0,1,.355-.807,1.341,1.341,0,0,1,.923-.314,1.341,1.341,0,0,1,.923.314,1.028,1.028,0,0,1,.355.807,1.028,1.028,0,0,1-.355.807,1.341,1.341,0,0,1-.923.314,1.341,1.341,0,0,1-.923-.314A1.028,1.028,0,0,1-17.821-9.3ZM-9.789,0a2.6,2.6,0,0,1-.219-.663,2.142,2.142,0,0,1-1.777.8A2.624,2.624,0,0,1-13.562-.5a2.013,2.013,0,0,1-.731-1.589A2.069,2.069,0,0,1-13.405-3.9a4.527,4.527,0,0,1,2.584-.615h.711V-4.91q0-1.023-.882-1.023a.721.721,0,0,0-.82.811h-2.3A2.065,2.065,0,0,1-13.2-6.864a3.835,3.835,0,0,1,2.328-.669,3.363,3.363,0,0,1,2.235.69A2.4,2.4,0,0,1-7.8-4.949v3.274A3.353,3.353,0,0,0-7.485-.116V0Zm-1.442-1.5a1.285,1.285,0,0,0,.714-.185,1.157,1.157,0,0,0,.407-.417V-3.288h-.67q-1.2,0-1.2,1.08a.659.659,0,0,0,.212.509A.767.767,0,0,0-11.231-1.5Zm8.579-.574A.532.532,0,0,0-2.96-2.55a4.679,4.679,0,0,0-1.169-.369,5.33,5.33,0,0,1-1.422-.5,2.382,2.382,0,0,1-.854-.755A1.8,1.8,0,0,1-6.7-5.2a2.044,2.044,0,0,1,.841-1.678,3.464,3.464,0,0,1,2.2-.66,3.837,3.837,0,0,1,2.352.663A2.074,2.074,0,0,1-.417-5.127H-2.728q0-.889-.937-.889a.928.928,0,0,0-.608.2.624.624,0,0,0-.246.5.573.573,0,0,0,.3.5,2.842,2.842,0,0,0,.96.314A8.3,8.3,0,0,1-2.1-4.2,2.105,2.105,0,0,1-.431-2.146,1.937,1.937,0,0,1-1.33-.5,3.942,3.942,0,0,1-3.657.137a4.023,4.023,0,0,1-1.7-.342,2.835,2.835,0,0,1-1.162-.93,2.105,2.105,0,0,1-.417-1.237h2.153a.89.89,0,0,0,.342.749,1.406,1.406,0,0,0,.841.236,1.106,1.106,0,0,0,.708-.191A.612.612,0,0,0-2.652-2.078Zm-65.5,16.708a3.635,3.635,0,0,1-.561,1.835A3.383,3.383,0,0,1-70.154,17.7a4.9,4.9,0,0,1-2.116.438,3.908,3.908,0,0,1-3.09-1.278,5.278,5.278,0,0,1-1.128-3.609v-.492a6.025,6.025,0,0,1,.509-2.56,3.859,3.859,0,0,1,1.466-1.7A4.091,4.091,0,0,1-72.3,7.9a4.29,4.29,0,0,1,2.912.954,3.768,3.768,0,0,1,1.251,2.628h-2.393a1.783,1.783,0,0,0-.458-1.306,1.884,1.884,0,0,0-1.312-.4,1.433,1.433,0,0,0-1.312.67,4.306,4.306,0,0,0-.437,2.14v.7a4.764,4.764,0,0,0,.4,2.276,1.463,1.463,0,0,0,1.377.684A1.842,1.842,0,0,0-71,15.867a1.654,1.654,0,0,0,.465-1.237Zm.738-.4a4.366,4.366,0,0,1,.431-1.972,3.08,3.08,0,0,1,1.237-1.33,3.726,3.726,0,0,1,1.894-.465A3.4,3.4,0,0,1-61.236,11.5a3.948,3.948,0,0,1,.957,2.8v.082a3.83,3.83,0,0,1-.96,2.745,3.41,3.41,0,0,1-2.6,1.015,3.449,3.449,0,0,1-2.536-.947,3.7,3.7,0,0,1-1.032-2.567Zm2.3.144a2.752,2.752,0,0,0,.321,1.5,1.07,1.07,0,0,0,.95.479q1.23,0,1.258-1.894v-.232q0-1.989-1.271-1.989-1.155,0-1.251,1.716Zm7.964-3.773.075.868a2.508,2.508,0,0,1,2.112-1,2.11,2.11,0,0,1,1.726.69,3.287,3.287,0,0,1,.591,2.078V18h-2.311V13.331a1.248,1.248,0,0,0-.226-.824,1.044,1.044,0,0,0-.82-.263,1.1,1.1,0,0,0-1,.533V18h-2.3V10.6Zm9.652,5.318a.532.532,0,0,0-.308-.472,4.679,4.679,0,0,0-1.169-.369,5.33,5.33,0,0,1-1.422-.5,2.382,2.382,0,0,1-.854-.755,1.8,1.8,0,0,1-.294-1.019,2.044,2.044,0,0,1,.841-1.678,3.464,3.464,0,0,1,2.2-.66,3.837,3.837,0,0,1,2.352.663,2.074,2.074,0,0,1,.889,1.743h-2.311q0-.889-.937-.889a.928.928,0,0,0-.608.2.624.624,0,0,0-.246.5.573.573,0,0,0,.3.5,2.842,2.842,0,0,0,.96.314,8.3,8.3,0,0,1,1.159.294,2.105,2.105,0,0,1,1.668,2.058,1.937,1.937,0,0,1-.9,1.647,3.942,3.942,0,0,1-2.328.636,4.023,4.023,0,0,1-1.7-.342,2.835,2.835,0,0,1-1.162-.93,2.105,2.105,0,0,1-.417-1.237h2.153a.89.89,0,0,0,.342.749,1.406,1.406,0,0,0,.841.236,1.106,1.106,0,0,0,.708-.191A.612.612,0,0,0-47.5,15.922Zm7.7,1.278a2.375,2.375,0,0,1-1.976.937,2.329,2.329,0,0,1-1.842-.708,2.976,2.976,0,0,1-.625-2.034V10.6h2.3v4.806a.828.828,0,0,0,.923.95,1.2,1.2,0,0,0,1.128-.567V10.6h2.317V18h-2.16Zm5.667-6.6.075.868a2.543,2.543,0,0,1,2.112-1,1.872,1.872,0,0,1,1.894,1.114,2.462,2.462,0,0,1,2.174-1.114q2.249,0,2.311,2.721V18H-27.87V13.331a1.41,1.41,0,0,0-.191-.827.815.815,0,0,0-.7-.26,1.091,1.091,0,0,0-1.019.608l.007.1V18h-2.311V13.345a1.482,1.482,0,0,0-.185-.841.812.812,0,0,0-.7-.26,1.1,1.1,0,0,0-1.012.608V18h-2.3V10.6ZM-21.813,18h-2.311V10.6h2.311Zm-2.447-9.3a1.028,1.028,0,0,1,.355-.807,1.341,1.341,0,0,1,.923-.314,1.341,1.341,0,0,1,.923.314A1.028,1.028,0,0,1-21.7,8.7a1.028,1.028,0,0,1-.355.807,1.341,1.341,0,0,1-.923.314,1.341,1.341,0,0,1-.923-.314A1.028,1.028,0,0,1-24.261,8.7Zm3.575,5.551a4.518,4.518,0,0,1,.759-2.769,2.5,2.5,0,0,1,2.119-1.012,2.124,2.124,0,0,1,1.668.779V7.5h2.311V18H-15.9l-.116-.793a2.181,2.181,0,0,1-1.8.93,2.493,2.493,0,0,1-2.092-1.012A4.661,4.661,0,0,1-20.686,14.247Zm2.3.144q0,1.969,1.148,1.969a1.134,1.134,0,0,0,1.094-.643V12.9a1.1,1.1,0,0,0-1.08-.656q-1.066,0-1.155,1.723Zm5.571-.157a4.366,4.366,0,0,1,.431-1.972,3.08,3.08,0,0,1,1.237-1.33,3.726,3.726,0,0,1,1.894-.465A3.4,3.4,0,0,1-6.631,11.5a3.948,3.948,0,0,1,.957,2.8v.082a3.83,3.83,0,0,1-.96,2.745,3.41,3.41,0,0,1-2.6,1.015,3.449,3.449,0,0,1-2.536-.947A3.7,3.7,0,0,1-12.8,14.623Zm2.3.144a2.752,2.752,0,0,0,.321,1.5,1.07,1.07,0,0,0,.95.479q1.23,0,1.258-1.894v-.232q0-1.989-1.271-1.989-1.155,0-1.251,1.716ZM-.185,12.688l-.759-.055a1.363,1.363,0,0,0-1.395.684V18h-2.3V10.6h2.16l.075.95a1.784,1.784,0,0,1,1.62-1.087,2.247,2.247,0,0,1,.643.082Z" transform="translate(1201 3687.385)" fill="#12263f"/>
    <path id="Trazado_141907" data-name="Trazado 141907" d="M-64.347-4.225H-68.12v2.379h4.457V0H-70.52V-9.953h6.87V-8.1H-68.12V-6h3.773Zm5.428,2.146a.532.532,0,0,0-.308-.472A4.679,4.679,0,0,0-60.4-2.919a5.33,5.33,0,0,1-1.422-.5,2.382,2.382,0,0,1-.854-.755A1.8,1.8,0,0,1-62.966-5.2a2.044,2.044,0,0,1,.841-1.678,3.464,3.464,0,0,1,2.2-.66,3.837,3.837,0,0,1,2.352.663,2.074,2.074,0,0,1,.889,1.743h-2.311q0-.889-.937-.889a.928.928,0,0,0-.608.2.624.624,0,0,0-.246.5.573.573,0,0,0,.3.5,2.842,2.842,0,0,0,.96.314,8.3,8.3,0,0,1,1.159.294A2.105,2.105,0,0,1-56.7-2.146,1.937,1.937,0,0,1-57.6-.5a3.942,3.942,0,0,1-2.328.636,4.023,4.023,0,0,1-1.7-.342,2.835,2.835,0,0,1-1.162-.93A2.105,2.105,0,0,1-63.2-2.372h2.153a.89.89,0,0,0,.342.749,1.406,1.406,0,0,0,.841.236,1.106,1.106,0,0,0,.708-.191A.612.612,0,0,0-58.919-2.078Zm5.981-7.157V-7.4h1.217v1.6h-1.217v3.384a.864.864,0,0,0,.15.581.807.807,0,0,0,.595.164,3.38,3.38,0,0,0,.574-.041V-.062a4.252,4.252,0,0,1-1.3.2,2.413,2.413,0,0,1-1.757-.561,2.3,2.3,0,0,1-.567-1.7V-5.8h-.943V-7.4h.943V-9.235Zm6.6,3.924-.759-.055a1.363,1.363,0,0,0-1.395.684V0h-2.3V-7.4h2.16l.075.95a1.784,1.784,0,0,1,1.62-1.087,2.247,2.247,0,0,1,.643.082ZM-41.549,0a2.6,2.6,0,0,1-.219-.663,2.142,2.142,0,0,1-1.777.8A2.624,2.624,0,0,1-45.322-.5a2.013,2.013,0,0,1-.731-1.589A2.069,2.069,0,0,1-45.165-3.9a4.527,4.527,0,0,1,2.584-.615h.711V-4.91q0-1.023-.882-1.023a.721.721,0,0,0-.82.811h-2.3a2.065,2.065,0,0,1,.913-1.741,3.835,3.835,0,0,1,2.328-.669,3.363,3.363,0,0,1,2.235.69,2.4,2.4,0,0,1,.841,1.894v3.274a3.353,3.353,0,0,0,.314,1.559V0Zm-1.442-1.5a1.285,1.285,0,0,0,.714-.185,1.157,1.157,0,0,0,.407-.417V-3.288h-.67q-1.2,0-1.2,1.08a.659.659,0,0,0,.212.509A.767.767,0,0,0-42.991-1.5Zm7.39-7.731V-7.4h1.217v1.6H-35.6v3.384a.864.864,0,0,0,.15.581.807.807,0,0,0,.595.164,3.38,3.38,0,0,0,.574-.041V-.062a4.252,4.252,0,0,1-1.3.2,2.413,2.413,0,0,1-1.757-.561,2.3,2.3,0,0,1-.567-1.7V-5.8h-.943V-7.4h.943V-9.235ZM-29.9.137A3.8,3.8,0,0,1-32.655-.878a3.506,3.506,0,0,1-1.053-2.642v-.191a4.542,4.542,0,0,1,.42-2,3.076,3.076,0,0,1,1.227-1.343,3.7,3.7,0,0,1,1.914-.475,3.2,3.2,0,0,1,2.461.967,3.8,3.8,0,0,1,.9,2.7v.9h-4.58a1.66,1.66,0,0,0,.54.978,1.607,1.607,0,0,0,1.08.355,2.07,2.07,0,0,0,1.709-.766l1.053,1.244a2.943,2.943,0,0,1-1.22.947A4.123,4.123,0,0,1-29.9.137Zm-.26-5.893q-1.012,0-1.2,1.34h2.324v-.178a1.141,1.141,0,0,0-.28-.858A1.115,1.115,0,0,0-30.16-5.756Zm4.033,2a4.994,4.994,0,0,1,.369-1.982,2.972,2.972,0,0,1,1.06-1.33,2.793,2.793,0,0,1,1.606-.468,2.221,2.221,0,0,1,1.8.779l.082-.643h2.092V-.28a3.118,3.118,0,0,1-.455,1.7,2.917,2.917,0,0,1-1.316,1.107,4.837,4.837,0,0,1-2,.386A4.173,4.173,0,0,1-24.456,2.6a2.844,2.844,0,0,1-1.166-.8l.964-1.354a2.112,2.112,0,0,0,1.7.759A1.372,1.372,0,0,0-21.431-.362V-.595a2.163,2.163,0,0,1-1.675.731A2.673,2.673,0,0,1-25.293-.9a4.291,4.291,0,0,1-.834-2.772Zm2.311.144a2.631,2.631,0,0,0,.342,1.439,1.078,1.078,0,0,0,.957.53,1.224,1.224,0,0,0,1.087-.5V-5.25A1.193,1.193,0,0,0-22.5-5.756a1.086,1.086,0,0,0-.964.55A3,3,0,0,0-23.816-3.609ZM-15.374,0h-2.311V-7.4h2.311Zm-2.447-9.3a1.028,1.028,0,0,1,.355-.807,1.341,1.341,0,0,1,.923-.314,1.341,1.341,0,0,1,.923.314,1.028,1.028,0,0,1,.355.807,1.028,1.028,0,0,1-.355.807,1.341,1.341,0,0,1-.923.314,1.341,1.341,0,0,1-.923-.314A1.028,1.028,0,0,1-17.821-9.3ZM-9.789,0a2.6,2.6,0,0,1-.219-.663,2.142,2.142,0,0,1-1.777.8A2.624,2.624,0,0,1-13.562-.5a2.013,2.013,0,0,1-.731-1.589A2.069,2.069,0,0,1-13.405-3.9a4.527,4.527,0,0,1,2.584-.615h.711V-4.91q0-1.023-.882-1.023a.721.721,0,0,0-.82.811h-2.3A2.065,2.065,0,0,1-13.2-6.864a3.835,3.835,0,0,1,2.328-.669,3.363,3.363,0,0,1,2.235.69A2.4,2.4,0,0,1-7.8-4.949v3.274A3.353,3.353,0,0,0-7.485-.116V0Zm-1.442-1.5a1.285,1.285,0,0,0,.714-.185,1.157,1.157,0,0,0,.407-.417V-3.288h-.67q-1.2,0-1.2,1.08a.659.659,0,0,0,.212.509A.767.767,0,0,0-11.231-1.5Zm8.579-.574A.532.532,0,0,0-2.96-2.55a4.679,4.679,0,0,0-1.169-.369,5.33,5.33,0,0,1-1.422-.5,2.382,2.382,0,0,1-.854-.755A1.8,1.8,0,0,1-6.7-5.2a2.044,2.044,0,0,1,.841-1.678,3.464,3.464,0,0,1,2.2-.66,3.837,3.837,0,0,1,2.352.663A2.074,2.074,0,0,1-.417-5.127H-2.728q0-.889-.937-.889a.928.928,0,0,0-.608.2.624.624,0,0,0-.246.5.573.573,0,0,0,.3.5,2.842,2.842,0,0,0,.96.314A8.3,8.3,0,0,1-2.1-4.2,2.105,2.105,0,0,1-.431-2.146,1.937,1.937,0,0,1-1.33-.5,3.942,3.942,0,0,1-3.657.137a4.023,4.023,0,0,1-1.7-.342,2.835,2.835,0,0,1-1.162-.93,2.105,2.105,0,0,1-.417-1.237h2.153a.89.89,0,0,0,.342.749,1.406,1.406,0,0,0,.841.236,1.106,1.106,0,0,0,.708-.191A.612.612,0,0,0-2.652-2.078ZM-72.789,15.354a.986.986,0,0,0-.373-.82,4.631,4.631,0,0,0-1.309-.608A12.559,12.559,0,0,1-76,13.317a2.9,2.9,0,0,1-1.935-2.611,2.342,2.342,0,0,1,.482-1.459,3.117,3.117,0,0,1,1.364-.984,5.307,5.307,0,0,1,1.982-.352,4.642,4.642,0,0,1,1.924.383,3.047,3.047,0,0,1,1.323,1.09A2.847,2.847,0,0,1-70.39,11h-2.393a1.2,1.2,0,0,0-.373-.943,1.452,1.452,0,0,0-1.008-.335,1.638,1.638,0,0,0-1.015.284.87.87,0,0,0-.373.721.876.876,0,0,0,.41.694,5.172,5.172,0,0,0,1.442.643,8.836,8.836,0,0,1,1.7.714,2.849,2.849,0,0,1,1.613,2.563,2.43,2.43,0,0,1-.984,2.051,4.378,4.378,0,0,1-2.7.745,5.357,5.357,0,0,1-2.191-.434,3.3,3.3,0,0,1-1.477-1.189,3.1,3.1,0,0,1-.5-1.74h2.406a1.526,1.526,0,0,0,.414,1.179,1.955,1.955,0,0,0,1.343.379,1.544,1.544,0,0,0,.94-.256A.846.846,0,0,0-72.789,15.354ZM-65.1,18a2.6,2.6,0,0,1-.219-.663,2.142,2.142,0,0,1-1.777.8,2.624,2.624,0,0,1-1.777-.632,2.013,2.013,0,0,1-.731-1.589,2.069,2.069,0,0,1,.889-1.818,4.527,4.527,0,0,1,2.584-.615h.711V13.09q0-1.023-.882-1.023a.721.721,0,0,0-.82.811h-2.3a2.065,2.065,0,0,1,.913-1.741,3.835,3.835,0,0,1,2.328-.669,3.363,3.363,0,0,1,2.235.69,2.4,2.4,0,0,1,.841,1.894v3.274a3.353,3.353,0,0,0,.314,1.559V18Zm-1.442-1.5a1.285,1.285,0,0,0,.714-.185,1.157,1.157,0,0,0,.407-.417V14.712h-.67q-1.2,0-1.2,1.08a.659.659,0,0,0,.212.509A.767.767,0,0,0-66.541,16.5Zm7.39-7.731V10.6h1.217v1.6h-1.217v3.384a.864.864,0,0,0,.15.581.807.807,0,0,0,.595.164,3.38,3.38,0,0,0,.574-.041v1.647a4.252,4.252,0,0,1-1.3.2,2.413,2.413,0,0,1-1.757-.561,2.3,2.3,0,0,1-.567-1.7V12.2H-62.4V10.6h.943V8.765ZM-54.6,18h-2.311V10.6H-54.6Zm-2.447-9.3a1.028,1.028,0,0,1,.355-.807,1.341,1.341,0,0,1,.923-.314,1.341,1.341,0,0,1,.923.314,1.028,1.028,0,0,1,.355.807,1.028,1.028,0,0,1-.355.807,1.341,1.341,0,0,1-.923.314A1.341,1.341,0,0,1-56.69,9.5,1.028,1.028,0,0,1-57.046,8.7Zm7.738,7.226a.532.532,0,0,0-.308-.472,4.679,4.679,0,0,0-1.169-.369,5.33,5.33,0,0,1-1.422-.5,2.382,2.382,0,0,1-.854-.755,1.8,1.8,0,0,1-.294-1.019,2.044,2.044,0,0,1,.841-1.678,3.464,3.464,0,0,1,2.2-.66,3.837,3.837,0,0,1,2.352.663,2.074,2.074,0,0,1,.889,1.743h-2.311q0-.889-.937-.889a.928.928,0,0,0-.608.2.624.624,0,0,0-.246.5.573.573,0,0,0,.3.5,2.842,2.842,0,0,0,.96.314,8.3,8.3,0,0,1,1.159.294,2.105,2.105,0,0,1,1.668,2.058,1.937,1.937,0,0,1-.9,1.647,3.942,3.942,0,0,1-2.328.636,4.023,4.023,0,0,1-1.7-.342,2.835,2.835,0,0,1-1.162-.93,2.105,2.105,0,0,1-.417-1.237h2.153a.89.89,0,0,0,.342.749,1.406,1.406,0,0,0,.841.236,1.106,1.106,0,0,0,.708-.191A.612.612,0,0,0-49.308,15.922ZM-45.5,18V12.2h-1.073V10.6H-45.5v-.588a2.556,2.556,0,0,1,.745-1.962,2.944,2.944,0,0,1,2.092-.7,4.581,4.581,0,0,1,1.08.144l.007,1.7a2.1,2.1,0,0,0-.567-.062q-1.046,0-1.046.9V10.6h1.442v1.6h-1.442V18Zm8.729,0a2.6,2.6,0,0,1-.219-.663,2.142,2.142,0,0,1-1.777.8,2.624,2.624,0,0,1-1.777-.632,2.013,2.013,0,0,1-.731-1.589,2.069,2.069,0,0,1,.889-1.818,4.527,4.527,0,0,1,2.584-.615h.711V13.09q0-1.023-.882-1.023a.721.721,0,0,0-.82.811h-2.3a2.065,2.065,0,0,1,.913-1.741,3.835,3.835,0,0,1,2.328-.669,3.363,3.363,0,0,1,2.235.69,2.4,2.4,0,0,1,.841,1.894v3.274a3.353,3.353,0,0,0,.314,1.559V18Zm-1.442-1.5a1.285,1.285,0,0,0,.714-.185,1.157,1.157,0,0,0,.407-.417V14.712h-.67q-1.2,0-1.2,1.08a.659.659,0,0,0,.212.509A.767.767,0,0,0-38.213,16.5Zm7.834-.137a1.025,1.025,0,0,0,.752-.263.965.965,0,0,0,.26-.735h2.16a2.557,2.557,0,0,1-.872,2,3.242,3.242,0,0,1-2.246.779,3.282,3.282,0,0,1-2.543-1.012,3.986,3.986,0,0,1-.93-2.8v-.1a4.505,4.505,0,0,1,.414-1.979,3.011,3.011,0,0,1,1.193-1.319,3.557,3.557,0,0,1,1.846-.461,3.2,3.2,0,0,1,2.29.8,2.837,2.837,0,0,1,.848,2.167h-2.16a1.265,1.265,0,0,0-.28-.882.967.967,0,0,0-.752-.308q-.9,0-1.046,1.142a8.056,8.056,0,0,0-.048,1,3.164,3.164,0,0,0,.267,1.545A.923.923,0,0,0-30.379,16.359Zm7.273,0a1.025,1.025,0,0,0,.752-.263.965.965,0,0,0,.26-.735h2.16a2.557,2.557,0,0,1-.872,2,3.242,3.242,0,0,1-2.246.779,3.282,3.282,0,0,1-2.543-1.012,3.986,3.986,0,0,1-.93-2.8v-.1a4.505,4.505,0,0,1,.414-1.979,3.011,3.011,0,0,1,1.193-1.319,3.557,3.557,0,0,1,1.846-.461,3.2,3.2,0,0,1,2.29.8,2.837,2.837,0,0,1,.848,2.167h-2.16a1.265,1.265,0,0,0-.28-.882.967.967,0,0,0-.752-.308q-.9,0-1.046,1.142a8.056,8.056,0,0,0-.048,1,3.164,3.164,0,0,0,.267,1.545A.923.923,0,0,0-23.105,16.359ZM-16.529,18H-18.84V10.6h2.311Zm-2.447-9.3a1.028,1.028,0,0,1,.355-.807,1.341,1.341,0,0,1,.923-.314,1.341,1.341,0,0,1,.923.314,1.028,1.028,0,0,1,.355.807,1.028,1.028,0,0,1-.355.807,1.341,1.341,0,0,1-.923.314,1.341,1.341,0,0,1-.923-.314A1.028,1.028,0,0,1-18.977,8.7Zm3.575,5.537a4.366,4.366,0,0,1,.431-1.972,3.08,3.08,0,0,1,1.237-1.33,3.726,3.726,0,0,1,1.894-.465A3.4,3.4,0,0,1-9.222,11.5a3.948,3.948,0,0,1,.957,2.8v.082a3.83,3.83,0,0,1-.96,2.745,3.41,3.41,0,0,1-2.6,1.015,3.449,3.449,0,0,1-2.536-.947,3.7,3.7,0,0,1-1.032-2.567Zm2.3.144a2.752,2.752,0,0,0,.321,1.5,1.07,1.07,0,0,0,.95.479q1.23,0,1.258-1.894v-.232q0-1.989-1.271-1.989-1.155,0-1.251,1.716ZM-11.525,7.5h2.434l-1.9,2.146-1.88,0Zm6.392,3.1.075.868a2.508,2.508,0,0,1,2.112-1,2.11,2.11,0,0,1,1.726.69,3.287,3.287,0,0,1,.591,2.078V18H-2.939V13.331a1.248,1.248,0,0,0-.226-.824,1.044,1.044,0,0,0-.82-.263,1.1,1.1,0,0,0-1,.533V18h-2.3V10.6Z" transform="translate(1238.479 3932.005)" fill="#12263f"/>
    <path id="Trazado_141908" data-name="Trazado 141908" d="M6.925-4.225H3.151v2.379H7.608V0H.752V-9.953h6.87V-8.1H3.151V-6H6.925Zm5.428,2.146a.532.532,0,0,0-.308-.472,4.679,4.679,0,0,0-1.169-.369,5.33,5.33,0,0,1-1.422-.5A2.382,2.382,0,0,1,8.6-4.177,1.8,1.8,0,0,1,8.306-5.2a2.044,2.044,0,0,1,.841-1.678,3.464,3.464,0,0,1,2.2-.66A3.837,3.837,0,0,1,13.7-6.87a2.074,2.074,0,0,1,.889,1.743H12.277q0-.889-.937-.889a.928.928,0,0,0-.608.2.624.624,0,0,0-.246.5.573.573,0,0,0,.3.5,2.842,2.842,0,0,0,.96.314,8.3,8.3,0,0,1,1.159.294,2.105,2.105,0,0,1,1.668,2.058,1.937,1.937,0,0,1-.9,1.647,3.942,3.942,0,0,1-2.328.636,4.023,4.023,0,0,1-1.7-.342,2.835,2.835,0,0,1-1.162-.93,2.105,2.105,0,0,1-.417-1.237h2.153a.89.89,0,0,0,.342.749,1.406,1.406,0,0,0,.841.236,1.106,1.106,0,0,0,.708-.191A.612.612,0,0,0,12.353-2.078Zm5.981-7.157V-7.4h1.217v1.6H18.334v3.384a.864.864,0,0,0,.15.581.807.807,0,0,0,.595.164,3.38,3.38,0,0,0,.574-.041V-.062a4.252,4.252,0,0,1-1.3.2A2.413,2.413,0,0,1,16.6-.424a2.3,2.3,0,0,1-.567-1.7V-5.8h-.943V-7.4h.943V-9.235Zm6.6,3.924-.759-.055a1.363,1.363,0,0,0-1.395.684V0h-2.3V-7.4h2.16l.075.95a1.784,1.784,0,0,1,1.62-1.087,2.247,2.247,0,0,1,.643.082ZM29.723,0A2.6,2.6,0,0,1,29.5-.663a2.142,2.142,0,0,1-1.777.8A2.624,2.624,0,0,1,25.949-.5a2.013,2.013,0,0,1-.731-1.589A2.069,2.069,0,0,1,26.106-3.9a4.527,4.527,0,0,1,2.584-.615H29.4V-4.91q0-1.023-.882-1.023a.721.721,0,0,0-.82.811H25.4a2.065,2.065,0,0,1,.913-1.741,3.835,3.835,0,0,1,2.328-.669,3.363,3.363,0,0,1,2.235.69,2.4,2.4,0,0,1,.841,1.894v3.274a3.353,3.353,0,0,0,.314,1.559V0ZM28.28-1.5a1.285,1.285,0,0,0,.714-.185,1.157,1.157,0,0,0,.407-.417V-3.288h-.67q-1.2,0-1.2,1.08a.659.659,0,0,0,.212.509A.767.767,0,0,0,28.28-1.5Zm7.39-7.731V-7.4h1.217v1.6H35.67v3.384a.864.864,0,0,0,.15.581.807.807,0,0,0,.595.164,3.38,3.38,0,0,0,.574-.041V-.062a4.252,4.252,0,0,1-1.3.2,2.413,2.413,0,0,1-1.757-.561,2.3,2.3,0,0,1-.567-1.7V-5.8h-.943V-7.4h.943V-9.235Zm5.7,9.372A3.8,3.8,0,0,1,38.616-.878a3.506,3.506,0,0,1-1.053-2.642v-.191a4.542,4.542,0,0,1,.42-2,3.076,3.076,0,0,1,1.227-1.343,3.7,3.7,0,0,1,1.914-.475,3.2,3.2,0,0,1,2.461.967,3.8,3.8,0,0,1,.9,2.7v.9h-4.58a1.66,1.66,0,0,0,.54.978,1.607,1.607,0,0,0,1.08.355,2.07,2.07,0,0,0,1.709-.766L44.29-1.162a2.943,2.943,0,0,1-1.22.947A4.123,4.123,0,0,1,41.371.137Zm-.26-5.893q-1.012,0-1.2,1.34h2.324v-.178a1.141,1.141,0,0,0-.28-.858A1.115,1.115,0,0,0,41.111-5.756Zm4.033,2a4.994,4.994,0,0,1,.369-1.982,2.972,2.972,0,0,1,1.06-1.33,2.793,2.793,0,0,1,1.606-.468,2.221,2.221,0,0,1,1.8.779l.082-.643h2.092V-.28a3.118,3.118,0,0,1-.455,1.7,2.917,2.917,0,0,1-1.316,1.107,4.837,4.837,0,0,1-2,.386A4.173,4.173,0,0,1,46.816,2.6a2.844,2.844,0,0,1-1.166-.8L46.614.451a2.112,2.112,0,0,0,1.7.759A1.372,1.372,0,0,0,49.841-.362V-.595a2.163,2.163,0,0,1-1.675.731A2.673,2.673,0,0,1,45.979-.9a4.291,4.291,0,0,1-.834-2.772Zm2.311.144A2.631,2.631,0,0,0,47.8-2.17a1.078,1.078,0,0,0,.957.53,1.224,1.224,0,0,0,1.087-.5V-5.25a1.193,1.193,0,0,0-1.073-.506,1.086,1.086,0,0,0-.964.55A3,3,0,0,0,47.455-3.609ZM55.9,0H53.587V-7.4H55.9ZM53.45-9.3a1.028,1.028,0,0,1,.355-.807,1.341,1.341,0,0,1,.923-.314,1.341,1.341,0,0,1,.923.314,1.028,1.028,0,0,1,.355.807,1.028,1.028,0,0,1-.355.807,1.341,1.341,0,0,1-.923.314,1.341,1.341,0,0,1-.923-.314A1.028,1.028,0,0,1,53.45-9.3ZM61.482,0a2.6,2.6,0,0,1-.219-.663,2.142,2.142,0,0,1-1.777.8A2.624,2.624,0,0,1,57.709-.5a2.013,2.013,0,0,1-.731-1.589A2.069,2.069,0,0,1,57.866-3.9a4.527,4.527,0,0,1,2.584-.615h.711V-4.91q0-1.023-.882-1.023a.721.721,0,0,0-.82.811h-2.3a2.065,2.065,0,0,1,.913-1.741A3.835,3.835,0,0,1,60.4-7.533a3.363,3.363,0,0,1,2.235.69,2.4,2.4,0,0,1,.841,1.894v3.274a3.353,3.353,0,0,0,.314,1.559V0ZM60.04-1.5a1.285,1.285,0,0,0,.714-.185,1.157,1.157,0,0,0,.407-.417V-3.288h-.67q-1.2,0-1.2,1.08A.659.659,0,0,0,59.5-1.7.767.767,0,0,0,60.04-1.5Zm8.579-.574a.532.532,0,0,0-.308-.472,4.679,4.679,0,0,0-1.169-.369,5.33,5.33,0,0,1-1.422-.5,2.382,2.382,0,0,1-.854-.755A1.8,1.8,0,0,1,64.572-5.2a2.044,2.044,0,0,1,.841-1.678,3.464,3.464,0,0,1,2.2-.66,3.837,3.837,0,0,1,2.352.663,2.074,2.074,0,0,1,.889,1.743H68.544q0-.889-.937-.889a.928.928,0,0,0-.608.2.624.624,0,0,0-.246.5.573.573,0,0,0,.3.5,2.842,2.842,0,0,0,.96.314,8.3,8.3,0,0,1,1.159.294,2.105,2.105,0,0,1,1.668,2.058,1.937,1.937,0,0,1-.9,1.647,3.942,3.942,0,0,1-2.328.636,4.023,4.023,0,0,1-1.7-.342,2.835,2.835,0,0,1-1.162-.93,2.105,2.105,0,0,1-.417-1.237h2.153a.89.89,0,0,0,.342.749,1.406,1.406,0,0,0,.841.236,1.106,1.106,0,0,0,.708-.191A.612.612,0,0,0,68.619-2.078ZM8.8,14.63a3.635,3.635,0,0,1-.561,1.835A3.383,3.383,0,0,1,6.805,17.7a4.9,4.9,0,0,1-2.116.438A3.908,3.908,0,0,1,1.6,16.858,5.278,5.278,0,0,1,.472,13.249v-.492A6.025,6.025,0,0,1,.981,10.2,3.859,3.859,0,0,1,2.447,8.5a4.091,4.091,0,0,1,2.215-.6,4.29,4.29,0,0,1,2.912.954,3.768,3.768,0,0,1,1.251,2.628H6.433a1.783,1.783,0,0,0-.458-1.306,1.884,1.884,0,0,0-1.312-.4,1.433,1.433,0,0,0-1.312.67,4.306,4.306,0,0,0-.437,2.14v.7a4.764,4.764,0,0,0,.4,2.276,1.463,1.463,0,0,0,1.377.684,1.842,1.842,0,0,0,1.265-.39,1.654,1.654,0,0,0,.465-1.237Zm.738-.4a4.366,4.366,0,0,1,.431-1.972,3.08,3.08,0,0,1,1.237-1.33,3.726,3.726,0,0,1,1.894-.465A3.4,3.4,0,0,1,15.723,11.5a3.948,3.948,0,0,1,.957,2.8v.082a3.83,3.83,0,0,1-.96,2.745,3.41,3.41,0,0,1-2.6,1.015,3.449,3.449,0,0,1-2.536-.947A3.7,3.7,0,0,1,9.55,14.623Zm2.3.144a2.752,2.752,0,0,0,.321,1.5,1.07,1.07,0,0,0,.95.479q1.23,0,1.258-1.894v-.232q0-1.989-1.271-1.989-1.155,0-1.251,1.716ZM19.872,10.6l.075.868a2.543,2.543,0,0,1,2.112-1,1.872,1.872,0,0,1,1.894,1.114,2.462,2.462,0,0,1,2.174-1.114q2.249,0,2.311,2.721V18H26.127V13.331a1.41,1.41,0,0,0-.191-.827.815.815,0,0,0-.7-.26,1.091,1.091,0,0,0-1.019.608l.007.1V18H21.916V13.345a1.482,1.482,0,0,0-.185-.841.812.812,0,0,0-.7-.26,1.1,1.1,0,0,0-1.012.608V18h-2.3V10.6Zm14.287,6.6a2.375,2.375,0,0,1-1.976.937,2.329,2.329,0,0,1-1.842-.708,2.976,2.976,0,0,1-.625-2.034V10.6h2.3v4.806a.828.828,0,0,0,.923.95,1.2,1.2,0,0,0,1.128-.567V10.6h2.317V18h-2.16Zm5.605-6.6.075.868a2.508,2.508,0,0,1,2.112-1,2.11,2.11,0,0,1,1.726.69,3.287,3.287,0,0,1,.591,2.078V18H41.959V13.331a1.248,1.248,0,0,0-.226-.824,1.044,1.044,0,0,0-.82-.263,1.1,1.1,0,0,0-1,.533V18H37.6V10.6Zm8.21,7.4H45.664V10.6h2.311ZM45.527,8.7a1.028,1.028,0,0,1,.355-.807,1.511,1.511,0,0,1,1.846,0,1.093,1.093,0,0,1,0,1.613,1.511,1.511,0,0,1-1.846,0A1.028,1.028,0,0,1,45.527,8.7Zm6.993,7.663a1.025,1.025,0,0,0,.752-.263.965.965,0,0,0,.26-.735h2.16a2.557,2.557,0,0,1-.872,2,3.242,3.242,0,0,1-2.246.779,3.283,3.283,0,0,1-2.543-1.012,3.986,3.986,0,0,1-.93-2.8v-.1a4.505,4.505,0,0,1,.414-1.979,3.011,3.011,0,0,1,1.193-1.319,3.557,3.557,0,0,1,1.846-.461,3.2,3.2,0,0,1,2.29.8,2.837,2.837,0,0,1,.848,2.167h-2.16a1.265,1.265,0,0,0-.28-.882.967.967,0,0,0-.752-.308q-.9,0-1.046,1.142a8.055,8.055,0,0,0-.048,1,3.164,3.164,0,0,0,.267,1.545A.923.923,0,0,0,52.521,16.359ZM60.833,18a2.6,2.6,0,0,1-.219-.663,2.142,2.142,0,0,1-1.777.8A2.624,2.624,0,0,1,57.06,17.5a2.013,2.013,0,0,1-.731-1.589,2.069,2.069,0,0,1,.889-1.818,4.527,4.527,0,0,1,2.584-.615h.711V13.09q0-1.023-.882-1.023a.721.721,0,0,0-.82.811h-2.3a2.065,2.065,0,0,1,.913-1.741,3.835,3.835,0,0,1,2.328-.669,3.363,3.363,0,0,1,2.235.69,2.4,2.4,0,0,1,.841,1.894v3.274a3.353,3.353,0,0,0,.314,1.559V18Zm-1.442-1.5a1.285,1.285,0,0,0,.714-.185,1.157,1.157,0,0,0,.407-.417V14.712h-.67q-1.2,0-1.2,1.08a.659.659,0,0,0,.212.509A.767.767,0,0,0,59.391,16.5Zm7.834-.137a1.025,1.025,0,0,0,.752-.263.965.965,0,0,0,.26-.735H70.4a2.557,2.557,0,0,1-.872,2,3.242,3.242,0,0,1-2.246.779,3.282,3.282,0,0,1-2.543-1.012,3.986,3.986,0,0,1-.93-2.8v-.1a4.505,4.505,0,0,1,.414-1.979,3.011,3.011,0,0,1,1.193-1.319,3.557,3.557,0,0,1,1.846-.461,3.2,3.2,0,0,1,2.29.8,2.837,2.837,0,0,1,.848,2.167h-2.16a1.265,1.265,0,0,0-.28-.882.967.967,0,0,0-.752-.308q-.9,0-1.046,1.142a8.056,8.056,0,0,0-.048,1,3.164,3.164,0,0,0,.267,1.545A.923.923,0,0,0,67.225,16.359ZM73.8,18H71.49V10.6H73.8ZM71.354,8.7a1.028,1.028,0,0,1,.355-.807,1.511,1.511,0,0,1,1.846,0,1.093,1.093,0,0,1,0,1.613,1.511,1.511,0,0,1-1.846,0A1.028,1.028,0,0,1,71.354,8.7Zm3.575,5.537a4.366,4.366,0,0,1,.431-1.972,3.08,3.08,0,0,1,1.237-1.33,3.726,3.726,0,0,1,1.894-.465A3.4,3.4,0,0,1,81.108,11.5a3.948,3.948,0,0,1,.957,2.8v.082a3.83,3.83,0,0,1-.96,2.745,3.41,3.41,0,0,1-2.6,1.015,3.449,3.449,0,0,1-2.536-.947,3.7,3.7,0,0,1-1.032-2.567Zm2.3.144a2.752,2.752,0,0,0,.321,1.5,1.07,1.07,0,0,0,.95.479q1.23,0,1.258-1.894v-.232q0-1.989-1.271-1.989-1.155,0-1.251,1.716ZM78.8,7.5h2.434l-1.9,2.146-1.88,0ZM85.2,10.6l.075.868a2.508,2.508,0,0,1,2.112-1,2.11,2.11,0,0,1,1.726.69,3.287,3.287,0,0,1,.591,2.078V18H87.391V13.331a1.248,1.248,0,0,0-.226-.824,1.044,1.044,0,0,0-.82-.263,1.1,1.1,0,0,0-1,.533V18h-2.3V10.6Z" transform="translate(1294.075 3719.355)" fill="#12263f"/>
    <path id="Trazado_141909" data-name="Trazado 141909" d="M6.925-4.225H3.151v2.379H7.608V0H.752V-9.953h6.87V-8.1H3.151V-6H6.925Zm5.428,2.146a.532.532,0,0,0-.308-.472,4.679,4.679,0,0,0-1.169-.369,5.33,5.33,0,0,1-1.422-.5A2.382,2.382,0,0,1,8.6-4.177,1.8,1.8,0,0,1,8.306-5.2a2.044,2.044,0,0,1,.841-1.678,3.464,3.464,0,0,1,2.2-.66A3.837,3.837,0,0,1,13.7-6.87a2.074,2.074,0,0,1,.889,1.743H12.277q0-.889-.937-.889a.928.928,0,0,0-.608.2.624.624,0,0,0-.246.5.573.573,0,0,0,.3.5,2.842,2.842,0,0,0,.96.314,8.3,8.3,0,0,1,1.159.294,2.105,2.105,0,0,1,1.668,2.058,1.937,1.937,0,0,1-.9,1.647,3.942,3.942,0,0,1-2.328.636,4.023,4.023,0,0,1-1.7-.342,2.835,2.835,0,0,1-1.162-.93,2.105,2.105,0,0,1-.417-1.237h2.153a.89.89,0,0,0,.342.749,1.406,1.406,0,0,0,.841.236,1.106,1.106,0,0,0,.708-.191A.612.612,0,0,0,12.353-2.078Zm5.981-7.157V-7.4h1.217v1.6H18.334v3.384a.864.864,0,0,0,.15.581.807.807,0,0,0,.595.164,3.38,3.38,0,0,0,.574-.041V-.062a4.252,4.252,0,0,1-1.3.2A2.413,2.413,0,0,1,16.6-.424a2.3,2.3,0,0,1-.567-1.7V-5.8h-.943V-7.4h.943V-9.235Zm6.6,3.924-.759-.055a1.363,1.363,0,0,0-1.395.684V0h-2.3V-7.4h2.16l.075.95a1.784,1.784,0,0,1,1.62-1.087,2.247,2.247,0,0,1,.643.082ZM29.723,0A2.6,2.6,0,0,1,29.5-.663a2.142,2.142,0,0,1-1.777.8A2.624,2.624,0,0,1,25.949-.5a2.013,2.013,0,0,1-.731-1.589A2.069,2.069,0,0,1,26.106-3.9a4.527,4.527,0,0,1,2.584-.615H29.4V-4.91q0-1.023-.882-1.023a.721.721,0,0,0-.82.811H25.4a2.065,2.065,0,0,1,.913-1.741,3.835,3.835,0,0,1,2.328-.669,3.363,3.363,0,0,1,2.235.69,2.4,2.4,0,0,1,.841,1.894v3.274a3.353,3.353,0,0,0,.314,1.559V0ZM28.28-1.5a1.285,1.285,0,0,0,.714-.185,1.157,1.157,0,0,0,.407-.417V-3.288h-.67q-1.2,0-1.2,1.08a.659.659,0,0,0,.212.509A.767.767,0,0,0,28.28-1.5Zm7.39-7.731V-7.4h1.217v1.6H35.67v3.384a.864.864,0,0,0,.15.581.807.807,0,0,0,.595.164,3.38,3.38,0,0,0,.574-.041V-.062a4.252,4.252,0,0,1-1.3.2,2.413,2.413,0,0,1-1.757-.561,2.3,2.3,0,0,1-.567-1.7V-5.8h-.943V-7.4h.943V-9.235Zm5.7,9.372A3.8,3.8,0,0,1,38.616-.878a3.506,3.506,0,0,1-1.053-2.642v-.191a4.542,4.542,0,0,1,.42-2,3.076,3.076,0,0,1,1.227-1.343,3.7,3.7,0,0,1,1.914-.475,3.2,3.2,0,0,1,2.461.967,3.8,3.8,0,0,1,.9,2.7v.9h-4.58a1.66,1.66,0,0,0,.54.978,1.607,1.607,0,0,0,1.08.355,2.07,2.07,0,0,0,1.709-.766L44.29-1.162a2.943,2.943,0,0,1-1.22.947A4.123,4.123,0,0,1,41.371.137Zm-.26-5.893q-1.012,0-1.2,1.34h2.324v-.178a1.141,1.141,0,0,0-.28-.858A1.115,1.115,0,0,0,41.111-5.756Zm4.033,2a4.994,4.994,0,0,1,.369-1.982,2.972,2.972,0,0,1,1.06-1.33,2.793,2.793,0,0,1,1.606-.468,2.221,2.221,0,0,1,1.8.779l.082-.643h2.092V-.28a3.118,3.118,0,0,1-.455,1.7,2.917,2.917,0,0,1-1.316,1.107,4.837,4.837,0,0,1-2,.386A4.173,4.173,0,0,1,46.816,2.6a2.844,2.844,0,0,1-1.166-.8L46.614.451a2.112,2.112,0,0,0,1.7.759A1.372,1.372,0,0,0,49.841-.362V-.595a2.163,2.163,0,0,1-1.675.731A2.673,2.673,0,0,1,45.979-.9a4.291,4.291,0,0,1-.834-2.772Zm2.311.144A2.631,2.631,0,0,0,47.8-2.17a1.078,1.078,0,0,0,.957.53,1.224,1.224,0,0,0,1.087-.5V-5.25a1.193,1.193,0,0,0-1.073-.506,1.086,1.086,0,0,0-.964.55A3,3,0,0,0,47.455-3.609ZM55.9,0H53.587V-7.4H55.9ZM53.45-9.3a1.028,1.028,0,0,1,.355-.807,1.341,1.341,0,0,1,.923-.314,1.341,1.341,0,0,1,.923.314,1.028,1.028,0,0,1,.355.807,1.028,1.028,0,0,1-.355.807,1.341,1.341,0,0,1-.923.314,1.341,1.341,0,0,1-.923-.314A1.028,1.028,0,0,1,53.45-9.3ZM61.482,0a2.6,2.6,0,0,1-.219-.663,2.142,2.142,0,0,1-1.777.8A2.624,2.624,0,0,1,57.709-.5a2.013,2.013,0,0,1-.731-1.589A2.069,2.069,0,0,1,57.866-3.9a4.527,4.527,0,0,1,2.584-.615h.711V-4.91q0-1.023-.882-1.023a.721.721,0,0,0-.82.811h-2.3a2.065,2.065,0,0,1,.913-1.741A3.835,3.835,0,0,1,60.4-7.533a3.363,3.363,0,0,1,2.235.69,2.4,2.4,0,0,1,.841,1.894v3.274a3.353,3.353,0,0,0,.314,1.559V0ZM60.04-1.5a1.285,1.285,0,0,0,.714-.185,1.157,1.157,0,0,0,.407-.417V-3.288h-.67q-1.2,0-1.2,1.08A.659.659,0,0,0,59.5-1.7.767.767,0,0,0,60.04-1.5Zm8.579-.574a.532.532,0,0,0-.308-.472,4.679,4.679,0,0,0-1.169-.369,5.33,5.33,0,0,1-1.422-.5,2.382,2.382,0,0,1-.854-.755A1.8,1.8,0,0,1,64.572-5.2a2.044,2.044,0,0,1,.841-1.678,3.464,3.464,0,0,1,2.2-.66,3.837,3.837,0,0,1,2.352.663,2.074,2.074,0,0,1,.889,1.743H68.544q0-.889-.937-.889a.928.928,0,0,0-.608.2.624.624,0,0,0-.246.5.573.573,0,0,0,.3.5,2.842,2.842,0,0,0,.96.314,8.3,8.3,0,0,1,1.159.294,2.105,2.105,0,0,1,1.668,2.058,1.937,1.937,0,0,1-.9,1.647,3.942,3.942,0,0,1-2.328.636,4.023,4.023,0,0,1-1.7-.342,2.835,2.835,0,0,1-1.162-.93,2.105,2.105,0,0,1-.417-1.237h2.153a.89.89,0,0,0,.342.749,1.406,1.406,0,0,0,.841.236,1.106,1.106,0,0,0,.708-.191A.612.612,0,0,0,68.619-2.078Zm-64,17.371L6.6,8.047h2.68L5.927,18H3.3L-.021,8.047H2.639ZM13.747,18a2.6,2.6,0,0,1-.219-.663,2.142,2.142,0,0,1-1.777.8A2.624,2.624,0,0,1,9.974,17.5a2.013,2.013,0,0,1-.731-1.589,2.069,2.069,0,0,1,.889-1.818,4.527,4.527,0,0,1,2.584-.615h.711V13.09q0-1.023-.882-1.023a.721.721,0,0,0-.82.811H9.42a2.065,2.065,0,0,1,.913-1.741,3.835,3.835,0,0,1,2.328-.669,3.363,3.363,0,0,1,2.235.69,2.4,2.4,0,0,1,.841,1.894v3.274a3.353,3.353,0,0,0,.314,1.559V18ZM12.3,16.5a1.285,1.285,0,0,0,.714-.185,1.157,1.157,0,0,0,.407-.417V14.712h-.67q-1.2,0-1.2,1.08a.659.659,0,0,0,.212.509A.767.767,0,0,0,12.3,16.5ZM19.441,18H17.131V7.5h2.311Zm1.128-3.767A4.366,4.366,0,0,1,21,12.261a3.08,3.08,0,0,1,1.237-1.33,3.726,3.726,0,0,1,1.894-.465A3.4,3.4,0,0,1,26.749,11.5a3.948,3.948,0,0,1,.957,2.8v.082a3.83,3.83,0,0,1-.96,2.745,3.41,3.41,0,0,1-2.6,1.015,3.449,3.449,0,0,1-2.536-.947,3.7,3.7,0,0,1-1.032-2.567Zm2.3.144a2.752,2.752,0,0,0,.321,1.5,1.07,1.07,0,0,0,.95.479q1.23,0,1.258-1.894v-.232q0-1.989-1.271-1.989-1.155,0-1.251,1.716ZM33.2,12.688l-.759-.055a1.363,1.363,0,0,0-1.395.684V18h-2.3V10.6H30.9l.075.95a1.784,1.784,0,0,1,1.62-1.087,2.247,2.247,0,0,1,.643.082Zm10.076,3.452H39.983L39.409,18H36.846L40.5,8.047h2.256L46.43,18H43.853Zm-2.714-1.853H42.7l-1.073-3.452Zm6.221-.041a4.994,4.994,0,0,1,.369-1.982,2.972,2.972,0,0,1,1.06-1.33,2.793,2.793,0,0,1,1.606-.468,2.221,2.221,0,0,1,1.8.779L51.7,10.6h2.092V17.72a3.118,3.118,0,0,1-.455,1.7,2.917,2.917,0,0,1-1.316,1.107,4.837,4.837,0,0,1-2,.386A4.173,4.173,0,0,1,48.45,20.6a2.844,2.844,0,0,1-1.166-.8l.964-1.354a2.112,2.112,0,0,0,1.7.759,1.372,1.372,0,0,0,1.531-1.572v-.232a2.163,2.163,0,0,1-1.675.731A2.673,2.673,0,0,1,47.612,17.1a4.291,4.291,0,0,1-.834-2.772Zm2.311.144a2.631,2.631,0,0,0,.342,1.439,1.078,1.078,0,0,0,.957.53,1.224,1.224,0,0,0,1.087-.5V12.75a1.193,1.193,0,0,0-1.073-.506,1.086,1.086,0,0,0-.964.55A3,3,0,0,0,49.089,14.391Zm10.486-1.7-.759-.055a1.363,1.363,0,0,0-1.395.684V18h-2.3V10.6h2.16l.075.95a1.784,1.784,0,0,1,1.62-1.087,2.247,2.247,0,0,1,.643.082Zm4.409,5.448a3.8,3.8,0,0,1-2.755-1.015,3.506,3.506,0,0,1-1.053-2.642v-.191a4.542,4.542,0,0,1,.42-2,3.076,3.076,0,0,1,1.227-1.343,3.7,3.7,0,0,1,1.914-.475,3.2,3.2,0,0,1,2.461.967,3.8,3.8,0,0,1,.9,2.7v.9h-4.58a1.66,1.66,0,0,0,.54.978,1.607,1.607,0,0,0,1.08.355,2.07,2.07,0,0,0,1.709-.766L66.9,16.838a2.943,2.943,0,0,1-1.22.947A4.123,4.123,0,0,1,63.984,18.137Zm-.26-5.893q-1.012,0-1.2,1.34h2.324v-.178a1.141,1.141,0,0,0-.28-.858A1.115,1.115,0,0,0,63.725,12.244Zm4.033,2a4.994,4.994,0,0,1,.369-1.982,2.972,2.972,0,0,1,1.06-1.33,2.793,2.793,0,0,1,1.606-.468,2.221,2.221,0,0,1,1.8.779l.082-.643h2.092V17.72a3.118,3.118,0,0,1-.455,1.7A2.917,2.917,0,0,1,73,20.526a4.837,4.837,0,0,1-2,.386,4.173,4.173,0,0,1-1.576-.308,2.844,2.844,0,0,1-1.166-.8l.964-1.354a2.112,2.112,0,0,0,1.7.759,1.372,1.372,0,0,0,1.531-1.572v-.232a2.163,2.163,0,0,1-1.675.731A2.673,2.673,0,0,1,68.592,17.1a4.291,4.291,0,0,1-.834-2.772Zm2.311.144a2.631,2.631,0,0,0,.342,1.439,1.078,1.078,0,0,0,.957.53,1.224,1.224,0,0,0,1.087-.5V12.75a1.193,1.193,0,0,0-1.073-.506,1.086,1.086,0,0,0-.964.55A3,3,0,0,0,70.068,14.391ZM80.247,18a2.6,2.6,0,0,1-.219-.663,2.142,2.142,0,0,1-1.777.8,2.624,2.624,0,0,1-1.777-.632,2.013,2.013,0,0,1-.731-1.589,2.069,2.069,0,0,1,.889-1.818,4.527,4.527,0,0,1,2.584-.615h.711V13.09q0-1.023-.882-1.023a.721.721,0,0,0-.82.811h-2.3a2.065,2.065,0,0,1,.913-1.741,3.835,3.835,0,0,1,2.328-.669,3.363,3.363,0,0,1,2.235.69,2.4,2.4,0,0,1,.841,1.894v3.274a3.353,3.353,0,0,0,.314,1.559V18ZM78.8,16.5a1.285,1.285,0,0,0,.714-.185,1.157,1.157,0,0,0,.407-.417V14.712h-.67q-1.2,0-1.2,1.08a.659.659,0,0,0,.212.509A.767.767,0,0,0,78.8,16.5Zm4.416-2.249a4.518,4.518,0,0,1,.759-2.769A2.5,2.5,0,0,1,86.1,10.467a2.124,2.124,0,0,1,1.668.779V7.5h2.311V18H88.006l-.116-.793a2.181,2.181,0,0,1-1.8.93,2.493,2.493,0,0,1-2.092-1.012A4.661,4.661,0,0,1,83.221,14.247Zm2.3.144q0,1.969,1.148,1.969a1.134,1.134,0,0,0,1.094-.643V12.9a1.1,1.1,0,0,0-1.08-.656q-1.066,0-1.155,1.723Zm5.571-.157a4.366,4.366,0,0,1,.431-1.972,3.08,3.08,0,0,1,1.237-1.33,3.726,3.726,0,0,1,1.894-.465A3.4,3.4,0,0,1,97.275,11.5a3.948,3.948,0,0,1,.957,2.8v.082a3.83,3.83,0,0,1-.96,2.745,3.41,3.41,0,0,1-2.6,1.015,3.449,3.449,0,0,1-2.536-.947A3.7,3.7,0,0,1,91.1,14.623Zm2.3.144a2.752,2.752,0,0,0,.321,1.5,1.07,1.07,0,0,0,.95.479q1.23,0,1.258-1.894v-.232q0-1.989-1.271-1.989-1.155,0-1.251,1.716Z" transform="translate(1309.596 3853.899)" fill="#12263f"/>
    <path id="Trazado_141910" data-name="Trazado 141910" d="M-64.347-4.225H-68.12v2.379h4.457V0H-70.52V-9.953h6.87V-8.1H-68.12V-6h3.773Zm5.428,2.146a.532.532,0,0,0-.308-.472A4.679,4.679,0,0,0-60.4-2.919a5.33,5.33,0,0,1-1.422-.5,2.382,2.382,0,0,1-.854-.755A1.8,1.8,0,0,1-62.966-5.2a2.044,2.044,0,0,1,.841-1.678,3.464,3.464,0,0,1,2.2-.66,3.837,3.837,0,0,1,2.352.663,2.074,2.074,0,0,1,.889,1.743h-2.311q0-.889-.937-.889a.928.928,0,0,0-.608.2.624.624,0,0,0-.246.5.573.573,0,0,0,.3.5,2.842,2.842,0,0,0,.96.314,8.3,8.3,0,0,1,1.159.294A2.105,2.105,0,0,1-56.7-2.146,1.937,1.937,0,0,1-57.6-.5a3.942,3.942,0,0,1-2.328.636,4.023,4.023,0,0,1-1.7-.342,2.835,2.835,0,0,1-1.162-.93A2.105,2.105,0,0,1-63.2-2.372h2.153a.89.89,0,0,0,.342.749,1.406,1.406,0,0,0,.841.236,1.106,1.106,0,0,0,.708-.191A.612.612,0,0,0-58.919-2.078Zm5.981-7.157V-7.4h1.217v1.6h-1.217v3.384a.864.864,0,0,0,.15.581.807.807,0,0,0,.595.164,3.38,3.38,0,0,0,.574-.041V-.062a4.252,4.252,0,0,1-1.3.2,2.413,2.413,0,0,1-1.757-.561,2.3,2.3,0,0,1-.567-1.7V-5.8h-.943V-7.4h.943V-9.235Zm6.6,3.924-.759-.055a1.363,1.363,0,0,0-1.395.684V0h-2.3V-7.4h2.16l.075.95a1.784,1.784,0,0,1,1.62-1.087,2.247,2.247,0,0,1,.643.082ZM-41.549,0a2.6,2.6,0,0,1-.219-.663,2.142,2.142,0,0,1-1.777.8A2.624,2.624,0,0,1-45.322-.5a2.013,2.013,0,0,1-.731-1.589A2.069,2.069,0,0,1-45.165-3.9a4.527,4.527,0,0,1,2.584-.615h.711V-4.91q0-1.023-.882-1.023a.721.721,0,0,0-.82.811h-2.3a2.065,2.065,0,0,1,.913-1.741,3.835,3.835,0,0,1,2.328-.669,3.363,3.363,0,0,1,2.235.69,2.4,2.4,0,0,1,.841,1.894v3.274a3.353,3.353,0,0,0,.314,1.559V0Zm-1.442-1.5a1.285,1.285,0,0,0,.714-.185,1.157,1.157,0,0,0,.407-.417V-3.288h-.67q-1.2,0-1.2,1.08a.659.659,0,0,0,.212.509A.767.767,0,0,0-42.991-1.5Zm7.39-7.731V-7.4h1.217v1.6H-35.6v3.384a.864.864,0,0,0,.15.581.807.807,0,0,0,.595.164,3.38,3.38,0,0,0,.574-.041V-.062a4.252,4.252,0,0,1-1.3.2,2.413,2.413,0,0,1-1.757-.561,2.3,2.3,0,0,1-.567-1.7V-5.8h-.943V-7.4h.943V-9.235ZM-29.9.137A3.8,3.8,0,0,1-32.655-.878a3.506,3.506,0,0,1-1.053-2.642v-.191a4.542,4.542,0,0,1,.42-2,3.076,3.076,0,0,1,1.227-1.343,3.7,3.7,0,0,1,1.914-.475,3.2,3.2,0,0,1,2.461.967,3.8,3.8,0,0,1,.9,2.7v.9h-4.58a1.66,1.66,0,0,0,.54.978,1.607,1.607,0,0,0,1.08.355,2.07,2.07,0,0,0,1.709-.766l1.053,1.244a2.943,2.943,0,0,1-1.22.947A4.123,4.123,0,0,1-29.9.137Zm-.26-5.893q-1.012,0-1.2,1.34h2.324v-.178a1.141,1.141,0,0,0-.28-.858A1.115,1.115,0,0,0-30.16-5.756Zm4.033,2a4.994,4.994,0,0,1,.369-1.982,2.972,2.972,0,0,1,1.06-1.33,2.793,2.793,0,0,1,1.606-.468,2.221,2.221,0,0,1,1.8.779l.082-.643h2.092V-.28a3.118,3.118,0,0,1-.455,1.7,2.917,2.917,0,0,1-1.316,1.107,4.837,4.837,0,0,1-2,.386A4.173,4.173,0,0,1-24.456,2.6a2.844,2.844,0,0,1-1.166-.8l.964-1.354a2.112,2.112,0,0,0,1.7.759A1.372,1.372,0,0,0-21.431-.362V-.595a2.163,2.163,0,0,1-1.675.731A2.673,2.673,0,0,1-25.293-.9a4.291,4.291,0,0,1-.834-2.772Zm2.311.144a2.631,2.631,0,0,0,.342,1.439,1.078,1.078,0,0,0,.957.53,1.224,1.224,0,0,0,1.087-.5V-5.25A1.193,1.193,0,0,0-22.5-5.756a1.086,1.086,0,0,0-.964.55A3,3,0,0,0-23.816-3.609ZM-15.374,0h-2.311V-7.4h2.311Zm-2.447-9.3a1.028,1.028,0,0,1,.355-.807,1.341,1.341,0,0,1,.923-.314,1.341,1.341,0,0,1,.923.314,1.028,1.028,0,0,1,.355.807,1.028,1.028,0,0,1-.355.807,1.341,1.341,0,0,1-.923.314,1.341,1.341,0,0,1-.923-.314A1.028,1.028,0,0,1-17.821-9.3ZM-9.789,0a2.6,2.6,0,0,1-.219-.663,2.142,2.142,0,0,1-1.777.8A2.624,2.624,0,0,1-13.562-.5a2.013,2.013,0,0,1-.731-1.589A2.069,2.069,0,0,1-13.405-3.9a4.527,4.527,0,0,1,2.584-.615h.711V-4.91q0-1.023-.882-1.023a.721.721,0,0,0-.82.811h-2.3A2.065,2.065,0,0,1-13.2-6.864a3.835,3.835,0,0,1,2.328-.669,3.363,3.363,0,0,1,2.235.69A2.4,2.4,0,0,1-7.8-4.949v3.274A3.353,3.353,0,0,0-7.485-.116V0Zm-1.442-1.5a1.285,1.285,0,0,0,.714-.185,1.157,1.157,0,0,0,.407-.417V-3.288h-.67q-1.2,0-1.2,1.08a.659.659,0,0,0,.212.509A.767.767,0,0,0-11.231-1.5Zm8.579-.574A.532.532,0,0,0-2.96-2.55a4.679,4.679,0,0,0-1.169-.369,5.33,5.33,0,0,1-1.422-.5,2.382,2.382,0,0,1-.854-.755A1.8,1.8,0,0,1-6.7-5.2a2.044,2.044,0,0,1,.841-1.678,3.464,3.464,0,0,1,2.2-.66,3.837,3.837,0,0,1,2.352.663A2.074,2.074,0,0,1-.417-5.127H-2.728q0-.889-.937-.889a.928.928,0,0,0-.608.2.624.624,0,0,0-.246.5.573.573,0,0,0,.3.5,2.842,2.842,0,0,0,.96.314A8.3,8.3,0,0,1-2.1-4.2,2.105,2.105,0,0,1-.431-2.146,1.937,1.937,0,0,1-1.33-.5,3.942,3.942,0,0,1-3.657.137a4.023,4.023,0,0,1-1.7-.342,2.835,2.835,0,0,1-1.162-.93,2.105,2.105,0,0,1-.417-1.237h2.153a.89.89,0,0,0,.342.749,1.406,1.406,0,0,0,.841.236,1.106,1.106,0,0,0,.708-.191A.612.612,0,0,0-2.652-2.078ZM-39.847,16.77a3.858,3.858,0,0,1-1.62.991,6.988,6.988,0,0,1-2.338.376,4.169,4.169,0,0,1-3.124-1.2,4.843,4.843,0,0,1-1.251-3.329l-.007-.861a5.94,5.94,0,0,1,.52-2.567A3.858,3.858,0,0,1-46.18,8.495,4.206,4.206,0,0,1-43.941,7.9a4.409,4.409,0,0,1,2.888.851,3.606,3.606,0,0,1,1.2,2.54h-2.311A1.887,1.887,0,0,0-42.7,10.1a1.72,1.72,0,0,0-1.162-.355,1.566,1.566,0,0,0-1.395.766,4.088,4.088,0,0,0-.5,2.188v.6a4,4,0,0,0,.509,2.239,1.8,1.8,0,0,0,1.6.749,2.016,2.016,0,0,0,1.395-.417V14.329h-1.668V12.682h4.067Zm4.867,1.367a3.8,3.8,0,0,1-2.755-1.015,3.506,3.506,0,0,1-1.053-2.642v-.191a4.542,4.542,0,0,1,.42-2,3.076,3.076,0,0,1,1.227-1.343,3.7,3.7,0,0,1,1.914-.475,3.2,3.2,0,0,1,2.461.967,3.8,3.8,0,0,1,.9,2.7v.9h-4.58A1.66,1.66,0,0,0-35.9,16a1.607,1.607,0,0,0,1.08.355,2.07,2.07,0,0,0,1.709-.766l1.053,1.244a2.943,2.943,0,0,1-1.22.947A4.123,4.123,0,0,1-34.979,18.137Zm-.26-5.893q-1.012,0-1.2,1.34h2.324v-.178a1.141,1.141,0,0,0-.28-.858A1.115,1.115,0,0,0-35.239,12.244Zm8.176,3.678a.532.532,0,0,0-.308-.472,4.679,4.679,0,0,0-1.169-.369,5.33,5.33,0,0,1-1.422-.5,2.382,2.382,0,0,1-.854-.755A1.8,1.8,0,0,1-31.11,12.8a2.044,2.044,0,0,1,.841-1.678,3.464,3.464,0,0,1,2.2-.66,3.837,3.837,0,0,1,2.352.663,2.074,2.074,0,0,1,.889,1.743h-2.311q0-.889-.937-.889a.928.928,0,0,0-.608.2.624.624,0,0,0-.246.5.573.573,0,0,0,.3.5,2.842,2.842,0,0,0,.96.314,8.3,8.3,0,0,1,1.159.294,2.105,2.105,0,0,1,1.668,2.058,1.937,1.937,0,0,1-.9,1.647,3.942,3.942,0,0,1-2.328.636,4.023,4.023,0,0,1-1.7-.342,2.835,2.835,0,0,1-1.162-.93,2.105,2.105,0,0,1-.417-1.237h2.153a.89.89,0,0,0,.342.749,1.406,1.406,0,0,0,.841.236,1.106,1.106,0,0,0,.708-.191A.612.612,0,0,0-27.063,15.922Zm5.981-7.157V10.6h1.217v1.6h-1.217v3.384a.864.864,0,0,0,.15.581.807.807,0,0,0,.595.164,3.38,3.38,0,0,0,.574-.041v1.647a4.252,4.252,0,0,1-1.3.2,2.413,2.413,0,0,1-1.757-.561,2.3,2.3,0,0,1-.567-1.7V12.2h-.943V10.6h.943V8.765ZM-16.529,18H-18.84V10.6h2.311Zm-2.447-9.3a1.028,1.028,0,0,1,.355-.807,1.341,1.341,0,0,1,.923-.314,1.341,1.341,0,0,1,.923.314,1.028,1.028,0,0,1,.355.807,1.028,1.028,0,0,1-.355.807,1.341,1.341,0,0,1-.923.314,1.341,1.341,0,0,1-.923-.314A1.028,1.028,0,0,1-18.977,8.7Zm3.575,5.537a4.366,4.366,0,0,1,.431-1.972,3.08,3.08,0,0,1,1.237-1.33,3.726,3.726,0,0,1,1.894-.465A3.4,3.4,0,0,1-9.222,11.5a3.948,3.948,0,0,1,.957,2.8v.082a3.83,3.83,0,0,1-.96,2.745,3.41,3.41,0,0,1-2.6,1.015,3.449,3.449,0,0,1-2.536-.947,3.7,3.7,0,0,1-1.032-2.567Zm2.3.144a2.752,2.752,0,0,0,.321,1.5,1.07,1.07,0,0,0,.95.479q1.23,0,1.258-1.894v-.232q0-1.989-1.271-1.989-1.155,0-1.251,1.716ZM-11.525,7.5h2.434l-1.9,2.146-1.88,0Zm6.392,3.1.075.868a2.508,2.508,0,0,1,2.112-1,2.11,2.11,0,0,1,1.726.69,3.287,3.287,0,0,1,.591,2.078V18H-2.939V13.331a1.248,1.248,0,0,0-.226-.824,1.044,1.044,0,0,0-.82-.263,1.1,1.1,0,0,0-1,.533V18h-2.3V10.6ZM-86.379,34.141h-3.288L-90.241,36H-92.8l3.65-9.953H-86.9L-83.221,36H-85.8Zm-2.714-1.853h2.14l-1.073-3.452Zm6.2-.041a4.518,4.518,0,0,1,.759-2.769,2.5,2.5,0,0,1,2.119-1.012,2.124,2.124,0,0,1,1.668.779V25.5h2.311V36h-2.071l-.116-.793a2.181,2.181,0,0,1-1.8.93,2.493,2.493,0,0,1-2.092-1.012A4.661,4.661,0,0,1-82.893,32.247Zm2.3.144q0,1.969,1.148,1.969a1.134,1.134,0,0,0,1.094-.643V30.9a1.1,1.1,0,0,0-1.08-.656q-1.066,0-1.155,1.723ZM-72.55,28.6l.075.868a2.543,2.543,0,0,1,2.112-1,1.872,1.872,0,0,1,1.894,1.114,2.462,2.462,0,0,1,2.174-1.114q2.249,0,2.311,2.721V36h-2.311V31.331a1.41,1.41,0,0,0-.191-.827.815.815,0,0,0-.7-.26,1.091,1.091,0,0,0-1.019.608l.007.1V36h-2.311V31.345a1.482,1.482,0,0,0-.185-.841.812.812,0,0,0-.7-.26,1.1,1.1,0,0,0-1.012.608V36h-2.3V28.6ZM-60.238,36h-2.311V28.6h2.311Zm-2.447-9.3a1.028,1.028,0,0,1,.355-.807,1.341,1.341,0,0,1,.923-.314,1.341,1.341,0,0,1,.923.314,1.028,1.028,0,0,1,.355.807,1.028,1.028,0,0,1-.355.807,1.341,1.341,0,0,1-.923.314,1.341,1.341,0,0,1-.923-.314A1.028,1.028,0,0,1-62.686,26.7ZM-56.7,28.6l.075.868a2.508,2.508,0,0,1,2.112-1,2.11,2.11,0,0,1,1.726.69,3.287,3.287,0,0,1,.591,2.078V36H-54.51V31.331a1.248,1.248,0,0,0-.226-.824,1.044,1.044,0,0,0-.82-.263,1.1,1.1,0,0,0-1,.533V36h-2.3V28.6Zm8.21,7.4H-50.8V28.6h2.311Zm-2.447-9.3a1.028,1.028,0,0,1,.355-.807,1.341,1.341,0,0,1,.923-.314,1.341,1.341,0,0,1,.923.314,1.028,1.028,0,0,1,.355.807,1.028,1.028,0,0,1-.355.807,1.341,1.341,0,0,1-.923.314,1.341,1.341,0,0,1-.923-.314A1.028,1.028,0,0,1-50.941,26.7Zm7.738,7.226a.532.532,0,0,0-.308-.472,4.679,4.679,0,0,0-1.169-.369,5.33,5.33,0,0,1-1.422-.5,2.382,2.382,0,0,1-.854-.755A1.8,1.8,0,0,1-47.25,30.8a2.044,2.044,0,0,1,.841-1.678,3.464,3.464,0,0,1,2.2-.66,3.837,3.837,0,0,1,2.352.663,2.074,2.074,0,0,1,.889,1.743h-2.311q0-.889-.937-.889a.928.928,0,0,0-.608.2.624.624,0,0,0-.246.5.573.573,0,0,0,.3.5,2.842,2.842,0,0,0,.96.314,8.3,8.3,0,0,1,1.159.294,2.105,2.105,0,0,1,1.668,2.058,1.937,1.937,0,0,1-.9,1.647,3.942,3.942,0,0,1-2.328.636,4.023,4.023,0,0,1-1.7-.342,2.835,2.835,0,0,1-1.162-.93,2.105,2.105,0,0,1-.417-1.237h2.153a.89.89,0,0,0,.342.749,1.406,1.406,0,0,0,.841.236,1.106,1.106,0,0,0,.708-.191A.612.612,0,0,0-43.2,33.922Zm5.981-7.157V28.6H-36v1.6h-1.217v3.384a.864.864,0,0,0,.15.581.807.807,0,0,0,.595.164,3.38,3.38,0,0,0,.574-.041v1.647a4.252,4.252,0,0,1-1.3.2,2.413,2.413,0,0,1-1.757-.561,2.3,2.3,0,0,1-.567-1.7V30.2h-.943V28.6h.943V26.765Zm6.6,3.924-.759-.055a1.363,1.363,0,0,0-1.395.684V36h-2.3V28.6h2.16l.075.95a1.784,1.784,0,0,1,1.62-1.087,2.247,2.247,0,0,1,.643.082ZM-25.833,36a2.6,2.6,0,0,1-.219-.663,2.142,2.142,0,0,1-1.777.8,2.624,2.624,0,0,1-1.777-.632,2.013,2.013,0,0,1-.731-1.589,2.069,2.069,0,0,1,.889-1.818,4.527,4.527,0,0,1,2.584-.615h.711V31.09q0-1.023-.882-1.023a.721.721,0,0,0-.82.811h-2.3a2.065,2.065,0,0,1,.913-1.741,3.835,3.835,0,0,1,2.328-.669,3.363,3.363,0,0,1,2.235.69,2.4,2.4,0,0,1,.841,1.894v3.274a3.353,3.353,0,0,0,.314,1.559V36Zm-1.442-1.5a1.285,1.285,0,0,0,.714-.185,1.157,1.157,0,0,0,.407-.417V32.712h-.67q-1.2,0-1.2,1.08a.659.659,0,0,0,.212.509A.767.767,0,0,0-27.275,34.5Zm7.39-7.731V28.6h1.217v1.6h-1.217v3.384a.864.864,0,0,0,.15.581.807.807,0,0,0,.595.164,3.38,3.38,0,0,0,.574-.041v1.647a4.252,4.252,0,0,1-1.3.2,2.413,2.413,0,0,1-1.757-.561,2.3,2.3,0,0,1-.567-1.7V30.2h-.943V28.6h.943V26.765ZM-15.333,36h-2.311V28.6h2.311Zm-2.447-9.3a1.028,1.028,0,0,1,.355-.807,1.341,1.341,0,0,1,.923-.314,1.341,1.341,0,0,1,.923.314,1.028,1.028,0,0,1,.355.807,1.028,1.028,0,0,1-.355.807,1.341,1.341,0,0,1-.923.314,1.341,1.341,0,0,1-.923-.314A1.028,1.028,0,0,1-17.78,26.7Zm6.815,6.563L-9.8,28.6h2.427L-9.782,36h-2.352l-2.413-7.4h2.434ZM-2.618,36a2.6,2.6,0,0,1-.219-.663,2.142,2.142,0,0,1-1.777.8A2.624,2.624,0,0,1-6.392,35.5a2.013,2.013,0,0,1-.731-1.589A2.069,2.069,0,0,1-6.234,32.1a4.527,4.527,0,0,1,2.584-.615h.711V31.09q0-1.023-.882-1.023a.721.721,0,0,0-.82.811h-2.3a2.065,2.065,0,0,1,.913-1.741,3.835,3.835,0,0,1,2.328-.669,3.363,3.363,0,0,1,2.235.69,2.4,2.4,0,0,1,.841,1.894v3.274a3.353,3.353,0,0,0,.314,1.559V36Zm-1.442-1.5a1.285,1.285,0,0,0,.714-.185,1.157,1.157,0,0,0,.407-.417V32.712h-.67q-1.2,0-1.2,1.08A.659.659,0,0,0-4.6,34.3.767.767,0,0,0-4.061,34.5Z" transform="translate(1126 3811.518)" fill="#12263f"/>
    <g id="clasificacion" transform="translate(1208.58 3766.51)">
      <g id="Grupo_105956" data-name="Grupo 105956" transform="translate(0.574 0.574)">
        <path id="Trazado_137260" data-name="Trazado 137260" d="M351.18,285.732v-8.77a5.665,5.665,0,0,0-5.085-5.635c-.19-.019-.384.028-.579.028A5.541,5.541,0,0,0,339.979,277V285.7Z" transform="translate(-315.582 -251.138)" fill="#855b51"/>
        <path id="Trazado_137261" data-name="Trazado 137261" d="M344.577,271.033a5.665,5.665,0,0,0-5.052,5.632v8.706l-1.224.028v-8.734A5.665,5.665,0,0,1,343.965,271,5.592,5.592,0,0,1,344.577,271.033Z" transform="translate(-314.032 -250.841)" fill="#724d44"/>
        <path id="Trazado_137262" data-name="Trazado 137262" d="M394.837,396.782v-5.935l-.235-.694.235-2.037h-3.162l.134,3.223-.134,1.071v4.372l1.58.238Z" transform="translate(-363.323 -358.997)" fill="#c48958"/>
        <path id="Trazado_137263" data-name="Trazado 137263" d="M353.362,432.191l-3.107,1.23.377,4.3H355l-.228-.251a6.383,6.383,0,0,1-1.342-4.359C353.425,432.758,353.362,432.549,353.362,432.191Z" transform="translate(-325.072 -399.7)" fill="#ffd163"/>
        <path id="Trazado_137264" data-name="Trazado 137264" d="M353.356,431.311l-.01,0-3.085,1.268-.091-1.037,3.176-1.305.133.533Z" transform="translate(-324.994 -397.898)" fill="#ffb65f"/>
        <path id="Trazado_137265" data-name="Trazado 137265" d="M417.158,431.576l-3.245-1.337c0,1.96-.021,3.975-1.364,5.444l-.217.238h5.246a.766.766,0,0,0,.766-.766v-1.808A1.914,1.914,0,0,0,417.158,431.576Z" transform="translate(-382.4 -397.897)" fill="#ffd163"/>
        <path id="Trazado_137266" data-name="Trazado 137266" d="M391.673,388.119h0s0,2.726,0,2.726,0,1.212.01,1.567l.795-.327a.306.306,0,0,0,.19-.283v-.34a.153.153,0,0,1,.179-.15,2.436,2.436,0,0,0,.406.035,2.99,2.99,0,0,0,1.581-.5v-2.73h-3.161Z" transform="translate(-363.32 -359)" fill="#b27a49"/>
        <path id="Trazado_137267" data-name="Trazado 137267" d="M367.272,307.568a3.866,3.866,0,0,0-.041.77c.418,2.033,2.067,4.076,3.434,4.076,1.581,0,3.535-2.727,3.535-5.015a4.336,4.336,0,0,0-1.384-3.413c-.189-.155-.344-.141-.569-.25a.124.124,0,0,0-.174.082,4.763,4.763,0,0,1-3.6,3.438l-1.1.191C367.312,307.458,367.272,307.568,367.272,307.568Z" transform="translate(-340.733 -281.06)" fill="#c48958"/>
        <path id="Trazado_137268" data-name="Trazado 137268" d="M367.713,306.224a5.5,5.5,0,0,0,4.115-4.026,3.085,3.085,0,0,0-.621-.4.124.124,0,0,0-.174.082,4.743,4.743,0,0,1-3.577,3.448l-1.215.26a.123.123,0,0,0-.1.121h0a4.758,4.758,0,0,0,.1.838Z" transform="translate(-339.746 -279.272)" fill="#b27a49"/>
        <path id="Trazado_137269" data-name="Trazado 137269" d="M34.036,433.71l-4.43-1.578a2.041,2.041,0,0,1-3.113-.111l-3.2,1.329a1.765,1.765,0,0,0-1.2,1.642v1.732a.766.766,0,0,0,.766.766l.152.076h3.435l1.531-.2,1.631.2h2.826l1.6-.284Z" transform="translate(-22.013 -399.543)" fill="#bae6ef"/>
        <path id="Trazado_137270" data-name="Trazado 137270" d="M83.9,398.126H81l.013,2.3c.275.318.457.689.828.8a2.09,2.09,0,0,0,2.166-.638h0v-1.215Z" transform="translate(-76.417 -368.241)" fill="#f2d1a5"/>
        <path id="Trazado_137271" data-name="Trazado 137271" d="M26.22,432.535l-3.332,1.508-.235.1a.916.916,0,0,0-.569.85v2.574h-.229a.766.766,0,0,1-.766-.766v-1.809a1.915,1.915,0,0,1,1.185-1.77l3.1-1.2A4.313,4.313,0,0,0,26.22,432.535Z" transform="translate(-21.09 -399.543)" fill="#94d8e6"/>
        <path id="Trazado_137272" data-name="Trazado 137272" d="M47.851,431.728l-3.613,4.193H41.077L38.446,432.4l-.51-.778,1.732-.6,1.41-.778a2.091,2.091,0,0,0,3.161,0h0Z" transform="translate(-36.647 -397.898)" fill="#f8f7f7"/>
        <path id="Trazado_137273" data-name="Trazado 137273" d="M79.995,398.13H79v2.613l.79.492a1.171,1.171,0,0,1,.2-.01v-1.279a.152.152,0,0,1,.176-.151,2.669,2.669,0,0,0,.409.032,3.237,3.237,0,0,0,1.581-.455V398.13Z" transform="translate(-74.57 -368.245)" fill="#f2bb88"/>
        <g id="Grupo_105951" data-name="Grupo 105951" transform="translate(1.186 32.342)">
          <path id="Trazado_137274" data-name="Trazado 137274" d="M40.829,430.879h0L37.2,432.4l-.613-.821,3.245-1.337A2.005,2.005,0,0,0,40.829,430.879Z" transform="translate(-36.59 -430.24)" fill="#e8e8e8"/>
        </g>
        <path id="Trazado_137275" data-name="Trazado 137275" d="M59.342,295.3c0-2.406-1.235-3.874-3.641-3.874s-3.641,1.467-3.641,3.874a4.912,4.912,0,0,0,.175,1.523c.6,1.861,2.155,3.47,3.466,3.47s2.839-1.58,3.449-3.419A4.938,4.938,0,0,0,59.342,295.3Z" transform="translate(-49.691 -269.704)" fill="#f2d1a5"/>
        <path id="Trazado_137276" data-name="Trazado 137276" d="M56.833,291.907a2.468,2.468,0,0,0-.7.18l0,.008a1.467,1.467,0,0,0-.148-.526,4.805,4.805,0,0,0-1.207-.144c-2.406,0-3.718,1.467-3.718,3.874a5,5,0,0,0,.253,1.522c.053-.048.111-.1.174-.167a7.619,7.619,0,0,1,2.223-1.706,5.513,5.513,0,0,0,1.445-.651.154.154,0,0,1,.235.038,3.657,3.657,0,0,0,1.33,1.163,5,5,0,0,1,1.507,1.374A5.026,5.026,0,0,0,58.5,295.3,3.627,3.627,0,0,0,56.833,291.907Z" transform="translate(-48.768 -269.703)" fill="#f2bb88"/>
        <path id="Trazado_137277" data-name="Trazado 137277" d="M109.726,284.793a2.532,2.532,0,0,1,.966-.28,2.171,2.171,0,0,1,1.587.61c1.447,1.466.687,3.726.132,4.718a.153.153,0,0,1-.248.027,9.389,9.389,0,0,0-1.882-1.623,3.539,3.539,0,0,1-.767-.659,2.735,2.735,0,0,1-.429-.96Z" transform="translate(-102.352 -263.32)" fill="#8e868e"/>
        <path id="Trazado_137278" data-name="Trazado 137278" d="M109.279,285.946a4.3,4.3,0,0,1-1.024,1.636,2.762,2.762,0,0,1-.535-.9l.741-1.977a2.551,2.551,0,0,1,.972-.2A3.151,3.151,0,0,1,109.279,285.946Z" transform="translate(-101.092 -263.317)" fill="#766d78"/>
        <path id="Trazado_137279" data-name="Trazado 137279" d="M45.828,269.715a1.773,1.773,0,0,0-1.261-.733A4.344,4.344,0,0,0,41.549,270c-1.922,1.4-1.529,4.158-.926,5.38a.153.153,0,0,0,.262.023c.105-.145.272-.252.506-.491a6.174,6.174,0,0,1,2.3-1.476C45.619,272.73,46.486,270.743,45.828,269.715Z" transform="translate(-38.672 -248.951)" fill="#8e868e"/>
        <path id="Trazado_137280" data-name="Trazado 137280" d="M44.357,268.883a4.692,4.692,0,0,0-2.075.873c-1.668,1.219-1.561,3.635-1.11,5.052a5.249,5.249,0,0,0-.506.6.154.154,0,0,1-.262-.023c-.6-1.223-1.038-4.219.884-5.624A4.25,4.25,0,0,1,44.357,268.883Z" transform="translate(-38.452 -248.851)" fill="#766d78"/>
        <path id="Trazado_137281" data-name="Trazado 137281" d="M38.92,102.172l-1.778-.01a.821.821,0,0,0-.576.236l-1.2,1.177a.41.41,0,0,1-.578,0L33.619,102.4a.821.821,0,0,0-.58-.24H31.193a1.477,1.477,0,0,1-1.477-1.477V95.514a1.515,1.515,0,0,1,.918-1.473,1.476,1.476,0,0,1,.482-.081h9.4v6.8a1.474,1.474,0,0,1-.081.483A1.589,1.589,0,0,1,38.92,102.172Z" transform="translate(-29.056 -87.345)" fill="#f8f7f7"/>
        <path id="Trazado_137282" data-name="Trazado 137282" d="M39.519,102.223a1.477,1.477,0,0,1-1.4.995H36.3a.823.823,0,0,0-.576.236l-1.274,1.253a.411.411,0,0,1-.578,0l-1.249-1.247a.823.823,0,0,0-.58-.239H30.2a1.477,1.477,0,0,1-1.477-1.477V96.416a1.476,1.476,0,0,1,.995-1.4v6.72a.483.483,0,0,0,.482.483h1.846a1.8,1.8,0,0,1,1.282.53l.625.624a.307.307,0,0,0,.431,0l.645-.635a1.815,1.815,0,0,1,1.273-.521Z" transform="translate(-28.136 -88.324)" fill="#e8e8e8"/>
        <g id="Grupo_105952" data-name="Grupo 105952" transform="translate(3.628 9.261)">
          <path id="Trazado_137283" data-name="Trazado 137283" d="M72.049,128.919a.178.178,0,0,0,.244,0,1.365,1.365,0,0,1,.936-.366,1.338,1.338,0,0,1,1.336,1.343c-.014.966-1.045,1.793-1.75,2.246a2.771,2.771,0,0,1-.565.23.179.179,0,0,1-.162,0c-.422-.208-2.237-1.133-2.21-2.481a1.286,1.286,0,0,1,.746-1.2,1.311,1.311,0,0,1,.15-.086,1.284,1.284,0,0,1,.344-.05A1.338,1.338,0,0,1,72.049,128.919Z" transform="translate(-69.775 -128.552)" fill="#df646e"/>
          <path id="Trazado_137284" data-name="Trazado 137284" d="M71.558,132.739c-.249.16-.457.273-.565.33a.177.177,0,0,1-.161,0c-.422-.208-2.341-1.23-2.314-2.578a1.4,1.4,0,0,1,1-1.293,1.372,1.372,0,0,0-.311.834C69.184,131.126,70.741,132.243,71.558,132.739Z" transform="translate(-68.517 -129.15)" fill="#dc4955"/>
        </g>
        <path id="Trazado_137285" data-name="Trazado 137285" d="M351.1,102.161h-1.824a.821.821,0,0,0-.576.236l-1.2,1.253a.41.41,0,0,1-.578,0l-1.173-1.247a.821.821,0,0,0-.58-.24H343.33a1.477,1.477,0,0,1-1.477-1.477l.1-6.574,1.49-.151h7.74a1.477,1.477,0,0,1,1.477,1.477v5.324a1.474,1.474,0,0,1-.081.483A1.515,1.515,0,0,1,351.1,102.161Z" transform="translate(-317.313 -87.344)" fill="#f8f7f7"/>
        <g id="Grupo_105953" data-name="Grupo 105953" transform="translate(27.509 9.261)">
          <path id="Trazado_137286" data-name="Trazado 137286" d="M384.188,128.919a.179.179,0,0,0,.244,0,1.365,1.365,0,0,1,.936-.366,1.338,1.338,0,0,1,1.336,1.343c-.014.966-1.045,1.793-1.75,2.246a2.771,2.771,0,0,1-.565.23.179.179,0,0,1-.162,0c-.422-.208-2.237-1.133-2.21-2.481a1.286,1.286,0,0,1,.746-1.2,1.3,1.3,0,0,1,.15-.086,1.284,1.284,0,0,1,.344-.05A1.338,1.338,0,0,1,384.188,128.919Z" transform="translate(-381.914 -128.552)" fill="#df646e"/>
          <path id="Trazado_137287" data-name="Trazado 137287" d="M383.7,132.739c-.249.16-.457.273-.565.33a.177.177,0,0,1-.161,0c-.422-.208-2.341-1.23-2.313-2.578a1.4,1.4,0,0,1,1-1.293,1.372,1.372,0,0,0-.311.834C381.323,131.126,382.88,132.243,383.7,132.739Z" transform="translate(-380.656 -129.15)" fill="#dc4955"/>
        </g>
        <path id="Trazado_137288" data-name="Trazado 137288" d="M348.429,101.243a1.807,1.807,0,0,0-1.273.521l-.753.741a.154.154,0,0,1-.216,0l-.732-.731a1.814,1.814,0,0,0-1.282-.53h-1.846a.483.483,0,0,1-.483-.483V98.082a.154.154,0,0,1,.037-.1,2.1,2.1,0,0,0,.2-.273,3.05,3.05,0,0,0,.435-1.571v-2.18H340.85v6.8a1.477,1.477,0,0,0,1.477,1.477h1.846a.823.823,0,0,1,.58.239L346,103.724a.41.41,0,0,0,.578,0l1.274-1.253a.823.823,0,0,1,.575-.236h1.824a1.477,1.477,0,0,0,1.4-.995h-3.22Z" transform="translate(-316.387 -87.344)" fill="#e8e8e8"/>
        <path id="Trazado_137289" data-name="Trazado 137289" d="M175.229,18.166l-2.211.075a1.231,1.231,0,0,0-.917.41l-1.284,1.413a.574.574,0,0,1-.859,0l-1.188-1.438a1.231,1.231,0,0,0-.924-.418l-2.535.142a2.052,2.052,0,0,1-2.052-2.052V9.552A2.051,2.051,0,0,1,165.311,7.5h10.153a2.052,2.052,0,0,1,2.052,2.052V16.3a2.042,2.042,0,0,1-.293,1.057,2.338,2.338,0,0,1-1.993.814Z" transform="translate(-152.382 -7.5)" fill="#f8f7f7"/>
        <path id="Trazado_137290" data-name="Trazado 137290" d="M177.223,20.889a2.052,2.052,0,0,1-1.759.995h-2.446a1.234,1.234,0,0,0-.918.41l-1.281,1.431a.574.574,0,0,1-.859,0L168.709,22.3a1.23,1.23,0,0,0-.924-.418h-2.473a2.052,2.052,0,0,1-2.052-2.052V13.089a2.052,2.052,0,0,1,.995-1.759v8.5a1.058,1.058,0,0,0,1.057,1.057h2.473a2.224,2.224,0,0,1,1.671.755l.767.871a.229.229,0,0,0,.343,0l.793-.886a2.223,2.223,0,0,1,1.659-.741Z" transform="translate(-152.383 -11.037)" fill="#e8e8e8"/>
        <path id="Trazado_137291" data-name="Trazado 137291" d="M213.6,44.522a.274.274,0,0,0,.374,0,2.094,2.094,0,0,1,1.436-.562,2.053,2.053,0,0,1,2.05,2.06c-.022,1.554-1.759,2.873-2.837,3.543a5.068,5.068,0,0,1-.691.323.274.274,0,0,1-.248,0c-.647-.319-3.473-1.682-3.431-3.75a2.178,2.178,0,0,1,1.3-2.074,1.973,1.973,0,0,1,.618-.1A2.052,2.052,0,0,1,213.6,44.522Z" transform="translate(-195.777 -41.169)" fill="#df646e"/>
        <path id="Trazado_137292" data-name="Trazado 137292" d="M212.907,50.828c-.314.2-.572.335-.715.409a.275.275,0,0,1-.248,0c-.647-.32-3.591-1.887-3.55-3.955a2.141,2.141,0,0,1,1.444-1.955,2.108,2.108,0,0,0-.6,1.42C209.2,48.518,211.759,50.182,212.907,50.828Z" transform="translate(-194.065 -42.436)" fill="#dc4955"/>
        <path id="Trazado_137293" data-name="Trazado 137293" d="M234.181,357.911H230.2l.188,2.655-.188,1.4h0a2.964,2.964,0,0,0,.529.6,2.793,2.793,0,0,0,2.881.107c.231-.139.382-.491.57-.708h0v-1.687l-.161-.264Z" transform="translate(-214.201 -331.103)" fill="#e3a76f"/>
        <path id="Trazado_137294" data-name="Trazado 137294" d="M172.831,415.382l-2.083-.858-2.075-.631a2.636,2.636,0,0,1-3.982.109l-4,1.38a2.3,2.3,0,0,0-1.422,2.124l.076,3.165.765.153h5.026l1.627-.369,1.442.369h6.053v-3.318A2.3,2.3,0,0,0,172.831,415.382Z" transform="translate(-148.693 -382.802)" fill="#ccf49f"/>
        <path id="Trazado_137295" data-name="Trazado 137295" d="M231.195,357.91H230.2v4.059c.125.144.069.387.214.5.166.125.536.112.721.193h0v-1.888a.153.153,0,0,1,.188-.149,4,4,0,0,0,.868.132,4.363,4.363,0,0,0,1.991-.472V357.91h-2.988Z" transform="translate(-214.202 -331.102)" fill="#d6995c"/>
        <path id="Trazado_137296" data-name="Trazado 137296" d="M163.688,412.552l-2.3.985-2.323.957a1.3,1.3,0,0,0-.807,1.2v3.319h-.995V415.7a2.3,2.3,0,0,1,1.422-2.124l2.073-.854.945-.292,1.1-.493A2.264,2.264,0,0,0,163.688,412.552Z" transform="translate(-146.842 -380.994)" fill="#b3e59f"/>
        <path id="Trazado_137297" data-name="Trazado 137297" d="M212.121,411.825l-.086.1a10.617,10.617,0,0,0-2.461,6.116v.085H206.5v-.055a10.614,10.614,0,0,0-1.9-5.425,9.131,9.131,0,0,0-.521-.761l-.023-.03,2-.806a2.406,2.406,0,0,0,.936.611,2.635,2.635,0,0,0,3.046-.689h0Z" transform="translate(-190.066 -380.102)" fill="#f8f7f7"/>
        <path id="Trazado_137298" data-name="Trazado 137298" d="M205.96,411.66l-2.391.985q-.283-.406-.607-.786l-.023-.03,2.086-.859a2.631,2.631,0,0,0,.618.525l.062.037a2.64,2.64,0,0,0,.255.128Z" transform="translate(-189.027 -380.102)" fill="#e8e8e8"/>
        <path id="Trazado_137299" data-name="Trazado 137299" d="M208.134,236.509c0-2.882-1.449-5.191-4.331-5.191s-4.188,2.329-4.188,5.211a8.445,8.445,0,0,0-.134,1.478c.431,2.462,1.921,4.846,4.322,4.846,2.556,0,4.081-2.7,4.392-5.325A8.669,8.669,0,0,0,208.134,236.509Z" transform="translate(-185.814 -214.195)" fill="#e3a76f"/>
        <path id="Trazado_137300" data-name="Trazado 137300" d="M206.927,236.537a5.112,5.112,0,0,0-2.419-4.745.077.077,0,0,1-.135-.068,4.393,4.393,0,0,0-1.9-.4c-2.882,0-4.452,2.336-4.452,5.218a8.577,8.577,0,0,0,.13,1.471,2.046,2.046,0,0,1,.246-.236c.754-.709,1.836-.735,1.951-1.477a.153.153,0,0,1,.192-.128,2.637,2.637,0,0,0,2.716-1.248.153.153,0,0,1,.239-.045,1.671,1.671,0,0,0,1.258.346.153.153,0,0,1,.162.1c.433,1.266,1.62.8,1.951,2.207a8.4,8.4,0,0,0,.06-.992Z" transform="translate(-184.487 -214.196)" fill="#d6995c"/>
        <g id="Grupo_105954" data-name="Grupo 105954" transform="translate(11.687 14.689)">
          <path id="Trazado_137301" data-name="Trazado 137301" d="M185,203.233c-.04-.012-.115-.026-.177-.037a.076.076,0,0,1-.056-.106,1.606,1.606,0,0,0-2.586-1.823.076.076,0,0,1-.129-.039,1.95,1.95,0,0,0-3.139-1.142.077.077,0,0,1-.108-.011,1.6,1.6,0,0,0-2.822.816.077.077,0,0,1-.072.067,2.291,2.291,0,0,0-.52.091,2.259,2.259,0,0,0-1.538,2.242,2.061,2.061,0,0,0,.586,1.445.073.073,0,0,1,.019.054,6.806,6.806,0,0,0,.072,1.554,2.027,2.027,0,0,0,1.172,1.561.767.767,0,0,1,.376-.666c.468-.387,1.276-.457,1.479-1.17a.075.075,0,0,1,.084-.055,3.932,3.932,0,0,0,.545.064,2.755,2.755,0,0,0,2.571-1.767.073.073,0,0,1,.126-.018,1.875,1.875,0,0,0,1.979.644.075.075,0,0,1,.092.05c.47,1.534,1.644,1.039,1.644,2.471.769-.347,1.229-1.535,1.449-2.325a1.546,1.546,0,0,0-1.049-1.9Z" transform="translate(-173.849 -199.5)" fill="#855b51"/>
        </g>
        <g id="Grupo_105955" data-name="Grupo 105955" transform="translate(11.584 16.238)">
          <path id="Trazado_137302" data-name="Trazado 137302" d="M174.829,225.94a.918.918,0,0,0-.332.76,2.2,2.2,0,0,1-1.308-1.614,6.911,6.911,0,0,1-.08-1.548.073.073,0,0,0-.019-.054,2.294,2.294,0,0,1,1.052-3.735,2.293,2.293,0,0,0-.21,3.276.072.072,0,0,1,.019.054,6.908,6.908,0,0,0,.08,1.548A2.139,2.139,0,0,0,174.829,225.94Z" transform="translate(-172.5 -219.75)" fill="#724d44"/>
        </g>
      </g>
      <g id="Grupo_105958" data-name="Grupo 105958" transform="translate(0 0)">
        <g id="Grupo_105957" data-name="Grupo 105957">
          <path id="Trazado_137303" data-name="Trazado 137303" d="M375.788,126.058a.755.755,0,0,0,.681-.007c.61-.318,2.6-1.479,2.623-3.077a1.921,1.921,0,0,0-2.968-1.615,1.9,1.9,0,0,0-1.043-.31,1.978,1.978,0,0,0-1.927,1.9C373.121,124.612,375.161,125.749,375.788,126.058Zm-.712-3.861h.005a.766.766,0,0,1,.527.211h0a.754.754,0,0,0,1.028,0,.775.775,0,0,1,1.307.549c-.011.756-1.082,1.557-1.828,1.979-.754-.406-1.83-1.188-1.815-1.959A.814.814,0,0,1,375.076,122.2Z" transform="translate(-345.645 -111.788)" fill="#12263f"/>
          <path id="Trazado_137304" data-name="Trazado 137304" d="M63.649,126.058a.755.755,0,0,0,.681-.007c.61-.318,2.6-1.479,2.623-3.077a1.921,1.921,0,0,0-2.968-1.615,1.9,1.9,0,0,0-1.056-.31,1.949,1.949,0,0,0-1.914,1.9C60.982,124.612,63.022,125.749,63.649,126.058Zm-.712-3.861h.005a.766.766,0,0,1,.527.211h0a.754.754,0,0,0,1.028,0,.775.775,0,0,1,1.307.549c-.011.756-1.082,1.557-1.828,1.979-.754-.406-1.83-1.188-1.814-1.959A.814.814,0,0,1,62.937,122.2Z" transform="translate(-57.386 -111.788)" fill="#12263f"/>
          <path id="Trazado_137305" data-name="Trazado 137305" d="M23.266,16.041h1.846a.246.246,0,0,1,.174.072l1.25,1.247a.987.987,0,0,0,1.385,0L29.2,16.112a.245.245,0,0,1,.173-.071h1.824a2.053,2.053,0,0,0,2.051-2.051V11.838a2.614,2.614,0,0,0,.891.156h2.474a.658.658,0,0,1,.493.223l1.251,1.421a1.149,1.149,0,0,0,.857.389h0a1.149,1.149,0,0,0,.856-.383l1.281-1.432a.658.658,0,0,1,.49-.219h2.446a2.615,2.615,0,0,0,.809-.128V13.99a2.053,2.053,0,0,0,2.051,2.051h1.846a.246.246,0,0,1,.174.072l1.25,1.247a.987.987,0,0,0,1.385,0l1.274-1.253a.246.246,0,0,1,.173-.071h1.824a2.053,2.053,0,0,0,2.051-2.051V8.665a2.053,2.053,0,0,0-2.051-2.051H46.912V2.625A2.628,2.628,0,0,0,44.287,0H39.612a.574.574,0,1,0,0,1.148h4.674a1.479,1.479,0,0,1,1.478,1.478V9.369a1.479,1.479,0,0,1-1.478,1.478H41.84a1.807,1.807,0,0,0-1.345.6L39.213,12.88l-1.251-1.421a1.805,1.805,0,0,0-1.355-.612H34.134a1.479,1.479,0,0,1-1.478-1.478V2.625a1.479,1.479,0,0,1,1.478-1.478h2.8a.574.574,0,0,0,0-1.148h-2.8a2.628,2.628,0,0,0-2.625,2.625V6.615H23.266a2.053,2.053,0,0,0-2.051,2.051V13.99A2.053,2.053,0,0,0,23.266,16.041ZM55.073,7.762a.9.9,0,0,1,.9.9V13.99a.9.9,0,0,1-.9.9H53.249a1.386,1.386,0,0,0-.978.4l-1.159,1.14L49.977,15.3a1.385,1.385,0,0,0-.985-.407H47.146a.9.9,0,0,1-.9-.9V11.117a2.615,2.615,0,0,0,.669-1.748V7.762h8.161Zm-32.71.9a.9.9,0,0,1,.9-.9h8.243V9.369a2.613,2.613,0,0,0,.587,1.652V13.99a.9.9,0,0,1-.9.9H29.368a1.386,1.386,0,0,0-.978.4l-1.158,1.14L26.1,15.3a1.385,1.385,0,0,0-.985-.407H23.266a.9.9,0,0,1-.9-.9V8.666Z" transform="translate(-20.632 0)" fill="#12263f"/>
          <path id="Trazado_137306" data-name="Trazado 137306" d="M200.9,39.075c-.048,2.363,2.95,4.027,3.869,4.481a.851.851,0,0,0,.767-.008c.9-.468,3.827-2.171,3.86-4.453a2.642,2.642,0,0,0-4.247-2.1,2.627,2.627,0,0,0-1.617-.544A2.682,2.682,0,0,0,200.9,39.075Zm2.64-1.475h.011a1.48,1.48,0,0,1,1.019.408h0a.849.849,0,0,0,1.159,0,1.5,1.5,0,0,1,2.521,1.071c-.018,1.27-1.656,2.6-3.108,3.38-1.474-.755-3.12-2.059-3.094-3.36A1.546,1.546,0,0,1,203.535,37.6Z" transform="translate(-186.565 -33.663)" fill="#12263f"/>
          <path id="Trazado_137307" data-name="Trazado 137307" d="M50.334,212.066v-8.358a6.24,6.24,0,0,0-9.085-5.552.574.574,0,0,0,.524,1.021,5.034,5.034,0,0,1,2.323-.559,5.1,5.1,0,0,1,5.091,5.091v7.346l-.046-.021h0l-2.89-1.191v-1.122a6.789,6.789,0,0,0,1.953-4.5,4.5,4.5,0,0,0-2.495-4.4.575.575,0,0,0-.445,0,.6.6,0,0,0-.34.407,4.139,4.139,0,0,1-3.171,3.155l-1.313.281a.666.666,0,0,0-.452.676,6.8,6.8,0,0,0,1.953,4.39v1.115l-2.283.941a2.858,2.858,0,0,0-.653-.59v-6.484a5.059,5.059,0,0,1,.919-2.919.574.574,0,1,0-.94-.659,6.2,6.2,0,0,0-1.127,3.578v5.953l-3.14-1.294v-2.18a7.718,7.718,0,0,0,2.448-5.32,4.682,4.682,0,0,0,1.434-2.506,2.129,2.129,0,0,0-.279-1.753,2.1,2.1,0,0,0-.864-.741,2.2,2.2,0,0,0,.026-.585,2.179,2.179,0,0,0-3.106-1.771,2.526,2.526,0,0,0-3.457-1.046,2.181,2.181,0,0,0-3.421,1.039,2.869,2.869,0,0,0-1.724,4.574,7.247,7.247,0,0,0,.1,1.486,2.73,2.73,0,0,0,1.34,1.88,9.4,9.4,0,0,0,.219,1.111.6.6,0,0,0,.7.41.574.574,0,0,0,.41-.7,8.261,8.261,0,0,1-.22-1.192c-.025-.222.058-.319.561-.565a2.318,2.318,0,0,0,1.045-.8,3.357,3.357,0,0,0,3.041-1.485,2.567,2.567,0,0,0,1.6.421,2.661,2.661,0,0,0,1.024,1.129c.342.236.447.309.449.742-.119,2.682-1.6,5.451-3.885,5.451a3.236,3.236,0,0,1-2.6-1.474.574.574,0,0,0-.929.674,5.353,5.353,0,0,0,.961,1.025v2.174l-3.8,1.567a2.868,2.868,0,0,0-1.147.859l-2.308-.951v-1.764a6.682,6.682,0,0,0,1.863-2.918.573.573,0,0,0,.4-.258c.6-.932,1.742-3.758-.095-5.618a2.846,2.846,0,0,0-2.576-.724,1.816,1.816,0,0,0-.12-.221c-.775-1.211-2.778-1.38-4.56-.386a.574.574,0,1,0,.559,1c1.337-.745,2.648-.6,3.034,0a1.252,1.252,0,0,1,.028,1.054,3.081,3.081,0,0,1-1.879,1.815,6.737,6.737,0,0,0-2.593,1.7,5.225,5.225,0,0,1-.044-2.821.574.574,0,1,0-1.1-.331,6.288,6.288,0,0,0,.507,4.578.574.574,0,0,0,.415.26,6.7,6.7,0,0,0,1.847,2.864v1.769c-.053.023-2.866,1.178-2.922,1.205a2.479,2.479,0,0,0-1.508,2.286v1.808a1.341,1.341,0,0,0,1.34,1.34H49.341a1.341,1.341,0,0,0,1.34-1.34v-1.808a2.484,2.484,0,0,0-.346-1.267Zm-14.849-14.23a.574.574,0,0,0-.73-.391,1.3,1.3,0,0,1-1.48-.509.574.574,0,0,0-1.02.143,2.176,2.176,0,0,1-2.072,1.5,3.908,3.908,0,0,1-.5-.066.574.574,0,0,0-.668.44c-.049.225-.22.326-.626.52a2.337,2.337,0,0,0-.961.7,1.569,1.569,0,0,1-.425-.822,6.41,6.41,0,0,1-.069-1.428.574.574,0,0,0-.151-.435A1.72,1.72,0,0,1,27.99,194.6a.574.574,0,0,0,.554-.52,1.031,1.031,0,0,1,1.849-.525.574.574,0,0,0,.835.084,1.376,1.376,0,0,1,2.274.879.574.574,0,0,0,1.012.3,1.024,1.024,0,0,1,.89-.37,1.033,1.033,0,0,1,.811,1.525.574.574,0,0,0,.443.847.963.963,0,0,1,.707.422.982.982,0,0,1,.128.809,5.415,5.415,0,0,1-.582,1.41,2.226,2.226,0,0,0-.673-.634,1.534,1.534,0,0,1-.754-1Zm6.509,6.667a5.292,5.292,0,0,0,3.832-3.294,3.719,3.719,0,0,1,1.23,3.014c0,2.059-1.792,4.441-2.961,4.441-1.083,0-2.7-2.028-2.933-3.983ZM31.133,215.334A11.274,11.274,0,0,0,29,209.852l1.029-.424a3.2,3.2,0,0,0,2.126.807h0a3.205,3.205,0,0,0,2.127-.807l1.013.417a11.28,11.28,0,0,0-2.154,5.488Zm5.258-5.035,1.691.7a1.718,1.718,0,0,1,1.067,1.594v2.745H34.294A10.117,10.117,0,0,1,36.391,210.3Zm-4.24-3.182a3.941,3.941,0,0,0,1.418-.259v1.666a2.059,2.059,0,0,1-1.417.565h0a2.058,2.058,0,0,1-1.417-.565v-1.665a3.966,3.966,0,0,0,1.417.258Zm-8.144,8.218h-1l1-1.162Zm.007-2.928-2.522,2.928H18.881l-2.63-3.522,2.212-.911a2.663,2.663,0,0,0,1.711.623h0a2.663,2.663,0,0,0,1.712-.623l2.228.918A2.875,2.875,0,0,0,24.014,212.406Zm-.332-12.316c1,1.011.684,2.545.29,3.507a9.714,9.714,0,0,0-1.571-1.271,2.767,2.767,0,0,1-.945-.985,3.743,3.743,0,0,0,.495-.962,2.982,2.982,0,0,0,.147-.68A1.74,1.74,0,0,1,23.682,200.091Zm-6.544,4.315a5.573,5.573,0,0,1,2.24-1.5,4.518,4.518,0,0,0,1.261-.7,4,4,0,0,0,1.143,1.092,8.612,8.612,0,0,1,1.416,1.154c-.443,1.884-1.985,3.452-3.025,3.452S17.568,206.3,17.138,204.405Zm3.035,4.642a2.583,2.583,0,0,0,1.008-.221v1.168a1.516,1.516,0,0,1-1.007.382h0a1.516,1.516,0,0,1-1.007-.383v-1.169A2.569,2.569,0,0,0,20.173,209.047Zm-5.437,6.1v-1.808a1.336,1.336,0,0,1,.462-1.012l2.25,3.012h-2.52A.192.192,0,0,1,14.737,215.142Zm10.418-2.553A1.718,1.718,0,0,1,26.222,211L27.9,210.3a10.113,10.113,0,0,1,2.078,5.029H25.155V212.59ZM40.3,215.334V212.59a2.883,2.883,0,0,0-.11-.783l1.758-.724a8.093,8.093,0,0,0,.96,4.253Zm2.791-5.109v-.662a2.157,2.157,0,0,0,2.014,0s0,.606,0,.666c0,1.722,0,3.5-1.007,4.808-1.007-1.307-1.007-3.086-1.007-4.81a.007.007,0,0,0,0,0Zm6.444,4.917a.192.192,0,0,1-.192.192H45.285a8.094,8.094,0,0,0,.961-4.252l2.457,1.012h0a1.336,1.336,0,0,1,.83,1.24Z" transform="translate(-13.589 -177.311)" fill="#12263f"/>
        </g>
      </g>
    </g>
  </g>
</svg>
