<svg xmlns="http://www.w3.org/2000/svg" xmlns:xlink="http://www.w3.org/1999/xlink" width="58" height="58" viewBox="0 0 58 58">
  <defs>
    <clipPath id="clip-path">
      <rect id="Rectángulo_36982" data-name="Rectángulo 36982" width="58" height="58" transform="translate(1691 -4739.5)" fill="#fc8116"/>
    </clipPath>
  </defs>
  <g id="Enmascarar_grupo_132" data-name="Enmascarar grupo 132" transform="translate(-1691 4739.5)" clip-path="url(#clip-path)">
    <g id="raton" transform="translate(1691 -4739.5)">
      <g id="Grupo_105682" data-name="Grupo 105682">
        <g id="Grupo_105681" data-name="Grupo 105681">
          <path id="Trazado_136617" data-name="Trazado 136617" d="M27.579,23.5a.848.848,0,0,0-.849.849v24.23a7.8,7.8,0,0,1-15.59,0v-22.2h6.3a.848.848,0,0,0,.849-.849V21.223a.848.848,0,0,0-.849-.849h-.167l3.185-5.287a.849.849,0,0,0-.028-.919L11,.453l0,0,0,0L10.984.437Q10.961.4,10.934.372L10.914.35Q10.891.326,10.867.3l-.022-.02c-.02-.017-.04-.033-.061-.048l-.013-.01a.817.817,0,0,0-.082-.05L10.677.171A.813.813,0,0,0,10.6.137L10.579.129c-.022-.008-.045-.015-.068-.021L10.484.1c-.023-.005-.047-.01-.07-.013l-.026,0a.786.786,0,0,0-.194,0l-.026,0c-.024,0-.047.008-.07.013l-.027.007Q10.037.116,10,.129L9.98.137q-.038.015-.074.034L9.894.176a.9.9,0,0,0-.082.05L9.8.236c-.021.015-.041.031-.061.048L9.716.3Q9.692.326,9.669.35l-.02.022C9.631.393,9.614.415,9.6.437L9.592.445l0,0,0,0L4.325,8.1a.849.849,0,1,0,1.4.962l3.72-5.407v7.053a2.487,2.487,0,1,0,1.7,0V3.656L18.726,14.68,15.3,20.374H5.288L1.858,14.68l1.919-2.789a.849.849,0,1,0-1.4-.962L.149,14.169a.848.848,0,0,0-.028.919l3.185,5.287H3.139a.848.848,0,0,0-.849.849v4.305a.848.848,0,0,0,.849.849h6.3v22.2a9.493,9.493,0,0,0,18.984,0V24.344A.849.849,0,0,0,27.579,23.5Zm-17.287-9.7a.768.768,0,1,1,.79-.768A.78.78,0,0,1,10.291,13.794ZM3.988,24.68V22.071H16.6V24.68Z" fill="#fc8116"/>
        </g>
      </g>
      <g id="Grupo_105684" data-name="Grupo 105684">
        <g id="Grupo_105683" data-name="Grupo 105683">
          <path id="Trazado_136618" data-name="Trazado 136618" d="M47.25,24.736V10.18a10.261,10.261,0,0,0-20.52,0V20.95a.849.849,0,1,0,1.7,0V10.18a8.564,8.564,0,0,1,17.126,0V24.733a11.64,11.64,0,0,0-10.8,11.6v1.581a.849.849,0,1,0,1.7,0V36.328a9.928,9.928,0,1,1,19.856,0v9.95a9.928,9.928,0,1,1-19.856,0V41.3a.849.849,0,0,0-1.7,0v4.975a11.625,11.625,0,0,0,23.25,0v-9.95A11.64,11.64,0,0,0,47.25,24.736Z" fill="#fc8116"/>
        </g>
      </g>
      <g id="Grupo_105686" data-name="Grupo 105686">
        <g id="Grupo_105685" data-name="Grupo 105685">
          <path id="Trazado_136619" data-name="Trazado 136619" d="M46.4,28.927h-.053a2.785,2.785,0,0,0-2.782,2.782V34.3a2.785,2.785,0,0,0,2.782,2.781H46.4A2.785,2.785,0,0,0,49.183,34.3V31.708A2.785,2.785,0,0,0,46.4,28.927ZM47.486,34.3A1.086,1.086,0,0,1,46.4,35.38h-.053A1.086,1.086,0,0,1,45.264,34.3V31.708a1.086,1.086,0,0,1,1.084-1.084H46.4a1.086,1.086,0,0,1,1.084,1.084Z" fill="#fc8116"/>
        </g>
      </g>
    </g>
  </g>
</svg>
