<svg xmlns="http://www.w3.org/2000/svg" width="1215.837" height="300.118" viewBox="0 0 1215.837 300.118">
  <g id="Grupo_105657" data-name="Grupo 105657" transform="translate(643.17 -3247.508)">
    <path id="Trazado_121014" data-name="Trazado 121014" d="M405.2,292.224l-28.545,2.658,10.506,10.506-24.3,24.3a3.389,3.389,0,1,0,4.793,4.793l24.3-24.3,10.588,10.591Z" transform="translate(-1005.033 3212.15)" fill="#529d2e"/>
    <path id="Trazado_121034" data-name="Trazado 121034" d="M390.53,292.224l-18.884,1.758,6.95,6.95L362.52,317.009a2.242,2.242,0,1,0,3.171,3.171L381.767,304.1l7,7.007Z" transform="translate(121.137 3018.201)" fill="#529d2e"/>
    <path id="Trazado_121015" data-name="Trazado 121015" d="M663.961,258.188l-36.605,3.407,13.47,13.474-31.162,31.163a4.347,4.347,0,1,0,6.146,6.148l31.164-31.164,13.578,13.58Z" transform="translate(-91.294 3038.811)" fill="#fc8116"/>
    <path id="Trazado_121016" data-name="Trazado 121016" d="M579.972,168.785l-26.787,2.494,9.859,9.859-22.805,22.805a3.18,3.18,0,1,0,4.5,4.5l22.805-22.8,9.936,9.938Z" transform="translate(-7.305 3078.723)" fill="#fcd03e"/>
    <path id="Trazado_121017" data-name="Trazado 121017" d="M576.3,168.785l-24.368,2.269,8.969,8.969-20.746,20.746a2.893,2.893,0,1,0,4.092,4.092l20.746-20.745,9.039,9.04Z" transform="translate(-1151.3 3099.016)" fill="#fcd03e"/>
  </g>
</svg>
