<svg xmlns="http://www.w3.org/2000/svg" width="718.171" height="409.118" viewBox="0 0 718.171 409.118">
  <g id="Grupo_105581" data-name="Grupo 105581" transform="translate(643.17 -3247.508)">
    <path id="Trazado_121014" data-name="Trazado 121014" d="M405.2,292.224l-28.545,2.658,10.506,10.506-24.3,24.3a3.389,3.389,0,1,0,4.793,4.793l24.3-24.3,10.588,10.591Z" transform="translate(-1005.033 3321.15)" fill="#529d2e"/>
    <path id="Trazado_121034" data-name="Trazado 121034" d="M384.349,292.224,369.537,293.6l5.451,5.451-12.61,12.61a1.759,1.759,0,1,0,2.487,2.487l12.61-12.61,5.494,5.5Z" transform="translate(-357.196 3004.635)" fill="#529d2e"/>
    <path id="Trazado_121015" data-name="Trazado 121015" d="M651.98,258.188l-28.713,2.672,10.566,10.569-24.444,24.444a3.409,3.409,0,1,0,4.821,4.822l24.445-24.445L649.306,286.9Z" transform="translate(-576.979 3028.14)" fill="#fc8116"/>
    <path id="Trazado_121016" data-name="Trazado 121016" d="M571.2,168.785l-21.012,1.956,7.733,7.733-17.889,17.888a2.495,2.495,0,1,0,3.528,3.528L561.453,182l7.794,7.8Z" transform="translate(-496.204 3078.723)" fill="#fcd03e"/>
    <path id="Trazado_121017" data-name="Trazado 121017" d="M576.3,168.785l-24.368,2.269,8.969,8.969-20.746,20.746a2.893,2.893,0,1,0,4.092,4.092l20.746-20.745,9.039,9.04Z" transform="translate(-1157.64 3091.291)" fill="#fcd03e"/>
  </g>
</svg>
