<svg xmlns="http://www.w3.org/2000/svg" width="1219" height="394.118" viewBox="0 0 1219 394.118">
  <g id="Grupo_105581" data-name="Grupo 105581" transform="translate(1232.17 -3247.508)">
    <path id="Trazado_121014" data-name="Trazado 121014" d="M405.2,292.224l-28.545,2.658,10.506,10.506-24.3,24.3a3.389,3.389,0,1,0,4.793,4.793l24.3-24.3,10.588,10.591Z" transform="translate(-1594.033 3306.15)" fill="#529d2e"/>
    <path id="Trazado_121034" data-name="Trazado 121034" d="M384.51,292.224l-14.918,1.389,5.491,5.49-12.7,12.7a1.771,1.771,0,1,0,2.5,2.5l12.7-12.7,5.534,5.535Z" transform="translate(-445.87 3004.989)" fill="#529d2e"/>
    <path id="Trazado_121015" data-name="Trazado 121015" d="M652.291,258.188l-28.919,2.691,10.642,10.645L609.4,296.142A3.434,3.434,0,1,0,614.252,301l24.62-24.62L649.6,287.108Z" transform="translate(-665.462 3028.418)" fill="#fc8116"/>
    <path id="Trazado_121016" data-name="Trazado 121016" d="M571.432,168.785l-21.162,1.97,7.789,7.788L540.042,196.56a2.512,2.512,0,1,0,3.553,3.553L561.612,182.1l7.85,7.851Z" transform="translate(-584.603 3078.723)" fill="#fcd03e"/>
    <path id="Trazado_121017" data-name="Trazado 121017" d="M576.3,168.785l-24.368,2.269,8.969,8.969-20.746,20.746a2.893,2.893,0,1,0,4.092,4.092l20.746-20.745,9.039,9.04Z" transform="translate(-1744.47 3114.109)" fill="#fcd03e"/>
  </g>
</svg>
