<svg xmlns="http://www.w3.org/2000/svg" width="288.94" height="206.988" viewBox="0 0 288.94 206.988">
  <g id="Grupo_106260" data-name="Grupo 106260" transform="translate(-275.011 -138.573)">
    <path id="Trazado_137765" data-name="Trazado 137765" d="M300.633,344.848s-48.8-41.669-11.7-81.163c39.5-42.047,4.5-96.027,58.12-117.807,57.966-23.547,72.88,17.926,97.147,11.558,48.4-12.7,109.8-6.447,99.58,55.249-12.823,77.446,39.786,67.569,8.54,132.421Z" fill="#e1f3d7"/>
    <g id="Grupo_106249" data-name="Grupo 106249" transform="translate(372.312 198.213)">
      <g id="Grupo_106206" data-name="Grupo 106206" transform="translate(0)">
        <rect id="Rectángulo_37474" data-name="Rectángulo 37474" width="107.082" height="146.437" fill="#67c53a"/>
        <rect id="Rectángulo_37475" data-name="Rectángulo 37475" width="97.957" height="138.451" transform="translate(4.563 3.951)" fill="#f3faff"/>
        <path id="Trazado_137766" data-name="Trazado 137766" d="M1361.5,634.977v4.988a4.986,4.986,0,0,0,4.984,4.988h26.769a4.986,4.986,0,0,0,4.984-4.988v-4.988Z" transform="translate(-1328.269 -634.977)" fill="#2b478b"/>
      </g>
      <g id="Grupo_106207" data-name="Grupo 106207" transform="translate(15.934 122.804)">
        <rect id="Rectángulo_37476" data-name="Rectángulo 37476" width="12.119" height="1.227" fill="#aec3ff"/>
        <rect id="Rectángulo_37477" data-name="Rectángulo 37477" width="12.119" height="1.227" transform="translate(14.926)" fill="#aec3ff"/>
        <rect id="Rectángulo_37478" data-name="Rectángulo 37478" width="16.808" height="1.227" transform="translate(0 2.722)" fill="#aec3ff"/>
      </g>
      <g id="Grupo_106209" data-name="Grupo 106209" transform="translate(26.39 20.54)">
        <g id="Grupo_106208" data-name="Grupo 106208" transform="translate(3.618)">
          <path id="Trazado_137767" data-name="Trazado 137767" d="M1334.665,807.093h4.436a3.867,3.867,0,0,1,2.828.984,3.068,3.068,0,0,1,.832,2.246,3.014,3.014,0,0,1-2.08,3.008l2.371,3.466h-2.5l-2.107-3.105h-1.65V816.8h-2.135Zm4.3,4.714c1.04,0,1.636-.555,1.636-1.4,0-.915-.638-1.386-1.678-1.386H1336.8v2.787Z" transform="translate(-1334.665 -806.954)" fill="#529d2e"/>
          <path id="Trazado_137768" data-name="Trazado 137768" d="M1416.828,812.638v-5.545h2.135v5.49c0,1.581.79,2.4,2.093,2.4s2.093-.79,2.093-2.329v-5.559h2.135v5.476c0,2.939-1.65,4.381-4.256,4.381S1416.828,815.494,1416.828,812.638Z" transform="translate(-1406.957 -806.954)" fill="#529d2e"/>
          <path id="Trazado_137769" data-name="Trazado 137769" d="M1505.338,807.093h2.135v7.764h4.839V816.8h-6.974Z" transform="translate(-1484.833 -806.954)" fill="#529d2e"/>
          <path id="Trazado_137770" data-name="Trazado 137770" d="M1576.769,807.093h7.32v1.9h-5.2v1.969h4.575v1.9h-4.575V814.9h5.268v1.9h-7.389Z" transform="translate(-1547.682 -806.954)" fill="#529d2e"/>
          <path id="Trazado_137771" data-name="Trazado 137771" d="M1648.547,814.368l1.262-1.511a4.452,4.452,0,0,0,2.9,1.178c.873,0,1.4-.347,1.4-.943,0-.541-.333-.818-1.955-1.234-1.955-.5-3.216-1.04-3.216-2.995,0-1.761,1.414-2.925,3.4-2.925a5.617,5.617,0,0,1,3.6,1.234l-1.109,1.608a4.553,4.553,0,0,0-2.523-.957c-.818,0-1.248.374-1.248.873,0,.638.416.846,2.093,1.275,1.969.513,3.078,1.22,3.078,2.939,0,1.927-1.47,3.008-3.563,3.008A6.174,6.174,0,0,1,1648.547,814.368Z" transform="translate(-1610.836 -805.939)" fill="#529d2e"/>
        </g>
        <rect id="Rectángulo_37479" data-name="Rectángulo 37479" width="52.628" height="0.679" transform="translate(0 12.132)" fill="#529d2e"/>
      </g>
      <g id="Grupo_106220" data-name="Grupo 106220" transform="translate(11.04 34.646)">
        <g id="Grupo_106212" data-name="Grupo 106212" transform="translate(63.965)">
          <g id="Grupo_106210" data-name="Grupo 106210" transform="translate(0 3.038)">
            <path id="Trazado_137772" data-name="Trazado 137772" d="M1726.9,966.347h-17.716V948.63H1726.9Zm-16.882-.834h16.047V949.464h-16.047Z" transform="translate(-1709.188 -948.63)" fill="#afcdfb"/>
          </g>
          <g id="Grupo_106211" data-name="Grupo 106211" transform="translate(2.58)">
            <path id="Trazado_137773" data-name="Trazado 137773" d="M1737.379,940.539a1.252,1.252,0,0,1-.965-.454l-5.467-6.613a1.252,1.252,0,1,1,1.929-1.6l4.336,5.245,7.844-13.164a1.252,1.252,0,1,1,2.151,1.281l-8.752,14.69a1.251,1.251,0,0,1-.979.607C1737.443,940.538,1737.411,940.539,1737.379,940.539Z" transform="translate(-1730.66 -923.346)" fill="#fc8116"/>
          </g>
        </g>
        <g id="Grupo_106219" data-name="Grupo 106219" transform="translate(0 5.451)">
          <g id="Grupo_106216" data-name="Grupo 106216" transform="translate(10.935 0.202)">
            <g id="Grupo_106213" data-name="Grupo 106213">
              <rect id="Rectángulo_37480" data-name="Rectángulo 37480" width="39.358" height="1.729" fill="#aec3ff"/>
            </g>
            <g id="Grupo_106214" data-name="Grupo 106214" transform="translate(0 7.72)">
              <rect id="Rectángulo_37481" data-name="Rectángulo 37481" width="36.272" height="1.728" fill="#aec3ff"/>
            </g>
            <g id="Grupo_106215" data-name="Grupo 106215" transform="translate(0 3.86)">
              <rect id="Rectángulo_37482" data-name="Rectángulo 37482" width="10.729" height="1.729" transform="translate(28.629)" fill="#aec3ff"/>
              <rect id="Rectángulo_37483" data-name="Rectángulo 37483" width="25.656" height="1.729" fill="#aec3ff"/>
            </g>
          </g>
          <g id="Grupo_106218" data-name="Grupo 106218">
            <g id="Grupo_106217" data-name="Grupo 106217">
              <path id="Trazado_137774" data-name="Trazado 137774" d="M1178.905,970.464l-1.761.489-.363-1.4,2.627-.838h1.2v9.852h-1.705Z" transform="translate(-1176.781 -968.717)" fill="#aec3ff"/>
            </g>
            <path id="Trazado_137775" data-name="Trazado 137775" d="M1218.021,1040.985a.622.622,0,1,1,.622.622A.622.622,0,0,1,1218.021,1040.985Z" transform="translate(-1213.066 -1031.755)" fill="#aec3ff"/>
          </g>
        </g>
      </g>
      <g id="Grupo_106232" data-name="Grupo 106232" transform="translate(10.964 61.111)">
        <g id="Grupo_106223" data-name="Grupo 106223" transform="translate(64.178)">
          <g id="Grupo_106221" data-name="Grupo 106221" transform="translate(0 3.038)">
            <path id="Trazado_137776" data-name="Trazado 137776" d="M1728.046,1186.63H1710.33v-17.716h17.716Zm-16.882-.834h16.048v-16.048h-16.048Z" transform="translate(-1710.33 -1168.914)" fill="#afcdfb"/>
          </g>
          <g id="Grupo_106222" data-name="Grupo 106222" transform="translate(2.58)">
            <path id="Trazado_137777" data-name="Trazado 137777" d="M1738.521,1160.823a1.252,1.252,0,0,1-.965-.454l-5.467-6.613a1.252,1.252,0,1,1,1.929-1.6l4.336,5.245,7.844-13.164a1.252,1.252,0,1,1,2.151,1.281l-8.752,14.69a1.252,1.252,0,0,1-.979.607C1738.585,1160.822,1738.553,1160.823,1738.521,1160.823Z" transform="translate(-1731.802 -1143.629)" fill="#fc8116"/>
          </g>
        </g>
        <g id="Grupo_106231" data-name="Grupo 106231" transform="translate(0 5.451)">
          <g id="Grupo_106225" data-name="Grupo 106225">
            <g id="Grupo_106224" data-name="Grupo 106224">
              <path id="Trazado_137778" data-name="Trazado 137778" d="M1176.15,1197.506l3.344-2.845c1.332-1.124,1.818-1.748,1.818-2.623a1.456,1.456,0,0,0-1.568-1.513c-.888,0-1.5.486-2.248,1.457l-1.207-.944a3.982,3.982,0,0,1,3.58-2.04,2.914,2.914,0,0,1,3.205,2.928c0,1.526-.819,2.345-2.526,3.761l-2,1.665h4.621v1.5h-7.021Z" transform="translate(-1176.15 -1189)" fill="#aec3ff"/>
            </g>
            <path id="Trazado_137779" data-name="Trazado 137779" d="M1244.211,1261.338a.618.618,0,1,1,.618.618A.618.618,0,0,1,1244.211,1261.338Z" transform="translate(-1236.034 -1252.103)" fill="#aec3ff"/>
          </g>
          <g id="Grupo_106230" data-name="Grupo 106230" transform="translate(11.336 0.202)">
            <g id="Grupo_106229" data-name="Grupo 106229">
              <g id="Grupo_106226" data-name="Grupo 106226">
                <rect id="Rectángulo_37484" data-name="Rectángulo 37484" width="41.358" height="1.729" fill="#aec3ff"/>
              </g>
              <g id="Grupo_106227" data-name="Grupo 106227" transform="translate(0 7.72)">
                <rect id="Rectángulo_37485" data-name="Rectángulo 37485" width="38.115" height="1.728" fill="#aec3ff"/>
              </g>
              <g id="Grupo_106228" data-name="Grupo 106228" transform="translate(0 3.86)">
                <rect id="Rectángulo_37486" data-name="Rectángulo 37486" width="11.274" height="1.728" transform="translate(30.084)" fill="#aec3ff"/>
                <rect id="Rectángulo_37487" data-name="Rectángulo 37487" width="26.96" height="1.728" fill="#aec3ff"/>
              </g>
            </g>
          </g>
        </g>
      </g>
      <g id="Grupo_106243" data-name="Grupo 106243" transform="translate(10.841 87.772)">
        <g id="Grupo_106235" data-name="Grupo 106235" transform="translate(64.301)">
          <g id="Grupo_106233" data-name="Grupo 106233" transform="translate(0 3.038)">
            <path id="Trazado_137780" data-name="Trazado 137780" d="M1728.046,1408.54H1710.33v-17.717h17.716Zm-16.882-.834h16.048v-16.048h-16.048Z" transform="translate(-1710.33 -1390.823)" fill="#afcdfb"/>
          </g>
          <g id="Grupo_106234" data-name="Grupo 106234" transform="translate(2.58)">
            <path id="Trazado_137781" data-name="Trazado 137781" d="M1738.521,1382.733a1.252,1.252,0,0,1-.965-.454l-5.467-6.614a1.252,1.252,0,0,1,1.929-1.595l4.336,5.245,7.844-13.164a1.252,1.252,0,0,1,2.151,1.281l-8.752,14.69a1.252,1.252,0,0,1-.979.607C1738.585,1382.732,1738.553,1382.733,1738.521,1382.733Z" transform="translate(-1731.802 -1365.54)" fill="#fc8116"/>
          </g>
        </g>
        <g id="Grupo_106240" data-name="Grupo 106240" transform="translate(11.459 5.653)">
          <g id="Grupo_106239" data-name="Grupo 106239">
            <g id="Grupo_106236" data-name="Grupo 106236">
              <rect id="Rectángulo_37488" data-name="Rectángulo 37488" width="41.358" height="1.728" fill="#aec3ff"/>
            </g>
            <g id="Grupo_106237" data-name="Grupo 106237" transform="translate(0 7.72)">
              <rect id="Rectángulo_37489" data-name="Rectángulo 37489" width="38.115" height="1.729" fill="#aec3ff"/>
            </g>
            <g id="Grupo_106238" data-name="Grupo 106238" transform="translate(0 3.86)">
              <rect id="Rectángulo_37490" data-name="Rectángulo 37490" width="11.274" height="1.728" transform="translate(30.084)" fill="#aec3ff"/>
              <rect id="Rectángulo_37491" data-name="Rectángulo 37491" width="26.96" height="1.728" fill="#aec3ff"/>
            </g>
          </g>
        </g>
        <g id="Grupo_106242" data-name="Grupo 106242" transform="translate(0 5.543)">
          <g id="Grupo_106241" data-name="Grupo 106241">
            <path id="Trazado_137782" data-name="Trazado 137782" d="M1175.126,1419.674l1.168-1.086a3.1,3.1,0,0,0,2.5,1.249,1.492,1.492,0,0,0,1.643-1.467c0-.937-.855-1.467-2.186-1.467h-.774l-.272-1.046,2.567-2.729h-4.115v-1.453h6.287v1.249l-2.648,2.716c1.507.217,2.8.991,2.8,2.7a3.041,3.041,0,0,1-3.327,3A4.506,4.506,0,0,1,1175.126,1419.674Z" transform="translate(-1175.126 -1411.676)" fill="#aec3ff"/>
          </g>
          <path id="Trazado_137783" data-name="Trazado 137783" d="M1237.09,1482.688a.6.6,0,1,1,.6.6A.6.6,0,0,1,1237.09,1482.688Z" transform="translate(-1229.645 -1473.625)" fill="#aec3ff"/>
        </g>
      </g>
      <g id="Grupo_106248" data-name="Grupo 106248" transform="translate(50.07 108.526)">
        <g id="Grupo_106244" data-name="Grupo 106244" transform="translate(3.31 11.578)">
          <path id="Trazado_137784" data-name="Trazado 137784" d="M1536.563,1641.271a7.537,7.537,0,0,1-7.362-6,.515.515,0,0,1,1.009-.206,6.487,6.487,0,0,0,12.693.061.515.515,0,1,1,1.006.216A7.55,7.55,0,0,1,1536.563,1641.271Z" transform="translate(-1529.191 -1634.652)" fill="#aec3ff"/>
        </g>
        <g id="Grupo_106245" data-name="Grupo 106245" transform="translate(3.295 3.168)">
          <path id="Trazado_137785" data-name="Trazado 137785" d="M1529.588,1571.341a.5.5,0,0,1-.1-.01.515.515,0,0,1-.407-.6,7.516,7.516,0,0,1,14.665-.4.515.515,0,0,1-1,.251,6.487,6.487,0,0,0-12.656.344A.515.515,0,0,1,1529.588,1571.341Z" transform="translate(-1529.073 -1564.65)" fill="#aec3ff"/>
        </g>
        <g id="Grupo_106246" data-name="Grupo 106246">
          <path id="Trazado_137786" data-name="Trazado 137786" d="M1512.327,1559.649a10.682,10.682,0,1,1,10.682-10.682A10.694,10.694,0,0,1,1512.327,1559.649Zm0-19.9a9.219,9.219,0,1,0,9.219,9.218A9.229,9.229,0,0,0,1512.327,1539.748Z" transform="translate(-1501.645 -1538.285)" fill="#aec3ff"/>
        </g>
        <g id="Grupo_106247" data-name="Grupo 106247" transform="translate(7.568 9.344)">
          <rect id="Rectángulo_37492" data-name="Rectángulo 37492" width="4.231" height="0.677" transform="translate(0.998)" fill="#aec3ff"/>
          <rect id="Rectángulo_37493" data-name="Rectángulo 37493" width="4.231" height="0.677" transform="translate(0.998 2.771)" fill="#aec3ff"/>
          <rect id="Rectángulo_37494" data-name="Rectángulo 37494" width="6.227" height="0.677" transform="translate(0 1.338)" fill="#aec3ff"/>
        </g>
      </g>
    </g>
    <g id="Grupo_106253" data-name="Grupo 106253" transform="translate(330.214 248.849)">
      <path id="Trazado_137787" data-name="Trazado 137787" d="M1013.746,1228.066s.333-.748.548-1.1,1.136-1.392,1.293-1.157.783,1.817.451,2.26.021,1.214-1.635,1.68Z" transform="translate(-980.195 -1205.428)" fill="#ffb27d"/>
      <path id="Trazado_137788" data-name="Trazado 137788" d="M860.564,1205.54s8.478,7.077,11.783,6.421a65.169,65.169,0,0,0,6.552-1.873l.793,2.029s-3.558,4.826-7.267,4.858a21.128,21.128,0,0,1-10.081-2.51Z" transform="translate(-845.417 -1187.627)" fill="#6980e2"/>
      <path id="Trazado_137789" data-name="Trazado 137789" d="M736.814,1817.463s.246,3.97,1.014,4.027c.1.008,3.9.008,3.9.008l4.842-.028a1.571,1.571,0,0,0-1.447-1.413c-1.415-.247-3.785-1.241-4.642-3.112C739.575,1814.975,736.814,1817.463,736.814,1817.463Z" transform="translate(-736.535 -1724.908)" fill="#1c4b8e"/>
      <path id="Trazado_137790" data-name="Trazado 137790" d="M734.49,1470.178a10.1,10.1,0,0,0,2.621.492,9.628,9.628,0,0,0,2.447-.349,67,67,0,0,1,1.8-8.585c.8-3.1,1.941-7.075,3.566-12.02,4.492-13.667,5.858-21.662,5.982-22.42.007-.04.009-.06.009-.06l-.015-.007-13.809-6.063s1.707,18.836-.471,26.067a30.47,30.47,0,0,0-.79,3.464C734.459,1458.55,734.49,1470.178,734.49,1470.178Z" transform="translate(-734.49 -1377.347)" fill="#ffa561"/>
      <path id="Trazado_137791" data-name="Trazado 137791" d="M756.891,1461.735c.8-3.1,1.941-7.075,3.566-12.02,4.492-13.667,5.858-21.662,5.982-22.42,0-.023,0-.044-.005-.066l-13.809-6.063s1.707,18.836-.471,26.067C751.848,1448.243,756.891,1461.735,756.891,1461.735Z" transform="translate(-750.02 -1377.347)" fill="#f4904d"/>
      <path id="Trazado_137792" data-name="Trazado 137792" d="M826.587,1817.463s.246,3.97,1.014,4.027c.1.008,3.9.008,3.9.008l4.842-.028a1.571,1.571,0,0,0-1.447-1.413c-1.415-.247-3.785-1.241-4.642-3.112C829.348,1814.975,826.587,1817.463,826.587,1817.463Z" transform="translate(-815.522 -1724.908)" fill="#1c4b8e"/>
      <path id="Trazado_137793" data-name="Trazado 137793" d="M784.23,1424.861a196.573,196.573,0,0,1-1.932,27.193c-2.112,14.987-1.4,21.349-1.4,21.349a14.388,14.388,0,0,1-2.037.518,9.24,9.24,0,0,1-3.022-.349s-3.023-14.993-2.156-22.494-4.139-25.741-4.139-25.741Z" transform="translate(-765.336 -1380.598)" fill="#ffa561"/>
      <path id="Trazado_137794" data-name="Trazado 137794" d="M810.253,1142.92l2.7,1.768,2.455-.694a5.865,5.865,0,0,0,.574-2.944,18.331,18.331,0,0,0-.1-1.96l-3.637-1.605-1.357-.6c0,.021.106,1.114.12,1.274A9.283,9.283,0,0,1,810.253,1142.92Z" transform="translate(-801.151 -1127.221)" fill="#ffb27d"/>
      <path id="Trazado_137795" data-name="Trazado 137795" d="M767.637,1211.566c-3.355,3.24-16.053,2.695-16.835-.875s.853-30.382,6.585-32.067c1.189-.35,7.547,1.706,7.547,1.706a40.325,40.325,0,0,1,1.652,5.933c.127.647.5,7.5.775,13.909.129,3,.239,5.9.295,8.025A23.17,23.17,0,0,1,767.637,1211.566Z" transform="translate(-748.681 -1163.91)" fill="#8c9df4"/>
      <path id="Trazado_137796" data-name="Trazado 137796" d="M818.043,1142.586c.738,1.247,3.327,2.339,4.7,2.839a18.312,18.312,0,0,0-.1-1.96l-3.637-1.605C818.2,1141.849,817.714,1142.029,818.043,1142.586Z" transform="translate(-807.913 -1131.597)" fill="#fca56b"/>
      <path id="Trazado_137797" data-name="Trazado 137797" d="M808.675,1082.75s-5.86,1.828-6.942-1.839-2.567-5.9,1.128-7.222,4.839-.138,5.5,1S810.171,1082.181,808.675,1082.75Z" transform="translate(-792.572 -1071.104)" fill="#ffb27d"/>
      <path id="Trazado_137798" data-name="Trazado 137798" d="M789.459,1059.672s-.374,4.267-1.256,4.082-1.854-.581-1.724.7-.858,3.491-2.13,3.486c-2.729-.011-5.694-7.014-4.947-8.341C781.557,1055.771,792.574,1055,789.459,1059.672Z" transform="translate(-773.902 -1056.442)" fill="#163560"/>
      <path id="Trazado_137799" data-name="Trazado 137799" d="M812.935,1166.512c-.076-.032-4.362-1.955-4.863-1.789s-1.126,1.7-1.126,1.7l7.548,1.706A3.748,3.748,0,0,0,812.935,1166.512Z" transform="translate(-798.24 -1151.705)" fill="#6980e2"/>
      <g id="Grupo_106251" data-name="Grupo 106251" transform="translate(15.105 2.702)">
        <path id="Trazado_137800" data-name="Trazado 137800" d="M886.49,1335.705l-24.029,22.624c-.471.443-1.065.585-1.32.314l-.811-.862c-.255-.271-.078-.855.393-1.3l24.029-22.624c.471-.443,1.065-.585,1.32-.314l.811.861C887.138,1334.677,886.961,1335.262,886.49,1335.705Z" transform="translate(-860.214 -1302.834)" fill="#1f4d84"/>
        <path id="Trazado_137801" data-name="Trazado 137801" d="M873.006,1444.685l-10.544,9.928c-.471.443-1.065.585-1.32.314l-.811-.862c-.255-.271-.078-.855.393-1.3l10.544-9.928Z" transform="translate(-860.214 -1399.118)" fill="#739af0"/>
        <path id="Trazado_137802" data-name="Trazado 137802" d="M1026.974,1103.263a18.834,18.834,0,1,0,31.217-18.927c-.1-.1-.2-.191-.3-.285a18.835,18.835,0,0,0-30.921,19.212Zm5.383-17.382a17.348,17.348,0,1,1,.747,24.521A17.327,17.327,0,0,1,1032.357,1085.881Z" transform="translate(-1006.22 -1078.934)" fill="#1f4d84"/>
        <g id="Grupo_106250" data-name="Grupo 106250" transform="translate(21.423 1.487)" opacity="0.5">
          <path id="Trazado_137803" data-name="Trazado 137803" d="M1068.509,1120.543a17.348,17.348,0,1,1-.748-24.52A17.274,17.274,0,0,1,1068.509,1120.543Z" transform="translate(-1038.528 -1091.31)" fill="#b3cff9"/>
        </g>
      </g>
      <path id="Trazado_137804" data-name="Trazado 137804" d="M803.359,1263.773c-13.24-9.435-12.139-22.024-12.139-22.024,4.839,2.729,9.641,8.764,11.844,14C803.194,1258.746,803.3,1261.648,803.359,1263.773Z" transform="translate(-784.385 -1219.486)" fill="#6980e2"/>
      <g id="Grupo_106252" data-name="Grupo 106252" transform="translate(6.559 16.421)">
        <path id="Trazado_137805" data-name="Trazado 137805" d="M989.58,1381.654a3.613,3.613,0,0,0,1.691-1.045s.4.027-.065.877c-.039.071-.125.254-.19.383a.082.082,0,0,0,.069.118,8.824,8.824,0,0,1,2.118.044c.143.03.185.373.179.519a1.325,1.325,0,0,1-.279.9,4.625,4.625,0,0,1-1.673.876,5.058,5.058,0,0,1-2.589-.325l-.848-.392.263-1.575.213.045C988.809,1382.153,989.228,1381.74,989.58,1381.654Z" transform="translate(-964.097 -1358.083)" fill="#ffb27d"/>
        <path id="Trazado_137806" data-name="Trazado 137806" d="M793.471,1193.121s-11.9,2.265,3.5,19.493c2.462,2.755,15.766,6.343,15.766,6.343s1.349-1.148.669-2.078c0,0-9.16-6.652-11.176-7.709-.907-.476-3.519-10.617-5-13.059A6.664,6.664,0,0,0,793.471,1193.121Z" transform="translate(-789.086 -1193.121)" fill="#8c9df4"/>
      </g>
      <path id="Trazado_137807" data-name="Trazado 137807" d="M1016.431,1225.373a6.06,6.06,0,0,0,.465-1.136,6.275,6.275,0,0,1,.768-1.738c.081-.081.347.023.379.37a2.016,2.016,0,0,1-.191.752,8.479,8.479,0,0,0-.252,1.5C1017.415,1225.717,1016.431,1225.373,1016.431,1225.373Z" transform="translate(-982.558 -1202.526)" fill="#ffb27d"/>
    </g>
    <g id="Grupo_106255" data-name="Grupo 106255" transform="translate(486.826 249.565)">
      <path id="Trazado_137808" data-name="Trazado 137808" d="M2160.272,1062.938a4.165,4.165,0,0,0-3.293-.352c-5.595-.657-7.227,5.867-7.151,8.113s.332,4.656-2.167,7.573c-7.217,8.424,7.9,8.8,7.9,8.8.128-6.731,8.2-4.275,7.843-3.593C2173.745,1085.956,2164.43,1065.1,2160.272,1062.938Z" transform="translate(-2132.773 -1062.401)" fill="#163560"/>
      <path id="Trazado_137809" data-name="Trazado 137809" d="M2043.956,1276.2s-.984-1.5-1.777-1.527-2.261-.44-2.144-.147,1.028.323,1.116.5-1.351.441-1.762.47-1.38,0-1.351.206a4.667,4.667,0,0,0,2.958.94,8.215,8.215,0,0,1,2.709.352Z" transform="translate(-2038.038 -1248.944)" fill="#ffb27d"/>
      <path id="Trazado_137810" data-name="Trazado 137810" d="M2097.152,1205.671a14.751,14.751,0,0,1-1.5,2.276,8.807,8.807,0,0,1-5.235,3.49,5.621,5.621,0,0,1-3.11-.5h0a14.182,14.182,0,0,1-4.816-4.026,2.26,2.26,0,0,1,.308-2.218s5.551,1.249,6.079.984,3.779-7.474,4.364-8.675a6.584,6.584,0,0,1,3.219-3.285Z" transform="translate(-2077.005 -1177.935)" fill="#ffa561"/>
      <path id="Trazado_137811" data-name="Trazado 137811" d="M2132.088,1290.658a8.806,8.806,0,0,1-5.235,3.49,5.617,5.617,0,0,1-3.11-.5c.108.014,2.853.353,3.947-1.6,1.116-2,2.323-5.169,3.981-4.112C2132.387,1288.383,2132.355,1289.517,2132.088,1290.658Z" transform="translate(-2113.446 -1260.646)" fill="#f4904d"/>
      <path id="Trazado_137812" data-name="Trazado 137812" d="M2333.153,1786.588s1.694,1.546,1.363,2.644-1.859,1.83-2.066,3.173-1.032,2.074-1.776,2.074h-3.545s-.547-.944.774-1.229,1.821-1.862,1.738-3.326a25.821,25.821,0,0,1,.124-3.417l2.809-.651Z" transform="translate(-2292.299 -1698.938)" fill="#1c4b8e"/>
      <path id="Trazado_137813" data-name="Trazado 137813" d="M2188.1,1797.412s.609,6.548-.134,6.914l-9.516-.019s0-1.1,1.528-1.342,4.213-1.139,4.668-3.132S2188.1,1797.412,2188.1,1797.412Z" transform="translate(-2161.58 -1709.106)" fill="#1c4b8e"/>
      <path id="Trazado_137814" data-name="Trazado 137814" d="M2193.791,1195.5a37.953,37.953,0,0,1,0,4.4c-.094,1.59-1.7,3.72-1.931,4.247-.573,1.322-1.219,1.536-1.219,1.536l-5,1.225-1.757.43-5.54-1.655s-2.523-7.043-1.51-11.007a30.479,30.479,0,0,1,2.561-6.718s3.756-1.482,10.407-.375Z" transform="translate(-2159.951 -1172.18)" fill="#ffa561"/>
      <path id="Trazado_137815" data-name="Trazado 137815" d="M2242.689,1286.727a15.537,15.537,0,0,1-.469,3.6c-.573,1.322-1.218,1.536-1.218,1.536l-5,1.225-2.17-.638s7.244-1.1,6.441-7.33Z" transform="translate(-2210.312 -1258.36)" fill="#f2ccaa"/>
      <path id="Trazado_137816" data-name="Trazado 137816" d="M2172.685,1350.145s-2.744,8.539-2.92,11.447,5.244,41.3,5.463,42.642c.205,1.263,1.773,2.068,1.773,2.068a2.373,2.373,0,0,0,1.751.135,4.33,4.33,0,0,0,1.879-.886s2.135-27.383.814-37.164a154.954,154.954,0,0,1-1.337-18.24Z" transform="translate(-2153.935 -1315.575)" fill="#6980e2"/>
      <path id="Trazado_137817" data-name="Trazado 137817" d="M2212.335,1348.025s4.185,5.615,4.575,9.411.612,17.129,1.443,20.829,3.885,10.821,3.885,22.363a2.3,2.3,0,0,1-1.3,1.014,10.663,10.663,0,0,1-1.141.315,1.794,1.794,0,0,1-2.007-.952c-2.064-4.157-8.641-17.564-8.978-20.347-.239-1.97-2.315-15-6.845-22.653-1.087-1.836.667-9.139.667-9.139Z" transform="translate(-2181.962 -1313.709)" fill="#8c9df4"/>
      <path id="Trazado_137818" data-name="Trazado 137818" d="M2189.309,1339.172a5.751,5.751,0,0,0,3.29.915c2.613.052,9.089-.666,9.089-.666a5.355,5.355,0,0,1,.276,1.653s-7.909,1.995-12.492.291A2.9,2.9,0,0,1,2189.309,1339.172Z" transform="translate(-2170.998 -1305.92)" fill="#233862"/>
      <g id="Grupo_106254" data-name="Grupo 106254" transform="translate(19.781 33.72)">
        <path id="Trazado_137819" data-name="Trazado 137819" d="M2203.876,1345.766a1.36,1.36,0,1,1,1.193-1.349A1.28,1.28,0,0,1,2203.876,1345.766Zm0-2.3a.97.97,0,1,0,.8.955A.888.888,0,0,0,2203.876,1343.462Z" transform="translate(-2202.684 -1343.067)" fill="#fff"/>
      </g>
      <path id="Trazado_137820" data-name="Trazado 137820" d="M2236.787,1274.884l-6.422,5.592a1.114,1.114,0,0,1-1.572-.109l-8.2-9.411a1.114,1.114,0,0,1,.109-1.572l6.423-5.593a1.114,1.114,0,0,1,1.572.109l8.2,9.411A1.114,1.114,0,0,1,2236.787,1274.884Z" transform="translate(-2198.424 -1239.355)" fill="#2b478b"/>
      <path id="Trazado_137821" data-name="Trazado 137821" d="M2253.281,1352.244c-.091.024-3.412.415-3.412,1.1a2.064,2.064,0,0,0,1.89,1.806,10.893,10.893,0,0,0,2.085-1.6Z" transform="translate(-2224.419 -1317.421)" fill="#ffb27d"/>
      <path id="Trazado_137822" data-name="Trazado 137822" d="M2226.634,1157.985a11.055,11.055,0,0,1-.592-4.039l-.251.049-4.218.835s.1,1.327.1,2.578v.031c.005,1.086-.734,2.176,1.009,2.606C2223.219,1160.179,2227.427,1159.909,2226.634,1157.985Z" transform="translate(-2199.477 -1142.948)" fill="#ffb27d"/>
      <path id="Trazado_137823" data-name="Trazado 137823" d="M2221.957,1155.192s.1,1.327.1,2.578c2.36-.067,3.608-2.219,4.119-3.413Z" transform="translate(-2199.861 -1143.309)" fill="#e8945b"/>
      <path id="Trazado_137824" data-name="Trazado 137824" d="M2201.776,1102.159s5.584.092,5.588-3.386.727-5.809-2.838-6.015-4.259,1.121-4.543,2.281S2200.324,1102.046,2201.776,1102.159Z" transform="translate(-2180.468 -1089.092)" fill="#ffb27d"/>
      <path id="Trazado_137825" data-name="Trazado 137825" d="M2217.116,1087.028s1.529,4.081,3.875,4.684,3.364-.025,3.364-.025a6.644,6.644,0,0,1-2.173-3.925S2218.269,1085.085,2217.116,1087.028Z" transform="translate(-2195.601 -1083.447)" fill="#163560"/>
      <path id="Trazado_137826" data-name="Trazado 137826" d="M2199.564,1090.09a3.463,3.463,0,0,0-1.6,1.251,5.624,5.624,0,0,0-.755,3.193s-1.152-2.774.143-4.343C2198.725,1088.527,2199.564,1090.09,2199.564,1090.09Z" transform="translate(-2177.671 -1086.178)" fill="#163560"/>
      <path id="Trazado_137827" data-name="Trazado 137827" d="M2261.772,1350.818a3.8,3.8,0,0,0-1.328-.181c-.532.075-.925-.01-.925.138s.686.218.832.29A7.239,7.239,0,0,0,2261.772,1350.818Z" transform="translate(-2232.91 -1315.995)" fill="#ffb27d"/>
      <path id="Trazado_137828" data-name="Trazado 137828" d="M2273.358,1190.587a6.761,6.761,0,0,1,5.484,3.972c1.519,3.694,4.4,9.9,4.4,10.938s-1.611,4.26-10.259,6.109c0,0-.895-.941-.84-1.685,0,0,5.4-4.637,5.384-5.179-.027-1.025-.885-2.379-5.625-7.12C2270.615,1196.333,2273.358,1190.587,2273.358,1190.587Z" transform="translate(-2243.504 -1175.186)" fill="#ffa561"/>
    </g>
    <g id="Grupo_106259" data-name="Grupo 106259" transform="translate(367.451 155.064)">
      <g id="Grupo_106256" data-name="Grupo 106256" transform="translate(0)">
        <path id="Trazado_137829" data-name="Trazado 137829" d="M1098.7,275.921s-3.18-.538-5.2.986-2.339,1.031-3.477,1.971.027,2.061-.6,2.688a1.285,1.285,0,0,0,.279,2.151c.931.314.3,2.016,2.32,2.24s1.113,1.157,3.025,1.3a16.822,16.822,0,0,1,4.5.63,1.592,1.592,0,0,0,2.21-.781c.288-.767,1.095.222,1.33-.827s-.6-1.464-.135-2.315S1104.588,277.063,1098.7,275.921Z" transform="translate(-1083.623 -275.829)" fill="#233862"/>
        <path id="Trazado_137830" data-name="Trazado 137830" d="M1214.222,732.8a.786.786,0,0,0-.134.841.01.01,0,0,0,0,0,5.223,5.223,0,0,0,1.663,1.8c.1.08.189.152.266.219l.06.053.046.041c.73.664.458.819,1.771,2.166,1.5,1.536,2.52,1.556,2.81,1.413.245-.122-.261-.938-.821-1.856l-.082-.134c-.075-.122-.149-.246-.223-.368-.657-1.1-.494-1.626-.352-3.278.116-1.342,2.034-7.508,2.034-7.508l-2.851-.47s-.823,4.9-1.762,5.666c-.5.406-1.068.415-1.551.716-.034.021-.068.042-.1.065A3.732,3.732,0,0,0,1214.222,732.8Z" transform="translate(-1193.648 -671.671)" fill="#ffb27d"/>
        <path id="Trazado_137831" data-name="Trazado 137831" d="M1214.222,779.542a.786.786,0,0,0-.134.841.009.009,0,0,0,0,0,6.047,6.047,0,0,0,1.666,1.793c.1.081.186.155.264.225l.06.053.046.041c.73.664.458.819,1.771,2.166,1.5,1.535,2.52,1.556,2.81,1.413.245-.122-.261-.938-.821-1.856a6.332,6.332,0,0,1-2.662-1.933c-.9-1.135-1.51-2.6-2.125-3.443-.034.021-.068.042-.1.065A3.736,3.736,0,0,0,1214.222,779.542Z" transform="translate(-1193.648 -718.412)" fill="#233862"/>
        <path id="Trazado_137832" data-name="Trazado 137832" d="M1389.692,723.523c.182.878,1.434.722,2.831.37s1.068.057,3.058-.178,2.589-.982,2.647-1.278c.052-.263-.932-.349-1.989-.463-.133-.014-.266-.029-.4-.045a8.619,8.619,0,0,1-3.159-1.528,12.646,12.646,0,0,1-2.578-3.018l-2.73.236s1.449,2.167,2.01,3.11a3.3,3.3,0,0,1,.281,1.86A3.517,3.517,0,0,0,1389.692,723.523Z" transform="translate(-1346.171 -664.333)" fill="#ffb27d"/>
        <path id="Trazado_137833" data-name="Trazado 137833" d="M1409.177,757.519c1.4-.352,1.067.057,3.058-.177s2.589-.982,2.647-1.278c.052-.263-.932-.349-1.989-.463l-.01.02a5.617,5.617,0,0,1-2.847.907c-1.351.042-2.785-.335-3.719-.313a3.516,3.516,0,0,0,.028.934C1406.527,758.026,1407.779,757.871,1409.177,757.519Z" transform="translate(-1362.824 -697.959)" fill="#233862"/>
        <path id="Trazado_137834" data-name="Trazado 137834" d="M1250.635,591.825l-2.506,6.89-3.271,9a5.4,5.4,0,0,1-1.773-.149,7.683,7.683,0,0,1-1.719-.822s.858-9.641,2.546-15.184a9.845,9.845,0,0,1,1.463-3.225C1248.031,585.149,1250.635,591.825,1250.635,591.825Z" transform="translate(-1217.707 -550.03)" fill="#ed7d2b"/>
        <path id="Trazado_137835" data-name="Trazado 137835" d="M1116.087,524.131c-1.677-.528-6.444.2-11.231,1.171l-1.015-1.648-10.36-.736s-3.244,7.176-1.459,12.416c.346,1.017,2,1.052,2.005,1.053s6.069.066,8.07.052c5.149-.036,10.873-3.616,11.615-3.77,1.215-.252,1.719,2.179,2.955,4.726s11.521,11.239,11.521,11.239a9.006,9.006,0,0,0,2.219-.244,2.187,2.187,0,0,0,.949-.609S1119.869,525.322,1116.087,524.131Z" transform="translate(-1085.833 -493.232)" fill="#f99746"/>
        <path id="Trazado_137836" data-name="Trazado 137836" d="M1130.088,353.88a4.874,4.874,0,0,1-3.037.115,5.416,5.416,0,0,1-2.023-2.39c.523-.028,1.1-.49,1.517-3.5l.224.078,3.76,1.323s-.263,1.205-.431,2.352C1129.955,352.823,1129.882,353.745,1130.088,353.88Z" transform="translate(-1115.344 -339.423)" fill="#ffb27d"/>
        <path id="Trazado_137837" data-name="Trazado 137837" d="M1143.276,350.083s-.16.845-.383,2.052a4.38,4.38,0,0,1-3.377-3.375Z" transform="translate(-1128.093 -339.998)" fill="#ed975d"/>
        <path id="Trazado_137838" data-name="Trazado 137838" d="M1141.044,303.677s-5.136-.652-4.68-3.844.1-5.426,3.4-5.144,3.76,1.59,3.867,2.693S1142.391,303.765,1141.044,303.677Z" transform="translate(-1125.293 -292.402)" fill="#ffb27d"/>
        <path id="Trazado_137839" data-name="Trazado 137839" d="M1132.546,293.542s-3.265,2.854-5.5,3.1-3.083-.467-3.083-.467a8.725,8.725,0,0,0,2.089-2.873,1.571,1.571,0,0,1,1.288-.935C1128.938,292.216,1131.961,292.132,1132.546,293.542Z" transform="translate(-1114.41 -290.309)" fill="#233862"/>
        <path id="Trazado_137840" data-name="Trazado 137840" d="M1178.278,296.194a8.086,8.086,0,0,1,1.458,1.84,6.211,6.211,0,0,1,.192,3.3s1.688-3.341.708-4.951A1.368,1.368,0,0,0,1178.278,296.194Z" transform="translate(-1162.197 -293.199)" fill="#233862"/>
        <path id="Trazado_137841" data-name="Trazado 137841" d="M1102.694,386.117c-.082,10.387.015,8.216-1.114,9.209a4.363,4.363,0,0,1-2.053.46c-3.183.234-8.785-.251-9-.838-.749-2.031-.235-2.668-.87-5.781-.066-.331-.148-.689-.243-1.08-.526-2.138-1.029-2.863.76-6.316,1.622-3.128,3.312-5.669,3.466-5.579,4.355,2.544,4.69.378,4.69.378S1102.734,381.05,1102.694,386.117Z" transform="translate(-1083.576 -364.133)" fill="#8c9df4"/>
        <path id="Trazado_137842" data-name="Trazado 137842" d="M1248.129,628.63l-3.271,9a5.4,5.4,0,0,1-1.773-.15,7.68,7.68,0,0,1-1.719-.822s.858-9.641,2.546-15.184Z" transform="translate(-1217.707 -579.945)" fill="#f99746"/>
        <path id="Trazado_137843" data-name="Trazado 137843" d="M1167.222,379.348s4.468.725,5.006,2.643,3.7,13.193,3.7,13.193-2.266.424-3.321-.617-3.716-9.7-3.716-9.7Z" transform="translate(-1152.469 -366.911)" fill="#8c9df4"/>
        <path id="Trazado_137844" data-name="Trazado 137844" d="M1104.9,459.062c-3.183.234-8.785-.251-9-.838-.749-2.031-.235-2.667-.87-5.781l1.505-4.336s-.22,4.818,1.209,6.075,5.833,2.4,6.531,3.458A3.879,3.879,0,0,1,1104.9,459.062Z" transform="translate(-1088.953 -427.409)" fill="#6980e2"/>
        <path id="Trazado_137845" data-name="Trazado 137845" d="M1146.708,518.918s3.137-.722,3.646-.446a7.384,7.384,0,0,1,1.913,1.634c.158.352-1.131-.26-1.549-.369a3.715,3.715,0,0,0-1.333.3,4.436,4.436,0,0,1-2.39.257Z" transform="translate(-1134.42 -489.265)" fill="#ffb27d"/>
        <path id="Trazado_137846" data-name="Trazado 137846" d="M1054.49,376.192s-4.217.29-5.663,2.337c-2.036,2.882-6.027,15.13-3.679,16.743,2.645,1.817,11.983.4,11.983.4a3.8,3.8,0,0,0-.137-2.156c-.438-.7-7.479-1.787-7.805-2.109s4.013-6.358,4.006-7.332S1054.49,376.192,1054.49,376.192Z" transform="translate(-1044.431 -364.134)" fill="#8c9df4"/>
        <path id="Trazado_137847" data-name="Trazado 137847" d="M1178.371,526.2a6.07,6.07,0,0,0,.881.944.643.643,0,0,0,.356.073l-.449-.8Z" transform="translate(-1162.279 -496.119)" fill="#ffb27d"/>
        <path id="Trazado_137848" data-name="Trazado 137848" d="M1177.054,518.93l1.92.916a.341.341,0,0,1-.316.125,4.556,4.556,0,0,1-.832-.222Z" transform="translate(-1161.12 -489.723)" fill="#ffb27d"/>
      </g>
      <g id="Grupo_106258" data-name="Grupo 106258" transform="translate(11.885 20.931)">
        <g id="Grupo_106257" data-name="Grupo 106257">
          <path id="Trazado_137849" data-name="Trazado 137849" d="M1182.294,461.509l15.14-.107,4.474-11.358-15.117.107Z" transform="translate(-1177.616 -450.044)" fill="#233862"/>
          <path id="Trazado_137850" data-name="Trazado 137850" d="M1163.349,540.9l-19.992.141,0,.441,19.815-.14Z" transform="translate(-1143.356 -529.98)" fill="#233862"/>
        </g>
        <path id="Trazado_137851" data-name="Trazado 137851" d="M1265.4,492.417a.524.524,0,0,0-.519-.717,1.033,1.033,0,0,0-.922.727.525.525,0,0,0,.519.717A1.033,1.033,0,0,0,1265.4,492.417Z" transform="translate(-1249.448 -486.695)" fill="#ebf3fa"/>
      </g>
    </g>
    <path id="Rectángulo_37495" data-name="Rectángulo 37495" d="M.456,0H275.369a.456.456,0,0,1,.456.456v0a.456.456,0,0,1-.456.456H.456A.456.456,0,0,1,0,.456v0A.456.456,0,0,1,.456,0Z" transform="translate(288.126 344.65)" fill="#233862"/>
  </g>
</svg>
