<svg xmlns="http://www.w3.org/2000/svg" width="270" height="184.973" viewBox="0 0 270 184.973">
  <g id="Grupo_105646" data-name="Grupo 105646" transform="translate(-287.617 -156.163)">
    <path id="Trazado_114355" data-name="Trazado 114355" d="M532.739,340.6c-5.905,0-32.53.007-66.311,0-9.327,0-19.2-.005-29.335-.008l-23.393-.012-13.323-.008c-59.455-.047-68.93.618-78.366.028-17.554,0-62.514-68.218-8.991-113.01,20.783-17.393-5.891-40.5,28.63-57.854,22.7-11.413,39.19,8.637,66.593,1.414,20.246-5.337,24.364-17.854,64.39-14.385C511.126,160.1,511.9,191.7,499.69,217.8c-7.71,16.477,30.091,11.389,47.571,35.979C577.1,295.749,533,339.973,532.739,340.6Z" transform="translate(0)" fill="#e1f3d7"/>
    <g id="Grupo_80576" data-name="Grupo 80576" transform="translate(340.388 184.42)">
      <path id="Trazado_114356" data-name="Trazado 114356" d="M2191.959,1390.405a19.971,19.971,0,0,0,3.975-.568c1.734-.5,3.044-2.265,4.423-2.163,2.891.214,8.387-.683,7.842.335s-3.862.756-4.253,1.36,4.726,2.146,6.206,2.419,7.008.894,6.818,1.628-7.559,4.169-11.91,3.252-12.169-2.484-12.169-2.484Z" transform="translate(-2032.096 -1278.281)" fill="#ffb27d"/>
      <path id="Trazado_114357" data-name="Trazado 114357" d="M1242.789,411.112c-6.4-3.32-11.527-1.234-11.527-1.234-19.582-2.3-25.293,20.538-25.028,28.4s2.212,14.125-7.044,22.263c-11.03,9.7-8.464,22.517-2.744,27.058a29.529,29.529,0,0,0,9.157,4.571,71.294,71.294,0,0,0,12.529,2.7c2.063.27,3.881.439,5.275.542h0l.642.045h0c1.407.1,2.241.115,2.241.115.16-8.437,3.884-12.749,8.543-14.7a.007.007,0,0,0,.005,0,16.891,16.891,0,0,1,3.36-1h0a24.942,24.942,0,0,1,9.246.122c3.926.765,6.7,2.22,6.294,3a22.518,22.518,0,0,0,6.04.705,10.41,10.41,0,0,0,6.151-2C1280.28,470.631,1255.09,417.492,1242.789,411.112Z" transform="translate(-1143.378 -409.231)" fill="#163560"/>
      <path id="Trazado_114358" data-name="Trazado 114358" d="M1662.859,894.251s14.771,2.109,19.885,9.02c6.462,8.733,12.817,33.353,17.442,37.76s23.958,10.982,23.958,10.982.714,4.24-1.5,5.536c-3.755,2.193-22.715,1.239-33.715-4.67-10.556-5.67-18.033-18.069-18.033-18.069Z" transform="translate(-1562.074 -840.095)" fill="#8c9df4"/>
      <path id="Trazado_114359" data-name="Trazado 114359" d="M781.593,1147.486s-3.086-5.772-5.961-6.14-8.081-2.346-7.75-1.239,3.633,1.513,3.9,2.183-5.059,1.158-6.564,1.13-5.021-.454-4.982.3,6.006,4.42,10.453,4.392,9.74,2.173,9.74,2.173Z" transform="translate(-760.23 -1058.203)" fill="#ffb27d"/>
      <path id="Trazado_114360" data-name="Trazado 114360" d="M982.748,935.824a53.867,53.867,0,0,1-6.223,7.783c-4.735,4.942-11.848,10.5-20.192,10.972a20.52,20.52,0,0,1-11.147-2.86l-.013,0c-9.6-5.343-16.194-16.231-16.194-16.231-1.328-4.967,1.1-7.861,1.1-7.861s20.48,6.112,22.542,5.475c8.3-2.567,14.107-24.3,19.017-31.24,4.118-5.823,18.488-7.605,18.488-7.605Z" transform="translate(-909.785 -840.098)" fill="#8c9df4"/>
      <path id="Trazado_114361" data-name="Trazado 114361" d="M1108.621,1248.2c-4.735,4.942-11.849,10.5-20.192,10.972a20.52,20.52,0,0,1-11.147-2.859c.386.087,10.262,2.224,14.886-4.538,4.718-6.9,10.152-18.039,15.836-13.647C1110.456,1240.019,1109.968,1244.133,1108.621,1248.2Z" transform="translate(-1041.881 -1144.687)" fill="#6f84dd"/>
      <path id="Trazado_114362" data-name="Trazado 114362" d="M1370.2,968.314a96.943,96.943,0,0,1-1.823,10.033c-1.309,5.58-3.571,7.775-4.555,8.5a3.125,3.125,0,0,1-.482.3l-17.489,4.286-6.149,1.506-19.39-5.792s-8.832-24.652-5.285-38.528a208.1,208.1,0,0,1,6.075-20.483s12.609-5.133,39.771-.582C1360.873,927.553,1373.813,939.637,1370.2,968.314Z" transform="translate(-1252.334 -868.007)" fill="#8c9df4"/>
      <path id="Trazado_114363" data-name="Trazado 114363" d="M1334.22,1541.758l-23.393-.012-13.323-.008c1.986-9.8,6.322-24.145,8.257-30.365.6-1.918.964-3.063.964-3.063h25.982s0,.1,0,.294v.09c.005.674.022,2.22.072,4.5C1332.911,1518.867,1333.263,1529.1,1334.22,1541.758Z" transform="translate(-1237.514 -1385.589)" fill="#2b478b"/>
      <path id="Trazado_114364" data-name="Trazado 114364" d="M1462.075,1534.681l-29.335-.008-23.393-.012c-2.363-5.45.3-20.354,1.779-27.485.083-.4.162-.777.237-1.126.025-.115.05-.229.073-.338.33-1.526.55-2.438.55-2.438l3.834-.332,1.379-.12,3.215-.278,10.25-.887h.005l.559-.048,14.7-1.274s.814,1.091,2.075,2.933c4.091,5.975,12.895,19.851,13.938,30.005Q1462.011,1533.924,1462.075,1534.681Z" transform="translate(-1336.035 -1378.504)" fill="#2b478b"/>
      <path id="Trazado_114365" data-name="Trazado 114365" d="M1634.282,1247.041a21.2,21.2,0,0,0,5.173,6.36c-.684,9.49-4.673,13.1-5.657,13.817l-.484.142-15.218,1.473s6.749-2.363,8.083-6.682-.823-9.822.945-16.549C1628.682,1239.68,1630.155,1239.571,1634.282,1247.041Z" transform="translate(-1522.31 -1148.382)" fill="#6f84dd"/>
      <path id="Trazado_114366" data-name="Trazado 114366" d="M1362.019,1466.99s3.855,3.049,11.513,3.2c9.147.184,31.814-2.332,31.814-2.332a18.743,18.743,0,0,1,.966,5.785s-27.683,6.983-43.723,1.02C1362.589,1474.666,1360.52,1470.774,1362.019,1466.99Z" transform="translate(-1294.341 -1348.884)" fill="#233862"/>
      <g id="Grupo_80574" data-name="Grupo 80574" transform="translate(72.822 119.745)">
        <path id="Trazado_114367" data-name="Trazado 114367" d="M1420.765,1486.236a5.164,5.164,0,0,0-.2-1.3v0c-.028-.1-.06-.2-.1-.3a4.769,4.769,0,0,0-.767-1.4,3.968,3.968,0,0,0-3.109-1.576,3.861,3.861,0,0,0-2.613,1.046c-.072.063-.14.13-.207.2a4.764,4.764,0,0,0-1.056,1.729,5.2,5.2,0,0,0-.3,1.75,5.115,5.115,0,0,0,.806,2.785,4.371,4.371,0,0,0,1.466,1.417,3.748,3.748,0,0,0,1.9.52,3.883,3.883,0,0,0,2.743-1.166,4.99,4.99,0,0,0,1.431-3.557C1420.769,1486.338,1420.769,1486.286,1420.765,1486.236Zm-1.379.152a3.165,3.165,0,0,1-2.556,3.327h-.007a1.748,1.748,0,0,1-.228.013,2.347,2.347,0,0,1-.8-.14h0a2.57,2.57,0,0,1-.789-.462,3.56,3.56,0,0,1-1.2-2.738,3.8,3.8,0,0,1,.415-1.75,3.051,3.051,0,0,1,1.151-1.252,2.4,2.4,0,0,1,.907-.318,2.2,2.2,0,0,1,.317-.022,2.328,2.328,0,0,1,.722.115l0,0h0a2.844,2.844,0,0,1,1.529,1.262v0c.042.068.082.138.118.212a3.805,3.805,0,0,1,.415,1.718Z" transform="translate(-1412.42 -1481.663)" fill="#6f84dd"/>
      </g>
      <g id="Grupo_80575" data-name="Grupo 80575" transform="translate(69.898 10.059)">
        <path id="Trazado_114368" data-name="Trazado 114368" d="M1500.823,770.931c-1.033-1.94-3.99-11.8-3.969-16.925l-.878.146-14.762,2.477s.336,3.936.346,7.644c0,.031,0,.062,0,.092a45.1,45.1,0,0,0,.6,8.8c.291,1.8-.324,14.722,5.857,13.794C1490.225,786.624,1501.505,772.212,1500.823,770.931Z" transform="translate(-1470.609 -725.568)" fill="#ffb27d"/>
        <path id="Trazado_114369" data-name="Trazado 114369" d="M1481.214,757.795s.336,3.936.346,7.644c8.261-.2,12.627-6.582,14.417-10.12Z" transform="translate(-1470.609 -726.734)" fill="#e8945b"/>
        <path id="Trazado_114370" data-name="Trazado 114370" d="M1404.715,556.461s19.545.323,19.559-11.852,2.545-20.333-9.933-21.053-14.908,3.922-15.9,7.985S1399.632,556.063,1404.715,556.461Z" transform="translate(-1396.869 -520.782)" fill="#ffb27d"/>
        <path id="Trazado_114371" data-name="Trazado 114371" d="M1462.985,501.79s5.351,14.283,13.564,16.4,11.775-.089,11.775-.089a23.257,23.257,0,0,1-7.607-13.74S1467.022,494.991,1462.985,501.79Z" transform="translate(-1454.415 -499.315)" fill="#163560"/>
        <path id="Trazado_114372" data-name="Trazado 114372" d="M1396.129,513.332s-3.968,1.484-5.6,4.378a19.679,19.679,0,0,0-2.642,11.177s-4.032-9.708.5-15.2C1393.189,507.863,1396.129,513.332,1396.129,513.332Z" transform="translate(-1386.233 -509.698)" fill="#163560"/>
      </g>
      <path id="Trazado_114373" data-name="Trazado 114373" d="M1526.992,895.287s12.732-13.98,13.245-19.612c0,0,2.647.05,7.5,2.569a.8.8,0,0,1,.373,1.007c-.951,2.248-4.217,9.557-7.348,11.7a23.529,23.529,0,0,1-4.811-1.277,41.081,41.081,0,0,0,2.4,3.581S1532.481,896.541,1526.992,895.287Z" transform="translate(-1441.378 -823.593)" fill="#6f84dd"/>
      <path id="Trazado_114374" data-name="Trazado 114374" d="M1435.572,873.434a63.448,63.448,0,0,0,4.74,19.845s-6.026-1.185-9.1-5.455c0,0,.973-2.278,1.793-2.8,0,0-1.808-.73-2.951.321,0,0-1.21-7.929-.285-9.318C1430.149,875.448,1434.633,873.183,1435.572,873.434Z" transform="translate(-1354.698 -821.585)" fill="#6f84dd"/>
      <path id="Trazado_114375" data-name="Trazado 114375" d="M1520.306,1043.675a.961.961,0,1,0-.966.956A.961.961,0,0,0,1520.306,1043.675Z" transform="translate(-1433.73 -971.977)" fill="#233862"/>
      <path id="Trazado_114376" data-name="Trazado 114376" d="M1473.754,1165.479a.961.961,0,1,0-.966.956A.961.961,0,0,0,1473.754,1165.479Z" transform="translate(-1392.376 -1080.18)" fill="#233862"/>
      <path id="Trazado_114377" data-name="Trazado 114377" d="M1464.4,1308.56a.961.961,0,1,0-.966.956A.961.961,0,0,0,1464.4,1308.56Z" transform="translate(-1384.065 -1207.285)" fill="#233862"/>
    </g>
    <g id="Grupo_80578" data-name="Grupo 80578" transform="translate(492.139 256.665)">
      <rect id="Rectángulo_33799" data-name="Rectángulo 33799" width="6.133" height="7.364" rx="3.067" transform="translate(0 18.842)" fill="#ed7d2b"/>
      <rect id="Rectángulo_33800" data-name="Rectángulo 33800" width="6.133" height="5.441" rx="2.72" transform="translate(0 18.842)" fill="#f99746"/>
      <path id="Trazado_114378" data-name="Trazado 114378" d="M2189.127,1129.439a16,16,0,0,1-1.275,6.273,16.213,16.213,0,0,1-14.881,9.883h-4.619a16.19,16.19,0,0,1-13.9-7.952,16.066,16.066,0,0,1-.978-14.477,16.213,16.213,0,0,1,14.881-9.883h4.619a16.2,16.2,0,0,1,14.132,8.351A16.014,16.014,0,0,1,2189.127,1129.439Z" transform="translate(-2148.526 -1106.915)" fill="#ed7d2b"/>
      <path id="Trazado_114379" data-name="Trazado 114379" d="M2350.428,1323.568l-1.507,9.785a1.2,1.2,0,0,0,1.156,1.5h3.96a2.267,2.267,0,0,0,2.015-1.229l6.155-12.278Z" transform="translate(-2323.249 -1291.747)" fill="#ed7d2b"/>
      <path id="Trazado_114380" data-name="Trazado 114380" d="M2184.612,1332.709l1.209,9.617a1.2,1.2,0,0,1-1.155,1.5h-3.96a2.267,2.267,0,0,1-2.016-1.229l-6.316-11.15Z" transform="translate(-2166.45 -1300.721)" fill="#ed7d2b"/>
      <g id="Grupo_80577" data-name="Grupo 80577" transform="translate(38.316 18.132)">
        <path id="Trazado_114381" data-name="Trazado 114381" d="M2468.608,1227.428a1.069,1.069,0,0,1-.272-.036c-.7-.185-1.1-1.023-1.049-2.188a5.835,5.835,0,0,1,1.311-3.308,5.981,5.981,0,0,1,1.188-1.112,3.393,3.393,0,0,0-.873-.963,2.249,2.249,0,0,0-2.044-.428c-1.958.532-3.617,3.33-3.752,3.645a.331.331,0,0,1-.625-.218,9.6,9.6,0,0,1,1.219-1.837,6.286,6.286,0,0,1,2.86-2.193,2.91,2.91,0,0,1,2.739.5,4.067,4.067,0,0,1,1.038,1.139,6.9,6.9,0,0,1,2.252-.769.331.331,0,1,1,.107.653,6.234,6.234,0,0,0-2.059.707,4.989,4.989,0,0,1,.354,1.491,6.549,6.549,0,0,1-.61,3.321C2469.9,1226.854,2469.247,1227.428,2468.608,1227.428Zm1.471-6.038a5.289,5.289,0,0,0-.967.923,5.157,5.157,0,0,0-1.164,2.922c-.038.8.191,1.42.556,1.516s.9-.4,1.29-1.206a5.954,5.954,0,0,0,.547-2.975A4.441,4.441,0,0,0,2470.079,1221.39Zm-6.96,1.64,0,.006Z" transform="translate(-2462.474 -1218.645)" fill="#ed7d2b"/>
      </g>
      <path id="Trazado_114382" data-name="Trazado 114382" d="M2187.1,1121.634a13.22,13.22,0,0,1-.409,5.937c-3.26,9.377-10.924,11.071-18.758,11.783-5.571.507-13.487-1.712-13.487-1.712a16.066,16.066,0,0,1-.978-14.477,16.213,16.213,0,0,1,14.881-9.883h4.619A16.2,16.2,0,0,1,2187.1,1121.634Z" transform="translate(-2148.526 -1106.915)" fill="#f99746"/>
      <path id="Trazado_114383" data-name="Trazado 114383" d="M2220.043,1066.667h-6.354c-.641,0-1.16-.389-1.16-.869v-8.676a.7.7,0,0,1,.127-.4,1.39,1.39,0,0,1,1.735-.292c2.413,1.367,6.365,4.34,6.81,9.309C2221.246,1066.241,2220.714,1066.667,2220.043,1066.667Z" transform="translate(-2202.12 -1056.252)" fill="#f99746"/>
      <path id="Trazado_114384" data-name="Trazado 114384" d="M2213.947,1070.412h-.259c-.641,0-1.16-.389-1.16-.869v-8.676a.7.7,0,0,1,.127-.4.877.877,0,0,1,.079.077,10.877,10.877,0,0,1,2.809,8.784A1.5,1.5,0,0,1,2213.947,1070.412Z" transform="translate(-2202.12 -1059.996)" fill="#ed7d2b"/>
      <path id="Trazado_114385" data-name="Trazado 114385" d="M2195.238,1193.944a.947.947,0,1,1,.947.947A.947.947,0,0,1,2195.238,1193.944Z" transform="translate(-2186.761 -1177.729)" fill="#2b478b"/>
    </g>
    <g id="Grupo_80579" data-name="Grupo 80579" transform="translate(473.665 314.09)">
      <path id="Trazado_114386" data-name="Trazado 114386" d="M2013.118,1574.676s2.163,3.046,4.146,3.088a14.488,14.488,0,0,0,5-1.412s1.821-4.058.586-5.646a2.652,2.652,0,0,0-2.533.416,3.892,3.892,0,0,0-.671.642,2.127,2.127,0,0,1-1.041.706c-1.415.431-3.095-.582-3.723.4a6.647,6.647,0,0,1-1.094,1.3A5,5,0,0,1,2013.118,1574.676Z" transform="translate(-2006.501 -1570.553)" fill="#aec3ff" opacity="0.5"/>
      <path id="Trazado_114387" data-name="Trazado 114387" d="M1988.678,1654.015s-7.646-18.527-21.409-18.88c0,0-12.7,1.412-13.41,18.88Z" transform="translate(-1953.859 -1627.924)" fill="#aec3ff" opacity="0.5"/>
      <path id="Trazado_114388" data-name="Trazado 114388" d="M2050.227,1621.125s-5.516,1.227-7.219.506a1.7,1.7,0,0,1,2.066-1.983,4.874,4.874,0,0,0,3.235-.853C2049.171,1618.356,2050.456,1620.16,2050.227,1621.125Z" transform="translate(-2033.046 -1613.349)" fill="#8c9df4"/>
      <path id="Trazado_114389" data-name="Trazado 114389" d="M2062.485,1579.384c.353.265,1.436-3.73,1.436-3.73a3.886,3.886,0,0,0-.67.642,2.128,2.128,0,0,1-1.041.706C2062.206,1577.119,2062.143,1579.127,2062.485,1579.384Z" transform="translate(-2050.105 -1575.085)" fill="#aec3ff" opacity="0.5"/>
      <path id="Trazado_114390" data-name="Trazado 114390" d="M2019.123,1592.563a22.736,22.736,0,0,0,2.975,1.574c.353,0-1.881-2.869-1.881-2.869A6.638,6.638,0,0,1,2019.123,1592.563Z" transform="translate(-2011.836 -1588.955)" fill="#aec3ff" opacity="0.5"/>
      <path id="Trazado_114391" data-name="Trazado 114391" d="M2031.846,1692.346c.141-.121-5.411-8.176-6.94-8.234s-4.965,1.765-7.453,2-4.9-.47-5.369,1-1.764,6.683-.97,7.518S2028.793,1694.954,2031.846,1692.346Z" transform="translate(-2004.497 -1671.431)" fill="#aec3ff" opacity="0.5"/>
    </g>
    <g id="Grupo_80580" data-name="Grupo 80580" transform="translate(354.648 285.62)">
      <path id="Trazado_114392" data-name="Trazado 114392" d="M1029.708,1318.982s-1.786,2.514-3.423,2.549a11.963,11.963,0,0,1-4.128-1.166s-1.5-3.35-.483-4.661a2.189,2.189,0,0,1,2.092.344,3.209,3.209,0,0,1,.553.53,1.757,1.757,0,0,0,.859.583c1.168.355,2.555-.481,3.073.326a5.477,5.477,0,0,0,.9,1.069A4.117,4.117,0,0,0,1029.708,1318.982Z" transform="translate(-1006.427 -1315.578)" fill="#ffeddc"/>
      <path id="Trazado_114393" data-name="Trazado 114393" d="M887.948,1384.477s6.312-15.294,17.673-15.585c0,0,10.487,1.165,11.07,15.585Z" transform="translate(-887.948 -1362.939)" fill="#ffeddc"/>
      <path id="Trazado_114394" data-name="Trazado 114394" d="M1018.176,1357.326s4.554,1.013,5.959.417a1.407,1.407,0,0,0-1.706-1.637,4.024,4.024,0,0,1-2.67-.7C1019.047,1355.041,1017.987,1356.53,1018.176,1357.326Z" transform="translate(-1003.615 -1350.906)" fill="#db6a1d"/>
      <path id="Trazado_114395" data-name="Trazado 114395" d="M1044.413,1322.869c-.291.219-1.186-3.079-1.186-3.079a3.211,3.211,0,0,1,.553.53,1.754,1.754,0,0,0,.859.583C1044.643,1321,1044.7,1322.657,1044.413,1322.869Z" transform="translate(-1025.889 -1319.32)" fill="#e5c1a1"/>
      <path id="Trazado_114396" data-name="Trazado 114396" d="M1071.708,1333.748a18.794,18.794,0,0,1-2.456,1.3c-.291,0,1.553-2.368,1.553-2.368A5.48,5.48,0,0,0,1071.708,1333.748Z" transform="translate(-1048.98 -1330.77)" fill="#e5c1a1"/>
      <path id="Trazado_114397" data-name="Trazado 114397" d="M943.155,1416.119c-.117-.1,4.467-6.749,5.729-6.8s4.1,1.457,6.152,1.651,4.044-.388,4.432.825,1.457,5.517.8,6.206S945.675,1418.273,943.155,1416.119Z" transform="translate(-936.988 -1398.854)" fill="#f9ddbf"/>
    </g>
    <g id="Grupo_80607" data-name="Grupo 80607" transform="translate(327.476 306.376)">
      <g id="Grupo_80603" data-name="Grupo 80603" transform="translate(21.651 0.738)">
        <g id="Grupo_80582" data-name="Grupo 80582" transform="translate(3.455 29.92)">
          <path id="Trazado_114398" data-name="Trazado 114398" d="M903.33,1776.7v1.7a.582.582,0,0,1-.134.367.834.834,0,0,1-.51.28.891.891,0,0,1-.138.01H870.226a.757.757,0,0,1-.774-.558c0-.021-.006-.042-.007-.065s0-.022,0-.033v-1.7c0-.011,0-.022,0-.033s0-.043.007-.064a.756.756,0,0,1,.774-.558h32.321a.891.891,0,0,1,.138.01.876.876,0,0,1,.143.034.78.78,0,0,1,.367.246A.581.581,0,0,1,903.33,1776.7Z" transform="translate(-869.443 -1776.045)" fill="#ffb93e"/>
          <path id="Trazado_114399" data-name="Trazado 114399" d="M887.458,1779.062H870.142a.693.693,0,0,1-.672-.486.541.541,0,0,1-.019-.072c0-.021-.006-.042-.007-.065s0-.022,0-.033v-1.7c0-.011,0-.022,0-.033s0-.043.007-.064a.565.565,0,0,1,.019-.073.693.693,0,0,1,.672-.486h15.19A5.287,5.287,0,0,0,887.458,1779.062Z" transform="translate(-869.443 -1776.045)" fill="#ffa412"/>
          <g id="Grupo_80581" data-name="Grupo 80581" transform="translate(11.876)">
            <rect id="Rectángulo_33801" data-name="Rectángulo 33801" width="0.367" height="3.017" transform="translate(17.71 0)" fill="#ffa412"/>
            <rect id="Rectángulo_33802" data-name="Rectángulo 33802" width="0.367" height="3.017" transform="translate(16.467 0)" fill="#ffa412"/>
            <rect id="Rectángulo_33803" data-name="Rectángulo 33803" width="0.367" height="3.017" transform="translate(14.975 0)" fill="#ffa412"/>
            <rect id="Rectángulo_33804" data-name="Rectángulo 33804" width="0.367" height="3.017" transform="translate(12.69 0)" fill="#ffa412"/>
            <rect id="Rectángulo_33805" data-name="Rectángulo 33805" width="0.367" height="3.017" transform="translate(10.273 0)" fill="#ffa412"/>
            <rect id="Rectángulo_33806" data-name="Rectángulo 33806" width="0.367" height="3.017" transform="translate(6.567 0)" fill="#ffa412"/>
            <rect id="Rectángulo_33807" data-name="Rectángulo 33807" width="0.367" height="3.017" transform="translate(3.098 0)" fill="#ffa412"/>
            <rect id="Rectángulo_33808" data-name="Rectángulo 33808" width="0.367" height="3.017" transform="translate(0 0)" fill="#ffa412"/>
            <rect id="Rectángulo_33809" data-name="Rectángulo 33809" width="0.367" height="3.017" transform="translate(18.894 0)" fill="#ffa412"/>
            <rect id="Rectángulo_33810" data-name="Rectángulo 33810" width="0.367" height="3.017" transform="translate(19.676 0)" fill="#ffa412"/>
            <rect id="Rectángulo_33811" data-name="Rectángulo 33811" width="0.367" height="3.017" transform="translate(20.431 0)" fill="#ffa412"/>
            <path id="Trazado_114400" data-name="Trazado 114400" d="M1164.237,1776.053v3a.913.913,0,0,1-.138.011h-.23v-3.017h.23A.9.9,0,0,1,1164.237,1776.053Z" transform="translate(-1142.871 -1776.043)" fill="#ffa412"/>
            <path id="Trazado_114401" data-name="Trazado 114401" d="M1168.809,1776.686v2.437a.778.778,0,0,1-.367.246v-2.929A.777.777,0,0,1,1168.809,1776.686Z" transform="translate(-1146.933 -1776.396)" fill="#ffa412"/>
          </g>
        </g>
        <g id="Grupo_80584" data-name="Grupo 80584" transform="translate(0 26.903)">
          <path id="Trazado_114402" data-name="Trazado 114402" d="M872.385,1749.673v1.7a.586.586,0,0,1-.133.368.776.776,0,0,1-.074.078.811.811,0,0,1-.294.167.827.827,0,0,1-.143.033.908.908,0,0,1-.137.011H839.281a.757.757,0,0,1-.773-.559c0-.021-.006-.042-.007-.064s0-.022,0-.034v-1.7c0-.011,0-.023,0-.034s0-.042.007-.063a.757.757,0,0,1,.773-.56H871.6l.061,0,.022,0h0a.14.14,0,0,1,.029,0l.02,0a.827.827,0,0,1,.143.033c.027.009.054.019.079.03h0l.05.024.028.016.026.016a.611.611,0,0,1,.095.07c.01.008.018.017.027.025l.016.015.008.009.007.007a.3.3,0,0,1,.029.033A.583.583,0,0,1,872.385,1749.673Z" transform="translate(-838.499 -1749.016)" fill="#ffb93e"/>
          <path id="Trazado_114403" data-name="Trazado 114403" d="M856.513,1752.034H839.2a.693.693,0,0,1-.671-.487.578.578,0,0,1-.019-.072c0-.021-.006-.042-.007-.064s0-.022,0-.034v-1.7c0-.011,0-.023,0-.034s0-.042.007-.063a.571.571,0,0,1,.019-.072.693.693,0,0,1,.671-.487h15.19c.006.025.013.05.021.075A5.278,5.278,0,0,0,856.513,1752.034Z" transform="translate(-838.499 -1749.016)" fill="#ffa412"/>
          <g id="Grupo_80583" data-name="Grupo 80583" transform="translate(11.875 0)">
            <rect id="Rectángulo_33812" data-name="Rectángulo 33812" width="0.367" height="3.017" transform="translate(17.71 0)" fill="#ffa412"/>
            <rect id="Rectángulo_33813" data-name="Rectángulo 33813" width="0.367" height="3.017" transform="translate(16.467 0)" fill="#ffa412"/>
            <rect id="Rectángulo_33814" data-name="Rectángulo 33814" width="0.367" height="3.017" transform="translate(14.975 0)" fill="#ffa412"/>
            <rect id="Rectángulo_33815" data-name="Rectángulo 33815" width="0.367" height="3.017" transform="translate(12.69 0)" fill="#ffa412"/>
            <rect id="Rectángulo_33816" data-name="Rectángulo 33816" width="0.367" height="3.017" transform="translate(10.273 0)" fill="#ffa412"/>
            <rect id="Rectángulo_33817" data-name="Rectángulo 33817" width="0.367" height="3.017" transform="translate(6.567 0)" fill="#ffa412"/>
            <rect id="Rectángulo_33818" data-name="Rectángulo 33818" width="0.367" height="3.017" transform="translate(3.098 0)" fill="#ffa412"/>
            <rect id="Rectángulo_33819" data-name="Rectángulo 33819" width="0.367" height="3.017" transform="translate(0 0)" fill="#ffa412"/>
            <rect id="Rectángulo_33820" data-name="Rectángulo 33820" width="0.367" height="3.017" transform="translate(18.894 0)" fill="#ffa412"/>
            <rect id="Rectángulo_33821" data-name="Rectángulo 33821" width="0.367" height="3.017" transform="translate(19.676 0)" fill="#ffa412"/>
            <rect id="Rectángulo_33822" data-name="Rectángulo 33822" width="0.367" height="3.017" transform="translate(20.431 0)" fill="#ffa412"/>
            <path id="Trazado_114404" data-name="Trazado 114404" d="M1133.287,1749.028v3a.9.9,0,0,1-.138.011h-.23v-3.017h.23A.932.932,0,0,1,1133.287,1749.028Z" transform="translate(-1111.921 -1749.018)" fill="#ffa412"/>
            <path id="Trazado_114405" data-name="Trazado 114405" d="M1137.859,1749.66v2.437a.777.777,0,0,1-.367.246v-2.929A.777.777,0,0,1,1137.859,1749.66Z" transform="translate(-1115.983 -1749.37)" fill="#ffa412"/>
          </g>
        </g>
        <g id="Grupo_80586" data-name="Grupo 80586" transform="translate(1.67 23.96)">
          <path id="Trazado_114406" data-name="Trazado 114406" d="M887.342,1723.32v1.7a.58.58,0,0,1-.134.366.773.773,0,0,1-.367.245.917.917,0,0,1-.143.034,1.037,1.037,0,0,1-.137.01H854.238a.9.9,0,0,1-.36-.075.682.682,0,0,1-.412-.477c0-.014,0-.028-.006-.042a.277.277,0,0,1,0-.029c0-.011,0-.022,0-.033v-1.7c0-.011,0-.022,0-.033a.439.439,0,0,1,.007-.064.756.756,0,0,1,.773-.559H886.56a.88.88,0,0,1,.137.01.829.829,0,0,1,.143.033.784.784,0,0,1,.367.246A.581.581,0,0,1,887.342,1723.32Z" transform="translate(-853.456 -1722.664)" fill="#ffb93e"/>
          <path id="Trazado_114407" data-name="Trazado 114407" d="M871.47,1725.681H854.154a.724.724,0,0,1-.321-.075.662.662,0,0,1-.368-.477c0-.014,0-.028-.006-.042a.277.277,0,0,1,0-.029c0-.011,0-.022,0-.033v-1.7c0-.011,0-.022,0-.033a.439.439,0,0,1,.007-.064.56.56,0,0,1,.018-.07.691.691,0,0,1,.672-.489h15.19a5.3,5.3,0,0,0,2.02,2.942C871.4,1725.631,871.434,1725.657,871.47,1725.681Z" transform="translate(-853.456 -1722.664)" fill="#ffa412"/>
          <g id="Grupo_80585" data-name="Grupo 80585" transform="translate(11.875)">
            <rect id="Rectángulo_33823" data-name="Rectángulo 33823" width="0.367" height="3.017" transform="translate(17.71 0)" fill="#ffa412"/>
            <rect id="Rectángulo_33824" data-name="Rectángulo 33824" width="0.367" height="3.017" transform="translate(16.467 0)" fill="#ffa412"/>
            <rect id="Rectángulo_33825" data-name="Rectángulo 33825" width="0.367" height="3.017" transform="translate(14.975 0)" fill="#ffa412"/>
            <rect id="Rectángulo_33826" data-name="Rectángulo 33826" width="0.367" height="3.017" transform="translate(12.69 0)" fill="#ffa412"/>
            <rect id="Rectángulo_33827" data-name="Rectángulo 33827" width="0.367" height="3.017" transform="translate(10.273 0)" fill="#ffa412"/>
            <rect id="Rectángulo_33828" data-name="Rectángulo 33828" width="0.367" height="3.017" transform="translate(6.567 0)" fill="#ffa412"/>
            <rect id="Rectángulo_33829" data-name="Rectángulo 33829" width="0.367" height="3.017" transform="translate(3.098 0)" fill="#ffa412"/>
            <rect id="Rectángulo_33830" data-name="Rectángulo 33830" width="0.367" height="3.017" transform="translate(0 0)" fill="#ffa412"/>
            <rect id="Rectángulo_33831" data-name="Rectángulo 33831" width="0.367" height="3.017" transform="translate(18.894 0)" fill="#ffa412"/>
            <rect id="Rectángulo_33832" data-name="Rectángulo 33832" width="0.367" height="3.017" transform="translate(19.676 0)" fill="#ffa412"/>
            <rect id="Rectángulo_33833" data-name="Rectángulo 33833" width="0.367" height="3.017" transform="translate(20.431 0)" fill="#ffa412"/>
            <path id="Trazado_114408" data-name="Trazado 114408" d="M1148.244,1722.671v3a.914.914,0,0,1-.138.011h-.23v-3.018h.23A.9.9,0,0,1,1148.244,1722.671Z" transform="translate(-1126.878 -1722.66)" fill="#ffa412"/>
            <path id="Trazado_114409" data-name="Trazado 114409" d="M1152.816,1723.3v2.438a.776.776,0,0,1-.367.246v-2.929A.776.776,0,0,1,1152.816,1723.3Z" transform="translate(-1130.94 -1723.013)" fill="#ffa412"/>
          </g>
        </g>
        <g id="Grupo_80588" data-name="Grupo 80588" transform="translate(2.445 20.942)">
          <path id="Trazado_114410" data-name="Trazado 114410" d="M894.278,1696.292v1.7a.578.578,0,0,1-.134.366c-.011.014-.023.027-.035.041a.757.757,0,0,1-.223.163.985.985,0,0,1-.108.043.852.852,0,0,1-.143.033l-.068.008c-.023,0-.047,0-.071,0H861.173a.757.757,0,0,1-.774-.559c0-.021-.006-.042-.007-.063v-1.772a.721.721,0,0,1,.689-.618.857.857,0,0,1,.093-.005h32.322c.023,0,.047,0,.071,0s.045,0,.068.008a.852.852,0,0,1,.143.033.778.778,0,0,1,.366.245A.581.581,0,0,1,894.278,1696.292Z" transform="translate(-860.392 -1695.635)" fill="#ffb93e"/>
          <path id="Trazado_114411" data-name="Trazado 114411" d="M878.406,1698.653H861.09a.694.694,0,0,1-.672-.487.544.544,0,0,1-.019-.072c0-.021-.006-.042-.007-.063v-1.772a.706.706,0,0,1,.7-.623h15.19s0,0,0,.005A5.292,5.292,0,0,0,878.406,1698.653Z" transform="translate(-860.392 -1695.635)" fill="#ffa412"/>
          <g id="Grupo_80587" data-name="Grupo 80587" transform="translate(11.875 0)">
            <rect id="Rectángulo_33834" data-name="Rectángulo 33834" width="0.367" height="3.017" transform="translate(17.71 0)" fill="#ffa412"/>
            <rect id="Rectángulo_33835" data-name="Rectángulo 33835" width="0.367" height="3.017" transform="translate(16.467 0)" fill="#ffa412"/>
            <rect id="Rectángulo_33836" data-name="Rectángulo 33836" width="0.367" height="3.017" transform="translate(14.975 0)" fill="#ffa412"/>
            <rect id="Rectángulo_33837" data-name="Rectángulo 33837" width="0.367" height="3.017" transform="translate(12.69 0)" fill="#ffa412"/>
            <rect id="Rectángulo_33838" data-name="Rectángulo 33838" width="0.367" height="3.017" transform="translate(10.273 0)" fill="#ffa412"/>
            <rect id="Rectángulo_33839" data-name="Rectángulo 33839" width="0.367" height="3.017" transform="translate(6.567 0)" fill="#ffa412"/>
            <rect id="Rectángulo_33840" data-name="Rectángulo 33840" width="0.367" height="3.017" transform="translate(3.098 0)" fill="#ffa412"/>
            <rect id="Rectángulo_33841" data-name="Rectángulo 33841" width="0.367" height="3.017" transform="translate(0 0)" fill="#ffa412"/>
            <rect id="Rectángulo_33842" data-name="Rectángulo 33842" width="0.367" height="3.017" transform="translate(18.894 0)" fill="#ffa412"/>
            <rect id="Rectángulo_33843" data-name="Rectángulo 33843" width="0.367" height="3.017" transform="translate(19.676 0)" fill="#ffa412"/>
            <rect id="Rectángulo_33844" data-name="Rectángulo 33844" width="0.367" height="3.017" transform="translate(20.431 0)" fill="#ffa412"/>
            <path id="Trazado_114412" data-name="Trazado 114412" d="M1155.178,1695.646v3a.9.9,0,0,1-.138.01h-.23v-3.017h.23A.932.932,0,0,1,1155.178,1695.646Z" transform="translate(-1133.811 -1695.636)" fill="#ffa412"/>
            <path id="Trazado_114413" data-name="Trazado 114413" d="M1159.75,1696.278v2.437a.777.777,0,0,1-.367.246v-2.929A.778.778,0,0,1,1159.75,1696.278Z" transform="translate(-1137.874 -1695.988)" fill="#ffa412"/>
          </g>
        </g>
        <g id="Grupo_80590" data-name="Grupo 80590" transform="translate(0.068 17.929)">
          <path id="Trazado_114414" data-name="Trazado 114414" d="M872.99,1669.308v1.7a.577.577,0,0,1-.133.366.773.773,0,0,1-.367.247.841.841,0,0,1-.142.033.361.361,0,0,1-.045.006H872.3l-.024,0-.021,0H839.888a.739.739,0,0,1-.781-.623c0-.011,0-.022,0-.034v-1.7c0-.011,0-.023,0-.034a.238.238,0,0,1,0-.027.708.708,0,0,1,.587-.575l.023,0a.915.915,0,0,1,.17-.016h32.322c.024,0,.047,0,.07,0l.029,0h0l.036.005a.865.865,0,0,1,.142.033.771.771,0,0,1,.367.246A.578.578,0,0,1,872.99,1669.308Z" transform="translate(-839.105 -1668.651)" fill="#ffb93e"/>
          <path id="Trazado_114415" data-name="Trazado 114415" d="M857.119,1671.669H839.8a.684.684,0,0,1-.7-.623c0-.011,0-.022,0-.034v-1.7c0-.011,0-.023,0-.034a.238.238,0,0,1,0-.027.673.673,0,0,1,.542-.579.158.158,0,0,1,.029-.006.743.743,0,0,1,.124-.011h15.189l.006.022a5.288,5.288,0,0,0,2.113,2.991Z" transform="translate(-839.105 -1668.651)" fill="#ffa412"/>
          <g id="Grupo_80589" data-name="Grupo 80589" transform="translate(11.876 0)">
            <rect id="Rectángulo_33845" data-name="Rectángulo 33845" width="0.367" height="3.017" transform="translate(17.71 0)" fill="#ffa412"/>
            <rect id="Rectángulo_33846" data-name="Rectángulo 33846" width="0.367" height="3.017" transform="translate(16.467 0)" fill="#ffa412"/>
            <rect id="Rectángulo_33847" data-name="Rectángulo 33847" width="0.367" height="3.017" transform="translate(14.975 0)" fill="#ffa412"/>
            <rect id="Rectángulo_33848" data-name="Rectángulo 33848" width="0.367" height="3.017" transform="translate(12.69 0)" fill="#ffa412"/>
            <rect id="Rectángulo_33849" data-name="Rectángulo 33849" width="0.367" height="3.017" transform="translate(10.273 0)" fill="#ffa412"/>
            <rect id="Rectángulo_33850" data-name="Rectángulo 33850" width="0.367" height="3.017" transform="translate(6.567 0)" fill="#ffa412"/>
            <rect id="Rectángulo_33851" data-name="Rectángulo 33851" width="0.367" height="3.017" transform="translate(3.098 0)" fill="#ffa412"/>
            <rect id="Rectángulo_33852" data-name="Rectángulo 33852" width="0.367" height="3.017" transform="translate(0 0)" fill="#ffa412"/>
            <rect id="Rectángulo_33853" data-name="Rectángulo 33853" width="0.367" height="3.017" transform="translate(18.894 0)" fill="#ffa412"/>
            <rect id="Rectángulo_33854" data-name="Rectángulo 33854" width="0.367" height="3.017" transform="translate(19.676 0)" fill="#ffa412"/>
            <rect id="Rectángulo_33855" data-name="Rectángulo 33855" width="0.367" height="3.017" transform="translate(20.431 0)" fill="#ffa412"/>
            <path id="Trazado_114416" data-name="Trazado 114416" d="M1133.9,1668.664v3a.914.914,0,0,1-.138.01h-.23v-3.018h.23A.914.914,0,0,1,1133.9,1668.664Z" transform="translate(-1112.529 -1668.653)" fill="#ffa412"/>
            <path id="Trazado_114417" data-name="Trazado 114417" d="M1138.468,1669.3v2.437a.779.779,0,0,1-.367.246v-2.929A.78.78,0,0,1,1138.468,1669.3Z" transform="translate(-1116.592 -1669.007)" fill="#ffa412"/>
          </g>
        </g>
        <g id="Grupo_80592" data-name="Grupo 80592" transform="translate(0 14.934)">
          <path id="Trazado_114418" data-name="Trazado 114418" d="M872.385,1642.478v1.7a.583.583,0,0,1-.133.367.907.907,0,0,1-.074.079.807.807,0,0,1-.294.168.861.861,0,0,1-.111.028h0l-.029.005a.877.877,0,0,1-.137.011H839.281a.825.825,0,0,1-.1-.006l-.038,0a.727.727,0,0,1-.635-.556.536.536,0,0,1-.006-.056c0-.012,0-.023,0-.034v-1.7c0-.012,0-.023,0-.034s0-.042.007-.064a.757.757,0,0,1,.773-.559H871.6l.061,0h.026l.029,0a.068.068,0,0,1,.02,0,.827.827,0,0,1,.143.033c.027.009.054.019.079.03h0a.784.784,0,0,1,.258.182l.029.033A.586.586,0,0,1,872.385,1642.478Z" transform="translate(-838.499 -1641.821)" fill="#ffb93e"/>
          <path id="Trazado_114419" data-name="Trazado 114419" d="M856.513,1644.839H839.156l-.044,0a.683.683,0,0,1-.606-.562.536.536,0,0,1-.006-.056c0-.012,0-.023,0-.034v-1.7c0-.012,0-.023,0-.034s0-.042.007-.064a.567.567,0,0,1,.019-.072.693.693,0,0,1,.671-.487h15.19c.006.025.013.049.021.075a5.279,5.279,0,0,0,2.074,2.921Z" transform="translate(-838.499 -1641.821)" fill="#ffa412"/>
          <g id="Grupo_80591" data-name="Grupo 80591" transform="translate(11.875 0)">
            <rect id="Rectángulo_33856" data-name="Rectángulo 33856" width="0.367" height="3.017" transform="translate(17.71 0)" fill="#ffa412"/>
            <rect id="Rectángulo_33857" data-name="Rectángulo 33857" width="0.367" height="3.017" transform="translate(16.467 0)" fill="#ffa412"/>
            <rect id="Rectángulo_33858" data-name="Rectángulo 33858" width="0.367" height="3.017" transform="translate(14.975 0)" fill="#ffa412"/>
            <rect id="Rectángulo_33859" data-name="Rectángulo 33859" width="0.367" height="3.017" transform="translate(12.69 0)" fill="#ffa412"/>
            <rect id="Rectángulo_33860" data-name="Rectángulo 33860" width="0.367" height="3.017" transform="translate(10.273 0)" fill="#ffa412"/>
            <rect id="Rectángulo_33861" data-name="Rectángulo 33861" width="0.367" height="3.017" transform="translate(6.567 0)" fill="#ffa412"/>
            <rect id="Rectángulo_33862" data-name="Rectángulo 33862" width="0.367" height="3.017" transform="translate(3.098 0)" fill="#ffa412"/>
            <rect id="Rectángulo_33863" data-name="Rectángulo 33863" width="0.367" height="3.017" transform="translate(0 0)" fill="#ffa412"/>
            <rect id="Rectángulo_33864" data-name="Rectángulo 33864" width="0.367" height="3.017" transform="translate(18.894 0)" fill="#ffa412"/>
            <rect id="Rectángulo_33865" data-name="Rectángulo 33865" width="0.367" height="3.017" transform="translate(19.676 0)" fill="#ffa412"/>
            <rect id="Rectángulo_33866" data-name="Rectángulo 33866" width="0.367" height="3.017" transform="translate(20.431 0)" fill="#ffa412"/>
            <path id="Trazado_114420" data-name="Trazado 114420" d="M1133.287,1641.833v3a.9.9,0,0,1-.138.011h-.23v-3.018h.23A.9.9,0,0,1,1133.287,1641.833Z" transform="translate(-1111.921 -1641.822)" fill="#ffa412"/>
            <path id="Trazado_114421" data-name="Trazado 114421" d="M1137.859,1642.465v2.437a.778.778,0,0,1-.367.246v-2.929A.778.778,0,0,1,1137.859,1642.465Z" transform="translate(-1115.983 -1642.175)" fill="#ffa412"/>
          </g>
        </g>
        <g id="Grupo_80594" data-name="Grupo 80594" transform="translate(1.67 11.99)">
          <path id="Trazado_114422" data-name="Trazado 114422" d="M887.342,1616.118v1.7a.582.582,0,0,1-.134.368.774.774,0,0,1-.367.245.817.817,0,0,1-.143.033.879.879,0,0,1-.137.011H854.238a.9.9,0,0,1-.36-.075.683.683,0,0,1-.412-.477c0-.014,0-.028-.006-.042s0-.019,0-.029,0-.022,0-.034v-1.7c0-.011,0-.023,0-.034a.447.447,0,0,1,.007-.064.757.757,0,0,1,.773-.559H886.56a.879.879,0,0,1,.137.011.84.84,0,0,1,.143.033.769.769,0,0,1,.367.246A.579.579,0,0,1,887.342,1616.118Z" transform="translate(-853.456 -1615.461)" fill="#ffb93e"/>
          <path id="Trazado_114423" data-name="Trazado 114423" d="M871.47,1618.479H854.154a.724.724,0,0,1-.321-.075.662.662,0,0,1-.368-.477c0-.014,0-.028-.006-.042s0-.019,0-.029,0-.022,0-.034v-1.7c0-.011,0-.023,0-.034a.447.447,0,0,1,.007-.064.548.548,0,0,1,.018-.07.692.692,0,0,1,.672-.489h15.19a5.3,5.3,0,0,0,2.02,2.943Z" transform="translate(-853.456 -1615.461)" fill="#ffa412"/>
          <g id="Grupo_80593" data-name="Grupo 80593" transform="translate(11.875 0)">
            <rect id="Rectángulo_33867" data-name="Rectángulo 33867" width="0.367" height="3.017" transform="translate(17.71 0)" fill="#ffa412"/>
            <rect id="Rectángulo_33868" data-name="Rectángulo 33868" width="0.367" height="3.017" transform="translate(16.467 0)" fill="#ffa412"/>
            <rect id="Rectángulo_33869" data-name="Rectángulo 33869" width="0.367" height="3.017" transform="translate(14.975 0)" fill="#ffa412"/>
            <rect id="Rectángulo_33870" data-name="Rectángulo 33870" width="0.367" height="3.017" transform="translate(12.69 0)" fill="#ffa412"/>
            <rect id="Rectángulo_33871" data-name="Rectángulo 33871" width="0.367" height="3.017" transform="translate(10.273 0)" fill="#ffa412"/>
            <rect id="Rectángulo_33872" data-name="Rectángulo 33872" width="0.367" height="3.017" transform="translate(6.567 0)" fill="#ffa412"/>
            <rect id="Rectángulo_33873" data-name="Rectángulo 33873" width="0.367" height="3.017" transform="translate(3.098 0)" fill="#ffa412"/>
            <rect id="Rectángulo_33874" data-name="Rectángulo 33874" width="0.367" height="3.017" transform="translate(0 0)" fill="#ffa412"/>
            <rect id="Rectángulo_33875" data-name="Rectángulo 33875" width="0.367" height="3.017" transform="translate(18.894 0)" fill="#ffa412"/>
            <rect id="Rectángulo_33876" data-name="Rectángulo 33876" width="0.367" height="3.017" transform="translate(19.676 0)" fill="#ffa412"/>
            <rect id="Rectángulo_33877" data-name="Rectángulo 33877" width="0.367" height="3.017" transform="translate(20.431 0)" fill="#ffa412"/>
            <path id="Trazado_114424" data-name="Trazado 114424" d="M1148.244,1615.476v3a.914.914,0,0,1-.138.01h-.23v-3.017h.23A.914.914,0,0,1,1148.244,1615.476Z" transform="translate(-1126.878 -1615.465)" fill="#ffa412"/>
            <path id="Trazado_114425" data-name="Trazado 114425" d="M1152.816,1616.107v2.437a.777.777,0,0,1-.367.246v-2.929A.777.777,0,0,1,1152.816,1616.107Z" transform="translate(-1130.94 -1615.817)" fill="#ffa412"/>
          </g>
        </g>
        <g id="Grupo_80596" data-name="Grupo 80596" transform="translate(4.311 8.973)">
          <path id="Trazado_114426" data-name="Trazado 114426" d="M911,1589.1v1.7a.582.582,0,0,1-.133.365h0c-.011.014-.023.027-.035.041a.742.742,0,0,1-.173.135.8.8,0,0,1-.1.05s0,0,0,0l-.055.02a.809.809,0,0,1-.143.033.876.876,0,0,1-.137.01H877.893a.756.756,0,0,1-.773-.558.457.457,0,0,1-.007-.065c0-.011,0-.022,0-.033v-1.7c0-.011,0-.022,0-.033a.72.72,0,0,1,.689-.618.694.694,0,0,1,.092-.005h32.323a1.033,1.033,0,0,1,.137.01.92.92,0,0,1,.143.034.8.8,0,0,1,.331.2c.012.013.024.026.035.04h0A.583.583,0,0,1,911,1589.1Z" transform="translate(-877.112 -1588.441)" fill="#ffb93e"/>
          <path id="Trazado_114427" data-name="Trazado 114427" d="M895.126,1591.458H877.81a.691.691,0,0,1-.672-.488.551.551,0,0,1-.018-.07.457.457,0,0,1-.007-.065c0-.011,0-.022,0-.033v-1.7c0-.011,0-.022,0-.033a.677.677,0,0,1,.614-.618.562.562,0,0,1,.083-.005H893a.041.041,0,0,1,0,.005A5.286,5.286,0,0,0,895.126,1591.458Z" transform="translate(-877.112 -1588.441)" fill="#ffa412"/>
          <g id="Grupo_80595" data-name="Grupo 80595" transform="translate(11.875)">
            <rect id="Rectángulo_33878" data-name="Rectángulo 33878" width="0.367" height="3.017" transform="translate(17.71 0)" fill="#ffa412"/>
            <rect id="Rectángulo_33879" data-name="Rectángulo 33879" width="0.367" height="3.017" transform="translate(16.466 0)" fill="#ffa412"/>
            <rect id="Rectángulo_33880" data-name="Rectángulo 33880" width="0.367" height="3.017" transform="translate(14.975 0)" fill="#ffa412"/>
            <rect id="Rectángulo_33881" data-name="Rectángulo 33881" width="0.367" height="3.017" transform="translate(12.69 0)" fill="#ffa412"/>
            <rect id="Rectángulo_33882" data-name="Rectángulo 33882" width="0.367" height="3.017" transform="translate(10.273 0)" fill="#ffa412"/>
            <rect id="Rectángulo_33883" data-name="Rectángulo 33883" width="0.367" height="3.017" transform="translate(6.567 0)" fill="#ffa412"/>
            <rect id="Rectángulo_33884" data-name="Rectángulo 33884" width="0.367" height="3.017" transform="translate(3.098 0)" fill="#ffa412"/>
            <rect id="Rectángulo_33885" data-name="Rectángulo 33885" width="0.367" height="3.017" transform="translate(0 0)" fill="#ffa412"/>
            <rect id="Rectángulo_33886" data-name="Rectángulo 33886" width="0.367" height="3.017" transform="translate(18.894 0)" fill="#ffa412"/>
            <rect id="Rectángulo_33887" data-name="Rectángulo 33887" width="0.367" height="3.017" transform="translate(19.676 0)" fill="#ffa412"/>
            <rect id="Rectángulo_33888" data-name="Rectángulo 33888" width="0.367" height="3.017" transform="translate(20.431 0)" fill="#ffa412"/>
            <path id="Trazado_114428" data-name="Trazado 114428" d="M1171.9,1588.45v3a.916.916,0,0,1-.138.011h-.23v-3.018h.23A.932.932,0,0,1,1171.9,1588.45Z" transform="translate(-1150.535 -1588.44)" fill="#ffa412"/>
            <path id="Trazado_114429" data-name="Trazado 114429" d="M1176.473,1589.083v2.437a.777.777,0,0,1-.367.246v-2.929A.778.778,0,0,1,1176.473,1589.083Z" transform="translate(-1154.597 -1588.793)" fill="#ffa412"/>
          </g>
        </g>
        <g id="Grupo_80598" data-name="Grupo 80598" transform="translate(0.068 5.96)">
          <path id="Trazado_114430" data-name="Trazado 114430" d="M872.99,1562.114v1.7a.578.578,0,0,1-.133.366.77.77,0,0,1-.367.246.819.819,0,0,1-.142.033l-.045.006H872.3l-.03,0H839.888a.822.822,0,0,1-.665-.313.577.577,0,0,1-.116-.31c0-.012,0-.023,0-.034v-1.7c0-.012,0-.023,0-.034a.693.693,0,0,1,.554-.594.877.877,0,0,1,.227-.029H872.25l.02,0a.629.629,0,0,1,.077.008.853.853,0,0,1,.142.033.471.471,0,0,1,.067.025h0a.762.762,0,0,1,.226.142l0,0,.009.008a.633.633,0,0,1,.062.066A.58.58,0,0,1,872.99,1562.114Z" transform="translate(-839.105 -1561.457)" fill="#ffb93e"/>
          <path id="Trazado_114431" data-name="Trazado 114431" d="M857.119,1564.475H839.8a.71.71,0,0,1-.584-.3.619.619,0,0,1-.114-.325c0-.012,0-.023,0-.034v-1.7c0-.012,0-.023,0-.034a.673.673,0,0,1,.556-.609.715.715,0,0,1,.141-.014h15.189c.006.023.013.047.02.07a5.278,5.278,0,0,0,2.1,2.943Z" transform="translate(-839.105 -1561.457)" fill="#ffa412"/>
          <g id="Grupo_80597" data-name="Grupo 80597" transform="translate(11.876 0)">
            <rect id="Rectángulo_33889" data-name="Rectángulo 33889" width="0.367" height="3.017" transform="translate(17.71 0)" fill="#ffa412"/>
            <rect id="Rectángulo_33890" data-name="Rectángulo 33890" width="0.367" height="3.017" transform="translate(16.467 0)" fill="#ffa412"/>
            <rect id="Rectángulo_33891" data-name="Rectángulo 33891" width="0.367" height="3.017" transform="translate(14.975 0)" fill="#ffa412"/>
            <rect id="Rectángulo_33892" data-name="Rectángulo 33892" width="0.367" height="3.017" transform="translate(12.69 0)" fill="#ffa412"/>
            <rect id="Rectángulo_33893" data-name="Rectángulo 33893" width="0.367" height="3.017" transform="translate(10.273 0)" fill="#ffa412"/>
            <rect id="Rectángulo_33894" data-name="Rectángulo 33894" width="0.367" height="3.017" transform="translate(6.567 0)" fill="#ffa412"/>
            <rect id="Rectángulo_33895" data-name="Rectángulo 33895" width="0.367" height="3.017" transform="translate(3.098 0)" fill="#ffa412"/>
            <rect id="Rectángulo_33896" data-name="Rectángulo 33896" width="0.367" height="3.017" transform="translate(0 0)" fill="#ffa412"/>
            <rect id="Rectángulo_33897" data-name="Rectángulo 33897" width="0.367" height="3.017" transform="translate(18.894 0)" fill="#ffa412"/>
            <rect id="Rectángulo_33898" data-name="Rectángulo 33898" width="0.367" height="3.017" transform="translate(19.676 0)" fill="#ffa412"/>
            <rect id="Rectángulo_33899" data-name="Rectángulo 33899" width="0.367" height="3.017" transform="translate(20.431 0)" fill="#ffa412"/>
            <path id="Trazado_114432" data-name="Trazado 114432" d="M1133.9,1561.469v3a.931.931,0,0,1-.138.01h-.23v-3.018h.23A.914.914,0,0,1,1133.9,1561.469Z" transform="translate(-1112.529 -1561.458)" fill="#ffa412"/>
            <path id="Trazado_114433" data-name="Trazado 114433" d="M1138.468,1562.1v2.437a.78.78,0,0,1-.367.246v-2.929A.78.78,0,0,1,1138.468,1562.1Z" transform="translate(-1116.592 -1561.811)" fill="#ffa412"/>
          </g>
        </g>
        <g id="Grupo_80600" data-name="Grupo 80600" transform="translate(2.444 3.013)">
          <path id="Trazado_114434" data-name="Trazado 114434" d="M894.274,1535.716v1.7a.58.58,0,0,1-.134.367.777.777,0,0,1-.367.246.835.835,0,0,1-.143.034.9.9,0,0,1-.138.011H861.17a.891.891,0,0,1-.349-.07.672.672,0,0,1-.43-.526c0-.009,0-.018,0-.027s0-.023,0-.034v-1.7c0-.011,0-.023,0-.034a.72.72,0,0,1,.689-.618.823.823,0,0,1,.093,0h32.322a.9.9,0,0,1,.138.01.847.847,0,0,1,.143.034.779.779,0,0,1,.367.246A.58.58,0,0,1,894.274,1535.716Z" transform="translate(-860.388 -1535.059)" fill="#ffb93e"/>
          <path id="Trazado_114435" data-name="Trazado 114435" d="M878.4,1538.076H861.086a.722.722,0,0,1-.312-.07.661.661,0,0,1-.383-.526c0-.009,0-.018,0-.027s0-.023,0-.034v-1.7c0-.011,0-.023,0-.034a.677.677,0,0,1,.615-.618.655.655,0,0,1,.083,0h15.19v0a5.293,5.293,0,0,0,2.026,2.943Z" transform="translate(-860.388 -1535.059)" fill="#ffa412"/>
          <g id="Grupo_80599" data-name="Grupo 80599" transform="translate(11.876)">
            <rect id="Rectángulo_33900" data-name="Rectángulo 33900" width="0.367" height="3.017" transform="translate(17.71 0)" fill="#ffa412"/>
            <rect id="Rectángulo_33901" data-name="Rectángulo 33901" width="0.367" height="3.017" transform="translate(16.467 0)" fill="#ffa412"/>
            <rect id="Rectángulo_33902" data-name="Rectángulo 33902" width="0.367" height="3.017" transform="translate(14.975 0)" fill="#ffa412"/>
            <rect id="Rectángulo_33903" data-name="Rectángulo 33903" width="0.367" height="3.017" transform="translate(12.69 0)" fill="#ffa412"/>
            <rect id="Rectángulo_33904" data-name="Rectángulo 33904" width="0.367" height="3.017" transform="translate(10.273 0)" fill="#ffa412"/>
            <rect id="Rectángulo_33905" data-name="Rectángulo 33905" width="0.367" height="3.017" transform="translate(6.567 0)" fill="#ffa412"/>
            <rect id="Rectángulo_33906" data-name="Rectángulo 33906" width="0.367" height="3.017" transform="translate(3.098 0)" fill="#ffa412"/>
            <rect id="Rectángulo_33907" data-name="Rectángulo 33907" width="0.367" height="3.017" transform="translate(0 0)" fill="#ffa412"/>
            <rect id="Rectángulo_33908" data-name="Rectángulo 33908" width="0.367" height="3.017" transform="translate(18.894 0)" fill="#ffa412"/>
            <rect id="Rectángulo_33909" data-name="Rectángulo 33909" width="0.367" height="3.017" transform="translate(19.676 0)" fill="#ffa412"/>
            <rect id="Rectángulo_33910" data-name="Rectángulo 33910" width="0.367" height="3.017" transform="translate(20.431 0)" fill="#ffa412"/>
            <path id="Trazado_114436" data-name="Trazado 114436" d="M1155.178,1535.068v3a.9.9,0,0,1-.138.01h-.23v-3.017h.23A.9.9,0,0,1,1155.178,1535.068Z" transform="translate(-1133.811 -1535.058)" fill="#ffa412"/>
            <path id="Trazado_114437" data-name="Trazado 114437" d="M1159.75,1535.7v2.438a.778.778,0,0,1-.367.246v-2.929A.778.778,0,0,1,1159.75,1535.7Z" transform="translate(-1137.874 -1535.41)" fill="#ffa412"/>
          </g>
        </g>
        <g id="Grupo_80602" data-name="Grupo 80602" transform="translate(3.456)">
          <path id="Trazado_114438" data-name="Trazado 114438" d="M903.333,1508.733v1.7a.581.581,0,0,1-.134.367.779.779,0,0,1-.367.246.831.831,0,0,1-.143.034l-.045.006-.026,0H870.229a.738.738,0,0,1-.781-.623c0-.011,0-.022,0-.034v-1.7c0-.011,0-.022,0-.034a.738.738,0,0,1,.781-.623h32.322a.913.913,0,0,1,.138.01.854.854,0,0,1,.143.034.78.78,0,0,1,.367.246A.581.581,0,0,1,903.333,1508.733Z" transform="translate(-869.447 -1508.076)" fill="#ffb93e"/>
          <path id="Trazado_114439" data-name="Trazado 114439" d="M887.461,1511.094H870.145a.683.683,0,0,1-.7-.623c0-.011,0-.022,0-.034v-1.7c0-.011,0-.022,0-.034a.683.683,0,0,1,.7-.623h15.19a5.289,5.289,0,0,0,2.12,3.013Z" transform="translate(-869.447 -1508.076)" fill="#ffa412"/>
          <g id="Grupo_80601" data-name="Grupo 80601" transform="translate(11.876)">
            <rect id="Rectángulo_33911" data-name="Rectángulo 33911" width="0.367" height="3.017" transform="translate(17.71 0)" fill="#ffa412"/>
            <rect id="Rectángulo_33912" data-name="Rectángulo 33912" width="0.367" height="3.017" transform="translate(16.467 0)" fill="#ffa412"/>
            <rect id="Rectángulo_33913" data-name="Rectángulo 33913" width="0.367" height="3.017" transform="translate(14.975 0)" fill="#ffa412"/>
            <rect id="Rectángulo_33914" data-name="Rectángulo 33914" width="0.367" height="3.017" transform="translate(12.69 0)" fill="#ffa412"/>
            <rect id="Rectángulo_33915" data-name="Rectángulo 33915" width="0.367" height="3.017" transform="translate(10.273 0)" fill="#ffa412"/>
            <rect id="Rectángulo_33916" data-name="Rectángulo 33916" width="0.367" height="3.017" transform="translate(6.567 0)" fill="#ffa412"/>
            <rect id="Rectángulo_33917" data-name="Rectángulo 33917" width="0.367" height="3.017" transform="translate(3.098 0)" fill="#ffa412"/>
            <rect id="Rectángulo_33918" data-name="Rectángulo 33918" width="0.367" height="3.017" transform="translate(0 0)" fill="#ffa412"/>
            <rect id="Rectángulo_33919" data-name="Rectángulo 33919" width="0.367" height="3.017" transform="translate(18.894 0)" fill="#ffa412"/>
            <rect id="Rectángulo_33920" data-name="Rectángulo 33920" width="0.367" height="3.017" transform="translate(19.676 0)" fill="#ffa412"/>
            <rect id="Rectángulo_33921" data-name="Rectángulo 33921" width="0.367" height="3.017" transform="translate(20.431 0)" fill="#ffa412"/>
            <path id="Trazado_114440" data-name="Trazado 114440" d="M1164.238,1508.087v3a.909.909,0,0,1-.138.01h-.229v-3.017h.229A.879.879,0,0,1,1164.238,1508.087Z" transform="translate(-1142.872 -1508.076)" fill="#ffa412"/>
            <path id="Trazado_114441" data-name="Trazado 114441" d="M1168.81,1508.719v2.437a.78.78,0,0,1-.367.246v-2.929A.779.779,0,0,1,1168.81,1508.719Z" transform="translate(-1146.934 -1508.429)" fill="#ffa412"/>
          </g>
        </g>
      </g>
      <g id="Grupo_80606" data-name="Grupo 80606" transform="translate(0 0)">
        <path id="Trazado_114442" data-name="Trazado 114442" d="M853.428,1543.165c0,.008,0,.015,0,.022a14.461,14.461,0,0,1-.485,2.991.049.049,0,0,0,0,.005c-.038.141-.079.283-.122.423a14.79,14.79,0,0,1-1.065,2.59,15.009,15.009,0,0,1-2.031,2.942c-.021.025-.043.051-.066.075a15.568,15.568,0,0,1-3.551,2.943q-.43.262-.882.5c-.2.107-.409.208-.615.306-.2.114-.4.212-.6.332a8.4,8.4,0,0,1-2.054.845v-1.327c0-.011,0-.022,0-.033s0-.043.007-.065a.543.543,0,0,1,.019-.072.694.694,0,0,1,.672-.486H839.2a.692.692,0,0,1-.671-.487.574.574,0,0,1-.019-.072c0-.021-.006-.042-.007-.064s0-.022,0-.034v-1.7c0-.011,0-.023,0-.034s0-.042.007-.064a.578.578,0,0,1,.019-.072.693.693,0,0,1,.671-.487h1.349a.662.662,0,0,1-.368-.477c0-.014,0-.028-.006-.042a.274.274,0,0,1,0-.029c0-.011,0-.022,0-.033v-1.7c0-.011,0-.022,0-.033a.433.433,0,0,1,.007-.064.555.555,0,0,1,.018-.07.691.691,0,0,1,.672-.489h.774a.694.694,0,0,1-.672-.487.539.539,0,0,1-.019-.072c0-.021-.006-.042-.007-.063V1546.8a.679.679,0,0,1,.615-.618h-2.293a.684.684,0,0,1-.7-.623c0-.011,0-.022,0-.034v-1.7c0-.011,0-.023,0-.034a.249.249,0,0,1,0-.027.673.673,0,0,1,.542-.578.683.683,0,0,1-.606-.561.541.541,0,0,1-.006-.057c0-.012,0-.023,0-.034v-1.7c0-.012,0-.023,0-.034s0-.042.007-.064a.571.571,0,0,1,.019-.072.693.693,0,0,1,.671-.487h1.349a.662.662,0,0,1-.368-.476c0-.014,0-.028-.006-.043a.293.293,0,0,1,0-.029c0-.011,0-.022,0-.034v-1.7c0-.011,0-.023,0-.034a.448.448,0,0,1,.007-.064.546.546,0,0,1,.018-.07.692.692,0,0,1,.672-.489h2.641a.691.691,0,0,1-.672-.488.537.537,0,0,1-.018-.07.459.459,0,0,1-.007-.065c0-.011,0-.022,0-.033v-1.7c0-.011,0-.022,0-.033a.677.677,0,0,1,.614-.618h-4.16a.71.71,0,0,1-.583-.3l0-.015.438-2.675,0-.015.624-3.818a16.664,16.664,0,0,1,2.142.431l.123.033.008,0q.613.172,1.211.389l.011,0a16,16,0,0,1,5.018,2.943c.026.022.052.045.078.07a15.122,15.122,0,0,1,2.1,2.267q.189.248.367.506c.039.057.079.113.116.171a.005.005,0,0,1,0,.005q.286.423.543.867a14.859,14.859,0,0,1,1.023,2.145,14.33,14.33,0,0,1,.784,2.943c.005.025.008.049.012.075A14.407,14.407,0,0,1,853.428,1543.165Z" transform="translate(-816.848 -1524.498)" fill="#e2810e" opacity="0.5"/>
        <circle id="Elipse_4748" data-name="Elipse 4748" cx="15.898" cy="15.898" r="15.898" transform="translate(0.006 2.524) rotate(-4.553)" fill="#e2810e"/>
        <path id="Trazado_114443" data-name="Trazado 114443" d="M668.768,1547.766q-.294.179-.6.347-.1.057-.206.111c-.157.084-.313.164-.471.242a15.9,15.9,0,0,1-14.673-28.2q.306-.169.616-.322c.2-.1.4-.2.606-.286a15.87,15.87,0,0,1,4.772-1.283,15.9,15.9,0,0,1,9.954,29.39Z" transform="translate(-644.594 -1516.411)" fill="#ffb93e"/>
        <g id="Grupo_80604" data-name="Grupo 80604" transform="translate(1.74 3.701)">
          <path id="Trazado_114444" data-name="Trazado 114444" d="M674.454,1563.11a14.3,14.3,0,0,1-3.979-.568,14.157,14.157,0,1,1,3.979.568ZM674.41,1535a13.859,13.859,0,1,0,12.162,7.167A13.776,13.776,0,0,0,674.41,1535Z" transform="translate(-660.182 -1534.615)" fill="#ffa412"/>
        </g>
        <g id="Grupo_80605" data-name="Grupo 80605" transform="translate(9.316 7.49)">
          <path id="Trazado_114445" data-name="Trazado 114445" d="M741.714,1580.383c-.031-.078-.065-.154-.1-.228a4.169,4.169,0,0,0-.964-1.378,4.3,4.3,0,0,0-1.518-.893,7.258,7.258,0,0,0-1.929-.362q-1.065-.066-2.316-.03a11.244,11.244,0,0,1-1.323-.026,3.326,3.326,0,0,1-.931-.2,1.631,1.631,0,0,1-.622-.421,2.212,2.212,0,0,1-.395-.651,2.415,2.415,0,0,1-.18-.764,1.638,1.638,0,0,1,.113-.719,1.755,1.755,0,0,1,.443-.628,2.588,2.588,0,0,1,.811-.494,2.046,2.046,0,0,1,1.737.016,2.947,2.947,0,0,1,1.313,1.643l3.239-1.315a6.055,6.055,0,0,0-1.06-1.758,4.542,4.542,0,0,0-3.175-1.566,6,6,0,0,0-1.955.2l-.917-2.259-1.793.728.9,2.228a6.714,6.714,0,0,0-1.646,1.171,5.025,5.025,0,0,0-1.037,1.446,4.03,4.03,0,0,0-.381,1.634,4.786,4.786,0,0,0,1.409,3.357,4.243,4.243,0,0,0,1.516.888,7.18,7.18,0,0,0,1.93.35,22.884,22.884,0,0,0,2.322,0,8.611,8.611,0,0,1,1.263.008,3.29,3.29,0,0,1,.926.206,1.75,1.75,0,0,1,.648.44,2.384,2.384,0,0,1,.436.72,2,2,0,0,1,.155.768,1.637,1.637,0,0,1-.173.731,2.067,2.067,0,0,1-.514.646,3.117,3.117,0,0,1-.87.511,3.754,3.754,0,0,1-.951.247,2.171,2.171,0,0,1-.959-.1,2.231,2.231,0,0,1-.876-.566,3.439,3.439,0,0,1-.708-1.149l-3.238,1.315a5.591,5.591,0,0,0,1.274,1.98,4.594,4.594,0,0,0,1.678,1.047,5.136,5.136,0,0,0,1.906.275,8.088,8.088,0,0,0,1.964-.324l.836,2.061,1.782-.724-.841-2.071a7.232,7.232,0,0,0,1.663-1.161,4.905,4.905,0,0,0,1-1.31c.019-.038.038-.076.057-.114a3.983,3.983,0,0,0,.39-1.626A4.375,4.375,0,0,0,741.714,1580.383Z" transform="translate(-728.033 -1568.545)" fill="#ffa412"/>
        </g>
      </g>
    </g>
    <g id="Grupo_80615" data-name="Grupo 80615" transform="translate(318.875 222.625)">
      <rect id="Rectángulo_33922" data-name="Rectángulo 33922" width="55.578" height="0.803" transform="translate(1.787 45.241)" fill="#ccd8ff"/>
      <rect id="Rectángulo_33923" data-name="Rectángulo 33923" width="56.717" height="0.803" transform="translate(1.217 46.044)" fill="#a9baff"/>
      <rect id="Rectángulo_33924" data-name="Rectángulo 33924" width="58.281" height="0.803" transform="translate(0.435 46.847)" fill="#8c9df4"/>
      <g id="Grupo_80614" data-name="Grupo 80614" transform="translate(0)">
        <rect id="Rectángulo_33925" data-name="Rectángulo 33925" width="51.978" height="30.708" transform="translate(3.083 14.533)" fill="#8c9df4"/>
        <path id="Trazado_114446" data-name="Trazado 114446" d="M626.155,766.515h-58.59L597.393,751.4Z" transform="translate(-567.565 -751.397)" fill="#ccd8ff"/>
        <path id="Trazado_114447" data-name="Trazado 114447" d="M647.213,785.758l40.8-.086L668.127,775.33Z" transform="translate(-638.32 -772.657)" fill="#6f84dd"/>
        <rect id="Rectángulo_33926" data-name="Rectángulo 33926" width="55.817" height="1.294" transform="translate(1.529 15.119)" fill="#8c9df4"/>
        <g id="Grupo_80608" data-name="Grupo 80608" transform="translate(5.674 14.533)">
          <rect id="Rectángulo_33927" data-name="Rectángulo 33927" width="5.498" height="1.984" fill="#ccd8ff"/>
          <rect id="Rectángulo_33928" data-name="Rectángulo 33928" width="3.031" height="28.724" transform="translate(1.234 1.984)" fill="#ccd8ff"/>
        </g>
        <g id="Grupo_80609" data-name="Grupo 80609" transform="translate(17.554 14.533)">
          <rect id="Rectángulo_33929" data-name="Rectángulo 33929" width="5.498" height="1.984" fill="#ccd8ff"/>
          <rect id="Rectángulo_33930" data-name="Rectángulo 33930" width="3.031" height="28.724" transform="translate(1.234 1.984)" fill="#ccd8ff"/>
        </g>
        <g id="Grupo_80610" data-name="Grupo 80610" transform="translate(36.229 14.533)">
          <rect id="Rectángulo_33931" data-name="Rectángulo 33931" width="5.498" height="1.984" fill="#ccd8ff"/>
          <rect id="Rectángulo_33932" data-name="Rectángulo 33932" width="3.031" height="28.724" transform="translate(1.234 1.984)" fill="#ccd8ff"/>
        </g>
        <g id="Grupo_80611" data-name="Grupo 80611" transform="translate(47.415 14.533)">
          <rect id="Rectángulo_33933" data-name="Rectángulo 33933" width="5.498" height="1.984" fill="#ccd8ff"/>
          <rect id="Rectángulo_33934" data-name="Rectángulo 33934" width="3.031" height="28.724" transform="translate(1.234 1.984)" fill="#ccd8ff"/>
        </g>
        <g id="Grupo_80612" data-name="Grupo 80612" transform="translate(27.996 4.917)">
          <path id="Trazado_114448" data-name="Trazado 114448" d="M820.773,799.749a.7.7,0,0,0-.036-.245.513.513,0,0,0-.125-.193.967.967,0,0,0-.227-.162,2.55,2.55,0,0,0-.341-.147,6.719,6.719,0,0,1-.628-.265,2.122,2.122,0,0,1-.482-.316,1.245,1.245,0,0,1-.308-.414,1.405,1.405,0,0,1,0-1.069,1.18,1.18,0,0,1,.29-.4,1.476,1.476,0,0,1,.446-.272,1.966,1.966,0,0,1,.579-.129l.01-.706.568.008-.01.716a1.762,1.762,0,0,1,.552.17,1.335,1.335,0,0,1,.68.787,1.781,1.781,0,0,1,.085.6L820.8,797.7a.865.865,0,0,0-.167-.595.6.6,0,0,0-.468-.2.763.763,0,0,0-.276.041.518.518,0,0,0-.192.119.482.482,0,0,0-.113.181.71.71,0,0,0-.039.227.648.648,0,0,0,.032.221.48.48,0,0,0,.12.185.967.967,0,0,0,.229.162,3.273,3.273,0,0,0,.355.159q.342.134.623.273a2.143,2.143,0,0,1,.48.319,1.2,1.2,0,0,1,.412.971,1.286,1.286,0,0,1-.109.52,1.169,1.169,0,0,1-.292.4,1.426,1.426,0,0,1-.45.264,2.129,2.129,0,0,1-.583.124l-.01.656-.565-.008.009-.653a2.382,2.382,0,0,1-.568-.137,1.509,1.509,0,0,1-.484-.292,1.355,1.355,0,0,1-.334-.475,1.648,1.648,0,0,1-.118-.682l1.026.015a1.015,1.015,0,0,0,.06.392.655.655,0,0,0,.172.253.638.638,0,0,0,.248.136,1.084,1.084,0,0,0,.285.042.91.91,0,0,0,.294-.038.611.611,0,0,0,.213-.116.487.487,0,0,0,.13-.178A.59.59,0,0,0,820.773,799.749Z" transform="translate(-818.298 -795.434)" fill="#ccd8ff"/>
        </g>
        <g id="Grupo_80613" data-name="Grupo 80613" transform="translate(12.582 21.852)">
          <path id="Rectángulo_33935" data-name="Rectángulo 33935" d="M3.884,0h0a3.66,3.66,0,0,1,3.66,3.66v8.12a0,0,0,0,1,0,0H0a0,0,0,0,1,0,0v-7.9A3.884,3.884,0,0,1,3.884,0Z" transform="translate(12.704 11.609)" fill="#6f84dd"/>
          <path id="Rectángulo_33936" data-name="Rectángulo 33936" d="M1.834,0h0A1.727,1.727,0,0,1,3.561,1.727V5.561a0,0,0,0,1,0,0H0a0,0,0,0,1,0,0V1.834A1.834,1.834,0,0,1,1.834,0Z" transform="translate(10.429)" fill="#6f84dd"/>
          <path id="Rectángulo_33937" data-name="Rectángulo 33937" d="M1.834,0h0A1.727,1.727,0,0,1,3.561,1.727V5.561a0,0,0,0,1,0,0H0a0,0,0,0,1,0,0V1.834A1.834,1.834,0,0,1,1.834,0Z" fill="#6f84dd"/>
          <path id="Rectángulo_33938" data-name="Rectángulo 33938" d="M1.834,0h0A1.727,1.727,0,0,1,3.561,1.727V5.561a0,0,0,0,1,0,0H0a0,0,0,0,1,0,0V1.834A1.834,1.834,0,0,1,1.834,0Z" transform="translate(0 11.938)" fill="#6f84dd"/>
          <path id="Rectángulo_33939" data-name="Rectángulo 33939" d="M1.834,0h0A1.727,1.727,0,0,1,3.561,1.727V5.561a0,0,0,0,1,0,0H0a0,0,0,0,1,0,0V1.834A1.834,1.834,0,0,1,1.834,0Z" transform="translate(30.208)" fill="#6f84dd"/>
          <path id="Rectángulo_33940" data-name="Rectángulo 33940" d="M1.834,0h0A1.727,1.727,0,0,1,3.561,1.727V5.561a0,0,0,0,1,0,0H0a0,0,0,0,1,0,0V1.834A1.834,1.834,0,0,1,1.834,0Z" transform="translate(30.208 11.938)" fill="#6f84dd"/>
          <path id="Rectángulo_33941" data-name="Rectángulo 33941" d="M1.834,0h0A1.728,1.728,0,0,1,3.561,1.728V5.561a0,0,0,0,1,0,0H0a0,0,0,0,1,0,0V1.834A1.834,1.834,0,0,1,1.834,0Z" transform="translate(19.433)" fill="#6f84dd"/>
        </g>
      </g>
    </g>
    <rect id="Rectángulo_33942" data-name="Rectángulo 33942" width="249.584" height="1.079" rx="0.54" transform="translate(303.435 340.057)" fill="#233862"/>
  </g>
</svg>
