<svg xmlns="http://www.w3.org/2000/svg" width="270" height="198.629" viewBox="0 0 270 198.629">
  <g id="Grupo_80616" data-name="Grupo 80616" transform="translate(-287.617 -156.163)">
    <path id="Trazado_114355" data-name="Trazado 114355" d="M532.739,340.6c-5.905,0-32.53.007-66.311,0-9.327,0-19.2-.005-29.335-.008l-23.393-.012-13.323-.008c-59.455-.047-68.93.618-78.366.028-17.554,0-62.514-68.218-8.991-113.01,20.783-17.393-5.891-40.5,28.63-57.854,22.7-11.413,39.19,8.637,66.593,1.414,20.246-5.337,24.364-17.854,64.39-14.385C511.126,160.1,511.9,191.7,499.69,217.8c-7.71,16.477,30.091,11.389,47.571,35.979C577.1,295.749,533,339.973,532.739,340.6Z" transform="translate(0)" fill="#e1f3d7"/>
    <rect id="Rectángulo_33942" data-name="Rectángulo 33942" width="249.584" height="1.079" rx="0.54" transform="translate(303.435 340.057)" fill="#233862"/>
    <g id="Grupo_106166" data-name="Grupo 106166" transform="translate(-149.814 -601.052)">
      <g id="Grupo_106205" data-name="Grupo 106205" transform="translate(-1549.008 -244.142)">
        <g id="Grupo_106167" data-name="Grupo 106167" transform="translate(2079.826 1061.732)">
          <path id="Trazado_137733" data-name="Trazado 137733" d="M2221.34,1150.555V1258.27h25.613V1134.056h-15.034c-2.92,0-5.567,1.846-7.481,4.831A21.9,21.9,0,0,0,2221.34,1150.555Z" transform="translate(-2221.34 -1134.057)" fill="#6980e2"/>
        </g>
        <g id="Grupo_106168" data-name="Grupo 106168" transform="translate(2078.239 1061.732)">
          <path id="Trazado_137734" data-name="Trazado 137734" d="M2226.484,1134.059,2213.3,1176.2v82.07H2271V1134.059Z" transform="translate(-2213.303 -1134.058)" fill="#8c9df4"/>
        </g>
        <g id="Grupo_106169" data-name="Grupo 106169" transform="translate(2082.516 1065.219)" opacity="0.5">
          <path id="Trazado_137735" data-name="Trazado 137735" d="M2235.224,1173.1l7.752-25.379c.437-1.429,1.361-2.339,2.376-2.339h28.712l-4.673,33.588H2237.6C2235.666,1178.967,2234.392,1175.821,2235.224,1173.1Z" transform="translate(-2234.965 -1145.38)" fill="#dde7fe"/>
        </g>
        <g id="Grupo_106170" data-name="Grupo 106170" transform="translate(2087.053 1069.923)">
          <path id="Trazado_137736" data-name="Trazado 137736" d="M2257.949,1183.055l6.3-21.757,21.18-.643-3.351,22.4Z" transform="translate(-2257.949 -1160.656)" fill="#8c9df4"/>
        </g>
        <g id="Grupo_106171" data-name="Grupo 106171" transform="translate(2095.424 1073.959)" opacity="0.5">
          <path id="Trazado_137737" data-name="Trazado 137737" d="M2301.191,1176.4h15.187c.467,0,.847-.591.847-1.32s-.379-1.32-.847-1.32h-15.187c-.468,0-.846.591-.846,1.32S2300.724,1176.4,2301.191,1176.4Z" transform="translate(-2300.345 -1173.764)" fill="#6980e2"/>
        </g>
        <g id="Grupo_106172" data-name="Grupo 106172" transform="translate(2092.503 1080.355)" opacity="0.5">
          <path id="Trazado_137738" data-name="Trazado 137738" d="M2286.4,1197.178h7c.468,0,.846-.591.846-1.321s-.379-1.32-.846-1.32h-7c-.468,0-.846.591-.846,1.32S2285.932,1197.178,2286.4,1197.178Z" transform="translate(-2285.553 -1194.537)" fill="#6980e2"/>
        </g>
        <g id="Grupo_106173" data-name="Grupo 106173" transform="translate(2090.954 1085.248)" opacity="0.5">
          <path id="Trazado_137739" data-name="Trazado 137739" d="M2278.552,1213.065h7c.467,0,.846-.592.846-1.32s-.379-1.32-.846-1.32h-7c-.468,0-.846.591-.846,1.32S2278.085,1213.065,2278.552,1213.065Z" transform="translate(-2277.706 -1210.425)" fill="#6980e2"/>
        </g>
        <g id="Grupo_106174" data-name="Grupo 106174" transform="translate(2104.884 1080.355)" opacity="0.5">
          <path id="Trazado_137740" data-name="Trazado 137740" d="M2349.108,1197.178h7c.468,0,.846-.591.846-1.321s-.379-1.32-.846-1.32h-7c-.467,0-.846.591-.846,1.32S2348.641,1197.178,2349.108,1197.178Z" transform="translate(-2348.262 -1194.537)" fill="#6980e2"/>
        </g>
        <g id="Grupo_106175" data-name="Grupo 106175" transform="translate(2103.334 1085.248)" opacity="0.5">
          <path id="Trazado_137741" data-name="Trazado 137741" d="M2341.261,1213.065h7c.468,0,.846-.592.846-1.32s-.379-1.32-.846-1.32h-7c-.468,0-.846.591-.846,1.32S2340.794,1213.065,2341.261,1213.065Z" transform="translate(-2340.415 -1210.425)" fill="#6980e2"/>
        </g>
        <g id="Grupo_106176" data-name="Grupo 106176" transform="translate(2110.326 1061.732)">
          <path id="Trazado_137742" data-name="Trazado 137742" d="M2375.829,1150.555V1258.27h25.613V1134.056h-15.035c-2.922,0-5.564,1.846-7.48,4.831A21.9,21.9,0,0,0,2375.829,1150.555Z" transform="translate(-2375.829 -1134.057)" fill="#6980e2"/>
        </g>
        <g id="Grupo_106177" data-name="Grupo 106177" transform="translate(2089.997 1070.565)">
          <path id="Trazado_137743" data-name="Trazado 137743" d="M2272.86,1164.149c0-.777.4-1.406.9-1.406s.9.63.9,1.406-.4,1.406-.9,1.406S2272.86,1164.926,2272.86,1164.149Z" transform="translate(-2272.86 -1162.743)" fill="#8c9df4"/>
        </g>
        <g id="Grupo_106178" data-name="Grupo 106178" transform="translate(2087.889 1078.488)">
          <ellipse id="Elipse_5306" data-name="Elipse 5306" cx="0.902" cy="1.406" rx="0.902" ry="1.406" transform="translate(0 -0.001)" fill="#8c9df4"/>
        </g>
        <g id="Grupo_106179" data-name="Grupo 106179" transform="translate(2085.604 1086.568)">
          <path id="Trazado_137744" data-name="Trazado 137744" d="M2250.6,1216.118c0-.776.4-1.406.9-1.406s.9.63.9,1.406-.4,1.406-.9,1.406S2250.6,1216.895,2250.6,1216.118Z" transform="translate(-2250.605 -1214.713)" fill="#8c9df4"/>
        </g>
        <g id="Grupo_106180" data-name="Grupo 106180" transform="translate(2081.419 1109.656)" opacity="0.5">
          <rect id="Rectángulo_37472" data-name="Rectángulo 37472" width="24.911" height="10.748" transform="translate(24.911 10.747) rotate(180)" fill="#dde7fe"/>
        </g>
        <g id="Grupo_106204" data-name="Grupo 106204" transform="translate(2020.613 1029.553)">
          <g id="Grupo_106181" data-name="Grupo 106181" transform="translate(41.386 76.291)">
            <path id="Trazado_137745" data-name="Trazado 137745" d="M2159.451,1277.315s1.023,4.533.731,5.776-3.472,3.218-4.661,2.852-.165-6.581,1.882-7.6Z" transform="translate(-2155.017 -1277.315)" fill="#ffb27d"/>
          </g>
          <g id="Grupo_106182" data-name="Grupo 106182" transform="translate(11.52 0)">
            <path id="Trazado_137746" data-name="Trazado 137746" d="M2065.727,1064.018c-.578-1.115,12.618-5.132,12.827,5.876,0,0,24.72-.608,12.917-14.386-4.087-4.77-3.666-8.714-3.544-12.385s-2.545-14.343-11.7-13.268a6.814,6.814,0,0,0-5.386.576C2064.045,1033.96,2048.811,1068.078,2065.727,1064.018Z" transform="translate(-2058.024 -1029.553)" fill="#163560"/>
          </g>
          <g id="Grupo_106183" data-name="Grupo 106183" transform="translate(36.119 26.604)">
            <path id="Trazado_137747" data-name="Trazado 137747" d="M2139.1,1115.953s4.569,1.042,5.925,5.233,3.025,19.244,3.17,25.918c.13,5.929.146,20.291.146,20.291a6.38,6.38,0,0,1-4.661,0L2137.911,1138Z" transform="translate(-2137.911 -1115.953)" fill="#9fc1f4"/>
          </g>
          <g id="Grupo_106184" data-name="Grupo 106184" transform="translate(34.788 43.233)">
            <path id="Trazado_137748" data-name="Trazado 137748" d="M2140.636,1195.717s-.994-16.377-.167-24.429c.662-6.442-7.4,12.38-6.854,15.8S2140.636,1195.717,2140.636,1195.717Z" transform="translate(-2133.59 -1169.955)" fill="#80a3d8"/>
          </g>
          <g id="Grupo_106185" data-name="Grupo 106185" transform="translate(0 142.957)">
            <path id="Trazado_137749" data-name="Trazado 137749" d="M2022.912,1495.015s-2.77,2.528-2.229,4.324,3.04,2.993,3.378,5.189,1.689,3.393,2.9,3.393h5.8s.895-1.545-1.267-2.01-2.977-3.045-2.842-5.44a42.163,42.163,0,0,0-.2-5.588l-4.594-1.064Z" transform="translate(-2020.613 -1493.817)" fill="#233862"/>
          </g>
          <g id="Grupo_106186" data-name="Grupo 106186" transform="translate(25.36 145.227)">
            <path id="Trazado_137750" data-name="Trazado 137750" d="M2103.356,1501.191s-1,10.709.219,11.308l15.563-.032s0-1.8-2.5-2.195-6.891-1.863-7.634-5.122S2103.356,1501.191,2103.356,1501.191Z" transform="translate(-2102.971 -1501.191)" fill="#1b3154"/>
          </g>
          <g id="Grupo_106187" data-name="Grupo 106187" transform="translate(13.669 25.72)">
            <path id="Trazado_137751" data-name="Trazado 137751" d="M2065.108,1126.3a61.915,61.915,0,0,0,0,7.193c.154,2.6,2.785,6.084,3.158,6.946.937,2.161,1.993,2.513,1.993,2.513l8.171,2,2.874.7,9.06-2.706s4.127-11.519,2.47-18a49.84,49.84,0,0,0-4.189-10.987s-6.142-1.476-17.02-.614Z" transform="translate(-2065.005 -1113.082)" fill="#9fc1f4"/>
          </g>
          <g id="Grupo_106188" data-name="Grupo 106188" transform="translate(16.164 44.565)">
            <path id="Trazado_137752" data-name="Trazado 137752" d="M2073.107,1176.914a25.456,25.456,0,0,0,.767,5.885c.937,2.161,1.993,2.513,1.993,2.513l8.171,2,3.549-1.043s-11.847-1.8-10.534-11.988Z" transform="translate(-2073.107 -1174.283)" fill="#f2ccaa"/>
          </g>
          <g id="Grupo_106189" data-name="Grupo 106189" transform="translate(23.419 57.343)">
            <path id="Trazado_137753" data-name="Trazado 137753" d="M2111.7,1215.778s4.487,13.966,4.775,18.721-8.577,67.549-8.934,69.74c-.336,2.065-2.9,3.382-2.9,3.382a3.88,3.88,0,0,1-2.863.22,7.084,7.084,0,0,1-3.075-1.449s-3.492-44.784-1.331-60.782a253.35,253.35,0,0,0,2.187-29.832Z" transform="translate(-2096.668 -1215.778)" fill="#233862"/>
          </g>
          <g id="Grupo_106190" data-name="Grupo 106190" transform="translate(3.245 56.926)">
            <path id="Trazado_137754" data-name="Trazado 137754" d="M2047.348,1214.425s-6.844,9.183-7.483,15.391-1,28.014-2.36,34.066-6.354,17.7-6.354,36.574a3.769,3.769,0,0,0,2.122,1.658,17.636,17.636,0,0,0,1.866.516,2.935,2.935,0,0,0,3.282-1.558c3.377-6.8,14.132-28.726,14.684-33.277.391-3.221,3.787-24.54,11.195-37.049,1.778-3-1.091-14.947-1.091-14.947Z" transform="translate(-2031.151 -1214.425)" fill="#2b478b"/>
          </g>
          <g id="Grupo_106191" data-name="Grupo 106191" transform="translate(18.472 55.186)">
            <path id="Trazado_137755" data-name="Trazado 137755" d="M2101.3,1208.775a9.4,9.4,0,0,1-5.38,1.5c-4.274.086-14.865-1.089-14.865-1.089a8.758,8.758,0,0,0-.451,2.7s12.935,3.263,20.43.476A4.737,4.737,0,0,0,2101.3,1208.775Z" transform="translate(-2080.602 -1208.775)" fill="#233862"/>
          </g>
          <g id="Grupo_106193" data-name="Grupo 106193" transform="translate(32.864 55.952)">
            <g id="Grupo_106192" data-name="Grupo 106192">
              <path id="Trazado_137756" data-name="Trazado 137756" d="M2127.343,1213.469a1.965,1.965,0,1,1,1.95,2.207A2.093,2.093,0,0,1,2127.343,1213.469Zm.646,0a1.325,1.325,0,1,0,1.3-1.561A1.451,1.451,0,0,0,2127.99,1213.469Z" transform="translate(-2127.343 -1211.262)" fill="#fff"/>
            </g>
          </g>
          <g id="Grupo_106194" data-name="Grupo 106194" transform="translate(4.999 39.573)">
            <rect id="Rectángulo_37473" data-name="Rectángulo 37473" width="17.573" height="24.054" transform="translate(13.253 29.68) rotate(-138.952)" fill="#163560"/>
          </g>
          <g id="Grupo_106195" data-name="Grupo 106195" transform="translate(20.992 57.755)">
            <path id="Trazado_137757" data-name="Trazado 137757" d="M2089.707,1217.118s5.187.457,5.172,1.61-1.645,3.162-2.413,3.162c-1.755,0-3.679-2.628-3.679-2.628Z" transform="translate(-2088.786 -1217.118)" fill="#ffb27d"/>
          </g>
          <g id="Grupo_106196" data-name="Grupo 106196" transform="translate(4.122 25.991)">
            <path id="Trazado_137758" data-name="Trazado 137758" d="M2050.166,1113.96s-6.483.454-8.968,6.5-7.2,16.184-7.2,17.89,2.634,6.966,16.778,9.99c0,0,1.463-1.539,1.375-2.756,0,0-8.83-7.583-8.806-8.47.045-1.677,1.448-3.89,9.2-11.645C2054.652,1123.357,2050.166,1113.96,2050.166,1113.96Z" transform="translate(-2033.998 -1113.96)" fill="#9fc1f4"/>
          </g>
          <g id="Grupo_106197" data-name="Grupo 106197" transform="translate(22.691 57.549)">
            <path id="Trazado_137759" data-name="Trazado 137759" d="M2094.3,1216.764a11.832,11.832,0,0,1,1.944-.269c.768,0,1.689-.155,1.7.1.011.48-1.535.645-1.535.864S2094.3,1216.764,2094.3,1216.764Z" transform="translate(-2094.305 -1216.448)" fill="#ffb27d"/>
          </g>
          <g id="Grupo_106203" data-name="Grupo 106203" transform="translate(22.287 4.7)">
            <g id="Grupo_106198" data-name="Grupo 106198" transform="translate(1.698 13.288)">
              <path id="Trazado_137760" data-name="Trazado 137760" d="M2098.536,1095.878a26.613,26.613,0,0,0,1.854-7.908l.41.069,6.9,1.157s-.157,1.839-.162,3.572v.043a21.066,21.066,0,0,1-.282,4.11c-.136.841-2.69,1.15-5.578.716C2100.646,1097.482,2098.217,1096.477,2098.536,1095.878Z" transform="translate(-2098.507 -1087.97)" fill="#ffb27d"/>
            </g>
            <g id="Grupo_106199" data-name="Grupo 106199" transform="translate(3.991 13.357)">
              <path id="Trazado_137761" data-name="Trazado 137761" d="M2112.851,1089.35s-.157,1.839-.162,3.572c-3.86-.092-5.9-3.075-6.737-4.729Z" transform="translate(-2105.953 -1088.193)" fill="#e8945b"/>
            </g>
            <g id="Grupo_106200" data-name="Grupo 106200" transform="translate(2.936 1.261)">
              <path id="Trazado_137762" data-name="Trazado 137762" d="M2111.771,1064.321s-9.133.151-9.139-5.538-1.189-9.5,4.642-9.838,6.966,1.833,7.43,3.731S2114.146,1064.135,2111.771,1064.321Z" transform="translate(-2102.529 -1048.91)" fill="#ffb27d"/>
            </g>
            <g id="Grupo_106201" data-name="Grupo 106201">
              <path id="Trazado_137763" data-name="Trazado 137763" d="M2104.833,1045.972s-2.5,6.674-6.338,7.661-5.5-.042-5.5-.042a10.866,10.866,0,0,0,3.554-6.42S2102.946,1042.8,2104.833,1045.972Z" transform="translate(-2092.993 -1044.816)" fill="#163560"/>
            </g>
            <g id="Grupo_106202" data-name="Grupo 106202" transform="translate(11.22 0.61)">
              <path id="Trazado_137764" data-name="Trazado 137764" d="M2129.432,1047.885a5.666,5.666,0,0,1,2.617,2.046,9.2,9.2,0,0,1,1.234,5.223s1.884-4.536-.233-7.1C2130.805,1045.329,2129.432,1047.885,2129.432,1047.885Z" transform="translate(-2129.432 -1046.797)" fill="#163560"/>
            </g>
          </g>
        </g>
      </g>
      <g id="Grupo_106159" data-name="Grupo 106159" transform="translate(530.717 797.86)">
        <g id="Grupo_106151" data-name="Grupo 106151" transform="translate(43.907 77.643)">
          <g id="Grupo_106130" data-name="Grupo 106130" transform="translate(7.063 61.153)">
            <path id="Trazado_137649" data-name="Trazado 137649" d="M2260.774,1594.527v3.483a1.186,1.186,0,0,1-.274.749,1.593,1.593,0,0,1-.75.5,1.718,1.718,0,0,1-.292.069,1.847,1.847,0,0,1-.282.021h-66.061a1.509,1.509,0,0,1-1.6-1.273c0-.023,0-.046,0-.069v-3.483c0-.023,0-.046,0-.069a1.509,1.509,0,0,1,1.6-1.273h66.061a1.847,1.847,0,0,1,.282.022,1.718,1.718,0,0,1,.292.069,1.592,1.592,0,0,1,.75.5A1.186,1.186,0,0,1,2260.774,1594.527Z" transform="translate(-2191.517 -1593.185)" fill="#ffb93e"/>
            <path id="Trazado_137650" data-name="Trazado 137650" d="M2228.335,1599.352h-35.391a1.4,1.4,0,0,1-1.425-1.273c0-.023,0-.046,0-.069v-3.483c0-.023,0-.046,0-.069a1.4,1.4,0,0,1,1.425-1.273h31.045A10.813,10.813,0,0,0,2228.335,1599.352Z" transform="translate(-2191.517 -1593.185)" fill="#ffa412"/>
            <g id="Grupo_106129" data-name="Grupo 106129" transform="translate(24.272)">
              <rect id="Rectángulo_37351" data-name="Rectángulo 37351" width="0.751" height="6.167" transform="translate(36.197 0)" fill="#ffa412"/>
              <rect id="Rectángulo_37352" data-name="Rectángulo 37352" width="0.751" height="6.167" transform="translate(33.655 0)" fill="#ffa412"/>
              <rect id="Rectángulo_37353" data-name="Rectángulo 37353" width="0.751" height="6.167" transform="translate(30.607 0)" fill="#ffa412"/>
              <rect id="Rectángulo_37354" data-name="Rectángulo 37354" width="0.751" height="6.167" transform="translate(25.936 0)" fill="#ffa412"/>
              <rect id="Rectángulo_37355" data-name="Rectángulo 37355" width="0.751" height="6.167" transform="translate(20.996 0)" fill="#ffa412"/>
              <rect id="Rectángulo_37356" data-name="Rectángulo 37356" width="0.751" height="6.167" transform="translate(13.423 0)" fill="#ffa412"/>
              <rect id="Rectángulo_37357" data-name="Rectángulo 37357" width="0.751" height="6.167" transform="translate(6.332 0)" fill="#ffa412"/>
              <rect id="Rectángulo_37358" data-name="Rectángulo 37358" width="0.751" height="6.167" transform="translate(0 0)" fill="#ffa412"/>
              <rect id="Rectángulo_37359" data-name="Rectángulo 37359" width="0.751" height="6.167" transform="translate(38.616 0)" fill="#ffa412"/>
              <rect id="Rectángulo_37360" data-name="Rectángulo 37360" width="0.751" height="6.167" transform="translate(40.214 0)" fill="#ffa412"/>
              <rect id="Rectángulo_37361" data-name="Rectángulo 37361" width="0.751" height="6.167" transform="translate(41.757 0)" fill="#ffa412"/>
              <path id="Trazado_137651" data-name="Trazado 137651" d="M2577.281,1593.207v6.124a1.847,1.847,0,0,1-.282.021h-.469v-6.167H2577A1.847,1.847,0,0,1,2577.281,1593.207Z" transform="translate(-2533.612 -1593.185)" fill="#ffa412"/>
              <path id="Trazado_137652" data-name="Trazado 137652" d="M2583.26,1594.206v4.982a1.594,1.594,0,0,1-.75.5V1593.7A1.592,1.592,0,0,1,2583.26,1594.206Z" transform="translate(-2538.548 -1593.613)" fill="#ffa412"/>
            </g>
          </g>
          <g id="Grupo_106132" data-name="Grupo 106132" transform="translate(0 54.985)">
            <path id="Trazado_137653" data-name="Trazado 137653" d="M2220.3,1559.188v3.483a1.186,1.186,0,0,1-.274.749,1.592,1.592,0,0,1-.75.5,1.736,1.736,0,0,1-.292.069,1.862,1.862,0,0,1-.282.021h-66.061a1.509,1.509,0,0,1-1.6-1.273c0-.023,0-.046,0-.069v-3.483c0-.023,0-.046,0-.069a1.509,1.509,0,0,1,1.6-1.273H2218.7c.042,0,.084,0,.126,0l.054,0,.059.007.043.006a1.736,1.736,0,0,1,.292.069l.041.014.041.015.08.033.046.021c.014.007.028.013.041.02s.05.026.075.04.056.033.082.051l.062.042,0,0,.041.03a1.411,1.411,0,0,1,.116.1l.032.031.031.033c.02.022.041.045.059.068A1.187,1.187,0,0,1,2220.3,1559.188Z" transform="translate(-2151.043 -1557.846)" fill="#ffb93e"/>
            <path id="Trazado_137654" data-name="Trazado 137654" d="M2187.861,1564.013H2152.47a1.4,1.4,0,0,1-1.425-1.273c0-.023,0-.046,0-.069v-3.483c0-.023,0-.046,0-.069a1.4,1.4,0,0,1,1.425-1.273h31.044c.014.051.028.1.043.152A10.789,10.789,0,0,0,2187.861,1564.013Z" transform="translate(-2151.043 -1557.846)" fill="#ffa412"/>
            <g id="Grupo_106131" data-name="Grupo 106131" transform="translate(24.272)">
              <rect id="Rectángulo_37362" data-name="Rectángulo 37362" width="0.751" height="6.167" transform="translate(36.196 0)" fill="#ffa412"/>
              <rect id="Rectángulo_37363" data-name="Rectángulo 37363" width="0.751" height="6.167" transform="translate(33.655 0)" fill="#ffa412"/>
              <rect id="Rectángulo_37364" data-name="Rectángulo 37364" width="0.751" height="6.167" transform="translate(30.607 0)" fill="#ffa412"/>
              <rect id="Rectángulo_37365" data-name="Rectángulo 37365" width="0.751" height="6.167" transform="translate(25.936 0)" fill="#ffa412"/>
              <rect id="Rectángulo_37366" data-name="Rectángulo 37366" width="0.751" height="6.167" transform="translate(20.996 0)" fill="#ffa412"/>
              <rect id="Rectángulo_37367" data-name="Rectángulo 37367" width="0.751" height="6.167" transform="translate(13.423 0)" fill="#ffa412"/>
              <rect id="Rectángulo_37368" data-name="Rectángulo 37368" width="0.751" height="6.167" transform="translate(6.332 0)" fill="#ffa412"/>
              <rect id="Rectángulo_37369" data-name="Rectángulo 37369" width="0.751" height="6.167" transform="translate(0 0)" fill="#ffa412"/>
              <rect id="Rectángulo_37370" data-name="Rectángulo 37370" width="0.751" height="6.167" transform="translate(38.616 0)" fill="#ffa412"/>
              <rect id="Rectángulo_37371" data-name="Rectángulo 37371" width="0.751" height="6.167" transform="translate(40.214 0)" fill="#ffa412"/>
              <rect id="Rectángulo_37372" data-name="Rectángulo 37372" width="0.751" height="6.167" transform="translate(41.757 0)" fill="#ffa412"/>
              <path id="Trazado_137655" data-name="Trazado 137655" d="M2536.808,1557.867v6.124a1.809,1.809,0,0,1-.282.022h-.469v-6.167h.469A1.839,1.839,0,0,1,2536.808,1557.867Z" transform="translate(-2493.139 -1557.846)" fill="#ffa412"/>
              <path id="Trazado_137656" data-name="Trazado 137656" d="M2542.786,1558.866v4.982a1.592,1.592,0,0,1-.75.5v-5.986A1.592,1.592,0,0,1,2542.786,1558.866Z" transform="translate(-2498.074 -1558.274)" fill="#ffa412"/>
            </g>
          </g>
          <g id="Grupo_106134" data-name="Grupo 106134" transform="translate(3.413 48.97)">
            <path id="Trazado_137657" data-name="Trazado 137657" d="M2239.86,1524.721v3.483a1.186,1.186,0,0,1-.274.749,1.59,1.59,0,0,1-.75.5,1.7,1.7,0,0,1-.292.069,1.864,1.864,0,0,1-.282.021H2172.2a1.831,1.831,0,0,1-.737-.152,1.369,1.369,0,0,1-.854-1.061c0-.02,0-.04-.006-.06s0-.046,0-.069v-3.483c0-.023,0-.046,0-.069a1.509,1.509,0,0,1,1.6-1.273h66.061a1.849,1.849,0,0,1,.282.021,1.711,1.711,0,0,1,.292.069,1.59,1.59,0,0,1,.75.5A1.187,1.187,0,0,1,2239.86,1524.721Z" transform="translate(-2170.602 -1523.379)" fill="#ffb93e"/>
            <path id="Trazado_137658" data-name="Trazado 137658" d="M2207.42,1529.546h-35.391a1.484,1.484,0,0,1-.657-.152,1.347,1.347,0,0,1-.762-1.061c0-.02,0-.04-.006-.06s0-.046,0-.069v-3.483c0-.023,0-.046,0-.069a1.4,1.4,0,0,1,1.425-1.273h31.045a10.824,10.824,0,0,0,4.129,6.015C2207.274,1529.445,2207.347,1529.5,2207.42,1529.546Z" transform="translate(-2170.602 -1523.379)" fill="#ffa412"/>
            <g id="Grupo_106133" data-name="Grupo 106133" transform="translate(24.272)">
              <rect id="Rectángulo_37373" data-name="Rectángulo 37373" width="0.751" height="6.167" transform="translate(36.196 0)" fill="#ffa412"/>
              <rect id="Rectángulo_37374" data-name="Rectángulo 37374" width="0.751" height="6.167" transform="translate(33.655 0)" fill="#ffa412"/>
              <rect id="Rectángulo_37375" data-name="Rectángulo 37375" width="0.751" height="6.167" transform="translate(30.607 0)" fill="#ffa412"/>
              <rect id="Rectángulo_37376" data-name="Rectángulo 37376" width="0.751" height="6.167" transform="translate(25.936 0)" fill="#ffa412"/>
              <rect id="Rectángulo_37377" data-name="Rectángulo 37377" width="0.751" height="6.167" transform="translate(20.996 0)" fill="#ffa412"/>
              <rect id="Rectángulo_37378" data-name="Rectángulo 37378" width="0.751" height="6.167" transform="translate(13.422 0)" fill="#ffa412"/>
              <rect id="Rectángulo_37379" data-name="Rectángulo 37379" width="0.751" height="6.167" transform="translate(6.332 0)" fill="#ffa412"/>
              <rect id="Rectángulo_37380" data-name="Rectángulo 37380" width="0.751" height="6.167" transform="translate(0 0)" fill="#ffa412"/>
              <rect id="Rectángulo_37381" data-name="Rectángulo 37381" width="0.751" height="6.167" transform="translate(38.616 0)" fill="#ffa412"/>
              <rect id="Rectángulo_37382" data-name="Rectángulo 37382" width="0.751" height="6.167" transform="translate(40.214 0)" fill="#ffa412"/>
              <rect id="Rectángulo_37383" data-name="Rectángulo 37383" width="0.751" height="6.167" transform="translate(41.757 0)" fill="#ffa412"/>
              <path id="Trazado_137659" data-name="Trazado 137659" d="M2556.366,1523.4v6.124a1.847,1.847,0,0,1-.282.021h-.469v-6.167h.469A1.847,1.847,0,0,1,2556.366,1523.4Z" transform="translate(-2512.697 -1523.378)" fill="#ffa412"/>
              <path id="Trazado_137660" data-name="Trazado 137660" d="M2562.346,1524.4v4.982a1.594,1.594,0,0,1-.75.5V1523.9A1.593,1.593,0,0,1,2562.346,1524.4Z" transform="translate(-2517.634 -1523.806)" fill="#ffa412"/>
            </g>
          </g>
          <g id="Grupo_106136" data-name="Grupo 106136" transform="translate(4.996 42.803)">
            <path id="Trazado_137661" data-name="Trazado 137661" d="M2248.927,1489.381v3.483a1.186,1.186,0,0,1-.274.749,1.59,1.59,0,0,1-.75.5,1.719,1.719,0,0,1-.292.069,1.859,1.859,0,0,1-.282.022h-66.061a1.509,1.509,0,0,1-1.6-1.273c0-.023,0-.046,0-.069v-3.483c0-.023,0-.046,0-.069a1.472,1.472,0,0,1,1.407-1.264,1.788,1.788,0,0,1,.189-.01h66.061a1.875,1.875,0,0,1,.282.021,1.742,1.742,0,0,1,.292.069,1.592,1.592,0,0,1,.75.5A1.187,1.187,0,0,1,2248.927,1489.381Z" transform="translate(-2179.67 -1488.039)" fill="#ffb93e"/>
            <path id="Trazado_137662" data-name="Trazado 137662" d="M2216.488,1494.206H2181.1a1.4,1.4,0,0,1-1.425-1.273c0-.023,0-.046,0-.069v-3.483c0-.023,0-.046,0-.069a1.385,1.385,0,0,1,1.256-1.264,1.414,1.414,0,0,1,.169-.01h31.045l0,.01A10.813,10.813,0,0,0,2216.488,1494.206Z" transform="translate(-2179.67 -1488.039)" fill="#ffa412"/>
            <g id="Grupo_106135" data-name="Grupo 106135" transform="translate(24.272)">
              <rect id="Rectángulo_37384" data-name="Rectángulo 37384" width="0.751" height="6.167" transform="translate(36.197 0)" fill="#ffa412"/>
              <rect id="Rectángulo_37385" data-name="Rectángulo 37385" width="0.751" height="6.167" transform="translate(33.655 0)" fill="#ffa412"/>
              <rect id="Rectángulo_37386" data-name="Rectángulo 37386" width="0.751" height="6.167" transform="translate(30.607 0)" fill="#ffa412"/>
              <rect id="Rectángulo_37387" data-name="Rectángulo 37387" width="0.751" height="6.167" transform="translate(25.936 0)" fill="#ffa412"/>
              <rect id="Rectángulo_37388" data-name="Rectángulo 37388" width="0.751" height="6.167" transform="translate(20.996 0)" fill="#ffa412"/>
              <rect id="Rectángulo_37389" data-name="Rectángulo 37389" width="0.751" height="6.167" transform="translate(13.423 0)" fill="#ffa412"/>
              <rect id="Rectángulo_37390" data-name="Rectángulo 37390" width="0.751" height="6.167" transform="translate(6.332 0)" fill="#ffa412"/>
              <rect id="Rectángulo_37391" data-name="Rectángulo 37391" width="0.751" height="6.167" transform="translate(0 0)" fill="#ffa412"/>
              <rect id="Rectángulo_37392" data-name="Rectángulo 37392" width="0.751" height="6.167" transform="translate(38.616 0)" fill="#ffa412"/>
              <rect id="Rectángulo_37393" data-name="Rectángulo 37393" width="0.751" height="6.167" transform="translate(40.214 0)" fill="#ffa412"/>
              <rect id="Rectángulo_37394" data-name="Rectángulo 37394" width="0.751" height="6.167" transform="translate(41.757 0)" fill="#ffa412"/>
              <path id="Trazado_137663" data-name="Trazado 137663" d="M2565.434,1488.059v6.124a1.876,1.876,0,0,1-.282.021h-.469v-6.167h.469A1.845,1.845,0,0,1,2565.434,1488.059Z" transform="translate(-2521.765 -1488.037)" fill="#ffa412"/>
              <path id="Trazado_137664" data-name="Trazado 137664" d="M2571.412,1489.059v4.981a1.592,1.592,0,0,1-.75.5v-5.986A1.592,1.592,0,0,1,2571.412,1489.059Z" transform="translate(-2526.7 -1488.466)" fill="#ffa412"/>
            </g>
          </g>
          <g id="Grupo_106138" data-name="Grupo 106138" transform="translate(0.139 36.645)">
            <path id="Trazado_137665" data-name="Trazado 137665" d="M2221.1,1454.1v3.483a1.185,1.185,0,0,1-.274.749,1.593,1.593,0,0,1-.75.5,1.745,1.745,0,0,1-.293.069c-.031,0-.062.009-.093.012l-.052,0-.052,0-.085,0h-66.061a1.509,1.509,0,0,1-1.6-1.273c0-.023,0-.046,0-.069V1454.1c0-.023,0-.046,0-.069s0-.038,0-.056a1.448,1.448,0,0,1,1.2-1.175l.049-.009a1.85,1.85,0,0,1,.345-.032H2219.5c.049,0,.1,0,.143.005l.063.006h0l.074.011a1.757,1.757,0,0,1,.293.069,1.594,1.594,0,0,1,.75.5A1.185,1.185,0,0,1,2221.1,1454.1Z" transform="translate(-2151.839 -1452.755)" fill="#ffb93e"/>
            <path id="Trazado_137666" data-name="Trazado 137666" d="M2188.657,1458.922h-35.391a1.4,1.4,0,0,1-1.425-1.273c0-.023,0-.046,0-.069V1454.1c0-.023,0-.046,0-.069s0-.038,0-.056a1.379,1.379,0,0,1,1.107-1.184.605.605,0,0,1,.061-.012,1.488,1.488,0,0,1,.253-.022h31.045c0,.015.008.029.012.044a10.807,10.807,0,0,0,4.32,6.114Z" transform="translate(-2151.839 -1452.755)" fill="#ffa412"/>
            <g id="Grupo_106137" data-name="Grupo 106137" transform="translate(24.272)">
              <rect id="Rectángulo_37395" data-name="Rectángulo 37395" width="0.751" height="6.167" transform="translate(36.196 0)" fill="#ffa412"/>
              <rect id="Rectángulo_37396" data-name="Rectángulo 37396" width="0.751" height="6.167" transform="translate(33.655 0)" fill="#ffa412"/>
              <rect id="Rectángulo_37397" data-name="Rectángulo 37397" width="0.751" height="6.167" transform="translate(30.607 0)" fill="#ffa412"/>
              <rect id="Rectángulo_37398" data-name="Rectángulo 37398" width="0.751" height="6.167" transform="translate(25.936 0)" fill="#ffa412"/>
              <rect id="Rectángulo_37399" data-name="Rectángulo 37399" width="0.751" height="6.167" transform="translate(20.996 0)" fill="#ffa412"/>
              <rect id="Rectángulo_37400" data-name="Rectángulo 37400" width="0.751" height="6.167" transform="translate(13.423 0)" fill="#ffa412"/>
              <rect id="Rectángulo_37401" data-name="Rectángulo 37401" width="0.751" height="6.167" transform="translate(6.332 0)" fill="#ffa412"/>
              <rect id="Rectángulo_37402" data-name="Rectángulo 37402" width="0.751" height="6.167" transform="translate(0 0)" fill="#ffa412"/>
              <rect id="Rectángulo_37403" data-name="Rectángulo 37403" width="0.751" height="6.167" transform="translate(38.616 0)" fill="#ffa412"/>
              <rect id="Rectángulo_37404" data-name="Rectángulo 37404" width="0.751" height="6.167" transform="translate(40.214 0)" fill="#ffa412"/>
              <rect id="Rectángulo_37405" data-name="Rectángulo 37405" width="0.751" height="6.167" transform="translate(41.757 0)" fill="#ffa412"/>
              <path id="Trazado_137667" data-name="Trazado 137667" d="M2537.6,1452.776v6.124a1.863,1.863,0,0,1-.282.021h-.469v-6.167h.469A1.847,1.847,0,0,1,2537.6,1452.776Z" transform="translate(-2493.935 -1452.754)" fill="#ffa412"/>
              <path id="Trazado_137668" data-name="Trazado 137668" d="M2543.582,1453.774v4.982a1.592,1.592,0,0,1-.75.5v-5.986A1.594,1.594,0,0,1,2543.582,1453.774Z" transform="translate(-2498.87 -1453.182)" fill="#ffa412"/>
            </g>
          </g>
          <g id="Grupo_106140" data-name="Grupo 106140" transform="translate(0 30.522)">
            <path id="Trazado_137669" data-name="Trazado 137669" d="M2220.3,1419.009v3.483a1.186,1.186,0,0,1-.274.749,1.593,1.593,0,0,1-.75.5,1.649,1.649,0,0,1-.228.058h0l-.063.011a1.846,1.846,0,0,1-.282.021h-66.061a1.8,1.8,0,0,1-.207-.012c-.027,0-.053-.006-.079-.01a1.453,1.453,0,0,1-1.311-1.251c0-.023,0-.046,0-.069v-3.483c0-.023,0-.046,0-.069a1.509,1.509,0,0,1,1.6-1.273H2218.7c.042,0,.084,0,.126,0l.054,0,.059.007.043.006a1.736,1.736,0,0,1,.292.069l.041.014.041.015.08.032c.029.013.059.027.087.042l.075.04c.028.016.056.033.082.051s.042.027.062.042l0,0,.041.03a1.345,1.345,0,0,1,.116.1l.032.031.031.033c.02.022.041.045.059.068A1.186,1.186,0,0,1,2220.3,1419.009Z" transform="translate(-2151.043 -1417.667)" fill="#ffb93e"/>
            <path id="Trazado_137670" data-name="Trazado 137670" d="M2187.861,1423.834H2152.47l-.084,0c-.031,0-.061,0-.091-.008a1.383,1.383,0,0,1-1.25-1.263c0-.023,0-.046,0-.069v-3.483c0-.023,0-.046,0-.069a1.4,1.4,0,0,1,1.425-1.273h31.044c.014.051.028.1.043.152a10.8,10.8,0,0,0,4.24,5.971Z" transform="translate(-2151.043 -1417.667)" fill="#ffa412"/>
            <g id="Grupo_106139" data-name="Grupo 106139" transform="translate(24.272)">
              <rect id="Rectángulo_37406" data-name="Rectángulo 37406" width="0.751" height="6.167" transform="translate(36.196 0)" fill="#ffa412"/>
              <rect id="Rectángulo_37407" data-name="Rectángulo 37407" width="0.751" height="6.167" transform="translate(33.655 0)" fill="#ffa412"/>
              <rect id="Rectángulo_37408" data-name="Rectángulo 37408" width="0.751" height="6.167" transform="translate(30.607 0)" fill="#ffa412"/>
              <rect id="Rectángulo_37409" data-name="Rectángulo 37409" width="0.751" height="6.167" transform="translate(25.936 0)" fill="#ffa412"/>
              <rect id="Rectángulo_37410" data-name="Rectángulo 37410" width="0.751" height="6.167" transform="translate(20.996 0)" fill="#ffa412"/>
              <rect id="Rectángulo_37411" data-name="Rectángulo 37411" width="0.751" height="6.167" transform="translate(13.423 0)" fill="#ffa412"/>
              <rect id="Rectángulo_37412" data-name="Rectángulo 37412" width="0.751" height="6.167" transform="translate(6.332 0)" fill="#ffa412"/>
              <rect id="Rectángulo_37413" data-name="Rectángulo 37413" width="0.751" height="6.167" transform="translate(0 0)" fill="#ffa412"/>
              <rect id="Rectángulo_37414" data-name="Rectángulo 37414" width="0.751" height="6.167" transform="translate(38.616 0)" fill="#ffa412"/>
              <rect id="Rectángulo_37415" data-name="Rectángulo 37415" width="0.751" height="6.167" transform="translate(40.214 0)" fill="#ffa412"/>
              <rect id="Rectángulo_37416" data-name="Rectángulo 37416" width="0.751" height="6.167" transform="translate(41.757 0)" fill="#ffa412"/>
              <path id="Trazado_137671" data-name="Trazado 137671" d="M2536.808,1417.688v6.124a1.839,1.839,0,0,1-.282.021h-.469v-6.167h.469A1.87,1.87,0,0,1,2536.808,1417.688Z" transform="translate(-2493.139 -1417.667)" fill="#ffa412"/>
              <path id="Trazado_137672" data-name="Trazado 137672" d="M2542.786,1418.688v4.981a1.59,1.59,0,0,1-.75.5v-5.986A1.593,1.593,0,0,1,2542.786,1418.688Z" transform="translate(-2498.074 -1418.095)" fill="#ffa412"/>
            </g>
          </g>
          <g id="Grupo_106142" data-name="Grupo 106142" transform="translate(3.413 24.507)">
            <path id="Trazado_137673" data-name="Trazado 137673" d="M2239.86,1384.541v3.483a1.187,1.187,0,0,1-.274.749,1.59,1.59,0,0,1-.75.5,1.722,1.722,0,0,1-.292.069,1.849,1.849,0,0,1-.282.021H2172.2a1.829,1.829,0,0,1-.737-.152,1.369,1.369,0,0,1-.854-1.061c0-.02,0-.04-.006-.06s0-.046,0-.069v-3.483c0-.023,0-.046,0-.069a1.509,1.509,0,0,1,1.6-1.273h66.061a1.849,1.849,0,0,1,.282.021,1.711,1.711,0,0,1,.292.069,1.59,1.59,0,0,1,.75.5A1.186,1.186,0,0,1,2239.86,1384.541Z" transform="translate(-2170.602 -1383.199)" fill="#ffb93e"/>
            <path id="Trazado_137674" data-name="Trazado 137674" d="M2207.42,1389.366h-35.391a1.483,1.483,0,0,1-.657-.152,1.347,1.347,0,0,1-.762-1.061c0-.02,0-.04-.006-.06s0-.046,0-.069v-3.483c0-.023,0-.046,0-.069a1.4,1.4,0,0,1,1.425-1.273h31.045a10.824,10.824,0,0,0,4.129,6.015C2207.274,1389.265,2207.347,1389.316,2207.42,1389.366Z" transform="translate(-2170.602 -1383.199)" fill="#ffa412"/>
            <g id="Grupo_106141" data-name="Grupo 106141" transform="translate(24.272)">
              <rect id="Rectángulo_37417" data-name="Rectángulo 37417" width="0.751" height="6.167" transform="translate(36.196 0)" fill="#ffa412"/>
              <rect id="Rectángulo_37418" data-name="Rectángulo 37418" width="0.751" height="6.167" transform="translate(33.655 0)" fill="#ffa412"/>
              <rect id="Rectángulo_37419" data-name="Rectángulo 37419" width="0.751" height="6.167" transform="translate(30.607 0)" fill="#ffa412"/>
              <rect id="Rectángulo_37420" data-name="Rectángulo 37420" width="0.751" height="6.167" transform="translate(25.936 0)" fill="#ffa412"/>
              <rect id="Rectángulo_37421" data-name="Rectángulo 37421" width="0.751" height="6.167" transform="translate(20.996 0)" fill="#ffa412"/>
              <rect id="Rectángulo_37422" data-name="Rectángulo 37422" width="0.751" height="6.167" transform="translate(13.422 0)" fill="#ffa412"/>
              <rect id="Rectángulo_37423" data-name="Rectángulo 37423" width="0.751" height="6.167" transform="translate(6.332 0)" fill="#ffa412"/>
              <rect id="Rectángulo_37424" data-name="Rectángulo 37424" width="0.751" height="6.167" transform="translate(0 0)" fill="#ffa412"/>
              <rect id="Rectángulo_37425" data-name="Rectángulo 37425" width="0.751" height="6.167" transform="translate(38.616 0)" fill="#ffa412"/>
              <rect id="Rectángulo_37426" data-name="Rectángulo 37426" width="0.751" height="6.167" transform="translate(40.214 0)" fill="#ffa412"/>
              <rect id="Rectángulo_37427" data-name="Rectángulo 37427" width="0.751" height="6.167" transform="translate(41.757 0)" fill="#ffa412"/>
              <path id="Trazado_137675" data-name="Trazado 137675" d="M2556.366,1383.221v6.124a1.863,1.863,0,0,1-.282.021h-.469V1383.2h.469A1.847,1.847,0,0,1,2556.366,1383.221Z" transform="translate(-2512.697 -1383.199)" fill="#ffa412"/>
              <path id="Trazado_137676" data-name="Trazado 137676" d="M2562.346,1384.221v4.981a1.594,1.594,0,0,1-.75.5v-5.986A1.592,1.592,0,0,1,2562.346,1384.221Z" transform="translate(-2517.634 -1383.628)" fill="#ffa412"/>
            </g>
          </g>
          <g id="Grupo_106144" data-name="Grupo 106144" transform="translate(8.812 18.34)">
            <path id="Trazado_137677" data-name="Trazado 137677" d="M2270.793,1349.2v3.483a1.187,1.187,0,0,1-.274.749,1.594,1.594,0,0,1-.75.5,1.763,1.763,0,0,1-.292.069,1.884,1.884,0,0,1-.282.021h-66.061a1.509,1.509,0,0,1-1.6-1.273c0-.023,0-.046,0-.069V1349.2c0-.023,0-.046,0-.069a1.474,1.474,0,0,1,1.407-1.263,1.763,1.763,0,0,1,.189-.01H2269.2a1.852,1.852,0,0,1,.282.022,1.727,1.727,0,0,1,.292.069,1.593,1.593,0,0,1,.75.5A1.186,1.186,0,0,1,2270.793,1349.2Z" transform="translate(-2201.536 -1347.859)" fill="#ffb93e"/>
            <path id="Trazado_137678" data-name="Trazado 137678" d="M2238.354,1354.026h-35.391a1.4,1.4,0,0,1-1.425-1.273c0-.023,0-.046,0-.069V1349.2c0-.023,0-.046,0-.069a1.432,1.432,0,0,1,1.425-1.273h31.045l0,.01A10.811,10.811,0,0,0,2238.354,1354.026Z" transform="translate(-2201.536 -1347.859)" fill="#ffa412"/>
            <g id="Grupo_106143" data-name="Grupo 106143" transform="translate(24.272)">
              <rect id="Rectángulo_37428" data-name="Rectángulo 37428" width="0.751" height="6.167" transform="translate(36.196 0)" fill="#ffa412"/>
              <rect id="Rectángulo_37429" data-name="Rectángulo 37429" width="0.751" height="6.167" transform="translate(33.655 0)" fill="#ffa412"/>
              <rect id="Rectángulo_37430" data-name="Rectángulo 37430" width="0.751" height="6.167" transform="translate(30.607 0)" fill="#ffa412"/>
              <rect id="Rectángulo_37431" data-name="Rectángulo 37431" width="0.751" height="6.167" transform="translate(25.936 0)" fill="#ffa412"/>
              <rect id="Rectángulo_37432" data-name="Rectángulo 37432" width="0.751" height="6.167" transform="translate(20.996 0)" fill="#ffa412"/>
              <rect id="Rectángulo_37433" data-name="Rectángulo 37433" width="0.751" height="6.167" transform="translate(13.422 0)" fill="#ffa412"/>
              <rect id="Rectángulo_37434" data-name="Rectángulo 37434" width="0.751" height="6.167" transform="translate(6.332 0)" fill="#ffa412"/>
              <rect id="Rectángulo_37435" data-name="Rectángulo 37435" width="0.751" height="6.167" transform="translate(0 0)" fill="#ffa412"/>
              <rect id="Rectángulo_37436" data-name="Rectángulo 37436" width="0.751" height="6.167" transform="translate(38.616 0)" fill="#ffa412"/>
              <rect id="Rectángulo_37437" data-name="Rectángulo 37437" width="0.751" height="6.167" transform="translate(40.214 0)" fill="#ffa412"/>
              <rect id="Rectángulo_37438" data-name="Rectángulo 37438" width="0.751" height="6.167" transform="translate(41.757 0)" fill="#ffa412"/>
              <path id="Trazado_137679" data-name="Trazado 137679" d="M2587.3,1347.88V1354a1.844,1.844,0,0,1-.282.022h-.469v-6.167h.469A1.859,1.859,0,0,1,2587.3,1347.88Z" transform="translate(-2543.633 -1347.859)" fill="#ffa412"/>
              <path id="Trazado_137680" data-name="Trazado 137680" d="M2593.281,1348.88v4.982a1.594,1.594,0,0,1-.75.5v-5.986A1.591,1.591,0,0,1,2593.281,1348.88Z" transform="translate(-2548.569 -1348.287)" fill="#ffa412"/>
            </g>
          </g>
          <g id="Grupo_106146" data-name="Grupo 106146" transform="translate(0.139 12.182)">
            <path id="Trazado_137681" data-name="Trazado 137681" d="M2221.1,1313.918v3.483a1.185,1.185,0,0,1-.274.749,1.594,1.594,0,0,1-.75.5,1.733,1.733,0,0,1-.293.069c-.031,0-.062.009-.093.012s-.05,0-.074.006l-.037,0-.078,0h-66.061a1.509,1.509,0,0,1-1.6-1.273c0-.023,0-.046,0-.069v-3.483c0-.023,0-.046,0-.069a1.509,1.509,0,0,1,1.6-1.273H2219.5l.085,0a1.87,1.87,0,0,1,.2.019,1.733,1.733,0,0,1,.293.069c.047.016.094.032.139.052.028.012.056.024.082.037l.009,0,.081.042.013.008a.82.82,0,0,1,.071.044,1.352,1.352,0,0,1,.159.116.57.57,0,0,1,.045.039l.008.008a.313.313,0,0,1,.027.025l.005.005c.016.016.032.032.047.049s.043.047.063.073A1.185,1.185,0,0,1,2221.1,1313.918Z" transform="translate(-2151.839 -1312.576)" fill="#ffb93e"/>
            <path id="Trazado_137682" data-name="Trazado 137682" d="M2188.657,1318.743h-35.391a1.4,1.4,0,0,1-1.425-1.273c0-.023,0-.046,0-.069v-3.483c0-.023,0-.046,0-.069a1.4,1.4,0,0,1,1.425-1.273h31.045c.012.047.026.094.041.142a10.791,10.791,0,0,0,4.291,6.015Z" transform="translate(-2151.839 -1312.576)" fill="#ffa412"/>
            <g id="Grupo_106145" data-name="Grupo 106145" transform="translate(24.272)">
              <rect id="Rectángulo_37439" data-name="Rectángulo 37439" width="0.751" height="6.167" transform="translate(36.196 0)" fill="#ffa412"/>
              <rect id="Rectángulo_37440" data-name="Rectángulo 37440" width="0.751" height="6.167" transform="translate(33.655 0)" fill="#ffa412"/>
              <rect id="Rectángulo_37441" data-name="Rectángulo 37441" width="0.751" height="6.167" transform="translate(30.607 0)" fill="#ffa412"/>
              <rect id="Rectángulo_37442" data-name="Rectángulo 37442" width="0.751" height="6.167" transform="translate(25.936 0)" fill="#ffa412"/>
              <rect id="Rectángulo_37443" data-name="Rectángulo 37443" width="0.751" height="6.167" transform="translate(20.996 0)" fill="#ffa412"/>
              <rect id="Rectángulo_37444" data-name="Rectángulo 37444" width="0.751" height="6.167" transform="translate(13.423 0)" fill="#ffa412"/>
              <rect id="Rectángulo_37445" data-name="Rectángulo 37445" width="0.751" height="6.167" transform="translate(6.332 0)" fill="#ffa412"/>
              <rect id="Rectángulo_37446" data-name="Rectángulo 37446" width="0.751" height="6.167" transform="translate(0 0)" fill="#ffa412"/>
              <rect id="Rectángulo_37447" data-name="Rectángulo 37447" width="0.751" height="6.167" transform="translate(38.616 0)" fill="#ffa412"/>
              <rect id="Rectángulo_37448" data-name="Rectángulo 37448" width="0.751" height="6.167" transform="translate(40.214 0)" fill="#ffa412"/>
              <rect id="Rectángulo_37449" data-name="Rectángulo 37449" width="0.751" height="6.167" transform="translate(41.757 0)" fill="#ffa412"/>
              <path id="Trazado_137683" data-name="Trazado 137683" d="M2537.6,1312.6v6.124a1.879,1.879,0,0,1-.282.021h-.469v-6.167h.469A1.863,1.863,0,0,1,2537.6,1312.6Z" transform="translate(-2493.935 -1312.576)" fill="#ffa412"/>
              <path id="Trazado_137684" data-name="Trazado 137684" d="M2543.582,1313.6v4.981a1.6,1.6,0,0,1-.75.5v-5.986A1.592,1.592,0,0,1,2543.582,1313.6Z" transform="translate(-2498.87 -1313.004)" fill="#ffa412"/>
            </g>
          </g>
          <g id="Grupo_106148" data-name="Grupo 106148" transform="translate(4.996 6.158)">
            <path id="Trazado_137685" data-name="Trazado 137685" d="M2248.927,1279.4v3.483a1.186,1.186,0,0,1-.274.749,1.59,1.59,0,0,1-.75.5,1.707,1.707,0,0,1-.292.069,1.844,1.844,0,0,1-.282.022h-66.061a1.828,1.828,0,0,1-.714-.142,1.374,1.374,0,0,1-.878-1.076c0-.018,0-.036,0-.055s0-.046,0-.069V1279.4c0-.023,0-.046,0-.069a1.473,1.473,0,0,1,1.407-1.264,1.725,1.725,0,0,1,.189-.01h66.061a1.859,1.859,0,0,1,.282.021,1.719,1.719,0,0,1,.292.069,1.591,1.591,0,0,1,.75.5A1.187,1.187,0,0,1,2248.927,1279.4Z" transform="translate(-2179.67 -1278.053)" fill="#ffb93e"/>
            <path id="Trazado_137686" data-name="Trazado 137686" d="M2216.488,1284.22H2181.1a1.481,1.481,0,0,1-.637-.142,1.35,1.35,0,0,1-.784-1.076c0-.018,0-.036,0-.055s0-.046,0-.069V1279.4c0-.023,0-.046,0-.069a1.385,1.385,0,0,1,1.256-1.264,1.365,1.365,0,0,1,.169-.01h31.045l0,.01a10.82,10.82,0,0,0,4.14,6.015C2216.351,1284.126,2216.419,1284.173,2216.488,1284.22Z" transform="translate(-2179.67 -1278.053)" fill="#ffa412"/>
            <g id="Grupo_106147" data-name="Grupo 106147" transform="translate(24.272)">
              <rect id="Rectángulo_37450" data-name="Rectángulo 37450" width="0.751" height="6.167" transform="translate(36.197 0)" fill="#ffa412"/>
              <rect id="Rectángulo_37451" data-name="Rectángulo 37451" width="0.751" height="6.167" transform="translate(33.655 0)" fill="#ffa412"/>
              <rect id="Rectángulo_37452" data-name="Rectángulo 37452" width="0.751" height="6.167" transform="translate(30.607 0)" fill="#ffa412"/>
              <rect id="Rectángulo_37453" data-name="Rectángulo 37453" width="0.751" height="6.167" transform="translate(25.936 0)" fill="#ffa412"/>
              <rect id="Rectángulo_37454" data-name="Rectángulo 37454" width="0.751" height="6.167" transform="translate(20.996 0)" fill="#ffa412"/>
              <rect id="Rectángulo_37455" data-name="Rectángulo 37455" width="0.751" height="6.167" transform="translate(13.423 0)" fill="#ffa412"/>
              <rect id="Rectángulo_37456" data-name="Rectángulo 37456" width="0.751" height="6.167" transform="translate(6.332 0)" fill="#ffa412"/>
              <rect id="Rectángulo_37457" data-name="Rectángulo 37457" width="0.751" height="6.167" transform="translate(0 0)" fill="#ffa412"/>
              <rect id="Rectángulo_37458" data-name="Rectángulo 37458" width="0.751" height="6.167" transform="translate(38.616 0)" fill="#ffa412"/>
              <rect id="Rectángulo_37459" data-name="Rectángulo 37459" width="0.751" height="6.167" transform="translate(40.214 0)" fill="#ffa412"/>
              <rect id="Rectángulo_37460" data-name="Rectángulo 37460" width="0.751" height="6.167" transform="translate(41.757 0)" fill="#ffa412"/>
              <path id="Trazado_137687" data-name="Trazado 137687" d="M2565.434,1278.073v6.124a1.845,1.845,0,0,1-.282.021h-.469v-6.167h.469A1.86,1.86,0,0,1,2565.434,1278.073Z" transform="translate(-2521.765 -1278.052)" fill="#ffa412"/>
              <path id="Trazado_137688" data-name="Trazado 137688" d="M2571.412,1279.072v4.981a1.593,1.593,0,0,1-.75.5v-5.986A1.593,1.593,0,0,1,2571.412,1279.072Z" transform="translate(-2526.7 -1278.48)" fill="#ffa412"/>
            </g>
          </g>
          <g id="Grupo_106150" data-name="Grupo 106150" transform="translate(7.063)">
            <path id="Trazado_137689" data-name="Trazado 137689" d="M2260.774,1244.111v3.483a1.186,1.186,0,0,1-.274.749,1.592,1.592,0,0,1-.75.5,1.721,1.721,0,0,1-.292.069l-.093.012-.052,0-.052,0-.085,0h-66.061a1.509,1.509,0,0,1-1.6-1.273c0-.023,0-.046,0-.069v-3.483c0-.023,0-.046,0-.069a1.509,1.509,0,0,1,1.6-1.273h66.061a1.816,1.816,0,0,1,.282.022,1.7,1.7,0,0,1,.292.069,1.592,1.592,0,0,1,.75.5A1.186,1.186,0,0,1,2260.774,1244.111Z" transform="translate(-2191.517 -1242.769)" fill="#ffb93e"/>
            <path id="Trazado_137690" data-name="Trazado 137690" d="M2228.335,1248.936h-35.391a1.4,1.4,0,0,1-1.425-1.273c0-.023,0-.046,0-.069v-3.483c0-.023,0-.046,0-.069a1.4,1.4,0,0,1,1.425-1.273h31.045a10.811,10.811,0,0,0,4.332,6.158Z" transform="translate(-2191.517 -1242.769)" fill="#ffa412"/>
            <g id="Grupo_106149" data-name="Grupo 106149" transform="translate(24.272)">
              <rect id="Rectángulo_37461" data-name="Rectángulo 37461" width="0.751" height="6.167" transform="translate(36.197 0)" fill="#ffa412"/>
              <rect id="Rectángulo_37462" data-name="Rectángulo 37462" width="0.751" height="6.167" transform="translate(33.655 0)" fill="#ffa412"/>
              <rect id="Rectángulo_37463" data-name="Rectángulo 37463" width="0.751" height="6.167" transform="translate(30.607 0)" fill="#ffa412"/>
              <rect id="Rectángulo_37464" data-name="Rectángulo 37464" width="0.751" height="6.167" transform="translate(25.936 0)" fill="#ffa412"/>
              <rect id="Rectángulo_37465" data-name="Rectángulo 37465" width="0.751" height="6.167" transform="translate(20.996 0)" fill="#ffa412"/>
              <rect id="Rectángulo_37466" data-name="Rectángulo 37466" width="0.751" height="6.167" transform="translate(13.423 0)" fill="#ffa412"/>
              <rect id="Rectángulo_37467" data-name="Rectángulo 37467" width="0.751" height="6.167" transform="translate(6.332 0)" fill="#ffa412"/>
              <rect id="Rectángulo_37468" data-name="Rectángulo 37468" width="0.751" height="6.167" transform="translate(0 0)" fill="#ffa412"/>
              <rect id="Rectángulo_37469" data-name="Rectángulo 37469" width="0.751" height="6.167" transform="translate(38.616 0)" fill="#ffa412"/>
              <rect id="Rectángulo_37470" data-name="Rectángulo 37470" width="0.751" height="6.167" transform="translate(40.214 0)" fill="#ffa412"/>
              <rect id="Rectángulo_37471" data-name="Rectángulo 37471" width="0.751" height="6.167" transform="translate(41.757 0)" fill="#ffa412"/>
              <path id="Trazado_137691" data-name="Trazado 137691" d="M2577.281,1242.79v6.124a1.847,1.847,0,0,1-.282.021h-.469v-6.167H2577A1.832,1.832,0,0,1,2577.281,1242.79Z" transform="translate(-2533.612 -1242.768)" fill="#ffa412"/>
              <path id="Trazado_137692" data-name="Trazado 137692" d="M2583.26,1243.789v4.982a1.593,1.593,0,0,1-.75.5v-5.986A1.592,1.592,0,0,1,2583.26,1243.789Z" transform="translate(-2538.548 -1243.196)" fill="#ffa412"/>
            </g>
          </g>
        </g>
        <g id="Grupo_106154" data-name="Grupo 106154" transform="translate(0 69.181)">
          <circle id="Elipse_5303" data-name="Elipse 5303" cx="31.396" cy="31.396" r="31.396" transform="matrix(1, -0.018, 0.018, 1, 15.188, 13.57)" fill="#e2810e"/>
          <circle id="Elipse_5304" data-name="Elipse 5304" cx="31.396" cy="31.396" r="31.396" transform="translate(0 44.401) rotate(-45)" fill="#ffb93e"/>
          <g id="Grupo_106152" data-name="Grupo 106152" transform="translate(15.796 16.167)">
            <path id="Trazado_137693" data-name="Trazado 137693" d="M2018.562,1344.129a28.6,28.6,0,1,1,20.227-8.378A28.418,28.418,0,0,1,2018.562,1344.129Zm0-55.5a26.9,26.9,0,1,0,26.9,26.9A26.93,26.93,0,0,0,2018.562,1288.624Z" transform="translate(-1989.957 -1286.918)" fill="#ffa412"/>
          </g>
          <g id="Grupo_106153" data-name="Grupo 106153" transform="translate(31.873 23.646)">
            <path id="Trazado_137694" data-name="Trazado 137694" d="M2098.548,1359.207a4.725,4.725,0,0,0-.068-1.661,3.447,3.447,0,0,0-.7-1.379,6.511,6.511,0,0,0-1.4-1.239,17.2,17.2,0,0,0-2.176-1.219,44.98,44.98,0,0,1-4.019-2.208,14.231,14.231,0,0,1-3.005-2.446,8.376,8.376,0,0,1-1.775-2.981,9.453,9.453,0,0,1,.764-7.149,7.953,7.953,0,0,1,2.216-2.463,9.926,9.926,0,0,1,3.174-1.511,13.229,13.229,0,0,1,3.963-.457l.56-4.715,3.795.45-.567,4.781a11.874,11.874,0,0,1,3.572,1.519,8.974,8.974,0,0,1,4,5.736,11.95,11.95,0,0,1,.156,4.052l-6.854-.813a5.816,5.816,0,0,0-.7-4.094,4.042,4.042,0,0,0-2.987-1.684,5.139,5.139,0,0,0-1.874.08,3.478,3.478,0,0,0-1.366.664,3.247,3.247,0,0,0-.881,1.136,4.779,4.779,0,0,0-.417,1.492,4.373,4.373,0,0,0,.062,1.5,3.232,3.232,0,0,0,.674,1.32,6.518,6.518,0,0,0,1.416,1.24,22.049,22.049,0,0,0,2.262,1.308q2.2,1.132,3.977,2.259a14.387,14.387,0,0,1,2.99,2.466,8.088,8.088,0,0,1,2.082,6.782,8.641,8.641,0,0,1-1.089,3.4,7.851,7.851,0,0,1-2.226,2.439,9.583,9.583,0,0,1-3.191,1.454,14.293,14.293,0,0,1-3.982.421l-.52,4.384-3.771-.448.518-4.362a16.018,16.018,0,0,1-3.7-1.311,10.161,10.161,0,0,1-3.035-2.293,9.1,9.1,0,0,1-1.9-3.41,11.066,11.066,0,0,1-.315-4.64l6.854.813a6.82,6.82,0,0,0,.129,2.663,4.409,4.409,0,0,0,.975,1.814,4.283,4.283,0,0,0,1.568,1.08,7.328,7.328,0,0,0,1.879.48,6.121,6.121,0,0,0,1.99-.054,4.079,4.079,0,0,0,1.505-.626,3.246,3.246,0,0,0,1-1.1A3.965,3.965,0,0,0,2098.548,1359.207Z" transform="translate(-2082.082 -1329.779)" fill="#ffa412"/>
          </g>
        </g>
        <g id="Grupo_106155" data-name="Grupo 106155" transform="translate(60.243 37.051)">
          <path id="Trazado_137695" data-name="Trazado 137695" d="M2421.674,1016.6s-3.373,4.749-6.465,4.815-7.8-2.2-7.8-2.2-2.839-6.328-.914-8.8a4.136,4.136,0,0,1,3.951.649,6.06,6.06,0,0,1,1.045,1,3.318,3.318,0,0,0,1.623,1.1c2.207.671,4.826-.908,5.805.616a10.353,10.353,0,0,0,1.706,2.019A7.788,7.788,0,0,0,2421.674,1016.6Z" transform="translate(-2377.7 -1010.168)" fill="#f9ddbf"/>
          <path id="Trazado_137696" data-name="Trazado 137696" d="M2244.647,1104.037s11.922-28.888,33.382-29.438c0,0,19.809,2.2,20.909,29.438Z" transform="translate(-2244.647 -1063.355)" fill="#f9ddbf"/>
          <path id="Trazado_137697" data-name="Trazado 137697" d="M2402.045,1061.968s8.6,1.913,11.256.789c0,0,.4-3.6-3.221-3.092a7.6,7.6,0,0,1-5.044-1.33C2403.691,1057.65,2401.688,1060.463,2402.045,1061.968Z" transform="translate(-2374.542 -1049.842)" fill="#db6a1d"/>
          <path id="Trazado_137698" data-name="Trazado 137698" d="M2434.544,1021.074c-.55.413-2.24-5.816-2.24-5.816a6.06,6.06,0,0,1,1.045,1,3.317,3.317,0,0,0,1.623,1.1C2434.979,1017.542,2435.078,1020.672,2434.544,1021.074Z" transform="translate(-2399.556 -1014.37)" fill="#e5c1a1"/>
          <path id="Trazado_137699" data-name="Trazado 137699" d="M2468.417,1032.854c-.121.071-4.1,2.454-4.639,2.454s2.933-4.474,2.933-4.474A10.356,10.356,0,0,0,2468.417,1032.854Z" transform="translate(-2425.488 -1027.228)" fill="#e5c1a1"/>
          <path id="Trazado_137700" data-name="Trazado 137700" d="M2311.366,1136.3c-.22-.188,8.437-12.747,10.822-12.839s7.742,2.751,11.62,3.118,7.638-.734,8.372,1.559,2.751,10.421,1.513,11.722S2316.127,1140.367,2311.366,1136.3Z" transform="translate(-2299.719 -1103.688)" fill="#e5c1a1"/>
        </g>
        <g id="Grupo_106158" data-name="Grupo 106158" transform="translate(89.257 0)">
          <path id="Trazado_137701" data-name="Trazado 137701" d="M2418.828,1057.363c-.72-.508-2.351-1.626-2.436-1.377a1.1,1.1,0,0,0,.222.8,7.055,7.055,0,0,0-4.358-.155,1.777,1.777,0,0,0-1.166.767.784.784,0,0,0,.273,1.222c1.209.752.859.3,2.539,1.4s3.738,1.374,4.968.606l1.65-.275.2-2.713S2419.783,1057.522,2418.828,1057.363Z" transform="translate(-2410.905 -1010.91)" fill="#ffb27d"/>
          <path id="Trazado_137702" data-name="Trazado 137702" d="M2656.578,892.557s-3.889,4.614-8.842,2.684a15.008,15.008,0,0,1-1.081-4.476c0-.234,0-.46-.008-.676-.026-2.139-.1-3.339-.1-3.339h0c.225-.094,7.571-3.11,7.565-2.859C2653.993,889.674,2656.578,892.557,2656.578,892.557Z" transform="translate(-2605.426 -868.864)" fill="#ffb27d"/>
          <path id="Trazado_137703" data-name="Trazado 137703" d="M2653.382,891.608a11.488,11.488,0,0,1-6.734,4.82c-.026-2.139-.1-3.339-.1-3.339h0C2646.757,893.033,2653.592,891.221,2653.382,891.608Z" transform="translate(-2605.426 -875.203)" fill="#ed975d"/>
          <path id="Trazado_137704" data-name="Trazado 137704" d="M2631.654,834.672s8.261,1.942,9.392-3.221,2.958-8.39-2.269-9.848-6.686.287-7.483,1.919S2629.534,834.034,2631.654,834.672Z" transform="translate(-2592.07 -817.008)" fill="#ffb27d"/>
          <path id="Trazado_137705" data-name="Trazado 137705" d="M2627.689,813.709c.113.072,1.89.618,5.257-6.088a5.839,5.839,0,0,0-.343-5.342c-1.232-2.012-5.6-3.594-9.229-4.283s-4.5,1.353-5.354,3.406a11.081,11.081,0,0,1-3.488,3.928c3.129,1.748,6.9-.752,8.2-.341s1.767,2.469,1.865,3.129.249,1.208,1.891.619.742,2.327.479,2.884C2626.97,811.621,2626.747,813.106,2627.689,813.709Z" transform="translate(-2578.995 -797.86)" fill="#a9453d"/>
          <g id="Grupo_106156" data-name="Grupo 106156" transform="translate(35.151 63.425)">
            <path id="Trazado_137706" data-name="Trazado 137706" d="M2811.125,1568.057h5c1.048,0,2.214-1.05,2.506-2.972s2.447-2.972,2.914-4.546-1.924-3.789-1.924-3.789l-.4-.513-.416-.535-3.963.932s-.1.943-.159,2.145a27.469,27.469,0,0,0-.016,2.75c.116,2.1-.588,4.358-2.451,4.766S2811.125,1568.057,2811.125,1568.057Z" transform="translate(-2776.302 -1486.872)" fill="#2c3a64"/>
            <path id="Trazado_137707" data-name="Trazado 137707" d="M2612.327,1592.353h13.26a1.205,1.205,0,0,0,.281-.082c.885-.443.608-3.833.5-4.88-.021-.194-.035-.308-.035-.308s-4.663-3.729-5.3-.874c-.021.089-.044.177-.069.263h0c-.81,2.672-4.428,3.885-6.518,4.223A2.276,2.276,0,0,0,2612.327,1592.353Z" transform="translate(-2612.327 -1511.168)" fill="#2c3a64"/>
            <path id="Trazado_137708" data-name="Trazado 137708" d="M2627.642,1182.557s.708,8.835,1.54,19.454c1.131,14.426,2.491,32.146,2.626,35.5.233,5.829,1.166,15.153,1.166,15.153s2.214,2.215,6.644,1.282a152.509,152.509,0,0,0,5.076-27.394c.017-.231.035-.464.052-.7,1.049-14.337,2.681-44.526,2.681-44.526Z" transform="translate(-2624.969 -1177.836)" fill="#2b478b"/>
            <path id="Trazado_137709" data-name="Trazado 137709" d="M2627.642,1182.557s.708,8.835,1.54,19.454l15.512,24.544c.017-.231.035-.464.052-.7,1.049-14.337,2.681-44.526,2.681-44.526Z" transform="translate(-2624.969 -1177.836)" fill="#233862"/>
            <path id="Trazado_137710" data-name="Trazado 137710" d="M2646.172,1167.066s12.763,32,21.156,47.032,11.015,19.232,11.015,19.232,4.808-1.923,5.245-3.234c0,0-3.209-29.028-8.829-36.1-3.176-4-6.906-16-7.081-20.194s-1.136-12.5-1.136-12.5Z" transform="translate(-2640.266 -1161.296)" fill="#2b478b"/>
          </g>
          <g id="Grupo_106157" data-name="Grupo 106157" transform="translate(47.839 24.205)">
            <path id="Trazado_137711" data-name="Trazado 137711" d="M2812.486,1157.485l.135,2.058a4.434,4.434,0,0,0,2.445,5.531s1.627.657,1.694-.61-.142-.791-.01-2.575-.569-3.471-1.75-4.039l-.969-1.117Z" transform="translate(-2790.161 -1118.309)" fill="#ffb27d"/>
            <path id="Trazado_137712" data-name="Trazado 137712" d="M2708.844,977.233c-1.413.453-1.639.351-1.639.351s-6.876-12.519-7.572-13.665-14.6-14.038-14.6-14.038l3.573-13.323s15.813,20.476,17.52,23.414c2.822,4.855,4.475,16.132,4.475,16.132A4.134,4.134,0,0,1,2708.844,977.233Z" transform="translate(-2685.033 -936.559)" fill="#1e3d70"/>
          </g>
          <path id="Trazado_137713" data-name="Trazado 137713" d="M2612.124,941.02c.05,2.736.208,5.812.423,8.935q.02.278.04.556c.137,1.935.286,3.875.456,5.766q.1,1.137.217,2.244l.012.1c.006.276.039.575.07.847.7,7.085,1.428,12.682,1.563,12.768a.794.794,0,0,0,.544.139c1.858-.233,7.4.188,11.94-.8a34.4,34.4,0,0,0,10.621-4.4c.464-.274,1.521-1,1.435-1.543-.085-.6-.241-1.458-.439-2.542a137.572,137.572,0,0,1-2.282-17.838q-.118-2.12-.343-4.181a63.423,63.423,0,0,0-1.851-9.985c-1.556-5.6-3.843-9.894-6.711-11.572-.375-.21-2.392,1.073-4.244,2.262a8.178,8.178,0,0,1-5.263,1.247l-1.542,1.7a17.216,17.216,0,0,0-4.4,9.166q-.061.455-.1.968A60.144,60.144,0,0,0,2612.124,941.02Z" transform="translate(-2576.995 -898.262)" fill="#2a4e96"/>
          <path id="Trazado_137714" data-name="Trazado 137714" d="M2612.124,998.848c.05,2.736.208,5.812.423,8.935q.02.278.04.556c10.613-6.643,12.247-18.8,12.247-18.8a29.03,29.03,0,0,0-12.565,3.146A60.144,60.144,0,0,0,2612.124,998.848Z" transform="translate(-2576.995 -956.09)" fill="#1e3d70"/>
          <path id="Trazado_137715" data-name="Trazado 137715" d="M2458.5,969.886c-.109-1.574.706-1.836.706-1.836s16-2.9,17.361-3.328,12.992-12.528,12.992-12.528,4.458-5.028,8.109-3.918a6.86,6.86,0,0,1,4.834,5.8,6.944,6.944,0,0,1-3.224,7.128c-5.46,3.349-16.393,9.948-18.968,10.7-5.73,1.68-21.126.135-21.126.135A4.966,4.966,0,0,1,2458.5,969.886Z" transform="translate(-2450.186 -921.895)" fill="#2a4e96"/>
        </g>
      </g>
    </g>
  </g>
</svg>
