<svg xmlns="http://www.w3.org/2000/svg" width="270" height="184.973" viewBox="0 0 270 184.973">
  <g id="Grupo_105638" data-name="Grupo 105638" transform="translate(-287.617 -156.163)">
    <path id="Trazado_114355" data-name="Trazado 114355" d="M532.739,340.6c-5.905,0-32.53.007-66.311,0-9.327,0-19.2-.005-29.335-.008l-23.393-.012-13.323-.008c-59.455-.047-68.93.618-78.366.028-17.554,0-62.514-68.218-8.991-113.01,20.783-17.393-5.891-40.5,28.63-57.854,22.7-11.413,39.19,8.637,66.593,1.414,20.246-5.337,24.364-17.854,64.39-14.385C511.126,160.1,511.9,191.7,499.69,217.8c-7.71,16.477,30.091,11.389,47.571,35.979C577.1,295.749,533,339.973,532.739,340.6Z" transform="translate(0)" fill="#e1f3d7"/>
    <rect id="Rectángulo_33942" data-name="Rectángulo 33942" width="249.584" height="1.079" rx="0.54" transform="translate(303.435 340.057)" fill="#233862"/>
    <g id="Grupo_106128" data-name="Grupo 106128" transform="translate(192.974 -202.222)">
      <g id="Grupo_106064" data-name="Grupo 106064" transform="translate(120.721 379.444)">
        <path id="Trazado_137503" data-name="Trazado 137503" d="M215.194,566.323l-30.993,33.5L139.54,558.5h0l-18.818-17.41,30.993-33.5L186.851,540.1Z" transform="translate(-120.721 -507.593)" fill="#85d161"/>
        <g id="Grupo_106063" data-name="Grupo 106063" transform="translate(6.26 6.329)">
          <path id="Trazado_137504" data-name="Trazado 137504" d="M250.491,609.575l-24.062,26.008-57.057-52.788,24.062-26.008Zm-21.9,22.083,18.146-19.614a3.284,3.284,0,0,0-.18-4.641l-50.607-46.821a3.343,3.343,0,0,0-4.724.184L173.149,580.3a3.315,3.315,0,0,0,.182,4.685l50.64,46.851A3.267,3.267,0,0,0,228.589,631.658Z" transform="translate(-169.372 -556.787)" fill="#529d2e"/>
        </g>
        <circle id="Elipse_5299" data-name="Elipse 5299" cx="9.533" cy="9.533" r="9.533" transform="translate(34.259 50.626) rotate(-66.307)" fill="#529d2e"/>
      </g>
      <g id="Grupo_106066" data-name="Grupo 106066" transform="translate(166.188 360.522)">
        <path id="Trazado_137505" data-name="Trazado 137505" d="M525.843,446.777l-45.52,3.286-4.379-60.686h0l-1.846-25.57,45.519-3.285,3.446,47.743Z" transform="translate(-474.099 -360.522)" fill="#85d161"/>
        <g id="Grupo_106065" data-name="Grupo 106065" transform="translate(5.365 4.163)">
          <path id="Trazado_137506" data-name="Trazado 137506" d="M556.728,470.4l-35.339,2.55-5.595-77.529,35.339-2.55Zm-31.081,1.161,26.651-1.923a3.284,3.284,0,0,0,3.039-3.512l-4.962-68.765a3.343,3.343,0,0,0-3.575-3.094l-26.545,1.916a3.315,3.315,0,0,0-3.068,3.545l4.966,68.81A3.267,3.267,0,0,0,525.647,471.565Z" transform="translate(-515.794 -392.876)" fill="#529d2e"/>
        </g>
        <circle id="Elipse_5300" data-name="Elipse 5300" cx="9.533" cy="9.533" r="9.533" transform="translate(12.35 44.202) rotate(-45)" fill="#529d2e"/>
      </g>
      <g id="Grupo_106076" data-name="Grupo 106076" transform="translate(244.792 406.646)" opacity="0.5">
        <path id="Trazado_137507" data-name="Trazado 137507" d="M1149.006,721.077l8.722,33.365a2.776,2.776,0,0,1-1.977,3.377l-58.531,15.3a2.775,2.775,0,0,1-3.377-1.977l-8.722-33.365a2.776,2.776,0,0,1,1.977-3.377l58.531-15.3A2.776,2.776,0,0,1,1149.006,721.077Z" transform="translate(-1085.031 -719.01)" fill="#fdab64"/>
        <g id="Grupo_106075" data-name="Grupo 106075" transform="translate(4.618 5.252)">
          <path id="Trazado_137508" data-name="Trazado 137508" d="M1191.256,1027.866l-15.6,4.078a1.244,1.244,0,0,1-1.514-.886l-.039-.15a1.244,1.244,0,0,1,.886-1.514l15.6-4.078a1.244,1.244,0,0,1,1.514.886l.039.15A1.244,1.244,0,0,1,1191.256,1027.866Z" transform="translate(-1167.226 -991.123)" fill="#fed5b1"/>
          <path id="Trazado_137509" data-name="Trazado 137509" d="M1351.034,986.1l-15.6,4.078a1.244,1.244,0,0,1-1.514-.886l-.039-.15a1.244,1.244,0,0,1,.886-1.514l15.6-4.078a1.244,1.244,0,0,1,1.514.886l.039.15A1.244,1.244,0,0,1,1351.034,986.1Z" transform="translate(-1306.447 -954.731)" fill="#fed5b1"/>
          <g id="Grupo_106067" data-name="Grupo 106067" transform="translate(23.887 9.157)">
            <path id="Trazado_137510" data-name="Trazado 137510" d="M1309.613,898.033a3,3,0,0,1,.068,1.476,1.359,1.359,0,0,1-2.312.6,3.569,3.569,0,0,1-.735-2.789,1.368,1.368,0,0,1,2.323-.607A3.014,3.014,0,0,1,1309.613,898.033Zm-.716.184a2.972,2.972,0,0,0-.356-.867q-.33-.5-.754-.386t-.475.7a2.876,2.876,0,0,0,.11.937q.381,1.456,1.124,1.261.429-.112.467-.711A2.971,2.971,0,0,0,1308.9,898.218Z" transform="translate(-1306.573 -887.881)" fill="#fed5b1"/>
            <path id="Trazado_137511" data-name="Trazado 137511" d="M1334.508,891.526a3,3,0,0,1,.068,1.476,1.359,1.359,0,0,1-2.312.6,3.569,3.569,0,0,1-.735-2.789,1.369,1.369,0,0,1,2.322-.607A3.014,3.014,0,0,1,1334.508,891.526Zm-.716.184a2.977,2.977,0,0,0-.356-.867q-.33-.5-.753-.386t-.475.7a2.875,2.875,0,0,0,.11.937q.381,1.456,1.124,1.262.429-.112.467-.711A2.967,2.967,0,0,0,1333.792,891.711Z" transform="translate(-1328.266 -882.211)" fill="#fed5b1"/>
            <path id="Trazado_137512" data-name="Trazado 137512" d="M1372.236,881.664a3,3,0,0,1,.068,1.476,1.359,1.359,0,0,1-2.312.6,3.568,3.568,0,0,1-.735-2.789,1.369,1.369,0,0,1,2.323-.607A3.016,3.016,0,0,1,1372.236,881.664Zm-.716.184a2.973,2.973,0,0,0-.356-.867q-.33-.5-.754-.386t-.475.7a2.871,2.871,0,0,0,.11.937q.381,1.456,1.124,1.262.429-.112.467-.711A2.966,2.966,0,0,0,1371.519,881.849Z" transform="translate(-1361.139 -873.618)" fill="#fed5b1"/>
            <path id="Trazado_137513" data-name="Trazado 137513" d="M1397.13,875.156a3,3,0,0,1,.068,1.476,1.359,1.359,0,0,1-2.311.6,3.568,3.568,0,0,1-.735-2.789,1.369,1.369,0,0,1,2.323-.607A3.013,3.013,0,0,1,1397.13,875.156Zm-.716.184a2.978,2.978,0,0,0-.356-.867q-.33-.5-.754-.386t-.475.7a2.869,2.869,0,0,0,.11.937q.381,1.456,1.123,1.262.43-.112.467-.711A2.962,2.962,0,0,0,1396.414,875.341Z" transform="translate(-1382.831 -867.947)" fill="#fed5b1"/>
            <path id="Trazado_137514" data-name="Trazado 137514" d="M1422.026,868.649a3,3,0,0,1,.068,1.476,1.359,1.359,0,0,1-2.312.6,3.569,3.569,0,0,1-.735-2.789,1.369,1.369,0,0,1,2.323-.607A3.017,3.017,0,0,1,1422.026,868.649Zm-.716.184a2.971,2.971,0,0,0-.356-.867q-.33-.5-.754-.386t-.475.7a2.879,2.879,0,0,0,.11.937q.381,1.456,1.124,1.261.429-.112.467-.711A2.97,2.97,0,0,0,1421.309,868.833Z" transform="translate(-1404.523 -862.277)" fill="#fed5b1"/>
            <path id="Trazado_137515" data-name="Trazado 137515" d="M1446.92,862.141a3,3,0,0,1,.068,1.476,1.359,1.359,0,0,1-2.311.6,3.568,3.568,0,0,1-.735-2.789,1.369,1.369,0,0,1,2.323-.607A3.012,3.012,0,0,1,1446.92,862.141Zm-.716.184a2.975,2.975,0,0,0-.356-.867q-.33-.5-.754-.386t-.475.7a2.872,2.872,0,0,0,.11.938q.381,1.456,1.124,1.261.429-.112.467-.711A2.963,2.963,0,0,0,1446.2,862.326Z" transform="translate(-1426.215 -856.607)" fill="#fed5b1"/>
            <path id="Trazado_137516" data-name="Trazado 137516" d="M1484.648,852.279a3,3,0,0,1,.068,1.476,1.359,1.359,0,0,1-2.311.6,3.569,3.569,0,0,1-.735-2.789,1.369,1.369,0,0,1,2.323-.607A3.017,3.017,0,0,1,1484.648,852.279Zm-.716.184a2.971,2.971,0,0,0-.356-.867q-.33-.5-.754-.386t-.475.7a2.875,2.875,0,0,0,.11.938q.381,1.456,1.124,1.261.43-.112.467-.711A2.96,2.96,0,0,0,1483.931,852.463Z" transform="translate(-1459.088 -848.013)" fill="#fed5b1"/>
            <path id="Trazado_137517" data-name="Trazado 137517" d="M1509.543,845.771a3,3,0,0,1,.068,1.476,1.359,1.359,0,0,1-2.312.6,3.568,3.568,0,0,1-.735-2.789,1.369,1.369,0,0,1,2.323-.607A3.018,3.018,0,0,1,1509.543,845.771Zm-.716.184a2.977,2.977,0,0,0-.356-.867q-.33-.5-.754-.386t-.475.7a2.886,2.886,0,0,0,.11.938q.381,1.456,1.124,1.261.429-.112.467-.711A2.97,2.97,0,0,0,1508.827,845.956Z" transform="translate(-1480.781 -842.343)" fill="#fed5b1"/>
            <path id="Trazado_137518" data-name="Trazado 137518" d="M1534.438,839.263a3,3,0,0,1,.068,1.476,1.359,1.359,0,0,1-2.312.6,3.571,3.571,0,0,1-.735-2.789,1.369,1.369,0,0,1,2.323-.607A3.012,3.012,0,0,1,1534.438,839.263Zm-.716.184a2.972,2.972,0,0,0-.356-.867q-.33-.5-.754-.386t-.475.7a2.866,2.866,0,0,0,.11.937q.38,1.456,1.123,1.261.429-.112.467-.711A2.96,2.96,0,0,0,1533.721,839.448Z" transform="translate(-1502.472 -836.672)" fill="#fed5b1"/>
            <path id="Trazado_137519" data-name="Trazado 137519" d="M1559.333,832.756a3,3,0,0,1,.068,1.476,1.359,1.359,0,0,1-2.312.6,3.569,3.569,0,0,1-.735-2.789,1.368,1.368,0,0,1,2.323-.607A3.015,3.015,0,0,1,1559.333,832.756Zm-.716.184a2.976,2.976,0,0,0-.356-.867q-.33-.5-.754-.386t-.475.7a2.874,2.874,0,0,0,.11.937q.381,1.456,1.124,1.262.429-.112.467-.711A2.966,2.966,0,0,0,1558.617,832.94Z" transform="translate(-1524.165 -831.002)" fill="#fed5b1"/>
          </g>
          <path id="Trazado_137520" data-name="Trazado 137520" d="M1137.741,825.091l-15.266,3.991a1.244,1.244,0,0,1-1.514-.886h0a1.244,1.244,0,0,1,.886-1.514l15.266-3.991a1.244,1.244,0,0,1,1.514.886h0A1.244,1.244,0,0,1,1137.741,825.091Z" transform="translate(-1120.92 -814.569)" fill="#fed5b1"/>
          <g id="Grupo_106072" data-name="Grupo 106072" transform="translate(52.669)">
            <g id="Grupo_106068" data-name="Grupo 106068" transform="translate(0 2.511)">
              <path id="Trazado_137521" data-name="Trazado 137521" d="M1531.36,780.433a1.9,1.9,0,0,0-.706-1.047.2.2,0,0,0-.3.062l-.052.092a.2.2,0,0,0,.052.261,1.393,1.393,0,0,1,.438,1.675.2.2,0,0,0,.082.253l.09.054a.2.2,0,0,0,.29-.091A1.9,1.9,0,0,0,1531.36,780.433Z" transform="translate(-1530.277 -779.346)" fill="#fed5b1"/>
            </g>
            <g id="Grupo_106069" data-name="Grupo 106069" transform="translate(0.533 1.62)">
              <path id="Trazado_137522" data-name="Trazado 137522" d="M1535.961,774.145a2.911,2.911,0,0,0-1.2-1.685.2.2,0,0,0-.287.069l-.03.052a.2.2,0,0,0,.064.27,2.457,2.457,0,0,1,.819,3.132.2.2,0,0,0,.076.267l.051.031a.2.2,0,0,0,.284-.08A2.913,2.913,0,0,0,1535.961,774.145Z" transform="translate(-1534.421 -772.426)" fill="#fed5b1"/>
            </g>
            <g id="Grupo_106070" data-name="Grupo 106070" transform="translate(1.009 0.841)">
              <path id="Trazado_137523" data-name="Trazado 137523" d="M1540.052,768.644a3.811,3.811,0,0,0-1.618-2.239.2.2,0,0,0-.285.07h0a.2.2,0,0,0,.066.27,3.412,3.412,0,0,1,1.164,4.453.2.2,0,0,0,.075.268h0a.2.2,0,0,0,.283-.078A3.81,3.81,0,0,0,1540.052,768.644Z" transform="translate(-1538.122 -766.373)" fill="#fed5b1"/>
            </g>
            <g id="Grupo_106071" data-name="Grupo 106071" transform="translate(1.441)">
              <path id="Trazado_137524" data-name="Trazado 137524" d="M1543.913,762.7a4.774,4.774,0,0,0-2.074-2.835.2.2,0,0,0-.285.071l-.051.09a.2.2,0,0,0,.067.271,4.28,4.28,0,0,1,1.476,5.648.2.2,0,0,0,.074.269l.089.053a.2.2,0,0,0,.283-.078A4.775,4.775,0,0,0,1543.913,762.7Z" transform="translate(-1541.475 -759.833)" fill="#fed5b1"/>
            </g>
          </g>
          <g id="Grupo_106074" data-name="Grupo 106074" transform="translate(7.887 40.381)">
            <g id="Grupo_106073" data-name="Grupo 106073">
              <path id="Trazado_137525" data-name="Trazado 137525" d="M1183.683,1092.374a1.448,1.448,0,0,1,.033.712.656.656,0,0,1-1.115.292,1.721,1.721,0,0,1-.354-1.345.66.66,0,0,1,1.12-.293A1.455,1.455,0,0,1,1183.683,1092.374Zm-.345.089a1.432,1.432,0,0,0-.172-.418q-.159-.24-.363-.186t-.229.338a1.383,1.383,0,0,0,.053.452q.183.7.542.608.207-.054.225-.343A1.428,1.428,0,0,0,1183.337,1092.463Z" transform="translate(-1182.217 -1089.233)" fill="#fed5b1"/>
              <path id="Trazado_137526" data-name="Trazado 137526" d="M1195.69,1089.235a1.447,1.447,0,0,1,.033.712.655.655,0,0,1-1.115.291,1.722,1.722,0,0,1-.355-1.345.66.66,0,0,1,1.12-.293A1.452,1.452,0,0,1,1195.69,1089.235Zm-.345.089a1.439,1.439,0,0,0-.172-.418q-.159-.24-.363-.186t-.229.338a1.384,1.384,0,0,0,.053.452q.183.7.542.608.207-.054.225-.343A1.439,1.439,0,0,0,1195.345,1089.324Z" transform="translate(-1192.679 -1086.498)" fill="#fed5b1"/>
              <path id="Trazado_137527" data-name="Trazado 137527" d="M1208.3,1085.125a.222.222,0,0,1,0,.1l-.37,1.876c-.018.092-.058.146-.122.162a.142.142,0,0,1-.11-.014.137.137,0,0,1-.067-.088.218.218,0,0,1,0-.1l.375-1.873c.018-.09.058-.143.12-.159a.152.152,0,0,1,.112.01A.13.13,0,0,1,1208.3,1085.125Z" transform="translate(-1204.355 -1083.563)" fill="#fed5b1"/>
              <path id="Trazado_137528" data-name="Trazado 137528" d="M1215.908,1083.95a1.445,1.445,0,0,1,.033.712.655.655,0,0,1-1.115.291,1.723,1.723,0,0,1-.355-1.345.66.66,0,0,1,1.12-.293A1.452,1.452,0,0,1,1215.908,1083.95Zm-.345.089a1.432,1.432,0,0,0-.172-.418q-.159-.24-.364-.186c-.14.037-.216.149-.229.338a1.383,1.383,0,0,0,.053.452q.184.7.542.608.207-.054.225-.343A1.421,1.421,0,0,0,1215.563,1084.038Z" transform="translate(-1210.296 -1081.892)" fill="#fed5b1"/>
              <path id="Trazado_137529" data-name="Trazado 137529" d="M1227.916,1080.811a1.447,1.447,0,0,1,.033.712.656.656,0,0,1-1.115.291,1.721,1.721,0,0,1-.354-1.345.66.66,0,0,1,1.12-.293A1.454,1.454,0,0,1,1227.916,1080.811Zm-.346.089a1.433,1.433,0,0,0-.172-.418q-.159-.24-.364-.186t-.229.338a1.387,1.387,0,0,0,.053.452q.183.7.542.608.207-.054.225-.343A1.437,1.437,0,0,0,1227.57,1080.9Z" transform="translate(-1220.759 -1079.158)" fill="#fed5b1"/>
              <path id="Trazado_137530" data-name="Trazado 137530" d="M1239.923,1077.672a1.449,1.449,0,0,1,.033.712.656.656,0,0,1-1.115.291,1.719,1.719,0,0,1-.354-1.345.66.66,0,0,1,1.12-.293A1.453,1.453,0,0,1,1239.923,1077.672Zm-.346.089a1.44,1.44,0,0,0-.172-.418q-.159-.24-.364-.186t-.229.338a1.383,1.383,0,0,0,.053.452q.184.7.542.608.207-.054.225-.343A1.427,1.427,0,0,0,1239.578,1077.761Z" transform="translate(-1231.221 -1076.423)" fill="#fed5b1"/>
              <path id="Trazado_137531" data-name="Trazado 137531" d="M1251.93,1074.534a1.452,1.452,0,0,1,.033.712.656.656,0,0,1-1.115.291,1.72,1.72,0,0,1-.355-1.345.66.66,0,0,1,1.12-.293A1.455,1.455,0,0,1,1251.93,1074.534Zm-.345.089a1.438,1.438,0,0,0-.172-.418q-.159-.24-.364-.187t-.229.339a1.384,1.384,0,0,0,.053.452q.183.7.542.609.207-.054.225-.343A1.432,1.432,0,0,0,1251.585,1074.623Z" transform="translate(-1241.683 -1073.688)" fill="#fed5b1"/>
            </g>
          </g>
        </g>
      </g>
      <g id="Grupo_106083" data-name="Grupo 106083" transform="translate(146.237 421.245)">
        <rect id="Rectángulo_37210" data-name="Rectángulo 37210" width="141.292" height="2.042" transform="translate(4.542 115.012)" fill="#a4dc88"/>
        <rect id="Rectángulo_37211" data-name="Rectángulo 37211" width="144.189" height="2.042" transform="translate(3.094 117.054)" fill="#85d161"/>
        <rect id="Rectángulo_37212" data-name="Rectángulo 37212" width="148.165" height="2.042" transform="translate(1.106 119.096)" fill="#a4dc88"/>
        <g id="Grupo_106082" data-name="Grupo 106082" transform="translate(0 0)">
          <rect id="Rectángulo_37213" data-name="Rectángulo 37213" width="132.14" height="78.066" transform="translate(7.837 36.946)" fill="#e1f3d7"/>
          <path id="Trazado_137532" data-name="Trazado 137532" d="M467.987,870.916H319.039l75.829-38.435Z" transform="translate(-319.039 -832.481)" fill="#a4dc88"/>
          <path id="Trazado_137533" data-name="Trazado 137533" d="M494.76,911.794l103.731-.218-50.562-26.293Z" transform="translate(-472.151 -878.489)" fill="#85d161"/>
          <rect id="Rectángulo_37214" data-name="Rectángulo 37214" width="141.898" height="3.291" transform="translate(3.887 38.435)" fill="#85d161"/>
          <g id="Grupo_106077" data-name="Grupo 106077" transform="translate(14.424 38.435)">
            <rect id="Rectángulo_37215" data-name="Rectángulo 37215" width="13.977" height="4.948" fill="#c2e8b0"/>
            <rect id="Rectángulo_37216" data-name="Rectángulo 37216" width="7.705" height="71.629" transform="translate(3.136 4.948)" fill="#c2e8b0"/>
          </g>
          <g id="Grupo_106078" data-name="Grupo 106078" transform="translate(44.626 38.435)">
            <rect id="Rectángulo_37217" data-name="Rectángulo 37217" width="13.977" height="4.948" fill="#c2e8b0"/>
            <rect id="Rectángulo_37218" data-name="Rectángulo 37218" width="7.705" height="71.629" transform="translate(3.136 4.948)" fill="#c2e8b0"/>
          </g>
          <g id="Grupo_106079" data-name="Grupo 106079" transform="translate(92.102 38.435)">
            <rect id="Rectángulo_37219" data-name="Rectángulo 37219" width="13.977" height="4.948" transform="translate(0)" fill="#c2e8b0"/>
            <rect id="Rectángulo_37220" data-name="Rectángulo 37220" width="7.705" height="71.629" transform="translate(3.136 4.948)" fill="#c2e8b0"/>
          </g>
          <g id="Grupo_106080" data-name="Grupo 106080" transform="translate(120.541 38.435)">
            <rect id="Rectángulo_37221" data-name="Rectángulo 37221" width="13.977" height="4.948" fill="#c2e8b0"/>
            <rect id="Rectángulo_37222" data-name="Rectángulo 37222" width="7.705" height="71.629" transform="translate(3.136 4.948)" fill="#c2e8b0"/>
          </g>
          <g id="Grupo_106081" data-name="Grupo 106081" transform="translate(71.172 12.5)">
            <path id="Trazado_137534" data-name="Trazado 137534" d="M878.5,940.6a1.787,1.787,0,0,0-.09-.622,1.306,1.306,0,0,0-.318-.491,2.465,2.465,0,0,0-.577-.411,6.5,6.5,0,0,0-.866-.373,17.028,17.028,0,0,1-1.6-.673,5.379,5.379,0,0,1-1.225-.8,3.165,3.165,0,0,1-.784-1.052,3.574,3.574,0,0,1,.008-2.718,3.007,3.007,0,0,1,.737-1.013,3.752,3.752,0,0,1,1.134-.692,5,5,0,0,1,1.472-.327l.026-1.795,1.445.021-.027,1.82a4.487,4.487,0,0,1,1.4.432,3.391,3.391,0,0,1,1.727,2,4.518,4.518,0,0,1,.217,1.517l-2.609-.038a2.2,2.2,0,0,0-.425-1.512,1.527,1.527,0,0,0-1.189-.516,1.941,1.941,0,0,0-.7.1,1.314,1.314,0,0,0-.488.3,1.227,1.227,0,0,0-.287.461,1.8,1.8,0,0,0-.1.577,1.651,1.651,0,0,0,.082.563,1.221,1.221,0,0,0,.3.47,2.47,2.47,0,0,0,.581.411,8.362,8.362,0,0,0,.9.4q.871.34,1.584.694a5.442,5.442,0,0,1,1.221.81,3.057,3.057,0,0,1,1.048,2.469,3.267,3.267,0,0,1-.276,1.321,2.971,2.971,0,0,1-.742,1,3.623,3.623,0,0,1-1.143.671,5.405,5.405,0,0,1-1.481.314l-.024,1.669-1.436-.021.024-1.661a6.063,6.063,0,0,1-1.444-.348,3.838,3.838,0,0,1-1.231-.744,3.436,3.436,0,0,1-.849-1.208,4.182,4.182,0,0,1-.3-1.732l2.609.038a2.577,2.577,0,0,0,.152,1,1.666,1.666,0,0,0,.438.644,1.617,1.617,0,0,0,.632.345,2.764,2.764,0,0,0,.725.107,2.312,2.312,0,0,0,.746-.1,1.545,1.545,0,0,0,.542-.294,1.229,1.229,0,0,0,.332-.452A1.5,1.5,0,0,0,878.5,940.6Z" transform="translate(-872.21 -929.636)" fill="#67c53a"/>
          </g>
          <path id="Rectángulo_37223" data-name="Rectángulo 37223" d="M9.874,0h0a9.3,9.3,0,0,1,9.3,9.3V29.947a0,0,0,0,1,0,0H0a0,0,0,0,1,0,0V9.874A9.874,9.874,0,0,1,9.874,0Z" transform="translate(64.283 85.065)" fill="#c0d8fb"/>
          <path id="Rectángulo_37224" data-name="Rectángulo 37224" d="M4.661,0h0A4.392,4.392,0,0,1,9.053,4.392v9.745a0,0,0,0,1,0,0H0a0,0,0,0,1,0,0V4.661A4.661,4.661,0,0,1,4.661,0Z" transform="translate(58.5 55.553)" fill="#a4dc88"/>
          <path id="Rectángulo_37225" data-name="Rectángulo 37225" d="M4.661,0h0A4.392,4.392,0,0,1,9.053,4.392v9.745a0,0,0,0,1,0,0H0a0,0,0,0,1,0,0V4.661A4.661,4.661,0,0,1,4.661,0Z" transform="translate(31.987 55.553)" fill="#a4dc88"/>
          <path id="Rectángulo_37226" data-name="Rectángulo 37226" d="M4.661,0h0A4.392,4.392,0,0,1,9.053,4.392v9.745a0,0,0,0,1,0,0H0a0,0,0,0,1,0,0V4.661A4.661,4.661,0,0,1,4.661,0Z" transform="translate(31.987 85.902)" fill="#a4dc88"/>
          <path id="Rectángulo_37227" data-name="Rectángulo 37227" d="M4.661,0h0A4.392,4.392,0,0,1,9.053,4.392v9.745a0,0,0,0,1,0,0H0a0,0,0,0,1,0,0V4.661A4.661,4.661,0,0,1,4.661,0Z" transform="translate(108.784 55.553)" fill="#a4dc88"/>
          <path id="Rectángulo_37228" data-name="Rectángulo 37228" d="M4.661,0h0A4.392,4.392,0,0,1,9.053,4.392v9.745a0,0,0,0,1,0,0H0a0,0,0,0,1,0,0V4.661A4.661,4.661,0,0,1,4.661,0Z" transform="translate(108.784 85.902)" fill="#c0d8fb"/>
          <path id="Rectángulo_37229" data-name="Rectángulo 37229" d="M4.661,0h0A4.392,4.392,0,0,1,9.053,4.392v9.745a0,0,0,0,1,0,0H0a0,0,0,0,1,0,0V4.661A4.661,4.661,0,0,1,4.661,0Z" transform="translate(81.389 55.553)" fill="#a4dc88"/>
        </g>
      </g>
      <g id="Grupo_106084" data-name="Grupo 106084" transform="translate(210.661 436.012)">
        <path id="Trazado_137535" data-name="Trazado 137535" d="M977.145,956.265s3.93,6.658,7.533,6.751,9.085-3.086,9.085-3.086,3.308-8.873,1.064-12.344a4.146,4.146,0,0,0-4.6.91,7.853,7.853,0,0,0-1.218,1.4,3.907,3.907,0,0,1-1.891,1.543c-2.571.941-5.623-1.273-6.764.864a14.157,14.157,0,0,1-1.987,2.831A9.418,9.418,0,0,1,977.145,956.265Z" transform="translate(-956.556 -947.251)" fill="#f9ddbf"/>
        <path id="Trazado_137536" data-name="Trazado 137536" d="M894.081,1160.391s9.65-84.66-44.032-90.606c0,0-41.656,9.92-31.267,90.606Z" transform="translate(-817.118 -1054.019)" fill="#f9ddbf"/>
        <path id="Trazado_137537" data-name="Trazado 137537" d="M1037.387,1043.9s-10.022,2.682-13.114,1.106c0,0-.467-5.043,3.754-4.336,2.889.484,4.77-1.187,5.877-1.865C1035.47,1037.842,1037.8,1041.787,1037.387,1043.9Z" transform="translate(-997.607 -1026.894)" fill="#f99746"/>
        <path id="Trazado_137538" data-name="Trazado 137538" d="M1055.046,965.085c.641.579,2.609-8.155,2.609-8.155a7.849,7.849,0,0,0-1.218,1.4,3.908,3.908,0,0,1-1.891,1.543C1054.539,960.132,1054.424,964.522,1055.046,965.085Z" transform="translate(-1023.987 -955.685)" fill="#e5c1a1"/>
        <path id="Trazado_137539" data-name="Trazado 137539" d="M986.613,989.384c.141.1,4.776,3.441,5.4,3.441s-3.417-6.273-3.417-6.273A14.162,14.162,0,0,1,986.613,989.384Z" transform="translate(-964.805 -981.496)" fill="#e5c1a1"/>
      </g>
      <g id="Grupo_106107" data-name="Grupo 106107" transform="translate(222.482 489.887)">
        <g id="Grupo_106086" data-name="Grupo 106086" transform="translate(5.507 47.676)">
          <path id="Trazado_137540" data-name="Trazado 137540" d="M1008.424,1737.581v2.715a.926.926,0,0,1-.214.584,1.243,1.243,0,0,1-.585.392,1.342,1.342,0,0,1-.228.054,1.443,1.443,0,0,1-.219.017h-51.5a1.176,1.176,0,0,1-1.245-.993c0-.018,0-.036,0-.054v-2.715c0-.018,0-.036,0-.054a1.177,1.177,0,0,1,1.245-.993h51.5a1.443,1.443,0,0,1,.219.017,1.354,1.354,0,0,1,.228.054,1.239,1.239,0,0,1,.585.392A.925.925,0,0,1,1008.424,1737.581Z" transform="translate(-954.429 -1736.535)" fill="#ffb93e"/>
          <path id="Trazado_137541" data-name="Trazado 137541" d="M983.134,1741.343H955.542a1.089,1.089,0,0,1-1.111-.993c0-.018,0-.036,0-.054v-2.715c0-.018,0-.036,0-.054a1.089,1.089,0,0,1,1.111-.993h24.2A8.43,8.43,0,0,0,983.134,1741.343Z" transform="translate(-954.429 -1736.535)" fill="#ffa412"/>
          <g id="Grupo_106085" data-name="Grupo 106085" transform="translate(18.923)">
            <rect id="Rectángulo_37230" data-name="Rectángulo 37230" width="0.585" height="4.808" transform="translate(28.22 0)" fill="#ffa412"/>
            <rect id="Rectángulo_37231" data-name="Rectángulo 37231" width="0.585" height="4.808" transform="translate(26.238 0)" fill="#ffa412"/>
            <rect id="Rectángulo_37232" data-name="Rectángulo 37232" width="0.585" height="4.808" transform="translate(23.862 0)" fill="#ffa412"/>
            <rect id="Rectángulo_37233" data-name="Rectángulo 37233" width="0.585" height="4.808" transform="translate(20.22 0)" fill="#ffa412"/>
            <rect id="Rectángulo_37234" data-name="Rectángulo 37234" width="0.585" height="4.808" transform="translate(16.369 0)" fill="#ffa412"/>
            <rect id="Rectángulo_37235" data-name="Rectángulo 37235" width="0.585" height="4.808" transform="translate(10.465 0)" fill="#ffa412"/>
            <rect id="Rectángulo_37236" data-name="Rectángulo 37236" width="0.585" height="4.808" transform="translate(4.936 0)" fill="#ffa412"/>
            <rect id="Rectángulo_37237" data-name="Rectángulo 37237" width="0.585" height="4.808" transform="translate(0 0)" fill="#ffa412"/>
            <rect id="Rectángulo_37238" data-name="Rectángulo 37238" width="0.585" height="4.808" transform="translate(30.106 0)" fill="#ffa412"/>
            <rect id="Rectángulo_37239" data-name="Rectángulo 37239" width="0.585" height="4.808" transform="translate(31.352 0)" fill="#ffa412"/>
            <rect id="Rectángulo_37240" data-name="Rectángulo 37240" width="0.585" height="4.808" transform="translate(32.555 0)" fill="#ffa412"/>
            <path id="Trazado_137542" data-name="Trazado 137542" d="M1362.152,1736.552v4.775a1.443,1.443,0,0,1-.22.017h-.366v-4.808h.366A1.443,1.443,0,0,1,1362.152,1736.552Z" transform="translate(-1328.107 -1736.535)" fill="#ffa412"/>
            <path id="Trazado_137543" data-name="Trazado 137543" d="M1368.475,1737.476v3.884a1.242,1.242,0,0,1-.585.392v-4.667A1.238,1.238,0,0,1,1368.475,1737.476Z" transform="translate(-1333.616 -1737.013)" fill="#ffa412"/>
          </g>
        </g>
        <g id="Grupo_106088" data-name="Grupo 106088" transform="translate(0 42.868)">
          <path id="Trazado_137544" data-name="Trazado 137544" d="M965.625,1700.212v2.715a.923.923,0,0,1-.214.584,1.239,1.239,0,0,1-.585.392,1.335,1.335,0,0,1-.228.054,1.443,1.443,0,0,1-.22.017h-51.5a1.176,1.176,0,0,1-1.245-.993c0-.018,0-.036,0-.054v-2.715c0-.018,0-.036,0-.054a1.177,1.177,0,0,1,1.245-.993h51.5c.033,0,.066,0,.1,0l.042,0,.046.005.033,0a1.335,1.335,0,0,1,.228.054l.032.011.032.012.063.026.036.017.032.016.058.031c.022.013.043.026.064.04l.048.033,0,0,.032.024a1.065,1.065,0,0,1,.09.078l.025.024.024.026c.016.017.032.035.046.053A.923.923,0,0,1,965.625,1700.212Z" transform="translate(-911.63 -1699.165)" fill="#ffb93e"/>
          <path id="Trazado_137545" data-name="Trazado 137545" d="M940.335,1703.973H912.743a1.089,1.089,0,0,1-1.111-.993c0-.018,0-.036,0-.054v-2.715c0-.018,0-.036,0-.054a1.089,1.089,0,0,1,1.111-.993h24.2c.011.039.022.079.034.119A8.412,8.412,0,0,0,940.335,1703.973Z" transform="translate(-911.63 -1699.165)" fill="#ffa412"/>
          <g id="Grupo_106087" data-name="Grupo 106087" transform="translate(18.923)">
            <rect id="Rectángulo_37241" data-name="Rectángulo 37241" width="0.585" height="4.808" transform="translate(28.22 0)" fill="#ffa412"/>
            <rect id="Rectángulo_37242" data-name="Rectángulo 37242" width="0.585" height="4.808" transform="translate(26.238 0)" fill="#ffa412"/>
            <rect id="Rectángulo_37243" data-name="Rectángulo 37243" width="0.585" height="4.808" transform="translate(23.862 0)" fill="#ffa412"/>
            <rect id="Rectángulo_37244" data-name="Rectángulo 37244" width="0.585" height="4.808" transform="translate(20.22 0)" fill="#ffa412"/>
            <rect id="Rectángulo_37245" data-name="Rectángulo 37245" width="0.585" height="4.808" transform="translate(16.369 0)" fill="#ffa412"/>
            <rect id="Rectángulo_37246" data-name="Rectángulo 37246" width="0.585" height="4.808" transform="translate(10.465 0)" fill="#ffa412"/>
            <rect id="Rectángulo_37247" data-name="Rectángulo 37247" width="0.585" height="4.808" transform="translate(4.936 0)" fill="#ffa412"/>
            <rect id="Rectángulo_37248" data-name="Rectángulo 37248" width="0.585" height="4.808" transform="translate(0 0)" fill="#ffa412"/>
            <rect id="Rectángulo_37249" data-name="Rectángulo 37249" width="0.585" height="4.808" transform="translate(30.106 0)" fill="#ffa412"/>
            <rect id="Rectángulo_37250" data-name="Rectángulo 37250" width="0.585" height="4.808" transform="translate(31.352 0)" fill="#ffa412"/>
            <rect id="Rectángulo_37251" data-name="Rectángulo 37251" width="0.585" height="4.808" transform="translate(32.555 0)" fill="#ffa412"/>
            <path id="Trazado_137546" data-name="Trazado 137546" d="M1319.353,1699.181v4.775a1.459,1.459,0,0,1-.22.017h-.366v-4.808h.366A1.443,1.443,0,0,1,1319.353,1699.181Z" transform="translate(-1285.307 -1699.164)" fill="#ffa412"/>
            <path id="Trazado_137547" data-name="Trazado 137547" d="M1325.675,1700.1v3.884a1.239,1.239,0,0,1-.585.392v-4.667A1.239,1.239,0,0,1,1325.675,1700.1Z" transform="translate(-1290.816 -1699.642)" fill="#ffa412"/>
          </g>
        </g>
        <g id="Grupo_106090" data-name="Grupo 106090" transform="translate(2.661 38.179)">
          <path id="Trazado_137548" data-name="Trazado 137548" d="M986.307,1663.763v2.715a.925.925,0,0,1-.214.584,1.241,1.241,0,0,1-.585.392,1.346,1.346,0,0,1-.228.054,1.476,1.476,0,0,1-.22.017h-51.5a1.428,1.428,0,0,1-.575-.119,1.068,1.068,0,0,1-.666-.827c0-.016,0-.031,0-.047s0-.036,0-.054v-2.715c0-.018,0-.036,0-.054a1.177,1.177,0,0,1,1.245-.993h51.5a1.444,1.444,0,0,1,.22.017,1.346,1.346,0,0,1,.228.054,1.24,1.24,0,0,1,.585.392A.925.925,0,0,1,986.307,1663.763Z" transform="translate(-932.312 -1662.717)" fill="#ffb93e"/>
          <path id="Trazado_137549" data-name="Trazado 137549" d="M961.017,1667.525H933.424a1.155,1.155,0,0,1-.512-.119,1.051,1.051,0,0,1-.595-.827c0-.016,0-.031,0-.047s0-.036,0-.054v-2.715c0-.018,0-.036,0-.054a1.089,1.089,0,0,1,1.111-.993h24.2a8.439,8.439,0,0,0,3.219,4.689Z" transform="translate(-932.312 -1662.717)" fill="#ffa412"/>
          <g id="Grupo_106089" data-name="Grupo 106089" transform="translate(18.923)">
            <rect id="Rectángulo_37252" data-name="Rectángulo 37252" width="0.585" height="4.808" transform="translate(28.22 0)" fill="#ffa412"/>
            <rect id="Rectángulo_37253" data-name="Rectángulo 37253" width="0.585" height="4.808" transform="translate(26.238 0)" fill="#ffa412"/>
            <rect id="Rectángulo_37254" data-name="Rectángulo 37254" width="0.585" height="4.808" transform="translate(23.862 0)" fill="#ffa412"/>
            <rect id="Rectángulo_37255" data-name="Rectángulo 37255" width="0.585" height="4.808" transform="translate(20.22 0)" fill="#ffa412"/>
            <rect id="Rectángulo_37256" data-name="Rectángulo 37256" width="0.585" height="4.808" transform="translate(16.369 0)" fill="#ffa412"/>
            <rect id="Rectángulo_37257" data-name="Rectángulo 37257" width="0.585" height="4.808" transform="translate(10.465 0)" fill="#ffa412"/>
            <rect id="Rectángulo_37258" data-name="Rectángulo 37258" width="0.585" height="4.808" transform="translate(4.936 0)" fill="#ffa412"/>
            <rect id="Rectángulo_37259" data-name="Rectángulo 37259" width="0.585" height="4.808" transform="translate(0 0)" fill="#ffa412"/>
            <rect id="Rectángulo_37260" data-name="Rectángulo 37260" width="0.585" height="4.808" transform="translate(30.106 0)" fill="#ffa412"/>
            <rect id="Rectángulo_37261" data-name="Rectángulo 37261" width="0.585" height="4.808" transform="translate(31.352 0)" fill="#ffa412"/>
            <rect id="Rectángulo_37262" data-name="Rectángulo 37262" width="0.585" height="4.808" transform="translate(32.555 0)" fill="#ffa412"/>
            <path id="Trazado_137550" data-name="Trazado 137550" d="M1340.037,1662.734v4.775a1.447,1.447,0,0,1-.22.017h-.366v-4.808h.366A1.463,1.463,0,0,1,1340.037,1662.734Z" transform="translate(-1305.991 -1662.717)" fill="#ffa412"/>
            <path id="Trazado_137551" data-name="Trazado 137551" d="M1346.358,1663.656v3.884a1.242,1.242,0,0,1-.585.392v-4.667A1.24,1.24,0,0,1,1346.358,1663.656Z" transform="translate(-1311.499 -1663.194)" fill="#ffa412"/>
          </g>
        </g>
        <g id="Grupo_106092" data-name="Grupo 106092" transform="translate(3.895 33.371)">
          <path id="Trazado_137552" data-name="Trazado 137552" d="M995.9,1626.393v2.715a.925.925,0,0,1-.214.584,1.241,1.241,0,0,1-.585.391,1.319,1.319,0,0,1-.228.054,1.445,1.445,0,0,1-.22.017h-51.5a1.176,1.176,0,0,1-1.245-.993c0-.018,0-.036,0-.054v-2.715c0-.018,0-.036,0-.054a1.149,1.149,0,0,1,1.1-.985,1.392,1.392,0,0,1,.147-.007h51.5a1.445,1.445,0,0,1,.22.017,1.319,1.319,0,0,1,.228.054,1.239,1.239,0,0,1,.585.392A.924.924,0,0,1,995.9,1626.393Z" transform="translate(-941.901 -1625.347)" fill="#ffb93e"/>
          <path id="Trazado_137553" data-name="Trazado 137553" d="M970.606,1630.155H943.013a1.089,1.089,0,0,1-1.111-.993c0-.018,0-.036,0-.054v-2.715c0-.018,0-.036,0-.054a1.08,1.08,0,0,1,.979-.985,1.107,1.107,0,0,1,.132-.007h24.2l0,.007A8.43,8.43,0,0,0,970.606,1630.155Z" transform="translate(-941.901 -1625.347)" fill="#ffa412"/>
          <g id="Grupo_106091" data-name="Grupo 106091" transform="translate(18.923)">
            <rect id="Rectángulo_37263" data-name="Rectángulo 37263" width="0.585" height="4.808" transform="translate(28.22 0)" fill="#ffa412"/>
            <rect id="Rectángulo_37264" data-name="Rectángulo 37264" width="0.585" height="4.808" transform="translate(26.238 0)" fill="#ffa412"/>
            <rect id="Rectángulo_37265" data-name="Rectángulo 37265" width="0.585" height="4.808" transform="translate(23.862 0)" fill="#ffa412"/>
            <rect id="Rectángulo_37266" data-name="Rectángulo 37266" width="0.585" height="4.808" transform="translate(20.22 0)" fill="#ffa412"/>
            <rect id="Rectángulo_37267" data-name="Rectángulo 37267" width="0.585" height="4.808" transform="translate(16.369 0)" fill="#ffa412"/>
            <rect id="Rectángulo_37268" data-name="Rectángulo 37268" width="0.585" height="4.808" transform="translate(10.465 0)" fill="#ffa412"/>
            <rect id="Rectángulo_37269" data-name="Rectángulo 37269" width="0.585" height="4.808" transform="translate(4.936 0)" fill="#ffa412"/>
            <rect id="Rectángulo_37270" data-name="Rectángulo 37270" width="0.585" height="4.808" transform="translate(0 0)" fill="#ffa412"/>
            <rect id="Rectángulo_37271" data-name="Rectángulo 37271" width="0.585" height="4.808" transform="translate(30.106 0)" fill="#ffa412"/>
            <rect id="Rectángulo_37272" data-name="Rectángulo 37272" width="0.585" height="4.808" transform="translate(31.352 0)" fill="#ffa412"/>
            <rect id="Rectángulo_37273" data-name="Rectángulo 37273" width="0.585" height="4.808" transform="translate(32.555 0)" fill="#ffa412"/>
            <path id="Trazado_137554" data-name="Trazado 137554" d="M1349.624,1625.363v4.775a1.462,1.462,0,0,1-.22.017h-.366v-4.808h.366A1.462,1.462,0,0,1,1349.624,1625.363Z" transform="translate(-1315.578 -1625.346)" fill="#ffa412"/>
            <path id="Trazado_137555" data-name="Trazado 137555" d="M1355.947,1626.286v3.884a1.239,1.239,0,0,1-.585.392v-4.667A1.238,1.238,0,0,1,1355.947,1626.286Z" transform="translate(-1321.088 -1625.823)" fill="#ffa412"/>
          </g>
        </g>
        <g id="Grupo_106094" data-name="Grupo 106094" transform="translate(0.108 28.57)">
          <path id="Trazado_137556" data-name="Trazado 137556" d="M966.466,1589.082v2.715a.925.925,0,0,1-.214.584,1.242,1.242,0,0,1-.585.391,1.332,1.332,0,0,1-.228.054l-.072.009-.041,0-.041,0-.066,0h-51.5a1.177,1.177,0,0,1-1.245-.993c0-.018,0-.036,0-.054v-2.715c0-.018,0-.036,0-.054s0-.029,0-.044a1.129,1.129,0,0,1,.934-.916l.038-.008a1.487,1.487,0,0,1,.269-.025h51.5c.038,0,.075,0,.111,0l.05,0h0l.058.008a1.332,1.332,0,0,1,.228.054,1.239,1.239,0,0,1,.585.392A.924.924,0,0,1,966.466,1589.082Z" transform="translate(-912.471 -1588.035)" fill="#ffb93e"/>
          <path id="Trazado_137557" data-name="Trazado 137557" d="M941.176,1592.843H913.584a1.089,1.089,0,0,1-1.111-.993c0-.018,0-.036,0-.054v-2.715c0-.018,0-.036,0-.054s0-.029,0-.044a1.075,1.075,0,0,1,.863-.923.436.436,0,0,1,.048-.009,1.149,1.149,0,0,1,.2-.017h24.2c0,.011.006.023.01.034a8.425,8.425,0,0,0,3.368,4.766Z" transform="translate(-912.471 -1588.035)" fill="#ffa412"/>
          <g id="Grupo_106093" data-name="Grupo 106093" transform="translate(18.923)">
            <rect id="Rectángulo_37274" data-name="Rectángulo 37274" width="0.585" height="4.808" transform="translate(28.22 0)" fill="#ffa412"/>
            <rect id="Rectángulo_37275" data-name="Rectángulo 37275" width="0.585" height="4.808" transform="translate(26.238 0)" fill="#ffa412"/>
            <rect id="Rectángulo_37276" data-name="Rectángulo 37276" width="0.585" height="4.808" transform="translate(23.862 0)" fill="#ffa412"/>
            <rect id="Rectángulo_37277" data-name="Rectángulo 37277" width="0.585" height="4.808" transform="translate(20.22 0)" fill="#ffa412"/>
            <rect id="Rectángulo_37278" data-name="Rectángulo 37278" width="0.585" height="4.808" transform="translate(16.369 0)" fill="#ffa412"/>
            <rect id="Rectángulo_37279" data-name="Rectángulo 37279" width="0.585" height="4.808" transform="translate(10.465 0)" fill="#ffa412"/>
            <rect id="Rectángulo_37280" data-name="Rectángulo 37280" width="0.585" height="4.808" transform="translate(4.936 0)" fill="#ffa412"/>
            <rect id="Rectángulo_37281" data-name="Rectángulo 37281" width="0.585" height="4.808" transform="translate(0 0)" fill="#ffa412"/>
            <rect id="Rectángulo_37282" data-name="Rectángulo 37282" width="0.585" height="4.808" transform="translate(30.106 0)" fill="#ffa412"/>
            <rect id="Rectángulo_37283" data-name="Rectángulo 37283" width="0.585" height="4.808" transform="translate(31.352 0)" fill="#ffa412"/>
            <rect id="Rectángulo_37284" data-name="Rectángulo 37284" width="0.585" height="4.808" transform="translate(32.555 0)" fill="#ffa412"/>
            <path id="Trazado_137558" data-name="Trazado 137558" d="M1320.195,1588.051v4.775a1.431,1.431,0,0,1-.22.017h-.366v-4.808h.366A1.447,1.447,0,0,1,1320.195,1588.051Z" transform="translate(-1286.149 -1588.034)" fill="#ffa412"/>
            <path id="Trazado_137559" data-name="Trazado 137559" d="M1326.517,1588.975v3.884a1.239,1.239,0,0,1-.585.392v-4.667A1.239,1.239,0,0,1,1326.517,1588.975Z" transform="translate(-1291.658 -1588.512)" fill="#ffa412"/>
          </g>
        </g>
        <g id="Grupo_106096" data-name="Grupo 106096" transform="translate(0 23.796)">
          <path id="Trazado_137560" data-name="Trazado 137560" d="M965.625,1551.977v2.716a.923.923,0,0,1-.214.584,1.239,1.239,0,0,1-.585.391,1.3,1.3,0,0,1-.178.045h0l-.049.009a1.443,1.443,0,0,1-.22.017h-51.5a1.3,1.3,0,0,1-.161-.01l-.061-.008a1.133,1.133,0,0,1-1.022-.975c0-.018,0-.036,0-.054v-2.716c0-.018,0-.036,0-.053a1.177,1.177,0,0,1,1.245-.993h51.5c.033,0,.066,0,.1,0l.042,0,.046.005.033,0a1.346,1.346,0,0,1,.228.054l.032.011.032.011.063.026.068.032.058.031c.022.013.043.026.064.04l.048.033,0,0,.032.024a1.136,1.136,0,0,1,.09.078l.025.024.024.025c.016.017.032.035.046.053A.923.923,0,0,1,965.625,1551.977Z" transform="translate(-911.63 -1550.931)" fill="#ffb93e"/>
          <path id="Trazado_137561" data-name="Trazado 137561" d="M940.335,1555.739H912.743l-.065,0c-.024,0-.048,0-.071-.006a1.078,1.078,0,0,1-.975-.984c0-.018,0-.036,0-.054v-2.716c0-.018,0-.036,0-.053a1.089,1.089,0,0,1,1.111-.993h24.2c.011.04.022.079.034.119a8.418,8.418,0,0,0,3.306,4.655Z" transform="translate(-911.63 -1550.931)" fill="#ffa412"/>
          <g id="Grupo_106095" data-name="Grupo 106095" transform="translate(18.923 0)">
            <rect id="Rectángulo_37285" data-name="Rectángulo 37285" width="0.585" height="4.808" transform="translate(28.22 0)" fill="#ffa412"/>
            <rect id="Rectángulo_37286" data-name="Rectángulo 37286" width="0.585" height="4.808" transform="translate(26.238 0)" fill="#ffa412"/>
            <rect id="Rectángulo_37287" data-name="Rectángulo 37287" width="0.585" height="4.808" transform="translate(23.862 0)" fill="#ffa412"/>
            <rect id="Rectángulo_37288" data-name="Rectángulo 37288" width="0.585" height="4.808" transform="translate(20.22 0)" fill="#ffa412"/>
            <rect id="Rectángulo_37289" data-name="Rectángulo 37289" width="0.585" height="4.808" transform="translate(16.369 0)" fill="#ffa412"/>
            <rect id="Rectángulo_37290" data-name="Rectángulo 37290" width="0.585" height="4.808" transform="translate(10.465 0)" fill="#ffa412"/>
            <rect id="Rectángulo_37291" data-name="Rectángulo 37291" width="0.585" height="4.808" transform="translate(4.936 0)" fill="#ffa412"/>
            <rect id="Rectángulo_37292" data-name="Rectángulo 37292" width="0.585" height="4.808" transform="translate(0 0)" fill="#ffa412"/>
            <rect id="Rectángulo_37293" data-name="Rectángulo 37293" width="0.585" height="4.808" transform="translate(30.106 0)" fill="#ffa412"/>
            <rect id="Rectángulo_37294" data-name="Rectángulo 37294" width="0.585" height="4.808" transform="translate(31.352 0)" fill="#ffa412"/>
            <rect id="Rectángulo_37295" data-name="Rectángulo 37295" width="0.585" height="4.808" transform="translate(32.555 0)" fill="#ffa412"/>
            <path id="Trazado_137562" data-name="Trazado 137562" d="M1319.353,1550.949v4.775a1.443,1.443,0,0,1-.22.017h-.366v-4.808h.366A1.443,1.443,0,0,1,1319.353,1550.949Z" transform="translate(-1285.307 -1550.932)" fill="#ffa412"/>
            <path id="Trazado_137563" data-name="Trazado 137563" d="M1325.675,1551.871v3.884a1.24,1.24,0,0,1-.585.392v-4.667A1.243,1.243,0,0,1,1325.675,1551.871Z" transform="translate(-1290.816 -1551.409)" fill="#ffa412"/>
          </g>
        </g>
        <g id="Grupo_106098" data-name="Grupo 106098" transform="translate(2.661 19.107)">
          <path id="Trazado_137564" data-name="Trazado 137564" d="M986.307,1515.528v2.716a.924.924,0,0,1-.214.584,1.241,1.241,0,0,1-.585.392,1.346,1.346,0,0,1-.228.054,1.444,1.444,0,0,1-.22.017h-51.5a1.428,1.428,0,0,1-.575-.119,1.068,1.068,0,0,1-.666-.827c0-.016,0-.031,0-.047s0-.036,0-.054v-2.716c0-.018,0-.036,0-.054a1.177,1.177,0,0,1,1.245-.993h51.5a1.444,1.444,0,0,1,.22.017,1.346,1.346,0,0,1,.228.054,1.24,1.24,0,0,1,.585.392A.925.925,0,0,1,986.307,1515.528Z" transform="translate(-932.312 -1514.482)" fill="#ffb93e"/>
          <path id="Trazado_137565" data-name="Trazado 137565" d="M961.017,1519.29H933.424a1.155,1.155,0,0,1-.512-.119,1.051,1.051,0,0,1-.595-.827c0-.016,0-.031,0-.047s0-.036,0-.054v-2.716c0-.018,0-.036,0-.054a1.089,1.089,0,0,1,1.111-.993h24.2a8.439,8.439,0,0,0,3.219,4.69Z" transform="translate(-932.312 -1514.482)" fill="#ffa412"/>
          <g id="Grupo_106097" data-name="Grupo 106097" transform="translate(18.923 0)">
            <rect id="Rectángulo_37296" data-name="Rectángulo 37296" width="0.585" height="4.808" transform="translate(28.22 0)" fill="#ffa412"/>
            <rect id="Rectángulo_37297" data-name="Rectángulo 37297" width="0.585" height="4.808" transform="translate(26.238 0)" fill="#ffa412"/>
            <rect id="Rectángulo_37298" data-name="Rectángulo 37298" width="0.585" height="4.808" transform="translate(23.862 0)" fill="#ffa412"/>
            <rect id="Rectángulo_37299" data-name="Rectángulo 37299" width="0.585" height="4.808" transform="translate(20.22 0)" fill="#ffa412"/>
            <rect id="Rectángulo_37300" data-name="Rectángulo 37300" width="0.585" height="4.808" transform="translate(16.369 0)" fill="#ffa412"/>
            <rect id="Rectángulo_37301" data-name="Rectángulo 37301" width="0.585" height="4.808" transform="translate(10.465 0)" fill="#ffa412"/>
            <rect id="Rectángulo_37302" data-name="Rectángulo 37302" width="0.585" height="4.808" transform="translate(4.936 0)" fill="#ffa412"/>
            <rect id="Rectángulo_37303" data-name="Rectángulo 37303" width="0.585" height="4.808" transform="translate(0 0)" fill="#ffa412"/>
            <rect id="Rectángulo_37304" data-name="Rectángulo 37304" width="0.585" height="4.808" transform="translate(30.106 0)" fill="#ffa412"/>
            <rect id="Rectángulo_37305" data-name="Rectángulo 37305" width="0.585" height="4.808" transform="translate(31.352 0)" fill="#ffa412"/>
            <rect id="Rectángulo_37306" data-name="Rectángulo 37306" width="0.585" height="4.808" transform="translate(32.555 0)" fill="#ffa412"/>
            <path id="Trazado_137566" data-name="Trazado 137566" d="M1340.037,1514.5v4.775a1.432,1.432,0,0,1-.22.017h-.366v-4.808h.366A1.447,1.447,0,0,1,1340.037,1514.5Z" transform="translate(-1305.991 -1514.483)" fill="#ffa412"/>
            <path id="Trazado_137567" data-name="Trazado 137567" d="M1346.358,1515.423v3.884a1.24,1.24,0,0,1-.585.392v-4.667A1.241,1.241,0,0,1,1346.358,1515.423Z" transform="translate(-1311.499 -1514.96)" fill="#ffa412"/>
          </g>
        </g>
        <g id="Grupo_106100" data-name="Grupo 106100" transform="translate(6.87 14.298)">
          <path id="Trazado_137568" data-name="Trazado 137568" d="M1019.019,1478.159v2.715a.924.924,0,0,1-.214.584,1.239,1.239,0,0,1-.585.391,1.326,1.326,0,0,1-.228.054,1.431,1.431,0,0,1-.22.017h-51.5a1.176,1.176,0,0,1-1.245-.993c0-.018,0-.036,0-.054v-2.715c0-.018,0-.036,0-.054a1.149,1.149,0,0,1,1.1-.985,1.4,1.4,0,0,1,.147-.008h51.5a1.431,1.431,0,0,1,.22.017,1.337,1.337,0,0,1,.228.054,1.242,1.242,0,0,1,.585.392A.924.924,0,0,1,1019.019,1478.159Z" transform="translate(-965.024 -1477.112)" fill="#ffb93e"/>
          <path id="Trazado_137569" data-name="Trazado 137569" d="M993.729,1481.92H966.136a1.089,1.089,0,0,1-1.111-.993c0-.018,0-.036,0-.054v-2.715c0-.018,0-.036,0-.054a1.08,1.08,0,0,1,.979-.985,1.108,1.108,0,0,1,.132-.008h24.2l0,.008A8.428,8.428,0,0,0,993.729,1481.92Z" transform="translate(-965.024 -1477.112)" fill="#ffa412"/>
          <g id="Grupo_106099" data-name="Grupo 106099" transform="translate(18.923)">
            <rect id="Rectángulo_37307" data-name="Rectángulo 37307" width="0.585" height="4.808" transform="translate(28.22 0)" fill="#ffa412"/>
            <rect id="Rectángulo_37308" data-name="Rectángulo 37308" width="0.585" height="4.808" transform="translate(26.238 0)" fill="#ffa412"/>
            <rect id="Rectángulo_37309" data-name="Rectángulo 37309" width="0.585" height="4.808" transform="translate(23.862 0)" fill="#ffa412"/>
            <rect id="Rectángulo_37310" data-name="Rectángulo 37310" width="0.585" height="4.808" transform="translate(20.22 0)" fill="#ffa412"/>
            <rect id="Rectángulo_37311" data-name="Rectángulo 37311" width="0.585" height="4.808" transform="translate(16.369 0)" fill="#ffa412"/>
            <rect id="Rectángulo_37312" data-name="Rectángulo 37312" width="0.585" height="4.808" transform="translate(10.465 0)" fill="#ffa412"/>
            <rect id="Rectángulo_37313" data-name="Rectángulo 37313" width="0.585" height="4.808" transform="translate(4.936 0)" fill="#ffa412"/>
            <rect id="Rectángulo_37314" data-name="Rectángulo 37314" width="0.585" height="4.808" transform="translate(0 0)" fill="#ffa412"/>
            <rect id="Rectángulo_37315" data-name="Rectángulo 37315" width="0.585" height="4.808" transform="translate(30.106 0)" fill="#ffa412"/>
            <rect id="Rectángulo_37316" data-name="Rectángulo 37316" width="0.585" height="4.808" transform="translate(31.352 0)" fill="#ffa412"/>
            <rect id="Rectángulo_37317" data-name="Rectángulo 37317" width="0.585" height="4.808" transform="translate(32.555 0)" fill="#ffa412"/>
            <path id="Trazado_137570" data-name="Trazado 137570" d="M1372.749,1477.129v4.775a1.43,1.43,0,0,1-.22.017h-.366v-4.808h.366A1.445,1.445,0,0,1,1372.749,1477.129Z" transform="translate(-1338.704 -1477.112)" fill="#ffa412"/>
            <path id="Trazado_137571" data-name="Trazado 137571" d="M1379.072,1478.052v3.884a1.24,1.24,0,0,1-.585.392v-4.667A1.242,1.242,0,0,1,1379.072,1478.052Z" transform="translate(-1344.213 -1477.589)" fill="#ffa412"/>
          </g>
        </g>
        <g id="Grupo_106102" data-name="Grupo 106102" transform="translate(0.108 9.498)">
          <path id="Trazado_137572" data-name="Trazado 137572" d="M966.466,1440.848v2.715a.924.924,0,0,1-.214.584,1.24,1.24,0,0,1-.585.392,1.355,1.355,0,0,1-.228.054l-.072.009c-.019,0-.039,0-.058,0l-.029,0H913.717a1.177,1.177,0,0,1-1.245-.993c0-.018,0-.036,0-.054v-2.715c0-.018,0-.036,0-.054a1.177,1.177,0,0,1,1.245-.993h51.5l.066,0a1.494,1.494,0,0,1,.154.015,1.332,1.332,0,0,1,.228.054c.037.012.074.025.108.04l.064.029.007,0,.063.033.01.006c.019.01.038.022.056.034a1.072,1.072,0,0,1,.124.091c.012.01.024.02.035.031l.006.006.021.02,0,0,.037.038c.017.019.034.037.05.057A.924.924,0,0,1,966.466,1440.848Z" transform="translate(-912.471 -1439.801)" fill="#ffb93e"/>
          <path id="Trazado_137573" data-name="Trazado 137573" d="M941.176,1444.609H913.584a1.089,1.089,0,0,1-1.111-.993c0-.018,0-.036,0-.054v-2.715c0-.018,0-.036,0-.054a1.089,1.089,0,0,1,1.111-.993h24.2c.01.036.02.073.032.111a8.412,8.412,0,0,0,3.346,4.689Z" transform="translate(-912.471 -1439.801)" fill="#ffa412"/>
          <g id="Grupo_106101" data-name="Grupo 106101" transform="translate(18.923)">
            <rect id="Rectángulo_37318" data-name="Rectángulo 37318" width="0.585" height="4.808" transform="translate(28.22 0)" fill="#ffa412"/>
            <rect id="Rectángulo_37319" data-name="Rectángulo 37319" width="0.585" height="4.808" transform="translate(26.238 0)" fill="#ffa412"/>
            <rect id="Rectángulo_37320" data-name="Rectángulo 37320" width="0.585" height="4.808" transform="translate(23.862 0)" fill="#ffa412"/>
            <rect id="Rectángulo_37321" data-name="Rectángulo 37321" width="0.585" height="4.808" transform="translate(20.22 0)" fill="#ffa412"/>
            <rect id="Rectángulo_37322" data-name="Rectángulo 37322" width="0.585" height="4.808" transform="translate(16.369 0)" fill="#ffa412"/>
            <rect id="Rectángulo_37323" data-name="Rectángulo 37323" width="0.585" height="4.808" transform="translate(10.465 0)" fill="#ffa412"/>
            <rect id="Rectángulo_37324" data-name="Rectángulo 37324" width="0.585" height="4.808" transform="translate(4.936 0)" fill="#ffa412"/>
            <rect id="Rectángulo_37325" data-name="Rectángulo 37325" width="0.585" height="4.808" transform="translate(0 0)" fill="#ffa412"/>
            <rect id="Rectángulo_37326" data-name="Rectángulo 37326" width="0.585" height="4.808" transform="translate(30.106 0)" fill="#ffa412"/>
            <rect id="Rectángulo_37327" data-name="Rectángulo 37327" width="0.585" height="4.808" transform="translate(31.352 0)" fill="#ffa412"/>
            <rect id="Rectángulo_37328" data-name="Rectángulo 37328" width="0.585" height="4.808" transform="translate(32.555 0)" fill="#ffa412"/>
            <path id="Trazado_137574" data-name="Trazado 137574" d="M1320.195,1439.818v4.775a1.463,1.463,0,0,1-.22.017h-.366V1439.8h.366A1.447,1.447,0,0,1,1320.195,1439.818Z" transform="translate(-1286.149 -1439.801)" fill="#ffa412"/>
            <path id="Trazado_137575" data-name="Trazado 137575" d="M1326.517,1440.741v3.884a1.24,1.24,0,0,1-.585.392v-4.667A1.242,1.242,0,0,1,1326.517,1440.741Z" transform="translate(-1291.658 -1440.279)" fill="#ffa412"/>
          </g>
        </g>
        <g id="Grupo_106104" data-name="Grupo 106104" transform="translate(3.895 4.801)">
          <path id="Trazado_137576" data-name="Trazado 137576" d="M995.9,1404.34v2.715a.925.925,0,0,1-.214.584,1.238,1.238,0,0,1-.585.391,1.319,1.319,0,0,1-.228.054,1.429,1.429,0,0,1-.22.017h-51.5a1.424,1.424,0,0,1-.557-.111,1.071,1.071,0,0,1-.685-.839c0-.014,0-.028,0-.043s0-.036,0-.054v-2.715c0-.018,0-.036,0-.054a1.148,1.148,0,0,1,1.1-.985,1.392,1.392,0,0,1,.147-.008h51.5a1.429,1.429,0,0,1,.22.017,1.33,1.33,0,0,1,.228.054,1.241,1.241,0,0,1,.585.392A.924.924,0,0,1,995.9,1404.34Z" transform="translate(-941.901 -1403.294)" fill="#ffb93e"/>
          <path id="Trazado_137577" data-name="Trazado 137577" d="M970.606,1408.1H943.013a1.154,1.154,0,0,1-.5-.111,1.053,1.053,0,0,1-.611-.839c0-.014,0-.028,0-.043s0-.036,0-.054v-2.715c0-.018,0-.036,0-.054a1.08,1.08,0,0,1,.979-.985,1.107,1.107,0,0,1,.132-.008h24.2l0,.008a8.435,8.435,0,0,0,3.228,4.689C970.5,1408.029,970.552,1408.066,970.606,1408.1Z" transform="translate(-941.901 -1403.294)" fill="#ffa412"/>
          <g id="Grupo_106103" data-name="Grupo 106103" transform="translate(18.923)">
            <rect id="Rectángulo_37329" data-name="Rectángulo 37329" width="0.585" height="4.808" transform="translate(28.22 0)" fill="#ffa412"/>
            <rect id="Rectángulo_37330" data-name="Rectángulo 37330" width="0.585" height="4.808" transform="translate(26.238 0)" fill="#ffa412"/>
            <rect id="Rectángulo_37331" data-name="Rectángulo 37331" width="0.585" height="4.808" transform="translate(23.862 0)" fill="#ffa412"/>
            <rect id="Rectángulo_37332" data-name="Rectángulo 37332" width="0.585" height="4.808" transform="translate(20.22 0)" fill="#ffa412"/>
            <rect id="Rectángulo_37333" data-name="Rectángulo 37333" width="0.585" height="4.808" transform="translate(16.369 0)" fill="#ffa412"/>
            <rect id="Rectángulo_37334" data-name="Rectángulo 37334" width="0.585" height="4.808" transform="translate(10.465 0)" fill="#ffa412"/>
            <rect id="Rectángulo_37335" data-name="Rectángulo 37335" width="0.585" height="4.808" transform="translate(4.936 0)" fill="#ffa412"/>
            <rect id="Rectángulo_37336" data-name="Rectángulo 37336" width="0.585" height="4.808" transform="translate(0 0)" fill="#ffa412"/>
            <rect id="Rectángulo_37337" data-name="Rectángulo 37337" width="0.585" height="4.808" transform="translate(30.106 0)" fill="#ffa412"/>
            <rect id="Rectángulo_37338" data-name="Rectángulo 37338" width="0.585" height="4.808" transform="translate(31.352 0)" fill="#ffa412"/>
            <rect id="Rectángulo_37339" data-name="Rectángulo 37339" width="0.585" height="4.808" transform="translate(32.555 0)" fill="#ffa412"/>
            <path id="Trazado_137578" data-name="Trazado 137578" d="M1349.624,1403.31v4.775a1.447,1.447,0,0,1-.22.017h-.366v-4.808h.366A1.447,1.447,0,0,1,1349.624,1403.31Z" transform="translate(-1315.578 -1403.293)" fill="#ffa412"/>
            <path id="Trazado_137579" data-name="Trazado 137579" d="M1355.947,1404.234v3.884a1.238,1.238,0,0,1-.585.392v-4.667A1.241,1.241,0,0,1,1355.947,1404.234Z" transform="translate(-1321.088 -1403.771)" fill="#ffa412"/>
          </g>
        </g>
        <g id="Grupo_106106" data-name="Grupo 106106" transform="translate(5.507 0)">
          <path id="Trazado_137580" data-name="Trazado 137580" d="M1008.424,1367.028v2.715a.925.925,0,0,1-.214.584,1.241,1.241,0,0,1-.585.392,1.331,1.331,0,0,1-.228.054l-.072.009-.041,0-.041,0-.066,0h-51.5a1.176,1.176,0,0,1-1.245-.993c0-.018,0-.036,0-.054v-2.715c0-.018,0-.036,0-.054a1.176,1.176,0,0,1,1.245-.993h51.5a1.428,1.428,0,0,1,.219.017,1.331,1.331,0,0,1,.228.054,1.243,1.243,0,0,1,.585.392A.925.925,0,0,1,1008.424,1367.028Z" transform="translate(-954.429 -1365.982)" fill="#ffb93e"/>
          <path id="Trazado_137581" data-name="Trazado 137581" d="M983.134,1370.79H955.542a1.089,1.089,0,0,1-1.111-.993c0-.018,0-.036,0-.054v-2.715c0-.018,0-.036,0-.054a1.089,1.089,0,0,1,1.111-.993h24.2a8.428,8.428,0,0,0,3.377,4.8Z" transform="translate(-954.429 -1365.982)" fill="#ffa412"/>
          <g id="Grupo_106105" data-name="Grupo 106105" transform="translate(18.923)">
            <rect id="Rectángulo_37340" data-name="Rectángulo 37340" width="0.585" height="4.808" transform="translate(28.22 0)" fill="#ffa412"/>
            <rect id="Rectángulo_37341" data-name="Rectángulo 37341" width="0.585" height="4.808" transform="translate(26.238 0)" fill="#ffa412"/>
            <rect id="Rectángulo_37342" data-name="Rectángulo 37342" width="0.585" height="4.808" transform="translate(23.862 0)" fill="#ffa412"/>
            <rect id="Rectángulo_37343" data-name="Rectángulo 37343" width="0.585" height="4.808" transform="translate(20.22 0)" fill="#ffa412"/>
            <rect id="Rectángulo_37344" data-name="Rectángulo 37344" width="0.585" height="4.808" transform="translate(16.369 0)" fill="#ffa412"/>
            <rect id="Rectángulo_37345" data-name="Rectángulo 37345" width="0.585" height="4.808" transform="translate(10.465 0)" fill="#ffa412"/>
            <rect id="Rectángulo_37346" data-name="Rectángulo 37346" width="0.585" height="4.808" transform="translate(4.936 0)" fill="#ffa412"/>
            <rect id="Rectángulo_37347" data-name="Rectángulo 37347" width="0.586" height="4.808" transform="translate(0 0)" fill="#ffa412"/>
            <rect id="Rectángulo_37348" data-name="Rectángulo 37348" width="0.585" height="4.808" transform="translate(30.106 0)" fill="#ffa412"/>
            <rect id="Rectángulo_37349" data-name="Rectángulo 37349" width="0.585" height="4.808" transform="translate(31.352 0)" fill="#ffa412"/>
            <rect id="Rectángulo_37350" data-name="Rectángulo 37350" width="0.585" height="4.808" transform="translate(32.555 0)" fill="#ffa412"/>
            <path id="Trazado_137582" data-name="Trazado 137582" d="M1362.152,1366v4.775a1.46,1.46,0,0,1-.22.017h-.366v-4.808h.366A1.46,1.46,0,0,1,1362.152,1366Z" transform="translate(-1328.107 -1365.981)" fill="#ffa412"/>
            <path id="Trazado_137583" data-name="Trazado 137583" d="M1368.475,1366.922v3.884a1.24,1.24,0,0,1-.585.392v-4.667A1.24,1.24,0,0,1,1368.475,1366.922Z" transform="translate(-1333.616 -1366.459)" fill="#ffa412"/>
          </g>
        </g>
      </g>
      <g id="Grupo_106110" data-name="Grupo 106110" transform="translate(198.389 493.429)">
        <circle id="Elipse_5301" data-name="Elipse 5301" cx="24.477" cy="24.477" r="24.477" transform="translate(2.135 0)" fill="#e2810e"/>
        <circle id="Elipse_5302" data-name="Elipse 5302" cx="24.477" cy="24.477" r="24.477" transform="translate(0 0)" fill="#ffb93e"/>
        <g id="Grupo_106108" data-name="Grupo 106108" transform="translate(2.176 2.465)">
          <path id="Trazado_137584" data-name="Trazado 137584" d="M763.589,1457.272a22.3,22.3,0,1,1,15.77-6.532A22.155,22.155,0,0,1,763.589,1457.272Zm0-43.273a20.971,20.971,0,1,0,20.971,20.971A20.995,20.995,0,0,0,763.589,1414Z" transform="translate(-741.287 -1412.669)" fill="#ffa412"/>
        </g>
        <g id="Grupo_106109" data-name="Grupo 106109" transform="translate(14.71 8.297)">
          <path id="Trazado_137585" data-name="Trazado 137585" d="M851.544,1480.936a3.679,3.679,0,0,0-.053-1.3,2.689,2.689,0,0,0-.547-1.075,5.08,5.08,0,0,0-1.095-.966,13.4,13.4,0,0,0-1.7-.95,35.139,35.139,0,0,1-3.133-1.722,11.1,11.1,0,0,1-2.343-1.907,6.529,6.529,0,0,1-1.384-2.324,7.37,7.37,0,0,1,.6-5.573,6.2,6.2,0,0,1,1.728-1.92,7.739,7.739,0,0,1,2.474-1.178,10.324,10.324,0,0,1,3.089-.356l.436-3.676,2.959.351-.442,3.727a9.255,9.255,0,0,1,2.785,1.184,7,7,0,0,1,3.117,4.472,9.313,9.313,0,0,1,.122,3.159l-5.344-.634a4.534,4.534,0,0,0-.549-3.192,3.149,3.149,0,0,0-2.329-1.313,4,4,0,0,0-1.461.062,2.711,2.711,0,0,0-1.065.518,2.529,2.529,0,0,0-.686.885,3.721,3.721,0,0,0-.326,1.163,3.405,3.405,0,0,0,.048,1.173,2.52,2.52,0,0,0,.525,1.029,5.094,5.094,0,0,0,1.1.967,17.231,17.231,0,0,0,1.764,1.019q1.714.883,3.1,1.761a11.233,11.233,0,0,1,2.332,1.923,6.306,6.306,0,0,1,1.623,5.288,6.737,6.737,0,0,1-.849,2.651,6.124,6.124,0,0,1-1.735,1.9,7.474,7.474,0,0,1-2.488,1.134,11.155,11.155,0,0,1-3.1.328l-.406,3.418-2.94-.349.4-3.4a12.485,12.485,0,0,1-2.888-1.022,7.92,7.92,0,0,1-2.366-1.787,7.087,7.087,0,0,1-1.485-2.658,8.627,8.627,0,0,1-.246-3.617l5.344.634a5.316,5.316,0,0,0,.1,2.076,3.437,3.437,0,0,0,.76,1.414,3.335,3.335,0,0,0,1.222.842,5.707,5.707,0,0,0,1.465.374,4.772,4.772,0,0,0,1.552-.042,3.183,3.183,0,0,0,1.174-.488,2.533,2.533,0,0,0,.777-.857A3.093,3.093,0,0,0,851.544,1480.936Z" transform="translate(-838.706 -1457.993)" fill="#ffa412"/>
        </g>
      </g>
      <g id="Grupo_106111" data-name="Grupo 106111" transform="translate(230.684 467.518)">
        <path id="Trazado_137586" data-name="Trazado 137586" d="M1104.3,1195.659s-1.855,2.611-3.555,2.647a12.422,12.422,0,0,1-4.287-1.21s-1.561-3.479-.5-4.841a2.273,2.273,0,0,1,2.172.357,3.339,3.339,0,0,1,.575.551,1.825,1.825,0,0,0,.893.605c1.213.369,2.653-.5,3.192.339a5.7,5.7,0,0,0,.938,1.11A4.269,4.269,0,0,0,1104.3,1195.659Z" transform="translate(-1080.125 -1192.124)" fill="#ffeddc"/>
        <path id="Trazado_137587" data-name="Trazado 137587" d="M975.382,1256.363s6.556-15.884,18.355-16.187c0,0,10.892,1.21,11.5,16.187Z" transform="translate(-975.382 -1233.994)" fill="#ffeddc"/>
        <path id="Trazado_137588" data-name="Trazado 137588" d="M1092.762,1230.023s4.73,1.052,6.189.434a1.461,1.461,0,0,0-1.771-1.7,4.179,4.179,0,0,1-2.773-.731C1093.667,1227.649,1092.565,1229.2,1092.762,1230.023Z" transform="translate(-1077.639 -1223.356)" fill="#db6a1d"/>
        <path id="Trazado_137589" data-name="Trazado 137589" d="M1116.569,1199.118c-.3.227-1.231-3.2-1.231-3.2a3.339,3.339,0,0,1,.575.551,1.825,1.825,0,0,0,.893.605C1116.808,1197.176,1116.863,1198.9,1116.569,1199.118Z" transform="translate(-1097.331 -1195.432)" fill="#e5c1a1"/>
        <path id="Trazado_137590" data-name="Trazado 137590" d="M1141.349,1208.647a19.462,19.462,0,0,1-2.55,1.349c-.3,0,1.613-2.46,1.613-2.46A5.687,5.687,0,0,0,1141.349,1208.647Z" transform="translate(-1117.745 -1205.554)" fill="#e5c1a1"/>
        <path id="Trazado_137591" data-name="Trazado 137591" d="M1025.141,1283.677c-.121-.1,4.639-7.009,5.95-7.059s4.257,1.513,6.39,1.714,4.2-.4,4.6.857,1.513,5.73.832,6.445S1027.759,1285.913,1025.141,1283.677Z" transform="translate(-1018.737 -1265.745)" fill="#f9ddbf"/>
      </g>
      <g id="Grupo_106117" data-name="Grupo 106117" transform="translate(267.159 421.365)">
        <g id="Grupo_106116" data-name="Grupo 106116" transform="translate(0 0)">
          <g id="Grupo_106115" data-name="Grupo 106115">
            <path id="Trazado_137592" data-name="Trazado 137592" d="M1286.719,1073.952c0-.072,1.059-2.261.722-2.43s-.94-.143-1.01.241A13.388,13.388,0,0,0,1286.719,1073.952Z" transform="translate(-1282.877 -1040.8)" fill="#ffb27d"/>
            <path id="Trazado_137593" data-name="Trazado 137593" d="M1411.577,850.589s6.209-7.461,9.5-2.687c0,0,2.452,1.017,3.339,5.191.9,4.258-1.927,7.5-3.391,6.7-.939-.513-1.65,1.13-1.65,1.13Z" transform="translate(-1391.93 -844.648)" fill="#233862"/>
            <path id="Trazado_137594" data-name="Trazado 137594" d="M1286.106,1036.2c-4.936-1.819-9.69-10.265-9.69-10.265l1.557-1.09c1.3,1.9,7.13,5.538,7.13,5.538.133-1.6.327-3.048.565-4.362,1.62-8.927,5.324-11.571,6.318-12.132a2.2,2.2,0,0,1,.251-.127s0,.066-.011.19c-.014.269-.046.81-.1,1.552C1291.742,1021.028,1290.23,1037.717,1286.106,1036.2Z" transform="translate(-1274.159 -990.555)" fill="#ffb27d"/>
            <path id="Trazado_137595" data-name="Trazado 137595" d="M1480.1,835.913s.835-3.339,5.739-2.3c0,0-2.348-.3-2.991.609,0,0,1.861-.852,3.026-.139s1.357,3.113,1.183,3.843-1.461,2.9-2.313,2.9a3.922,3.922,0,0,1-1.861-.748Z" transform="translate(-1451.641 -833.415)" fill="#233862"/>
            <path id="Trazado_137596" data-name="Trazado 137596" d="M1402.11,991.834c-2.438-5.469-3.6-7.015-3.646-8.736-.032-1.361.639-2.829,1.942-6.429a13.432,13.432,0,0,0,.649-2.6c1.031-6.94-2.983-14.442-5.477-14.953-.694-.183-1.87-2.69-1.856-6.729l-.312.062-5.252,1.04s.12,1.653.123,3.21c0,1.3-.075,2.528-.369,2.682-.378.034-.6.057-.6.057s-4.379,6.082-4.748,11.739,3.507,8.114-.029,19.417C1378.923,1002.136,1403.457,994.856,1402.11,991.834Z" transform="translate(-1366.307 -937.078)" fill="#ffb27d"/>
            <path id="Trazado_137597" data-name="Trazado 137597" d="M1428.7,953.9s.12,1.653.123,3.21c2.939-.083,4.493-2.764,5.129-4.25Z" transform="translate(-1406.852 -937.495)" fill="#e8945b"/>
            <path id="Trazado_137598" data-name="Trazado 137598" d="M1412.1,875.335a15.449,15.449,0,0,0,1.91-4.515c.264-1.486-.493-6.992-6.027-6.2a7.516,7.516,0,0,0-3.118,1.179c-1.2.811-2.936,2.563-1,7.369l.5,1.623Z" transform="translate(-1384.451 -860.538)" fill="#233862"/>
            <path id="Trazado_137599" data-name="Trazado 137599" d="M1405.389,892.944s6.954.115,6.958-4.217.906-7.234-3.534-7.49-5.3,1.4-5.657,2.841S1403.58,892.8,1405.389,892.944Z" transform="translate(-1384.52 -875.061)" fill="#ffb27d"/>
            <path id="Trazado_137600" data-name="Trazado 137600" d="M1423.073,874.629s1.9,5.082,4.826,5.833,4.189-.032,4.189-.032a8.274,8.274,0,0,1-2.706-4.888S1424.509,872.21,1423.073,874.629Z" transform="translate(-1401.947 -868.559)" fill="#233862"/>
            <path id="Trazado_137601" data-name="Trazado 137601" d="M1402.9,878.185a6.14,6.14,0,0,0-1.768,2.238c-.347,1.1-.5,3.374-1.164,3.3,0,0-1.434-3.454.178-5.408C1401.85,876.24,1402.9,878.185,1402.9,878.185Z" transform="translate(-1381.299 -871.703)" fill="#233862"/>
            <path id="Trazado_137602" data-name="Trazado 137602" d="M1393.785,1321.28a68.722,68.722,0,0,1-4.383,12.295l-2.293-.159a64.83,64.83,0,0,0,1.06-12.578,52.665,52.665,0,0,0-2.667-16.728c-6.861-19.6-5.752-33.857-5.752-33.857l12.9,1.509.6.071c.054,5.926.207,13.971.341,20.263.118,5.658.222,9.9.222,9.9C1396.3,1307.333,1395.4,1314.875,1393.785,1321.28Z" transform="translate(-1364.14 -1214.047)" fill="#163560"/>
            <path id="Trazado_137603" data-name="Trazado 137603" d="M1499.576,1042.333l-2.088.626s-6.887-11.426-7.513-14.4c-.2-.968-.7-2.9-1.289-5.075-1.209-4.494-2.77-9.993-2.77-9.993l-.514-2.226-1.753-7.592a23.79,23.79,0,0,1,5.32,1.164,2.44,2.44,0,0,1,1.319.975c1.442,3.171,2.882,11.175,3.894,16.884.564,3.182.994,5.652,1.219,6.176C1496.028,1030.333,1497.942,1038.368,1499.576,1042.333Z" transform="translate(-1454.73 -981.768)" fill="#ffb27d"/>
            <path id="Trazado_137604" data-name="Trazado 137604" d="M1443.789,1301.766a31.752,31.752,0,0,1-4.009,13.038l-1.1.8s-1.037-5.578-1.771-12.215c-.7-6.308-1.657-12.983-2.741-15.02-4.3-8.08-5.6-38.584-5.6-38.584l13.082-.649c1.316,2.212,1.889,5.84,2.026,9.965.344,10.41-2.1,23.985-2.469,25.948a.009.009,0,0,1,0,0,.682.682,0,0,0,.086.438C1443.9,1290.641,1444.278,1296.536,1443.789,1301.766Z" transform="translate(-1406.741 -1195.645)" fill="#1c468a"/>
            <path id="Trazado_137605" data-name="Trazado 137605" d="M1424.688,875.761s1.356,5.322,5.043,7.026c0,0-3.687-3.269-4-6.782S1424.688,875.761,1424.688,875.761Z" transform="translate(-1403.354 -869.108)" fill="#233862"/>
            <path id="Trazado_137606" data-name="Trazado 137606" d="M1387.561,1041.8a3.1,3.1,0,0,1-.081,1.045c-.278.876-1.234,1.275-3.545,1.036-1.413-.147-2.042-2.514-2.323-4.534q-1.272,4.334-3.572,4.852c-2.241.5-13.542,1.873-14.282-3.5-.814-5.909,1.623-16.372,1.757-22.013a27.909,27.909,0,0,1-.41-5.228c.094-4.019,1.274-6.271,2.181-7.178a3.1,3.1,0,0,1,1.545-.5c.527-.089,1.257-.193,2.292-.33a3.848,3.848,0,0,1,.413-.032c-.191.342-2.751,4.218-2.552,5.214.209,1.043,9.287.1,9.913-.47s1.617-4.969,1.617-4.969,3.215.351,4.787,1.495l-.017.02a1.327,1.327,0,0,1,.414.435c1.677,3.194,3.353,11.255,4.531,17.005a8.373,8.373,0,0,1-6.125.9C1385.115,1031.672,1387.411,1038.782,1387.561,1041.8Z" transform="translate(-1350.119 -983.095)" fill="#f99746"/>
            <path id="Trazado_137607" data-name="Trazado 137607" d="M1262.689,1062.476c0-.215.18-3.321-.373-3.973s-1.682-1.58-2.037-1.552a3.493,3.493,0,0,0-1.326,3.288,11.606,11.606,0,0,0,2.179,3.327Z" transform="translate(-1258.876 -1028.19)" fill="#ffb27d"/>
            <g id="Grupo_106112" data-name="Grupo 106112" transform="translate(0.382 23.954)">
              <path id="Trazado_137608" data-name="Trazado 137608" d="M1272.2,1026.124l-3.219.965a.2.2,0,0,1-.251-.135l-1.839-6.138a.2.2,0,0,1,.135-.251l3.219-.965a.2.2,0,0,1,.251.135l1.84,6.138A.2.2,0,0,1,1272.2,1026.124Z" transform="translate(-1266.238 -1019.59)" fill="#f1a34f"/>
              <path id="Trazado_137609" data-name="Trazado 137609" d="M1266.976,1028.027l-2.92.875a.358.358,0,0,1-.446-.24l-1.75-5.838a.358.358,0,0,1,.24-.446l2.92-.875a.358.358,0,0,1,.446.24l1.75,5.838A.358.358,0,0,1,1266.976,1028.027Z" transform="translate(-1261.846 -1021.244)" fill="#d86713"/>
            </g>
            <path id="Trazado_137610" data-name="Trazado 137610" d="M1500.267,1658.216a31.75,31.75,0,0,1-4.009,13.038l-1.115,1.016s-1.017-5.8-1.751-12.434A11.736,11.736,0,0,0,1500.267,1658.216Z" transform="translate(-1463.219 -1552.095)" fill="#ffb27d"/>
            <path id="Trazado_137611" data-name="Trazado 137611" d="M1444.074,1663.859a68.716,68.716,0,0,1-4.383,12.295L1437.4,1676a64.846,64.846,0,0,0,1.06-12.578C1439.236,1663.809,1440.842,1664.207,1444.074,1663.859Z" transform="translate(-1414.429 -1556.627)" fill="#d9935c"/>
            <g id="Grupo_106113" data-name="Grupo 106113" transform="translate(16.279 116.143)">
              <path id="Trazado_137612" data-name="Trazado 137612" d="M1395.705,1741.417h-1.464c-.49-.077-.853-.219-1.356-.285a1.357,1.357,0,0,0-1.185.285l-.013.015h-6.219c-.156-.223-.006-.741.141-1.122a.885.885,0,0,1,.582-.532,6.708,6.708,0,0,0,3.15-1.439c.67-.605,3.235-2.226,3.235-2.226l.013,0c.057,0,.325.084,1.491,1.068.6.508,1.631-.718,1.631-.718a1.464,1.464,0,0,1,.337.457,1.543,1.543,0,0,1,.133.955,6.2,6.2,0,0,0,.446,2.306c.145.427.267.729.267.729S1396.965,1741.26,1395.705,1741.417Z" transform="translate(-1385.402 -1736.11)" fill="#233862"/>
              <path id="Trazado_137613" data-name="Trazado 137613" d="M1444.635,1736.918a4.636,4.636,0,0,1-1.577.795c-.661.087-1.9-1.6-1.9-1.6l.014,0c.056,0,.324.084,1.491,1.068.6.508,1.631-.718,1.631-.718A1.464,1.464,0,0,1,1444.635,1736.918Z" transform="translate(-1433.989 -1736.11)" fill="#466aa5"/>
              <path id="Trazado_137614" data-name="Trazado 137614" d="M1395.705,1768.969h-1.464c-.49-.077-.853-.219-1.356-.285a1.356,1.356,0,0,0-1.185.285l-.013.015h-6.219c-.156-.224-.006-.741.141-1.122.189-.168.242.729.346.872a27.713,27.713,0,0,0,5.36-.157,3,3,0,0,1,2.348-.287,5.657,5.657,0,0,0,2.965-.56c.145.427.267.729.267.729S1396.965,1768.811,1395.705,1768.969Z" transform="translate(-1385.402 -1763.662)" fill="#466aa5"/>
            </g>
            <g id="Grupo_106114" data-name="Grupo 106114" transform="translate(24.091 116.143)">
              <path id="Trazado_137615" data-name="Trazado 137615" d="M1456.425,1741.417h-1.464c-.49-.077-.852-.219-1.355-.285a1.356,1.356,0,0,0-1.185.285l-.014.015h-6.219c-.156-.223-.006-.741.141-1.122a.885.885,0,0,1,.582-.532,6.708,6.708,0,0,0,3.15-1.439c.67-.605,3.235-2.226,3.235-2.226l.013,0c.057,0,.325.084,1.491,1.068.6.508,1.631-.718,1.631-.718a1.464,1.464,0,0,1,.337.457,1.545,1.545,0,0,1,.134.955,6.183,6.183,0,0,0,.446,2.306c.145.427.267.729.267.729S1457.684,1741.26,1456.425,1741.417Z" transform="translate(-1446.121 -1736.11)" fill="#233862"/>
              <path id="Trazado_137616" data-name="Trazado 137616" d="M1505.354,1736.918a4.635,4.635,0,0,1-1.577.795c-.66.087-1.9-1.6-1.9-1.6l.013,0c.056,0,.325.084,1.491,1.068.6.508,1.631-.718,1.631-.718A1.462,1.462,0,0,1,1505.354,1736.918Z" transform="translate(-1494.708 -1736.11)" fill="#466aa5"/>
              <path id="Trazado_137617" data-name="Trazado 137617" d="M1456.425,1768.969h-1.464c-.49-.077-.852-.219-1.355-.285a1.356,1.356,0,0,0-1.185.285l-.014.015h-6.219c-.156-.224-.006-.741.141-1.122.189-.168.242.729.347.872a27.714,27.714,0,0,0,5.36-.157,3,3,0,0,1,2.348-.287,5.656,5.656,0,0,0,2.964-.56c.145.427.267.729.267.729S1457.684,1768.811,1456.425,1768.969Z" transform="translate(-1446.121 -1763.662)" fill="#466aa5"/>
            </g>
            <path id="Trazado_137618" data-name="Trazado 137618" d="M1489.854,1134.078c-1.552-.519-3.544-1.9-5.937-4.989-6.333-8.185-.538-17.8.239-17.984s2.239,6.223,2.239,6.223C1487.408,1123.951,1489.7,1131.06,1489.854,1134.078Z" transform="translate(-1452.411 -1075.374)" fill="#ef7e29"/>
            <path id="Trazado_137619" data-name="Trazado 137619" d="M1356.164,1012.184s-4.337,2.182-5.781,10.989a7.5,7.5,0,0,0,3.421,2.521,4,4,0,0,0,.891.152C1357.151,1025.978,1356.164,1012.184,1356.164,1012.184Z" transform="translate(-1338.609 -989.183)" fill="#f99746"/>
            <path id="Trazado_137620" data-name="Trazado 137620" d="M1267.2,1045.588s1.34-2.062,1.668-1.948c.468.164-1.215,2.781-1.215,2.781s1.247-1.955,1.442-1.808c.444.335-.263,1.564-.963,2.506,0,0,1.254-1.148,1.295-.941.143.724-1.377,2.48-1.377,2.48l-.849-1.94Z" transform="translate(-1266.133 -1016.588)" fill="#ffb27d"/>
            <path id="Trazado_137621" data-name="Trazado 137621" d="M1259.39,1041.582c.065-.252.392-5.177.532-4.71s.474,3.05.474,3.05Z" transform="translate(-1259.324 -1010.668)" fill="#ffb27d"/>
          </g>
        </g>
        <path id="Trazado_137622" data-name="Trazado 137622" d="M1415.214,950.212s-.12.51-1.39.432c0,0-1.066-.066-1.033-.627A3.43,3.43,0,0,1,1415.214,950.212Z" transform="translate(-1392.987 -934.9)" fill="#fff"/>
      </g>
      <g id="Grupo_106119" data-name="Grupo 106119" transform="translate(262.341 429.937)">
        <g id="Grupo_106118" data-name="Grupo 106118" transform="translate(2.671 1.322)">
          <path id="Trazado_137623" data-name="Trazado 137623" d="M1244.753,914.786a.725.725,0,0,0-.037-.254.531.531,0,0,0-.13-.2,1,1,0,0,0-.235-.168,2.649,2.649,0,0,0-.354-.152,6.941,6.941,0,0,1-.652-.275,2.193,2.193,0,0,1-.5-.327,1.3,1.3,0,0,1-.32-.429,1.46,1.46,0,0,1,0-1.109,1.228,1.228,0,0,1,.3-.413,1.534,1.534,0,0,1,.463-.283,2.045,2.045,0,0,1,.6-.133l.01-.732.59.009-.011.742a1.839,1.839,0,0,1,.572.176,1.385,1.385,0,0,1,.7.816,1.846,1.846,0,0,1,.089.619l-1.065-.015a.9.9,0,0,0-.173-.617.623.623,0,0,0-.485-.211.789.789,0,0,0-.286.042.538.538,0,0,0-.2.124.5.5,0,0,0-.117.188.729.729,0,0,0-.04.236.669.669,0,0,0,.033.23.5.5,0,0,0,.124.192,1.007,1.007,0,0,0,.237.168,3.394,3.394,0,0,0,.368.165q.355.139.646.283a2.227,2.227,0,0,1,.5.331,1.246,1.246,0,0,1,.428,1.008,1.335,1.335,0,0,1-.113.539,1.218,1.218,0,0,1-.3.41,1.478,1.478,0,0,1-.466.274,2.2,2.2,0,0,1-.6.128l-.01.681-.586-.008.01-.678a2.471,2.471,0,0,1-.589-.142,1.564,1.564,0,0,1-.5-.3,1.4,1.4,0,0,1-.347-.493,1.708,1.708,0,0,1-.122-.707l1.065.015a1.049,1.049,0,0,0,.062.407.677.677,0,0,0,.178.263.658.658,0,0,0,.258.141,1.125,1.125,0,0,0,.3.044.947.947,0,0,0,.3-.04.634.634,0,0,0,.221-.12.5.5,0,0,0,.135-.185A.609.609,0,0,0,1244.753,914.786Z" transform="translate(-1242.185 -910.31)" fill="#85d161"/>
        </g>
      </g>
      <g id="Grupo_106121" data-name="Grupo 106121" transform="translate(271.045 405.126)">
        <g id="Grupo_106120" data-name="Grupo 106120" transform="translate(6.674 4.721)">
          <path id="Trazado_137624" data-name="Trazado 137624" d="M1344.663,750.371a1.051,1.051,0,0,0-.053-.367.769.769,0,0,0-.188-.29,1.46,1.46,0,0,0-.34-.243,3.834,3.834,0,0,0-.511-.22,10.011,10.011,0,0,1-.944-.4,3.17,3.17,0,0,1-.724-.474,1.869,1.869,0,0,1-.463-.621,2.111,2.111,0,0,1,0-1.605,1.773,1.773,0,0,1,.436-.6,2.212,2.212,0,0,1,.67-.409,2.96,2.96,0,0,1,.87-.193l.016-1.06.853.012-.016,1.075a2.647,2.647,0,0,1,.828.255,2,2,0,0,1,1.02,1.182,2.669,2.669,0,0,1,.128.9l-1.541-.022a1.3,1.3,0,0,0-.251-.893.9.9,0,0,0-.7-.3,1.146,1.146,0,0,0-.414.061.778.778,0,0,0-.288.179.724.724,0,0,0-.169.273,1.067,1.067,0,0,0-.058.341.98.98,0,0,0,.048.333.719.719,0,0,0,.18.278,1.459,1.459,0,0,0,.343.243,4.946,4.946,0,0,0,.533.238q.514.2.935.41a3.22,3.22,0,0,1,.721.479,1.805,1.805,0,0,1,.619,1.458,1.931,1.931,0,0,1-.163.78,1.753,1.753,0,0,1-.438.593,2.134,2.134,0,0,1-.675.4,3.186,3.186,0,0,1-.874.185l-.014.986-.848-.012.014-.981a3.58,3.58,0,0,1-.853-.206,2.269,2.269,0,0,1-.727-.439,2.031,2.031,0,0,1-.5-.713,2.466,2.466,0,0,1-.177-1.023l1.541.022a1.522,1.522,0,0,0,.09.589.984.984,0,0,0,.259.38.955.955,0,0,0,.373.2,1.639,1.639,0,0,0,.428.063,1.364,1.364,0,0,0,.441-.058.911.911,0,0,0,.32-.174.728.728,0,0,0,.2-.267A.883.883,0,0,0,1344.663,750.371Z" transform="translate(-1340.946 -743.893)" fill="#85d161"/>
        </g>
      </g>
      <g id="Grupo_106123" data-name="Grupo 106123" transform="translate(257.848 372.386)">
        <g id="Grupo_106122" data-name="Grupo 106122" transform="translate(8.444 4.815)">
          <path id="Trazado_137625" data-name="Trazado 137625" d="M1259.044,502.2a1.954,1.954,0,0,0-.1-.683,1.432,1.432,0,0,0-.349-.539,2.706,2.706,0,0,0-.633-.451,7.169,7.169,0,0,0-.951-.41,18.676,18.676,0,0,1-1.754-.74,5.9,5.9,0,0,1-1.346-.881,3.475,3.475,0,0,1-.861-1.155,3.923,3.923,0,0,1,.009-2.984,3.3,3.3,0,0,1,.809-1.112,4.121,4.121,0,0,1,1.246-.76,5.5,5.5,0,0,1,1.617-.359l.029-1.971,1.586.023-.029,2a4.93,4.93,0,0,1,1.54.474,3.724,3.724,0,0,1,1.9,2.2,4.953,4.953,0,0,1,.239,1.666l-2.865-.042a2.414,2.414,0,0,0-.467-1.66,1.677,1.677,0,0,0-1.305-.567,2.134,2.134,0,0,0-.77.113,1.447,1.447,0,0,0-.535.333,1.347,1.347,0,0,0-.315.507,1.981,1.981,0,0,0-.108.634,1.817,1.817,0,0,0,.09.618,1.341,1.341,0,0,0,.335.516,2.715,2.715,0,0,0,.638.451,9.172,9.172,0,0,0,.99.443q.956.373,1.739.762a5.988,5.988,0,0,1,1.34.89,3.357,3.357,0,0,1,1.15,2.711,3.588,3.588,0,0,1-.3,1.451,3.262,3.262,0,0,1-.814,1.1,3.978,3.978,0,0,1-1.255.737,5.931,5.931,0,0,1-1.626.345l-.026,1.833-1.576-.023.026-1.823a6.645,6.645,0,0,1-1.586-.382,4.211,4.211,0,0,1-1.352-.816,3.774,3.774,0,0,1-.933-1.326,4.6,4.6,0,0,1-.329-1.9l2.865.042a2.83,2.83,0,0,0,.167,1.094,1.829,1.829,0,0,0,.481.707,1.777,1.777,0,0,0,.693.379,3.041,3.041,0,0,0,.8.117,2.536,2.536,0,0,0,.819-.108,1.693,1.693,0,0,0,.595-.323,1.347,1.347,0,0,0,.364-.5A1.646,1.646,0,0,0,1259.044,502.2Z" transform="translate(-1252.134 -490.153)" fill="#85d161"/>
        </g>
      </g>
      <g id="Grupo_106127" data-name="Grupo 106127" transform="translate(140.768 418.451)">
        <g id="man" transform="translate(0 0)">
          <path id="Trazado_137626" data-name="Trazado 137626" d="M751.776,1005.057c-.523,1.4-1.428,3.036-2.379,3.441a3.682,3.682,0,0,0-1.527,1.109l-.87-.505-1.039-.6s.025-.115.075-.3.128-.448.234-.737a1.006,1.006,0,0,0,.123-.925,2.147,2.147,0,0,1,.177-1.794c.333-.484.655-1.678.856-1.643.486.084-.239,1.724-.031,2.029a.359.359,0,0,0,.467.16l.008,0c1.364-.6,3.017-3.832,3.75-3.4A6.542,6.542,0,0,1,751.776,1005.057Z" transform="translate(-685.562 -977.26)" fill="#ffb27d"/>
          <g id="Grupo_106124" data-name="Grupo 106124" transform="translate(61.383 23.041)">
            <path id="Trazado_137627" data-name="Trazado 137627" d="M753.727,996.555l1.708,1.2a.269.269,0,0,0,.374-.065l4.376-6.227a.269.269,0,0,0-.065-.373l-1.708-1.2a.269.269,0,0,0-.374.065l-4.376,6.226A.269.269,0,0,0,753.727,996.555Z" transform="translate(-753.613 -989.841)" fill="#2b478b"/>
            <path id="Trazado_137628" data-name="Trazado 137628" d="M766.066,1005.175l1,.7a.2.2,0,0,0,.284-.05l4.45-6.331a.2.2,0,0,0-.05-.284l-1-.7a.2.2,0,0,0-.284.05l-4.45,6.331A.2.2,0,0,0,766.066,1005.175Z" transform="translate(-764.388 -997.362)" fill="#233862"/>
          </g>
          <path id="Trazado_137629" data-name="Trazado 137629" d="M532,972.579s8.692,15.16,11.845,17.95l11.562-8.62a4.22,4.22,0,0,1,2.412,2.2s-7.021,14.3-13.934,14.911-16.616-17.146-16.616-17.146Z" transform="translate(-495.009 -951.759)" fill="#233862"/>
          <g id="Grupo_106125" data-name="Grupo 106125" transform="translate(8.424 55.854)">
            <path id="Trazado_137630" data-name="Trazado 137630" d="M350.9,1704.968h-5.022a3.044,3.044,0,0,1-1.374-2.3c-.245-1.618-2.059-2.5-2.451-3.824s1.618-3.185,1.618-3.185l.336-.433.35-.45,3.333.785s.083.794.133,1.805a23.1,23.1,0,0,1,.014,2.312c-.1,1.764.493,3.665,2.061,4.008C351.057,1703.939,351.005,1704.627,350.9,1704.968Z" transform="translate(-342.002 -1636.89)" fill="#233862"/>
            <path id="Trazado_137631" data-name="Trazado 137631" d="M557.389,1734.226H545.9c-.552-.674-.349-3.161-.265-3.974.017-.164.029-.259.029-.259s3.922-3.137,4.461-.735c.016.075.036.149.058.222.679,2.247,3.723,3.268,5.481,3.552A1.991,1.991,0,0,1,557.389,1734.226Z" transform="translate(-519.346 -1666.147)" fill="#233862"/>
            <path id="Trazado_137632" data-name="Trazado 137632" d="M507.991,1268.759s-.6,7.43-1.3,16.361c-.951,12.132-2.1,27.035-2.209,29.858-.2,4.9-.981,12.744-.981,12.744s-1.862,1.863-5.588,1.078a128.285,128.285,0,0,1-4.269-23.039l-.044-.585c-.882-12.057-2.254-37.447-2.254-37.447Z" transform="translate(-472.136 -1264.789)" fill="#f99746"/>
            <path id="Trazado_137633" data-name="Trazado 137633" d="M507.991,1268.759s-.6,7.43-1.3,16.361l-13.046,20.642-.044-.585c-.882-12.057-2.254-37.447-2.254-37.447Z" transform="translate(-472.136 -1264.789)" fill="#ed7d2b"/>
            <path id="Trazado_137634" data-name="Trazado 137634" d="M386.437,1249.726s-10.734,26.909-17.792,39.555-9.264,16.175-9.264,16.175-4.044-1.617-4.411-2.72c0,0,2.7-24.413,7.426-30.364,2.671-3.363,5.808-13.454,5.955-16.983s.956-10.514.956-10.514Z" transform="translate(-353.301 -1244.874)" fill="#f99746"/>
          </g>
          <path id="Trazado_137635" data-name="Trazado 137635" d="M501.213,901.945c-4.194,1.324-11.452-2.248-11.452-2.248a10.923,10.923,0,0,0,3.665-8.938l3.243,2.614,2.2,1.775a26.426,26.426,0,0,1-.25,2.881c-.064.482-.143,1.02-.242,1.608A10.039,10.039,0,0,1,501.213,901.945Z" transform="translate(-462.326 -880.466)" fill="#ffb27d"/>
          <path id="Trazado_137636" data-name="Trazado 137636" d="M523.6,912.422a26.435,26.435,0,0,1-.25,2.881c-2.441-.419-5.21-4.365-5.21-4.365a7.778,7.778,0,0,1,3.257-.292Z" transform="translate(-487.054 -897.741)" fill="#ed975d"/>
          <path id="Trazado_137637" data-name="Trazado 137637" d="M514.421,846.472s-6.928,1.151-7.579-3.175-1.983-7.09,2.413-8.008,5.506.6,6.074,1.994S516.207,846.061,514.421,846.472Z" transform="translate(-476.593 -831.89)" fill="#ffb27d"/>
          <path id="Trazado_137638" data-name="Trazado 137638" d="M481.168,990.132a.679.679,0,0,1-.441.168c-1.575-.022-6.168.853-10.055.454a28.954,28.954,0,0,1-9.291-2.681c-.414-.185-1.366-.693-1.344-1.156.014-.506.064-1.24.127-2.165a115.784,115.784,0,0,0,.23-15.123c-.067-1.188-.1-2.366-.107-3.526-.032-8.645,1.682-16.249,5.127-18.823.294-.211,2.1.672,3.76,1.491a6.87,6.87,0,0,0,4.516.547l1.449,1.281a14.48,14.48,0,0,1,4.537,7.246,81.577,81.577,0,0,1,1.365,13.444c.1,2.437.19,4.895.211,7.226v.083c.02.231.02.484.02.715C481.358,985.3,481.273,990.048,481.168,990.132Z" transform="translate(-436.427 -929.689)" fill="#2b478b"/>
          <path id="Trazado_137639" data-name="Trazado 137639" d="M461.03,1071.77a115.777,115.777,0,0,0,.23-15.122c-.067-1.188-.1-2.366-.107-3.526,1.435-3.481,2.608-6.005,2.608-6.005h3.617S470.029,1065.228,461.03,1071.77Z" transform="translate(-437.292 -1016.706)" fill="#233862"/>
          <g id="Grupo_106126" data-name="Grupo 106126" transform="translate(0 59.564)">
            <path id="Trazado_137640" data-name="Trazado 137640" d="M295.584,1303.312l15.426,2.2a3.7,3.7,0,0,0,4.17-3.13l.953-6.685a3.7,3.7,0,0,0-3.13-4.17l-15.426-2.2a3.7,3.7,0,0,0-4.17,3.13l-.953,6.685A3.7,3.7,0,0,0,295.584,1303.312Z" transform="translate(-290.373 -1287.285)" fill="#233862"/>
            <path id="Trazado_137641" data-name="Trazado 137641" d="M300.033,1279.943h0a3.715,3.715,0,0,0-2.556-2.232h0c-.116-.028-.234-.052-.356-.069l-3.072-.437.205-1.443a1.222,1.222,0,0,0-1.037-1.381l-.8-.115-3.225-.46-.581-.083a1.222,1.222,0,0,0-1.381,1.036l-.205,1.443-5.3-.756a3.713,3.713,0,0,0-4.186,3.141l-.963,6.763a3.711,3.711,0,0,0,3.142,4.185l15.4,2.195a3.635,3.635,0,0,0,.8.025h0a3.641,3.641,0,0,0,1.2-.3,3.707,3.707,0,0,0,2.178-2.864l.964-6.762A3.668,3.668,0,0,0,300.033,1279.943Zm-12.049-5.076a.459.459,0,0,1,.516-.387l.685.1,2.538.363,1.384.2a.456.456,0,0,1,.387.515l-.205,1.443-5.51-.786Z" transform="translate(-276.532 -1273.71)" fill="#2b478b"/>
          </g>
          <path id="Trazado_137642" data-name="Trazado 137642" d="M376.485,1236.428a5.357,5.357,0,0,0-.842,1.51c-.218,2.923,1.118,3.327-2.34,4.95,0,0-1.476.563-1.5-.583s1.024-1.165.832-2.769c-.221-1.85-.2-1.867,1.015-2.834l.8-1.329Z" transform="translate(-359.544 -1180.742)" fill="#ffb27d"/>
          <path id="Trazado_137643" data-name="Trazado 137643" d="M380.065,990.31a11.849,11.849,0,0,0,2.714.151s3.867-11.945,4.364-13.036,11.485-14.006,11.485-14.006l-4.577-11.455S382.167,971.815,380.96,974.6c-1.994,4.609-2.686,14.944-2.686,14.944A4.978,4.978,0,0,0,380.065,990.31Z" transform="translate(-365.184 -933.797)" fill="#2b478b"/>
          <path id="Trazado_137644" data-name="Trazado 137644" d="M500.18,821.753s.711-.119.6-1.1-.113-2.259.683-2.021.836.876,1.163.5.333-1.941,2.7-2.05,3.332.715,4.434.231,1.16-2.152,1.16-2.152a1.9,1.9,0,0,1-.787.785s1.838-2.514-.29-4.238-4.3-.6-5.53-.521c-2.713.164-4.466.327-5.352,2.11S498.439,820.037,500.18,821.753Z" transform="translate(-469.936 -810.762)" fill="#2b478b"/>
          <path id="Trazado_137645" data-name="Trazado 137645" d="M397.8,1253.558s.78.813.829,1.151c.158,1.086.521,1.555.339,1.673-.378.246-.878-.559-1.117-1.28A3.3,3.3,0,0,1,397.8,1253.558Z" transform="translate(-382.134 -1196.587)" fill="#ffb27d"/>
        </g>
      </g>
      <path id="Trazado_137646" data-name="Trazado 137646" d="M1593.3,1304.142a15.284,15.284,0,0,1,2.9,2.38c.385.706,1.283,3.3,1.283,3.3s-.641.1-1.283-1.027-2.759-1.026-3.464-1.636a9.545,9.545,0,0,1-1.527-2.4Z" transform="translate(-1281.29 -822.212)" fill="#ffb27d"/>
      <path id="Trazado_137647" data-name="Trazado 137647" d="M1593.336,1313.3a8.371,8.371,0,0,0,.932,2.549c.513.578,1.219,1.54,1.508,1.283s-.321-2.406-.321-2.406Z" transform="translate(-1283.144 -830.192)" fill="#ffb27d"/>
      <path id="Trazado_137648" data-name="Trazado 137648" d="M1627.258,1324.385c.064.1,2.278,2.449,2.278,2.449s-.8.363-1.027,0S1627.258,1324.385,1627.258,1324.385Z" transform="translate(-1312.702 -839.85)" fill="#ffb27d"/>
    </g>
  </g>
</svg>
