<svg xmlns="http://www.w3.org/2000/svg" width="295" height="180.354" viewBox="0 0 295 180.354">
  <g id="Grupo_80661" data-name="Grupo 80661" transform="translate(-215.391 -114.738)">
    <path id="Trazado_114449" data-name="Trazado 114449" d="M492.318,294.644l-250.538-.087s-42.339-58.35-19.759-97.385,55.561-11.481,58.311-39.682c.094-.955.019-1.9.019-2.822,0-.22,0-.436.014-.653.845-16.2,11.413-26.663,25.359-32.685q.676-.293,1.36-.569c22.24-9.013,52.311-7.159,65.623.591,22.65,13.185,22.508,29.054,69.279,23.819s55.691,38.54,43.516,60.841C468.228,237.658,533.408,232.461,492.318,294.644Z" transform="translate(0 0)" fill="#e1f3d7"/>
    <g id="Grupo_80627" data-name="Grupo 80627" transform="translate(280.351 121.331)">
      <path id="Trazado_114450" data-name="Trazado 114450" d="M1824.518,761.794l-6.089-5.994-5.975-5.882a1.081,1.081,0,0,1-.252-1.044c.308-1.1,2.167-2.186,3.252-3.1l.109-.093a3.41,3.41,0,0,1,4.792.407l7.3,8.659h0l2.166,2.568a3.41,3.41,0,0,1-.407,4.792l-.109.093A3.411,3.411,0,0,1,1824.518,761.794Z" transform="translate(-1709.938 -685.501)" fill="#ffb27d"/>
      <path id="Trazado_114451" data-name="Trazado 114451" d="M1253.534,385.633a2.783,2.783,0,0,1-2.482,2.177,25.869,25.869,0,0,1-12.932-1.535c-5.953.028-10.167-2.14-11.443-1.017-.047.041-.034.129.033.256,1.168,2.264,19.23,17.324,19.493,18.995.277,1.764-33.6,10.065-33.6,10.065s-5.005-3.12-10.609-7.215c-2.842-2.074-5.837-4.4-8.412-6.7a30.974,30.974,0,0,1-5.928-6.568l-.006-.013a7.968,7.968,0,0,1-.45-.864c-.021-.044-.039-.084-.054-.121a16.563,16.563,0,0,0-4.207-5.6,37.836,37.836,0,0,0-10.515-6.406l24.875-13.274s22.84,2.684,26.494,4.9c5.325,3.234,16.477,5.6,18.622,6.858,1.594.929,9.986,3.942,10.6,4.212A2.112,2.112,0,0,1,1253.534,385.633Z" transform="translate(-1137.182 -347.913)" fill="#ffb27d"/>
      <path id="Trazado_114452" data-name="Trazado 114452" d="M888.082,193.8s-.006.051-.02.146h0a62.18,62.18,0,0,1-1.771,8.266h0c-.043.147-.087.3-.131.446h0l-.061.2h0c-1.437,4.754-3.774,10.022-7.379,12.147h0q-.31.182-.632.334a6.673,6.673,0,0,1-1.568.51,6.417,6.417,0,0,1-1.246.12s-3.163-.38-7.9-.956l-.791-.1c-8.555-1.044-21.63-2.662-30.748-3.88,0-.22,0-.436.014-.653.845-16.2,11.413-26.663,25.359-32.685,7.407,4.429,14.346,8.587,19.318,11.567h0a.074.074,0,0,1,.012.007l.929.556.019.012Z" transform="translate(-835.836 -177.706)" fill="#f99746"/>
      <path id="Trazado_114453" data-name="Trazado 114453" d="M1281.286,495.21a.294.294,0,0,1,.029.065c2.338,14.779,10.919,12.341,10.919,12.341l-.323,12.148c-2.843-2.074-5.837-4.4-8.412-6.7a30.985,30.985,0,0,1-5.928-6.568l-.006-.013c-.2-.366-.354-.659-.45-.864-.02-.044-.039-.084-.054-.121a16.566,16.566,0,0,0-4.207-5.6c.914-1.561,1.981-3.334,3.035-5.07A3.041,3.041,0,0,1,1281.286,495.21Z" transform="translate(-1227.1 -460.319)" fill="#efa26f"/>
      <path id="Trazado_114454" data-name="Trazado 114454" d="M1140.617,288.057s-8.026,6.942-11.331,11.82l2.4,4.154-4.075-.384s-2.075,7.531-.948,10.074l11.112,1.046,12.809-20.5Z" transform="translate(-1095.909 -276.503)" fill="#ed7d2b"/>
      <path id="Trazado_114455" data-name="Trazado 114455" d="M1136.29,292.822c-.329-3.02,2.6-9.188,2.6-9.188l9.853,1.967-7.586-8c1.713-3.544,5.82-8.952,8.36-12.156,1.265-1.6,2.142-2.644,2.142-2.644,7.3,5.546,14.089,11.072,14.089,11.072-2.978,1.154-5.765,4.287-8.084,7.749a72.016,72.016,0,0,0-6.417,12.416C1145.334,293.484,1136.29,292.822,1136.29,292.822Z" transform="translate(-1104.81 -253.895)" fill="#dceaff"/>
      <path id="Trazado_114456" data-name="Trazado 114456" d="M1136.29,315.432c-.329-3.02,2.6-9.188,2.6-9.188l9.853,1.967-7.586-8c1.713-3.544,5.82-8.952,8.36-12.156.13,8.835,8.147,16.178,8.147,16.178a72.017,72.017,0,0,0-6.417,12.416C1145.334,316.094,1136.29,315.432,1136.29,315.432Z" transform="translate(-1104.81 -276.505)" fill="#cbe1fd"/>
      <path id="Trazado_114457" data-name="Trazado 114457" d="M1229.731,363.351a1.207,1.207,0,1,1-1.324,1.076A1.207,1.207,0,0,1,1229.731,363.351Z" transform="translate(-1187.299 -343.908)" fill="#f99746"/>
      <rect id="Rectángulo_33943" data-name="Rectángulo 33943" width="73.717" height="33.864" transform="matrix(0.962, -0.274, 0.274, 0.962, 56.701, 47.453)" fill="#82b378"/>
      <g id="Grupo_80621" data-name="Grupo 80621" transform="translate(60.552 32.057)">
        <rect id="Rectángulo_33944" data-name="Rectángulo 33944" width="73.717" height="33.864" transform="translate(0 13.369) rotate(-10.449)" fill="#a8d29f"/>
        <g id="Grupo_80619" data-name="Grupo 80619" transform="translate(3.317 3.149)">
          <path id="Trazado_114458" data-name="Trazado 114458" d="M1517.3,539.007l-3.093-16.772,0-.006-1.522-8.259-.792.146-13.576,2.5h0l-.155.029-10.169,1.874-1.3.24h0l-10.9,2.012-28.665,5.285-.006,0-.019,0-.487.089-.014,0-.012,0-.729.134,1.1,5.974,1.288,6.985,2.783,15.09,15.664-2.888.7-.128,2.6-.479.578-.107.762-.14.7-.128,1.329-.246,3.24-.6.92-.169,1.275-.235,1.113-.205,6.506-1.2h0l1.321-.244,1.041-.192,9.007-1.661,8.093-1.492,2.958-.546,9.029-1.665Zm-4.027,2.625-14.644,2.7h0l-1.749.322h0l-9.16,1.689-.85.158-6.463,1.191-2.045.377-1.313.243-.939.173-3.057.563-1.265.232-.768.143-.729.134-.585.107-2.588.478-.734.136-11.211,2.067a3.224,3.224,0,0,1-3.756-2.586l-1.752-9.5-1.811-9.818a3.226,3.226,0,0,1,2.586-3.758L1476.9,521.8l12.388-2.285,3.527-.651h0l4.436-.817.144-.027h0l11.146-2.055a3.225,3.225,0,0,1,3.756,2.586l3.563,19.321a3.223,3.223,0,0,1-2.586,3.758Z" transform="translate(-1445.856 -513.97)" fill="#82b378"/>
        </g>
        <path id="Trazado_114459" data-name="Trazado 114459" d="M1718.28,641.373a8.489,8.489,0,1,1,6.988-9.761A8.489,8.489,0,0,1,1718.28,641.373Z" transform="translate(-1677.598 -609.786)" fill="#82b378"/>
        <g id="Grupo_80620" data-name="Grupo 80620" transform="translate(19.347 17.185)">
          <path id="Trazado_114460" data-name="Trazado 114460" d="M1602.608,713.632a3.134,3.134,0,1,1,2.58-3.6A3.134,3.134,0,0,1,1602.608,713.632Z" transform="translate(-1598.961 -701.19)" fill="#82b378"/>
          <path id="Trazado_114461" data-name="Trazado 114461" d="M1924.559,654.259a3.134,3.134,0,1,1,2.58-3.6A3.134,3.134,0,0,1,1924.559,654.259Z" transform="translate(-1887.205 -648.032)" fill="#82b378"/>
        </g>
      </g>
      <g id="Grupo_80625" data-name="Grupo 80625" transform="translate(84.241 66.821)">
        <g id="Grupo_80622" data-name="Grupo 80622" transform="translate(5.557 0.292)">
          <path id="Trazado_114462" data-name="Trazado 114462" d="M1695.788,828.776l-.267-.72-1.8-4.842a3.084,3.084,0,0,1-.106-.343,3.3,3.3,0,0,1,2.044-3.883l.186-.069a3.3,3.3,0,0,1,4.227,1.939l1.675,4.514.122.328.267.72a3.3,3.3,0,0,1-1.939,4.226l-.186.069A3.3,3.3,0,0,1,1695.788,828.776Z" transform="translate(-1693.52 -818.714)" fill="#ffb27d"/>
          <path id="Trazado_114463" data-name="Trazado 114463" d="M1706.383,836.078a19.281,19.281,0,0,1-.936-3.052,1.286,1.286,0,0,1,.512-1,2.977,2.977,0,0,1,1.1-.6,3.485,3.485,0,0,1,.7-.159,2.955,2.955,0,0,1,.831.033.83.83,0,0,1,.589.465l0,0a19.074,19.074,0,0,1,1.125,2.937,1.272,1.272,0,0,1-.717,1.572l-.278.1-1.423.507A1.215,1.215,0,0,1,1706.383,836.078Z" transform="translate(-1704.195 -829.938)" fill="#ffd3b6"/>
          <path id="Trazado_114464" data-name="Trazado 114464" d="M1706.383,840.251a19.281,19.281,0,0,1-.936-3.052,1.286,1.286,0,0,1,.512-1c.094-.04.195-.076.3-.111a3.486,3.486,0,0,1,.7-.16,2.944,2.944,0,0,1,.831.033.83.83,0,0,1,.59.465v0a19.048,19.048,0,0,1,1.125,2.937,1.388,1.388,0,0,1-.2,1.184l-1.423.507A1.215,1.215,0,0,1,1706.383,840.251Z" transform="translate(-1704.195 -834.11)" fill="#ffc197"/>
        </g>
        <g id="Grupo_80623" data-name="Grupo 80623" transform="translate(0 1.592)">
          <path id="Trazado_114465" data-name="Trazado 114465" d="M1641.5,837.656l-.985-3.731a2.138,2.138,0,0,1,1.517-2.605l.422-.111a2.138,2.138,0,0,1,2.605,1.517l.984,3.731a2.137,2.137,0,0,1-1.517,2.605l-.422.112A2.138,2.138,0,0,1,1641.5,837.656Z" transform="translate(-1640.444 -831.138)" fill="#ffb27d"/>
          <path id="Trazado_114466" data-name="Trazado 114466" d="M1647.963,841.281a16.837,16.837,0,0,1-.52-2.572,1.255,1.255,0,0,1,.814-1.009,2.82,2.82,0,0,1,1.074-.265,2.135,2.135,0,0,1,.636.088.661.661,0,0,1,.422.424s0,0,0,0a16.656,16.656,0,0,1,.674,2.492,1.054,1.054,0,0,1-.653,1.238l-.336.093-1.009.279A.944.944,0,0,1,1647.963,841.281Z" transform="translate(-1646.71 -836.774)" fill="#ffd3b6"/>
          <path id="Trazado_114467" data-name="Trazado 114467" d="M1647.963,842.942a16.832,16.832,0,0,1-.52-2.572,1.255,1.255,0,0,1,.814-1.01,2.362,2.362,0,0,1,.514-.071,2.138,2.138,0,0,1,.636.088.662.662,0,0,1,.422.424s0,0,0,0a16.537,16.537,0,0,1,.673,2.492,1.125,1.125,0,0,1-.428,1.137l-1.009.279A.944.944,0,0,1,1647.963,842.942Z" transform="translate(-1646.71 -838.436)" fill="#ffc197"/>
        </g>
        <g id="Grupo_80624" data-name="Grupo 80624" transform="translate(13.591)">
          <path id="Trazado_114468" data-name="Trazado 114468" d="M1771.624,826.22c-.009-.027-.018-.053-.027-.081l-1.215-4.891a4.035,4.035,0,0,1,2.619-4.912l1.012-.283a3.742,3.742,0,0,1,4.492,2.655l.4,1.615.814,3.276a4.035,4.035,0,0,1-2.619,4.912l-1.012.282A3.735,3.735,0,0,1,1771.624,826.22Z" transform="translate(-1770.253 -815.928)" fill="#ffb27d"/>
          <path id="Trazado_114469" data-name="Trazado 114469" d="M1786.9,854.068l-1.051-2.38s0-.008,0-.015a2.659,2.659,0,0,1-.057-.287c-.006-.04-.01-.08-.014-.12a.316.316,0,0,1,0-.05.378.378,0,0,1,.536-.323,2.357,2.357,0,0,0,1.607.147l.207-.055.006,0,.675-.178a2.525,2.525,0,0,0,1.317-.849c.04-.048.077-.1.113-.149a.681.681,0,0,1,1.211.209c0,.005,0,.01,0,.015l.373,2.606a1.239,1.239,0,0,1-.975,1.431l-.768.2-1.638.432C1787.8,854.871,1787.069,854.713,1786.9,854.068Z" transform="translate(-1784.148 -846.002)" fill="#ffd3b6"/>
          <path id="Trazado_114470" data-name="Trazado 114470" d="M1786.905,857.8l-1.05-2.38,0-.015c-.01-.056-.038-.23-.072-.458a.377.377,0,0,1,.536-.323,2.358,2.358,0,0,0,1.607.147l.207-.055.006,0,.675-.178a2.526,2.526,0,0,0,1.317-.849.664.664,0,0,1,.263.375s0,.01,0,.015l.373,2.605a1.183,1.183,0,0,1-.682,1.318l-1.639.432C1787.8,858.6,1787.075,858.441,1786.905,857.8Z" transform="translate(-1784.155 -849.73)" fill="#ffc197"/>
        </g>
      </g>
      <g id="Grupo_80626" data-name="Grupo 80626" transform="translate(83.966 24.466)">
        <path id="Trazado_114471" data-name="Trazado 114471" d="M1638,418.866s-1.2-9.356,2.456-7.137c5.325,3.234,16.476,5.6,18.623,6.856,1.592.929,9.986,3.943,10.6,4.214a1.874,1.874,0,0,1,.281,2.154,5.18,5.18,0,0,1-2.628,2.525c-5.215,2.028-12.319-2.2-12.546-2.194-5.953.029-11.738-.637-13.419-.4C1640.777,424.971,1638,418.866,1638,418.866Z" transform="translate(-1637.81 -411.388)" fill="#ffb27d"/>
        <path id="Trazado_114472" data-name="Trazado 114472" d="M1894.557,503.514l-5.892-2.143a3.04,3.04,0,0,0-.292,1.908C1888.654,504.016,1894.112,505.313,1894.557,503.514Z" transform="translate(-1862.069 -491.95)" fill="#ffc197"/>
      </g>
    </g>
    <g id="Grupo_80632" data-name="Grupo 80632" transform="translate(247.961 186.197)">
      <g id="Grupo_80628" data-name="Grupo 80628" transform="translate(6.824 21.489)">
        <path id="Trazado_114473" data-name="Trazado 114473" d="M914.25,1217.315l1.173.952s3.208-1.15,3.932,2.662c0,0,.193,1.625-.836,1.628a20.566,20.566,0,0,0-2.062-.135,2.636,2.636,0,0,1-2.879-1.908l-.7-1Z" transform="translate(-879.248 -1194.824)" fill="#ea8e50"/>
        <path id="Trazado_114474" data-name="Trazado 114474" d="M626.516,1027.038a2.4,2.4,0,0,0,.86-1.7s-10.834-8.87-11.933-9.592a133.68,133.68,0,0,1-12.457-11.878c-1.85-2.139-4.141-1.309-6.763-.557l-2.159.619a3.611,3.611,0,0,0-1.146,6.166c6.024,4.99,16.046,10.6,17.922,11.782,4.655,2.928,13.767,6.408,13.767,6.408A5.771,5.771,0,0,0,626.516,1027.038Z" transform="translate(-591.647 -1002.503)" fill="#1e3d70"/>
      </g>
      <path id="Trazado_114475" data-name="Trazado 114475" d="M1013.188,1757.333a8.168,8.168,0,0,0,6.658.929s3.248-.74,3.961.879c0,0-4.982,2.531-6.242,3.223a15.1,15.1,0,0,0-2.643,1.981,1.306,1.306,0,0,1-1.892-.146c-.219-.269-.47-.59-.745-.963-.768-1.041-2.558-4.4-2.558-4.4Z" transform="translate(-959.13 -1656.815)" fill="#204272"/>
      <g id="Grupo_80631" data-name="Grupo 80631" transform="translate(14.842 2.555)">
        <circle id="Elipse_4749" data-name="Elipse 4749" cx="18.383" cy="18.383" r="18.383" transform="translate(1.604 25.997) rotate(-45)" fill="#e2810e"/>
        <circle id="Elipse_4750" data-name="Elipse 4750" cx="18.383" cy="18.383" r="18.383" transform="translate(0 25.997) rotate(-45)" fill="#ffc76c"/>
        <g id="Grupo_80629" data-name="Grupo 80629" transform="translate(9.248 9.466)">
          <path id="Trazado_114476" data-name="Trazado 114476" d="M773.314,945.565a16.749,16.749,0,1,1,11.843-4.906A16.639,16.639,0,0,1,773.314,945.565Zm0-32.5a15.749,15.749,0,1,0,15.749,15.749A15.767,15.767,0,0,0,773.314,913.067Z" transform="translate(-756.565 -912.068)" fill="#ffa412"/>
        </g>
        <g id="Grupo_80630" data-name="Grupo 80630" transform="translate(18.662 13.845)">
          <path id="Trazado_114477" data-name="Trazado 114477" d="M856.115,971.128a2.762,2.762,0,0,0-.04-.973,2.018,2.018,0,0,0-.411-.807,3.8,3.8,0,0,0-.822-.726,10.053,10.053,0,0,0-1.274-.713,26.431,26.431,0,0,1-2.353-1.293,8.338,8.338,0,0,1-1.759-1.432,4.905,4.905,0,0,1-1.039-1.745,5.535,5.535,0,0,1,.447-4.186,4.654,4.654,0,0,1,1.3-1.442,5.817,5.817,0,0,1,1.858-.885,7.759,7.759,0,0,1,2.32-.267l.327-2.76,2.222.264-.332,2.8a6.95,6.95,0,0,1,2.091.889,5.252,5.252,0,0,1,2.341,3.359,7,7,0,0,1,.092,2.372l-4.013-.476a3.405,3.405,0,0,0-.413-2.4,2.367,2.367,0,0,0-1.749-.986,3,3,0,0,0-1.1.047,2.037,2.037,0,0,0-.8.389,1.9,1.9,0,0,0-.516.665,2.8,2.8,0,0,0-.244.874,2.559,2.559,0,0,0,.036.88,1.893,1.893,0,0,0,.394.773,3.814,3.814,0,0,0,.829.726,12.881,12.881,0,0,0,1.325.766q1.287.663,2.329,1.323a8.432,8.432,0,0,1,1.751,1.444,4.735,4.735,0,0,1,1.219,3.971,5.063,5.063,0,0,1-.638,1.991,4.6,4.6,0,0,1-1.3,1.428,5.613,5.613,0,0,1-1.868.851,8.367,8.367,0,0,1-2.332.246l-.3,2.567-2.208-.262.3-2.554a9.387,9.387,0,0,1-2.169-.767,5.945,5.945,0,0,1-1.777-1.343,5.321,5.321,0,0,1-1.115-2,6.481,6.481,0,0,1-.185-2.717l4.013.476a3.993,3.993,0,0,0,.075,1.559,2.581,2.581,0,0,0,.571,1.062,2.506,2.506,0,0,0,.918.632,4.281,4.281,0,0,0,1.1.281,3.581,3.581,0,0,0,1.166-.031,2.388,2.388,0,0,0,.881-.367,1.9,1.9,0,0,0,.583-.644A2.318,2.318,0,0,0,856.115,971.128Z" transform="translate(-846.474 -953.898)" fill="#ffa412"/>
        </g>
      </g>
      <path id="Trazado_114478" data-name="Trazado 114478" d="M710.889,1346.071s-1.6,3.692-5.3,3.013a103.132,103.132,0,0,1-12.714-12.7,28.732,28.732,0,0,1-3.951-6.174c-3.43-7.942-12.688-19.787-18.575-25.79l14.727-5.328s4.717,9.489,10.994,21.145C700.6,1328.638,705.929,1338.161,710.889,1346.071Z" transform="translate(-655.288 -1246.553)" fill="#2b478b"/>
      <path id="Trazado_114479" data-name="Trazado 114479" d="M696.074,1320.24l-3.2,16.147a28.732,28.732,0,0,1-3.951-6.174c-3.43-7.942-12.688-19.787-18.575-25.79l14.727-5.328S689.8,1308.584,696.074,1320.24Z" transform="translate(-655.288 -1246.553)" fill="#233862"/>
      <path id="Trazado_114480" data-name="Trazado 114480" d="M755.737,1763.988s-.16,2.946,3.41,3.339c0,0,2.21.057,2.216,1.931l-10.754,0s-.1-.766-.169-2.385a18.556,18.556,0,0,1,1.206-4.5Z" transform="translate(-726.989 -1661.327)" fill="#204272"/>
      <path id="Trazado_114481" data-name="Trazado 114481" d="M642.54,1293.507s6.561,7.209,10.726,20.2c2.266,7.066-4.153,24.833-5.4,31.006a19.68,19.68,0,0,1-7.25-.773s-.224-12.75,1.5-22.577c.964-5.5-8.638-11.762-12.834-21.7-2.854-6.76.618-6.646,4.885-6.808Z" transform="translate(-617.579 -1240.965)" fill="#2b478b"/>
      <path id="Trazado_114482" data-name="Trazado 114482" d="M597.425,915.817c-3.65,2.061-11.123.16-11.123.16a10.409,10.409,0,0,0,1.656-9.057l2.866,1.456,3.078,1.564a25.53,25.53,0,0,1,.338,2.759c.035.456.067.966.089,1.523A9.575,9.575,0,0,1,597.425,915.817Z" transform="translate(-580.037 -895.439)" fill="#ffb07b"/>
      <path id="Trazado_114483" data-name="Trazado 114483" d="M587.293,1008.727c0,.642-.739.949-.9.98-1.472.269-5.583,1.868-9.286,2.235a29.694,29.694,0,0,1-9.194-.622c-.421-.085-1.41-.351-1.48-.755-.088-.441-12.268-24.831-2.8-35.308.222-.246,2.092.2,3.8.6a7.017,7.017,0,0,0,4.32-.353l1.6.843c1.969,1.1,5.693,4.994,6.129,8.052.221,1.555,1.111,2.707,1.368,4.075q.143.759.292,1.482.291,1.417.6,2.7c.557,2.313,1.145,4.3,1.722,6.024.614,1.826,1.217,3.345,1.755,4.616.7,1.648,1.288,2.879,1.657,3.822A4.709,4.709,0,0,1,587.293,1008.727Z" transform="translate(-556.52 -956.558)" fill="#aec3ff"/>
      <path id="Trazado_114484" data-name="Trazado 114484" d="M618.524,1077.9a47.857,47.857,0,0,1-23.149-23.656s13.969,5.153,17.415,6.495q.291,1.417.6,2.7c.557,2.313,1.145,4.3,1.722,6.024.614,1.826,1.217,3.345,1.755,4.616C617.565,1075.729,618.155,1076.961,618.524,1077.9Z" transform="translate(-588.161 -1027.342)" fill="#91b0f2"/>
      <path id="Trazado_114485" data-name="Trazado 114485" d="M905.927,1234.539l1.486.545a3.177,3.177,0,0,1,4.828,1.318s.67,1.494-.391,1.819-.675.019-2.166.515-2.959.139-3.523-.926l-1.01-.741Z" transform="translate(-865.504 -1188.671)" fill="#ffb07b"/>
      <path id="Trazado_114486" data-name="Trazado 114486" d="M610.08,1035.558c.549-1.433.8-2.083.8-2.083s-11.227-9.151-12.371-9.936c-.779-.535-8.54-6.336-12.323-10.857a7.918,7.918,0,0,0-7.7-2.667l-2.357.494a3.5,3.5,0,0,0-1.563,6.091c6.217,5.33,16.7,11.512,18.659,12.8,4.854,3.192,15.589,7.665,15.589,7.665A2.763,2.763,0,0,0,610.08,1035.558Z" transform="translate(-568.434 -987.589)" fill="#aec3ff"/>
      <path id="Trazado_114487" data-name="Trazado 114487" d="M611.461,925.145a7.683,7.683,0,0,1-5.924-2.762,28.508,28.508,0,0,0,2.508-1.561l3.078,1.564A25.506,25.506,0,0,1,611.461,925.145Z" transform="translate(-597.259 -907.885)" fill="#ea8e50"/>
      <path id="Trazado_114488" data-name="Trazado 114488" d="M584.166,848.606s-5.439,3.9-7.817.478-4.682-5.227-1.31-7.864,4.961-1.8,6.033-.854S585.519,847.5,584.166,848.606Z" transform="translate(-568.434 -835.031)" fill="#ffb07b"/>
      <path id="Trazado_114489" data-name="Trazado 114489" d="M539.68,799.5a8.76,8.76,0,0,0-.634-2.243s-.341,1.414-2.925,1.219-6.679.254-8.044,3.2q-.13.281-.233.578a6.812,6.812,0,0,1-.306-1.631,5.026,5.026,0,0,0,0,2.853h0c-.008.046-.014.093-.02.139a5.755,5.755,0,0,0-1.049,1.981,1.8,1.8,0,0,1,.966-.859c-.012,2.291.918,4.531,2.548,5.2,2.385.975,2.366.231,4.764,1.822,0,0,.643-.8.2-1.334s-2.1-1.316-1.17-2.1,1.268.1,1.609-.439-1.365-2.1.829-3.559S539.875,800.817,539.68,799.5Z" transform="translate(-526.468 -797.258)" fill="#233862"/>
    </g>
    <g id="Grupo_80634" data-name="Grupo 80634" transform="translate(404.152 175.356)">
      <path id="Trazado_114490" data-name="Trazado 114490" d="M2577.189,1180a1.476,1.476,0,0,1,.519.824,6.37,6.37,0,0,1-.037,1.631c-.073,1.131,1.492,2.792,2.5,3.37s0-2.407,0-3.129a4.306,4.306,0,0,0-.53-2.888C2578.826,1178.173,2577.189,1180,2577.189,1180Z" transform="translate(-2518.673 -1128.306)" fill="#ffb27d"/>
      <path id="Trazado_114491" data-name="Trazado 114491" d="M2359.195,879.859a4.7,4.7,0,0,1,7.086-4.427c.067.041.133.082.2.124,4.877,3.14,14.245,15.907,15.632,18.449,1.445,2.647,3.357,13.951,3.357,13.951s-2.642.967-3.877-.036c0,0-4.133-9.8-5.652-11.484-1.6-1.772-16.405-9.956-16.545-13.428C2359.357,882.089,2359.283,880.986,2359.195,879.859Z" transform="translate(-2323.489 -855.799)" fill="#ed7d2b"/>
      <g id="Grupo_80633" data-name="Grupo 80633" transform="translate(29.471 52.927)">
        <path id="Trazado_114492" data-name="Trazado 114492" d="M2579.7,1735.247s1.967,1.795,1.583,3.07-2.159,2.126-2.4,3.684-1.2,2.409-2.062,2.409h-4.116s-.636-1.1.9-1.427,2.114-2.162,2.017-3.862a30,30,0,0,1,.144-3.968l3.262-.756Z" transform="translate(-2544.015 -1678.366)" fill="#224275"/>
        <path id="Trazado_114493" data-name="Trazado 114493" d="M2311.331,1773.336s.353,4.084-.51,4.51l-11.05-.023s0-1.276,1.775-1.559,4.893-1.323,5.42-3.636S2311.331,1773.336,2311.331,1773.336Z" transform="translate(-2299.771 -1711.813)" fill="#224275"/>
        <path id="Trazado_114494" data-name="Trazado 114494" d="M2321.08,1227.291s.583,7.16,1.268,15.766c.931,11.691,2.051,26.052,2.161,28.772.191,4.724.96,12.281.96,12.281s1.822,1.8,5.468,1.039a121.938,121.938,0,0,0,4.178-22.2c.014-.187.029-.376.043-.564.863-11.619,2.206-36.085,2.206-36.085Z" transform="translate(-2318.849 -1223.465)" fill="#aec3ff"/>
        <path id="Trazado_114495" data-name="Trazado 114495" d="M2321.08,1227.291s.583,7.16,1.268,15.766l12.767,19.891c.014-.187.029-.376.043-.564.863-11.619,2.206-36.085,2.206-36.085Z" transform="translate(-2318.849 -1223.465)" fill="#91b0f2"/>
        <path id="Trazado_114496" data-name="Trazado 114496" d="M2346.5,1203.909s10.5,25.93,17.412,38.115,9.066,15.586,9.066,15.586,3.957-1.559,4.317-2.621c0,0-2.641-23.525-7.267-29.26-2.614-3.24-5.684-12.965-5.828-16.365s-.935-10.131-.935-10.131Z" transform="translate(-2341.608 -1199.233)" fill="#aec3ff"/>
      </g>
      <path id="Trazado_114497" data-name="Trazado 114497" d="M2337.58,799.362s-7.038,3.57-11.16,2.379a9.089,9.089,0,0,1,1.6-1.53,2.261,2.261,0,0,0,.877-2.154c-.041-.257-.076-.5-.1-.725a15.31,15.31,0,0,1-.171-2.392l2.653-2,2.559-2.115A10.479,10.479,0,0,0,2337.58,799.362Z" transform="translate(-2294.159 -780.655)" fill="#ffb27d"/>
      <path id="Trazado_114498" data-name="Trazado 114498" d="M2314.217,889.815a29,29,0,0,1-8.68,3.739c-3.714.881-8.278.621-9.805.853a.634.634,0,0,1-.445-.113c-.12-.061-.793-4.591-1.468-10.309-.03-.23-.062-.463-.074-.7l-.01-.077c-.263-2.235-.493-4.583-.692-6.936-.163-1.831-.3-3.642-.39-5.343-.117-2.128-.166-4.083-.117-5.692.021-.735.064-1.4.13-1.97a13.94,13.94,0,0,1,3.3-7.514l1.733-1.391a6.035,6.035,0,0,0,4.012-1.112c1.52-1,3.16-2.077,3.47-1.9,2.329,1.274,4.226,4.577,5.58,8.939a49.744,49.744,0,0,1,1.755,8.376c.122.936.227,1.9.306,2.853.016.177.029.354.043.528.183,2.615.481,5.065.813,7.253.445,2.951.951,5.423,1.31,7.164.18.886.317,1.571.4,2.062C2315.457,888.962,2314.6,889.576,2314.217,889.815Z" transform="translate(-2263.805 -834.836)" fill="#f99746"/>
      <path id="Trazado_114499" data-name="Trazado 114499" d="M2352.245,810.1a9.419,9.419,0,0,1-5.132,4.293,28.017,28.017,0,0,1-.217-4.515l2.7.12Z" transform="translate(-2312.48 -797.718)" fill="#ed985f"/>
      <path id="Trazado_114500" data-name="Trazado 114500" d="M2322.554,729.372s6.359,2.6,7.914-1.319,3.423-6.224-.571-8.05-5.382-.641-6.224.54S2320.94,728.595,2322.554,729.372Z" transform="translate(-2290.133 -716.407)" fill="#ffb27d"/>
      <path id="Trazado_114501" data-name="Trazado 114501" d="M2330.053,697.907c.076-.055.227-.079.539-.025a1.28,1.28,0,0,0-.538-.294,1.588,1.588,0,0,0-.714-1.607.948.948,0,0,1,.295.769c-.652-1.073-2.334-2.132-7.49-2.9-6.8-1.008-5.579,3.771-4.832,4.479s3.243-.188,4.823.31,1.352,2.895,1.824,3.339.388-.169,1.2-.333.6,1.077.208,1.824.377,2.031.377,2.031l1.28-.869c1.28-.869,3.323-5.327,3.087-6.431C2330.1,698.1,2330.074,698.006,2330.053,697.907Z" transform="translate(-2285.474 -693.714)" fill="#2c3a64"/>
      <path id="Trazado_114502" data-name="Trazado 114502" d="M2304.465,984.508s-5.735,4.363-11.813,5.319c-.117-2.128-.166-4.083-.117-5.692Z" transform="translate(-2263.805 -953.729)" fill="#ed7d2b"/>
      <path id="Trazado_114503" data-name="Trazado 114503" d="M2025.013,801.579c-.058-.12-.017-4.2-2.033-4.526-1.315-.213-4.723-1.123-4.691.707.013.72,4.278,5.159,4.278,5.159Z" transform="translate(-2018.288 -785.863)" fill="#ffb27d"/>
      <path id="Trazado_114504" data-name="Trazado 114504" d="M2093.759,845.572a4.7,4.7,0,0,1-2.939,7.821l-.234.022c-5.781.469-22.231-4.242-24.508-5.5-3.779-2.091-10.258-8.7-10.258-8.7s1.512-2.373,3.1-2.327c0,0,8.673,5.524,11.778,6.185,2.095.446,18.767-2.552,20.987.12C2092.276,843.9,2093,844.731,2093.759,845.572Z" transform="translate(-2051.891 -821.897)" fill="#f99746"/>
      <path id="Trazado_114505" data-name="Trazado 114505" d="M2602.566,1197.414s.308.68.527,1.209.339,1.516.171,1.42a5.036,5.036,0,0,1-.963-1.158C2602.109,1198.527,2602.566,1197.414,2602.566,1197.414Z" transform="translate(-2541.114 -1144.677)" fill="#ffb27d"/>
    </g>
    <g id="Grupo_80635" data-name="Grupo 80635" transform="translate(312.636 215.809)" opacity="0.5">
      <path id="Trazado_114506" data-name="Trazado 114506" d="M1266.244,1107.485s-2-16.75-10.583-26.746a1.873,1.873,0,0,0-3.287,1.268c0,.029,0,.059,0,.089C1252.488,1085.083,1262.1,1097.687,1266.244,1107.485Z" transform="translate(-1241.048 -1080.088)" fill="#afcdfb" opacity="0.5"/>
      <path id="Trazado_114507" data-name="Trazado 114507" d="M1170.438,1126.652s-8.553-20.936-23.162-30.2a1.987,1.987,0,0,0-2.694.51,3.151,3.151,0,0,0-.127,2.831C1145.619,1103.48,1161.912,1115.876,1170.438,1126.652Z" transform="translate(-1144.199 -1094.46)" fill="#afcdfb" opacity="0.5"/>
    </g>
    <path id="Trazado_114508" data-name="Trazado 114508" d="M960.652,1371.74c.841-8.726,15.362-8.513,15.362-8.513s12.042,12.974,14.881,12.849-8.129-13.1-8.129-13.1c5.3-1.437,20.152,2.832,20.152,2.832s2.027,17.18,4.749,16.36-2.571-15.121-2.571-15.121c5.48.678,11.381,5.933,11.381,5.933,7.768,8.872-4.026,18.388-4.026,18.388a28.125,28.125,0,0,0,5.633,12.1h0a20.372,20.372,0,0,1,2.235,3.1l-1.421.242q-.271-.542-.573-1.038a.009.009,0,0,0,0-.006l-.009-.014c-.135-.2-.328-.492-.567-.843h0v0c-.579-.776-.979-1.354-1.242-1.776l0,0c-1.755-2.447-4.221-5.605-5.6-6.122a2.8,2.8,0,0,0,.193-.7l-.193.7c-1.547,5.628-13.565,8.566-20.58,8.328s-4.385-2.652-1.263-6.375,10.908-4.206,12.961-5.807-1.457-2.256-5.916-1.14-5.951,6.019-13.132,7.956-15.078-10.848-15.078-10.848c5.306.707,13.871-3.61,13.923-5.407s-13.3.652-15.475.486S959.812,1380.466,960.652,1371.74Z" transform="translate(-667.138 -1117.281)" fill="#afcdfb" opacity="0.5"/>
    <path id="Trazado_114509" data-name="Trazado 114509" d="M1905.325,1356.026c.14-6.449-10.49-7.548-10.49-7.548s-9.92,8.439-11.984,8.1,7.073-8.871,7.073-8.871c-3.748-1.509-14.97.328-14.97.328s-2.966,12.378-4.884,11.544,3.186-10.827,3.186-10.827c-4.063.021-8.829,3.352-8.829,3.352-6.443,5.812,1.353,13.785,1.353,13.785a20.7,20.7,0,0,1-5.162,8.352h0a15.005,15.005,0,0,0-1.9,2.069l1.018.3q.245-.374.509-.709a.008.008,0,0,1,0,0l.008-.01c.116-.136.282-.331.487-.567h0c.49-.518.833-.905,1.061-1.191l0,0c1.494-1.637,3.569-3.731,4.618-3.99a2.051,2.051,0,0,1-.08-.531q.038.254.08.531c.644,4.246,9.172,7.431,14.318,7.864s3.434-1.559,1.474-4.55-7.607-4.016-8.969-5.363,1.259-1.523,4.421-.322,3.828,4.912,8.908,6.948,11.955-6.624,11.955-6.624c-3.938.058-9.823-3.837-9.706-5.155s9.663,1.626,11.266,1.692S1905.185,1362.476,1905.325,1356.026Z" transform="translate(-1471.27 -1103.347)" fill="#afcdfb" opacity="0.5"/>
    <g id="Grupo_80637" data-name="Grupo 80637" transform="translate(317.268 213.404)">
      <g id="Grupo_80636" data-name="Grupo 80636" transform="translate(0 0)">
        <path id="Trazado_114510" data-name="Trazado 114510" d="M1200.492,1398.273v8.161a2.917,2.917,0,0,1-2.97,2.841h-6.114a2.917,2.917,0,0,1-2.97-2.841v-8.161a2.917,2.917,0,0,1,2.97-2.841h6.114A2.917,2.917,0,0,1,1200.492,1398.273Z" transform="translate(-1188.438 -1360.011)" fill="#ed7d2b"/>
        <path id="Trazado_114511" data-name="Trazado 114511" d="M1200.492,1398.273v4.547a2.917,2.917,0,0,1-2.97,2.841h-6.114a2.917,2.917,0,0,1-2.97-2.841v-4.547a2.917,2.917,0,0,1,2.97-2.841h6.114A2.917,2.917,0,0,1,1200.492,1398.273Z" transform="translate(-1188.438 -1360.011)" fill="#f99746"/>
        <path id="Trazado_114512" data-name="Trazado 114512" d="M1329.942,1201.822a28.954,28.954,0,0,1-2.505,11.793,31.919,31.919,0,0,1-29.248,18.58h-9.078c-.544,0-1.084-.013-1.623-.039a32.446,32.446,0,0,1-17.748-6.311,31.186,31.186,0,0,1-7.953-8.6,29.045,29.045,0,0,1-1.922-27.216,31.916,31.916,0,0,1,29.246-18.579h9.078a32.08,32.08,0,0,1,27.776,15.7A29.1,29.1,0,0,1,1329.942,1201.822Z" transform="translate(-1250.143 -1159.479)" fill="#ed7d2b"/>
        <path id="Trazado_114513" data-name="Trazado 114513" d="M1672.654,1592.77l-2.962,18.4a2.27,2.27,0,0,0,2.271,2.82h7.784a4.485,4.485,0,0,0,3.961-2.31l12.1-23.081Z" transform="translate(-1619.235 -1532.949)" fill="#ed7d2b"/>
        <path id="Trazado_114514" data-name="Trazado 114514" d="M1323.806,1632.117h-7.783a4.483,4.483,0,0,1-3.961-2.31l-7.482-12.635-4.93-8.325,24.053,2.371.869,6.613.778,5.927.728,5.54A2.271,2.271,0,0,1,1323.806,1632.117Z" transform="translate(-1288.005 -1551.08)" fill="#ed7d2b"/>
        <path id="Trazado_114515" data-name="Trazado 114515" d="M1325.162,1198.311c-6.409,17.63-12.475,27.056-37.041,27.876q-.715.023-1.412.042a163.4,163.4,0,0,1-16.97-.384c-1.1-.087-2.113-.18-3.022-.274l-4.93-8.325a29.045,29.045,0,0,1-1.922-27.216,31.916,31.916,0,0,1,29.246-18.579h9.078a32.08,32.08,0,0,1,27.776,15.7A23.824,23.824,0,0,1,1325.162,1198.311Z" transform="translate(-1250.143 -1159.479)" fill="#f99746"/>
        <path id="Trazado_114516" data-name="Trazado 114516" d="M1398.581,1076.694h-12.489c-1.259,0-2.28-.731-2.28-1.634v-16.31a1.275,1.275,0,0,1,.249-.751,2.819,2.819,0,0,1,3.411-.55c4.742,2.571,12.51,8.158,13.384,17.5C1400.945,1075.893,1399.9,1076.694,1398.581,1076.694Z" transform="translate(-1363.357 -1057.114)" fill="#f99746"/>
        <path id="Trazado_114517" data-name="Trazado 114517" d="M1386.6,1084.26h-.508c-1.259,0-2.28-.731-2.28-1.634v-16.31a1.275,1.275,0,0,1,.249-.751,1.613,1.613,0,0,1,.154.144,19.913,19.913,0,0,1,5.521,16.514C1389.577,1083.379,1388.221,1084.26,1386.6,1084.26Z" transform="translate(-1363.357 -1064.68)" fill="#ed7d2b"/>
        <path id="Trazado_114518" data-name="Trazado 114518" d="M1347.571,1333.051a1.863,1.863,0,1,1,1.861,1.78A1.822,1.822,0,0,1,1347.571,1333.051Z" transform="translate(-1330.91 -1302.567)" fill="#2b478b"/>
      </g>
    </g>
    <path id="Trazado_114519" data-name="Trazado 114519" d="M1705.736,1797.028v1.9a.647.647,0,0,0,.15.409.867.867,0,0,0,.41.274.948.948,0,0,0,.16.038,1.012,1.012,0,0,0,.154.012h36.081a.824.824,0,0,0,.872-.7c0-.012,0-.025,0-.038v-1.9c0-.013,0-.025,0-.038a.824.824,0,0,0-.872-.7h-36.081a1,1,0,0,0-.154.012.9.9,0,0,0-.16.038.866.866,0,0,0-.41.274A.647.647,0,0,0,1705.736,1797.028Z" transform="translate(-1334.307 -1505.5)" fill="#ffc76c"/>
    <path id="Trazado_114520" data-name="Trazado 114520" d="M1874.957,1799.663h19.33a.763.763,0,0,0,.778-.7c0-.012,0-.025,0-.038v-1.9c0-.013,0-.025,0-.038a.763.763,0,0,0-.778-.7h-16.956A5.9,5.9,0,0,1,1874.957,1799.663Z" transform="translate(-1485.811 -1505.5)" fill="#ffae39"/>
    <g id="Grupo_80638" data-name="Grupo 80638" transform="translate(371.578 290.795)">
      <rect id="Rectángulo_33945" data-name="Rectángulo 33945" width="0.41" height="3.368" transform="translate(4.651 3.368) rotate(180)" fill="#ffa412"/>
      <rect id="Rectángulo_33946" data-name="Rectángulo 33946" width="0.41" height="3.368" transform="translate(6.039 3.368) rotate(180)" fill="#ffa412"/>
      <rect id="Rectángulo_33947" data-name="Rectángulo 33947" width="0.41" height="3.368" transform="translate(7.703 3.368) rotate(180)" fill="#ffa412"/>
      <rect id="Rectángulo_33948" data-name="Rectángulo 33948" width="0.41" height="3.368" transform="translate(10.255 3.368) rotate(180)" fill="#ffa412"/>
      <rect id="Rectángulo_33949" data-name="Rectángulo 33949" width="0.41" height="3.368" transform="translate(12.953 3.368) rotate(180)" fill="#ffa412"/>
      <rect id="Rectángulo_33950" data-name="Rectángulo 33950" width="0.41" height="3.368" transform="translate(17.089 3.368) rotate(180)" fill="#ffa412"/>
      <rect id="Rectángulo_33951" data-name="Rectángulo 33951" width="0.41" height="3.368" transform="translate(20.962 3.368) rotate(180)" fill="#ffa412"/>
      <rect id="Rectángulo_33952" data-name="Rectángulo 33952" width="0.41" height="3.368" transform="translate(24.42 3.368) rotate(180)" fill="#ffa412"/>
      <rect id="Rectángulo_33953" data-name="Rectángulo 33953" width="0.41" height="3.368" transform="translate(3.33 3.368) rotate(180)" fill="#ffa412"/>
      <rect id="Rectángulo_33954" data-name="Rectángulo 33954" width="0.41" height="3.368" transform="translate(2.457 3.368) rotate(180)" fill="#ffa412"/>
      <rect id="Rectángulo_33955" data-name="Rectángulo 33955" width="0.41" height="3.368" transform="translate(1.614 3.368) rotate(180)" fill="#ffa412"/>
      <path id="Trazado_114521" data-name="Trazado 114521" d="M1712.6,1796.307v3.345a1.009,1.009,0,0,0,.154.012h.256v-3.368h-.256A.994.994,0,0,0,1712.6,1796.307Z" transform="translate(-1712.035 -1796.295)" fill="#ffa412"/>
      <path id="Trazado_114522" data-name="Trazado 114522" d="M1707.165,1797.042v2.721a.87.87,0,0,0,.41.274v-3.269A.869.869,0,0,0,1707.165,1797.042Z" transform="translate(-1707.165 -1796.719)" fill="#ffa412"/>
    </g>
    <path id="Trazado_114523" data-name="Trazado 114523" d="M1742.581,1764.856v1.9a.647.647,0,0,0,.15.409.866.866,0,0,0,.41.274.907.907,0,0,0,.16.038,1.035,1.035,0,0,0,.154.012h36.08a.824.824,0,0,0,.872-.7c0-.012,0-.025,0-.038v-1.9c0-.013,0-.025,0-.038a.824.824,0,0,0-.872-.7h-36.08l-.069,0-.029,0-.032,0-.023,0a.965.965,0,0,0-.16.038l-.023.008-.022.008-.044.018-.025.012-.022.011-.041.022-.045.028-.034.023,0,0-.022.017a.664.664,0,0,0-.063.055l-.017.017-.017.017c-.011.013-.022.025-.032.038A.647.647,0,0,0,1742.581,1764.856Z" transform="translate(-1367.295 -1476.696)" fill="#ffc76c"/>
    <path id="Trazado_114524" data-name="Trazado 114524" d="M1911.8,1767.491h19.329a.763.763,0,0,0,.778-.7c0-.012,0-.025,0-.038v-1.9c0-.013,0-.025,0-.038a.763.763,0,0,0-.778-.7h-16.955c-.008.028-.015.055-.024.083A5.893,5.893,0,0,1,1911.8,1767.491Z" transform="translate(-1518.8 -1476.696)" fill="#ffae39"/>
    <g id="Grupo_80639" data-name="Grupo 80639" transform="translate(375.436 287.427)">
      <rect id="Rectángulo_33956" data-name="Rectángulo 33956" width="0.41" height="3.368" transform="translate(4.651 3.368) rotate(180)" fill="#ffa412"/>
      <rect id="Rectángulo_33957" data-name="Rectángulo 33957" width="0.41" height="3.368" transform="translate(6.039 3.368) rotate(180)" fill="#ffa412"/>
      <rect id="Rectángulo_33958" data-name="Rectángulo 33958" width="0.41" height="3.368" transform="translate(7.704 3.368) rotate(180)" fill="#ffa412"/>
      <rect id="Rectángulo_33959" data-name="Rectángulo 33959" width="0.41" height="3.368" transform="translate(10.255 3.368) rotate(180)" fill="#ffa412"/>
      <rect id="Rectángulo_33960" data-name="Rectángulo 33960" width="0.41" height="3.368" transform="translate(12.953 3.368) rotate(180)" fill="#ffa412"/>
      <rect id="Rectángulo_33961" data-name="Rectángulo 33961" width="0.41" height="3.368" transform="translate(17.089 3.368) rotate(180)" fill="#ffa412"/>
      <rect id="Rectángulo_33962" data-name="Rectángulo 33962" width="0.41" height="3.368" transform="translate(20.962 3.368) rotate(180)" fill="#ffa412"/>
      <rect id="Rectángulo_33963" data-name="Rectángulo 33963" width="0.41" height="3.368" transform="translate(24.42 3.368) rotate(180)" fill="#ffa412"/>
      <rect id="Rectángulo_33964" data-name="Rectángulo 33964" width="0.41" height="3.368" transform="translate(3.329 3.368) rotate(180)" fill="#ffa412"/>
      <rect id="Rectángulo_33965" data-name="Rectángulo 33965" width="0.41" height="3.368" transform="translate(2.457 3.368) rotate(180)" fill="#ffa412"/>
      <rect id="Rectángulo_33966" data-name="Rectángulo 33966" width="0.41" height="3.368" transform="translate(1.614 3.368) rotate(180)" fill="#ffa412"/>
      <path id="Trazado_114525" data-name="Trazado 114525" d="M1749.449,1764.135v3.345a1.015,1.015,0,0,0,.154.012h.256v-3.368h-.256A1.015,1.015,0,0,0,1749.449,1764.135Z" transform="translate(-1748.879 -1764.123)" fill="#ffa412"/>
      <path id="Trazado_114526" data-name="Trazado 114526" d="M1744.01,1764.869v2.721a.87.87,0,0,0,.41.275V1764.6A.871.871,0,0,0,1744.01,1764.869Z" transform="translate(-1744.01 -1764.546)" fill="#ffa412"/>
    </g>
    <path id="Trazado_114527" data-name="Trazado 114527" d="M1724.776,1733.478v1.9a.647.647,0,0,0,.15.409.864.864,0,0,0,.41.274.9.9,0,0,0,.16.038,1.03,1.03,0,0,0,.154.012h36.081a1,1,0,0,0,.4-.083.748.748,0,0,0,.467-.579c0-.011,0-.022,0-.033s0-.025,0-.038v-1.9c0-.013,0-.025,0-.038a.824.824,0,0,0-.872-.7h-36.081a1.014,1.014,0,0,0-.154.012.947.947,0,0,0-.16.038.869.869,0,0,0-.41.274A.648.648,0,0,0,1724.776,1733.478Z" transform="translate(-1351.354 -1448.603)" fill="#ffc76c"/>
    <path id="Trazado_114528" data-name="Trazado 114528" d="M1894,1736.113h19.329a.805.805,0,0,0,.359-.083.735.735,0,0,0,.417-.579.3.3,0,0,0,0-.033c0-.012,0-.025,0-.038v-1.9c0-.013,0-.025,0-.038a.764.764,0,0,0-.779-.7h-16.956a5.911,5.911,0,0,1-2.255,3.285Z" transform="translate(-1502.859 -1448.603)" fill="#ffae39"/>
    <g id="Grupo_80640" data-name="Grupo 80640" transform="translate(373.572 284.141)">
      <rect id="Rectángulo_33967" data-name="Rectángulo 33967" width="0.41" height="3.368" transform="translate(4.651 3.368) rotate(180)" fill="#ffa412"/>
      <rect id="Rectángulo_33968" data-name="Rectángulo 33968" width="0.41" height="3.368" transform="translate(6.039 3.368) rotate(180)" fill="#ffa412"/>
      <rect id="Rectángulo_33969" data-name="Rectángulo 33969" width="0.41" height="3.368" transform="translate(7.703 3.368) rotate(180)" fill="#ffa412"/>
      <rect id="Rectángulo_33970" data-name="Rectángulo 33970" width="0.41" height="3.368" transform="translate(10.255 3.368) rotate(180)" fill="#ffa412"/>
      <rect id="Rectángulo_33971" data-name="Rectángulo 33971" width="0.41" height="3.368" transform="translate(12.953 3.368) rotate(180)" fill="#ffa412"/>
      <rect id="Rectángulo_33972" data-name="Rectángulo 33972" width="0.41" height="3.368" transform="translate(17.089 3.368) rotate(180)" fill="#ffa412"/>
      <rect id="Rectángulo_33973" data-name="Rectángulo 33973" width="0.41" height="3.368" transform="translate(20.962 3.368) rotate(180)" fill="#ffa412"/>
      <rect id="Rectángulo_33974" data-name="Rectángulo 33974" width="0.41" height="3.368" transform="translate(24.42 3.368) rotate(180)" fill="#ffa412"/>
      <rect id="Rectángulo_33975" data-name="Rectángulo 33975" width="0.41" height="3.368" transform="translate(3.33 3.368) rotate(180)" fill="#ffa412"/>
      <rect id="Rectángulo_33976" data-name="Rectángulo 33976" width="0.41" height="3.368" transform="translate(2.457 3.368) rotate(180)" fill="#ffa412"/>
      <rect id="Rectángulo_33977" data-name="Rectángulo 33977" width="0.41" height="3.368" transform="translate(1.614 3.368) rotate(180)" fill="#ffa412"/>
      <path id="Trazado_114529" data-name="Trazado 114529" d="M1731.644,1732.757v3.345a1.026,1.026,0,0,0,.154.012h.256v-3.368h-.256A1.01,1.01,0,0,0,1731.644,1732.757Z" transform="translate(-1731.074 -1732.745)" fill="#ffa412"/>
      <path id="Trazado_114530" data-name="Trazado 114530" d="M1726.2,1733.491v2.721a.871.871,0,0,0,.41.274v-3.269A.866.866,0,0,0,1726.2,1733.491Z" transform="translate(-1726.205 -1733.168)" fill="#ffa412"/>
    </g>
    <path id="Trazado_114531" data-name="Trazado 114531" d="M1716.522,1701.307v1.9a.648.648,0,0,0,.15.409.868.868,0,0,0,.41.274.939.939,0,0,0,.16.038.983.983,0,0,0,.154.012h36.08a.824.824,0,0,0,.872-.7c0-.013,0-.025,0-.038v-1.9c0-.012,0-.025,0-.038a.805.805,0,0,0-.769-.69.986.986,0,0,0-.1-.005h-36.08a1.013,1.013,0,0,0-.154.012.939.939,0,0,0-.16.038.868.868,0,0,0-.41.274A.647.647,0,0,0,1716.522,1701.307Z" transform="translate(-1343.964 -1419.801)" fill="#ffc76c"/>
    <path id="Trazado_114532" data-name="Trazado 114532" d="M1885.743,1703.942h19.329a.763.763,0,0,0,.778-.7c0-.013,0-.025,0-.038v-1.9c0-.012,0-.025,0-.038a.757.757,0,0,0-.686-.69.784.784,0,0,0-.092-.005h-16.956v.005A5.906,5.906,0,0,1,1885.743,1703.942Z" transform="translate(-1495.468 -1419.801)" fill="#ffae39"/>
    <g id="Grupo_80641" data-name="Grupo 80641" transform="translate(372.707 280.773)">
      <rect id="Rectángulo_33978" data-name="Rectángulo 33978" width="0.41" height="3.368" transform="translate(4.651 3.368) rotate(180)" fill="#ffa412"/>
      <rect id="Rectángulo_33979" data-name="Rectángulo 33979" width="0.41" height="3.368" transform="translate(6.039 3.368) rotate(180)" fill="#ffa412"/>
      <rect id="Rectángulo_33980" data-name="Rectángulo 33980" width="0.41" height="3.368" transform="translate(7.703 3.368) rotate(180)" fill="#ffa412"/>
      <rect id="Rectángulo_33981" data-name="Rectángulo 33981" width="0.41" height="3.368" transform="translate(10.255 3.368) rotate(180)" fill="#ffa412"/>
      <rect id="Rectángulo_33982" data-name="Rectángulo 33982" width="0.41" height="3.368" transform="translate(12.953 3.368) rotate(180)" fill="#ffa412"/>
      <rect id="Rectángulo_33983" data-name="Rectángulo 33983" width="0.41" height="3.368" transform="translate(17.089 3.368) rotate(180)" fill="#ffa412"/>
      <rect id="Rectángulo_33984" data-name="Rectángulo 33984" width="0.41" height="3.368" transform="translate(20.962 3.368) rotate(180)" fill="#ffa412"/>
      <rect id="Rectángulo_33985" data-name="Rectángulo 33985" width="0.41" height="3.368" transform="translate(24.42 3.368) rotate(180)" fill="#ffa412"/>
      <rect id="Rectángulo_33986" data-name="Rectángulo 33986" width="0.41" height="3.368" transform="translate(3.33 3.368) rotate(180)" fill="#ffa412"/>
      <rect id="Rectángulo_33987" data-name="Rectángulo 33987" width="0.41" height="3.368" transform="translate(2.457 3.368) rotate(180)" fill="#ffa412"/>
      <rect id="Rectángulo_33988" data-name="Rectángulo 33988" width="0.41" height="3.368" transform="translate(1.614 3.368) rotate(180)" fill="#ffa412"/>
      <path id="Trazado_114533" data-name="Trazado 114533" d="M1723.389,1700.584v3.345a1.014,1.014,0,0,0,.154.012h.257v-3.368h-.257A1,1,0,0,0,1723.389,1700.584Z" transform="translate(-1722.819 -1700.572)" fill="#ffa412"/>
      <path id="Trazado_114534" data-name="Trazado 114534" d="M1717.95,1701.319v2.721a.872.872,0,0,0,.41.274v-3.269A.869.869,0,0,0,1717.95,1701.319Z" transform="translate(-1717.95 -1700.996)" fill="#ffa412"/>
    </g>
    <path id="Trazado_114535" data-name="Trazado 114535" d="M1741.857,1669.186v1.9a.649.649,0,0,0,.149.41.871.871,0,0,0,.41.274.936.936,0,0,0,.16.038l.051.006.029,0,.028,0h36.127a.824.824,0,0,0,.872-.7c0-.013,0-.025,0-.038v-1.9c0-.013,0-.025,0-.038s0-.021,0-.031a.791.791,0,0,0-.655-.642l-.026-.005a1.041,1.041,0,0,0-.189-.017h-36.08c-.027,0-.052,0-.078,0l-.035,0h0l-.041.006a.96.96,0,0,0-.16.038.87.87,0,0,0-.41.274A.648.648,0,0,0,1741.857,1669.186Z" transform="translate(-1366.647 -1391.043)" fill="#ffc76c"/>
    <path id="Trazado_114536" data-name="Trazado 114536" d="M1911.079,1671.821h19.329a.763.763,0,0,0,.778-.7c0-.013,0-.025,0-.038v-1.9c0-.013,0-.025,0-.038s0-.021,0-.031a.753.753,0,0,0-.6-.646l-.033-.006a.82.82,0,0,0-.138-.012h-16.956l-.007.024a5.9,5.9,0,0,1-2.359,3.339Z" transform="translate(-1518.151 -1391.043)" fill="#ffae39"/>
    <g id="Grupo_80642" data-name="Grupo 80642" transform="translate(375.36 277.41)">
      <rect id="Rectángulo_33989" data-name="Rectángulo 33989" width="0.41" height="3.368" transform="translate(4.651 3.368) rotate(180)" fill="#ffa412"/>
      <rect id="Rectángulo_33990" data-name="Rectángulo 33990" width="0.41" height="3.368" transform="translate(6.039 3.368) rotate(180)" fill="#ffa412"/>
      <rect id="Rectángulo_33991" data-name="Rectángulo 33991" width="0.41" height="3.368" transform="translate(7.703 3.368) rotate(180)" fill="#ffa412"/>
      <rect id="Rectángulo_33992" data-name="Rectángulo 33992" width="0.41" height="3.368" transform="translate(10.255 3.368) rotate(180)" fill="#ffa412"/>
      <rect id="Rectángulo_33993" data-name="Rectángulo 33993" width="0.41" height="3.368" transform="translate(12.953 3.368) rotate(180)" fill="#ffa412"/>
      <rect id="Rectángulo_33994" data-name="Rectángulo 33994" width="0.41" height="3.368" transform="translate(17.089 3.368) rotate(180)" fill="#ffa412"/>
      <rect id="Rectángulo_33995" data-name="Rectángulo 33995" width="0.41" height="3.368" transform="translate(20.962 3.368) rotate(180)" fill="#ffa412"/>
      <rect id="Rectángulo_33996" data-name="Rectángulo 33996" width="0.41" height="3.368" transform="translate(24.42 3.368) rotate(180)" fill="#ffa412"/>
      <rect id="Rectángulo_33997" data-name="Rectángulo 33997" width="0.41" height="3.368" transform="translate(3.33 3.368) rotate(180)" fill="#ffa412"/>
      <rect id="Rectángulo_33998" data-name="Rectángulo 33998" width="0.41" height="3.368" transform="translate(2.457 3.368) rotate(180)" fill="#ffa412"/>
      <rect id="Rectángulo_33999" data-name="Rectángulo 33999" width="0.41" height="3.368" transform="translate(1.614 3.368) rotate(180)" fill="#ffa412"/>
      <path id="Trazado_114537" data-name="Trazado 114537" d="M1748.725,1668.463v3.345a.993.993,0,0,0,.154.012h.256v-3.368h-.256A.993.993,0,0,0,1748.725,1668.463Z" transform="translate(-1748.156 -1668.451)" fill="#ffa412"/>
      <path id="Trazado_114538" data-name="Trazado 114538" d="M1743.286,1669.2v2.721a.868.868,0,0,0,.409.274v-3.269A.866.866,0,0,0,1743.286,1669.2Z" transform="translate(-1743.286 -1668.875)" fill="#ffa412"/>
    </g>
    <path id="Trazado_114539" data-name="Trazado 114539" d="M1742.581,1637.243v1.9a.648.648,0,0,0,.15.409.917.917,0,0,0,.534.306h0l.034.006a1,1,0,0,0,.154.012h36.08a.951.951,0,0,0,.113-.007l.043-.006a.793.793,0,0,0,.716-.683c0-.012,0-.025,0-.038v-1.9c0-.012,0-.025,0-.038a.824.824,0,0,0-.872-.7h-36.08l-.069,0-.029,0-.032,0-.023,0a.929.929,0,0,0-.16.038l-.023.008-.022.008-.044.018-.047.023-.041.022-.045.028-.034.023,0,0-.022.017a.723.723,0,0,0-.063.055l-.017.017-.017.018c-.011.012-.022.025-.032.037A.648.648,0,0,0,1742.581,1637.243Z" transform="translate(-1367.295 -1362.444)" fill="#ffc76c"/>
    <path id="Trazado_114540" data-name="Trazado 114540" d="M1911.8,1639.879h19.375l.05,0a.756.756,0,0,0,.683-.69c0-.012,0-.025,0-.038v-1.9c0-.012,0-.025,0-.038a.763.763,0,0,0-.778-.7h-16.955c-.008.028-.015.055-.024.083a5.9,5.9,0,0,1-2.316,3.261Z" transform="translate(-1518.8 -1362.444)" fill="#ffae39"/>
    <g id="Grupo_80643" data-name="Grupo 80643" transform="translate(375.436 274.066)">
      <rect id="Rectángulo_34000" data-name="Rectángulo 34000" width="0.41" height="3.368" transform="translate(4.651 3.368) rotate(180)" fill="#ffa412"/>
      <rect id="Rectángulo_34001" data-name="Rectángulo 34001" width="0.41" height="3.368" transform="translate(6.039 3.368) rotate(180)" fill="#ffa412"/>
      <rect id="Rectángulo_34002" data-name="Rectángulo 34002" width="0.41" height="3.368" transform="translate(7.704 3.368) rotate(180)" fill="#ffa412"/>
      <rect id="Rectángulo_34003" data-name="Rectángulo 34003" width="0.41" height="3.368" transform="translate(10.255 3.368) rotate(180)" fill="#ffa412"/>
      <rect id="Rectángulo_34004" data-name="Rectángulo 34004" width="0.41" height="3.368" transform="translate(12.953 3.368) rotate(180)" fill="#ffa412"/>
      <rect id="Rectángulo_34005" data-name="Rectángulo 34005" width="0.41" height="3.368" transform="translate(17.089 3.368) rotate(180)" fill="#ffa412"/>
      <rect id="Rectángulo_34006" data-name="Rectángulo 34006" width="0.41" height="3.368" transform="translate(20.962 3.368) rotate(180)" fill="#ffa412"/>
      <rect id="Rectángulo_34007" data-name="Rectángulo 34007" width="0.41" height="3.368" transform="translate(24.42 3.368) rotate(180)" fill="#ffa412"/>
      <rect id="Rectángulo_34008" data-name="Rectángulo 34008" width="0.41" height="3.368" transform="translate(3.329 3.368) rotate(180)" fill="#ffa412"/>
      <rect id="Rectángulo_34009" data-name="Rectángulo 34009" width="0.41" height="3.368" transform="translate(2.457 3.368) rotate(180)" fill="#ffa412"/>
      <rect id="Rectángulo_34010" data-name="Rectángulo 34010" width="0.41" height="3.368" transform="translate(1.614 3.368) rotate(180)" fill="#ffa412"/>
      <path id="Trazado_114541" data-name="Trazado 114541" d="M1749.449,1636.522v3.345a1,1,0,0,0,.154.012h.256v-3.368h-.256A1,1,0,0,0,1749.449,1636.522Z" transform="translate(-1748.879 -1636.51)" fill="#ffa412"/>
      <path id="Trazado_114542" data-name="Trazado 114542" d="M1744.01,1637.257v2.721a.87.87,0,0,0,.41.274v-3.269A.873.873,0,0,0,1744.01,1637.257Z" transform="translate(-1744.01 -1636.933)" fill="#ffa412"/>
    </g>
    <path id="Trazado_114543" data-name="Trazado 114543" d="M1724.776,1605.865v1.9a.647.647,0,0,0,.15.409.868.868,0,0,0,.41.274.935.935,0,0,0,.16.038,1,1,0,0,0,.154.012h36.081a1,1,0,0,0,.4-.083.749.749,0,0,0,.467-.58c0-.011,0-.022,0-.033s0-.025,0-.037v-1.9c0-.012,0-.025,0-.038a.824.824,0,0,0-.872-.7h-36.081a1.014,1.014,0,0,0-.154.012.924.924,0,0,0-.16.038.871.871,0,0,0-.41.274A.648.648,0,0,0,1724.776,1605.865Z" transform="translate(-1351.354 -1334.352)" fill="#ffc76c"/>
    <path id="Trazado_114544" data-name="Trazado 114544" d="M1894,1608.5h19.329a.81.81,0,0,0,.359-.083.736.736,0,0,0,.417-.58.3.3,0,0,0,0-.033c0-.012,0-.025,0-.037v-1.9c0-.012,0-.025,0-.038a.763.763,0,0,0-.779-.7h-16.956a5.912,5.912,0,0,1-2.255,3.285Z" transform="translate(-1502.859 -1334.352)" fill="#ffae39"/>
    <g id="Grupo_80644" data-name="Grupo 80644" transform="translate(373.572 270.781)">
      <rect id="Rectángulo_34011" data-name="Rectángulo 34011" width="0.41" height="3.368" transform="translate(4.651 3.368) rotate(180)" fill="#ffa412"/>
      <rect id="Rectángulo_34012" data-name="Rectángulo 34012" width="0.41" height="3.368" transform="translate(6.039 3.368) rotate(180)" fill="#ffa412"/>
      <rect id="Rectángulo_34013" data-name="Rectángulo 34013" width="0.41" height="3.368" transform="translate(7.703 3.368) rotate(180)" fill="#ffa412"/>
      <rect id="Rectángulo_34014" data-name="Rectángulo 34014" width="0.41" height="3.368" transform="translate(10.255 3.368) rotate(180)" fill="#ffa412"/>
      <rect id="Rectángulo_34015" data-name="Rectángulo 34015" width="0.41" height="3.368" transform="translate(12.953 3.368) rotate(180)" fill="#ffa412"/>
      <rect id="Rectángulo_34016" data-name="Rectángulo 34016" width="0.41" height="3.368" transform="translate(17.089 3.368) rotate(180)" fill="#ffa412"/>
      <rect id="Rectángulo_34017" data-name="Rectángulo 34017" width="0.41" height="3.368" transform="translate(20.962 3.368) rotate(180)" fill="#ffa412"/>
      <rect id="Rectángulo_34018" data-name="Rectángulo 34018" width="0.41" height="3.368" transform="translate(24.42 3.368) rotate(180)" fill="#ffa412"/>
      <rect id="Rectángulo_34019" data-name="Rectángulo 34019" width="0.41" height="3.368" transform="translate(3.33 3.368) rotate(180)" fill="#ffa412"/>
      <rect id="Rectángulo_34020" data-name="Rectángulo 34020" width="0.41" height="3.368" transform="translate(2.457 3.368) rotate(180)" fill="#ffa412"/>
      <rect id="Rectángulo_34021" data-name="Rectángulo 34021" width="0.41" height="3.368" transform="translate(1.614 3.368) rotate(180)" fill="#ffa412"/>
      <path id="Trazado_114545" data-name="Trazado 114545" d="M1731.644,1605.145v3.345a.994.994,0,0,0,.154.012h.256v-3.368h-.256A.994.994,0,0,0,1731.644,1605.145Z" transform="translate(-1731.074 -1605.133)" fill="#ffa412"/>
      <path id="Trazado_114546" data-name="Trazado 114546" d="M1726.2,1605.879v2.721a.868.868,0,0,0,.41.274V1605.6A.867.867,0,0,0,1726.2,1605.879Z" transform="translate(-1726.205 -1605.555)" fill="#ffa412"/>
    </g>
    <path id="Trazado_114547" data-name="Trazado 114547" d="M1696.615,1573.694v1.9a.647.647,0,0,0,.15.409.87.87,0,0,0,.41.275.953.953,0,0,0,.16.037,1.016,1.016,0,0,0,.154.012h36.08a.824.824,0,0,0,.872-.7c0-.012,0-.025,0-.038v-1.9c0-.012,0-.025,0-.037a.8.8,0,0,0-.768-.69,1,1,0,0,0-.1-.005h-36.08a1,1,0,0,0-.154.012.942.942,0,0,0-.16.038.867.867,0,0,0-.41.274A.648.648,0,0,0,1696.615,1573.694Z" transform="translate(-1326.141 -1305.549)" fill="#ffc76c"/>
    <path id="Trazado_114548" data-name="Trazado 114548" d="M1865.836,1576.329h19.33a.763.763,0,0,0,.778-.7c0-.012,0-.025,0-.038v-1.9c0-.012,0-.025,0-.037a.756.756,0,0,0-.686-.69.787.787,0,0,0-.092-.005H1868.21v.005A5.906,5.906,0,0,1,1865.836,1576.329Z" transform="translate(-1477.645 -1305.549)" fill="#ffae39"/>
    <g id="Grupo_80645" data-name="Grupo 80645" transform="translate(370.623 267.412)">
      <rect id="Rectángulo_34022" data-name="Rectángulo 34022" width="0.41" height="3.368" transform="translate(4.651 3.368) rotate(180)" fill="#ffa412"/>
      <rect id="Rectángulo_34023" data-name="Rectángulo 34023" width="0.41" height="3.368" transform="translate(6.039 3.368) rotate(180)" fill="#ffa412"/>
      <rect id="Rectángulo_34024" data-name="Rectángulo 34024" width="0.41" height="3.368" transform="translate(7.703 3.368) rotate(180)" fill="#ffa412"/>
      <rect id="Rectángulo_34025" data-name="Rectángulo 34025" width="0.41" height="3.368" transform="translate(10.255 3.368) rotate(180)" fill="#ffa412"/>
      <rect id="Rectángulo_34026" data-name="Rectángulo 34026" width="0.41" height="3.368" transform="translate(12.953 3.368) rotate(180)" fill="#ffa412"/>
      <rect id="Rectángulo_34027" data-name="Rectángulo 34027" width="0.41" height="3.368" transform="translate(17.089 3.368) rotate(180)" fill="#ffa412"/>
      <rect id="Rectángulo_34028" data-name="Rectángulo 34028" width="0.41" height="3.368" transform="translate(20.962 3.368) rotate(180)" fill="#ffa412"/>
      <rect id="Rectángulo_34029" data-name="Rectángulo 34029" width="0.41" height="3.368" transform="translate(24.42 3.368) rotate(180)" fill="#ffa412"/>
      <rect id="Rectángulo_34030" data-name="Rectángulo 34030" width="0.41" height="3.368" transform="translate(3.33 3.368) rotate(180)" fill="#ffa412"/>
      <rect id="Rectángulo_34031" data-name="Rectángulo 34031" width="0.41" height="3.368" transform="translate(2.457 3.368) rotate(180)" fill="#ffa412"/>
      <rect id="Rectángulo_34032" data-name="Rectángulo 34032" width="0.41" height="3.368" transform="translate(1.614 3.368) rotate(180)" fill="#ffa412"/>
      <path id="Trazado_114549" data-name="Trazado 114549" d="M1703.48,1572.972v3.345a1.03,1.03,0,0,0,.154.012h.256v-3.368h-.256A1.031,1.031,0,0,0,1703.48,1572.972Z" transform="translate(-1702.911 -1572.96)" fill="#ffa412"/>
      <path id="Trazado_114550" data-name="Trazado 114550" d="M1698.042,1573.707v2.721a.868.868,0,0,0,.41.275v-3.269A.869.869,0,0,0,1698.042,1573.707Z" transform="translate(-1698.042 -1573.384)" fill="#ffa412"/>
    </g>
    <path id="Trazado_114551" data-name="Trazado 114551" d="M1741.857,1541.573v1.9a.648.648,0,0,0,.149.409.869.869,0,0,0,.41.274.948.948,0,0,0,.16.038l.051.007.041,0h36.143a.824.824,0,0,0,.872-.7c0-.013,0-.025,0-.038v-1.9c0-.013,0-.025,0-.038a.824.824,0,0,0-.872-.7h-36.08l-.046,0a.91.91,0,0,0-.107.01.972.972,0,0,0-.16.038c-.026.009-.052.018-.075.028l-.045.021,0,0-.044.023-.007,0a.446.446,0,0,0-.039.024.676.676,0,0,0-.087.064l-.025.022,0,0-.015.014,0,0-.026.027-.035.04A.648.648,0,0,0,1741.857,1541.573Z" transform="translate(-1366.647 -1276.791)" fill="#ffc76c"/>
    <path id="Trazado_114552" data-name="Trazado 114552" d="M1911.079,1544.208h19.329a.763.763,0,0,0,.778-.7c0-.013,0-.025,0-.038v-1.9c0-.013,0-.025,0-.038a.763.763,0,0,0-.778-.7h-16.956c-.007.025-.014.052-.022.078a5.892,5.892,0,0,1-2.344,3.286Z" transform="translate(-1518.151 -1276.791)" fill="#ffae39"/>
    <g id="Grupo_80646" data-name="Grupo 80646" transform="translate(375.36 264.049)">
      <rect id="Rectángulo_34033" data-name="Rectángulo 34033" width="0.41" height="3.368" transform="translate(4.651 3.368) rotate(180)" fill="#ffa412"/>
      <rect id="Rectángulo_34034" data-name="Rectángulo 34034" width="0.41" height="3.368" transform="translate(6.039 3.368) rotate(180)" fill="#ffa412"/>
      <rect id="Rectángulo_34035" data-name="Rectángulo 34035" width="0.41" height="3.368" transform="translate(7.703 3.368) rotate(180)" fill="#ffa412"/>
      <rect id="Rectángulo_34036" data-name="Rectángulo 34036" width="0.41" height="3.368" transform="translate(10.255 3.368) rotate(180)" fill="#ffa412"/>
      <rect id="Rectángulo_34037" data-name="Rectángulo 34037" width="0.41" height="3.368" transform="translate(12.953 3.368) rotate(180)" fill="#ffa412"/>
      <rect id="Rectángulo_34038" data-name="Rectángulo 34038" width="0.41" height="3.368" transform="translate(17.089 3.368) rotate(180)" fill="#ffa412"/>
      <rect id="Rectángulo_34039" data-name="Rectángulo 34039" width="0.41" height="3.368" transform="translate(20.962 3.368) rotate(180)" fill="#ffa412"/>
      <rect id="Rectángulo_34040" data-name="Rectángulo 34040" width="0.41" height="3.368" transform="translate(24.42 3.368) rotate(180)" fill="#ffa412"/>
      <rect id="Rectángulo_34041" data-name="Rectángulo 34041" width="0.41" height="3.368" transform="translate(3.33 3.368) rotate(180)" fill="#ffa412"/>
      <rect id="Rectángulo_34042" data-name="Rectángulo 34042" width="0.41" height="3.368" transform="translate(2.457 3.368) rotate(180)" fill="#ffa412"/>
      <rect id="Rectángulo_34043" data-name="Rectángulo 34043" width="0.41" height="3.368" transform="translate(1.614 3.368) rotate(180)" fill="#ffa412"/>
      <path id="Trazado_114553" data-name="Trazado 114553" d="M1748.725,1540.852v3.345a1.009,1.009,0,0,0,.154.012h.256v-3.368h-.256A1.025,1.025,0,0,0,1748.725,1540.852Z" transform="translate(-1748.156 -1540.84)" fill="#ffa412"/>
      <path id="Trazado_114554" data-name="Trazado 114554" d="M1743.286,1541.585v2.721a.87.87,0,0,0,.409.274v-3.27A.87.87,0,0,0,1743.286,1541.585Z" transform="translate(-1743.286 -1541.262)" fill="#ffa412"/>
    </g>
    <path id="Trazado_114555" data-name="Trazado 114555" d="M1716.522,1510.144v1.9a.647.647,0,0,0,.15.409.866.866,0,0,0,.41.274.928.928,0,0,0,.16.038,1.013,1.013,0,0,0,.154.012h36.08a1,1,0,0,0,.39-.078.749.749,0,0,0,.479-.588c0-.01,0-.02,0-.03s0-.025,0-.037v-1.9c0-.013,0-.025,0-.038a.8.8,0,0,0-.769-.69.986.986,0,0,0-.1-.005h-36.08a1,1,0,0,0-.154.012.951.951,0,0,0-.16.037.869.869,0,0,0-.41.275A.646.646,0,0,0,1716.522,1510.144Z" transform="translate(-1343.964 -1248.653)" fill="#ffc76c"/>
    <path id="Trazado_114556" data-name="Trazado 114556" d="M1885.743,1512.779h19.329a.808.808,0,0,0,.348-.078.738.738,0,0,0,.428-.588c0-.01,0-.02,0-.03s0-.025,0-.037v-1.9c0-.013,0-.025,0-.038a.757.757,0,0,0-.686-.69.784.784,0,0,0-.092-.005h-16.956v.005a5.909,5.909,0,0,1-2.261,3.285Q1885.8,1512.741,1885.743,1512.779Z" transform="translate(-1495.468 -1248.653)" fill="#ffae39"/>
    <g id="Grupo_80647" data-name="Grupo 80647" transform="translate(372.707 260.759)">
      <rect id="Rectángulo_34044" data-name="Rectángulo 34044" width="0.41" height="3.368" transform="translate(4.651 3.368) rotate(180)" fill="#ffa412"/>
      <rect id="Rectángulo_34045" data-name="Rectángulo 34045" width="0.41" height="3.368" transform="translate(6.039 3.368) rotate(180)" fill="#ffa412"/>
      <rect id="Rectángulo_34046" data-name="Rectángulo 34046" width="0.41" height="3.368" transform="translate(7.703 3.368) rotate(180)" fill="#ffa412"/>
      <rect id="Rectángulo_34047" data-name="Rectángulo 34047" width="0.41" height="3.368" transform="translate(10.255 3.368) rotate(180)" fill="#ffa412"/>
      <rect id="Rectángulo_34048" data-name="Rectángulo 34048" width="0.41" height="3.368" transform="translate(12.953 3.368) rotate(180)" fill="#ffa412"/>
      <rect id="Rectángulo_34049" data-name="Rectángulo 34049" width="0.41" height="3.368" transform="translate(17.089 3.368) rotate(180)" fill="#ffa412"/>
      <rect id="Rectángulo_34050" data-name="Rectángulo 34050" width="0.41" height="3.368" transform="translate(20.962 3.368) rotate(180)" fill="#ffa412"/>
      <rect id="Rectángulo_34051" data-name="Rectángulo 34051" width="0.41" height="3.368" transform="translate(24.42 3.368) rotate(180)" fill="#ffa412"/>
      <rect id="Rectángulo_34052" data-name="Rectángulo 34052" width="0.41" height="3.368" transform="translate(3.33 3.368) rotate(180)" fill="#ffa412"/>
      <rect id="Rectángulo_34053" data-name="Rectángulo 34053" width="0.41" height="3.368" transform="translate(2.457 3.368) rotate(180)" fill="#ffa412"/>
      <rect id="Rectángulo_34054" data-name="Rectángulo 34054" width="0.41" height="3.368" transform="translate(1.614 3.368) rotate(180)" fill="#ffa412"/>
      <path id="Trazado_114557" data-name="Trazado 114557" d="M1723.389,1509.422v3.345a1.014,1.014,0,0,0,.154.012h.257v-3.368h-.257A1,1,0,0,0,1723.389,1509.422Z" transform="translate(-1722.819 -1509.41)" fill="#ffa412"/>
      <path id="Trazado_114558" data-name="Trazado 114558" d="M1717.95,1510.157v2.721a.872.872,0,0,0,.41.274v-3.269A.87.87,0,0,0,1717.95,1510.157Z" transform="translate(-1717.95 -1509.833)" fill="#ffa412"/>
    </g>
    <path id="Trazado_114559" data-name="Trazado 114559" d="M1705.736,1478.023v1.9a.648.648,0,0,0,.15.409.868.868,0,0,0,.41.274.925.925,0,0,0,.16.038l.051.006.028,0,.029,0h36.127a.824.824,0,0,0,.872-.7q0-.019,0-.037v-1.9c0-.012,0-.025,0-.038a.824.824,0,0,0-.872-.7h-36.081a1,1,0,0,0-.154.012.948.948,0,0,0-.16.037.869.869,0,0,0-.41.275A.646.646,0,0,0,1705.736,1478.023Z" transform="translate(-1334.307 -1219.895)" fill="#ffc76c"/>
    <path id="Trazado_114560" data-name="Trazado 114560" d="M1874.957,1480.658h19.33a.763.763,0,0,0,.778-.7c0-.012,0-.025,0-.037v-1.9c0-.012,0-.025,0-.038a.763.763,0,0,0-.778-.7h-16.956a5.9,5.9,0,0,1-2.366,3.363Z" transform="translate(-1485.811 -1219.895)" fill="#ffae39"/>
    <g id="Grupo_80648" data-name="Grupo 80648" transform="translate(371.578 257.396)">
      <rect id="Rectángulo_34055" data-name="Rectángulo 34055" width="0.41" height="3.368" transform="translate(4.651 3.368) rotate(180)" fill="#ffa412"/>
      <rect id="Rectángulo_34056" data-name="Rectángulo 34056" width="0.41" height="3.368" transform="translate(6.039 3.368) rotate(180)" fill="#ffa412"/>
      <rect id="Rectángulo_34057" data-name="Rectángulo 34057" width="0.41" height="3.368" transform="translate(7.703 3.368) rotate(180)" fill="#ffa412"/>
      <rect id="Rectángulo_34058" data-name="Rectángulo 34058" width="0.41" height="3.368" transform="translate(10.255 3.368) rotate(180)" fill="#ffa412"/>
      <rect id="Rectángulo_34059" data-name="Rectángulo 34059" width="0.41" height="3.368" transform="translate(12.953 3.368) rotate(180)" fill="#ffa412"/>
      <rect id="Rectángulo_34060" data-name="Rectángulo 34060" width="0.41" height="3.368" transform="translate(17.089 3.368) rotate(180)" fill="#ffa412"/>
      <rect id="Rectángulo_34061" data-name="Rectángulo 34061" width="0.41" height="3.368" transform="translate(20.962 3.368) rotate(180)" fill="#ffa412"/>
      <rect id="Rectángulo_34062" data-name="Rectángulo 34062" width="0.41" height="3.368" transform="translate(24.01 0)" fill="#ffa412"/>
      <rect id="Rectángulo_34063" data-name="Rectángulo 34063" width="0.41" height="3.368" transform="translate(3.33 3.368) rotate(180)" fill="#ffa412"/>
      <rect id="Rectángulo_34064" data-name="Rectángulo 34064" width="0.41" height="3.368" transform="translate(2.457 3.368) rotate(180)" fill="#ffa412"/>
      <rect id="Rectángulo_34065" data-name="Rectángulo 34065" width="0.41" height="3.368" transform="translate(1.614 3.368) rotate(180)" fill="#ffa412"/>
      <path id="Trazado_114561" data-name="Trazado 114561" d="M1712.6,1477.3v3.345a1.024,1.024,0,0,0,.154.012h.256v-3.368h-.256A1.024,1.024,0,0,0,1712.6,1477.3Z" transform="translate(-1712.035 -1477.289)" fill="#ffa412"/>
      <path id="Trazado_114562" data-name="Trazado 114562" d="M1707.165,1478.037v2.72a.864.864,0,0,0,.41.274v-3.269A.868.868,0,0,0,1707.165,1478.037Z" transform="translate(-1707.165 -1477.713)" fill="#ffa412"/>
    </g>
    <g id="Grupo_80651" data-name="Grupo 80651" transform="translate(397.713 259.732)">
      <circle id="Elipse_4751" data-name="Elipse 4751" cx="17.148" cy="17.148" r="17.148" transform="translate(0 34.295) rotate(-90)" fill="#e2810e"/>
      <circle id="Elipse_4752" data-name="Elipse 4752" cx="17.148" cy="17.148" r="17.148" transform="translate(1.496 34.295) rotate(-90)" fill="#ffc76c"/>
      <g id="Grupo_80649" data-name="Grupo 80649" transform="translate(3.02 1.727)">
        <path id="Trazado_114563" data-name="Trazado 114563" d="M1990.2,1542.774a15.623,15.623,0,1,1,11.047,4.576A15.521,15.521,0,0,1,1990.2,1542.774Zm-3.644-11.047a14.691,14.691,0,1,0,14.691-14.691A14.708,14.708,0,0,0,1986.56,1531.726Z" transform="translate(-1985.628 -1516.103)" fill="#ffa412"/>
      </g>
      <g id="Grupo_80650" data-name="Grupo 80650" transform="translate(11.806 5.812)">
        <path id="Trazado_114564" data-name="Trazado 114564" d="M2078.537,1571.193a2.582,2.582,0,0,0-.037-.907,1.879,1.879,0,0,0-.384-.753,3.57,3.57,0,0,0-.767-.677,9.4,9.4,0,0,0-1.189-.666,24.7,24.7,0,0,1-2.195-1.206,7.766,7.766,0,0,1-1.641-1.336,4.581,4.581,0,0,1-.97-1.628,5.163,5.163,0,0,1,.417-3.9,4.346,4.346,0,0,1,1.211-1.345,5.423,5.423,0,0,1,1.733-.825,7.241,7.241,0,0,1,2.165-.25l.305-2.575,2.073.246-.31,2.611a6.487,6.487,0,0,1,1.951.83,4.9,4.9,0,0,1,2.183,3.132,6.521,6.521,0,0,1,.085,2.213l-3.744-.444a3.177,3.177,0,0,0-.385-2.236,2.206,2.206,0,0,0-1.632-.92,2.8,2.8,0,0,0-1.023.043,1.9,1.9,0,0,0-.746.363,1.771,1.771,0,0,0-.481.62,2.607,2.607,0,0,0-.228.815,2.384,2.384,0,0,0,.034.821,1.764,1.764,0,0,0,.368.721,3.557,3.557,0,0,0,.773.677,12.065,12.065,0,0,0,1.235.714q1.2.619,2.173,1.234a7.866,7.866,0,0,1,1.633,1.347,4.639,4.639,0,0,1,.969,1.634,5.18,5.18,0,0,1-.427,3.927,4.294,4.294,0,0,1-1.215,1.332,5.24,5.24,0,0,1-1.743.794,7.8,7.8,0,0,1-2.175.23l-.284,2.395-2.06-.244.283-2.383a8.741,8.741,0,0,1-2.024-.716,5.542,5.542,0,0,1-1.658-1.252,4.962,4.962,0,0,1-1.04-1.862,6.048,6.048,0,0,1-.172-2.534l3.744.444a3.719,3.719,0,0,0,.07,1.454,2.4,2.4,0,0,0,.533.991,2.328,2.328,0,0,0,.856.59,4,4,0,0,0,1.027.262,3.352,3.352,0,0,0,1.087-.029,2.232,2.232,0,0,0,.822-.342,1.779,1.779,0,0,0,.544-.6A2.164,2.164,0,0,0,2078.537,1571.193Z" transform="translate(-2069.543 -1555.121)" fill="#ffa412"/>
      </g>
    </g>
    <g id="Grupo_80652" data-name="Grupo 80652" transform="translate(313.482 268.017)">
      <path id="Trazado_114565" data-name="Trazado 114565" d="M1334.8,1582.865s-2.164,3.046-4.148,3.089a14.5,14.5,0,0,1-5-1.412s-1.822-4.06-.586-5.648a2.653,2.653,0,0,1,2.535.417,3.909,3.909,0,0,1,.671.643,2.127,2.127,0,0,0,1.041.706c1.416.431,3.1-.582,3.724.4a6.652,6.652,0,0,0,1.094,1.3A5,5,0,0,0,1334.8,1582.865Z" transform="translate(-1306.588 -1578.74)" fill="#ffeddc"/>
      <path id="Trazado_114566" data-name="Trazado 114566" d="M1152.271,1666.527s7.649-18.534,21.417-18.887c0,0,12.709,1.412,13.415,18.887Z" transform="translate(-1152.271 -1640.426)" fill="#ffeddc"/>
      <path id="Trazado_114567" data-name="Trazado 114567" d="M1320.571,1632.534s5.518,1.227,7.221.506a1.7,1.7,0,0,0-2.067-1.984,4.876,4.876,0,0,1-3.236-.853C1321.627,1629.764,1320.342,1631.569,1320.571,1632.534Z" transform="translate(-1302.926 -1624.754)" fill="#2b478b"/>
      <path id="Trazado_114568" data-name="Trazado 114568" d="M1354.385,1587.914c-.353.265-1.437-3.732-1.437-3.732a3.89,3.89,0,0,1,.671.643,2.131,2.131,0,0,0,1.042.706C1354.664,1585.648,1354.727,1587.657,1354.385,1587.914Z" transform="translate(-1331.937 -1583.613)" fill="#e5c1a1"/>
      <path id="Trazado_114569" data-name="Trazado 114569" d="M1389.555,1602.136a22.739,22.739,0,0,1-2.976,1.574c-.353,0,1.882-2.87,1.882-2.87A6.645,6.645,0,0,0,1389.555,1602.136Z" transform="translate(-1362.013 -1598.526)" fill="#e5c1a1"/>
      <path id="Trazado_114570" data-name="Trazado 114570" d="M1223.618,1708.127c-.141-.121,5.413-8.178,6.943-8.237s4.967,1.765,7.455,2,4.9-.471,5.371,1,1.765,6.686.971,7.52S1226.672,1710.737,1223.618,1708.127Z" transform="translate(-1216.146 -1687.205)" fill="#f9ddbf"/>
    </g>
    <g id="Grupo_80653" data-name="Grupo 80653" transform="translate(373.28 173.152)">
      <path id="Trazado_114571" data-name="Trazado 114571" d="M1723.938,689.364l-.522-2.94,1.132-.2.517,2.911c.149.838.645,1.2,1.336,1.075a1.08,1.08,0,0,0,.891-1.432l-.523-2.948,1.132-.2.516,2.9a2.1,2.1,0,0,1-1.844,2.724A2.074,2.074,0,0,1,1723.938,689.364Z" transform="translate(-1723.416 -684.269)" fill="#a8d29f"/>
      <path id="Trazado_114572" data-name="Trazado 114572" d="M1777.269,679.657l2.389-.424a1.886,1.886,0,0,1,1.426.217,1.288,1.288,0,0,1,.031,2.057,1.283,1.283,0,0,1,1.19,1.108c.167.941-.514,1.547-1.675,1.753l-2.448.435Zm2.516,1.7c.5-.089.787-.307.717-.7-.06-.338-.359-.482-.837-.4l-1.118.2.193,1.088Zm.67,2.02c.5-.089.77-.319.7-.716-.061-.346-.357-.513-.937-.41l-1.308.232.2,1.132Z" transform="translate(-1771.631 -678.504)" fill="#a8d29f"/>
      <path id="Trazado_114573" data-name="Trazado 114573" d="M1828.452,672.86l1.132-.2.914,5.146-1.132.2Z" transform="translate(-1817.455 -672.659)" fill="#a8d29f"/>
    </g>
    <g id="Grupo_80659" data-name="Grupo 80659" transform="translate(350.104 204.836)">
      <g id="Grupo_80658" data-name="Grupo 80658">
        <g id="Grupo_80657" data-name="Grupo 80657">
          <path id="Trazado_114574" data-name="Trazado 114574" d="M1789.91,1610.384a.94.94,0,0,1,.168,1.006.007.007,0,0,1,0,.005,6.257,6.257,0,0,1-1.976,2.168c-.119.1-.225.183-.317.264-.024.021-.049.042-.071.064l-.055.049c-.869.8-.542.984-2.1,2.609-1.78,1.852-3.005,1.885-3.354,1.716-.295-.144.3-1.126.968-2.23.033-.053.064-.107.1-.161.088-.147.176-.3.264-.443.778-1.329.578-1.952.394-3.929-.15-1.606-2.5-8.975-2.5-8.975l3.411-.588s1.027,5.868,2.159,6.772c.6.482,1.282.488,1.864.845.041.025.081.05.121.076A4.474,4.474,0,0,1,1789.91,1610.384Z" transform="translate(-1752.174 -1536.33)" fill="#ffb27d"/>
          <path id="Trazado_114575" data-name="Trazado 114575" d="M1795.892,1675.511a.941.941,0,0,1,.168,1.006.008.008,0,0,1,0,.005,7.241,7.241,0,0,1-1.98,2.161c-.118.1-.221.188-.314.271-.024.021-.049.042-.071.064l-.055.05c-.869.8-.542.984-2.1,2.609-1.78,1.852-3.005,1.885-3.354,1.716-.295-.144.3-1.126.968-2.229a7.585,7.585,0,0,0,3.172-2.338c1.071-1.367,1.786-3.125,2.516-4.142.041.025.081.051.121.077A4.471,4.471,0,0,1,1795.892,1675.511Z" transform="translate(-1758.157 -1601.458)" fill="#233862"/>
          <path id="Trazado_114576" data-name="Trazado 114576" d="M1512.3,1599.378c-.211,1.053-1.711.877-3.388.468s-1.278.077-3.664-.187-3.109-1.154-3.182-1.509c-.065-.315,1.114-.426,2.378-.572.159-.018.319-.037.479-.057,1.428-.179,2.474-1.1,3.77-1.857,1.228-.717,3.062-3.637,3.062-3.637l3.272.259s-1.717,2.608-2.381,3.742a3.954,3.954,0,0,0-.321,2.23A4.205,4.205,0,0,1,1512.3,1599.378Z" transform="translate(-1502.063 -1527.455)" fill="#ffb27d"/>
          <path id="Trazado_114577" data-name="Trazado 114577" d="M1508.911,1647.314c-1.677-.41-1.278.077-3.664-.187s-3.109-1.154-3.182-1.509c-.065-.315,1.114-.426,2.378-.571l.012.024a6.726,6.726,0,0,0,3.417,1.062c1.619.039,3.333-.425,4.451-.406a4.2,4.2,0,0,1-.025,1.119C1512.088,1647.9,1510.587,1647.723,1508.911,1647.314Z" transform="translate(-1502.063 -1574.923)" fill="#233862"/>
          <path id="Trazado_114578" data-name="Trazado 114578" d="M1719.6,1417.534l3.059,8.231,3.993,10.747a6.47,6.47,0,0,0,2.122-.194,9.2,9.2,0,0,0,2.052-1s-1.109-11.54-3.177-18.165a11.8,11.8,0,0,0-1.78-3.85C1722.664,1409.516,1719.6,1417.534,1719.6,1417.534Z" transform="translate(-1696.826 -1366.534)" fill="#233862"/>
          <path id="Trazado_114579" data-name="Trazado 114579" d="M1594.626,1323.476c2-.646,7.72.184,13.461,1.308l1.2-1.983,12.4-.969s4.092,9.075,1.852,14.858a2.1,2.1,0,0,1-2.1,1.413h-.181s-7.381,0-9.778,0c-6.168,0-13.053-4.24-13.944-4.417-1.458-.292-2.041,2.624-3.5,5.686s-13.7,13.558-13.7,13.558a10.772,10.772,0,0,1-2.66-.273,2.618,2.618,0,0,1-1.142-.721S1590.106,1324.934,1594.626,1323.476Z" transform="translate(-1568.74 -1285.548)" fill="#2b478b"/>
          <path id="Trazado_114580" data-name="Trazado 114580" d="M1835.1,995.291a135.675,135.675,0,0,0,13.386,8.669s3.019,1.808,5.078.921c3.433-1.479,6.069-6.657,1.321-12.385-2.368-2.857-4.332-3.8-3.871-7.6.5-4.116-1.359-9.29-6.1-9.507a13.082,13.082,0,0,0-4.507.2C1836.052,976.96,1828.755,993.183,1835.1,995.291Z" transform="translate(-1798.007 -975.281)" fill="#233862"/>
          <path id="Trazado_114581" data-name="Trazado 114581" d="M1890.624,1142.8c-.255.7-6.96,1.333-10.775,1.08a5.233,5.233,0,0,1-2.462-.532c-1.361-1.182-1.225,1.417-1.412-11.021-.09-6.067,5.148-11.47,5.148-11.47s.418,2.592,5.614-.493c.184-.108,2.23,2.922,4.2,6.652C1893.105,1131.138,1890.885,1142.077,1890.624,1142.8Z" transform="translate(-1836.825 -1105.172)" fill="#aec3ff"/>
          <path id="Trazado_114582" data-name="Trazado 114582" d="M1748.818,1467.387l3.994,10.748a6.477,6.477,0,0,0,2.121-.194,9.2,9.2,0,0,0,2.052-1s-1.109-11.54-3.178-18.164Z" transform="translate(-1722.983 -1408.157)" fill="#2b478b"/>
          <path id="Trazado_114583" data-name="Trazado 114583" d="M1797.376,1125.086s-4.743,1.164-5.973,3.208c-1.5,2.49-8.969,13.715-8.969,13.715s7.365,2.605,8.621,1.35,4.368-11.647,4.368-11.647Z" transform="translate(-1753.078 -1109.402)" fill="#aec3ff"/>
          <path id="Trazado_114584" data-name="Trazado 114584" d="M1925.837,1083.815a12.89,12.89,0,0,1-3.331,2.3c-.555.2-1.477.424-1.477.424s-.74-.749-.75-.759c-.658-.614,0-.791-.1-1.952-.005-.055-.009-.111-.016-.167a20.937,20.937,0,0,0-.532-2.814.011.011,0,0,1,0,0l4.59-1.312-.148.253C1924.358,1082.166,1925.213,1083.746,1925.837,1083.815Z" transform="translate(-1875.914 -1068.615)" fill="#ffb27d"/>
          <path id="Trazado_114585" data-name="Trazado 114585" d="M1924.223,1079.53a5.129,5.129,0,0,1-4.135,3.51,21.9,21.9,0,0,0-.453-2.194.011.011,0,0,1,0,0Z" transform="translate(-1875.914 -1068.615)" fill="#ed975d"/>
          <path id="Trazado_114586" data-name="Trazado 114586" d="M1889.584,1014.136s6.187-.411,5.871-4.26.271-6.494-3.693-6.394-4.61,1.631-4.817,2.942S1887.967,1014.144,1889.584,1014.136Z" transform="translate(-1846.629 -1000.527)" fill="#ffb27d"/>
          <path id="Trazado_114587" data-name="Trazado 114587" d="M1901.718,995.744s1.537,4.51,5.187,5.035c2.662.382,3.72-.337,3.72-.337a10.449,10.449,0,0,1-2.291-3.584,1.882,1.882,0,0,0-1.474-1.211C1904.965,995.354,1902.518,994.1,1901.718,995.744Z" transform="translate(-1859.875 -992.858)" fill="#233862"/>
          <path id="Trazado_114588" data-name="Trazado 114588" d="M1886.027,1003.358a4.082,4.082,0,0,0-1.875,2.1,7.875,7.875,0,0,0-.466,3.932s-1.779-4.115-.491-5.97C1884.561,1001.448,1886.027,1003.358,1886.027,1003.358Z" transform="translate(-1842.872 -999.673)" fill="#233862"/>
          <path id="Trazado_114589" data-name="Trazado 114589" d="M1917.163,1120.577s.378,2.284.847,2.711a3.321,3.321,0,0,1-1.75-1.972S1916.675,1120.629,1917.163,1120.577Z" transform="translate(-1872.894 -1105.365)" fill="#91b0f2"/>
          <path id="Trazado_114590" data-name="Trazado 114590" d="M1856.512,1194.7s-3.455,4.145-3.029,5.646,2.818,1.5,2.818,1.5a16.576,16.576,0,0,1,0-4.862C1856.747,1195.318,1857.027,1194.6,1856.512,1194.7Z" transform="translate(-1816.657 -1171.717)" fill="#91b0f2"/>
          <path id="Trazado_114591" data-name="Trazado 114591" d="M1948.093,1228.614s4.977-3.033,4.912-4.8,0-5,.469-4.543,1.943,4.085,1.8,5.114-5.167,8.21-5.789,8.192C1945.048,1232.458,1948.093,1228.614,1948.093,1228.614Z" transform="translate(-1900.482 -1193.692)" fill="#91b0f2"/>
          <path id="Trazado_114592" data-name="Trazado 114592" d="M1936.811,1110.352s-2.718,3.418-3.842,3.781a7.729,7.729,0,0,0,5.448-2.666S1937.664,1110.363,1936.811,1110.352Z" transform="translate(-1887.854 -1096.21)" fill="#91b0f2"/>
          <g id="Grupo_80656" data-name="Grupo 80656" transform="translate(20.312 16.249)">
            <circle id="Elipse_4753" data-name="Elipse 4753" cx="12.612" cy="12.612" r="12.612" transform="translate(1.188 24.797) rotate(-78.401)" fill="#e2810e"/>
            <circle id="Elipse_4754" data-name="Elipse 4754" cx="12.612" cy="12.612" r="12.612" transform="matrix(0.21, -0.978, 0.978, 0.21, 0, 24.663)" fill="#ffc76c"/>
            <g id="Grupo_80654" data-name="Grupo 80654" transform="translate(3.487 3.636)">
              <path id="Trazado_114593" data-name="Trazado 114593" d="M1740.859,1188.186a11.492,11.492,0,1,1,8.126-3.366A11.415,11.415,0,0,1,1740.859,1188.186Zm0-22.3a10.806,10.806,0,1,0,10.806,10.806A10.818,10.818,0,0,0,1740.859,1165.89Z" transform="translate(-1729.368 -1165.204)" fill="#ffa412"/>
            </g>
            <g id="Grupo_80655" data-name="Grupo 80655" transform="translate(9.945 6.641)">
              <path id="Trazado_114594" data-name="Trazado 114594" d="M1797.669,1205.725a1.886,1.886,0,0,0-.027-.667,1.387,1.387,0,0,0-.282-.554,2.616,2.616,0,0,0-.564-.5,6.861,6.861,0,0,0-.874-.49,18.068,18.068,0,0,1-1.614-.887,5.711,5.711,0,0,1-1.207-.982,3.37,3.37,0,0,1-.713-1.2,3.8,3.8,0,0,1,.307-2.872,3.2,3.2,0,0,1,.891-.989,3.993,3.993,0,0,1,1.275-.607,5.314,5.314,0,0,1,1.592-.183l.225-1.894,1.524.181-.228,1.921a4.771,4.771,0,0,1,1.435.61,3.6,3.6,0,0,1,1.606,2.3,4.8,4.8,0,0,1,.063,1.628l-2.754-.327a2.337,2.337,0,0,0-.283-1.645,1.622,1.622,0,0,0-1.2-.676,2.065,2.065,0,0,0-.753.032,1.4,1.4,0,0,0-.549.267,1.306,1.306,0,0,0-.354.456,1.918,1.918,0,0,0-.168.6,1.753,1.753,0,0,0,.025.6,1.3,1.3,0,0,0,.27.531,2.629,2.629,0,0,0,.569.5,8.955,8.955,0,0,0,.909.526q.883.454,1.6.907a5.77,5.77,0,0,1,1.2.991,3.251,3.251,0,0,1,.836,2.725,3.476,3.476,0,0,1-.437,1.366,3.16,3.16,0,0,1-.894.98,3.864,3.864,0,0,1-1.282.584,5.745,5.745,0,0,1-1.6.169l-.209,1.761-1.515-.18.208-1.752a6.443,6.443,0,0,1-1.488-.526,4.083,4.083,0,0,1-1.219-.921,3.647,3.647,0,0,1-.765-1.37,4.446,4.446,0,0,1-.127-1.864l2.754.327a2.738,2.738,0,0,0,.052,1.069,1.772,1.772,0,0,0,.392.729,1.72,1.72,0,0,0,.63.434,2.943,2.943,0,0,0,.755.193,2.459,2.459,0,0,0,.8-.022,1.64,1.64,0,0,0,.6-.252,1.3,1.3,0,0,0,.4-.442A1.6,1.6,0,0,0,1797.669,1205.725Z" transform="translate(-1791.054 -1193.903)" fill="#ffa412"/>
            </g>
          </g>
          <path id="Trazado_114595" data-name="Trazado 114595" d="M1710.2,1277.038s-.141-2.072.642-1.99c.961.1,1.982,2.379,1.513,2.82S1710.208,1277.549,1710.2,1277.038Z" transform="translate(-1688.399 -1243.661)" fill="#ffb27d"/>
          <path id="Trazado_114596" data-name="Trazado 114596" d="M1916.773,1331.727l-1.169-.7a3.026,3.026,0,0,0-1.151-.228c-.427.061-1.441-.118-1.473.047s.974.906.974.906c-.605.928-2.8,1.1-2.964,1.448-.2.424.788.822,1.325,1.052a3.132,3.132,0,0,0,2.7-.162c.579-.441,1.533-1.021,1.533-1.021Z" transform="translate(-1868.152 -1293.554)" fill="#ffb27d"/>
          <path id="Trazado_114597" data-name="Trazado 114597" d="M1960.292,1120.4s4.908.321,6.135,2.235,5.168,12.819,4.531,16.157-12.311,7.344-12.311,7.344a2.191,2.191,0,0,1-.516-1.644,3.421,3.421,0,0,1,.373-1.411s7.162-5.985,6.669-7.177C1963.353,1131.5,1960.292,1120.4,1960.292,1120.4Z" transform="translate(-1910.381 -1105.204)" fill="#aec3ff"/>
        </g>
      </g>
    </g>
    <path id="Trazado_114598" data-name="Trazado 114598" d="M568.4,1828.366l-287.446-.1a.365.365,0,0,1-.364-.364v-.222a.365.365,0,0,1,.364-.364l287.446.1a.365.365,0,0,1,.364.364V1828A.365.365,0,0,1,568.4,1828.366Z" transform="translate(-58.371 -1533.273)" fill="#2e3552"/>
  </g>
</svg>
