<svg xmlns="http://www.w3.org/2000/svg" width="272.495" height="184.973" viewBox="0 0 272.495 184.973">
  <g id="Grupo_105647" data-name="Grupo 105647" transform="translate(-285.123 -156.163)">
    <path id="Trazado_114355" data-name="Trazado 114355" d="M532.739,340.6c-5.905,0-32.53.007-66.311,0-9.327,0-19.2-.005-29.335-.008l-23.393-.012-13.323-.008c-59.455-.047-68.93.618-78.366.028-17.554,0-62.514-68.218-8.991-113.01,20.783-17.393-5.891-40.5,28.63-57.854,22.7-11.413,39.19,8.637,66.593,1.414,20.246-5.337,24.364-17.854,64.39-14.385C511.126,160.1,511.9,191.7,499.69,217.8c-7.71,16.477,30.091,11.389,47.571,35.979C577.1,295.749,533,339.973,532.739,340.6Z" transform="translate(0)" fill="#e1f3d7"/>
    <g id="Grupo_106355" data-name="Grupo 106355" transform="translate(285.123 222.953)">
      <rect id="Rectángulo_37210" data-name="Rectángulo 37210" width="93.431" height="1.35" transform="translate(3.003 76.053)" fill="#a4dc88"/>
      <rect id="Rectángulo_37211" data-name="Rectángulo 37211" width="95.347" height="1.35" transform="translate(2.046 77.404)" fill="#85d161"/>
      <rect id="Rectángulo_37212" data-name="Rectángulo 37212" width="97.976" height="1.35" transform="translate(0.731 78.754)" fill="#a4dc88"/>
      <g id="Grupo_106082" data-name="Grupo 106082" transform="translate(0 0)">
        <rect id="Rectángulo_37213" data-name="Rectángulo 37213" width="87.379" height="51.622" transform="translate(5.182 24.431)" fill="#e1f3d7"/>
        <path id="Trazado_137532" data-name="Trazado 137532" d="M417.533,857.9H319.039l50.143-25.416Z" transform="translate(-319.039 -832.481)" fill="#a4dc88"/>
        <path id="Trazado_137533" data-name="Trazado 137533" d="M494.76,902.813l68.593-.144-33.435-17.387Z" transform="translate(-479.81 -880.79)" fill="#85d161"/>
        <rect id="Rectángulo_37214" data-name="Rectángulo 37214" width="93.832" height="2.176" transform="translate(2.57 25.416)" fill="#85d161"/>
        <g id="Grupo_106077" data-name="Grupo 106077" transform="translate(9.538 25.416)">
          <rect id="Rectángulo_37215" data-name="Rectángulo 37215" width="9.243" height="3.272" fill="#c2e8b0"/>
          <rect id="Rectángulo_37216" data-name="Rectángulo 37216" width="5.095" height="47.366" transform="translate(2.074 3.272)" fill="#c2e8b0"/>
        </g>
        <g id="Grupo_106078" data-name="Grupo 106078" transform="translate(29.509 25.416)">
          <rect id="Rectángulo_37217" data-name="Rectángulo 37217" width="9.243" height="3.272" fill="#c2e8b0"/>
          <rect id="Rectángulo_37218" data-name="Rectángulo 37218" width="5.095" height="47.366" transform="translate(2.074 3.272)" fill="#c2e8b0"/>
        </g>
        <g id="Grupo_106079" data-name="Grupo 106079" transform="translate(60.904 25.416)">
          <rect id="Rectángulo_37219" data-name="Rectángulo 37219" width="9.243" height="3.272" transform="translate(0)" fill="#c2e8b0"/>
          <rect id="Rectángulo_37220" data-name="Rectángulo 37220" width="5.095" height="47.366" transform="translate(2.074 3.272)" fill="#c2e8b0"/>
        </g>
        <g id="Grupo_106080" data-name="Grupo 106080" transform="translate(79.709 25.416)">
          <rect id="Rectángulo_37221" data-name="Rectángulo 37221" width="9.243" height="3.272" fill="#c2e8b0"/>
          <rect id="Rectángulo_37222" data-name="Rectángulo 37222" width="5.095" height="47.366" transform="translate(2.074 3.272)" fill="#c2e8b0"/>
        </g>
        <g id="Grupo_106081" data-name="Grupo 106081" transform="translate(47.064 8.266)">
          <path id="Trazado_137534" data-name="Trazado 137534" d="M876.372,936.889a1.185,1.185,0,0,0-.06-.411.866.866,0,0,0-.21-.325,1.63,1.63,0,0,0-.381-.272,4.282,4.282,0,0,0-.573-.247,11.265,11.265,0,0,1-1.056-.445,3.551,3.551,0,0,1-.81-.53,2.092,2.092,0,0,1-.518-.7,2.362,2.362,0,0,1,.005-1.8,1.99,1.99,0,0,1,.488-.67,2.48,2.48,0,0,1,.75-.458,3.306,3.306,0,0,1,.974-.216l.017-1.187.955.014-.017,1.2a2.966,2.966,0,0,1,.927.285A2.243,2.243,0,0,1,878,932.462a2.988,2.988,0,0,1,.143,1l-1.725-.025a1.455,1.455,0,0,0-.281-1,1.009,1.009,0,0,0-.786-.341,1.284,1.284,0,0,0-.464.068.87.87,0,0,0-.323.2.813.813,0,0,0-.189.305,1.192,1.192,0,0,0-.065.382,1.091,1.091,0,0,0,.054.372.806.806,0,0,0,.2.311,1.631,1.631,0,0,0,.384.272,5.531,5.531,0,0,0,.6.267q.576.225,1.047.459a3.6,3.6,0,0,1,.807.536,2.021,2.021,0,0,1,.693,1.633,2.162,2.162,0,0,1-.183.874,1.964,1.964,0,0,1-.49.664,2.4,2.4,0,0,1-.756.444,3.577,3.577,0,0,1-.979.208l-.016,1.1-.949-.014.016-1.1a4.01,4.01,0,0,1-.955-.23,2.535,2.535,0,0,1-.814-.492,2.27,2.27,0,0,1-.562-.8,2.767,2.767,0,0,1-.2-1.146l1.726.025a1.7,1.7,0,0,0,.1.659,1.1,1.1,0,0,0,.289.426,1.07,1.07,0,0,0,.418.228,1.83,1.83,0,0,0,.48.071,1.528,1.528,0,0,0,.494-.065,1.022,1.022,0,0,0,.358-.195.811.811,0,0,0,.219-.3A.993.993,0,0,0,876.372,936.889Z" transform="translate(-872.21 -929.636)" fill="#67c53a"/>
        </g>
        <path id="Rectángulo_37223" data-name="Rectángulo 37223" d="M6.53,0h0a6.152,6.152,0,0,1,6.152,6.152V19.8a0,0,0,0,1,0,0H0a0,0,0,0,1,0,0V6.53A6.53,6.53,0,0,1,6.53,0Z" transform="translate(42.508 56.25)" fill="#67c53a"/>
        <path id="Rectángulo_37224" data-name="Rectángulo 37224" d="M3.082,0h0a2.9,2.9,0,0,1,2.9,2.9V9.348a0,0,0,0,1,0,0H0a0,0,0,0,1,0,0V3.082A3.082,3.082,0,0,1,3.082,0Z" transform="translate(38.684 36.735)" fill="#a4dc88"/>
        <path id="Rectángulo_37225" data-name="Rectángulo 37225" d="M3.082,0h0a2.9,2.9,0,0,1,2.9,2.9V9.348a0,0,0,0,1,0,0H0a0,0,0,0,1,0,0V3.082A3.082,3.082,0,0,1,3.082,0Z" transform="translate(21.152 36.735)" fill="#a4dc88"/>
        <path id="Rectángulo_37226" data-name="Rectángulo 37226" d="M3.082,0h0a2.9,2.9,0,0,1,2.9,2.9V9.348a0,0,0,0,1,0,0H0a0,0,0,0,1,0,0V3.082A3.082,3.082,0,0,1,3.082,0Z" transform="translate(21.152 56.804)" fill="#a4dc88"/>
        <path id="Rectángulo_37227" data-name="Rectángulo 37227" d="M3.082,0h0a2.9,2.9,0,0,1,2.9,2.9V9.348a0,0,0,0,1,0,0H0a0,0,0,0,1,0,0V3.082A3.082,3.082,0,0,1,3.082,0Z" transform="translate(71.935 36.735)" fill="#a4dc88"/>
        <path id="Rectángulo_37228" data-name="Rectángulo 37228" d="M3.082,0h0a2.9,2.9,0,0,1,2.9,2.9V9.348a0,0,0,0,1,0,0H0a0,0,0,0,1,0,0V3.082A3.082,3.082,0,0,1,3.082,0Z" transform="translate(71.935 56.804)" fill="#a4dc88"/>
        <path id="Rectángulo_37229" data-name="Rectángulo 37229" d="M3.082,0h0a2.9,2.9,0,0,1,2.9,2.9V9.348a0,0,0,0,1,0,0H0a0,0,0,0,1,0,0V3.082A3.082,3.082,0,0,1,3.082,0Z" transform="translate(53.82 36.735)" fill="#a4dc88"/>
      </g>
    </g>
    <g id="Grupo_106354" data-name="Grupo 106354" transform="translate(-487.43 -483.723)">
      <path id="Trazado_138051" data-name="Trazado 138051" d="M853.674,754.4,831.617,868.432a3.759,3.759,0,0,0,3.69,4.473h11.633Z" transform="translate(0 -48.645)" fill="#ed7d2b"/>
      <path id="Trazado_138052" data-name="Trazado 138052" d="M908.265,747.842l-14.62,111.963a6.2,6.2,0,0,0,6.15,7h21.448L909.15,747.438Z" transform="translate(-54.325 -42.55)" fill="#78acea"/>
      <path id="Trazado_138053" data-name="Trazado 138053" d="M965.384,750.689,958.84,861.938a7.29,7.29,0,0,0,7.278,7.719H998.1Z" transform="translate(-111.445 -45.397)" fill="#699dee"/>
      <path id="Trazado_138054" data-name="Trazado 138054" d="M1009.564,757.988l3.182,110.341a7.29,7.29,0,0,0,7.278,7.719h31.987Z" transform="translate(-155.87 -51.788)" fill="#5288d8"/>
      <path id="Trazado_138055" data-name="Trazado 138055" d="M1171.791,866.228H1045.667a6.521,6.521,0,0,1-6.415-5.348L1020.06,755.928a7.759,7.759,0,0,1,7.633-9.155h124.639a6.521,6.521,0,0,1,6.415,5.348L1178.2,858.534A6.521,6.521,0,0,1,1171.791,866.228Z" transform="translate(-164.948 -41.968)" fill="#d7e9ff"/>
      <path id="Trazado_138056" data-name="Trazado 138056" d="M1013.341,769.558h139.466l-3.576-19.815a3.611,3.611,0,0,0-3.553-2.969H1010.589a1.182,1.182,0,0,0-1.163,1.4Z" transform="translate(-155.732 -41.968)" fill="#f99746"/>
      <g id="Grupo_106347" data-name="Grupo 106347" transform="translate(854.824 698.842)">
        <g id="Grupo_106334" data-name="Grupo 106334" transform="translate(0 0)">
          <g id="Grupo_106333" data-name="Grupo 106333">
            <path id="Trazado_138057" data-name="Trazado 138057" d="M1024.69,698.842a6.052,6.052,0,0,0-6.047,6.045h1.162a4.886,4.886,0,0,1,9.771,0,4.841,4.841,0,0,1-.251,1.547,4.9,4.9,0,0,1-3.037,3.07,4.829,4.829,0,0,1-1.319.261v1.162a5.967,5.967,0,0,0,1.545-.274,6.046,6.046,0,0,0-1.823-11.811Z" transform="translate(-1018.643 -698.842)" fill="#78acea"/>
          </g>
          <path id="Trazado_138058" data-name="Trazado 138058" d="M1063.849,781.754a1.348,1.348,0,0,1-.047.349,1.316,1.316,0,1,1,.047-.349Z" transform="translate(-1055.933 -770.293)" fill="#78acea"/>
        </g>
        <g id="Grupo_106336" data-name="Grupo 106336" transform="translate(21.679 0)">
          <g id="Grupo_106335" data-name="Grupo 106335">
            <path id="Trazado_138059" data-name="Trazado 138059" d="M1198.946,698.842a6.052,6.052,0,0,0-6.047,6.045h1.16a4.886,4.886,0,1,1,6.484,4.617,4.839,4.839,0,0,1-1.321.261v1.162a5.969,5.969,0,0,0,1.545-.274,6.046,6.046,0,0,0-1.822-11.811Z" transform="translate(-1192.899 -698.842)" fill="#78acea"/>
          </g>
          <path id="Trazado_138060" data-name="Trazado 138060" d="M1238.095,781.754a1.343,1.343,0,0,1-.047.349,1.317,1.317,0,1,1,.047-.349Z" transform="translate(-1230.179 -770.293)" fill="#78acea"/>
        </g>
        <g id="Grupo_106338" data-name="Grupo 106338" transform="translate(43.357 0)">
          <g id="Grupo_106337" data-name="Grupo 106337">
            <path id="Trazado_138061" data-name="Trazado 138061" d="M1373.2,698.842a6.052,6.052,0,0,0-6.047,6.045h1.16a4.886,4.886,0,1,1,6.484,4.617,4.838,4.838,0,0,1-1.321.261v1.162a5.978,5.978,0,0,0,1.545-.274,6.046,6.046,0,0,0-1.822-11.811Z" transform="translate(-1367.155 -698.842)" fill="#78acea"/>
          </g>
          <path id="Trazado_138062" data-name="Trazado 138062" d="M1412.351,781.754a1.348,1.348,0,0,1-.047.349,1.318,1.318,0,1,1,.047-.349Z" transform="translate(-1404.435 -770.293)" fill="#78acea"/>
        </g>
        <g id="Grupo_106340" data-name="Grupo 106340" transform="translate(65.036 0)">
          <g id="Grupo_106339" data-name="Grupo 106339">
            <path id="Trazado_138063" data-name="Trazado 138063" d="M1547.456,698.842a6.051,6.051,0,0,0-6.045,6.045h1.16a4.886,4.886,0,1,1,6.483,4.617,4.832,4.832,0,0,1-1.319.261v1.162a5.975,5.975,0,0,0,1.545-.274,6.046,6.046,0,0,0-1.823-11.811Z" transform="translate(-1541.411 -698.842)" fill="#78acea"/>
          </g>
          <path id="Trazado_138064" data-name="Trazado 138064" d="M1586.607,781.754a1.353,1.353,0,0,1-.047.349,1.314,1.314,0,1,1,.047-.349Z" transform="translate(-1578.691 -770.293)" fill="#78acea"/>
        </g>
        <g id="Grupo_106342" data-name="Grupo 106342" transform="translate(86.714 0)">
          <g id="Grupo_106341" data-name="Grupo 106341">
            <path id="Trazado_138065" data-name="Trazado 138065" d="M1721.7,698.842a6.052,6.052,0,0,0-6.047,6.045h1.16a4.886,4.886,0,0,1,9.771,0,4.841,4.841,0,0,1-.251,1.547,4.9,4.9,0,0,1-3.037,3.07,4.819,4.819,0,0,1-1.319.261v1.162a5.961,5.961,0,0,0,1.545-.274,6.046,6.046,0,0,0-1.822-11.811Z" transform="translate(-1715.656 -698.842)" fill="#78acea"/>
          </g>
          <path id="Trazado_138066" data-name="Trazado 138066" d="M1760.851,781.754a1.338,1.338,0,0,1-.047.349,1.315,1.315,0,1,1,.047-.349Z" transform="translate(-1752.935 -770.293)" fill="#78acea"/>
        </g>
        <g id="Grupo_106344" data-name="Grupo 106344" transform="translate(108.392 0)">
          <g id="Grupo_106343" data-name="Grupo 106343">
            <path id="Trazado_138067" data-name="Trazado 138067" d="M1895.959,698.842a6.052,6.052,0,0,0-6.047,6.045h1.16a4.886,4.886,0,1,1,6.482,4.617,4.815,4.815,0,0,1-1.319.261v1.162a5.968,5.968,0,0,0,1.545-.274,6.046,6.046,0,0,0-1.822-11.811Z" transform="translate(-1889.912 -698.842)" fill="#78acea"/>
          </g>
          <path id="Trazado_138068" data-name="Trazado 138068" d="M1935.108,781.754a1.348,1.348,0,0,1-.047.349,1.315,1.315,0,1,1,.047-.349Z" transform="translate(-1927.192 -770.293)" fill="#78acea"/>
        </g>
        <g id="Grupo_106346" data-name="Grupo 106346" transform="translate(130.071 0)">
          <g id="Grupo_106345" data-name="Grupo 106345">
            <path id="Trazado_138069" data-name="Trazado 138069" d="M2070.213,698.842a6.051,6.051,0,0,0-6.045,6.045h1.16a4.886,4.886,0,0,1,9.771,0,4.841,4.841,0,0,1-.251,1.547,4.9,4.9,0,0,1-3.037,3.07,4.832,4.832,0,0,1-1.319.261v1.162a5.965,5.965,0,0,0,1.545-.274,6.046,6.046,0,0,0-1.823-11.811Z" transform="translate(-2064.168 -698.842)" fill="#78acea"/>
          </g>
          <path id="Trazado_138070" data-name="Trazado 138070" d="M2109.364,781.754a1.348,1.348,0,0,1-.047.349,1.314,1.314,0,1,1,.047-.349Z" transform="translate(-2101.448 -770.293)" fill="#78acea"/>
        </g>
      </g>
      <g id="Grupo_106348" data-name="Grupo 106348" transform="translate(872.777 739.346)">
        <path id="Trazado_138071" data-name="Trazado 138071" d="M1617.5,1158.666h-7.05a1.89,1.89,0,0,1-1.768-1.482l-1.36-7.05a1.191,1.191,0,0,1,1.2-1.482h7.05a1.89,1.89,0,0,1,1.768,1.482l1.36,7.05A1.191,1.191,0,0,1,1617.5,1158.666Z" transform="translate(-1552.014 -1133.196)" fill="#afcdfb"/>
        <path id="Trazado_138072" data-name="Trazado 138072" d="M1760.5,1158.666h-7.05a1.89,1.89,0,0,1-1.768-1.482l-1.36-7.05a1.191,1.191,0,0,1,1.2-1.482h7.05a1.89,1.89,0,0,1,1.768,1.482l1.36,7.05A1.191,1.191,0,0,1,1760.5,1158.666Z" transform="translate(-1677.225 -1133.196)" fill="#afcdfb"/>
        <path id="Trazado_138073" data-name="Trazado 138073" d="M1903.5,1158.666h-7.05a1.89,1.89,0,0,1-1.768-1.482l-1.36-7.05a1.191,1.191,0,0,1,1.2-1.482h7.05a1.89,1.89,0,0,1,1.768,1.482l1.36,7.05A1.191,1.191,0,0,1,1903.5,1158.666Z" transform="translate(-1802.437 -1133.196)" fill="#78acea"/>
        <path id="Trazado_138074" data-name="Trazado 138074" d="M1188.493,1158.666h-7.05a1.89,1.89,0,0,1-1.768-1.482l-1.36-7.05a1.191,1.191,0,0,1,1.2-1.482h7.05a1.89,1.89,0,0,1,1.768,1.482l1.36,7.05A1.191,1.191,0,0,1,1188.493,1158.666Z" transform="translate(-1176.38 -1133.196)" fill="#afcdfb"/>
        <path id="Trazado_138075" data-name="Trazado 138075" d="M1167.341,1028.72h-3.03a.812.812,0,0,1-.76-.637l-.584-3.03a.512.512,0,0,1,.514-.637h3.03a.812.812,0,0,1,.76.637l.584,3.03A.512.512,0,0,1,1167.341,1028.72Z" transform="translate(-1162.956 -1024.417)" fill="#f99746"/>
        <path id="Trazado_138076" data-name="Trazado 138076" d="M1331.495,1158.666h-7.05a1.89,1.89,0,0,1-1.768-1.482l-1.36-7.05a1.191,1.191,0,0,1,1.2-1.482h7.05a1.89,1.89,0,0,1,1.768,1.482l1.36,7.05A1.191,1.191,0,0,1,1331.495,1158.666Z" transform="translate(-1301.592 -1133.196)" fill="#afcdfb"/>
        <path id="Trazado_138077" data-name="Trazado 138077" d="M1474.5,1158.666h-7.05a1.89,1.89,0,0,1-1.768-1.482l-1.36-7.05a1.191,1.191,0,0,1,1.2-1.482h7.05a1.89,1.89,0,0,1,1.768,1.482l1.36,7.05A1.191,1.191,0,0,1,1474.5,1158.666Z" transform="translate(-1426.802 -1133.196)" fill="#afcdfb"/>
        <path id="Trazado_138078" data-name="Trazado 138078" d="M2046.5,1158.666h-7.05a1.89,1.89,0,0,1-1.768-1.482l-1.36-7.05a1.191,1.191,0,0,1,1.2-1.482h7.05a1.89,1.89,0,0,1,1.768,1.482l1.36,7.05A1.191,1.191,0,0,1,2046.5,1158.666Z" transform="translate(-1927.648 -1133.196)" fill="#78acea"/>
        <path id="Trazado_138079" data-name="Trazado 138079" d="M1593.755,1035.582h-7.05a1.89,1.89,0,0,1-1.768-1.482l-1.36-7.05a1.191,1.191,0,0,1,1.2-1.482h7.05a1.89,1.89,0,0,1,1.768,1.482l1.36,7.05A1.191,1.191,0,0,1,1593.755,1035.582Z" transform="translate(-1531.225 -1025.425)" fill="#afcdfb"/>
        <path id="Trazado_138080" data-name="Trazado 138080" d="M1736.758,1035.582h-7.05a1.89,1.89,0,0,1-1.768-1.482l-1.36-7.05a1.191,1.191,0,0,1,1.2-1.482h7.05a1.89,1.89,0,0,1,1.768,1.482l1.36,7.05A1.191,1.191,0,0,1,1736.758,1035.582Z" transform="translate(-1656.437 -1025.425)" fill="#afcdfb"/>
        <path id="Trazado_138081" data-name="Trazado 138081" d="M1879.759,1035.582h-7.05a1.89,1.89,0,0,1-1.768-1.482l-1.36-7.05a1.191,1.191,0,0,1,1.2-1.482h7.05a1.89,1.89,0,0,1,1.768,1.482l1.36,7.05A1.191,1.191,0,0,1,1879.759,1035.582Z" transform="translate(-1781.648 -1025.425)" fill="#78acea"/>
        <path id="Trazado_138082" data-name="Trazado 138082" d="M2022.76,1035.582h-7.051a1.89,1.89,0,0,1-1.768-1.482l-1.36-7.05a1.191,1.191,0,0,1,1.2-1.482h7.05a1.89,1.89,0,0,1,1.768,1.482l1.36,7.05A1.191,1.191,0,0,1,2022.76,1035.582Z" transform="translate(-1906.858 -1025.425)" fill="#78acea"/>
        <path id="Trazado_138083" data-name="Trazado 138083" d="M1642.662,1289.12h-7.05a1.89,1.89,0,0,1-1.768-1.482l-1.36-7.05a1.191,1.191,0,0,1,1.2-1.482h7.05a1.89,1.89,0,0,1,1.768,1.482l1.36,7.05A1.191,1.191,0,0,1,1642.662,1289.12Z" transform="translate(-1574.048 -1247.421)" fill="#afcdfb"/>
        <path id="Trazado_138084" data-name="Trazado 138084" d="M1785.664,1289.12h-7.05a1.89,1.89,0,0,1-1.768-1.482l-1.36-7.05a1.191,1.191,0,0,1,1.2-1.482h7.05a1.89,1.89,0,0,1,1.768,1.482l1.36,7.05A1.191,1.191,0,0,1,1785.664,1289.12Z" transform="translate(-1699.259 -1247.421)" fill="#afcdfb"/>
        <path id="Trazado_138085" data-name="Trazado 138085" d="M1928.666,1289.12h-7.05a1.89,1.89,0,0,1-1.768-1.482l-1.36-7.05a1.191,1.191,0,0,1,1.2-1.482h7.05a1.89,1.89,0,0,1,1.768,1.482l1.36,7.05A1.191,1.191,0,0,1,1928.666,1289.12Z" transform="translate(-1824.47 -1247.421)" fill="#78acea"/>
        <path id="Trazado_138086" data-name="Trazado 138086" d="M1213.657,1289.12h-7.05a1.89,1.89,0,0,1-1.767-1.482l-1.36-7.05a1.191,1.191,0,0,1,1.2-1.482h7.05a1.89,1.89,0,0,1,1.768,1.482l1.36,7.05A1.191,1.191,0,0,1,1213.657,1289.12Z" transform="translate(-1198.413 -1247.421)" fill="#afcdfb"/>
        <path id="Trazado_138087" data-name="Trazado 138087" d="M1356.659,1289.12h-7.05a1.89,1.89,0,0,1-1.768-1.482l-1.36-7.05a1.191,1.191,0,0,1,1.2-1.482h7.05a1.89,1.89,0,0,1,1.768,1.482l1.36,7.05A1.191,1.191,0,0,1,1356.659,1289.12Z" transform="translate(-1323.625 -1247.421)" fill="#afcdfb"/>
        <path id="Trazado_138088" data-name="Trazado 138088" d="M1499.661,1289.12h-7.05a1.89,1.89,0,0,1-1.768-1.482l-1.36-7.05a1.191,1.191,0,0,1,1.2-1.482h7.05a1.89,1.89,0,0,1,1.768,1.482l1.36,7.05A1.191,1.191,0,0,1,1499.661,1289.12Z" transform="translate(-1448.837 -1247.421)" fill="#afcdfb"/>
        <path id="Trazado_138089" data-name="Trazado 138089" d="M2071.667,1289.12h-7.05a1.891,1.891,0,0,1-1.768-1.482l-1.36-7.05a1.191,1.191,0,0,1,1.2-1.482h7.05a1.89,1.89,0,0,1,1.768,1.482l1.36,7.05A1.191,1.191,0,0,1,2071.667,1289.12Z" transform="translate(-1949.682 -1247.421)" fill="#78acea"/>
        <path id="Trazado_138090" data-name="Trazado 138090" d="M1667.827,1419.575h-7.05a1.89,1.89,0,0,1-1.768-1.482l-1.36-7.05a1.191,1.191,0,0,1,1.2-1.482h7.05a1.89,1.89,0,0,1,1.768,1.482l1.36,7.05A1.191,1.191,0,0,1,1667.827,1419.575Z" transform="translate(-1596.081 -1361.646)" fill="#afcdfb"/>
        <path id="Trazado_138091" data-name="Trazado 138091" d="M1810.828,1419.575h-7.05a1.89,1.89,0,0,1-1.768-1.482l-1.36-7.05a1.191,1.191,0,0,1,1.2-1.482h7.05a1.89,1.89,0,0,1,1.768,1.482l1.36,7.05A1.191,1.191,0,0,1,1810.828,1419.575Z" transform="translate(-1721.293 -1361.646)" fill="#afcdfb"/>
        <path id="Trazado_138092" data-name="Trazado 138092" d="M1953.83,1419.575h-7.05a1.89,1.89,0,0,1-1.768-1.482l-1.36-7.05a1.191,1.191,0,0,1,1.2-1.482h7.05a1.89,1.89,0,0,1,1.768,1.482l1.36,7.05A1.191,1.191,0,0,1,1953.83,1419.575Z" transform="translate(-1846.504 -1361.646)" fill="#78acea"/>
        <path id="Trazado_138093" data-name="Trazado 138093" d="M1238.821,1419.575h-7.05a1.89,1.89,0,0,1-1.768-1.482l-1.36-7.05a1.191,1.191,0,0,1,1.2-1.482h7.05a1.89,1.89,0,0,1,1.768,1.482l1.36,7.05A1.191,1.191,0,0,1,1238.821,1419.575Z" transform="translate(-1220.447 -1361.646)" fill="#afcdfb"/>
        <path id="Trazado_138094" data-name="Trazado 138094" d="M1381.823,1419.575h-7.05a1.89,1.89,0,0,1-1.768-1.482l-1.36-7.05a1.191,1.191,0,0,1,1.2-1.482h7.05a1.89,1.89,0,0,1,1.768,1.482l1.36,7.05A1.191,1.191,0,0,1,1381.823,1419.575Z" transform="translate(-1345.659 -1361.646)" fill="#f99746"/>
        <path id="Trazado_138095" data-name="Trazado 138095" d="M1524.825,1419.575h-7.05a1.89,1.89,0,0,1-1.767-1.482l-1.36-7.05a1.191,1.191,0,0,1,1.2-1.482h7.05a1.89,1.89,0,0,1,1.768,1.482l1.36,7.05A1.191,1.191,0,0,1,1524.825,1419.575Z" transform="translate(-1470.87 -1361.646)" fill="#afcdfb"/>
        <path id="Trazado_138096" data-name="Trazado 138096" d="M2096.832,1419.575h-7.05a1.89,1.89,0,0,1-1.768-1.482l-1.36-7.05a1.191,1.191,0,0,1,1.2-1.482h7.05a1.89,1.89,0,0,1,1.768,1.482l1.36,7.05A1.191,1.191,0,0,1,2096.832,1419.575Z" transform="translate(-1971.715 -1361.646)" fill="#78acea"/>
        <path id="Trazado_138097" data-name="Trazado 138097" d="M1691.569,1542.659h-7.05a1.89,1.89,0,0,1-1.768-1.482l-1.36-7.05a1.191,1.191,0,0,1,1.2-1.482h7.05a1.89,1.89,0,0,1,1.768,1.482l1.36,7.05A1.191,1.191,0,0,1,1691.569,1542.659Z" transform="translate(-1616.87 -1469.418)" fill="#afcdfb"/>
        <path id="Trazado_138098" data-name="Trazado 138098" d="M1834.571,1542.659h-7.05a1.89,1.89,0,0,1-1.768-1.482l-1.36-7.05a1.191,1.191,0,0,1,1.2-1.482h7.05a1.89,1.89,0,0,1,1.768,1.482l1.36,7.05A1.191,1.191,0,0,1,1834.571,1542.659Z" transform="translate(-1742.081 -1469.418)" fill="#afcdfb"/>
        <path id="Trazado_138099" data-name="Trazado 138099" d="M1977.573,1542.659h-7.05a1.89,1.89,0,0,1-1.768-1.482l-1.36-7.05a1.191,1.191,0,0,1,1.2-1.482h7.05a1.89,1.89,0,0,1,1.768,1.482l1.36,7.05A1.191,1.191,0,0,1,1977.573,1542.659Z" transform="translate(-1867.293 -1469.418)" fill="#78acea"/>
        <path id="Trazado_138100" data-name="Trazado 138100" d="M1262.564,1542.659h-7.05a1.89,1.89,0,0,1-1.768-1.482l-1.36-7.05a1.191,1.191,0,0,1,1.2-1.482h7.05a1.89,1.89,0,0,1,1.768,1.482l1.36,7.05A1.191,1.191,0,0,1,1262.564,1542.659Z" transform="translate(-1241.236 -1469.418)" fill="#afcdfb"/>
        <path id="Trazado_138101" data-name="Trazado 138101" d="M1405.566,1542.659h-7.05a1.89,1.89,0,0,1-1.768-1.482l-1.36-7.05a1.191,1.191,0,0,1,1.2-1.482h7.05a1.89,1.89,0,0,1,1.768,1.482l1.36,7.05A1.191,1.191,0,0,1,1405.566,1542.659Z" transform="translate(-1366.448 -1469.418)" fill="#afcdfb"/>
        <path id="Trazado_138102" data-name="Trazado 138102" d="M1548.567,1542.659h-7.05a1.89,1.89,0,0,1-1.768-1.482l-1.36-7.05a1.191,1.191,0,0,1,1.2-1.482h7.05a1.89,1.89,0,0,1,1.768,1.482l1.36,7.05A1.191,1.191,0,0,1,1548.567,1542.659Z" transform="translate(-1491.658 -1469.418)" fill="#afcdfb"/>
        <path id="Trazado_138103" data-name="Trazado 138103" d="M1234.991,1029.6h-18.678a.5.5,0,0,1-.5-.5h0a.5.5,0,0,1,.5-.5h18.678a.5.5,0,0,1,.5.5h0A.5.5,0,0,1,1234.991,1029.6Z" transform="translate(-1209.237 -1028.079)" fill="#afcdfb"/>
        <path id="Trazado_138104" data-name="Trazado 138104" d="M1239.556,1047.782h-18.678a.5.5,0,0,1-.5-.5h0a.5.5,0,0,1,.5-.5h18.678a.5.5,0,0,1,.5.5h0A.5.5,0,0,1,1239.556,1047.782Z" transform="translate(-1213.234 -1043.999)" fill="#afcdfb"/>
      </g>
      <g id="Grupo_106349" data-name="Grupo 106349" transform="translate(871.135 722.114)">
        <path id="Trazado_138105" data-name="Trazado 138105" d="M1157.121,887.811h-6.409a.958.958,0,0,1-.955-.955h0a.958.958,0,0,1,.955-.955h6.409a.957.957,0,0,1,.955.955h0A.957.957,0,0,1,1157.121,887.811Z" transform="translate(-1149.757 -885.902)" fill="#fff"/>
        <path id="Trazado_138106" data-name="Trazado 138106" d="M1298.489,887.811h-6.409a.957.957,0,0,1-.955-.955h0a.957.957,0,0,1,.955-.955h6.409a.957.957,0,0,1,.955.955h0A.957.957,0,0,1,1298.489,887.811Z" transform="translate(-1273.538 -885.902)" fill="#fff"/>
        <path id="Trazado_138107" data-name="Trazado 138107" d="M1439.856,887.811h-6.41a.957.957,0,0,1-.955-.955h0a.957.957,0,0,1,.955-.955h6.41a.957.957,0,0,1,.954.955h0A.957.957,0,0,1,1439.856,887.811Z" transform="translate(-1397.318 -885.902)" fill="#fff"/>
        <path id="Trazado_138108" data-name="Trazado 138108" d="M1581.223,887.811h-6.409a.958.958,0,0,1-.955-.955h0a.958.958,0,0,1,.955-.955h6.409a.958.958,0,0,1,.954.955h0A.957.957,0,0,1,1581.223,887.811Z" transform="translate(-1521.098 -885.902)" fill="#fff"/>
        <path id="Trazado_138109" data-name="Trazado 138109" d="M1722.592,887.811h-6.41a.957.957,0,0,1-.954-.955h0a.957.957,0,0,1,.954-.955h6.41a.957.957,0,0,1,.955.955h0A.957.957,0,0,1,1722.592,887.811Z" transform="translate(-1644.879 -885.902)" fill="#fff"/>
        <path id="Trazado_138110" data-name="Trazado 138110" d="M1863.959,887.811h-6.409a.958.958,0,0,1-.955-.955h0a.958.958,0,0,1,.955-.955h6.409a.957.957,0,0,1,.955.955h0A.957.957,0,0,1,1863.959,887.811Z" transform="translate(-1768.659 -885.902)" fill="#fff"/>
        <path id="Trazado_138111" data-name="Trazado 138111" d="M2005.327,887.811h-6.409a.957.957,0,0,1-.955-.955h0a.957.957,0,0,1,.955-.955h6.409a.957.957,0,0,1,.954.955h0A.957.957,0,0,1,2005.327,887.811Z" transform="translate(-1892.44 -885.902)" fill="#fff"/>
      </g>
      <g id="Grupo_106350" data-name="Grupo 106350" transform="translate(940.021 737.174)">
        <path id="Trazado_138112" data-name="Trazado 138112" d="M1706.932,1019.428a3.339,3.339,0,0,1-3.008-1.321c-1.077-1.672-.246-4.015,2.471-6.966a34.424,34.424,0,0,1,4.325-3.879.2.2,0,1,1,.242.33c-.091.066-9.022,6.679-6.694,10.293.738,1.145,2.316,1.221,3.513,1.082a19.2,19.2,0,0,0,7.718-3.188c2.712-1.8,4.622-3.831,5.241-5.569.406-1.141.281-1.948-.374-2.4-.845-.585-2.61-.585-4.722,0a14.9,14.9,0,0,0-5.312,2.627.2.2,0,0,1-.264-.313,15.338,15.338,0,0,1,5.468-2.709c2.26-.625,4.106-.6,5.063.06.567.392,1.119,1.21.526,2.874-.648,1.82-2.616,3.924-5.4,5.773a19.62,19.62,0,0,1-7.9,3.253A7.836,7.836,0,0,1,1706.932,1019.428Z" transform="translate(-1703.468 -1006.961)" fill="#c65447"/>
      </g>
      <g id="Grupo_106353" data-name="Grupo 106353" transform="translate(963.731 715.236)">
        <path id="Trazado_138113" data-name="Trazado 138113" d="M1991.443,975.191l-.728-1.372s.361-2.446-2.7-3.993a1.5,1.5,0,0,0-1.752.457c-.582.841,1.11.689,1.019,2.129a2.647,2.647,0,0,0,1.543,2.753l.786.911Z" transform="translate(-1974.68 -952.407)" fill="#ffb27d"/>
        <path id="Trazado_138114" data-name="Trazado 138114" d="M2037.031,984.048a24.279,24.279,0,0,1-17.116,17.139c-4.521,1.318-14.793-13.568-14.793-13.568s.361-1.372,2.624-1.057c0,0,10,6.621,11.26,7.34,1.117.638,8.465-8.2,11.814-9.631A8.548,8.548,0,0,1,2037.031,984.048Z" transform="translate(-1991.303 -964.545)" fill="#233862"/>
        <g id="Grupo_106351" data-name="Grupo 106351" transform="translate(0 16.187)">
          <rect id="Rectángulo_37750" data-name="Rectángulo 37750" width="3.187" height="16.034" transform="translate(3.956 6.219) rotate(-100.493)" fill="#c65447"/>
          <path id="Trazado_138115" data-name="Trazado 138115" d="M1894.051,987.766l3.955.888-.58-3.134Z" transform="translate(-1894.051 -982.436)" fill="#ffb27d"/>
          <path id="Trazado_138116" data-name="Trazado 138116" d="M2049.931,961.594l.184.991a1.123,1.123,0,0,1-.9,1.308l-.729.135-.58-3.134.793-.147A1.057,1.057,0,0,1,2049.931,961.594Z" transform="translate(-2028.765 -960.729)" fill="#ffb27d"/>
        </g>
        <g id="Grupo_106352" data-name="Grupo 106352" transform="translate(30.413 48.742)">
          <path id="Trazado_138117" data-name="Trazado 138117" d="M2354.794,1634.687s1.8,1.64,1.446,2.805-1.972,1.942-2.191,3.366-1.1,2.2-1.885,2.2H2348.4s-.581-1,.822-1.3,1.931-1.976,1.844-3.529a27.343,27.343,0,0,1,.131-3.625l2.98-.69Z" transform="translate(-2322.188 -1582.717)" fill="#233862"/>
          <path id="Trazado_138118" data-name="Trazado 138118" d="M2149.079,1664.08s.323,3.732-.467,4.12l-10.1-.021s0-1.165,1.621-1.424,4.47-1.208,4.952-3.323S2149.079,1664.08,2149.079,1664.08Z" transform="translate(-2138.517 -1607.869)" fill="#233862"/>
          <path id="Trazado_138119" data-name="Trazado 138119" d="M2154.9,1244.128s.532,6.542,1.158,14.405c.851,10.682,1.874,23.8,1.975,26.288.175,4.316.877,11.22.877,11.22s1.665,1.64,5,.949a111.427,111.427,0,0,0,3.817-20.284l.04-.515c.789-10.616,2.015-32.969,2.015-32.969Z" transform="translate(-2152.864 -1240.633)" fill="#f99746"/>
          <path id="Trazado_138120" data-name="Trazado 138120" d="M2154.9,1244.128s.532,6.542,1.158,14.405l11.665,18.173.04-.515c.789-10.616,2.015-32.969,2.015-32.969Z" transform="translate(-2152.864 -1240.633)" fill="#ed7d2b"/>
          <path id="Trazado_138121" data-name="Trazado 138121" d="M2174.449,1226.682s9.6,23.691,15.908,34.825,8.283,14.24,8.283,14.24,3.616-1.424,3.945-2.395c0,0-2.413-21.494-6.639-26.734-2.388-2.961-5.194-11.845-5.325-14.953s-.855-9.256-.855-9.256Z" transform="translate(-2169.979 -1222.41)" fill="#f99746"/>
        </g>
        <path id="Trazado_138122" data-name="Trazado 138122" d="M2203.9,907.9s-6.494,3.133-10.238,1.971a8.837,8.837,0,0,1,2.534-2.028c-.129-.751-.23-1.4-.288-1.957a18.013,18.013,0,0,1-.159-2l2.506-1.971,2.376-1.886A9.574,9.574,0,0,0,2203.9,907.9Z" transform="translate(-2156.387 -891.395)" fill="#ffb27d"/>
        <path id="Trazado_138123" data-name="Trazado 138123" d="M2150.693,989.188a.585.585,0,0,0,.39.155c1.411-.029,5.514.751,8.984.4a26.541,26.541,0,0,0,8.308-2.352c.375-.17,1.225-.624,1.21-1.021-.015-.454-.057-1.092-.115-1.915-.116-1.62-.28-3.92-.332-6.646-.039-2.021-.017-4.277.13-6.667.008-.16.017-.322.024-.484.042-.876.063-1.758.063-2.62a45.513,45.513,0,0,0-.589-7.8c-.707-4.112-2.031-7.33-3.989-8.763-.26-.2-1.873.58-3.37,1.3a6.229,6.229,0,0,1-4.031.483l-1.3,1.134a12.8,12.8,0,0,0-4.062,6.38,70.934,70.934,0,0,0-1.21,11.825c-.1,2.155-.172,4.31-.2,6.365v.071c-.015.213-.015.427-.015.639C2150.521,984.934,2150.592,989.117,2150.693,989.188Z" transform="translate(-2118.651 -936.411)" fill="#2b478b"/>
        <path id="Trazado_138124" data-name="Trazado 138124" d="M2215.368,915.33a8.607,8.607,0,0,1-4.766,3.828,18.1,18.1,0,0,1-.158-2l2.506-1.971Z" transform="translate(-2171.082 -904.667)" fill="#ed985f"/>
        <path id="Trazado_138125" data-name="Trazado 138125" d="M2192.753,859.307s6.2,1.013,6.777-2.8,1.773-6.243-2.158-7.051-4.923.531-5.431,1.756S2191.157,858.945,2192.753,859.307Z" transform="translate(-2154.535 -846.902)" fill="#ffb27d"/>
        <path id="Trazado_138126" data-name="Trazado 138126" d="M2187.691,832.722c.056-.064.186-.116.475-.132a1.174,1.174,0,0,0-.54-.152,1.452,1.452,0,0,0-.965-1.285.866.866,0,0,1,.42.625c-.8-.822-2.515-1.42-7.262-1.045-6.257.494-4.2,4.5-3.385,4.978s2.849-.832,4.358-.712,1.8,2.3,2.308,2.6.311-.23,1-.543.759.835.558,1.581.752,1.731.752,1.731l.962-1.036c.962-1.036,1.868-5.424,1.431-6.359Z" transform="translate(-2140.443 -830.618)" fill="#2c3a64"/>
        <path id="Trazado_138127" data-name="Trazado 138127" d="M2009.375,984.6s.213-.842-.371-1.22-1.121-1.408-1.368-1.268c-.51.289.279,1.187.135,2.307C2007.72,984.807,2008.634,985.834,2009.375,984.6Z" transform="translate(-1993.353 -963.25)" fill="#ffb27d"/>
        <path id="Trazado_138128" data-name="Trazado 138128" d="M2273.163,1073.676c-.039-2.021-.017-4.277.13-6.667.008-.16.017-.322.023-.484-.589-2.917-1.48-5.506-2.791-5.59C2270.526,1060.935,2266.62,1067.074,2273.163,1073.676Z" transform="translate(-2222.677 -1032.282)" fill="#233862"/>
        <path id="Trazado_138129" data-name="Trazado 138129" d="M2313.332,1243.871a19.692,19.692,0,0,1-.683,3.764,13.487,13.487,0,0,1-2.526,2.888c-.648.375.4-2.521.264-3.085s-.533,1.029-.819,1.066-.212-1.4-.222-1.917,1.389-1.809,1.883-2.919S2313.332,1243.871,2313.332,1243.871Z" transform="translate(-2257.678 -1191.891)" fill="#ffb27d"/>
        <path id="Trazado_138130" data-name="Trazado 138130" d="M2243.9,951.442s3.92,1.856,5.8,4.709c2.915,4.426,6.294,20.557,6.356,22.051s-2.466,12.04-2.466,12.04-2.565-.169-3.226-1.464c0,0,.512-10.836.188-11.532s-10.692-14.535-9.526-17.488S2243.9,951.442,2243.9,951.442Z" transform="translate(-2197.779 -936.411)" fill="#2b478b"/>
        <path id="Trazado_138131" data-name="Trazado 138131" d="M1896.078,992.732l.207,1.85-2.233-.5Z" transform="translate(-1894.051 -972.564)" fill="#c65447"/>
      </g>
    </g>
    <g id="Grupo_80580" data-name="Grupo 80580" transform="translate(361.648 285.62)">
      <path id="Trazado_114392" data-name="Trazado 114392" d="M1029.708,1318.982s-1.786,2.514-3.423,2.549a11.963,11.963,0,0,1-4.128-1.166s-1.5-3.35-.483-4.661a2.189,2.189,0,0,1,2.092.344,3.209,3.209,0,0,1,.553.53,1.757,1.757,0,0,0,.859.583c1.168.355,2.555-.481,3.073.326a5.477,5.477,0,0,0,.9,1.069A4.117,4.117,0,0,0,1029.708,1318.982Z" transform="translate(-1006.427 -1315.578)" fill="#ffeddc"/>
      <path id="Trazado_114393" data-name="Trazado 114393" d="M887.948,1384.477s6.312-15.294,17.673-15.585c0,0,10.487,1.165,11.07,15.585Z" transform="translate(-887.948 -1362.939)" fill="#ffeddc"/>
      <path id="Trazado_114394" data-name="Trazado 114394" d="M1018.176,1357.326s4.554,1.013,5.959.417a1.407,1.407,0,0,0-1.706-1.637,4.024,4.024,0,0,1-2.67-.7C1019.047,1355.041,1017.987,1356.53,1018.176,1357.326Z" transform="translate(-1003.615 -1350.906)" fill="#db6a1d"/>
      <path id="Trazado_114395" data-name="Trazado 114395" d="M1044.413,1322.869c-.291.219-1.186-3.079-1.186-3.079a3.211,3.211,0,0,1,.553.53,1.754,1.754,0,0,0,.859.583C1044.643,1321,1044.7,1322.657,1044.413,1322.869Z" transform="translate(-1025.889 -1319.32)" fill="#e5c1a1"/>
      <path id="Trazado_114396" data-name="Trazado 114396" d="M1071.708,1333.748a18.794,18.794,0,0,1-2.456,1.3c-.291,0,1.553-2.368,1.553-2.368A5.48,5.48,0,0,0,1071.708,1333.748Z" transform="translate(-1048.98 -1330.77)" fill="#e5c1a1"/>
      <path id="Trazado_114397" data-name="Trazado 114397" d="M943.155,1416.119c-.117-.1,4.467-6.749,5.729-6.8s4.1,1.457,6.152,1.651,4.044-.388,4.432.825,1.457,5.517.8,6.206S945.675,1418.273,943.155,1416.119Z" transform="translate(-936.988 -1398.854)" fill="#f9ddbf"/>
    </g>
    <g id="Grupo_80607" data-name="Grupo 80607" transform="translate(334.476 306.376)">
      <g id="Grupo_80603" data-name="Grupo 80603" transform="translate(21.651 0.738)">
        <g id="Grupo_80582" data-name="Grupo 80582" transform="translate(3.455 29.92)">
          <path id="Trazado_114398" data-name="Trazado 114398" d="M903.33,1776.7v1.7a.582.582,0,0,1-.134.367.834.834,0,0,1-.51.28.891.891,0,0,1-.138.01H870.226a.757.757,0,0,1-.774-.558c0-.021-.006-.042-.007-.065s0-.022,0-.033v-1.7c0-.011,0-.022,0-.033s0-.043.007-.064a.756.756,0,0,1,.774-.558h32.321a.891.891,0,0,1,.138.01.876.876,0,0,1,.143.034.78.78,0,0,1,.367.246A.581.581,0,0,1,903.33,1776.7Z" transform="translate(-869.443 -1776.045)" fill="#ffb93e"/>
          <path id="Trazado_114399" data-name="Trazado 114399" d="M887.458,1779.062H870.142a.693.693,0,0,1-.672-.486.541.541,0,0,1-.019-.072c0-.021-.006-.042-.007-.065s0-.022,0-.033v-1.7c0-.011,0-.022,0-.033s0-.043.007-.064a.565.565,0,0,1,.019-.073.693.693,0,0,1,.672-.486h15.19A5.287,5.287,0,0,0,887.458,1779.062Z" transform="translate(-869.443 -1776.045)" fill="#ffa412"/>
          <g id="Grupo_80581" data-name="Grupo 80581" transform="translate(11.876)">
            <rect id="Rectángulo_33801" data-name="Rectángulo 33801" width="0.367" height="3.017" transform="translate(17.71 0)" fill="#ffa412"/>
            <rect id="Rectángulo_33802" data-name="Rectángulo 33802" width="0.367" height="3.017" transform="translate(16.467 0)" fill="#ffa412"/>
            <rect id="Rectángulo_33803" data-name="Rectángulo 33803" width="0.367" height="3.017" transform="translate(14.975 0)" fill="#ffa412"/>
            <rect id="Rectángulo_33804" data-name="Rectángulo 33804" width="0.367" height="3.017" transform="translate(12.69 0)" fill="#ffa412"/>
            <rect id="Rectángulo_33805" data-name="Rectángulo 33805" width="0.367" height="3.017" transform="translate(10.273 0)" fill="#ffa412"/>
            <rect id="Rectángulo_33806" data-name="Rectángulo 33806" width="0.367" height="3.017" transform="translate(6.567 0)" fill="#ffa412"/>
            <rect id="Rectángulo_33807" data-name="Rectángulo 33807" width="0.367" height="3.017" transform="translate(3.098 0)" fill="#ffa412"/>
            <rect id="Rectángulo_33808" data-name="Rectángulo 33808" width="0.367" height="3.017" transform="translate(0 0)" fill="#ffa412"/>
            <rect id="Rectángulo_33809" data-name="Rectángulo 33809" width="0.367" height="3.017" transform="translate(18.894 0)" fill="#ffa412"/>
            <rect id="Rectángulo_33810" data-name="Rectángulo 33810" width="0.367" height="3.017" transform="translate(19.676 0)" fill="#ffa412"/>
            <rect id="Rectángulo_33811" data-name="Rectángulo 33811" width="0.367" height="3.017" transform="translate(20.431 0)" fill="#ffa412"/>
            <path id="Trazado_114400" data-name="Trazado 114400" d="M1164.237,1776.053v3a.913.913,0,0,1-.138.011h-.23v-3.017h.23A.9.9,0,0,1,1164.237,1776.053Z" transform="translate(-1142.871 -1776.043)" fill="#ffa412"/>
            <path id="Trazado_114401" data-name="Trazado 114401" d="M1168.809,1776.686v2.437a.778.778,0,0,1-.367.246v-2.929A.777.777,0,0,1,1168.809,1776.686Z" transform="translate(-1146.933 -1776.396)" fill="#ffa412"/>
          </g>
        </g>
        <g id="Grupo_80584" data-name="Grupo 80584" transform="translate(0 26.903)">
          <path id="Trazado_114402" data-name="Trazado 114402" d="M872.385,1749.673v1.7a.586.586,0,0,1-.133.368.776.776,0,0,1-.074.078.811.811,0,0,1-.294.167.827.827,0,0,1-.143.033.908.908,0,0,1-.137.011H839.281a.757.757,0,0,1-.773-.559c0-.021-.006-.042-.007-.064s0-.022,0-.034v-1.7c0-.011,0-.023,0-.034s0-.042.007-.063a.757.757,0,0,1,.773-.56H871.6l.061,0,.022,0h0a.14.14,0,0,1,.029,0l.02,0a.827.827,0,0,1,.143.033c.027.009.054.019.079.03h0l.05.024.028.016.026.016a.611.611,0,0,1,.095.07c.01.008.018.017.027.025l.016.015.008.009.007.007a.3.3,0,0,1,.029.033A.583.583,0,0,1,872.385,1749.673Z" transform="translate(-838.499 -1749.016)" fill="#ffb93e"/>
          <path id="Trazado_114403" data-name="Trazado 114403" d="M856.513,1752.034H839.2a.693.693,0,0,1-.671-.487.578.578,0,0,1-.019-.072c0-.021-.006-.042-.007-.064s0-.022,0-.034v-1.7c0-.011,0-.023,0-.034s0-.042.007-.063a.571.571,0,0,1,.019-.072.693.693,0,0,1,.671-.487h15.19c.006.025.013.05.021.075A5.278,5.278,0,0,0,856.513,1752.034Z" transform="translate(-838.499 -1749.016)" fill="#ffa412"/>
          <g id="Grupo_80583" data-name="Grupo 80583" transform="translate(11.875 0)">
            <rect id="Rectángulo_33812" data-name="Rectángulo 33812" width="0.367" height="3.017" transform="translate(17.71 0)" fill="#ffa412"/>
            <rect id="Rectángulo_33813" data-name="Rectángulo 33813" width="0.367" height="3.017" transform="translate(16.467 0)" fill="#ffa412"/>
            <rect id="Rectángulo_33814" data-name="Rectángulo 33814" width="0.367" height="3.017" transform="translate(14.975 0)" fill="#ffa412"/>
            <rect id="Rectángulo_33815" data-name="Rectángulo 33815" width="0.367" height="3.017" transform="translate(12.69 0)" fill="#ffa412"/>
            <rect id="Rectángulo_33816" data-name="Rectángulo 33816" width="0.367" height="3.017" transform="translate(10.273 0)" fill="#ffa412"/>
            <rect id="Rectángulo_33817" data-name="Rectángulo 33817" width="0.367" height="3.017" transform="translate(6.567 0)" fill="#ffa412"/>
            <rect id="Rectángulo_33818" data-name="Rectángulo 33818" width="0.367" height="3.017" transform="translate(3.098 0)" fill="#ffa412"/>
            <rect id="Rectángulo_33819" data-name="Rectángulo 33819" width="0.367" height="3.017" transform="translate(0 0)" fill="#ffa412"/>
            <rect id="Rectángulo_33820" data-name="Rectángulo 33820" width="0.367" height="3.017" transform="translate(18.894 0)" fill="#ffa412"/>
            <rect id="Rectángulo_33821" data-name="Rectángulo 33821" width="0.367" height="3.017" transform="translate(19.676 0)" fill="#ffa412"/>
            <rect id="Rectángulo_33822" data-name="Rectángulo 33822" width="0.367" height="3.017" transform="translate(20.431 0)" fill="#ffa412"/>
            <path id="Trazado_114404" data-name="Trazado 114404" d="M1133.287,1749.028v3a.9.9,0,0,1-.138.011h-.23v-3.017h.23A.932.932,0,0,1,1133.287,1749.028Z" transform="translate(-1111.921 -1749.018)" fill="#ffa412"/>
            <path id="Trazado_114405" data-name="Trazado 114405" d="M1137.859,1749.66v2.437a.777.777,0,0,1-.367.246v-2.929A.777.777,0,0,1,1137.859,1749.66Z" transform="translate(-1115.983 -1749.37)" fill="#ffa412"/>
          </g>
        </g>
        <g id="Grupo_80586" data-name="Grupo 80586" transform="translate(1.67 23.96)">
          <path id="Trazado_114406" data-name="Trazado 114406" d="M887.342,1723.32v1.7a.58.58,0,0,1-.134.366.773.773,0,0,1-.367.245.917.917,0,0,1-.143.034,1.037,1.037,0,0,1-.137.01H854.238a.9.9,0,0,1-.36-.075.682.682,0,0,1-.412-.477c0-.014,0-.028-.006-.042a.277.277,0,0,1,0-.029c0-.011,0-.022,0-.033v-1.7c0-.011,0-.022,0-.033a.439.439,0,0,1,.007-.064.756.756,0,0,1,.773-.559H886.56a.88.88,0,0,1,.137.01.829.829,0,0,1,.143.033.784.784,0,0,1,.367.246A.581.581,0,0,1,887.342,1723.32Z" transform="translate(-853.456 -1722.664)" fill="#ffb93e"/>
          <path id="Trazado_114407" data-name="Trazado 114407" d="M871.47,1725.681H854.154a.724.724,0,0,1-.321-.075.662.662,0,0,1-.368-.477c0-.014,0-.028-.006-.042a.277.277,0,0,1,0-.029c0-.011,0-.022,0-.033v-1.7c0-.011,0-.022,0-.033a.439.439,0,0,1,.007-.064.56.56,0,0,1,.018-.07.691.691,0,0,1,.672-.489h15.19a5.3,5.3,0,0,0,2.02,2.942C871.4,1725.631,871.434,1725.657,871.47,1725.681Z" transform="translate(-853.456 -1722.664)" fill="#ffa412"/>
          <g id="Grupo_80585" data-name="Grupo 80585" transform="translate(11.875)">
            <rect id="Rectángulo_33823" data-name="Rectángulo 33823" width="0.367" height="3.017" transform="translate(17.71 0)" fill="#ffa412"/>
            <rect id="Rectángulo_33824" data-name="Rectángulo 33824" width="0.367" height="3.017" transform="translate(16.467 0)" fill="#ffa412"/>
            <rect id="Rectángulo_33825" data-name="Rectángulo 33825" width="0.367" height="3.017" transform="translate(14.975 0)" fill="#ffa412"/>
            <rect id="Rectángulo_33826" data-name="Rectángulo 33826" width="0.367" height="3.017" transform="translate(12.69 0)" fill="#ffa412"/>
            <rect id="Rectángulo_33827" data-name="Rectángulo 33827" width="0.367" height="3.017" transform="translate(10.273 0)" fill="#ffa412"/>
            <rect id="Rectángulo_33828" data-name="Rectángulo 33828" width="0.367" height="3.017" transform="translate(6.567 0)" fill="#ffa412"/>
            <rect id="Rectángulo_33829" data-name="Rectángulo 33829" width="0.367" height="3.017" transform="translate(3.098 0)" fill="#ffa412"/>
            <rect id="Rectángulo_33830" data-name="Rectángulo 33830" width="0.367" height="3.017" transform="translate(0 0)" fill="#ffa412"/>
            <rect id="Rectángulo_33831" data-name="Rectángulo 33831" width="0.367" height="3.017" transform="translate(18.894 0)" fill="#ffa412"/>
            <rect id="Rectángulo_33832" data-name="Rectángulo 33832" width="0.367" height="3.017" transform="translate(19.676 0)" fill="#ffa412"/>
            <rect id="Rectángulo_33833" data-name="Rectángulo 33833" width="0.367" height="3.017" transform="translate(20.431 0)" fill="#ffa412"/>
            <path id="Trazado_114408" data-name="Trazado 114408" d="M1148.244,1722.671v3a.914.914,0,0,1-.138.011h-.23v-3.018h.23A.9.9,0,0,1,1148.244,1722.671Z" transform="translate(-1126.878 -1722.66)" fill="#ffa412"/>
            <path id="Trazado_114409" data-name="Trazado 114409" d="M1152.816,1723.3v2.438a.776.776,0,0,1-.367.246v-2.929A.776.776,0,0,1,1152.816,1723.3Z" transform="translate(-1130.94 -1723.013)" fill="#ffa412"/>
          </g>
        </g>
        <g id="Grupo_80588" data-name="Grupo 80588" transform="translate(2.445 20.942)">
          <path id="Trazado_114410" data-name="Trazado 114410" d="M894.278,1696.292v1.7a.578.578,0,0,1-.134.366c-.011.014-.023.027-.035.041a.757.757,0,0,1-.223.163.985.985,0,0,1-.108.043.852.852,0,0,1-.143.033l-.068.008c-.023,0-.047,0-.071,0H861.173a.757.757,0,0,1-.774-.559c0-.021-.006-.042-.007-.063v-1.772a.721.721,0,0,1,.689-.618.857.857,0,0,1,.093-.005h32.322c.023,0,.047,0,.071,0s.045,0,.068.008a.852.852,0,0,1,.143.033.778.778,0,0,1,.366.245A.581.581,0,0,1,894.278,1696.292Z" transform="translate(-860.392 -1695.635)" fill="#ffb93e"/>
          <path id="Trazado_114411" data-name="Trazado 114411" d="M878.406,1698.653H861.09a.694.694,0,0,1-.672-.487.544.544,0,0,1-.019-.072c0-.021-.006-.042-.007-.063v-1.772a.706.706,0,0,1,.7-.623h15.19s0,0,0,.005A5.292,5.292,0,0,0,878.406,1698.653Z" transform="translate(-860.392 -1695.635)" fill="#ffa412"/>
          <g id="Grupo_80587" data-name="Grupo 80587" transform="translate(11.875 0)">
            <rect id="Rectángulo_33834" data-name="Rectángulo 33834" width="0.367" height="3.017" transform="translate(17.71 0)" fill="#ffa412"/>
            <rect id="Rectángulo_33835" data-name="Rectángulo 33835" width="0.367" height="3.017" transform="translate(16.467 0)" fill="#ffa412"/>
            <rect id="Rectángulo_33836" data-name="Rectángulo 33836" width="0.367" height="3.017" transform="translate(14.975 0)" fill="#ffa412"/>
            <rect id="Rectángulo_33837" data-name="Rectángulo 33837" width="0.367" height="3.017" transform="translate(12.69 0)" fill="#ffa412"/>
            <rect id="Rectángulo_33838" data-name="Rectángulo 33838" width="0.367" height="3.017" transform="translate(10.273 0)" fill="#ffa412"/>
            <rect id="Rectángulo_33839" data-name="Rectángulo 33839" width="0.367" height="3.017" transform="translate(6.567 0)" fill="#ffa412"/>
            <rect id="Rectángulo_33840" data-name="Rectángulo 33840" width="0.367" height="3.017" transform="translate(3.098 0)" fill="#ffa412"/>
            <rect id="Rectángulo_33841" data-name="Rectángulo 33841" width="0.367" height="3.017" transform="translate(0 0)" fill="#ffa412"/>
            <rect id="Rectángulo_33842" data-name="Rectángulo 33842" width="0.367" height="3.017" transform="translate(18.894 0)" fill="#ffa412"/>
            <rect id="Rectángulo_33843" data-name="Rectángulo 33843" width="0.367" height="3.017" transform="translate(19.676 0)" fill="#ffa412"/>
            <rect id="Rectángulo_33844" data-name="Rectángulo 33844" width="0.367" height="3.017" transform="translate(20.431 0)" fill="#ffa412"/>
            <path id="Trazado_114412" data-name="Trazado 114412" d="M1155.178,1695.646v3a.9.9,0,0,1-.138.01h-.23v-3.017h.23A.932.932,0,0,1,1155.178,1695.646Z" transform="translate(-1133.811 -1695.636)" fill="#ffa412"/>
            <path id="Trazado_114413" data-name="Trazado 114413" d="M1159.75,1696.278v2.437a.777.777,0,0,1-.367.246v-2.929A.778.778,0,0,1,1159.75,1696.278Z" transform="translate(-1137.874 -1695.988)" fill="#ffa412"/>
          </g>
        </g>
        <g id="Grupo_80590" data-name="Grupo 80590" transform="translate(0.068 17.929)">
          <path id="Trazado_114414" data-name="Trazado 114414" d="M872.99,1669.308v1.7a.577.577,0,0,1-.133.366.773.773,0,0,1-.367.247.841.841,0,0,1-.142.033.361.361,0,0,1-.045.006H872.3l-.024,0-.021,0H839.888a.739.739,0,0,1-.781-.623c0-.011,0-.022,0-.034v-1.7c0-.011,0-.023,0-.034a.238.238,0,0,1,0-.027.708.708,0,0,1,.587-.575l.023,0a.915.915,0,0,1,.17-.016h32.322c.024,0,.047,0,.07,0l.029,0h0l.036.005a.865.865,0,0,1,.142.033.771.771,0,0,1,.367.246A.578.578,0,0,1,872.99,1669.308Z" transform="translate(-839.105 -1668.651)" fill="#ffb93e"/>
          <path id="Trazado_114415" data-name="Trazado 114415" d="M857.119,1671.669H839.8a.684.684,0,0,1-.7-.623c0-.011,0-.022,0-.034v-1.7c0-.011,0-.023,0-.034a.238.238,0,0,1,0-.027.673.673,0,0,1,.542-.579.158.158,0,0,1,.029-.006.743.743,0,0,1,.124-.011h15.189l.006.022a5.288,5.288,0,0,0,2.113,2.991Z" transform="translate(-839.105 -1668.651)" fill="#ffa412"/>
          <g id="Grupo_80589" data-name="Grupo 80589" transform="translate(11.876 0)">
            <rect id="Rectángulo_33845" data-name="Rectángulo 33845" width="0.367" height="3.017" transform="translate(17.71 0)" fill="#ffa412"/>
            <rect id="Rectángulo_33846" data-name="Rectángulo 33846" width="0.367" height="3.017" transform="translate(16.467 0)" fill="#ffa412"/>
            <rect id="Rectángulo_33847" data-name="Rectángulo 33847" width="0.367" height="3.017" transform="translate(14.975 0)" fill="#ffa412"/>
            <rect id="Rectángulo_33848" data-name="Rectángulo 33848" width="0.367" height="3.017" transform="translate(12.69 0)" fill="#ffa412"/>
            <rect id="Rectángulo_33849" data-name="Rectángulo 33849" width="0.367" height="3.017" transform="translate(10.273 0)" fill="#ffa412"/>
            <rect id="Rectángulo_33850" data-name="Rectángulo 33850" width="0.367" height="3.017" transform="translate(6.567 0)" fill="#ffa412"/>
            <rect id="Rectángulo_33851" data-name="Rectángulo 33851" width="0.367" height="3.017" transform="translate(3.098 0)" fill="#ffa412"/>
            <rect id="Rectángulo_33852" data-name="Rectángulo 33852" width="0.367" height="3.017" transform="translate(0 0)" fill="#ffa412"/>
            <rect id="Rectángulo_33853" data-name="Rectángulo 33853" width="0.367" height="3.017" transform="translate(18.894 0)" fill="#ffa412"/>
            <rect id="Rectángulo_33854" data-name="Rectángulo 33854" width="0.367" height="3.017" transform="translate(19.676 0)" fill="#ffa412"/>
            <rect id="Rectángulo_33855" data-name="Rectángulo 33855" width="0.367" height="3.017" transform="translate(20.431 0)" fill="#ffa412"/>
            <path id="Trazado_114416" data-name="Trazado 114416" d="M1133.9,1668.664v3a.914.914,0,0,1-.138.01h-.23v-3.018h.23A.914.914,0,0,1,1133.9,1668.664Z" transform="translate(-1112.529 -1668.653)" fill="#ffa412"/>
            <path id="Trazado_114417" data-name="Trazado 114417" d="M1138.468,1669.3v2.437a.779.779,0,0,1-.367.246v-2.929A.78.78,0,0,1,1138.468,1669.3Z" transform="translate(-1116.592 -1669.007)" fill="#ffa412"/>
          </g>
        </g>
        <g id="Grupo_80592" data-name="Grupo 80592" transform="translate(0 14.934)">
          <path id="Trazado_114418" data-name="Trazado 114418" d="M872.385,1642.478v1.7a.583.583,0,0,1-.133.367.907.907,0,0,1-.074.079.807.807,0,0,1-.294.168.861.861,0,0,1-.111.028h0l-.029.005a.877.877,0,0,1-.137.011H839.281a.825.825,0,0,1-.1-.006l-.038,0a.727.727,0,0,1-.635-.556.536.536,0,0,1-.006-.056c0-.012,0-.023,0-.034v-1.7c0-.012,0-.023,0-.034s0-.042.007-.064a.757.757,0,0,1,.773-.559H871.6l.061,0h.026l.029,0a.068.068,0,0,1,.02,0,.827.827,0,0,1,.143.033c.027.009.054.019.079.03h0a.784.784,0,0,1,.258.182l.029.033A.586.586,0,0,1,872.385,1642.478Z" transform="translate(-838.499 -1641.821)" fill="#ffb93e"/>
          <path id="Trazado_114419" data-name="Trazado 114419" d="M856.513,1644.839H839.156l-.044,0a.683.683,0,0,1-.606-.562.536.536,0,0,1-.006-.056c0-.012,0-.023,0-.034v-1.7c0-.012,0-.023,0-.034s0-.042.007-.064a.567.567,0,0,1,.019-.072.693.693,0,0,1,.671-.487h15.19c.006.025.013.049.021.075a5.279,5.279,0,0,0,2.074,2.921Z" transform="translate(-838.499 -1641.821)" fill="#ffa412"/>
          <g id="Grupo_80591" data-name="Grupo 80591" transform="translate(11.875 0)">
            <rect id="Rectángulo_33856" data-name="Rectángulo 33856" width="0.367" height="3.017" transform="translate(17.71 0)" fill="#ffa412"/>
            <rect id="Rectángulo_33857" data-name="Rectángulo 33857" width="0.367" height="3.017" transform="translate(16.467 0)" fill="#ffa412"/>
            <rect id="Rectángulo_33858" data-name="Rectángulo 33858" width="0.367" height="3.017" transform="translate(14.975 0)" fill="#ffa412"/>
            <rect id="Rectángulo_33859" data-name="Rectángulo 33859" width="0.367" height="3.017" transform="translate(12.69 0)" fill="#ffa412"/>
            <rect id="Rectángulo_33860" data-name="Rectángulo 33860" width="0.367" height="3.017" transform="translate(10.273 0)" fill="#ffa412"/>
            <rect id="Rectángulo_33861" data-name="Rectángulo 33861" width="0.367" height="3.017" transform="translate(6.567 0)" fill="#ffa412"/>
            <rect id="Rectángulo_33862" data-name="Rectángulo 33862" width="0.367" height="3.017" transform="translate(3.098 0)" fill="#ffa412"/>
            <rect id="Rectángulo_33863" data-name="Rectángulo 33863" width="0.367" height="3.017" transform="translate(0 0)" fill="#ffa412"/>
            <rect id="Rectángulo_33864" data-name="Rectángulo 33864" width="0.367" height="3.017" transform="translate(18.894 0)" fill="#ffa412"/>
            <rect id="Rectángulo_33865" data-name="Rectángulo 33865" width="0.367" height="3.017" transform="translate(19.676 0)" fill="#ffa412"/>
            <rect id="Rectángulo_33866" data-name="Rectángulo 33866" width="0.367" height="3.017" transform="translate(20.431 0)" fill="#ffa412"/>
            <path id="Trazado_114420" data-name="Trazado 114420" d="M1133.287,1641.833v3a.9.9,0,0,1-.138.011h-.23v-3.018h.23A.9.9,0,0,1,1133.287,1641.833Z" transform="translate(-1111.921 -1641.822)" fill="#ffa412"/>
            <path id="Trazado_114421" data-name="Trazado 114421" d="M1137.859,1642.465v2.437a.778.778,0,0,1-.367.246v-2.929A.778.778,0,0,1,1137.859,1642.465Z" transform="translate(-1115.983 -1642.175)" fill="#ffa412"/>
          </g>
        </g>
        <g id="Grupo_80594" data-name="Grupo 80594" transform="translate(1.67 11.99)">
          <path id="Trazado_114422" data-name="Trazado 114422" d="M887.342,1616.118v1.7a.582.582,0,0,1-.134.368.774.774,0,0,1-.367.245.817.817,0,0,1-.143.033.879.879,0,0,1-.137.011H854.238a.9.9,0,0,1-.36-.075.683.683,0,0,1-.412-.477c0-.014,0-.028-.006-.042s0-.019,0-.029,0-.022,0-.034v-1.7c0-.011,0-.023,0-.034a.447.447,0,0,1,.007-.064.757.757,0,0,1,.773-.559H886.56a.879.879,0,0,1,.137.011.84.84,0,0,1,.143.033.769.769,0,0,1,.367.246A.579.579,0,0,1,887.342,1616.118Z" transform="translate(-853.456 -1615.461)" fill="#ffb93e"/>
          <path id="Trazado_114423" data-name="Trazado 114423" d="M871.47,1618.479H854.154a.724.724,0,0,1-.321-.075.662.662,0,0,1-.368-.477c0-.014,0-.028-.006-.042s0-.019,0-.029,0-.022,0-.034v-1.7c0-.011,0-.023,0-.034a.447.447,0,0,1,.007-.064.548.548,0,0,1,.018-.07.692.692,0,0,1,.672-.489h15.19a5.3,5.3,0,0,0,2.02,2.943Z" transform="translate(-853.456 -1615.461)" fill="#ffa412"/>
          <g id="Grupo_80593" data-name="Grupo 80593" transform="translate(11.875 0)">
            <rect id="Rectángulo_33867" data-name="Rectángulo 33867" width="0.367" height="3.017" transform="translate(17.71 0)" fill="#ffa412"/>
            <rect id="Rectángulo_33868" data-name="Rectángulo 33868" width="0.367" height="3.017" transform="translate(16.467 0)" fill="#ffa412"/>
            <rect id="Rectángulo_33869" data-name="Rectángulo 33869" width="0.367" height="3.017" transform="translate(14.975 0)" fill="#ffa412"/>
            <rect id="Rectángulo_33870" data-name="Rectángulo 33870" width="0.367" height="3.017" transform="translate(12.69 0)" fill="#ffa412"/>
            <rect id="Rectángulo_33871" data-name="Rectángulo 33871" width="0.367" height="3.017" transform="translate(10.273 0)" fill="#ffa412"/>
            <rect id="Rectángulo_33872" data-name="Rectángulo 33872" width="0.367" height="3.017" transform="translate(6.567 0)" fill="#ffa412"/>
            <rect id="Rectángulo_33873" data-name="Rectángulo 33873" width="0.367" height="3.017" transform="translate(3.098 0)" fill="#ffa412"/>
            <rect id="Rectángulo_33874" data-name="Rectángulo 33874" width="0.367" height="3.017" transform="translate(0 0)" fill="#ffa412"/>
            <rect id="Rectángulo_33875" data-name="Rectángulo 33875" width="0.367" height="3.017" transform="translate(18.894 0)" fill="#ffa412"/>
            <rect id="Rectángulo_33876" data-name="Rectángulo 33876" width="0.367" height="3.017" transform="translate(19.676 0)" fill="#ffa412"/>
            <rect id="Rectángulo_33877" data-name="Rectángulo 33877" width="0.367" height="3.017" transform="translate(20.431 0)" fill="#ffa412"/>
            <path id="Trazado_114424" data-name="Trazado 114424" d="M1148.244,1615.476v3a.914.914,0,0,1-.138.01h-.23v-3.017h.23A.914.914,0,0,1,1148.244,1615.476Z" transform="translate(-1126.878 -1615.465)" fill="#ffa412"/>
            <path id="Trazado_114425" data-name="Trazado 114425" d="M1152.816,1616.107v2.437a.777.777,0,0,1-.367.246v-2.929A.777.777,0,0,1,1152.816,1616.107Z" transform="translate(-1130.94 -1615.817)" fill="#ffa412"/>
          </g>
        </g>
        <g id="Grupo_80596" data-name="Grupo 80596" transform="translate(4.311 8.973)">
          <path id="Trazado_114426" data-name="Trazado 114426" d="M911,1589.1v1.7a.582.582,0,0,1-.133.365h0c-.011.014-.023.027-.035.041a.742.742,0,0,1-.173.135.8.8,0,0,1-.1.05s0,0,0,0l-.055.02a.809.809,0,0,1-.143.033.876.876,0,0,1-.137.01H877.893a.756.756,0,0,1-.773-.558.457.457,0,0,1-.007-.065c0-.011,0-.022,0-.033v-1.7c0-.011,0-.022,0-.033a.72.72,0,0,1,.689-.618.694.694,0,0,1,.092-.005h32.323a1.033,1.033,0,0,1,.137.01.92.92,0,0,1,.143.034.8.8,0,0,1,.331.2c.012.013.024.026.035.04h0A.583.583,0,0,1,911,1589.1Z" transform="translate(-877.112 -1588.441)" fill="#ffb93e"/>
          <path id="Trazado_114427" data-name="Trazado 114427" d="M895.126,1591.458H877.81a.691.691,0,0,1-.672-.488.551.551,0,0,1-.018-.07.457.457,0,0,1-.007-.065c0-.011,0-.022,0-.033v-1.7c0-.011,0-.022,0-.033a.677.677,0,0,1,.614-.618.562.562,0,0,1,.083-.005H893a.041.041,0,0,1,0,.005A5.286,5.286,0,0,0,895.126,1591.458Z" transform="translate(-877.112 -1588.441)" fill="#ffa412"/>
          <g id="Grupo_80595" data-name="Grupo 80595" transform="translate(11.875)">
            <rect id="Rectángulo_33878" data-name="Rectángulo 33878" width="0.367" height="3.017" transform="translate(17.71 0)" fill="#ffa412"/>
            <rect id="Rectángulo_33879" data-name="Rectángulo 33879" width="0.367" height="3.017" transform="translate(16.466 0)" fill="#ffa412"/>
            <rect id="Rectángulo_33880" data-name="Rectángulo 33880" width="0.367" height="3.017" transform="translate(14.975 0)" fill="#ffa412"/>
            <rect id="Rectángulo_33881" data-name="Rectángulo 33881" width="0.367" height="3.017" transform="translate(12.69 0)" fill="#ffa412"/>
            <rect id="Rectángulo_33882" data-name="Rectángulo 33882" width="0.367" height="3.017" transform="translate(10.273 0)" fill="#ffa412"/>
            <rect id="Rectángulo_33883" data-name="Rectángulo 33883" width="0.367" height="3.017" transform="translate(6.567 0)" fill="#ffa412"/>
            <rect id="Rectángulo_33884" data-name="Rectángulo 33884" width="0.367" height="3.017" transform="translate(3.098 0)" fill="#ffa412"/>
            <rect id="Rectángulo_33885" data-name="Rectángulo 33885" width="0.367" height="3.017" transform="translate(0 0)" fill="#ffa412"/>
            <rect id="Rectángulo_33886" data-name="Rectángulo 33886" width="0.367" height="3.017" transform="translate(18.894 0)" fill="#ffa412"/>
            <rect id="Rectángulo_33887" data-name="Rectángulo 33887" width="0.367" height="3.017" transform="translate(19.676 0)" fill="#ffa412"/>
            <rect id="Rectángulo_33888" data-name="Rectángulo 33888" width="0.367" height="3.017" transform="translate(20.431 0)" fill="#ffa412"/>
            <path id="Trazado_114428" data-name="Trazado 114428" d="M1171.9,1588.45v3a.916.916,0,0,1-.138.011h-.23v-3.018h.23A.932.932,0,0,1,1171.9,1588.45Z" transform="translate(-1150.535 -1588.44)" fill="#ffa412"/>
            <path id="Trazado_114429" data-name="Trazado 114429" d="M1176.473,1589.083v2.437a.777.777,0,0,1-.367.246v-2.929A.778.778,0,0,1,1176.473,1589.083Z" transform="translate(-1154.597 -1588.793)" fill="#ffa412"/>
          </g>
        </g>
        <g id="Grupo_80598" data-name="Grupo 80598" transform="translate(0.068 5.96)">
          <path id="Trazado_114430" data-name="Trazado 114430" d="M872.99,1562.114v1.7a.578.578,0,0,1-.133.366.77.77,0,0,1-.367.246.819.819,0,0,1-.142.033l-.045.006H872.3l-.03,0H839.888a.822.822,0,0,1-.665-.313.577.577,0,0,1-.116-.31c0-.012,0-.023,0-.034v-1.7c0-.012,0-.023,0-.034a.693.693,0,0,1,.554-.594.877.877,0,0,1,.227-.029H872.25l.02,0a.629.629,0,0,1,.077.008.853.853,0,0,1,.142.033.471.471,0,0,1,.067.025h0a.762.762,0,0,1,.226.142l0,0,.009.008a.633.633,0,0,1,.062.066A.58.58,0,0,1,872.99,1562.114Z" transform="translate(-839.105 -1561.457)" fill="#ffb93e"/>
          <path id="Trazado_114431" data-name="Trazado 114431" d="M857.119,1564.475H839.8a.71.71,0,0,1-.584-.3.619.619,0,0,1-.114-.325c0-.012,0-.023,0-.034v-1.7c0-.012,0-.023,0-.034a.673.673,0,0,1,.556-.609.715.715,0,0,1,.141-.014h15.189c.006.023.013.047.02.07a5.278,5.278,0,0,0,2.1,2.943Z" transform="translate(-839.105 -1561.457)" fill="#ffa412"/>
          <g id="Grupo_80597" data-name="Grupo 80597" transform="translate(11.876 0)">
            <rect id="Rectángulo_33889" data-name="Rectángulo 33889" width="0.367" height="3.017" transform="translate(17.71 0)" fill="#ffa412"/>
            <rect id="Rectángulo_33890" data-name="Rectángulo 33890" width="0.367" height="3.017" transform="translate(16.467 0)" fill="#ffa412"/>
            <rect id="Rectángulo_33891" data-name="Rectángulo 33891" width="0.367" height="3.017" transform="translate(14.975 0)" fill="#ffa412"/>
            <rect id="Rectángulo_33892" data-name="Rectángulo 33892" width="0.367" height="3.017" transform="translate(12.69 0)" fill="#ffa412"/>
            <rect id="Rectángulo_33893" data-name="Rectángulo 33893" width="0.367" height="3.017" transform="translate(10.273 0)" fill="#ffa412"/>
            <rect id="Rectángulo_33894" data-name="Rectángulo 33894" width="0.367" height="3.017" transform="translate(6.567 0)" fill="#ffa412"/>
            <rect id="Rectángulo_33895" data-name="Rectángulo 33895" width="0.367" height="3.017" transform="translate(3.098 0)" fill="#ffa412"/>
            <rect id="Rectángulo_33896" data-name="Rectángulo 33896" width="0.367" height="3.017" transform="translate(0 0)" fill="#ffa412"/>
            <rect id="Rectángulo_33897" data-name="Rectángulo 33897" width="0.367" height="3.017" transform="translate(18.894 0)" fill="#ffa412"/>
            <rect id="Rectángulo_33898" data-name="Rectángulo 33898" width="0.367" height="3.017" transform="translate(19.676 0)" fill="#ffa412"/>
            <rect id="Rectángulo_33899" data-name="Rectángulo 33899" width="0.367" height="3.017" transform="translate(20.431 0)" fill="#ffa412"/>
            <path id="Trazado_114432" data-name="Trazado 114432" d="M1133.9,1561.469v3a.931.931,0,0,1-.138.01h-.23v-3.018h.23A.914.914,0,0,1,1133.9,1561.469Z" transform="translate(-1112.529 -1561.458)" fill="#ffa412"/>
            <path id="Trazado_114433" data-name="Trazado 114433" d="M1138.468,1562.1v2.437a.78.78,0,0,1-.367.246v-2.929A.78.78,0,0,1,1138.468,1562.1Z" transform="translate(-1116.592 -1561.811)" fill="#ffa412"/>
          </g>
        </g>
        <g id="Grupo_80600" data-name="Grupo 80600" transform="translate(2.444 3.013)">
          <path id="Trazado_114434" data-name="Trazado 114434" d="M894.274,1535.716v1.7a.58.58,0,0,1-.134.367.777.777,0,0,1-.367.246.835.835,0,0,1-.143.034.9.9,0,0,1-.138.011H861.17a.891.891,0,0,1-.349-.07.672.672,0,0,1-.43-.526c0-.009,0-.018,0-.027s0-.023,0-.034v-1.7c0-.011,0-.023,0-.034a.72.72,0,0,1,.689-.618.823.823,0,0,1,.093,0h32.322a.9.9,0,0,1,.138.01.847.847,0,0,1,.143.034.779.779,0,0,1,.367.246A.58.58,0,0,1,894.274,1535.716Z" transform="translate(-860.388 -1535.059)" fill="#ffb93e"/>
          <path id="Trazado_114435" data-name="Trazado 114435" d="M878.4,1538.076H861.086a.722.722,0,0,1-.312-.07.661.661,0,0,1-.383-.526c0-.009,0-.018,0-.027s0-.023,0-.034v-1.7c0-.011,0-.023,0-.034a.677.677,0,0,1,.615-.618.655.655,0,0,1,.083,0h15.19v0a5.293,5.293,0,0,0,2.026,2.943Z" transform="translate(-860.388 -1535.059)" fill="#ffa412"/>
          <g id="Grupo_80599" data-name="Grupo 80599" transform="translate(11.876)">
            <rect id="Rectángulo_33900" data-name="Rectángulo 33900" width="0.367" height="3.017" transform="translate(17.71 0)" fill="#ffa412"/>
            <rect id="Rectángulo_33901" data-name="Rectángulo 33901" width="0.367" height="3.017" transform="translate(16.467 0)" fill="#ffa412"/>
            <rect id="Rectángulo_33902" data-name="Rectángulo 33902" width="0.367" height="3.017" transform="translate(14.975 0)" fill="#ffa412"/>
            <rect id="Rectángulo_33903" data-name="Rectángulo 33903" width="0.367" height="3.017" transform="translate(12.69 0)" fill="#ffa412"/>
            <rect id="Rectángulo_33904" data-name="Rectángulo 33904" width="0.367" height="3.017" transform="translate(10.273 0)" fill="#ffa412"/>
            <rect id="Rectángulo_33905" data-name="Rectángulo 33905" width="0.367" height="3.017" transform="translate(6.567 0)" fill="#ffa412"/>
            <rect id="Rectángulo_33906" data-name="Rectángulo 33906" width="0.367" height="3.017" transform="translate(3.098 0)" fill="#ffa412"/>
            <rect id="Rectángulo_33907" data-name="Rectángulo 33907" width="0.367" height="3.017" transform="translate(0 0)" fill="#ffa412"/>
            <rect id="Rectángulo_33908" data-name="Rectángulo 33908" width="0.367" height="3.017" transform="translate(18.894 0)" fill="#ffa412"/>
            <rect id="Rectángulo_33909" data-name="Rectángulo 33909" width="0.367" height="3.017" transform="translate(19.676 0)" fill="#ffa412"/>
            <rect id="Rectángulo_33910" data-name="Rectángulo 33910" width="0.367" height="3.017" transform="translate(20.431 0)" fill="#ffa412"/>
            <path id="Trazado_114436" data-name="Trazado 114436" d="M1155.178,1535.068v3a.9.9,0,0,1-.138.01h-.23v-3.017h.23A.9.9,0,0,1,1155.178,1535.068Z" transform="translate(-1133.811 -1535.058)" fill="#ffa412"/>
            <path id="Trazado_114437" data-name="Trazado 114437" d="M1159.75,1535.7v2.438a.778.778,0,0,1-.367.246v-2.929A.778.778,0,0,1,1159.75,1535.7Z" transform="translate(-1137.874 -1535.41)" fill="#ffa412"/>
          </g>
        </g>
        <g id="Grupo_80602" data-name="Grupo 80602" transform="translate(3.456)">
          <path id="Trazado_114438" data-name="Trazado 114438" d="M903.333,1508.733v1.7a.581.581,0,0,1-.134.367.779.779,0,0,1-.367.246.831.831,0,0,1-.143.034l-.045.006-.026,0H870.229a.738.738,0,0,1-.781-.623c0-.011,0-.022,0-.034v-1.7c0-.011,0-.022,0-.034a.738.738,0,0,1,.781-.623h32.322a.913.913,0,0,1,.138.01.854.854,0,0,1,.143.034.78.78,0,0,1,.367.246A.581.581,0,0,1,903.333,1508.733Z" transform="translate(-869.447 -1508.076)" fill="#ffb93e"/>
          <path id="Trazado_114439" data-name="Trazado 114439" d="M887.461,1511.094H870.145a.683.683,0,0,1-.7-.623c0-.011,0-.022,0-.034v-1.7c0-.011,0-.022,0-.034a.683.683,0,0,1,.7-.623h15.19a5.289,5.289,0,0,0,2.12,3.013Z" transform="translate(-869.447 -1508.076)" fill="#ffa412"/>
          <g id="Grupo_80601" data-name="Grupo 80601" transform="translate(11.876)">
            <rect id="Rectángulo_33911" data-name="Rectángulo 33911" width="0.367" height="3.017" transform="translate(17.71 0)" fill="#ffa412"/>
            <rect id="Rectángulo_33912" data-name="Rectángulo 33912" width="0.367" height="3.017" transform="translate(16.467 0)" fill="#ffa412"/>
            <rect id="Rectángulo_33913" data-name="Rectángulo 33913" width="0.367" height="3.017" transform="translate(14.975 0)" fill="#ffa412"/>
            <rect id="Rectángulo_33914" data-name="Rectángulo 33914" width="0.367" height="3.017" transform="translate(12.69 0)" fill="#ffa412"/>
            <rect id="Rectángulo_33915" data-name="Rectángulo 33915" width="0.367" height="3.017" transform="translate(10.273 0)" fill="#ffa412"/>
            <rect id="Rectángulo_33916" data-name="Rectángulo 33916" width="0.367" height="3.017" transform="translate(6.567 0)" fill="#ffa412"/>
            <rect id="Rectángulo_33917" data-name="Rectángulo 33917" width="0.367" height="3.017" transform="translate(3.098 0)" fill="#ffa412"/>
            <rect id="Rectángulo_33918" data-name="Rectángulo 33918" width="0.367" height="3.017" transform="translate(0 0)" fill="#ffa412"/>
            <rect id="Rectángulo_33919" data-name="Rectángulo 33919" width="0.367" height="3.017" transform="translate(18.894 0)" fill="#ffa412"/>
            <rect id="Rectángulo_33920" data-name="Rectángulo 33920" width="0.367" height="3.017" transform="translate(19.676 0)" fill="#ffa412"/>
            <rect id="Rectángulo_33921" data-name="Rectángulo 33921" width="0.367" height="3.017" transform="translate(20.431 0)" fill="#ffa412"/>
            <path id="Trazado_114440" data-name="Trazado 114440" d="M1164.238,1508.087v3a.909.909,0,0,1-.138.01h-.229v-3.017h.229A.879.879,0,0,1,1164.238,1508.087Z" transform="translate(-1142.872 -1508.076)" fill="#ffa412"/>
            <path id="Trazado_114441" data-name="Trazado 114441" d="M1168.81,1508.719v2.437a.78.78,0,0,1-.367.246v-2.929A.779.779,0,0,1,1168.81,1508.719Z" transform="translate(-1146.934 -1508.429)" fill="#ffa412"/>
          </g>
        </g>
      </g>
      <g id="Grupo_80606" data-name="Grupo 80606" transform="translate(0 0)">
        <path id="Trazado_114442" data-name="Trazado 114442" d="M853.428,1543.165c0,.008,0,.015,0,.022a14.461,14.461,0,0,1-.485,2.991.049.049,0,0,0,0,.005c-.038.141-.079.283-.122.423a14.79,14.79,0,0,1-1.065,2.59,15.009,15.009,0,0,1-2.031,2.942c-.021.025-.043.051-.066.075a15.568,15.568,0,0,1-3.551,2.943q-.43.262-.882.5c-.2.107-.409.208-.615.306-.2.114-.4.212-.6.332a8.4,8.4,0,0,1-2.054.845v-1.327c0-.011,0-.022,0-.033s0-.043.007-.065a.543.543,0,0,1,.019-.072.694.694,0,0,1,.672-.486H839.2a.692.692,0,0,1-.671-.487.574.574,0,0,1-.019-.072c0-.021-.006-.042-.007-.064s0-.022,0-.034v-1.7c0-.011,0-.023,0-.034s0-.042.007-.064a.578.578,0,0,1,.019-.072.693.693,0,0,1,.671-.487h1.349a.662.662,0,0,1-.368-.477c0-.014,0-.028-.006-.042a.274.274,0,0,1,0-.029c0-.011,0-.022,0-.033v-1.7c0-.011,0-.022,0-.033a.433.433,0,0,1,.007-.064.555.555,0,0,1,.018-.07.691.691,0,0,1,.672-.489h.774a.694.694,0,0,1-.672-.487.539.539,0,0,1-.019-.072c0-.021-.006-.042-.007-.063V1546.8a.679.679,0,0,1,.615-.618h-2.293a.684.684,0,0,1-.7-.623c0-.011,0-.022,0-.034v-1.7c0-.011,0-.023,0-.034a.249.249,0,0,1,0-.027.673.673,0,0,1,.542-.578.683.683,0,0,1-.606-.561.541.541,0,0,1-.006-.057c0-.012,0-.023,0-.034v-1.7c0-.012,0-.023,0-.034s0-.042.007-.064a.571.571,0,0,1,.019-.072.693.693,0,0,1,.671-.487h1.349a.662.662,0,0,1-.368-.476c0-.014,0-.028-.006-.043a.293.293,0,0,1,0-.029c0-.011,0-.022,0-.034v-1.7c0-.011,0-.023,0-.034a.448.448,0,0,1,.007-.064.546.546,0,0,1,.018-.07.692.692,0,0,1,.672-.489h2.641a.691.691,0,0,1-.672-.488.537.537,0,0,1-.018-.07.459.459,0,0,1-.007-.065c0-.011,0-.022,0-.033v-1.7c0-.011,0-.022,0-.033a.677.677,0,0,1,.614-.618h-4.16a.71.71,0,0,1-.583-.3l0-.015.438-2.675,0-.015.624-3.818a16.664,16.664,0,0,1,2.142.431l.123.033.008,0q.613.172,1.211.389l.011,0a16,16,0,0,1,5.018,2.943c.026.022.052.045.078.07a15.122,15.122,0,0,1,2.1,2.267q.189.248.367.506c.039.057.079.113.116.171a.005.005,0,0,1,0,.005q.286.423.543.867a14.859,14.859,0,0,1,1.023,2.145,14.33,14.33,0,0,1,.784,2.943c.005.025.008.049.012.075A14.407,14.407,0,0,1,853.428,1543.165Z" transform="translate(-816.848 -1524.498)" fill="#e2810e" opacity="0.5"/>
        <circle id="Elipse_4748" data-name="Elipse 4748" cx="15.898" cy="15.898" r="15.898" transform="translate(0.006 2.524) rotate(-4.553)" fill="#e2810e"/>
        <path id="Trazado_114443" data-name="Trazado 114443" d="M668.768,1547.766q-.294.179-.6.347-.1.057-.206.111c-.157.084-.313.164-.471.242a15.9,15.9,0,0,1-14.673-28.2q.306-.169.616-.322c.2-.1.4-.2.606-.286a15.87,15.87,0,0,1,4.772-1.283,15.9,15.9,0,0,1,9.954,29.39Z" transform="translate(-644.594 -1516.411)" fill="#ffb93e"/>
        <g id="Grupo_80604" data-name="Grupo 80604" transform="translate(1.74 3.701)">
          <path id="Trazado_114444" data-name="Trazado 114444" d="M674.454,1563.11a14.3,14.3,0,0,1-3.979-.568,14.157,14.157,0,1,1,3.979.568ZM674.41,1535a13.859,13.859,0,1,0,12.162,7.167A13.776,13.776,0,0,0,674.41,1535Z" transform="translate(-660.182 -1534.615)" fill="#ffa412"/>
        </g>
        <g id="Grupo_80605" data-name="Grupo 80605" transform="translate(9.316 7.49)">
          <path id="Trazado_114445" data-name="Trazado 114445" d="M741.714,1580.383c-.031-.078-.065-.154-.1-.228a4.169,4.169,0,0,0-.964-1.378,4.3,4.3,0,0,0-1.518-.893,7.258,7.258,0,0,0-1.929-.362q-1.065-.066-2.316-.03a11.244,11.244,0,0,1-1.323-.026,3.326,3.326,0,0,1-.931-.2,1.631,1.631,0,0,1-.622-.421,2.212,2.212,0,0,1-.395-.651,2.415,2.415,0,0,1-.18-.764,1.638,1.638,0,0,1,.113-.719,1.755,1.755,0,0,1,.443-.628,2.588,2.588,0,0,1,.811-.494,2.046,2.046,0,0,1,1.737.016,2.947,2.947,0,0,1,1.313,1.643l3.239-1.315a6.055,6.055,0,0,0-1.06-1.758,4.542,4.542,0,0,0-3.175-1.566,6,6,0,0,0-1.955.2l-.917-2.259-1.793.728.9,2.228a6.714,6.714,0,0,0-1.646,1.171,5.025,5.025,0,0,0-1.037,1.446,4.03,4.03,0,0,0-.381,1.634,4.786,4.786,0,0,0,1.409,3.357,4.243,4.243,0,0,0,1.516.888,7.18,7.18,0,0,0,1.93.35,22.884,22.884,0,0,0,2.322,0,8.611,8.611,0,0,1,1.263.008,3.29,3.29,0,0,1,.926.206,1.75,1.75,0,0,1,.648.44,2.384,2.384,0,0,1,.436.72,2,2,0,0,1,.155.768,1.637,1.637,0,0,1-.173.731,2.067,2.067,0,0,1-.514.646,3.117,3.117,0,0,1-.87.511,3.754,3.754,0,0,1-.951.247,2.171,2.171,0,0,1-.959-.1,2.231,2.231,0,0,1-.876-.566,3.439,3.439,0,0,1-.708-1.149l-3.238,1.315a5.591,5.591,0,0,0,1.274,1.98,4.594,4.594,0,0,0,1.678,1.047,5.136,5.136,0,0,0,1.906.275,8.088,8.088,0,0,0,1.964-.324l.836,2.061,1.782-.724-.841-2.071a7.232,7.232,0,0,0,1.663-1.161,4.905,4.905,0,0,0,1-1.31c.019-.038.038-.076.057-.114a3.983,3.983,0,0,0,.39-1.626A4.375,4.375,0,0,0,741.714,1580.383Z" transform="translate(-728.033 -1568.545)" fill="#ffa412"/>
        </g>
      </g>
    </g>
    <rect id="Rectángulo_33942" data-name="Rectángulo 33942" width="249.584" height="1.079" rx="0.54" transform="translate(303.435 340.057)" fill="#233862"/>
  </g>
</svg>
