<svg id="portafolio" xmlns="http://www.w3.org/2000/svg" width="113" height="113" viewBox="0 0 113 113">
  <g id="Grupo_106356" data-name="Grupo 106356" transform="translate(2.207 2.207)">
    <path id="Trazado_138132" data-name="Trazado 138132" d="M118.586,224.828l-8.828,54.293H10l8.828-54.293H28.981L33.395,216H59.879l4.414,8.828Z" transform="translate(-10 -170.535)" fill="#ffda8f"/>
    <path id="Trazado_138133" data-name="Trazado 138133" d="M173.656,91.313H156V56h66.211v44.141H178.07Z" transform="translate(-123.777 -45.848)" fill="#eefaff"/>
    <path id="Trazado_138134" data-name="Trazado 138134" d="M142.211,10V20.152H93.656V55.465H84.828l-4.414,8.828H76V10Z" transform="translate(-61.434 -10)" fill="#ff7d95"/>
    <path id="Trazado_138135" data-name="Trazado 138135" d="M176,336v27.809h35.313V336Z" transform="translate(-139.363 -264.051)" fill="#6d92ac"/>
    <path id="Trazado_138136" data-name="Trazado 138136" d="M213.656,144.828H196a8.828,8.828,0,1,1,17.656,0Z" transform="translate(-154.949 -108.191)" fill="#ff7d95"/>
    <ellipse id="Elipse_5311" data-name="Elipse 5311" cx="4.5" cy="4" rx="4.5" ry="4" transform="translate(44.793 19.793)" fill="#e9baa1"/>
    <path id="Trazado_138137" data-name="Trazado 138137" d="M24.566,176v17.656H18.828L10,247.949V176Z" transform="translate(-10 -139.363)" fill="#6d92ac"/>
  </g>
  <g id="Grupo_106357" data-name="Grupo 106357" transform="translate(0 0)">
    <circle id="Elipse_5312" data-name="Elipse 5312" cx="2" cy="2" r="2" transform="translate(90 46)"/>
    <path id="Trazado_138138" data-name="Trazado 138138" d="M188.207,108.07h17.656a2.207,2.207,0,0,0,2.207-2.207,11.039,11.039,0,0,0-5.535-9.561,6.621,6.621,0,1,0-11,0A11.039,11.039,0,0,0,186,105.863,2.207,2.207,0,0,0,188.207,108.07Zm8.828-17.656a2.207,2.207,0,1,1-2.207,2.207A2.21,2.21,0,0,1,197.035,90.414Zm0,8.828a6.633,6.633,0,0,1,6.243,4.414H190.792A6.632,6.632,0,0,1,197.035,99.242Z" transform="translate(-144.949 -67.019)"/>
    <path id="Trazado_138139" data-name="Trazado 138139" d="M308.207,90.414h22.07a2.207,2.207,0,0,0,0-4.414h-22.07a2.207,2.207,0,0,0,0,4.414Z" transform="translate(-238.465 -67.019)"/>
    <path id="Trazado_138140" data-name="Trazado 138140" d="M308.207,130.414h22.07a2.207,2.207,0,0,0,0-4.414h-22.07a2.207,2.207,0,0,0,0,4.414Z" transform="translate(-238.465 -98.191)"/>
    <path id="Trazado_138141" data-name="Trazado 138141" d="M308.207,170.414h22.07a2.207,2.207,0,1,0,0-4.414h-22.07a2.207,2.207,0,0,0,0,4.414Z" transform="translate(-238.465 -129.363)"/>
    <path id="Trazado_138142" data-name="Trazado 138142" d="M205.727,324.844V297.035a2.207,2.207,0,0,0-2.207-2.207H196.9v-6.621A2.207,2.207,0,0,0,194.691,286H177.035a2.207,2.207,0,0,0-2.207,2.207v6.621h-6.621A2.207,2.207,0,0,0,166,297.035v27.809a2.207,2.207,0,0,0,2.207,2.207H203.52A2.207,2.207,0,0,0,205.727,324.844Zm-26.484-34.43h13.242v4.414H179.242Zm22.07,32.223h-30.9v-13.2l14.462,7.231a2.207,2.207,0,0,0,1.974,0l14.462-7.231Zm0-18.137-15.449,7.725L170.414,304.5v-5.257h30.9Z" transform="translate(-129.363 -222.879)"/>
    <ellipse id="Elipse_5313" data-name="Elipse 5313" cx="2.5" cy="2" rx="2.5" ry="2" transform="translate(54 109)"/>
    <path id="Trazado_138143" data-name="Trazado 138143" d="M2.207,113H46.568a2.207,2.207,0,1,0,0-4.414H4.8l8.11-49.879h8.275a2.207,2.207,0,0,0,1.974-1.22l3.8-7.608H50.722l3.8,7.608a2.207,2.207,0,0,0,1.974,1.22h51.7l-8.11,49.879H66.432a2.207,2.207,0,1,0,0,4.414h35.533a2.207,2.207,0,0,0,2.179-1.853l8.828-54.293a2.207,2.207,0,0,0-2.178-2.561h-7.945V12.359a2.207,2.207,0,0,0-2.207-2.207H85.192V2.207A2.207,2.207,0,0,0,82.985,0H16.773a2.207,2.207,0,0,0-2.207,2.207v34.43H2.207A2.207,2.207,0,0,0,0,38.844v71.949A2.21,2.21,0,0,0,2.207,113ZM98.434,14.566V54.293H57.864l-2.207-4.414H82.985a2.207,2.207,0,1,0,0-4.414H36.637v-30.9ZM18.981,4.414h61.8v5.738H34.43a2.207,2.207,0,0,0-2.207,2.207V45.465H25.6a2.207,2.207,0,0,0-1.974,1.22l-3.8,7.608h-.843ZM4.414,41.051H14.566V54.293H11.035a2.207,2.207,0,0,0-2.179,1.853L4.414,83.468Z" transform="translate(0 0)"/>
  </g>
</svg>
