<svg xmlns="http://www.w3.org/2000/svg" xmlns:xlink="http://www.w3.org/1999/xlink" width="85" height="93" viewBox="0 0 85 93">
  <defs>
    <clipPath id="clip-path">
      <rect id="Rectángulo_37021" data-name="Rectángulo 37021" width="85" height="85" transform="translate(1020 6283)" fill="#dbf049"/>
    </clipPath>
  </defs>
  <g id="Grupo_117117" data-name="Grupo 117117" transform="translate(-1019.5 -5982.216)">
    <circle id="Elipse_5327" data-name="Elipse 5327" cx="42.5" cy="42.5" r="42.5" transform="translate(1019.5 5982.216)" fill="#fcd03e"/>
    <g id="Enmascarar_grupo_158" data-name="Enmascarar grupo 158" transform="translate(-0.5 -292.784)" clip-path="url(#clip-path)">
      <g id="monitor" transform="translate(1020 6283.169)">
        <path id="Trazado_140054" data-name="Trazado 140054" d="M35.835,54.222H49.141v22.15H35.835Zm0,0" fill="#4172cc"/>
        <path id="Trazado_140055" data-name="Trazado 140055" d="M49.141,54.222V70.973H45.956A3.469,3.469,0,0,1,42.488,67.5V54.222Zm0,0" fill="#6990d7"/>
        <path id="Trazado_140056" data-name="Trazado 140056" d="M82.287,56.569H2.689a1.442,1.442,0,0,1-1.442-1.442V2.865A1.442,1.442,0,0,1,2.689,1.423h79.6a1.442,1.442,0,0,1,1.442,1.442V55.128a1.441,1.441,0,0,1-1.442,1.442Zm0,0" fill="#91aee2"/>
        <path id="Trazado_140057" data-name="Trazado 140057" d="M79.238,7.172V50.635a.831.831,0,0,1-.831.831H6.57a.831.831,0,0,1-.831-.831V7.172A.831.831,0,0,1,6.57,6.34H78.407a.831.831,0,0,1,.831.831Zm0,0" fill="#ffc14f"/>
        <path id="Trazado_140058" data-name="Trazado 140058" d="M79.238,7.172V47.057H11.773a.832.832,0,0,1-.832-.831V6.34H78.407a.831.831,0,0,1,.831.831Zm0,0" fill="#ffcd71"/>
        <path id="Trazado_140059" data-name="Trazado 140059" d="M69.017,81.708a1.623,1.623,0,0,1-1.623,1.624H17.581a1.623,1.623,0,0,1-1.622-1.624,7.03,7.03,0,0,1,7.028-7.027h39a7.024,7.024,0,0,1,7.027,7.027Zm0,0" fill="#2e5aac"/>
        <path id="Trazado_140060" data-name="Trazado 140060" d="M69.017,81.708a1.623,1.623,0,0,1-1.623,1.624H23.018a7.041,7.041,0,0,1,6.619-4.659H68.329a6.971,6.971,0,0,1,.688,3.035Zm0,0" fill="#4172cc"/>
        <path id="Trazado_140061" data-name="Trazado 140061" d="M39.832,25.576V47.628a.562.562,0,0,1-.562.562H19.485a.562.562,0,0,1-.562-.562V25.576a.563.563,0,0,1,.562-.562H39.27a.563.563,0,0,1,.562.562Zm0,0" fill="#7d8287"/>
        <path id="Trazado_140062" data-name="Trazado 140062" d="M39.832,25.576V47.628a.562.562,0,0,1-.562.562H24.475a.562.562,0,0,1-.562-.562V25.576a.563.563,0,0,1,.562-.562H39.27a.563.563,0,0,1,.562.562Zm0,0" fill="#919196"/>
        <path id="Trazado_140063" data-name="Trazado 140063" d="M33.2,33.889a3.821,3.821,0,0,1-2.215,3.467v4.176a1.606,1.606,0,1,1-3.212,0V37.355A3.822,3.822,0,1,1,33.2,33.889Zm0,0" fill="#4b5055"/>
        <path id="Trazado_140064" data-name="Trazado 140064" d="M33.2,33.889a3.821,3.821,0,0,1-2.215,3.467v4.176a1.606,1.606,0,0,1-.5,1.166,1.606,1.606,0,0,1-.5-1.166V37.355a3.822,3.822,0,0,1,.5-7.128A3.824,3.824,0,0,1,33.2,33.889Zm0,0" fill="#5a5f64"/>
        <path id="Trazado_140065" data-name="Trazado 140065" d="M41.362,9.592A7.767,7.767,0,0,0,33.6,17.351v7.663h3V17.452a4.824,4.824,0,0,1,4.616-4.857,4.763,4.763,0,0,1,4.9,4.757v6.162a1.5,1.5,0,1,0,3,0V17.351a7.767,7.767,0,0,0-7.759-7.759Zm0,0" fill="#4b5055"/>
        <path id="Trazado_140066" data-name="Trazado 140066" d="M83.729,51.6A19.028,19.028,0,1,1,67.184,32.725,19.043,19.043,0,0,1,83.729,51.6Zm0,0" fill="#c42d2d"/>
        <path id="Trazado_140067" data-name="Trazado 140067" d="M83.729,51.6A19.043,19.043,0,0,1,67.184,70.481a19.042,19.042,0,0,1,0-37.756A19.043,19.043,0,0,1,83.729,51.6Zm0,0" fill="#f44545"/>
        <path id="Trazado_140068" data-name="Trazado 140068" d="M64.67,55.985a3.6,3.6,0,0,1-3.593-3.343l-.729-10.11a4.351,4.351,0,1,1,8.679.016l-.765,10.107a3.6,3.6,0,0,1-3.592,3.33Zm0,0" fill="#ffc14f"/>
        <path id="Trazado_140069" data-name="Trazado 140069" d="M67.535,62.491a2.847,2.847,0,1,1-2.847-2.847A2.846,2.846,0,0,1,67.535,62.491Zm0,0" fill="#ffc14f"/>
        <path id="Trazado_140070" data-name="Trazado 140070" d="M84.977,2.772A2.693,2.693,0,0,0,82.287.083H13.539A1.275,1.275,0,0,0,12.26,1.168,1.248,1.248,0,0,0,13.5,2.578H82.286a.2.2,0,0,1,.195.195v39.09a20.385,20.385,0,0,0-2-2.977V7.172a2.079,2.079,0,0,0-2.079-2.079H6.57A2.079,2.079,0,0,0,4.491,7.172V50.635A2.079,2.079,0,0,0,6.57,52.714H44.43a20.379,20.379,0,0,0,.294,2.515H2.689a.2.2,0,0,1-.195-.195V2.772a.2.2,0,0,1,.195-.195H8.465A1.275,1.275,0,0,0,9.745,1.493,1.249,1.249,0,0,0,8.508.083H2.689A2.693,2.693,0,0,0,0,2.772V55.034a2.69,2.69,0,0,0,2.689,2.689h31.9v15.71H29.52a1.276,1.276,0,0,0-1.279,1.084,1.249,1.249,0,0,0,1.237,1.41H61.99a5.78,5.78,0,0,1,5.78,5.779.376.376,0,0,1-.376.376H17.581a.374.374,0,0,1-.374-.373,5.786,5.786,0,0,1,5.78-5.783h1.45a1.282,1.282,0,0,0,1.3-1.208,1.246,1.246,0,0,0-1.246-1.287h-1.5a8.284,8.284,0,0,0-8.275,8.274,2.873,2.873,0,0,0,2.869,2.871H69.018a1.247,1.247,0,0,0,1.247-1.247V81.708a8.274,8.274,0,0,0-8.275-8.274h-11.6V65.98A20.3,20.3,0,0,0,84.3,56.82c1.2-4.492.451-3.179.68-54.048ZM44.449,50.219H6.986V7.587h71V36.3c-12.572-10.94-32.414-2.775-33.541,13.922Zm3.444,23.214H37.082V57.724h8.262a20.224,20.224,0,0,0,2.549,5.25ZM64.69,69.4a17.793,17.793,0,1,1,13.3-29.6c10.181,11.432,1.968,29.6-13.3,29.6Zm0,0"/>
        <path id="Trazado_140071" data-name="Trazado 140071" d="M26.524,38.077v3.455a2.854,2.854,0,1,0,5.707,0V38.077a5.069,5.069,0,1,0-5.707,0Zm2.854-6.763a2.577,2.577,0,0,1,1.081,4.91,1.247,1.247,0,0,0-.722,1.132v4.176a.359.359,0,1,1-.717,0V37.356a1.249,1.249,0,0,0-.723-1.132A2.576,2.576,0,0,1,29.378,31.314Zm0,0"/>
        <path id="Trazado_140072" data-name="Trazado 140072" d="M50.369,17.351a9.006,9.006,0,1,0-18.013,0v6.416H19.485a1.812,1.812,0,0,0-1.81,1.809V47.628a1.811,1.811,0,0,0,1.81,1.809H39.27a1.811,1.811,0,0,0,1.809-1.809V25.576a1.812,1.812,0,0,0-1.809-1.809H37.852V17.452a3.589,3.589,0,0,1,3.407-3.611,3.52,3.52,0,0,1,3.615,3.51v6.162a2.748,2.748,0,0,0,5.5,0Zm-11.784,8.91V46.942H20.169V26.262Zm9.289-2.748a.253.253,0,0,1-.506,0V17.351a6.013,6.013,0,0,0-6.185-6,6.1,6.1,0,0,0-5.827,6.1v6.314H34.85V17.351a6.512,6.512,0,1,1,13.023,0v6.162Zm0,0"/>
        <path id="Trazado_140073" data-name="Trazado 140073" d="M60.589,38.4A5.62,5.62,0,0,0,59.1,42.621c.062.854.635,8.811.727,10.093l0,.018a4.851,4.851,0,0,0,9.673.017l.765-10.106A5.609,5.609,0,0,0,60.589,38.4Zm7.194,4.049c0,.018-.759,10.119-.783,10.261a2.353,2.353,0,0,1-4.66,0c-.019-.123.034.576-.747-10.271a3.1,3.1,0,1,1,6.191.01Zm0,0"/>
        <path id="Trazado_140074" data-name="Trazado 140074" d="M64.69,58.4a4.095,4.095,0,1,0,4.093,4.1A4.1,4.1,0,0,0,64.69,58.4Zm0,5.7a1.6,1.6,0,1,1,1.6-1.6A1.6,1.6,0,0,1,64.69,64.09Zm0,0"/>
      </g>
    </g>
  </g>
</svg>
