<svg xmlns="http://www.w3.org/2000/svg" xmlns:xlink="http://www.w3.org/1999/xlink" width="85" height="85" viewBox="0 0 85 85">
  <defs>
    <clipPath id="clip-path">
      <rect id="Rectángulo_37025" data-name="Rectángulo 37025" width="85" height="85" transform="translate(810 6422)" fill="#dbf049"/>
    </clipPath>
  </defs>
  <g id="Grupo_117119" data-name="Grupo 117119" transform="translate(-809.5 -6129.216)">
    <circle id="Elipse_5329" data-name="Elipse 5329" cx="42.5" cy="42.5" r="42.5" transform="translate(809.5 6129.216)" fill="#fcd03e"/>
    <g id="Enmascarar_grupo_160" data-name="Enmascarar grupo 160" transform="translate(-0.5 -292.784)" clip-path="url(#clip-path)">
      <g id="XMLID_2337_" transform="translate(810 6422)">
        <g id="XMLID_2075_">
          <g id="XMLID_2083_">
            <path id="XMLID_2120_" d="M77.99,43.848H26.268a2.694,2.694,0,0,1-2.694-2.694V15.975a2.694,2.694,0,0,1,2.694-2.694H77.99a2.694,2.694,0,0,1,2.694,2.694V41.154A2.694,2.694,0,0,1,77.99,43.848Z" fill="#91d9b9"/>
            <g id="Grupo_113127" data-name="Grupo 113127">
              <path id="XMLID_2119_" d="M26.268,43.848h4.6v-.112a7.179,7.179,0,0,0-7.183-7.183h-.112v4.6a2.694,2.694,0,0,0,2.694,2.694Z" fill="#c4ead9"/>
              <path id="XMLID_2118_" d="M77.99,43.848h-4.6v-.112a7.179,7.179,0,0,1,7.183-7.183h.112v4.6A2.694,2.694,0,0,1,77.99,43.848Z" fill="#c4ead9"/>
              <path id="XMLID_2100_" d="M77.99,13.281h-4.6v.112a7.179,7.179,0,0,0,7.183,7.183h.112v-4.6A2.694,2.694,0,0,0,77.99,13.281Z" fill="#c4ead9"/>
            </g>
          </g>
          <path id="XMLID_2081_" d="M52.129,20.493a8.081,8.081,0,1,1-8.081,8.081A8.081,8.081,0,0,1,52.129,20.493Z" fill="#c4ead9"/>
        </g>
        <path id="XMLID_2145_" d="M16.27,4.316H40.343a10.7,10.7,0,0,1,6.534,2.227l8.739,6.738H37.563a3.446,3.446,0,0,0-1.668,6.462l8.541,4.724a4.086,4.086,0,0,1-2.678,7.6l-6-1.043A38.092,38.092,0,0,1,20.254,24.57H16.27Z" fill="#ffd4be"/>
        <path id="XMLID_2070_" d="M1.66,1.66H16.27V28.223H1.66Z" fill="#f6838d"/>
        <g id="XMLID_2175_">
          <path id="XMLID_2223_" d="M11.852,60.135a4.121,4.121,0,0,1,5.815.014l8.071,8.073a14.421,14.421,0,0,0,10.2,4.225h.691a4.11,4.11,0,0,1,0-8.219H47.109l2.168-2.574a14.2,14.2,0,0,1,19.2-2.344l.241.175V81.348H36.194A21.689,21.689,0,0,1,20.858,75l-9.019-9.019a4.121,4.121,0,0,1,.014-5.841Z" fill="#ffd4be"/>
          <path id="XMLID_2179_" d="M68.73,56.777H83.34V83.34H68.73Z" fill="#91def5"/>
          <g id="XMLID_350_">
            <path id="XMLID_605_" d="M50.955,42.674a1.659,1.659,0,1,0,1.174-.486A1.67,1.67,0,0,0,50.955,42.674Z"/>
            <path id="XMLID_606_" d="M70.565,29.748a1.659,1.659,0,1,0-1.174.487A1.672,1.672,0,0,0,70.565,29.748Z"/>
            <path id="XMLID_609_" d="M17.93,28.223V26.23h1.8q1.066.734,2.183,1.395V41.154a4.359,4.359,0,0,0,4.354,4.354h18.39a1.66,1.66,0,0,0,0-3.32H32.391a8.863,8.863,0,0,0-7.157-7.157V29.4a39.923,39.923,0,0,0,10.243,3.263l6,1.043a5.7,5.7,0,0,0,2.327-.076,9.74,9.74,0,1,0,.649-11.051L36.7,18.291a1.786,1.786,0,0,1,.864-3.349h34.3A8.863,8.863,0,0,0,79.023,22.1V35.031a8.863,8.863,0,0,0-7.157,7.157H59.6a1.66,1.66,0,0,0,0,3.32H77.99a4.359,4.359,0,0,0,4.354-4.354V15.975a4.359,4.359,0,0,0-4.354-4.354H56.181l-8.29-6.393a12.423,12.423,0,0,0-7.548-2.572H17.93v-1A1.66,1.66,0,0,0,16.27,0H1.66A1.66,1.66,0,0,0,0,1.66V28.223a1.66,1.66,0,0,0,1.66,1.66H16.27a1.66,1.66,0,0,0,1.66-1.66ZM28.987,42.187H26.268a1.035,1.035,0,0,1-1.033-1.033V38.435A5.544,5.544,0,0,1,28.987,42.187ZM52.129,22.153a6.421,6.421,0,1,1-5.46,9.8,5.729,5.729,0,0,0,.4-7.326,6.406,6.406,0,0,1,5.061-2.473ZM77.99,42.187H75.271a5.544,5.544,0,0,1,3.753-3.753v2.719A1.035,1.035,0,0,1,77.99,42.187Zm1.033-26.212v2.719a5.544,5.544,0,0,1-3.753-3.753H77.99A1.035,1.035,0,0,1,79.023,15.975Zm-38.681-10a9.086,9.086,0,0,1,5.52,1.881l4.881,3.763H37.563A5.107,5.107,0,0,0,35.091,21.2l8.541,4.724a2.426,2.426,0,0,1-1.59,4.513l-6-1.043a36.657,36.657,0,0,1-14.832-6.174,1.66,1.66,0,0,0-.96-.306H17.93V5.977ZM14.609,26.563H3.32V3.32H14.609Z"/>
            <path id="XMLID_748_" d="M83.34,55.117H68.73a1.659,1.659,0,0,0-1.642,1.43,15.861,15.861,0,0,0-19.081,4.037l-1.671,1.983h-9.71a5.768,5.768,0,0,0-5.575,7.255,12.742,12.742,0,0,1-4.141-2.775l-8.07-8.073a5.781,5.781,0,1,0-8.176,8.175l9.019,9.019a23.2,23.2,0,0,0,16.51,6.839H67.07v.332A1.66,1.66,0,0,0,68.73,85H83.34A1.66,1.66,0,0,0,85,83.34V56.777a1.66,1.66,0,0,0-1.66-1.66ZM36.194,79.688a19.9,19.9,0,0,1-14.162-5.866L13.013,64.8a2.461,2.461,0,1,1,3.48-3.48l8.07,8.073a15.976,15.976,0,0,0,11.373,4.712H54.705a1.66,1.66,0,0,0,0-3.32H36.627a2.449,2.449,0,1,1,0-4.9H47.109a1.66,1.66,0,0,0,1.27-.591l2.168-2.574A12.539,12.539,0,0,1,67.07,60.354V79.688ZM81.68,81.68H70.391V58.438H81.68Z"/>
          </g>
        </g>
      </g>
    </g>
  </g>
</svg>
