<svg xmlns="http://www.w3.org/2000/svg" xmlns:xlink="http://www.w3.org/1999/xlink" width="105" height="105" viewBox="0 0 105 105">
  <defs>
    <clipPath id="clip-path">
      <rect id="Rectángulo_37030" data-name="Rectángulo 37030" width="85" height="85" transform="translate(285 648)" fill="#fff"/>
    </clipPath>
  </defs>
  <g id="Grupo_117119" data-name="Grupo 117119" transform="translate(-275 -642)">
    <circle id="Elipse_5184" data-name="Elipse 5184" cx="52.5" cy="52.5" r="52.5" transform="translate(275 642)" fill="#fff7df"/>
    <g id="Enmascarar_grupo_152" data-name="Enmascarar grupo 152" clip-path="url(#clip-path)">
      <g id="identificar" transform="translate(285 648)">
        <path id="Trazado_136850" data-name="Trazado 136850" d="M53.606,1.247a29.8,29.8,0,0,0-24.6,46.08,1.936,1.936,0,0,1-.247,2.431L18.631,59.886l6.483,6.483L35.242,56.241a1.936,1.936,0,0,1,2.431-.247A29.8,29.8,0,1,0,53.606,1.247Z" fill="#c5d3dd"/>
        <circle id="Elipse_5182" data-name="Elipse 5182" cx="22.919" cy="22.919" r="22.919" transform="translate(31.04 8.121)" fill="#f9f7f8"/>
        <path id="Trazado_136851" data-name="Trazado 136851" d="M60.743,9.142A22.927,22.927,0,0,1,40.535,49.619,22.922,22.922,0,1,0,60.743,9.142Z" fill="#dff6fd"/>
        <path id="Trazado_136852" data-name="Trazado 136852" d="M53.96,17.289,41.406,39.032H66.513Z" fill="#fdb441"/>
        <path id="Trazado_136853" data-name="Trazado 136853" d="M29.527,64.951l-9.478-9.478a.174.174,0,0,0-.246,0L1.3,73.98a.174.174,0,0,0-.051.123v9.652H10.9a.174.174,0,0,0,.123-.051L29.527,65.2A.174.174,0,0,0,29.527,64.951Z" fill="#7a6d79"/>
        <g id="Grupo_105713" data-name="Grupo 105713">
          <path id="Trazado_136854" data-name="Trazado 136854" d="M15.667,23.491,9.01,21.767a2.292,2.292,0,0,1,1.149-4.438l6.656,1.724a2.292,2.292,0,0,1-1.149,4.438Z" fill="#fe646f"/>
          <path id="Trazado_136855" data-name="Trazado 136855" d="M15.21,35.709l-6.863.42a2.292,2.292,0,0,1-.28-4.575l6.863-.42a2.292,2.292,0,1,1,.28,4.575Z" fill="#fe646f"/>
          <path id="Trazado_136856" data-name="Trazado 136856" d="M22.347,8.149l-5.8-3.7a2.292,2.292,0,1,0-2.466,3.864l5.8,3.7a2.292,2.292,0,1,0,2.466-3.864Z" fill="#fe646f"/>
        </g>
        <path id="Trazado_136857" data-name="Trazado 136857" d="M23.21,72.961,12.039,61.79a.2.2,0,0,1,0-.289l3.624-3.624a.2.2,0,0,1,.289,0L27.122,69.049a.2.2,0,0,1,0,.289L23.5,72.961a.2.2,0,0,1-.289,0Z" fill="#c5d3dd"/>
        <path id="Trazado_136858" data-name="Trazado 136858" d="M53.96,55.2A24.164,24.164,0,1,0,29.8,31.04,24.192,24.192,0,0,0,53.96,55.2Zm0-45.839A21.674,21.674,0,1,1,32.286,31.04,21.7,21.7,0,0,1,53.96,9.366Z"/>
        <path id="Trazado_136859" data-name="Trazado 136859" d="M41.406,40.277H66.513a1.245,1.245,0,0,0,1.078-1.868l-2.251-3.9a1.245,1.245,0,0,0-2.157,1.245l1.173,2.032H43.563l10.4-18.008,6.262,10.845a1.245,1.245,0,1,0,2.157-1.245l-7.34-12.713a1.245,1.245,0,0,0-2.157,0L40.328,38.409a1.245,1.245,0,0,0,1.078,1.868Z"/>
        <path id="Trazado_136860" data-name="Trazado 136860" d="M55.205,26.457a1.245,1.245,0,1,0-2.49,0v3.422a1.245,1.245,0,0,0,2.49,0Z"/>
        <circle id="Elipse_5183" data-name="Elipse 5183" cx="1.245" cy="1.245" r="1.245" transform="translate(52.712 33.116)"/>
        <path id="Trazado_136861" data-name="Trazado 136861" d="M8.7,22.972,15.354,24.7a3.537,3.537,0,1,0,1.774-6.848l-6.656-1.724A3.537,3.537,0,1,0,8.7,22.972Zm-.127-3.687a1.046,1.046,0,0,1,1.276-.751L16.5,20.259a1.047,1.047,0,1,1-.525,2.027L9.322,20.562a1.048,1.048,0,0,1-.751-1.276Z"/>
        <path id="Trazado_136862" data-name="Trazado 136862" d="M8.423,37.372l6.863-.42h0a3.537,3.537,0,0,0-.432-7.061l-6.863.42a3.537,3.537,0,0,0,.432,7.061Zm-1-4.224a1.04,1.04,0,0,1,.72-.351l6.863-.42a1.047,1.047,0,0,1,.128,2.09l-6.863.42A1.048,1.048,0,0,1,7.423,33.148Z"/>
        <path id="Trazado_136863" data-name="Trazado 136863" d="M13.415,9.364l5.8,3.7A3.537,3.537,0,1,0,23.017,7.1l-5.8-3.7a3.537,3.537,0,0,0-3.805,5.964Zm1.02-3.545A1.048,1.048,0,0,1,15.881,5.5l5.8,3.7a1.047,1.047,0,1,1-1.126,1.765l-5.8-3.7a1.046,1.046,0,0,1-.319-1.446Z"/>
        <path id="Trazado_136864" data-name="Trazado 136864" d="M75.909,9.092A31.1,31.1,0,0,0,34.567,6.766a1.245,1.245,0,1,0,1.554,1.946A28.573,28.573,0,0,1,82.508,31.38,28.555,28.555,0,0,1,38.354,54.952a3.2,3.2,0,0,0-3.993.408l-6.332,6.332-4.722-4.722,6.332-6.332a3.2,3.2,0,0,0,.408-3.993A28.629,28.629,0,0,1,32.1,12.634a1.245,1.245,0,1,0-1.905-1.6,31.123,31.123,0,0,0-2.227,36.978.686.686,0,0,1-.085.869L21.547,55.21l-.618-.618a1.421,1.421,0,0,0-2.006,0l-2.26,2.26A1.449,1.449,0,0,0,14.782,57l-3.624,3.624a1.449,1.449,0,0,0-.145,1.881L.415,73.1A1.41,1.41,0,0,0,0,74.1v9.652A1.245,1.245,0,0,0,1.245,85H10.9a1.41,1.41,0,0,0,1-.416l10.6-10.6a1.45,1.45,0,0,0,1.881-.145L28,70.218a1.45,1.45,0,0,0,.145-1.881l2.26-2.26a1.418,1.418,0,0,0,0-2.007l-.617-.617,6.332-6.332a.687.687,0,0,1,.869-.085A31.042,31.042,0,0,0,75.909,9.092ZM19.926,57.111l7.963,7.963-1.49,1.49L18.436,58.6Zm3.428,14.234-1.479-1.479a1.245,1.245,0,1,0-1.761,1.761l.611.611L10.453,82.51H2.49V74.547L12.763,64.275,16,67.514a1.245,1.245,0,0,0,1.761-1.761l-4.107-4.107,2.152-2.152,9.7,9.7Z"/>
      </g>
    </g>
  </g>
</svg>
