<svg xmlns="http://www.w3.org/2000/svg" xmlns:xlink="http://www.w3.org/1999/xlink" width="105" height="105" viewBox="0 0 105 105">
  <defs>
    <clipPath id="clip-path">
      <rect id="Rect치ngulo_37031" data-name="Rect치ngulo 37031" width="85" height="85" transform="translate(600 648)" fill="#fff"/>
    </clipPath>
  </defs>
  <g id="Grupo_117120" data-name="Grupo 117120" transform="translate(-590 -642)">
    <circle id="Elipse_5186" data-name="Elipse 5186" cx="52.5" cy="52.5" r="52.5" transform="translate(590 642)" fill="#fff7df"/>
    <g id="Enmascarar_grupo_153" data-name="Enmascarar grupo 153" clip-path="url(#clip-path)">
      <g id="FILLED_OUTLINE" transform="translate(597.172 645.167)">
        <path id="Trazado_136865" data-name="Trazado 136865" d="M24.08,63.742V56.659A21.247,21.247,0,0,1,45.328,35.412h0A21.247,21.247,0,0,1,66.575,56.659v7.082H86.406V58.076A41.078,41.078,0,0,0,45.328,17h0A41.078,41.078,0,0,0,4.249,58.076v5.666Z" fill="#269dc2"/>
        <circle id="Elipse_5185" data-name="Elipse 5185" cx="12.748" cy="12.748" r="12.748" transform="translate(32.579 4.249)" fill="#8bb276"/>
        <path id="Trazado_136866" data-name="Trazado 136866" d="M34.235,50.28l-2.459-1.406a15.5,15.5,0,0,1,13.427-7.8h.249a15.336,15.336,0,0,1,11.078,4.678L54.5,47.732a12.526,12.526,0,0,0-9.048-3.821H45.2A12.663,12.663,0,0,0,34.235,50.28Z" fill="#62b8d3"/>
        <path id="Trazado_136867" data-name="Trazado 136867" d="M32.579,56.535H29.746a15.454,15.454,0,0,1,.678-4.54l2.708.831a12.633,12.633,0,0,0-.553,3.709Z" fill="#62b8d3"/>
        <rect id="Rect치ngulo_37034" data-name="Rect치ngulo 37034" width="5.666" height="14.165" transform="translate(18.414 69.408)" fill="#008cb7"/>
        <path id="Trazado_136868" data-name="Trazado 136868" d="M15.581,72.241l-2-2a2.833,2.833,0,0,0-2-.83H8.167a2.833,2.833,0,0,0-2.811,2.482l-.708,5.666A2.833,2.833,0,0,0,7.459,80.74H9.915l-.783,1.566a2.833,2.833,0,0,0,2.534,4.1h1.082l2.833-5.666h2.833v-8.5Z" fill="#ffcbb1"/>
        <path id="Trazado_136869" data-name="Trazado 136869" d="M76.49,69.408l-2.833,5.666H67.991l4.249,4.249-1.416,7.082,5.666-4.249,5.666,4.249L80.74,79.323l4.249-4.249H79.323Z" fill="#f4aa8e"/>
        <path id="Trazado_136870" data-name="Trazado 136870" d="M54.939,8.628,44.024,20.453l-3.229-4.305-2.267,1.7,4.249,5.666a1.417,1.417,0,0,0,1.061.565l.072,0a1.417,1.417,0,0,0,1.041-.456L56.588,11.019A12.771,12.771,0,0,0,54.939,8.628Z" fill="#ccdcc2"/>
        <path id="Trazado_136871" data-name="Trazado 136871" d="M17.3,28.047q-1.036.967-2,2L28.691,43.443a21.369,21.369,0,0,1,1.909-2.1Z" fill="#00779c"/>
        <path id="Trazado_136872" data-name="Trazado 136872" d="M56.153,65,86.406,24.646l-4.533-3.4-4.248,5.667-5.667-4.248-3.4,4.534,5.667,4.248-3.4,4.534-3.4-2.549-3.4,4.534,3.4,2.549L51.619,61.6a5.715,5.715,0,0,1-5.25,2.221,11.332,11.332,0,1,0,9.086,6.751,5.607,5.607,0,0,1,.7-5.574ZM49.589,78.481a5.666,5.666,0,1,1-1.135-7.932,5.666,5.666,0,0,1,1.135,7.932Z" fill="#9cbd8a"/>
        <path id="Trazado_136873" data-name="Trazado 136873" d="M45.2,43.911h.249A12.526,12.526,0,0,1,54.5,47.732l2.03-1.976a15.336,15.336,0,0,0-11.078-4.678H45.2a15.5,15.5,0,0,0-13.427,7.8l2.459,1.406A12.663,12.663,0,0,1,45.2,43.911Z"/>
        <path id="Trazado_136874" data-name="Trazado 136874" d="M29.746,56.535h2.833a12.633,12.633,0,0,1,.553-3.709l-2.708-.831a15.454,15.454,0,0,0-.678,4.54Z"/>
        <path id="Trazado_136875" data-name="Trazado 136875" d="M24.08,67.991H18.414A1.416,1.416,0,0,0,17,69.408v1.416h-.83L14.58,69.236a4.222,4.222,0,0,0-3-1.245H8.167A4.256,4.256,0,0,0,3.95,71.714L3.242,77.38a4.25,4.25,0,0,0,4.217,4.776h.2a4.25,4.25,0,0,0,4.007,5.666h1.082a1.416,1.416,0,0,0,1.267-.783l2.441-4.883H17v1.416a1.417,1.417,0,0,0,1.416,1.416H24.08A1.417,1.417,0,0,0,25.5,83.573V69.408a1.417,1.417,0,0,0-1.416-1.416ZM17,79.323H15.581a1.416,1.416,0,0,0-1.267.783l-2.441,4.883h-.207a1.417,1.417,0,0,1-1.267-2.05l.783-1.566a1.417,1.417,0,0,0-1.267-2.05H7.459a1.416,1.416,0,0,1-1.406-1.592l.708-5.666a1.419,1.419,0,0,1,1.406-1.241h3.408a1.407,1.407,0,0,1,1,.415l2,2a1.417,1.417,0,0,0,1,.415H17Zm5.666,2.833H19.831V70.824h2.833Z"/>
        <path id="Trazado_136876" data-name="Trazado 136876" d="M84.989,73.657H80.2l-2.442-4.883a1.416,1.416,0,0,0-2.534,0l-2.441,4.883H67.991a1.417,1.417,0,0,0-1,2.418L70.7,79.789l-1.268,6.339a1.416,1.416,0,0,0,2.239,1.411l4.816-3.612,4.816,3.612a1.416,1.416,0,0,0,2.239-1.411l-1.268-6.339,3.713-3.713a1.417,1.417,0,0,0-1-2.418Zm-5.251,4.664a1.417,1.417,0,0,0-.387,1.279l.689,3.447-2.7-2.025a1.416,1.416,0,0,0-1.7,0l-2.7,2.025L73.63,79.6a1.417,1.417,0,0,0-.387-1.279L71.411,76.49h2.246a1.416,1.416,0,0,0,1.267-.783l1.566-3.132,1.566,3.132a1.416,1.416,0,0,0,1.267.783h2.246Z"/>
        <path id="Trazado_136877" data-name="Trazado 136877" d="M80.735,34.571l6.8-9.076a1.417,1.417,0,0,0-.284-1.983l-4.534-3.4a1.416,1.416,0,0,0-1.983.284l-3.4,4.534-4.533-3.4a1.416,1.416,0,0,0-1.983.284l-1.1,1.463a42.229,42.229,0,0,0-10.272-5.293c.023-.327.038-.656.038-.989a14.087,14.087,0,0,0-2.5-8.044A1.417,1.417,0,0,0,54.782,8.8L44.024,20.453l-3.229-4.305-2.267,1.7,4.249,5.666a1.416,1.416,0,0,0,2.174.111l10.612-11.5a11.336,11.336,0,1,1-3.942-4.555L53.2,5.219A14.167,14.167,0,0,0,31.163,17c0,.333.016.662.038.989A42.511,42.511,0,0,0,2.833,58.076v5.666a1.416,1.416,0,0,0,1.416,1.416H24.08A1.417,1.417,0,0,0,25.5,63.742V56.659a19.832,19.832,0,0,1,36.32-11.02L50.486,60.754a4.321,4.321,0,0,1-3.954,1.664,12.75,12.75,0,1,0-1.509,25.415,13.022,13.022,0,0,0,1.547-.093,12.638,12.638,0,0,0,8.687-5.011,12.786,12.786,0,0,0,1.5-12.715,4.192,4.192,0,0,1,.531-4.163h0L65.118,55.4c.026.417.041.836.041,1.255v7.082a1.416,1.416,0,0,0,1.416,1.416H86.406a1.417,1.417,0,0,0,1.416-1.416V58.076a42.17,42.17,0,0,0-7.087-23.5ZM22.664,56.659v5.666h-17V58.076a39.345,39.345,0,0,1,7.721-23.517A40.446,40.446,0,0,1,16.3,31.047l11.4,11.4a22.555,22.555,0,0,0-5.027,14.216ZM45.328,34a22.586,22.586,0,0,0-15.721,6.356L18.3,29.042a39.352,39.352,0,0,1,13.395-8.221,14.161,14.161,0,0,0,27.273,0,39.406,39.406,0,0,1,9.062,4.727l-.6.8a1.417,1.417,0,0,0,.284,1.983l4.534,3.4L70.543,34l-2.267-1.7a1.416,1.416,0,0,0-1.983.284l-3.4,4.534a1.417,1.417,0,0,0,.284,1.983l2.267,1.7L63.6,43.258A22.75,22.75,0,0,0,45.328,34Zm9.692,30.157h0a7.031,7.031,0,0,0-.865,6.986,9.915,9.915,0,1,1-7.949-5.906,7.164,7.164,0,0,0,6.546-2.779L68.562,41.364a1.417,1.417,0,0,0-.284-1.983l-2.267-1.7,1.7-2.267,2.267,1.7a1.417,1.417,0,0,0,1.983-.284l3.4-4.533a1.417,1.417,0,0,0-.284-1.983l-4.534-3.4,1.7-2.267,4.533,3.4a1.417,1.417,0,0,0,1.983-.284l3.4-4.534,2.267,1.7Zm29.97-1.827h-17V56.659a22.83,22.83,0,0,0-.447-4.5L78.924,36.988a39.356,39.356,0,0,1,6.065,21.088Z"/>
        <path id="Trazado_136878" data-name="Trazado 136878" d="M49.3,69.415a7.082,7.082,0,1,0-4.263,12.751,7.191,7.191,0,0,0,1.018-.073A7.082,7.082,0,0,0,49.3,69.415Zm-.848,8.216a4.249,4.249,0,1,1-4-6.756,4.311,4.311,0,0,1,.611-.044,4.251,4.251,0,0,1,3.391,6.8Z"/>
      </g>
    </g>
  </g>
</svg>
