<svg xmlns="http://www.w3.org/2000/svg" width="295" height="194.628" viewBox="0 0 295 194.628">
  <g id="Grupo_117127" data-name="Grupo 117127" transform="translate(-391 -2743.334)">
    <rect id="Imagen_17" data-name="Imagen 17" width="295" height="161" rx="19" transform="translate(391 2763.399)" fill="#e1f3d7"/>
    <g id="Advantages-pana" transform="translate(412.339 2709.924)">
      <g id="freepik--background-complete--inject-14" transform="translate(33.86 34.32)">
        <rect id="Rectángulo_37897" data-name="Rectángulo 37897" width="96.596" height="132.263" rx="7.2" transform="translate(11.099 4.977)" fill="#f5f5f5"/>
        <path id="Trazado_140904" data-name="Trazado 140904" d="M420.048,57.969l.177.917-1.817,9.84h0a5.861,5.861,0,0,1-4.52,1.042l-10.295-1.9s-1.639-.368-1.181-2.491c0,0,.078-1.12,1.038-1.194,0,0-1.994-.813-1.773-2.349s1.354-1.518,1.354-1.518-1.869-.471-1.674-2.2,1.2-1.73,1.2-1.73-2.163-.528-1.631-2.444a1.977,1.977,0,0,1,2.414-1.449l7.323,1.354,6.419,1.185A3.733,3.733,0,0,1,420.048,57.969Z" transform="translate(-242.108 -45.111)" fill="#ebebeb"/>
        <path id="Trazado_140905" data-name="Trazado 140905" d="M430.435,45.854a12.61,12.61,0,0,1-3.028-4.261,10.969,10.969,0,0,1-.536-3.426c0-.087.147-.865.255-1.5a.986.986,0,0,0-.766-1.125,3.214,3.214,0,0,0-3.56,2.34,12.607,12.607,0,0,0-.1,5.857l.022.9Z" transform="translate(-254.329 -35.513)" fill="#ebebeb"/>
        <rect id="Rectángulo_37898" data-name="Rectángulo 37898" width="7.31" height="14.858" transform="matrix(-0.983, -0.182, 0.182, -0.983, 181.899, 26.423)" fill="#ebebeb"/>
        <path id="Trazado_140906" data-name="Trazado 140906" d="M437.78,74.347s.575-3.274,1.319-7.306,1.371-7.306,1.371-7.3-.575,3.274-1.324,7.31S437.793,74.351,437.78,74.347Z" transform="translate(-263.067 -49.261)" fill="#e0e0e0"/>
        <path id="Trazado_140907" data-name="Trazado 140907" d="M454.4,77.421s.575-3.279,1.324-7.31,1.362-7.3,1.375-7.3-.575,3.279-1.319,7.31S454.417,77.421,454.4,77.421Z" transform="translate(-272.498 -51.003)" fill="#e0e0e0"/>
        <path id="Trazado_140908" data-name="Trazado 140908" d="M448.432,67.078a1.367,1.367,0,1,0,.566-.885A1.367,1.367,0,0,0,448.432,67.078Z" transform="translate(-269.1 -52.784)" fill="#fff"/>
        <path id="Trazado_140909" data-name="Trazado 140909" d="M419.61,55s.792.117,1.756.294,1.752.337,1.73.35-.792-.117-1.756-.294S419.61,55,419.61,55Z" transform="translate(-252.756 -46.571)" fill="#e0e0e0"/>
        <path id="Trazado_140910" data-name="Trazado 140910" d="M405.49,70.76s.506.065,1.125.177a11.394,11.394,0,0,1,1.116.238s-.506-.065-1.125-.182A10.739,10.739,0,0,1,405.49,70.76Z" transform="translate(-244.744 -55.514)" fill="#e0e0e0"/>
        <path id="Trazado_140911" data-name="Trazado 140911" d="M404.46,61.42s.714.1,1.592.264,1.587.307,1.583.324-.714-.1-1.592-.268S404.456,61.437,404.46,61.42Z" transform="translate(-244.159 -50.214)" fill="#e0e0e0"/>
        <path id="Trazado_140912" data-name="Trazado 140912" d="M405.79,79.45s.714.1,1.592.264,1.587.307,1.583.32-.714-.1-1.592-.264S405.786,79.463,405.79,79.45Z" transform="translate(-244.914 -60.446)" fill="#e0e0e0"/>
        <path id="Trazado_140913" data-name="Trazado 140913" d="M447.76,61.42s1.012.16,2.249.389,2.241.433,2.241.433-1.012-.156-2.249-.385S447.76,61.437,447.76,61.42Z" transform="translate(-268.73 -50.214)" fill="#fff"/>
        <path id="Trazado_140914" data-name="Trazado 140914" d="M403.461,64.67a.264.264,0,0,1-.035-.082,1.521,1.521,0,0,1-.048-.238,1.951,1.951,0,0,1,0-.359,2.049,2.049,0,0,1,.1-.433,2,2,0,0,1,.195-.4,1.552,1.552,0,0,1,.225-.277,1.168,1.168,0,0,1,.186-.156l.074-.048a3.014,3.014,0,0,0-.229.229,1.76,1.76,0,0,0-.212.281,1.865,1.865,0,0,0-.182.385,2.088,2.088,0,0,0-.1.433,1.919,1.919,0,0,0,0,.35C403.435,64.549,403.47,64.665,403.461,64.67Z" transform="translate(-243.541 -50.929)" fill="#fff"/>
        <path id="Trazado_140915" data-name="Trazado 140915" d="M402.337,56.358a.484.484,0,0,1-.143-.186,1.129,1.129,0,0,1-.134-.549,1.2,1.2,0,0,1,.151-.545.506.506,0,0,1,.151-.177,1.534,1.534,0,0,0-.112.2,1.229,1.229,0,0,0-.022,1.055A2.283,2.283,0,0,1,402.337,56.358Z" transform="translate(-242.797 -46.514)" fill="#fff"/>
        <path id="Trazado_140916" data-name="Trazado 140916" d="M404.286,74.933a.579.579,0,0,1-.2-.182.982.982,0,0,1-.2-.614,1.008,1.008,0,0,1,.221-.606c.108-.13.2-.182.208-.173a1.985,1.985,0,0,0-.173.195,1,1,0,0,0,0,1.177A1.77,1.77,0,0,0,404.286,74.933Z" transform="translate(-243.83 -56.989)" fill="#fff"/>
        <path id="Trazado_140917" data-name="Trazado 140917" d="M406.368,83.613a.549.549,0,0,1-.138-.195,1.3,1.3,0,0,1,0-1.133.61.61,0,0,1,.138-.195,2.267,2.267,0,0,0-.1.212,1.423,1.423,0,0,0,0,1.1C406.32,83.535,406.376,83.608,406.368,83.613Z" transform="translate(-245.089 -61.944)" fill="#fff"/>
        <path id="Trazado_140918" data-name="Trazado 140918" d="M423.268,43.453a.818.818,0,0,1-.048-.16,1.6,1.6,0,0,1-.048-.195,2.674,2.674,0,0,0-.048-.264,4.947,4.947,0,0,1-.056-.683,5.832,5.832,0,0,1,.052-.865,5.75,5.75,0,0,1,.19-.822,4.793,4.793,0,0,1,.251-.644c.039-.087.082-.164.117-.234l.1-.173a1.257,1.257,0,0,1,.1-.143.675.675,0,0,1-.074.151l-.091.177c-.035.069-.074.147-.112.238-.078.177-.16.4-.238.64a7.432,7.432,0,0,0-.182.818,6.391,6.391,0,0,0-.056.835,5.978,5.978,0,0,0,.043.679,1.371,1.371,0,0,0,.039.26c.013.074.026.143.039.195A.808.808,0,0,1,423.268,43.453Z" transform="translate(-254.719 -37.645)" fill="#fff"/>
        <path id="Trazado_140919" data-name="Trazado 140919" d="M400.094,271.92l.489.558,2.647,7.47h0a4.637,4.637,0,0,1-2.7,2.5L392.72,285.2s-1.267.4-1.8-1.237c0,0-.389-.8.242-1.233,0,0-1.691.234-2.163-.908s.329-1.574.329-1.574a1.677,1.677,0,0,1-2.02-.865c-.549-1.3.138-1.665.138-1.665s-1.7.5-2.085-1.029a1.566,1.566,0,0,1,1.081-1.951L392,272.772l4.87-1.73A2.941,2.941,0,0,1,400.094,271.92Z" transform="translate(-233.288 -169.071)" fill="#c2e8b0"/>
        <path id="Trazado_140920" data-name="Trazado 140920" d="M403.173,263.778a10.006,10.006,0,0,1-3.776-1.73,8.65,8.65,0,0,1-1.73-2.137l-.433-1.129a.779.779,0,0,0-.969-.471,2.556,2.556,0,0,0-1.51,3.028,10.089,10.089,0,0,0,2.249,4.057l.372.606Z" transform="translate(-238.603 -161.92)" fill="#c2e8b0"/>
        <rect id="Rectángulo_37899" data-name="Rectángulo 37899" width="5.787" height="11.761" transform="translate(174.889 110.592) rotate(160.48)" fill="#c2e8b0"/>
        <path id="Trazado_140921" data-name="Trazado 140921" d="M420.427,281.086s-.9-2.474-1.985-5.537S416.487,270,416.5,270s.9,2.474,1.985,5.537S420.44,281.082,420.427,281.086Z" transform="translate(-250.991 -168.574)" fill="#e0e0e0"/>
        <path id="Trazado_140922" data-name="Trazado 140922" d="M433.037,276.616s-.9-2.474-1.985-5.537-1.955-5.545-1.942-5.55.9,2.474,1.985,5.537S433.05,276.612,433.037,276.616Z" transform="translate(-258.147 -166.038)" fill="#e0e0e0"/>
        <path id="Trazado_140923" data-name="Trazado 140923" d="M422.918,272.393a1.081,1.081,0,1,0,.657-1.384,1.081,1.081,0,0,0-.657,1.384Z" transform="translate(-254.598 -169.111)" fill="#a4dc88"/>
        <path id="Trazado_140924" data-name="Trazado 140924" d="M397.87,275.172s.588-.234,1.324-.493a10.718,10.718,0,0,1,1.337-.433,12.754,12.754,0,0,1-1.324.493C398.471,275,397.874,275.18,397.87,275.172Z" transform="translate(-240.42 -170.982)" fill="#e0e0e0"/>
        <path id="Trazado_140925" data-name="Trazado 140925" d="M394.44,292.011s.372-.156.843-.32a7.959,7.959,0,0,1,.865-.281,8.853,8.853,0,0,1-.843.324A8.5,8.5,0,0,1,394.44,292.011Z" transform="translate(-238.473 -180.723)" fill="#e0e0e0"/>
        <path id="Trazado_140926" data-name="Trazado 140926" d="M390,285.706s.532-.212,1.2-.433,1.207-.433,1.211-.407a10.1,10.1,0,0,1-1.2.433C390.545,285.52,390.022,285.719,390,285.706Z" transform="translate(-235.954 -177.009)" fill="#e0e0e0"/>
        <path id="Trazado_140927" data-name="Trazado 140927" d="M398.08,297.541s.532-.212,1.2-.433,1.207-.433,1.211-.4a9.265,9.265,0,0,1-1.2.433C398.625,297.359,398.084,297.554,398.08,297.541Z" transform="translate(-240.539 -183.727)" fill="#e0e0e0"/>
        <path id="Trazado_140928" data-name="Trazado 140928" d="M419.73,268.1s.753-.294,1.7-.627,1.7-.593,1.73-.58-.753.29-1.7.623S419.734,268.1,419.73,268.1Z" transform="translate(-252.824 -166.809)" fill="#fff"/>
        <path id="Trazado_140929" data-name="Trazado 140929" d="M391.147,289.025l-.056-.043a1.2,1.2,0,0,1-.125-.143,1.3,1.3,0,0,1-.143-.247,1.5,1.5,0,0,1-.108-.333,1.612,1.612,0,0,1-.026-.346,1.513,1.513,0,0,1,.048-.281.934.934,0,0,1,.065-.182.068.068,0,0,1,.035-.061s-.035.1-.069.247a1.61,1.61,0,0,0-.035.277,1.853,1.853,0,0,0,.026.337,1.916,1.916,0,0,0,.1.324,2.1,2.1,0,0,0,.134.247C391.082,288.951,391.152,289.021,391.147,289.025Z" transform="translate(-236.344 -178.442)" fill="#fff"/>
        <path id="Trazado_140930" data-name="Trazado 140930" d="M386.806,284.018a.389.389,0,0,1-.169-.069.9.9,0,0,1-.307-.324.865.865,0,0,1-.112-.433.368.368,0,0,1,.03-.182v.182a1.03,1.03,0,0,0,.121.411,1,1,0,0,0,.285.32C386.746,283.988,386.811,284.013,386.806,284.018Z" transform="translate(-233.807 -175.957)" fill="#fff"/>
        <path id="Trazado_140931" data-name="Trazado 140931" d="M395.531,295.9a.459.459,0,0,1-.212-.048.792.792,0,0,1-.385-.337.809.809,0,0,1-.087-.506.432.432,0,0,1,.074-.2,1.047,1.047,0,0,0-.039.2.8.8,0,0,0,.1.48.826.826,0,0,0,.355.333C395.449,295.878,395.531,295.891,395.531,295.9Z" transform="translate(-238.699 -182.653)" fill="#fff"/>
        <path id="Trazado_140932" data-name="Trazado 140932" d="M400.328,301.138a.481.481,0,0,1-.173-.078,1,1,0,0,1-.316-.337.982.982,0,0,1-.134-.433.407.407,0,0,1,0-.19v.186a1.146,1.146,0,0,0,.143.433,1.206,1.206,0,0,0,.294.333A1.561,1.561,0,0,1,400.328,301.138Z" transform="translate(-241.455 -185.655)" fill="#fff"/>
        <path id="Trazado_140933" data-name="Trazado 140933" d="M396.565,266.675l-.1-.1a1.4,1.4,0,0,1-.108-.112c-.043-.048-.091-.1-.138-.16a4.009,4.009,0,0,1-.307-.433,4.8,4.8,0,0,1-.3-.6,4.256,4.256,0,0,1-.195-.64,3.586,3.586,0,0,1-.082-.541v-.363a.833.833,0,0,1,0-.134.472.472,0,0,1,0,.134v.363a2.793,2.793,0,0,0,.091.532,4.524,4.524,0,0,0,.787,1.674c.048.065.091.117.13.164l.1.121A.683.683,0,0,1,396.565,266.675Z" transform="translate(-238.98 -164.943)" fill="#fff"/>
        <rect id="Rectángulo_37900" data-name="Rectángulo 37900" width="32.575" height="32.575" rx="13.31" transform="translate(72.455 156.03)" fill="#e0e0e0"/>
        <rect id="Rectángulo_37901" data-name="Rectángulo 37901" width="32.575" height="32.575" rx="6" transform="translate(66.603 156.03)" fill="#ebebeb"/>
        <path id="Trazado_140934" data-name="Trazado 140934" d="M199.5,424.136l3.279-3.283,6.328,5.627,10.571-10.61,3.045,3.279-14.084,13.66Z" transform="translate(-127.853 -251.349)" fill="#fff"/>
        <rect id="Rectángulo_37902" data-name="Rectángulo 37902" width="25.274" height="25.274" rx="12.637" transform="translate(4.537 163.02)" fill="#e0e0e0"/>
        <rect id="Rectángulo_37903" data-name="Rectángulo 37903" width="25.274" height="25.274" rx="3" transform="translate(0 163.02)" fill="#ebebeb"/>
        <path id="Trazado_140935" data-name="Trazado 140935" d="M42.9,434.045l2.548-2.548,4.909,4.364,8.2-8.231,2.366,2.548L49.994,440.771Z" transform="translate(-38.99 -258.022)" fill="#fff"/>
      </g>
      <g id="freepik--Plant--inject-14" transform="translate(177.413 159.291)">
        <path id="Trazado_140937" data-name="Trazado 140937" d="M404.46,394.632s-1.8-12.392-1.652-19.607,0-15.325,0-15.325h.831s-.562,14.317.052,22.951,2.223,11.981,2.223,11.981h-1.445" transform="translate(-386.769 -344.446)" fill="#263238"/>
        <path id="Trazado_140938" data-name="Trazado 140938" d="M408.154,325.743a2.185,2.185,0,0,0-.757-1.107,2.163,2.163,0,0,0-1.808,0c-2.509.887-4.736,5.567-5.749,8.028l3.331,11.246C409.187,338.326,410.23,331.007,408.154,325.743Z" transform="translate(-385.09 -324.435)" fill="#455a64"/>
        <path id="Trazado_140939" data-name="Trazado 140939" d="M411.567,326a.775.775,0,0,1-.048.147l-.164.407c-.147.355-.35.865-.6,1.505-.489,1.3-1.116,3.058-1.674,5.069s-.939,3.858-1.177,5.191c-.121.675-.208,1.22-.264,1.6-.03.177-.052.32-.074.433a.648.648,0,0,1-.035.151.837.837,0,0,1,0-.156c0-.117.026-.26.043-.433.043-.381.117-.93.225-1.609a48.067,48.067,0,0,1,1.138-5.225,48.728,48.728,0,0,1,1.73-5.065c.26-.636.476-1.142.64-1.488.074-.164.134-.294.186-.4A.631.631,0,0,1,411.567,326Z" transform="translate(-389.455 -325.323)" fill="#263238"/>
        <path id="Trazado_140940" data-name="Trazado 140940" d="M397.363,354.166a10.178,10.178,0,0,1-5.139-8.538,18.739,18.739,0,0,1,1.514-7.275.934.934,0,0,1,.355-.528.9.9,0,0,1,.865.13,10.361,10.361,0,0,1,4.377,6.268,12.669,12.669,0,0,1,.51,5.147,8.577,8.577,0,0,1-2.47,4.8" transform="translate(-380.762 -332)" fill="#455a64"/>
        <path id="Trazado_140941" data-name="Trazado 140941" d="M401.215,356.568a.693.693,0,0,1,0-.151v-.433c0-.372,0-.913-.048-1.583a43.178,43.178,0,0,0-.58-5.191c-.346-2.011-.766-3.811-1.077-5.113l-.368-1.544c-.039-.169-.074-.307-.1-.433A.625.625,0,0,1,399,342a.728.728,0,0,1,.052.143c.03.108.069.247.121.411.1.363.242.865.433,1.531.333,1.3.77,3.1,1.12,5.117a38.408,38.408,0,0,1,.541,5.191c0,.666,0,1.211,0,1.583l-.022.433A.693.693,0,0,1,401.215,356.568Z" transform="translate(-384.614 -334.402)" fill="#263238"/>
        <g id="Grupo_115046" data-name="Grupo 115046" transform="translate(11.451 5.766)" opacity="0.3">
          <path id="Trazado_140942" data-name="Trazado 140942" d="M397.363,354.166a10.178,10.178,0,0,1-5.139-8.538,18.739,18.739,0,0,1,1.514-7.275.934.934,0,0,1,.355-.528.9.9,0,0,1,.865.13,10.361,10.361,0,0,1,4.377,6.268,12.669,12.669,0,0,1,.51,5.147,8.577,8.577,0,0,1-2.47,4.8" transform="translate(-392.213 -337.766)"/>
        </g>
        <path id="Trazado_140943" data-name="Trazado 140943" d="M412.27,419.173c3.071.679,5.623,2.846,8.569,3.893,1.964.7,4.183.943,5.749,2.314a4.878,4.878,0,0,0-2.132-2.119,38.124,38.124,0,0,0-7.786-3.711,7.563,7.563,0,0,0-4.325-.489" transform="translate(-392.144 -378.045)" fill="#455a64"/>
        <path id="Trazado_140944" data-name="Trazado 140944" d="M386.6,420.525c-3.85-.065-7.9-3.344-11.735-3.538,4.01-1.3,9.75-.238,11.735,3.538" transform="translate(-370.921 -376.654)" fill="#455a64"/>
        <path id="Trazado_140945" data-name="Trazado 140945" d="M405.47,398.331a12.514,12.514,0,0,1,6.155-.433,37.283,37.283,0,0,1,6.008,1.631c-.2-1.337-1.3-2.34-2.3-3.227a15.81,15.81,0,0,0-2.409-1.856,5.364,5.364,0,0,0-2.894-.818,4.576,4.576,0,0,0-3.2,1.609,5.307,5.307,0,0,0-1.367,3.075" transform="translate(-388.285 -363.7)" fill="#455a64"/>
        <path id="Trazado_140946" data-name="Trazado 140946" d="M375.022,392.27c-2.422-2.072-6.095-1.869-9.282-1.8a75.4,75.4,0,0,1,14.386,8.967C380.265,397.188,378.085,394.882,375.022,392.27Z" transform="translate(-365.74 -361.886)" fill="#455a64"/>
        <g id="Grupo_115047" data-name="Grupo 115047" transform="translate(0 28.547)" opacity="0.3">
          <path id="Trazado_140947" data-name="Trazado 140947" d="M375.022,392.27c-2.422-2.072-6.095-1.869-9.282-1.8a75.4,75.4,0,0,1,14.386,8.967C380.265,397.188,378.085,394.882,375.022,392.27Z" transform="translate(-365.74 -390.433)"/>
        </g>
        <path id="Trazado_140948" data-name="Trazado 140948" d="M407.983,375.03a26.966,26.966,0,0,1,3.729-2.163c1.272-.58,2.466-1.5,3.694-2.163a40.1,40.1,0,0,0,4.451-3.14,11.558,11.558,0,0,1,4.87-2.327,9.572,9.572,0,0,0-4.434.26,28.635,28.635,0,0,0-4.174,1.622,20.98,20.98,0,0,0-5.359,3.106c-1.549,1.375-2.941,2.747-2.777,4.814" transform="translate(-389.703 -347.505)" fill="#455a64"/>
        <path id="Trazado_140949" data-name="Trazado 140949" d="M416.587,422.025l-.121-.052-.337-.177c-.29-.151-.705-.381-1.228-.645-.26-.138-.549-.281-.865-.433s-.645-.3-1-.458a14.9,14.9,0,0,0-2.37-.826,5.109,5.109,0,0,0-2.47-.061,7.287,7.287,0,0,0-1.047.311,5.4,5.4,0,0,0-1.908,1.3c-.221.238-.329.385-.342.376a.764.764,0,0,1,.069-.112,3.59,3.59,0,0,1,.234-.3,4.937,4.937,0,0,1,1.051-.921,5.08,5.08,0,0,1,.865-.458,7.084,7.084,0,0,1,1.06-.333,5.139,5.139,0,0,1,2.53.052,14.312,14.312,0,0,1,2.392.843c.355.16.692.316,1,.476s.6.3.865.433c.519.277.93.515,1.211.688l.324.195C416.553,421.995,416.592,422.021,416.587,422.025Z" transform="translate(-387.962 -378.154)" fill="#263238"/>
        <path id="Trazado_140950" data-name="Trazado 140950" d="M395.35,421.45a.752.752,0,0,1,.242.069,5.4,5.4,0,0,1,.627.273,7.69,7.69,0,0,1,3.218,3.088,5.187,5.187,0,0,1,.294.619.939.939,0,0,1,.082.238c-.022,0-.164-.316-.463-.8a8.756,8.756,0,0,0-1.388-1.73,8.576,8.576,0,0,0-1.791-1.3C395.674,421.6,395.341,421.472,395.35,421.45Z" transform="translate(-382.542 -379.487)" fill="#263238"/>
        <path id="Trazado_140951" data-name="Trazado 140951" d="M375.66,394.23l.164.048.458.164.731.268c.285.108.593.264.939.433a22.313,22.313,0,0,1,5.013,3.2,24.164,24.164,0,0,1,2.357,2.28,25.388,25.388,0,0,1,1.657,2.1c.433.623.774,1.142,1,1.5l.264.433a1.1,1.1,0,0,1,.082.147.866.866,0,0,1-.108-.13c-.065-.091-.164-.225-.285-.4-.242-.35-.584-.865-1.034-1.471s-1.012-1.324-1.674-2.076a24.938,24.938,0,0,0-2.331-2.28,23.675,23.675,0,0,0-4.966-3.214c-.346-.156-.649-.32-.93-.433l-.718-.29-.476-.2A.7.7,0,0,1,375.66,394.23Z" transform="translate(-371.369 -364.041)" fill="#263238"/>
        <path id="Trazado_140952" data-name="Trazado 140952" d="M410.575,399.133a1.358,1.358,0,0,1-.307-.039l-.35-.065c-.138-.026-.3-.03-.476-.048a4.861,4.861,0,0,0-2.643.523,4.758,4.758,0,0,0-1.207.9,5.328,5.328,0,0,0-.774.956,7.9,7.9,0,0,0-.528,1.008,1.046,1.046,0,0,1,.078-.3,4.324,4.324,0,0,1,.368-.761,5.19,5.19,0,0,1,.766-.995,4.72,4.72,0,0,1,1.233-.926,4.672,4.672,0,0,1,2.716-.5c.177.026.342.03.48.065l.35.091A1.38,1.38,0,0,1,410.575,399.133Z" transform="translate(-387.615 -366.664)" fill="#263238"/>
        <path id="Trazado_140953" data-name="Trazado 140953" d="M414.206,371.75a.631.631,0,0,1-.147.086l-.433.234c-.372.2-.913.5-1.566.887s-1.414.865-2.228,1.449a18.722,18.722,0,0,0-2.491,2.085,6.3,6.3,0,0,0-1.016,1.319c-.255.484-.493.952-.718,1.4a26.122,26.122,0,0,0-1.068,2.435,14.828,14.828,0,0,0-.519,1.73c-.1.411-.134.645-.147.64s0-.056,0-.169a2.942,2.942,0,0,1,.082-.484,12.32,12.32,0,0,1,.48-1.73,22.8,22.8,0,0,1,1.047-2.457c.221-.454.458-.926.709-1.41a6.412,6.412,0,0,1,1.038-1.354,18.276,18.276,0,0,1,2.517-2.094c.822-.58,1.6-1.051,2.254-1.432s1.207-.657,1.587-.865l.433-.208A.817.817,0,0,1,414.206,371.75Z" transform="translate(-387.375 -351.284)" fill="#263238"/>
        <path id="Trazado_140954" data-name="Trazado 140954" d="M399.439,388.2a1.951,1.951,0,0,1-.078-.324c-.043-.238-.1-.536-.169-.891a24.006,24.006,0,0,0-.727-2.889,25.4,25.4,0,0,0-1.1-2.768l-.376-.826a1.5,1.5,0,0,1-.121-.307,1.353,1.353,0,0,1,.169.285c.1.186.247.463.433.8a19.131,19.131,0,0,1,1.838,5.684c.061.381.1.688.125.9A1.73,1.73,0,0,1,399.439,388.2Z" transform="translate(-383.405 -356.073)" fill="#263238"/>
        <path id="Trazado_140955" data-name="Trazado 140955" d="M388.324,363.917a10.454,10.454,0,0,0-1.254-4.157,13.72,13.72,0,0,0-9.3-6.921l8.612,12.834,1.112,2.292A6.605,6.605,0,0,0,388.324,363.917Z" transform="translate(-372.567 -340.553)" fill="#455a64"/>
        <rect id="Rectángulo_37904" data-name="Rectángulo 37904" width="20.022" height="3.547" transform="translate(8.084 48.655)" fill="#2bca58"/>
        <path id="Trazado_140956" data-name="Trazado 140956" d="M387.89,443.5l1.7,11.008h13.292l2.033-11.008Z" transform="translate(-378.309 -391.999)" fill="#2bca58"/>
        <path id="Trazado_140957" data-name="Trazado 140957" d="M404.234,445.039c0,.039-4.52.074-10.087.074s-10.087-.035-10.087-.074,4.516-.069,10.087-.069S404.234,444.983,404.234,445.039Z" transform="translate(-376.136 -392.833)" fill="#263238"/>
      </g>
      <g id="freepik--Boxes--inject-14" transform="translate(52.356 192.591)">
        <rect id="Rectángulo_37905" data-name="Rectángulo 37905" width="29.275" height="29.275" rx="5" transform="translate(5.255)" fill="#17a540"/>
        <rect id="Rectángulo_37907" data-name="Rectángulo 37907" width="29.275" height="29.275" rx="5" fill="#2bca58"/>
        <path id="Trazado_140958" data-name="Trazado 140958" d="M87.09,426.5l2.95-2.95,5.688,5.056,9.494-9.533,2.738,2.946L95.3,434.291Z" transform="translate(-82.561 -411.436)" fill="#fff"/>
        <rect id="Rectángulo_37908" data-name="Rectángulo 37908" width="18.725" height="18.725" rx="5" transform="translate(28.98 10.55)" fill="#263238"/>
        <rect id="Rectángulo_37909" data-name="Rectángulo 37909" width="18.725" height="18.725" rx="4" transform="translate(25.62 10.55)" fill="#455a64"/>
        <path id="Trazado_140959" data-name="Trazado 140959" d="M142.55,441.849l1.886-1.886,3.638,3.235,6.077-6.1,1.752,1.886-8.1,7.851Z" transform="translate(-114.032 -421.667)" fill="#fff"/>
      </g>
      <g id="freepik--List--inject-14" transform="translate(49.208 33.41)">
        <rect id="Rectángulo_37910" data-name="Rectángulo 37910" width="96.596" height="132.263" rx="3" transform="translate(0.098 0.108)" fill="#fff"/>
        <path id="Trazado_140960" data-name="Trazado 140960" d="M162.923,165.781a3.218,3.218,0,0,0,1.138-.229,3.028,3.028,0,0,0,1.159-.826,3.132,3.132,0,0,0,.779-1.778c.022-3.028,0-7.457,0-13.18,0-11.445-.022-28.007-.035-48.471V36.953a3.114,3.114,0,0,0-.744-2.254,2.989,2.989,0,0,0-2.111-1.064H72.555a3.028,3.028,0,0,0-2.422,1.224,2.911,2.911,0,0,0-.545,1.3,10.516,10.516,0,0,0-.043,1.436V162.68a3.054,3.054,0,0,0,.74,1.964,2.98,2.98,0,0,0,1.817,1,7.283,7.283,0,0,0,1.068.043H96.678l48.471.035,13.18.022h-13.18l-48.471.039H73.157a7.791,7.791,0,0,1-1.094-.039A3.205,3.205,0,0,1,69.35,162.6q0-2.219,0-4.473V37.558a10.551,10.551,0,0,1,.048-1.471,3.132,3.132,0,0,1,.584-1.38,3.227,3.227,0,0,1,2.6-1.3h90.566a3.222,3.222,0,0,1,2.254,1.138,3.331,3.331,0,0,1,.757,2.388v64.358c0,20.464-.03,37.026-.039,48.471,0,5.727,0,10.165-.035,13.184a3.132,3.132,0,0,1-.8,1.8,3.028,3.028,0,0,1-1.177.809,2.95,2.95,0,0,1-.865.2Z" transform="translate(-69.343 -33.41)" fill="#263238"/>
        <rect id="Rectángulo_37911" data-name="Rectángulo 37911" width="48.272" height="5.714" rx="2.857" transform="translate(33.482 39.448)" fill="#e0e0e0"/>
        <rect id="Rectángulo_37912" data-name="Rectángulo 37912" width="13.236" height="13.236" rx="3" transform="translate(15.038 36.04)" fill="#2bca58"/>
        <path id="Trazado_140961" data-name="Trazado 140961" d="M108.84,128.067l1.337-1.332,2.569,2.288,4.3-4.312,1.237,1.332-5.723,5.55Z" transform="translate(-91.756 -85.219)" fill="#fff"/>
        <rect id="Rectángulo_37913" data-name="Rectángulo 37913" width="48.272" height="5.714" rx="2.857" transform="translate(33.482 59.981)" fill="#e0e0e0"/>
        <rect id="Rectángulo_37914" data-name="Rectángulo 37914" width="13.236" height="13.236" rx="2" transform="translate(15.038 56.577)" fill="#2bca58"/>
        <path id="Trazado_140962" data-name="Trazado 140962" d="M108.84,175.547l1.337-1.332,2.569,2.284,4.3-4.308,1.237,1.332-5.723,5.55Z" transform="translate(-91.756 -112.166)" fill="#fff"/>
        <rect id="Rectángulo_37915" data-name="Rectángulo 37915" width="48.272" height="5.714" rx="2.857" transform="translate(33.482 80.518)" fill="#e0e0e0"/>
        <rect id="Rectángulo_37916" data-name="Rectángulo 37916" width="13.236" height="13.236" rx="2" transform="translate(15.038 77.11)" fill="#2bca58"/>
        <path id="Trazado_140963" data-name="Trazado 140963" d="M108.84,223.017l1.337-1.332,2.569,2.288,4.3-4.312,1.237,1.332-5.723,5.55Z" transform="translate(-91.756 -139.099)" fill="#fff"/>
        <rect id="Rectángulo_37917" data-name="Rectángulo 37917" width="48.272" height="5.714" rx="2.857" transform="translate(33.482 101.051)" fill="#e0e0e0"/>
        <rect id="Rectángulo_37918" data-name="Rectángulo 37918" width="13.236" height="13.236" rx="2" transform="translate(15.038 97.647)" fill="#2bca58"/>
        <path id="Trazado_140964" data-name="Trazado 140964" d="M108.84,270.491l1.337-1.332,2.569,2.284,4.3-4.312,1.237,1.337-5.723,5.55Z" transform="translate(-91.756 -166.036)" fill="#fff"/>
        <path id="Trazado_140965" data-name="Trazado 140965" d="M127,79.145h-2.085l-.389.96H123.1l2.163-4.935h1.375l2.184,4.935h-1.44Zm-.407-1.021-.636-1.583-.636,1.583Z" transform="translate(-99.848 -57.107)" fill="#263238"/>
        <path id="Trazado_140966" data-name="Trazado 140966" d="M137.28,75.17h2.331a2.483,2.483,0,1,1,0,4.935H137.28Zm2.275,3.819a1.354,1.354,0,1,0,0-2.708h-.865v2.708Z" transform="translate(-107.894 -57.107)" fill="#263238"/>
        <path id="Trazado_140967" data-name="Trazado 140967" d="M154.588,75.17l-2.128,4.935h-1.375L149,75.17h1.505l1.341,3.214,1.367-3.214Z" transform="translate(-114.545 -57.107)" fill="#263238"/>
        <path id="Trazado_140968" data-name="Trazado 140968" d="M164.716,79.145h-2.094l-.385.96H160.81l2.163-4.935h1.38l2.184,4.935h-1.453Zm-.433-1.025-.636-1.583-.593,1.587Z" transform="translate(-121.246 -57.107)" fill="#263238"/>
        <path id="Trazado_140969" data-name="Trazado 140969" d="M179.693,75.17v4.935h-1.146l-2.163-2.63v2.63H175V75.17h1.151l2.163,2.63V75.17Z" transform="translate(-129.299 -57.107)" fill="#263238"/>
        <path id="Trazado_140970" data-name="Trazado 140970" d="M188.574,76.277H187.06V75.17h4.421v1.107h-1.51v3.828h-1.4Z" transform="translate(-136.142 -57.107)" fill="#263238"/>
        <path id="Trazado_140971" data-name="Trazado 140971" d="M200.437,79.145h-2.085l-.389.96H196.54L198.7,75.17h1.375l2.184,4.935h-1.453Zm-.407-1.021-.636-1.583-.632,1.583Z" transform="translate(-141.522 -57.107)" fill="#263238"/>
        <path id="Trazado_140972" data-name="Trazado 140972" d="M213.53,77.43h1.233v2.046a3.7,3.7,0,0,1-2.072.627,2.56,2.56,0,1,1,.026-5.108,2.7,2.7,0,0,1,2.163.9l-.887.8a1.544,1.544,0,0,0-1.2-.549,1.41,1.41,0,1,0,0,2.82,1.782,1.782,0,0,0,.757-.164Z" transform="translate(-149.143 -57.005)" fill="#263238"/>
        <path id="Trazado_140973" data-name="Trazado 140973" d="M227.062,79.028v1.077H223.1V75.17h3.893v1.081h-2.509v.83h2.189v1.042h-2.189v.9Z" transform="translate(-156.593 -57.107)" fill="#263238"/>
        <path id="Trazado_140974" data-name="Trazado 140974" d="M233.25,79.534l.458-1.025a3.149,3.149,0,0,0,1.631.484c.575,0,.8-.164.8-.4,0-.783-2.807-.212-2.807-2.046,0-.865.718-1.6,2.184-1.6a3.7,3.7,0,0,1,1.791.433l-.433,1.034a2.967,2.967,0,0,0-1.371-.381c-.584,0-.8.2-.8.433,0,.757,2.8.19,2.8,2.011,0,.865-.718,1.592-2.184,1.592A3.893,3.893,0,0,1,233.25,79.534Z" transform="translate(-162.353 -56.982)" fill="#263238"/>
      </g>
      <g id="freepik--Character--inject-14" transform="translate(130.378 40.836)">
        <path id="Trazado_140975" data-name="Trazado 140975" d="M319.788,433.728l-.372,9.763s9.8,3.659,9.91,5.467l-18.963-.039-.043-15.239Z" transform="translate(-287.257 -267.972)" fill="#263238"/>
        <path id="Trazado_140976" data-name="Trazado 140976" d="M317.083,454.391a.774.774,0,0,0-.536.865.74.74,0,0,0,.865.541.813.813,0,0,0,.562-.934.774.774,0,0,0-.965-.463" transform="translate(-290.784 -279.708)" fill="#e0e0e0"/>
        <path id="Trazado_140977" data-name="Trazado 140977" d="M310.42,466.9l.056-1.536,18.167.614s.865.368.748.96Z" transform="translate(-287.314 -285.949)" fill="#455a64"/>
        <path id="Trazado_140978" data-name="Trazado 140978" d="M329.788,456.031c0,.091-.467.134-.921.433s-.7.683-.787.644.056-.571.614-.917S329.81,455.945,329.788,456.031Z" transform="translate(-297.321 -280.608)" fill="#fff"/>
        <path id="Trazado_140979" data-name="Trazado 140979" d="M335,458c.022.091-.376.247-.692.636s-.407.809-.5.8-.147-.528.251-1.008S335,457.916,335,458Z" transform="translate(-300.543 -281.753)" fill="#fff"/>
        <path id="Trazado_140980" data-name="Trazado 140980" d="M339.107,461.466c-.082,0-.212-.433.03-.952s.67-.705.709-.627-.229.346-.433.766S339.2,461.458,339.107,461.466Z" transform="translate(-303.53 -282.834)" fill="#fff"/>
        <path id="Trazado_140981" data-name="Trazado 140981" d="M329.1,450.591c-.039.087-.467-.043-.991,0s-.93.2-.978.121.346-.433.96-.433S329.146,450.509,329.1,450.591Z" transform="translate(-296.796 -277.392)" fill="#fff"/>
        <path id="Trazado_140982" data-name="Trazado 140982" d="M266.767,430.71l-1.025,11.8,1.873,9.516a1.211,1.211,0,0,1-1.038,1.436h0a1.2,1.2,0,0,1-1.042-.381c-1.687-1.843-7.872-8.651-7.747-9.516.143-.995.26-12.5.26-12.5Z" transform="translate(-257.446 -266.287)" fill="#263238"/>
        <path id="Trazado_140983" data-name="Trazado 140983" d="M266.6,469.324,257.86,458.64l-.035.5a1.847,1.847,0,0,0,.355,1.207c.7.926,2.664,3.46,7.353,8.595a1.215,1.215,0,0,0,1.077.381Z" transform="translate(-257.466 -282.136)" fill="#455a64"/>
        <g id="Grupo_115049" data-name="Grupo 115049" transform="translate(1.963 172.716)" opacity="0.6">
          <path id="Trazado_140984" data-name="Trazado 140984" d="M262.634,450.02a.735.735,0,0,1,.138.969.709.709,0,0,1-.96.147.779.779,0,0,1-.138-1.029.731.731,0,0,1,1.012-.039" transform="translate(-261.539 -449.883)" fill="#fff"/>
        </g>
        <path id="Trazado_140985" data-name="Trazado 140985" d="M272.629,469.356a3.745,3.745,0,0,1,1.094-.865,3.574,3.574,0,0,1,1.375-.173c0-.03-.134-.13-.407-.186a1.921,1.921,0,0,0-1.908.792C272.629,469.183,272.6,469.356,272.629,469.356Z" transform="translate(-265.863 -287.505)" fill="#fff"/>
        <path id="Trazado_140986" data-name="Trazado 140986" d="M274.342,473.808a10.569,10.569,0,0,1,1.077-.433,10.752,10.752,0,0,1,1.164-.074,1.349,1.349,0,0,0-1.22-.177C274.653,473.276,274.281,473.773,274.342,473.808Z" transform="translate(-266.837 -290.314)" fill="#fff"/>
        <path id="Trazado_140987" data-name="Trazado 140987" d="M269.33,464.508a11.608,11.608,0,0,1,1.613-.792,15.125,15.125,0,0,1,1.778-.294,2.57,2.57,0,0,0-1.856.048A2.673,2.673,0,0,0,269.33,464.508Z" transform="translate(-263.997 -284.772)" fill="#fff"/>
        <path id="Trazado_140988" data-name="Trazado 140988" d="M269.36,457.253c.026.074.692-.156,1.544-.134s1.51.273,1.54.2A3.006,3.006,0,0,0,269.36,457.253Z" transform="translate(-264.014 -281.125)" fill="#fff"/>
        <path id="Trazado_140989" data-name="Trazado 140989" d="M269.848,449.163a5.81,5.81,0,0,1,1.6-.182,5.958,5.958,0,0,1,1.54.493c.043-.065-.1-.182-.359-.355a2.621,2.621,0,0,0-1.155-.4,2.565,2.565,0,0,0-1.207.164C269.978,449.007,269.831,449.137,269.848,449.163Z" transform="translate(-264.29 -276.5)" fill="#fff"/>
        <path id="Trazado_140990" data-name="Trazado 140990" d="M271.567,444.7a.987.987,0,0,0,.048-.433,3.115,3.115,0,0,0-.281-1.189,1.376,1.376,0,0,0-.549-.7.493.493,0,0,0-.554.074.8.8,0,0,0-.221.523,1.73,1.73,0,0,0,1.4,1.674,1.985,1.985,0,0,0,2.011-.908.688.688,0,0,0,.069-.571.476.476,0,0,0-.48-.286,1.687,1.687,0,0,0-.8.355,3.429,3.429,0,0,0-.865.865,1.064,1.064,0,0,0-.208.394,5.624,5.624,0,0,1,1.177-1.107,1.531,1.531,0,0,1,.705-.29.251.251,0,0,1,.264.151.48.48,0,0,1-.065.372,1.773,1.773,0,0,1-1.756.77,1.488,1.488,0,0,1-1.207-1.406.576.576,0,0,1,.138-.368.26.26,0,0,1,.307-.048,1.254,1.254,0,0,1,.476.58A4.524,4.524,0,0,1,271.567,444.7Z" transform="translate(-264.383 -272.878)" fill="#fff"/>
        <path id="Trazado_140991" data-name="Trazado 140991" d="M298.663,240.031a41.854,41.854,0,0,1,.917,12.34c-.19,2.63-9.057,75.219-9.057,75.219H278.567l3.361-68.225-.978.212s-6.527,29.1-7.059,33.808c-.476,4.235-5.982,35-5.982,35L257,328.5l3.46-40.659,4.062-39.046,1.561-11.385Z" transform="translate(-257 -156.597)" fill="#263238"/>
        <path id="Trazado_140992" data-name="Trazado 140992" d="M313.63,265.616a.406.406,0,0,0,.078.082.787.787,0,0,0,.29.134,1.358,1.358,0,0,0,1.133-.268,2.219,2.219,0,0,0,.774-1.544c.087-.649.1-1.345.147-2.085.082-1.479.143-2.816.173-3.785a11.2,11.2,0,0,0,0-1.57,10.006,10.006,0,0,0-.169,1.561c-.074.969-.16,2.3-.242,3.78-.048.735-.056,1.449-.125,2.068a2.124,2.124,0,0,1-.662,1.445,1.319,1.319,0,0,1-1.012.311A2.163,2.163,0,0,1,313.63,265.616Z" transform="translate(-289.135 -167.476)" fill="#455a64"/>
        <path id="Trazado_140993" data-name="Trazado 140993" d="M273,257.132a1.008,1.008,0,0,0,.333.121,5.466,5.466,0,0,0,.956.16,6.882,6.882,0,0,0,5.753-2.31,5.96,5.96,0,0,0,.58-.779,1.159,1.159,0,0,0,.164-.324c-.035,0-.3.407-.865.986a7.353,7.353,0,0,1-5.623,2.258C273.484,257.218,273,257.093,273,257.132Z" transform="translate(-266.079 -166.012)" fill="#455a64"/>
        <path id="Trazado_140994" data-name="Trazado 140994" d="M342.31,254.22a3.832,3.832,0,0,0,.182,1.2,8.958,8.958,0,0,0,3.2,4.819,3.975,3.975,0,0,0,1.038.636,12.922,12.922,0,0,1-2.842-2.907A14.08,14.08,0,0,1,342.31,254.22Z" transform="translate(-305.409 -166.136)" fill="#455a64"/>
        <path id="Trazado_140995" data-name="Trazado 140995" d="M424.947,204.26l2.742.865,4.983-2.755,2.829,7.877-6.782,1.613-5.139-.567Z" transform="translate(-351.527 -136.714)" fill="#ae7461"/>
        <path id="Trazado_140996" data-name="Trazado 140996" d="M353,133.64s2.8,1.683,5.126,7.4c4.559,11.246,7.427,17.3,7.427,17.3l20.918,6.6L384.8,173.33s-21.221-2.959-24.062-4.023c-3.893-1.458-6.774-9.127-6.774-9.127Z" transform="translate(-311.476 -97.713)" fill="#e0e0e0"/>
        <path id="Trazado_140997" data-name="Trazado 140997" d="M323.9,61.311a2.21,2.21,0,0,0,.718-4.325,2.3,2.3,0,0,0-2.2-3.767,2.751,2.751,0,0,0-4.256-2.042,3.1,3.1,0,0,0-3.806.117,2.2,2.2,0,0,0-1.73,3.824" transform="translate(-288.149 -50.579)" fill="#263238"/>
        <path id="Trazado_140998" data-name="Trazado 140998" d="M307.509,57.274h.484a9.365,9.365,0,0,1,9.758,8.14c.588,4.507,1.181,9.49,1.272,11.917.19,5.026-4.8,6.056-4.8,6.056l.727,6.012-12.211.229L300.58,67.794C299.866,62.581,302.3,57.841,307.509,57.274Z" transform="translate(-281.66 -54.371)" fill="#ae7461"/>
        <path id="Trazado_140999" data-name="Trazado 140999" d="M323.657,115.5A12.215,12.215,0,0,1,317,113.9s1.73,3.538,6.717,2.837Z" transform="translate(-291.047 -86.511)" fill="#6f4439"/>
        <path id="Trazado_141000" data-name="Trazado 141000" d="M334.409,85.975a.714.714,0,0,1-.653.757.688.688,0,0,1-.757-.61.722.722,0,0,1,.657-.757.683.683,0,0,1,.753.61Z" transform="translate(-300.125 -70.316)" fill="#263238"/>
        <path id="Trazado_141001" data-name="Trazado 141001" d="M334.471,80.97c-.087.1-.649-.277-1.423-.238s-1.3.454-1.406.368.039-.216.277-.407a1.972,1.972,0,0,1,1.12-.407,1.907,1.907,0,0,1,1.138.3C334.424,80.762,334.51,80.927,334.471,80.97Z" transform="translate(-299.336 -67.435)" fill="#263238"/>
        <path id="Trazado_141002" data-name="Trazado 141002" d="M318.114,86.431a.714.714,0,0,1-.666.766.683.683,0,0,1-.77-.61.718.718,0,0,1,.653-.757.683.683,0,0,1,.783.6Z" transform="translate(-290.864 -70.578)" fill="#263238"/>
        <path id="Trazado_141003" data-name="Trazado 141003" d="M316.951,82.174c-.087.1-.649-.281-1.419-.238a10.231,10.231,0,0,0-1.41.363c-.091-.069.039-.212.277-.407a1.972,1.972,0,0,1,1.12-.407,1.9,1.9,0,0,1,1.138.307C316.9,81.962,316.99,82.14,316.951,82.174Z" transform="translate(-289.398 -68.116)" fill="#263238"/>
        <path id="Trazado_141004" data-name="Trazado 141004" d="M326.941,87.584a5.191,5.191,0,0,1,1.246-.29c.195-.03.381-.078.407-.212a1.034,1.034,0,0,0-.16-.58c-.212-.467-.433-.96-.657-1.471a25.6,25.6,0,0,1-1.505-3.863,25.9,25.9,0,0,1,1.812,3.733c.221.515.433,1.008.632,1.479a1.142,1.142,0,0,1,.143.77.489.489,0,0,1-.311.3,1.323,1.323,0,0,1-.333.065A5,5,0,0,1,326.941,87.584Z" transform="translate(-296.304 -67.937)" fill="#263238"/>
        <path id="Trazado_141005" data-name="Trazado 141005" d="M317.755,75.188c-.1.2-.766.022-1.583.035s-1.492.186-1.579,0c-.035-.1.1-.281.385-.433a2.452,2.452,0,0,1,1.211-.32,2.362,2.362,0,0,1,1.194.3C317.664,74.911,317.794,75.092,317.755,75.188Z" transform="translate(-289.678 -64.136)" fill="#263238"/>
        <path id="Trazado_141006" data-name="Trazado 141006" d="M333.857,73.559c-.156.182-.8.03-1.57.061s-1.406.19-1.566,0c-.069-.087.022-.268.3-.433a2.474,2.474,0,0,1,1.259-.35,2.431,2.431,0,0,1,1.267.29C333.8,73.291,333.9,73.468,333.857,73.559Z" transform="translate(-298.821 -63.208)" fill="#263238"/>
        <path id="Trazado_141007" data-name="Trazado 141007" d="M315.569,62.251s-1.484-3.08-3.028-3.737c-1.882-.8-2.569,1.259-4.325.865s-3.573-1.168-5.294.272c-1.882,1.579-.913,2.569-.926,4.806-.039,9.062-1.561,11.7-2.245,7.466-.074-.463-1.388-.77-1.678-2.729-.372-2.543-.627-5.623-.147-7.483a7.166,7.166,0,0,1,2.729-3.893c2.375-1.959,5.762-2.163,8.076-2.05S315.582,58.3,315.569,62.251Z" transform="translate(-280.074 -53.509)" fill="#263238"/>
        <path id="Trazado_141008" data-name="Trazado 141008" d="M298.77,91.136a1.367,1.367,0,0,0-1.54-1.241c-.934.134-1.946.718-1.791,2.651.281,3.43,3.664,2.44,3.664,2.344S298.9,92.568,298.77,91.136Z" transform="translate(-278.803 -72.882)" fill="#ae7461"/>
        <path id="Trazado_141009" data-name="Trazado 141009" d="M299.862,95.122a1.2,1.2,0,0,1-.151.1.61.61,0,0,1-.433.043,1.482,1.482,0,0,1-.8-1.267,1.973,1.973,0,0,1,.1-.865.7.7,0,0,1,.411-.5.311.311,0,0,1,.368.134c.052.1.035.164.056.169s.069-.065.03-.2a.415.415,0,0,0-.493-.264.839.839,0,0,0-.58.584,2.046,2.046,0,0,0-.13.973,1.566,1.566,0,0,0,.995,1.41.627.627,0,0,0,.536-.138A.28.28,0,0,0,299.862,95.122Z" transform="translate(-280.397 -74.347)" fill="#6f4439"/>
        <path id="Trazado_141010" data-name="Trazado 141010" d="M298.039,63.58a3.253,3.253,0,0,0,1.492.6,1.12,1.12,0,0,0,1.2-.865c.03-.242-.043-.515.1-.709s.528-.177.818-.16a2.728,2.728,0,0,0,2.318-2.089.9.9,0,0,0,1.211.186,3.205,3.205,0,0,0,.792-.774,1.419,1.419,0,0,1,1.151-.649,3.3,3.3,0,0,0,.753.125c.433-.061.645-.6.692-1.051s.074-.978.433-1.237a1.707,1.707,0,0,1,1.228-.1c.42.043.947-.082,1.034-.5a.8.8,0,0,0-.186-.614,2.228,2.228,0,0,0-2.664-.709,3.028,3.028,0,0,0-5.567-.277,3.067,3.067,0,0,0-4.836,1.358,2.223,2.223,0,0,0-2.34,3.352A2.1,2.1,0,0,0,294.6,61.2a1.2,1.2,0,0,0,1.427,1.164,1.234,1.234,0,1,0,2.206,1.107" transform="translate(-278.336 -51.983)" fill="#263238"/>
        <path id="Trazado_141011" data-name="Trazado 141011" d="M309.159,60v.251a2.244,2.244,0,0,1-.216.67,2.462,2.462,0,0,1-.722.865,2.279,2.279,0,0,1-1.388.471l.056-.1a1.254,1.254,0,0,1-.022.952,3.725,3.725,0,0,1-.545.865,2.649,2.649,0,0,1-.368.433,1.177,1.177,0,0,1-.532.229A1.254,1.254,0,0,1,304.3,64.3l.125-.043a2.569,2.569,0,0,1-.995,1.821,1.9,1.9,0,0,1-1.112.433,3.4,3.4,0,0,1-1.12-.186l.087-.048a2.7,2.7,0,0,1-.774,1.077,1.449,1.449,0,0,1-1.181.385,1.9,1.9,0,0,1-1.523-1.393l.078.035a1.756,1.756,0,0,1-1.168.229,1.912,1.912,0,0,1-.844-.324,1.688,1.688,0,0,1-.407-.4.7.7,0,0,1-.1-.173,2.12,2.12,0,0,0,.536.528,1.838,1.838,0,0,0,.818.29,1.665,1.665,0,0,0,1.1-.238l.065-.039v.074a1.786,1.786,0,0,0,1.445,1.3,1.3,1.3,0,0,0,1.073-.363,2.6,2.6,0,0,0,.714-1.042l.022-.065h.069a3.214,3.214,0,0,0,1.073.182,1.73,1.73,0,0,0,1.025-.4,2.422,2.422,0,0,0,.947-1.73v-.16l.117.117a1.107,1.107,0,0,0,.99.3,1.064,1.064,0,0,0,.476-.2,2.5,2.5,0,0,0,.342-.389,3.408,3.408,0,0,0,.536-.835,1.107,1.107,0,0,0,.03-.865l-.03-.082h.087a2.2,2.2,0,0,0,1.332-.433,2.449,2.449,0,0,0,.74-.8A2.647,2.647,0,0,0,309.159,60Z" transform="translate(-278.773 -55.925)" fill="#455a64"/>
        <path id="Trazado_141012" data-name="Trazado 141012" d="M324.11,99.605c-.026-.13-.865.091-1.644-.467s-.926-1.475-1.042-1.449-.112.238-.022.619a2.163,2.163,0,0,0,.822,1.22,1.877,1.877,0,0,0,1.363.342C323.945,99.809,324.127,99.662,324.11,99.605Z" transform="translate(-293.507 -77.312)" fill="#263238"/>
        <path id="Trazado_141013" data-name="Trazado 141013" d="M309.878,149.464c-.078-.273-4.55-12.444-5.973-15.109a9.766,9.766,0,0,0-7.526-4.758c-2.228-.16-26.061,1.765-26.061,1.765s-7.12,1.592-8.028,7.717c-1.047,7.05-1.959,23.189-1.959,23.189l10.848-5.563,1.406-3.538,22.449,5.009,5.48-8.08Z" transform="translate(-258.89 -95.413)" fill="#e0e0e0"/>
        <path id="Trazado_141014" data-name="Trazado 141014" d="M277.522,124.689l9.308-4.1,1.042-4.014,10.87,5.139,2.275-2.517.956,2.837,2.379.779,5.567,9.788v20.857l1.125,17.994-1.224,2.837-9.97,1.471a11.314,11.314,0,0,1-3.287,0l-20.243-3.3L275.8,166.5l2.163-16.389Z" transform="translate(-267.668 -88.026)" fill="#e0e0e0"/>
        <path id="Trazado_141015" data-name="Trazado 141015" d="M302.433,116.57a26.953,26.953,0,0,1,4.325,2.016c3.058,1.631,6.531,3.123,6.531,3.123l-.264,4.905-11.566-5.8" transform="translate(-282.229 -88.026)" fill="#e0e0e0"/>
        <path id="Trazado_141016" data-name="Trazado 141016" d="M331.115,122.63l-2.275,2.517,1.215,5.26,2.029-4.754" transform="translate(-297.766 -91.465)" fill="#e0e0e0"/>
        <g id="Grupo_115050" data-name="Grupo 115050" transform="translate(20.256 33.272)" opacity="0.3">
          <path id="Trazado_141017" data-name="Trazado 141017" d="M314.691,128.452c.1.078.731,6.056.731,6.056L303.83,127.5l10.554,5.3Z" transform="translate(-303.83 -127.5)"/>
        </g>
        <path id="Trazado_141018" data-name="Trazado 141018" d="M328.723,159.747c-.177-4.585.545-16.281.545-16.281l1.514-.247a171.171,171.171,0,0,1,3.893,25.308c.433,5.623.433,12.176.433,12.176l-3.028,6.514-3.357-6.488S328.935,165.323,328.723,159.747Z" transform="translate(-297.684 -103.149)" fill="#455a64"/>
        <path id="Trazado_141019" data-name="Trazado 141019" d="M278.179,137c-.022.022.311.281.783.766a9.56,9.56,0,0,1,2.457,4.572c.143.657.177,1.077.2,1.073a.913.913,0,0,0,0-.294,6.282,6.282,0,0,0-.1-.8,8.465,8.465,0,0,0-.865-2.513,8.561,8.561,0,0,0-1.609-2.119,5.69,5.69,0,0,0-.614-.519A1.332,1.332,0,0,0,278.179,137Z" transform="translate(-269.017 -99.619)" fill="#263238"/>
        <path id="Trazado_141020" data-name="Trazado 141020" d="M328.459,133.342l1.034-.4.982,1.683.177,2.764-1.384.225L328.23,135.9Z" transform="translate(-297.42 -97.315)" fill="#455a64"/>
        <path id="Trazado_141021" data-name="Trazado 141021" d="M354.532,152.89c-.043,0-.082,5.986-.082,13.366s.039,13.37.082,13.37.082-5.982.082-13.37S354.575,152.89,354.532,152.89Z" transform="translate(-312.299 -108.636)" fill="#263238"/>
        <path id="Trazado_141022" data-name="Trazado 141022" d="M328.59,128.349a11.59,11.59,0,0,0,.588,1,27.694,27.694,0,0,1,1.3,2.466c.039.082.078.16.112.238l.074.156.074-.156a19.071,19.071,0,0,0,.965-2.453c.1-.316.173-.575.216-.757a.783.783,0,0,0,.052-.285c-.022,0-.143.385-.372,1.008a25.976,25.976,0,0,1-1.008,2.418h.147l-.112-.238a20.6,20.6,0,0,0-1.363-2.457c-.2-.3-.368-.536-.489-.7S328.6,128.341,328.59,128.349Z" transform="translate(-297.624 -94.71)" fill="#263238"/>
        <path id="Trazado_141023" data-name="Trazado 141023" d="M301.3,125.85a.834.834,0,0,0,.16.1l.467.247,1.73.9c1.458.757,3.46,1.838,5.666,3.028,1.345.718,2.621,1.384,3.733,1.938l.1.052v-.134c0-1.44.026-2.651.035-3.53v-.995a2.475,2.475,0,0,0,0-.355,2.059,2.059,0,0,0-.03.355c0,.247-.022.58-.039.991-.022.865-.052,2.094-.091,3.53l.1-.061c-1.1-.567-2.375-1.237-3.724-1.955-2.21-1.181-4.217-2.245-5.688-2.98-.735-.363-1.337-.653-1.752-.865l-.484-.216a.662.662,0,0,0-.19-.039Z" transform="translate(-282.138 -93.292)" fill="#263238"/>
        <path id="Trazado_141024" data-name="Trazado 141024" d="M351.407,134.6c-.026,0,.156.32.394.865a9.767,9.767,0,0,1,.662,2.132,9.624,9.624,0,0,1,.138,2.232c-.03.575-.091.926-.065.93a.865.865,0,0,0,.074-.242,6.287,6.287,0,0,0,.1-.679,8.033,8.033,0,0,0-.813-4.421,4.805,4.805,0,0,0-.342-.6C351.467,134.664,351.415,134.59,351.407,134.6Z" transform="translate(-310.57 -98.256)" fill="#263238"/>
        <path id="Trazado_141025" data-name="Trazado 141025" d="M331.217,143.248a1.457,1.457,0,0,0,.584-.277c.3-.19.528-.372.5-.411a1.427,1.427,0,0,0-.588.277C331.416,143.027,331.191,143.209,331.217,143.248Z" transform="translate(-299.114 -102.774)" fill="#263238"/>
        <path id="Trazado_141026" data-name="Trazado 141026" d="M330.07,138.85a7.83,7.83,0,0,0,.7-1.4,8.127,8.127,0,0,0,.567-1.449,7.232,7.232,0,0,0-.705,1.4A7.519,7.519,0,0,0,330.07,138.85Z" transform="translate(-298.464 -99.052)" fill="#263238"/>
        <path id="Trazado_141027" data-name="Trazado 141027" d="M266.219,137.72s-3.586,2.6-4.036,4.01-2.353,24.607-2.69,27.367-.675,7.911,1.458,9.594,6.726,2.946,6.726,2.946l4.243-8.759-2.249-4.71,2.249-17.6Z" transform="translate(-258.273 -100.028)" fill="#e0e0e0"/>
        <path id="Trazado_141028" data-name="Trazado 141028" d="M276.37,197.27a1.176,1.176,0,0,1,.229,0,5.557,5.557,0,0,0,.662-.043,4.819,4.819,0,0,0,2.292-.83,6.25,6.25,0,0,0,2.189-2.993,13.6,13.6,0,0,0,.83-4.719l.022.061-3.3-4.563-.026-.035V184.1a2.92,2.92,0,0,1,.048-.372c.632-4.935,1.207-9.408,1.626-12.665.208-1.6.376-2.911.5-3.837.056-.433.1-.787.134-1.047s.048-.363.052-.363a.208.208,0,0,1,0,.1v.272c-.026.26-.056.61-.1,1.051-.091.908-.238,2.223-.433,3.845-.381,3.248-.93,7.73-1.561,12.678a2.514,2.514,0,0,1-.048.368v-.078l3.283,4.568v.061a13.724,13.724,0,0,1-.865,4.788,6.354,6.354,0,0,1-2.284,3.028,4.326,4.326,0,0,1-1.3.6l-.294.082-.277.048a2.928,2.928,0,0,1-.484.056,3.894,3.894,0,0,1-.666,0,1.176,1.176,0,0,1-.238-.013Z" transform="translate(-267.992 -115.973)" fill="#263238"/>
        <path id="Trazado_141029" data-name="Trazado 141029" d="M266.327,209.491a3.651,3.651,0,0,1,.943-.67,8.8,8.8,0,0,1,5.394-1.051,3.759,3.759,0,0,1,1.125.268,10.77,10.77,0,0,0-7.479,1.453Z" transform="translate(-262.283 -139.739)" fill="#263238"/>
        <path id="Trazado_141030" data-name="Trazado 141030" d="M307.439,121.463h0s.208.77.532,2.128a9.672,9.672,0,0,1,2.768-2.647h0s5.537-5.5,7.306-11.285a27.684,27.684,0,0,0,.965-8.854c-.052-.221-.484-2.193-.835-3.806A2.522,2.522,0,0,1,320,94.022c2.738-.74,10.182-2.18,11.912,2.812,2.548,7.461-1.574,15.52-1.527,17.825v1.077c2.184-.506,3.893-.865,3.893-.83h0l14.334-3.344s4.736-1.436,6.363,3.421-3.893,6.488-3.893,6.488,2.6-.117,3.3,4.3-4.036,5.848-4.036,5.848,2.9-.186,3.655,3.729c.731,3.811-4.005,6.108-4.261,6.229a10,10,0,0,1,1.142-.216,6.455,6.455,0,0,1-.865.251c2.21.281,2.53,2.911,2.53,2.911,1.423,5.394-2.729,6.527-2.729,6.527l-26.186,6.108a15.061,15.061,0,0,1-7.89-.285c.251,1.116.385,1.73.376,1.73h0l-18.284,4.269c-.039,0-2.011-8.3-4.408-18.552s-4.3-18.6-4.265-18.6Z" transform="translate(-275.249 -74.791)" fill="#2bca58"/>
        <g id="Grupo_115051" data-name="Grupo 115051" transform="translate(13.91 18.455)" opacity="0.3">
          <path id="Trazado_141031" data-name="Trazado 141031" d="M307.439,121.463h0s.208.77.532,2.128a9.672,9.672,0,0,1,2.768-2.647h0s5.537-5.5,7.306-11.285a27.684,27.684,0,0,0,.965-8.854c-.052-.221-.484-2.193-.835-3.806A2.522,2.522,0,0,1,320,94.022c2.738-.74,10.182-2.18,11.912,2.812,2.548,7.461-1.574,15.52-1.527,17.825v1.077c2.184-.506,3.893-.865,3.893-.83h0l14.334-3.344s4.736-1.436,6.363,3.421-3.893,6.488-3.893,6.488,2.6-.117,3.3,4.3-4.036,5.848-4.036,5.848,2.9-.186,3.655,3.729c.731,3.811-4.005,6.108-4.261,6.229a10,10,0,0,1,1.142-.216,6.455,6.455,0,0,1-.865.251c2.21.281,2.53,2.911,2.53,2.911,1.423,5.394-2.729,6.527-2.729,6.527l-26.186,6.108a15.061,15.061,0,0,1-7.89-.285c.251,1.116.385,1.73.376,1.73h0l-18.284,4.269c-.039,0-2.011-8.3-4.408-18.552s-4.3-18.6-4.265-18.6Z" transform="translate(-289.159 -93.246)"/>
        </g>
        <path id="Trazado_141032" data-name="Trazado 141032" d="M339.125,149.162l-.355,2.379,5.848,25.023h0a15.061,15.061,0,0,0,11.761,2.119l26.178-6.112s4.152-1.133,2.729-6.527c0,0-.342-2.863-2.812-2.941,0,0,5.018-2.318,4.269-6.233s-3.651-3.724-3.651-3.724,4.736-1.436,4.031-5.852-3.3-4.3-3.3-4.3,5.515-1.613,3.893-6.488-6.363-3.421-6.363-3.421l-18.6,4.325-16.316,3.811A9.572,9.572,0,0,0,339.125,149.162Z" transform="translate(-303.401 -97.282)" fill="#2bca58"/>
        <path id="Trazado_141033" data-name="Trazado 141033" d="M349.65,119.524s5.537-5.5,7.306-11.285a27.661,27.661,0,0,0,.965-8.85c-.052-.225-.484-2.2-.835-3.811a2.522,2.522,0,0,1,1.825-2.976,8.257,8.257,0,0,1,9.421,5.623c2.548,7.457.913,12.7.956,15.009l.043,2.305Z" transform="translate(-309.575 -74.318)" fill="#2bca58"/>
        <rect id="Rectángulo_37919" data-name="Rectángulo 37919" width="18.772" height="38.142" transform="translate(18.511 49.976) rotate(-13.15)" fill="#2bca58"/>
        <path id="Trazado_141034" data-name="Trazado 141034" d="M350.732,193.406c.039,0-1.869-8.331-4.265-18.6s-4.369-18.565-4.408-18.556,1.869,8.331,4.265,18.6S350.684,193.414,350.732,193.406Z" transform="translate(-305.267 -110.543)" fill="#263238"/>
        <path id="Trazado_141035" data-name="Trazado 141035" d="M308.466,203.256c.039,0-1.873-8.331-4.269-18.6s-4.369-18.565-4.408-18.556,1.869,8.331,4.265,18.6S308.423,203.256,308.466,203.256Z" transform="translate(-281.281 -116.132)" fill="#263238"/>
        <path id="Trazado_141036" data-name="Trazado 141036" d="M322.634,175.86a3.512,3.512,0,1,1-4.222-2.621A3.512,3.512,0,0,1,322.634,175.86Z" transform="translate(-290.31 -120.131)" fill="#fff"/>
        <path id="Trazado_141037" data-name="Trazado 141037" d="M392.4,141.117c0-.039-2.011.394-4.468.969s-4.447,1.068-4.438,1.107,2.011-.394,4.468-.965S392.4,141.156,392.4,141.117Z" transform="translate(-328.777 -101.954)" fill="#263238"/>
        <path id="Trazado_141038" data-name="Trazado 141038" d="M434.7,179.925c0-.039-1.3.229-2.863.593a27.681,27.681,0,0,0-2.837.735c0,.039,1.3-.229,2.863-.593A29.083,29.083,0,0,0,434.7,179.925Z" transform="translate(-354.602 -123.975)" fill="#263238"/>
        <path id="Trazado_141039" data-name="Trazado 141039" d="M433.12,155.847c0-.039-1.825.355-4.057.865s-4.031.973-4.023,1.016,1.825-.355,4.057-.865A40.749,40.749,0,0,0,433.12,155.847Z" transform="translate(-352.355 -110.312)" fill="#263238"/>
        <path id="Trazado_141040" data-name="Trazado 141040" d="M431.87,202.236c0-.039-1.825.35-4.057.865s-4.031.973-4.023,1.012,1.825-.35,4.057-.865S431.879,202.275,431.87,202.236Z" transform="translate(-351.646 -136.637)" fill="#263238"/>
        <g id="Grupo_115052" data-name="Grupo 115052" transform="translate(48.937 19.406)" opacity="0.3">
          <path id="Trazado_141041" data-name="Trazado 141041" d="M370.692,96.161a2.163,2.163,0,0,0-.432,2.163,13.979,13.979,0,0,0,1,2.106,7.911,7.911,0,0,1,.614,5.03,1.825,1.825,0,0,0,.078,1.518c.467.58,1.406.26,2-.195a7.479,7.479,0,0,0,2.6-7.557,5.26,5.26,0,0,0-1.843-2.972,3.114,3.114,0,0,0-4.044-.108" transform="translate(-370.138 -95.445)" fill="#fff"/>
        </g>
        <g id="Grupo_115053" data-name="Grupo 115053" transform="translate(63.133 36.435)" opacity="0.3">
          <path id="Trazado_141042" data-name="Trazado 141042" d="M419.487,134.842a4.486,4.486,0,0,0-1.933.2l-11.047,2.8c-1.2.307-3.46.58-3.486,1.808h0a1.462,1.462,0,0,0,.926,1.7,3.893,3.893,0,0,0,2.115.078c1.475-.234,2.933-.58,4.39-.926a55.246,55.246,0,0,0,8.651-2.6,4.027,4.027,0,0,0,1.159-.653,1.5,1.5,0,0,0,.549-1.172A1.544,1.544,0,0,0,419.487,134.842Z" transform="translate(-402.958 -134.813)" fill="#fff"/>
        </g>
        <path id="Trazado_141043" data-name="Trazado 141043" d="M317.69,161c0-.039-2.6.528-5.723,1.263s-5.7,1.363-5.688,1.4,2.569-.523,5.723-1.259S317.7,161.058,317.69,161Z" transform="translate(-284.964 -113.236)" fill="#fff"/>
        <path id="Trazado_141044" data-name="Trazado 141044" d="M444.041,164.188a.714.714,0,0,0,.069-.216,2.914,2.914,0,0,0,.1-.614,4.541,4.541,0,0,0-.03-.921,5.294,5.294,0,0,0-.294-1.094,5.034,5.034,0,0,0-.545-.995,4.326,4.326,0,0,0-.614-.692,3.178,3.178,0,0,0-.493-.376.657.657,0,0,0-.2-.108c0,.026.255.2.623.562a4.725,4.725,0,0,1,.571.692,5.382,5.382,0,0,1,.519.969,5.8,5.8,0,0,1,.3,1.06,5.313,5.313,0,0,1,.061.9C444.089,163.854,444.011,164.179,444.041,164.188Z" transform="translate(-361.996 -112.2)" fill="#fff"/>
        <path id="Trazado_141045" data-name="Trazado 141045" d="M447.552,142.669a1.349,1.349,0,0,0,.346-.493,2.825,2.825,0,0,0,.268-1.423,2.916,2.916,0,0,0-.433-1.38,1.35,1.35,0,0,0-.407-.433c-.022,0,.138.182.316.5a3.093,3.093,0,0,1,.394,1.332,3.145,3.145,0,0,1-.216,1.371C447.669,142.465,447.531,142.651,447.552,142.669Z" transform="translate(-365.001 -100.72)" fill="#fff"/>
        <path id="Trazado_141046" data-name="Trazado 141046" d="M444.337,190.459a1.48,1.48,0,0,0,.489-.484,2.5,2.5,0,0,0-.19-3.132,1.48,1.48,0,0,0-.545-.433,3.609,3.609,0,0,1,.467.489,2.673,2.673,0,0,1,.58,1.475,2.643,2.643,0,0,1-.4,1.536C444.523,190.268,444.315,190.441,444.337,190.459Z" transform="translate(-363.165 -127.657)" fill="#fff"/>
        <path id="Trazado_141047" data-name="Trazado 141047" d="M440.6,213.04a1.531,1.531,0,0,0,.329-.519,3.274,3.274,0,0,0-.125-2.9,1.526,1.526,0,0,0-.372-.489c-.022,0,.121.2.281.536a3.7,3.7,0,0,1,.346,1.393,3.65,3.65,0,0,1-.225,1.419C440.7,212.828,440.574,213.027,440.6,213.04Z" transform="translate(-361.086 -140.55)" fill="#fff"/>
        <path id="Trazado_141048" data-name="Trazado 141048" d="M390.615,112.216a2.534,2.534,0,0,0,.108-.433c.03-.134.065-.3.1-.5s.069-.433.087-.675a12.332,12.332,0,0,0,.065-1.765,13.509,13.509,0,0,0-.818-4.243,12.638,12.638,0,0,0-.722-1.613,6.773,6.773,0,0,0-.333-.593c-.1-.16-.195-.316-.277-.433a2.162,2.162,0,0,0-.26-.35,2.625,2.625,0,0,0,.212.381c.074.121.16.268.251.433s.212.372.316.6a14.736,14.736,0,0,1,.683,1.613,16,16,0,0,1,.567,2.068,16.476,16.476,0,0,1,.247,2.132,14.091,14.091,0,0,1-.035,1.73,5.6,5.6,0,0,1-.065.67c-.022.195-.048.368-.069.506a2.123,2.123,0,0,0-.052.471Z" transform="translate(-331.654 -79.537)" fill="#fff"/>
        <path id="Trazado_141049" data-name="Trazado 141049" d="M292.458,225.657a5.841,5.841,0,0,1,2.5-1.159c1.068-.043,2.457.368,2.734.229s.93-.748,1.345-.234a1.784,1.784,0,0,1-1.3,2.876h-1.531a7.429,7.429,0,0,0,.558,2.132c.372.6,5.567,7.141,5.567,7.141s.649.653.324,1.3-1.73.277-1.73.277a2.255,2.255,0,0,1-2.085.463,7.721,7.721,0,0,1-1.579-.74,2.063,2.063,0,0,1-2.5,0c-1.3-.973-5.623-6.4-5.623-6.4l1.548-6.056Z" transform="translate(-275.238 -149.153)" fill="#ae7461"/>
        <path id="Trazado_141050" data-name="Trazado 141050" d="M279.3,219.15l4.507,3.59-3.309,5.887-6.6-2.4S274.09,219.275,279.3,219.15Z" transform="translate(-266.59 -146.236)" fill="#ae7461"/>
        <path id="Trazado_141051" data-name="Trazado 141051" d="M445.844,198.854s-.143-1.613-1.047-1.3-1.3,2.232-1.3,2.232Z" transform="translate(-362.831 -133.959)" fill="#ae7461"/>
        <path id="Trazado_141052" data-name="Trazado 141052" d="M441.022,202.163a5.12,5.12,0,0,1,3.75-1.613c2.18.143.809,1.994.809,1.994a1.566,1.566,0,0,1,.433,2.422l-.19.381s1.375.519-.048,1.99a1.453,1.453,0,0,1-.19,1.665c-.714.709-2.491-.238-2.491-.238s-1.639.381-1.782-.285a1.259,1.259,0,0,1,.381-1.25c.143-.1,1-.433,1-.433s-1.9.238-1.946-.238-.238-1,1.185-1.471l.761-.2s-1.972.061-1.985-.433-.1-.666.606-.995a10.9,10.9,0,0,0,1.3-.714S440.741,203.162,441.022,202.163Z" transform="translate(-361.239 -135.676)" fill="#ae7461"/>
        <path id="Trazado_141053" data-name="Trazado 141053" d="M440.65,206.489a8.046,8.046,0,0,1,2.349-1.2,8.184,8.184,0,0,1,2.63-.208,2.163,2.163,0,0,0-.774-.164,5.346,5.346,0,0,0-3.633,1.025,2.016,2.016,0,0,0-.571.549Z" transform="translate(-361.213 -138.146)" fill="#6f4439"/>
        <path id="Trazado_141054" data-name="Trazado 141054" d="M440.817,212.219a1.031,1.031,0,0,1-.091-.169.757.757,0,0,1,0-.493,1.121,1.121,0,0,1,.433-.6,2.5,2.5,0,0,1,.865-.359,21.356,21.356,0,0,1,2.491-.3,2.331,2.331,0,0,0-.744-.082,7.746,7.746,0,0,0-1.791.195,2.487,2.487,0,0,0-.93.407,1.2,1.2,0,0,0-.458.705.735.735,0,0,0,.065.562C440.752,212.2,440.813,212.227,440.817,212.219Z" transform="translate(-361.164 -141.164)" fill="#6f4439"/>
        <path id="Trazado_141055" data-name="Trazado 141055" d="M442.29,216.974a1.156,1.156,0,0,1-.164-.134.8.8,0,0,1,.043-1.189,3.248,3.248,0,0,1,.93-.433,6.293,6.293,0,0,1,1.9-.1,2.227,2.227,0,0,0,.809-.043,6.054,6.054,0,0,0-.8-.1,5.289,5.289,0,0,0-1.968.052,3.2,3.2,0,0,0-.991.48.865.865,0,0,0-.281.433,1.076,1.076,0,0,0,0,.433.8.8,0,0,0,.324.523C442.2,216.983,442.29,216.983,442.29,216.974Z" transform="translate(-361.837 -143.831)" fill="#6f4439"/>
        <path id="Trazado_141056" data-name="Trazado 141056" d="M441.375,202.108a.883.883,0,0,1,.138-.151,5.194,5.194,0,0,1,.433-.35,6.19,6.19,0,0,1,1.609-.865,4.166,4.166,0,0,1,1.791-.26,7.016,7.016,0,0,1,.731.208,1.3,1.3,0,0,0-.705-.342,3.711,3.711,0,0,0-1.873.208C442.072,201.066,441.259,202.044,441.375,202.108Z" transform="translate(-361.619 -135.544)" fill="#6f4439"/>
      </g>
    </g>
  </g>
</svg>
