<svg xmlns="http://www.w3.org/2000/svg" xmlns:xlink="http://www.w3.org/1999/xlink" width="220.906" height="360.122" viewBox="0 0 220.906 360.122">
  <defs>
    <clipPath id="clip-path">
      <path id="Trazado_137151" data-name="Trazado 137151" d="M764.355,896.813l2.018-1.289a.564.564,0,0,0-.193.448l-1.992,1.289A.553.553,0,0,1,764.355,896.813Z" transform="translate(-764.187 -895.524)" fill="none"/>
    </clipPath>
    <clipPath id="clip-path-2">
      <path id="Trazado_137155" data-name="Trazado 137155" d="M762.316,892.845l1.987-1.289a1.161,1.161,0,0,1,1.233.056l-1.987,1.289A1.221,1.221,0,0,0,762.316,892.845Z" transform="translate(-762.316 -891.404)" fill="none"/>
    </clipPath>
    <clipPath id="clip-path-3">
      <path id="Trazado_137165" data-name="Trazado 137165" d="M792.095,906.712l2.018-1.317a3.712,3.712,0,0,1,1.849,2.914l-1.987,1.289A3.729,3.729,0,0,0,792.095,906.712Z" transform="translate(-792.095 -905.395)" fill="none"/>
    </clipPath>
  </defs>
  <g id="Grupo_105859" data-name="Grupo 105859" transform="translate(-704.797 -369.227)">
    <g id="Grupo_105822" data-name="Grupo 105822" transform="translate(909.787 486.799)">
      <path id="Trazado_137104" data-name="Trazado 137104" d="M1343.085,764.735c-.535-2.41-6.67-38.532-6.67-38.532l-9.222,28.976s.51,2.326,1.07,4.9l5.182-21.438c2.155,15.1,4.483,26.286,4.122,28.836s-4.739,20.934-4.739,20.934l-4.789-9.163c-.448,3.306-.846,5.969-.846,5.969l7.735,16.057S1343.62,767.146,1343.085,764.735Z" transform="translate(-1327.193 -726.203)" fill="#f15a24"/>
      <path id="Trazado_137105" data-name="Trazado 137105" d="M1339.289,792.818c.362-2.55-1.967-13.731-4.122-28.836l-5.182,21.438c.586,2.83,1.233,6,1.284,6.669.061.785-.81,7.4-1.508,12.5l4.79,9.163S1338.922,795.368,1339.289,792.818Z" transform="translate(-1328.915 -751.539)" fill="#ba451c"/>
    </g>
    <g id="Grupo_105823" data-name="Grupo 105823" transform="translate(708.5 409.393)">
      <path id="Trazado_137106" data-name="Trazado 137106" d="M809.8,549.443s-18.022-47.7-25.42-54.45a1.608,1.608,0,0,0-.418-.308l-.53.617c-1.488,1.99.948,7.678.948,7.678l2.048,15.722-2.186,1.177-1.625,7.79s-2.772-20.093-7.7-28.276a6.042,6.042,0,0,1-3.169.869c.143.308.28.672.418,1.065a1.041,1.041,0,0,0,.112.28c.285.84.621,1.765.983,2.8a2.167,2.167,0,0,0,.087.281c.336,1.093.724,2.3,1.121,3.587a.774.774,0,0,1,.051.2c.423,1.345.815,2.775,1.233,4.26a.486.486,0,0,0,.061.2c.193.7.387,1.457.56,2.214.611,2.326,1.172,4.736,1.681,7.174,1.2,6.81,1.875,18.776,1.539,21.83-.112.729-.168,1.149-.168,1.149l-.7-.813s-.51-.112-.086-.112l-21.466-25.109L743,504.493c-5.156,2.494-14.037,10.929-18.832,16.814-.617.729-1.177,1.429-1.625,2.074-.281.56-.841,1.345-1.457,2.438a19.41,19.41,0,0,0-2.522,7.258c-2.242,16.113-2.69,45.034-2.466,46.94.25,2.522,12.443,37.1,13.059,37.888a2.421,2.421,0,0,0,1.121.28,1.9,1.9,0,0,1-.082-.252c.612.056,1.2.084,1.763.112h.28c.5.028,1.009,0,1.513,0a.7.7,0,0,1,.255-.028c.474-.028.922-.056,1.37-.112.474-.056.9-.14,1.289-.224a.167.167,0,0,0,.112-.028,7.328,7.328,0,0,0,1.121-.252c.03-.028.056-.028.112-.056a10.333,10.333,0,0,0,2.609-1.205S728.872,581,728.984,577.074c.056-1.765.5-7.875,1.513-15.188,1.4-13.564,3.531-31.863,4.932-31.527,2.186.533,17.181,30.518,17.966,40.69.785,10.2-12.08,29.817-11.831,38.224l-.163.112c.081.813.163,1.569.224,2.242,3.638,1.99,10.338,4.091,20.819,2.214A47.006,47.006,0,0,0,780.97,606.3c4.565-13.536,2.293-54.282,2.966-57.729.224-1.009.061-4.512-.275-9.052.163.364.336.757.5,1.121a5.252,5.252,0,0,0,4.57,2.607,22.018,22.018,0,0,0,4.26-.617,4.828,4.828,0,0,0,2.268-1.009,34.282,34.282,0,0,0,2.385,6.053c2.048,3.167,19.672,26.2,26.424,35.03,2.216-1.485,3.984-3.615,3.984-5.8Z" transform="translate(-716.041 -493.531)" fill="#292e3f"/>
      <path id="Trazado_137107" data-name="Trazado 137107" d="M904.131,517.529l2.186-1.177-2.048-15.722s-2.435-5.688-.948-7.678l.53-.617c-2.074-1.289-6.583-1.149-6.583-1.149h-.112a18.279,18.279,0,0,1-.336,2.046c-.224.869-.336,2.718-2.018,3.811,4.932,8.183,7.7,28.275,7.7,28.275Z" transform="translate(-835.926 -491.182)" fill="#171d2d"/>
    </g>
    <path id="Trazado_137108" data-name="Trazado 137108" d="M836.126,814.574c-1.682,1.99-10.007,10.789-25.364,13.536-10.481,1.877-17.181-.224-20.819-2.214a9.829,9.829,0,0,1-.112,3.811,6.031,6.031,0,0,0,.724-.812l-2.466,4.764s1.656.421,3.674.925l-.983,10.564,6.756,3.587s-.28-8.351,2.212-11.882a28.389,28.389,0,0,0,12.136.028c1.712,9.276-.5,28.612-1.065,33.124.138,5.408,1.065,40.606,1.595,50.946.087,1.149.143,2.018.2,2.466a2.906,2.906,0,0,0,.759,1.6c1.763,1.934,6.1,3.083,10.338,2.662a14.164,14.164,0,0,0,4.2-1.008c-4.148-2.046-7.342-2.046-9.023-4.484a7.557,7.557,0,0,1-1.121-3.391c-.81-6.109.056-39.513,2.13-51.592,2.1-12.078,4.285-34.329,5.691-35.814,1.172-1.233,7.062-4.736,10.394-9.192.306-4.876.479-8.015.479-8.015S836.35,814.322,836.126,814.574Z" transform="translate(-55.859 -298.407)" fill="#171d2d"/>
    <g id="Grupo_105828" data-name="Grupo 105828" transform="translate(813.01 435.331)">
      <path id="Trazado_137109" data-name="Trazado 137109" d="M1285.967,1286.793c-1.121-3.587,6.552-25.529,3.811-44.417,4.845-3.279,9.915-3.671,11.123-8.3-.2,13.423-7.424,35.338-5.131,50.359a47.193,47.193,0,0,1-7.785,8.435C1286.273,1291.866,1287.114,1290.409,1285.967,1286.793Z" transform="translate(-1202.693 -1015.34)" fill="#ce9772"/>
      <path id="Trazado_137110" data-name="Trazado 137110" d="M1255.8,1387.713c-3.7,4.792-10.17,5.885-10.506,5.408-.311-.448,1.794-5.408,1.794-5.408s-6.532,1.121-8.326,2.3-2.945,2.887-.28,7.286c2.665,4.372,10.032,5.241,13,3.111,2.97-2.1,9.329-9.556,9.554-9.388.255.14.785,9.08,1.263,9.64.479.533,1.569.168,2.186,0,.647-.168.647-8.715,1.819-11.826,1.182-3.167.927-6.53-3.22-8.576C1259.167,1380.258,1258.551,1384.21,1255.8,1387.713Z" transform="translate(-1169.87 -1113.373)" fill="#ba451c"/>
      <path id="Trazado_137111" data-name="Trazado 137111" d="M1236.015,1249.274c3.139,3.223,9.946,3.195,15.1-.981.423-.336.846-.645,1.294-.952,2.741,18.887-4.932,40.83-3.811,44.417,1.146,3.615.306,5.072,2.018,6.082,0,0-17.293,10.873-20.432,10.817-.815-.028,8.687-8.631,8.519-9.192-.841-2.8,1.906-16.394.448-24.773-1.488-8.351-5.411-20.822-7.48-33.208C1233.661,1247.144,1236.015,1249.274,1236.015,1249.274Z" transform="translate(-1165.326 -1020.304)" fill="#e8b188"/>
      <path id="Trazado_137112" data-name="Trazado 137112" d="M1241.676,718.413a8.409,8.409,0,0,0,1.345,2.074,24.086,24.086,0,0,0-12.3,2.438,28.5,28.5,0,0,1,6.053-8.463l.051,4.064A20.054,20.054,0,0,1,1241.676,718.413Z" transform="translate(-1165.718 -666.86)" fill="#fff"/>
      <path id="Trazado_137113" data-name="Trazado 137113" d="M1261.334,629.081c.194,6.754-9.946,14.012-17.069,10.4s-5.207-12.134-8.713-15.917a8.406,8.406,0,0,1-1.345-2.074c-3.139-6.586-1.09-19.728-1.875-25.305-.871-6.221-8.661-9-8.692-9-1.172-2.718-6.278-10.733-2.94-14.124,4.54-4.624,19.168-3.895,29.144.7,11.632,5.381,12.723,25.557,12.244,40.214C1261.838,621.066,1261.252,626.895,1261.334,629.081Z" transform="translate(-1158.249 -569.934)" fill="#311b0b"/>
      <path id="Trazado_137114" data-name="Trazado 137114" d="M1232.332,1409.119c2.634-1.541,4.733-5.717,4.733-5.717a25.692,25.692,0,0,1,3.424.9c0,.14-4.036,7.09-4.036,7.09s-5.329,5.633-5.635,5.857c-.336.224-3.083-.449-3.083-.449Z" transform="translate(-1163.716 -1128.894)" fill="#e8b188"/>
      <g id="Grupo_105824" data-name="Grupo 105824" transform="translate(58.41 272.77)">
        <path id="Trazado_137115" data-name="Trazado 137115" d="M1229.913,1412.587c-4.173,5.436-11.964,4.484-14.261,3.279-2.242-1.205-4.734-5.577-4.764-5.661a3.7,3.7,0,0,1,1.793-2.354c1.794-1.177,8.351-2.27,8.351-2.27s-2.13,4.932-1.819,5.38c.337.5,6.807-.616,10.506-5.38,2.747-3.531,3.363-7.454,7.286-7.454,2.833,1.4,3.842,3.391,3.842,5.492C1237.821,1404.012,1233.923,1407.346,1229.913,1412.587Z" transform="translate(-1210.827 -1398.127)" fill="#f15a24"/>
        <path id="Trazado_137116" data-name="Trazado 137116" d="M1240.1,1417.858c-1.172,3.139-1.172,11.658-1.793,11.826-.642.168-1.732.561-2.181,0-.509-.533-1.04-9.472-1.294-9.64-.224-.14-6.552,7.286-9.528,9.416-3,2.1-10.364,1.261-13.028-3.138-1.37-2.242-1.738-3.811-1.513-4.932.031.084,2.522,4.455,4.764,5.661,2.3,1.205,10.089,2.158,14.261-3.279,4.01-5.241,7.908-8.575,10.934-8.968A9.069,9.069,0,0,1,1240.1,1417.858Z" transform="translate(-1210.702 -1409.311)" fill="#ba451c"/>
      </g>
      <path id="Trazado_137117" data-name="Trazado 137117" d="M1224.546,1078.893c-.448.308-.871.616-1.294.953-5.156,4.176-11.964,4.2-15.1.981,0,0-3.7-1.373-5.686-7.006-1.039-2.914-14.124-53.076-13.874-74.683,7.261,3.9,22.781,5.913,30.576,4.26,7.255-1.513,17.232-8.94,22.388-13.087a68.976,68.976,0,0,1-1.681,7.118c-4.82,4.988-12.33,10.313-20.625,11.434-14.684,1.962-22.251,1.317-22.139,5.941s6.027,45.146,8.881,53.469c2.915,8.323,6.98,11.91,11.688,9.36,4.371-2.382,10.344-1.345,17.568-5.913C1233.539,1075.305,1228.968,1075.922,1224.546,1078.893Z" transform="translate(-1137.46 -851.857)" fill="#171c2b"/>
      <g id="Grupo_105825" data-name="Grupo 105825" transform="translate(64.313 17.252)">
        <path id="Trazado_137118" data-name="Trazado 137118" d="M1229.174,645.349c-.5-1.429-.591-6.165-.53-11.63.051-3.727-.255-7.791,1.06-11.405.031,0,7.821,2.774,8.692,9,.387,2.718.082,7.314.051,12.022C1233.352,646.386,1231.135,646.554,1229.174,645.349Z" transform="translate(-1228.627 -622.314)" fill="#e8b188"/>
        <path id="Trazado_137119" data-name="Trazado 137119" d="M1241.385,699.411a20.048,20.048,0,0,0-4.851.112l-.051-4.064-.112-5.465s-4.993.477-5.971-1.569a2.188,2.188,0,0,0-.113-.28c1.962,1.2,4.178,1.037,9.274-2.018C1239.535,691.031,1239.785,696.076,1241.385,699.411Z" transform="translate(-1229.74 -665.11)" fill="#ce9772"/>
      </g>
      <g id="Grupo_105826" data-name="Grupo 105826" transform="translate(59.647 145.571)">
        <path id="Trazado_137120" data-name="Trazado 137120" d="M1257.223,1011.922c-4.82,4.988-12.33,10.313-20.625,11.434-14.684,1.962-22.251,1.317-22.139,5.941s6.028,45.146,8.881,53.469c2.915,8.323,6.98,11.91,11.688,9.36,1.987-1.093,4.29-1.457,6.894-1.962-.672-11.714-7.984-23.68-6.078-47.08,2.548,17.6,7.561,39.99,9.64,42.792,2.1,2.8,6.1.953,6.1.953.336-.2.673-.393,1.009-.617a6.232,6.232,0,0,0,.423-1.121,9.876,9.876,0,0,0,.28-2.354c0-13.227-5.268-22.952-6.135-35.618C1246.63,1039.273,1253.468,1025.233,1257.223,1011.922Z" transform="translate(-1214.458 -1011.922)" fill="#292e3f"/>
        <path id="Trazado_137121" data-name="Trazado 137121" d="M1288.387,1149.329c-2.078-2.8-7.092-25.193-9.64-42.792-1.906,23.4,5.406,35.366,6.079,47.08a30.078,30.078,0,0,0,9.666-3.335S1290.486,1152.132,1288.387,1149.329Z" transform="translate(-1257.361 -1075.375)" fill="#171c2b"/>
      </g>
      <g id="Grupo_105827" data-name="Grupo 105827" transform="translate(47.154 63.154)">
        <path id="Trazado_137122" data-name="Trazado 137122" d="M1195.859,844.774c-7.454-2.326-11.8-4.063-11.658-10.033.137-6,10.313-30.07,10.313-30.07s5.717-26.314,6.028-32.115a22.235,22.235,0,0,0-2.64-10.873s.591,17.458-4.958,21.746a87.107,87.107,0,0,1-10.226,6.193c2.491,6.221,4.372,11.378,1.931,18.327-3.45,9.836-8.83,27.435-8.046,33.8.2,1.513,1.682,2.886,3.9,4.063,7.261,3.9,22.781,5.913,30.576,4.26,7.255-1.513,17.232-8.94,22.388-13.087a5.034,5.034,0,0,1,.418-.336C1219.791,847.492,1202.865,846.96,1195.859,844.774Z" transform="translate(-1176.527 -761.684)" fill="#ba451c"/>
      </g>
      <path id="Trazado_137123" data-name="Trazado 137123" d="M1044.076,789.545c-4.428-4.092-9.447-7.9-10.17-9.7-.76-1.766-.51-5.324-.51-5.324s7.765-7.034,9.166-6.586c1.432.476,7.485,4.315,7.485,4.315l-.031,3.475-1.009,6.781Z" transform="translate(-1033.357 -702.711)" fill="#e8b188"/>
      <path id="Trazado_137124" data-name="Trazado 137124" d="M1117.251,777.545c-3.333,2.747-29.817,15.1-31.774,15.974-1.743.756-11.128-4.6-18.974-10.2-.841,2.3-.672,4.54.306,5.325,2.048,1.6,15,9.276,18.108,10.733,2.068.981,14.236-4.652,23.652-9.752a87.114,87.114,0,0,0,10.226-6.193c5.549-4.288,4.958-21.746,4.958-21.746S1120.588,774.8,1117.251,777.545Z" transform="translate(-1055.223 -698.53)" fill="#ba451c"/>
    </g>
    <g id="Grupo_105831" data-name="Grupo 105831" transform="translate(716.647 369.227)">
      <path id="Trazado_137125" data-name="Trazado 137125" d="M800.891,1140.012c4.035,6.025,16.06,12.975,16.926,13.872.448.5.9.953,1.2,1.345a2.5,2.5,0,0,1,.591.841c0,.308-2.323,4.652-3.138,4.708s-10.929-1.345-12.667-1.682c-1.738-.364-7.679-4.568-7.679-4.568s-6.445-1.233-9.217-2.074-5.829-4.512-5.829-4.512.362-3.026.561-5.521a2.906,2.906,0,0,1-.759-1.6c-.056-.449-.112-1.317-.2-2.466-1.62.14-3.251.337-4.845.589l-1.121,17.823a6.86,6.86,0,0,1-.9,1.737l3.837,16.029.143.589s.479,5.577.168,5.8-5.518,2.606-6.639,2.522c-1.121-.056-10.9-3.419-12.249-4.4-1.065-.785-.841-12.891-.673-18.1a3.646,3.646,0,0,1-2.074-2.382c-.2-1.4-.392-6.53-.5-13.171-.785.448-1.569.869-2.354,1.345-17.431,10.817-16.845,27.519,1.314,37.3,18.134,9.78,46.968,8.912,64.4-1.905s16.84-27.519-1.294-37.3A56.577,56.577,0,0,0,801,1139.2v.616A2.1,2.1,0,0,0,800.891,1140.012Z" transform="translate(-740.777 -885.041)" fill="#b3b3b3" style="mix-blend-mode: multiply;isolation: isolate"/>
      <path id="Trazado_137126" data-name="Trazado 137126" d="M816.907,1201.946a11.84,11.84,0,0,1-4.235,1.317,15.856,15.856,0,0,1-3.638.084c.194,3.755.7,11.574,1.172,13.059.591,1.822,3.9,4.652,6.644,5.156,2.772.532,5.075-2.046,5.437-2.13.28-.084.841-2.438,1.146-3.867l-3.837-16.029A7.9,7.9,0,0,1,816.907,1201.946Z" transform="translate(-786.554 -926.069)" fill="#333"/>
      <path id="Trazado_137127" data-name="Trazado 137127" d="M911.062,1157.279c1.656.757,6.9,2.13,8.02,2.522.866.28,3.164-.729,4.2-1.205-.306-.392-.754-.841-1.2-1.345-.866-.9-12.891-7.847-16.926-13.872a9.058,9.058,0,0,1-4.708,4.064,14.171,14.171,0,0,1-4.2,1.009c1.738.365,3.5.617,4.316.9C902.518,1149.992,909.411,1156.522,911.062,1157.279Z" transform="translate(-845.037 -888.407)" fill="#333"/>
      <path id="Trazado_137128" data-name="Trazado 137128" d="M806.684,1226.527c-2.746-.5-6.053-3.335-6.644-5.156-.474-1.485-.978-9.3-1.172-13.059a13.031,13.031,0,0,1-4.85-1.373c-.168,5.213-.393,17.318.672,18.1,1.345.981,11.128,4.344,12.249,4.4,1.121.084,6.328-2.3,6.639-2.522s-.168-5.8-.168-5.8l-.143-.589c-.306,1.429-.866,3.783-1.146,3.867C811.759,1224.482,809.456,1227.06,806.684,1226.527Z" transform="translate(-776.386 -931.033)" fill="#1a1a1a"/>
      <path id="Trazado_137129" data-name="Trazado 137129" d="M868.979,1160.73c2.772.84,9.217,2.074,9.217,2.074s5.941,4.2,7.679,4.568c1.737.337,11.851,1.738,12.667,1.682s3.138-4.4,3.138-4.708a2.5,2.5,0,0,0-.591-.841c-1.034.476-3.332,1.485-4.2,1.2-1.121-.392-6.364-1.766-8.02-2.522s-8.544-7.286-10.506-7.931c-.815-.28-2.578-.532-4.316-.9-4.234.421-8.575-.728-10.338-2.662-.2,2.494-.561,5.521-.561,5.521S866.2,1159.889,868.979,1160.73Z" transform="translate(-822.846 -893.315)" fill="#1a1a1a"/>
      <path id="Trazado_137130" data-name="Trazado 137130" d="M786.691,1000.787a3.646,3.646,0,0,0,2.074,2.382,13.031,13.031,0,0,0,4.85,1.373,15.859,15.859,0,0,0,3.638-.084,6.184,6.184,0,0,1-4.758-4.484,10.668,10.668,0,0,1-.311-1.289c-.759-4.568-1.457-40.69,1.258-51.984,2.751-11.265,2.272-13.283,2.1-19.2-.112-3.727-1.208-15.917-1.992-24.409-1.483.448-4.566,1.373-7.088,1.85.7,11.349,1.457,23.4,1.656,26.146.361,5.493-.311,7.034-1.407,14.8-.754,5.352-.785,27.154-.53,41.727C786.3,994.257,786.492,999.386,786.691,1000.787Z" transform="translate(-771.134 -727.264)" fill="#171d2d"/>
      <path id="Trazado_137131" data-name="Trazado 137131" d="M838.424,453.18a34.6,34.6,0,0,0,2.3-8.183,13.959,13.959,0,0,0,2.1.084c4.764-.168,4.876-3.419,5.187-4.68a18.282,18.282,0,0,0,.336-2.046c.7-5.408,2.069-19.728.275-25.95-5.574,4.12-18.8,4.6-18.8,4.6.082,2.55-2.242,3.84-2.186,5.745.086,1.934.7,7.483.249,8.1s-1.62-.056-1.906-.252c-.249-.2-.586-5.212-2.4-6.081-1.794-.869-1.794,2.914-1.182,6.221.591,3.307.087,4.428.087,4.428a25.233,25.233,0,0,1,.25,6.389,25.764,25.764,0,0,1-.362,2.746C822.314,449.285,838.424,453.18,838.424,453.18Z" transform="translate(-795.267 -398.185)" fill="#e8b188"/>
      <path id="Trazado_137132" data-name="Trazado 137132" d="M807.111,401.776c-.612-3.307-.612-7.09,1.182-6.221,1.819.868,2.155,5.885,2.4,6.081.286.2,1.457.869,1.906.252s-.163-6.165-.249-8.1c-.056-1.905,2.267-3.195,2.186-5.745,0,0,13.227-.476,18.8-4.6a5.681,5.681,0,0,0,2.354-3.167c-3.444.729-2.884-7.875-15.184-10.537s-18.974,5.661-18.271,8.575c0,0-3.088,2.522-3,8.631S802.8,400.486,807.2,406.2C807.2,406.2,807.7,405.082,807.111,401.776Z" transform="translate(-779.983 -369.227)" fill="#311b0b"/>
      <path id="Trazado_137133" data-name="Trazado 137133" d="M833.527,548.536l.086.112.7.813s.056-.421.168-1.149c.337-3.055-.336-15.021-1.539-21.83-.51-2.438-1.07-4.848-1.656-7.146-.2-.785-.393-1.541-.586-2.242a.485.485,0,0,1-.061-.2c-.418-1.485-.81-2.915-1.233-4.26a.771.771,0,0,0-.051-.2c-.4-1.289-.785-2.494-1.121-3.587a2.174,2.174,0,0,1-.087-.281c-.362-1.037-.7-1.962-.983-2.8a1.042,1.042,0,0,1-.112-.28c-.137-.393-.275-.757-.418-1.065a13.959,13.959,0,0,1-2.1-.084,34.606,34.606,0,0,1-2.3,8.183s-16.111-3.9-16.055-8.883a25.744,25.744,0,0,0,.362-2.746c-4.6.645-8.657,7.763-8.657,7.763l14.18,14.768Z" transform="translate(-779.073 -457.53)" fill="#f3feff"/>
      <g id="Grupo_105829" data-name="Grupo 105829" transform="translate(20.367 154.564)">
        <path id="Trazado_137134" data-name="Trazado 137134" d="M885.389,847.709c-1.406,1.485-3.587,23.736-5.691,35.814-2.074,12.078-2.94,45.482-2.155,51.592a7.866,7.866,0,0,0,1.147,3.391c1.681,2.438,4.876,2.438,9.023,4.484a9.059,9.059,0,0,0,4.708-4.064,2.111,2.111,0,0,1,.112-.2v-.616c0-4.82.112-37.635.28-44.781.138-5.913,2.074-39.233,2.971-54.814C892.451,842.973,886.561,846.476,885.389,847.709Z" transform="translate(-852.673 -838.517)" fill="#292e3f"/>
        <path id="Trazado_137135" data-name="Trazado 137135" d="M821.626,882.189a28.192,28.192,0,0,1-13.645-.449,42.447,42.447,0,0,0-2.415,11.154,1.118,1.118,0,0,1-.448.9c.7,7.679,1.457,16.366,1.544,19.392.168,5.913.647,7.931-2.1,19.2-2.716,11.294-2.018,47.416-1.258,51.984a10.667,10.667,0,0,0,.311,1.289,6.184,6.184,0,0,0,4.759,4.484,11.838,11.838,0,0,0,4.235-1.317,7.9,7.9,0,0,0,2.69-2.41,6.859,6.859,0,0,0,.9-1.737l1.121-17.823,3.225-52.236s.025.252.025.7C821.121,910.8,823.338,891.465,821.626,882.189Z" transform="translate(-802.616 -867.504)" fill="#292e3f"/>
      </g>
      <g id="Grupo_105830" data-name="Grupo 105830" transform="translate(4.795 76.989)">
        <path id="Trazado_137136" data-name="Trazado 137136" d="M767.753,681.987c0,.028.163-.084.163-.084-.25-8.407,12.616-28.024,11.831-38.224-.785-10.173-15.78-40.158-17.966-40.69-1.4-.336-3.531,17.963-4.932,31.527-1.009,7.286-1.457,13.423-1.513,15.189-.112,3.923,11.632,39.065,11.632,39.065.137-.112.306-.224.474-.336.168-.14.311-.252.423-.365a9.829,9.829,0,0,0,.112-3.811C767.916,683.585,767.835,682.8,767.753,681.987ZM757.3,631.4c.056-.224.056-.448.112-.645C757.354,630.956,757.354,631.181,757.3,631.4Zm.617-3.755v0Zm.617-3.251c.056-.252.081-.5.143-.757C758.612,623.895,758.587,624.146,758.531,624.4Zm5.268,34.469c-1.264-6.389-2.3-11.293-2.3-11.293l1.034-5.661a44.856,44.856,0,0,1,2.191,7.314A46.245,46.245,0,0,1,763.8,658.868Zm2.69,14.656c.056.28.112.56.143.841C766.6,674.084,766.546,673.8,766.49,673.524Zm-.418-2.438c.081.56.194,1.121.306,1.681C766.266,672.207,766.153,671.646,766.072,671.086Zm1.539,9.808c0-.056-.031-.084-.031-.112C767.58,680.81,767.611,680.838,767.611,680.894Zm-.729-5.016c-.056-.2-.056-.364-.112-.56C766.826,675.514,766.826,675.682,766.882,675.878Z" transform="translate(-755.336 -602.984)" fill="#171d2d"/>
      </g>
      <path id="Trazado_137137" data-name="Trazado 137137" d="M798.274,538.674c1.793,3.643,21.721,33.516,22.113,33.852.367.365,6.471-1.793,6.644-1.513s-3.138,3.531-3.113,4.091c0,.561,10.623,7.623,10.623,7.623l-14.633-6.5S797.663,542.541,798.274,538.674Z" transform="translate(-779.329 -482.865)" fill="#171d2d"/>
      <path id="Trazado_137138" data-name="Trazado 137138" d="M917.108,625.036c-1.824.925-3.169,1.121-3.251,1.71s3.077.336,3.332,1.6Z" transform="translate(-856.851 -540.784)" fill="#171d2d"/>
      <path id="Trazado_137139" data-name="Trazado 137139" d="M865.893,543.1s-4.484,4.848-4.372,5.857c.086,1.037,3.9.281,3.786,1.149-.143.9,3.164,17.683,3.164,17.683l8.942,10.957s-.087-13.48-.479-15.441c-.367-1.99-6.053-14.6-6.781-14.572-.7,0,1.345-2.719.586-3.447C869.985,544.527,865.893,543.1,865.893,543.1Z" transform="translate(-821.752 -485.832)" fill="#f15a24"/>
    </g>
    <g id="Grupo_105857" data-name="Grupo 105857" transform="translate(704.797 535.756)">
      <g id="Grupo_105836" data-name="Grupo 105836" transform="translate(1.513 0)">
        <g id="Grupo_105835" data-name="Grupo 105835" style="isolation: isolate">
          <g id="Grupo_105832" data-name="Grupo 105832" transform="translate(0 3.896)">
            <path id="Trazado_137140" data-name="Trazado 137140" d="M754.815,949.756l-45.423-23.54.138-39.541,45.459,23.54Z" transform="translate(-709.392 -886.676)" fill="#ba451c"/>
          </g>
          <g id="Grupo_105833" data-name="Grupo 105833" transform="translate(0.138)">
            <path id="Trazado_137141" data-name="Trazado 137141" d="M755.269,902.283l-45.459-23.54,6.028-3.9,45.454,23.54Z" transform="translate(-709.81 -874.848)" fill="#ba451c"/>
          </g>
          <g id="Grupo_105834" data-name="Grupo 105834" transform="translate(45.423 23.54)">
            <path id="Trazado_137142" data-name="Trazado 137142" d="M853.5,946.32l4.117,36.795-6.889,1.962-3.424,4.68.173-39.541Z" transform="translate(-847.308 -946.32)" fill="#813013"/>
          </g>
        </g>
      </g>
      <path id="Trazado_137143" data-name="Trazado 137143" d="M751.907,910.215l-3.169,20.905-25.726-6.333L704.8,908.9l1.651-22.223Z" transform="translate(-704.797 -882.78)" fill="#f15a24"/>
      <g id="Grupo_105841" data-name="Grupo 105841" transform="translate(14.628 34.385)">
        <g id="Grupo_105840" data-name="Grupo 105840" style="isolation: isolate">
          <g id="Grupo_105837" data-name="Grupo 105837" transform="translate(6.95 3.559)">
            <path id="Trazado_137144" data-name="Trazado 137144" d="M770.314,990.9l1.289-.841.336,7.734-1.289.841Z" transform="translate(-770.314 -990.055)" fill="#7e581e"/>
          </g>
          <g id="Grupo_105838" data-name="Grupo 105838">
            <path id="Trazado_137145" data-name="Trazado 137145" d="M749.212,980.089l1.289-.841,6.95,3.559-1.289.841Z" transform="translate(-749.212 -979.248)" fill="#a87627"/>
          </g>
          <g id="Grupo_105839" data-name="Grupo 105839" transform="translate(0 0.841)">
            <path id="Trazado_137146" data-name="Trazado 137146" d="M756.162,985.36l.336,7.734-6.95-3.559-.336-7.735Z" transform="translate(-749.212 -981.801)" fill="#e29e35"/>
          </g>
        </g>
      </g>
      <g id="Grupo_105856" data-name="Grupo 105856" transform="translate(18.492 5.453)">
        <g id="Grupo_105855" data-name="Grupo 105855" style="isolation: isolate">
          <g id="Grupo_105842" data-name="Grupo 105842" transform="translate(1.068 1.805)">
            <path id="Trazado_137147" data-name="Trazado 137147" d="M764.187,898.174l1.992-1.289.138,2.774-2.018,1.289Z" transform="translate(-764.187 -896.885)" fill="#202331"/>
          </g>
          <g id="Grupo_105845" data-name="Grupo 105845" transform="translate(1.068 1.357)" style="isolation: isolate">
            <g id="Grupo_105844" data-name="Grupo 105844" clip-path="url(#clip-path)">
              <g id="Grupo_105843" data-name="Grupo 105843" transform="translate(0)" style="isolation: isolate">
                <path id="Trazado_137148" data-name="Trazado 137148" d="M764.355,896.813l2.018-1.289a.309.309,0,0,0-.168.28l-2.018,1.317a.621.621,0,0,1,.168-.308Z" transform="translate(-764.187 -895.524)" fill="#191c26"/>
                <path id="Trazado_137149" data-name="Trazado 137149" d="M764.187,897.692l2.018-1.317a.384.384,0,0,0-.026.168l-1.992,1.289v-.14Z" transform="translate(-764.187 -896.095)" fill="#1d202c"/>
                <path id="Trazado_137150" data-name="Trazado 137150" d="M764.187,898.174l1.992-1.289-1.992,1.289Z" transform="translate(-764.187 -896.437)" fill="#212532"/>
              </g>
            </g>
          </g>
          <g id="Grupo_105848" data-name="Grupo 105848" transform="translate(0.452)" style="isolation: isolate">
            <g id="Grupo_105847" data-name="Grupo 105847" clip-path="url(#clip-path-2)">
              <g id="Grupo_105846" data-name="Grupo 105846" transform="translate(0 0.005)" style="isolation: isolate">
                <path id="Trazado_137152" data-name="Trazado 137152" d="M762.316,892.855l1.987-1.289a.681.681,0,0,1,.535-.14l-2.018,1.289a.819.819,0,0,0-.5.14Z" transform="translate(-762.316 -891.419)" fill="#191c26"/>
                <path id="Trazado_137153" data-name="Trazado 137153" d="M763.847,892.729l2.018-1.289a.875.875,0,0,1,.362.056l-1.987,1.289a1.029,1.029,0,0,0-.392-.056Z" transform="translate(-763.343 -891.433)" fill="#1d202c"/>
                <path id="Trazado_137154" data-name="Trazado 137154" d="M765.038,892.9l1.987-1.289a1.721,1.721,0,0,1,.336.14l-1.987,1.289a1.719,1.719,0,0,0-.336-.14Z" transform="translate(-764.142 -891.547)" fill="#212532"/>
              </g>
            </g>
          </g>
          <g id="Grupo_105849" data-name="Grupo 105849" transform="translate(12.14 7.522)">
            <path id="Trazado_137156" data-name="Trazado 137156" d="M797.8,915.532l1.987-1.289.143,2.774-1.992,1.289Z" transform="translate(-797.804 -914.243)" fill="#202331"/>
          </g>
          <g id="Grupo_105850" data-name="Grupo 105850" transform="translate(1.685 0.208)">
            <path id="Trazado_137157" data-name="Trazado 137157" d="M766.059,893.324l1.987-1.289,8.606,4.4-2.018,1.317Z" transform="translate(-766.059 -892.035)" fill="#232836"/>
          </g>
          <g id="Grupo_105853" data-name="Grupo 105853" transform="translate(10.26 4.608)" style="isolation: isolate">
            <g id="Grupo_105852" data-name="Grupo 105852" clip-path="url(#clip-path-3)">
              <g id="Grupo_105851" data-name="Grupo 105851" style="isolation: isolate">
                <path id="Trazado_137158" data-name="Trazado 137158" d="M792.095,906.712l2.018-1.317c.025.028-1.962,1.317-1.962,1.317Z" transform="translate(-792.095 -905.395)" fill="#212532"/>
                <path id="Trazado_137159" data-name="Trazado 137159" d="M792.266,906.768l1.987-1.289a1.436,1.436,0,0,1,.367.252l-1.987,1.289a1.444,1.444,0,0,0-.367-.252Z" transform="translate(-792.21 -905.451)" fill="#252939"/>
                <path id="Trazado_137160" data-name="Trazado 137160" d="M793.379,907.534l1.987-1.289a1.426,1.426,0,0,1,.393.336l-1.992,1.289a4.144,4.144,0,0,0-.387-.337Z" transform="translate(-792.956 -905.965)" fill="#292e3f"/>
                <path id="Trazado_137161" data-name="Trazado 137161" d="M794.555,908.555l1.992-1.289a4.357,4.357,0,0,1,.729,1.009l-2.018,1.289a4.115,4.115,0,0,0-.7-1.009Z" transform="translate(-793.745 -906.65)" fill="#626673"/>
                <path id="Trazado_137162" data-name="Trazado 137162" d="M796.69,911.618l2.018-1.289q.085.21.168.421l-1.992,1.289a2.573,2.573,0,0,0-.194-.421Z" transform="translate(-795.177 -908.704)" fill="#292e3f"/>
                <path id="Trazado_137163" data-name="Trazado 137163" d="M797.278,912.9l1.992-1.289a2.13,2.13,0,0,1,.112.42l-1.992,1.317a2.064,2.064,0,0,0-.112-.448Z" transform="translate(-795.571 -909.56)" fill="#252939"/>
                <path id="Trazado_137164" data-name="Trazado 137164" d="M797.618,914.2l1.992-1.317a1.311,1.311,0,0,1,.056.448l-1.987,1.289a2,2,0,0,0-.061-.42Z" transform="translate(-795.799 -910.416)" fill="#212532"/>
              </g>
            </g>
          </g>
          <g id="Grupo_105854" data-name="Grupo 105854" transform="translate(0 1.296)">
            <path id="Trazado_137166" data-name="Trazado 137166" d="M771.2,899.967a3.729,3.729,0,0,1,1.88,2.886l.138,2.775-1.1-.56-.112-2.775a1.546,1.546,0,0,0-.723-1.149l-8.606-4.428c-.392-.2-.7,0-.672.42l.112,2.775-1.065-.532-.112-2.775c-.056-1.093.7-1.569,1.682-1.065Z" transform="translate(-760.944 -895.338)" fill="#161922"/>
          </g>
        </g>
      </g>
      <path id="Trazado_137167" data-name="Trazado 137167" d="M838.212,978.882l2.018-1.4,2.634-19.588-1.483.084Z" transform="translate(-794.271 -930.541)" fill="#813013"/>
    </g>
    <path id="Trazado_137168" data-name="Trazado 137168" d="M773.814,867.562l-4.626-9.22L767,860.276a9.383,9.383,0,0,1-2.186.953c-.056.028-.082.028-.112.056a7.32,7.32,0,0,1-1.121.252.167.167,0,0,1-.112.028c-.393.084-.785.168-1.233.224-.5.056-.952.084-1.426.112a.7.7,0,0,0-.255.028c-.5,0-1.009.028-1.513,0h-.28c-.561-.028-1.152-.056-1.763-.112a1.9,1.9,0,0,0,.082.252c.255.813-1.793,3.363-.785,6.081,1.177,3.139,1.233,5.549,2.13,6.025.591.28,5.574,3.166,7.23,2.831,1.065-.2,1.177-1.681,1.768-2.55.53-.757,1.538-.9,1.707-1.373,2.354,1.121,2.217,2.438,2.217,2.438l2.466-4.96A3.425,3.425,0,0,0,773.814,867.562Z" transform="translate(-34.349 -328.022)" fill="#e8b188"/>
    <path id="Trazado_137169" data-name="Trazado 137169" d="M933.748,556.043c-2.548-3.923-16-37.047-16-37.047S914.554,505.6,914.3,507.31c-.112.785-.535,2.746-.983,4.708l2.018,3.5.922,11.013a97.637,97.637,0,0,0-4.036-9.7c-.163-.281-.249-.225-.193.252.617,4.6,4.035,36.374,3.332,39.849-.673,3.447,1.6,44.193-2.966,57.728a38.125,38.125,0,0,0,6.838-6l.336-.392a30.642,30.642,0,0,0,2.268-2.97c.168-2.97-.474-27.127-1.707-39.877a78.906,78.906,0,0,1-.2-9.024c2.155,4.148,6.109,11.658,7.454,13.423,1.625,2.074,18.72,21.858,20.569,22.811,1.819.953,4.988.112,7.536-1.569C948.743,582.245,935.8,559.21,933.748,556.043Z" transform="translate(-138.97 -92.504)" fill="#171d2d"/>
    <path id="Trazado_137170" data-name="Trazado 137170" d="M758.138,861.928c5.442,1.738,11.969-.2,13.737-2.662l-1.345-3.307a25.194,25.194,0,0,1-12.392,2.466Z" transform="translate(-35.773 -326.424)" fill="#f3feff"/>
    <path id="Trazado_137171" data-name="Trazado 137171" d="M981.4,721.885c-1.849,2.606-2.436,1.569-3.811,0s-18.465-24.016-18.465-24.016l11.8,2.494Z" transform="translate(-170.564 -220.402)" fill="#171d2d"/>
    <path id="Trazado_137172" data-name="Trazado 137172" d="M1030.245,741.377l-1.987-3.475c-1.151-1.962-4.6-2.1-7.709-.309-3.138,1.822-4.734,4.848-3.613,6.838.051.084.138.14.163.2,0,.028,1.855,3.279,1.855,3.279,1.147,1.962,4.6,2.1,7.7.308C1029.8,746.421,1031.4,743.367,1030.245,741.377Z" transform="translate(-209.094 -246.199)" fill="#f3feff"/>
    <path id="Trazado_137173" data-name="Trazado 137173" d="M1024.55,755.823c.9-3.531,8.046-6.95,10.114-5.577,2.048,1.373,6.644,3.811,7.149,4.6.535.813-.586,3.559-.586,3.559s2.66,3.867,2.8,4.091a31.07,31.07,0,0,1,0,5.072c-.143.673-4.708,2.886-4.708,2.886s-8.1-2.214-8.968-2.662C1029.457,767.368,1024.55,755.823,1024.55,755.823Z" transform="translate(-214.44 -255.32)" fill="#e8b188"/>
    <g id="Grupo_105858" data-name="Grupo 105858" transform="translate(824.29 479.372)">
      <path id="Trazado_137174" data-name="Trazado 137174" d="M1155.99,745.308c-3.561,3.475-9.192,5.493-13.65,3.223-7.113-3.615-5.207-12.134-8.713-15.917a24.086,24.086,0,0,0-12.3,2.438,18.153,18.153,0,0,0-1.88,1.121c-5.549,3.082-34.413,25.053-34.413,25.053l-10.511-3.306a9.018,9.018,0,0,0-6.919,5.857c7.847,5.6,17.232,10.957,18.974,10.2,1.957-.869,28.442-13.227,31.774-15.973s6.5-15.861,6.5-15.861a22.234,22.234,0,0,1,2.639,10.873c-.311,5.8-6.027,32.115-6.027,32.115s-10.175,24.073-10.313,30.07c-.138,5.969,4.2,7.706,11.658,10.032,7.006,2.186,23.932,2.718,38.025-8.127,1.682-1.373,2.777-2.326,2.915-2.466,0-1.653-.138-3.223-.275-4.736-1.63-10.145-13.93-30.8-13.93-38.168C1149.545,766.157,1153.636,752.65,1155.99,745.308Z" transform="translate(-1067.604 -723.029)" fill="#f15a24"/>
      <path id="Trazado_137175" data-name="Trazado 137175" d="M1349.451,712.258a78.424,78.424,0,0,0-2.466-8.6c-.25,7.09-.836,12.919-.754,15.1a5.758,5.758,0,0,1-.056.981l3.337-2.382A14.612,14.612,0,0,0,1349.451,712.258Z" transform="translate(-1254.426 -703.655)" fill="#ba451c"/>
      <path id="Trazado_137176" data-name="Trazado 137176" d="M1329.541,745.262l-3.337,2.382a8.675,8.675,0,0,1-.9,2.886,12.984,12.984,0,0,1-2.466,3.307c-2.354,7.342-6.445,20.85-6.445,26.426,0,7.37,12.3,28.024,13.93,38.168-1.544-15.357-8.886-23.512-10.374-33.376C1318.555,775.864,1328.053,756.416,1329.541,745.262Z" transform="translate(-1234.454 -731.558)" fill="#ba451c"/>
    </g>
  </g>
</svg>
