<svg xmlns="http://www.w3.org/2000/svg" width="1030" height="539.956" viewBox="0 0 1030 539.956">
  <g id="Grupo_117129" data-name="Grupo 117129" transform="translate(-285 -3763)">
    <g id="Grupo_105730" data-name="Grupo 105730" transform="translate(827.054 3850.926)">
      <path id="Trazado_136896" data-name="Trazado 136896" d="M2141.047,118.853c.09-3.942-43.661-10.965-43.738,41.654,0,18.4,9.025,23.6,9.025,23.6s-2.083,42,41.307,29.158l15.968-27.423Z" transform="translate(-1953.348 -100.282)" fill="#07284b"/>
      <path id="Trazado_136897" data-name="Trazado 136897" d="M2200,298.025c1.042.694,18.051,40.266,18.051,40.266l31.24-11.108-13.885-40.96Z" transform="translate(-2026.016 -220.618)" fill="#fff"/>
      <path id="Trazado_136898" data-name="Trazado 136898" d="M2215.758,336.944a.947.947,0,0,1-.872-.574c-6.535-15.2-16.633-38.287-17.836-39.956a.949.949,0,0,1,.357-1.584l35.406-11.8a.949.949,0,0,1,1.2.6l13.884,40.96a.949.949,0,0,1-.581,1.2l-31.241,11.107A.941.941,0,0,1,2215.758,336.944Zm-16.631-40.688c1.006,1.9,3.269,6.741,8.865,19.485,3.613,8.229,7.177,16.487,8.286,19.062l29.522-10.5-13.281-39.18Zm-1.947.262h0Z" transform="translate(-2023.72 -218.322)" fill="#07284b"/>
      <path id="Trazado_136899" data-name="Trazado 136899" d="M1916.855,490.506s43.259-11.934,69.759-49.354a60.443,60.443,0,0,1,17.239-16.388l13.667-8.541-10.067,59.358-68.382,32.629Z" transform="translate(-1825.655 -312.607)" fill="#dee8e9"/>
      <path id="Trazado_136900" data-name="Trazado 136900" d="M1936.774,506.863a.949.949,0,0,1-.591-.207l-22.216-17.7a.949.949,0,0,1,.339-1.657,132.349,132.349,0,0,0,24.79-10.59c12.786-6.94,30.876-19.234,44.447-38.4a61.1,61.1,0,0,1,17.51-16.644l13.666-8.542a.949.949,0,0,1,1.438.964l-10.066,59.357a.95.95,0,0,1-.527.7l-68.382,32.629A.94.94,0,0,1,1936.774,506.863Zm-20.217-18.273L1936.9,504.8l67.4-32.162,9.631-56.789-11.875,7.422a59.215,59.215,0,0,0-16.968,16.132c-13.794,19.479-32.161,31.957-45.139,39A142.287,142.287,0,0,1,1916.557,488.59Z" transform="translate(-1823.359 -310.312)" fill="#07284b"/>
      <path id="Trazado_136901" data-name="Trazado 136901" d="M2154.9,406.6l-15.383,30.528s-9.276,16.484-14.291,25.819a13.647,13.647,0,0,0,.079,13.061h0a44.552,44.552,0,0,1,4.78,13.258l7.35,38.808,71.507,1.042s-8.706-69.647-5.813-108.89a25.448,25.448,0,0,0-5.017-17.331C2188.586,390.409,2173.346,392.782,2154.9,406.6Z" transform="translate(-1971.955 -297.415)" fill="#fff"/>
      <path id="Trazado_136902" data-name="Trazado 136902" d="M2206.629,527.813h-.014l-71.507-1.041a.948.948,0,0,1-.918-.772l-7.35-38.808a43.522,43.522,0,0,0-4.678-12.975,14.541,14.541,0,0,1-.084-13.969c4.886-9.095,13.927-25.17,14.29-25.816l15.372-30.509a.944.944,0,0,1,.279-.332c19.655-14.729,35.054-15.947,44.534-3.523a26.36,26.36,0,0,1,5.209,17.976c-2.853,38.7,5.721,108.007,5.808,108.7a.948.948,0,0,1-.941,1.066Zm-70.718-2.927,69.645,1.014c-1.081-9.005-8.356-71.776-5.686-108a24.464,24.464,0,0,0-4.825-16.685c-4.435-5.813-10.293-8.383-17.41-7.644-6.956.723-15.13,4.558-24.3,11.4l-15.282,30.329c-.007.013-.013.026-.021.038-.092.165-9.329,16.583-14.282,25.8a12.651,12.651,0,0,0,.073,12.153,45.434,45.434,0,0,1,4.882,13.54Zm1.294-90.008h0Z" transform="translate(-1969.64 -295.163)" fill="#07284b"/>
      <path id="Trazado_136903" data-name="Trazado 136903" d="M2195.753,423.966l-17.842,37.852a2.024,2.024,0,0,0,.617,2.481l3.393,2.545a2.023,2.023,0,0,0,3.148-1.026l12.7-41.461Z" transform="translate(-2010.247 -318.087)" fill="#529d2e"/>
      <path id="Trazado_136904" data-name="Trazado 136904" d="M2180.846,465.9a2.975,2.975,0,0,1-1.784-.594l-3.393-2.545a2.982,2.982,0,0,1-.9-3.645l17.841-37.853a.949.949,0,0,1,1.039-.527l2.018.392a.949.949,0,0,1,.726,1.21l-12.7,41.46a2.972,2.972,0,0,1-2.84,2.1Zm13.161-43.16-17.527,37.185a1.078,1.078,0,0,0,.327,1.318l3.393,2.545a1.075,1.075,0,0,0,1.672-.545l12.393-40.453Z" transform="translate(-2007.956 -315.789)" fill="#07284b"/>
      <path id="Trazado_136905" data-name="Trazado 136905" d="M2210.492,416.252l-13.93,38.014a2.268,2.268,0,0,0,1.547,2.971L2209,460.13a2.267,2.267,0,0,0,2.848-2.109l1.462-40.273Z" transform="translate(-2023.482 -312.628)" fill="#529d2e"/>
      <path id="Trazado_136906" data-name="Trazado 136906" d="M2207.295,458.859a3.223,3.223,0,0,1-.831-.109l-10.892-2.893a3.216,3.216,0,0,1-2.194-4.215l13.93-38.013a.948.948,0,0,1,1.335-.511l2.818,1.5a.947.947,0,0,1,.5.872l-1.461,40.273a3.219,3.219,0,0,1-3.209,3.1Zm1.42-43.556L2195.159,452.3a1.318,1.318,0,0,0,.9,1.728l10.893,2.893a1.32,1.32,0,0,0,1.656-1.227l1.44-39.68Z" transform="translate(-2021.189 -310.332)" fill="#07284b"/>
      <path id="Trazado_136907" data-name="Trazado 136907" d="M2232.933,391.758s0,4.26,23.807-2.506l5.263,4.762s-25.885,15.186-29.858,8.22C2231.178,393.513,2232.933,391.758,2232.933,391.758Z" transform="translate(-2048.554 -293.523)" fill="#529d2e"/>
      <path id="Trazado_136908" data-name="Trazado 136908" d="M2234,402.706a8.373,8.373,0,0,1-2.152-.251,4.385,4.385,0,0,1-2.82-2.048.948.948,0,0,1-.118-.366c-.967-8.731.713-10.9,1.06-11.25a.949.949,0,0,1,1.595.454c.275.259,3.222,2.312,22.624-3.2a.95.95,0,0,1,.9.209l5.263,4.762a.949.949,0,0,1-.157,1.522C2259.418,392.986,2242.743,402.7,2234,402.706Zm-3.228-3.086a2.612,2.612,0,0,0,1.565,1c5.458,1.456,19.511-5.54,25.77-9.076l-3.906-3.534c-8.813,2.481-19.6,4.891-23.256,3.079C2230.6,392.309,2230.255,394.826,2230.767,399.621Zm.818-10.161v0Zm0,0h0Zm0,0h0Z" transform="translate(-2046.258 -291.227)" fill="#07284b"/>
      <path id="Trazado_136909" data-name="Trazado 136909" d="M1608.18,638.835s4.86,9.719,26.034,11.108c0,0,10.413,0,15.273,7.289l44.084-16.662a97.327,97.327,0,0,0-31.935-5.9C1642.2,637.794,1613.387,639.182,1608.18,638.835Z" transform="translate(-1607.232 -467.185)" fill="#fff"/>
      <path id="Trazado_136910" data-name="Trazado 136910" d="M1647.191,655.884a.949.949,0,0,1-.789-.423c-4.526-6.788-14.385-6.867-14.484-6.867l-.062,0c-21.471-1.408-26.612-11.214-26.82-11.63a.949.949,0,0,1,.912-1.371c5.453.363,34.381-1.125,53.243-4.155a1.262,1.262,0,0,1,.168-.012,99.316,99.316,0,0,1,32.277,5.972.949.949,0,0,1-.025,1.765l-44.084,16.662A.944.944,0,0,1,1647.191,655.884Zm-15.24-9.187c.763.005,10.463.21,15.592,7.091l41-15.494a100.814,100.814,0,0,0-29.131-4.971,419.419,419.419,0,0,1-51.629,4.216C1610.075,640.189,1616.623,645.686,1631.951,646.7Z" transform="translate(-1604.935 -464.888)" fill="#07284b"/>
      <path id="Trazado_136911" data-name="Trazado 136911" d="M1813.675,673.944l-64.217-2.43,44.084-16.662Z" transform="translate(-1707.202 -481.466)" fill="#dee8e9"/>
      <path id="Trazado_136912" data-name="Trazado 136912" d="M1811.379,672.6h-.036l-64.217-2.43a.949.949,0,0,1-.3-1.836l44.084-16.662a.948.948,0,0,1,.988.2l20.133,19.092a.949.949,0,0,1-.653,1.637Zm-59.494-4.149L1808.9,670.6l-17.875-16.951Z" transform="translate(-1704.906 -479.169)" fill="#07284b"/>
      <path id="Trazado_136913" data-name="Trazado 136913" d="M1832.048,695.917l3.269,1.853-15.069-.57,3.07,4.726a14.787,14.787,0,0,0,8.168,6.113l21.174,4.345,12.5,2.083,25.687,10.066,7.289-17.356-32.629-4.513-10.931-4.166-4.342-.346-15.2-7.764a3.14,3.14,0,0,0-2.307-.218h0A3.14,3.14,0,0,0,1832.048,695.917Z" transform="translate(-1757.294 -506.369)" fill="#fff"/>
      <path id="Trazado_136914" data-name="Trazado 136914" d="M1888.546,723.184a.935.935,0,0,1-.346-.066l-25.594-10.03-12.4-2.067L1829,706.67c-.027-.006-.054-.013-.081-.02a15.755,15.755,0,0,1-8.692-6.505l-3.07-4.726a.948.948,0,0,1-.03-.985.959.959,0,0,1,.861-.48l11.182.423a4.089,4.089,0,0,1,.987-7.416,4.076,4.076,0,0,1,3,.284l15.036,7.678,4.154.332a.935.935,0,0,1,.262.059l10.83,4.128,32.523,4.5a.949.949,0,0,1,.745,1.307l-7.289,17.356A.95.95,0,0,1,1888.546,723.184Zm-59.125-18.364,21.132,4.336,12.461,2.077a.888.888,0,0,1,.19.053l24.825,9.728,6.453-15.364-31.407-4.344a.959.959,0,0,1-.208-.053l-10.8-4.118-4.206-.335a.952.952,0,0,1-.356-.1l-15.2-7.764a2.191,2.191,0,0,0-2.077,3.858h0l3.269,1.853a.949.949,0,0,1-.5,1.773l-13.241-.5,2.073,3.192A13.852,13.852,0,0,0,1829.421,704.82Z" transform="translate(-1754.997 -504.071)" fill="#07284b"/>
      <path id="Trazado_136915" data-name="Trazado 136915" d="M2043.988,529.746a50.735,50.735,0,0,1,5.954-21.542,2.994,2.994,0,0,1,2.912-1.619l42.824,3.652,11.139-80.432a18.666,18.666,0,0,1,23.9-15.3h0a18.665,18.665,0,0,1,13.247,18.32c-.594,24.312-2.851,73.9-11.439,101.827a15.966,15.966,0,0,1-15.194,11.305c-38.2.087-64.628-10.307-71.565-13.362A2.984,2.984,0,0,1,2043.988,529.746Z" transform="translate(-1915.615 -310.816)" fill="#dee8e9"/>
      <path id="Trazado_136916" data-name="Trazado 136916" d="M2114.557,544.623c-37.979,0-64.286-10.281-71.468-13.443a3.914,3.914,0,0,1-2.346-3.75h0a51.277,51.277,0,0,1,6.06-21.942,3.933,3.933,0,0,1,3.835-2.129l41.927,3.575,11.015-79.541a19.615,19.615,0,0,1,39.039,3.171c-.641,26.264-2.985,74.451-11.48,102.083a16.832,16.832,0,0,1-16.1,11.975ZM2042.639,527.5a2.026,2.026,0,0,0,1.214,1.943c7.1,3.124,33.1,13.281,70.7,13.282h.478a14.942,14.942,0,0,0,14.289-10.635c8.429-27.414,10.759-75.4,11.4-101.572a17.717,17.717,0,0,0-35.261-2.864l-11.139,80.432a.949.949,0,0,1-1.021.815l-42.824-3.652a2.038,2.038,0,0,0-1.988,1.109,49.441,49.441,0,0,0-5.849,21.142Z" transform="translate(-1913.319 -308.535)" fill="#07284b"/>
      <path id="Trazado_136917" data-name="Trazado 136917" d="M1820.965,687.16s-20.827-43.737-71.506-20.133l43.395-16.928s41.3-10.495,77.75,22.482Z" transform="translate(-1707.202 -476.98)" fill="#fff"/>
      <path id="Trazado_136918" data-name="Trazado 136918" d="M1818.667,685.8a.949.949,0,0,1-.856-.54,53.549,53.549,0,0,0-16.5-18.59c-12.388-8.54-26.871-10.281-43.168-5.218l-10.641,4.151a.949.949,0,0,1-.746-1.744,85.364,85.364,0,0,1,10.548-4.116l32.9-12.835a.922.922,0,0,1,.111-.035c.428-.109,10.66-2.649,25.536-1.15a92.482,92.482,0,0,1,53.084,23.848.949.949,0,0,1-.369,1.614l-49.638,14.579A.947.947,0,0,1,1818.667,685.8Zm-43.132-29.02q2.156,0,4.26.181a46.364,46.364,0,0,1,22.663,8.192,55.22,55.22,0,0,1,16.7,18.566l47.241-13.875a90.489,90.489,0,0,0-50.65-22.227,80.346,80.346,0,0,0-24.905,1.079l-21.709,8.469A54.352,54.352,0,0,1,1775.536,656.78Z" transform="translate(-1704.905 -474.671)" fill="#07284b"/>
      <path id="Trazado_136919" data-name="Trazado 136919" d="M1844.42,842.366s-1.041-11.455,23.951-15.967,73.589-4.166,73.589-4.166l68.34-.006s38.525,32.367,8.367,63.612c-27.817,28.819-126.3,6.265-126.3,6.265Z" transform="translate(-1774.395 -599.903)" fill="#07284b"/>
      <path id="Trazado_136920" data-name="Trazado 136920" d="M1788.636,1055.667s15.62-20.48,12.5-42.349-26.728-122.186,3.818-145.443c0,0,14.579-12.5,39.572,15.967,17.009,27.076,14.926,43.043,14.926,43.043h-11.455s4.178,23.121-12.419,56.387a78.712,78.712,0,0,0-8.156,31.846c-.93,22.18,1.484,31.176,1.484,31.176l-35.059,14.927Z" transform="translate(-1734.925 -630.272)" fill="#fff"/>
      <path id="Trazado_136921" data-name="Trazado 136921" d="M1791.547,1059.874a.951.951,0,0,1-.692-.3l-5.207-5.554a.95.95,0,0,1-.062-1.224c.154-.2,15.342-20.43,12.312-41.639-.418-2.928-1.2-7.235-2.189-12.688-3.093-17.054-8.269-45.6-9.285-71.983-1.233-32.05,4.028-52.79,15.639-61.647.373-.309,4.212-3.332,11.067-2.9,9.243.592,19.273,6.978,29.81,18.979a.992.992,0,0,1,.091.121c16.995,27.053,15.15,43.005,15.063,43.671a.948.948,0,0,1-.941.826h-10.363a69.081,69.081,0,0,1-.133,14.868c-.948,9.146-3.891,23.683-12.529,40.994a77.237,77.237,0,0,0-8.057,31.462c-.911,21.717,1.429,30.8,1.453,30.892a.95.95,0,0,1-.545,1.118l-35.059,14.926A.946.946,0,0,1,1791.547,1059.874Zm-3.976-6.577,4.214,4.5,33.718-14.356c-.559-2.661-2.112-11.991-1.329-30.654a79.116,79.116,0,0,1,8.255-32.23c16.243-32.554,12.375-55.567,12.334-55.8a.949.949,0,0,1,.934-1.116h10.566c.121-3.574-.385-18.553-14.8-41.525-24.065-27.371-38.052-15.935-38.191-15.816l-.042.034c-25.971,19.772-11.733,98.274-5.654,131.795.993,5.473,1.776,9.8,2.2,12.758C1802.646,1030.983,1790.243,1049.57,1787.571,1053.3Z" transform="translate(-1732.629 -627.977)" fill="#07284b"/>
      <path id="Trazado_136922" data-name="Trazado 136922" d="M1692.016,1467.074s-1.242,5.7,11.948.839c6.925-2.552,11.075-5.2,13.456-7.137a48.873,48.873,0,0,1,9.683-6.208l1.987-.954s7.156,3.191,2.644,18.465-4.86,24.646-4.86,24.646h-4.513l-2.43-15.968s-18.571,15.447-24.472,15.795c-4.78.281-33.014-.577-43.573-.913a4.892,4.892,0,0,1-4.665-4.054h0a4.892,4.892,0,0,1,3.144-5.437c7.435-2.708,23.752-8.9,31.9-13.9C1693.03,1465.656,1692.016,1467.074,1692.016,1467.074Z" transform="translate(-1634.807 -1046.684)" fill="#529d2e"/>
      <path id="Trazado_136923" data-name="Trazado 136923" d="M1724.577,1495.377h-4.513a.948.948,0,0,1-.938-.806l-2.179-14.318c-4.551,3.7-18.412,14.636-23.729,14.949-4.753.281-32.115-.544-43.659-.911a5.844,5.844,0,0,1-1.815-11.33c6.817-2.483,23.555-8.8,31.732-13.813,10.006-6.133,10.341-5.773,10.949-5.119a1,1,0,0,1,.213,1.013,1.2,1.2,0,0,0,.416,1.036c.607.51,2.823,1.4,10.285-1.351,6.96-2.564,11.012-5.213,13.185-6.983a49.939,49.939,0,0,1,9.871-6.327l1.987-.955a.951.951,0,0,1,.8-.011c.323.144,7.861,3.713,3.167,19.6-4.419,14.959-4.817,24.319-4.821,24.412A.949.949,0,0,1,1724.577,1495.377Zm-3.7-1.9h2.8a119.315,119.315,0,0,1,4.843-23.965c3.6-12.186-.525-16.212-1.787-17.118l-1.523.731a48.043,48.043,0,0,0-9.494,6.088c-2.285,1.861-6.521,4.637-13.727,7.292-6.305,2.323-10.3,2.646-12.2.986a3.025,3.025,0,0,1-.951-1.541c-1.081.517-3.411,1.771-8.372,4.812-8.324,5.1-25.2,11.474-32.074,13.978a3.946,3.946,0,0,0,1.226,7.65c11.517.366,38.811,1.19,43.487.913,4.585-.27,18.822-11.335,23.921-15.576a.949.949,0,0,1,1.545.586Zm-31.933-29.253v0Z" transform="translate(-1632.51 -1044.388)" fill="#07284b"/>
      <path id="Trazado_136924" data-name="Trazado 136924" d="M1844.435,1053.292s15.62-20.48,12.5-42.349S1830.2,888.757,1860.75,865.5c0,0,14.579-12.5,39.571,15.968,17.009,27.075,14.927,43.043,14.927,43.043h-11.455s4.179,23.121-12.419,56.387a78.7,78.7,0,0,0-8.156,31.845c-.93,22.18,1.484,31.176,1.484,31.176l-35.059,14.926Z" transform="translate(-1774.41 -628.591)" fill="#fff"/>
      <path id="Trazado_136925" data-name="Trazado 136925" d="M1847.346,1057.5a.949.949,0,0,1-.692-.3l-5.207-5.554a.95.95,0,0,1-.062-1.224c.154-.2,15.342-20.43,12.312-41.64-.418-2.927-1.2-7.235-2.188-12.688-3.093-17.054-8.27-45.6-9.285-71.984-1.233-32.047,4.028-52.788,15.638-61.646.371-.307,4.209-3.333,11.068-2.9,9.243.593,19.273,6.978,29.81,18.978a.977.977,0,0,1,.09.122c17,27.053,15.15,43,15.064,43.67a.949.949,0,0,1-.941.826h-10.363a69.064,69.064,0,0,1-.134,14.868c-.948,9.146-3.891,23.682-12.529,40.994a77.235,77.235,0,0,0-8.057,31.461c-.911,21.718,1.429,30.8,1.452,30.892a.948.948,0,0,1-.545,1.117l-35.059,14.926A.949.949,0,0,1,1847.346,1057.5Zm-3.976-6.577,4.214,4.5,33.718-14.356c-.558-2.661-2.111-11.991-1.329-30.655a79.122,79.122,0,0,1,8.255-32.229c16.269-32.606,12.377-55.566,12.335-55.794a.949.949,0,0,1,.934-1.117h10.566c.121-3.574-.385-18.553-14.8-41.525-12.588-14.316-22.333-17.838-28.293-18.269-6.362-.462-9.865,2.426-9.9,2.455l-.039.032c-25.97,19.773-11.734,98.274-5.654,131.795.992,5.473,1.777,9.8,2.2,12.759C1858.445,1028.608,1846.042,1047.195,1843.37,1050.922Z" transform="translate(-1772.113 -626.296)" fill="#07284b"/>
      <path id="Trazado_136926" data-name="Trazado 136926" d="M1745.44,1470.636s-1.242,5.7,11.948.839c6.925-2.551,11.075-5.2,13.456-7.138a48.953,48.953,0,0,1,9.683-6.208l1.987-.954s7.156,3.191,2.644,18.465-4.86,24.645-4.86,24.645h-4.512l-2.43-15.967s-18.571,15.447-24.472,15.794c-4.78.281-33.014-.576-43.573-.912a4.892,4.892,0,0,1-4.665-4.054h0a4.893,4.893,0,0,1,3.144-5.437c7.435-2.709,23.752-8.9,31.9-13.9C1746.454,1469.219,1745.44,1470.636,1745.44,1470.636Z" transform="translate(-1672.611 -1049.204)" fill="#529d2e"/>
      <path id="Trazado_136927" data-name="Trazado 136927" d="M1778,1498.936h-4.513a.949.949,0,0,1-.938-.806l-2.179-14.318c-4.552,3.7-18.413,14.636-23.729,14.949-4.753.279-32.115-.544-43.659-.911a5.844,5.844,0,0,1-1.815-11.33c6.816-2.484,23.554-8.8,31.732-13.814,10-6.132,10.341-5.773,10.949-5.118a1,1,0,0,1,.213,1.013,1.2,1.2,0,0,0,.416,1.036c.607.511,2.823,1.4,10.285-1.35,6.96-2.564,11.012-5.213,13.184-6.983a49.988,49.988,0,0,1,9.872-6.327l1.986-.955a.946.946,0,0,1,.8-.012c.323.144,7.861,3.713,3.167,19.6-4.42,14.959-4.818,24.319-4.821,24.412A.949.949,0,0,1,1778,1498.936Zm-3.7-1.9h2.8a119.308,119.308,0,0,1,4.843-23.965c3.6-12.186-.525-16.213-1.787-17.118l-1.522.732a48.047,48.047,0,0,0-9.495,6.088c-2.285,1.861-6.521,4.637-13.727,7.292-6.306,2.322-10.3,2.646-12.2.986a3.018,3.018,0,0,1-.951-1.541c-1.081.517-3.411,1.772-8.372,4.812-8.325,5.1-25.2,11.475-32.074,13.978a3.946,3.946,0,0,0,1.226,7.651c11.518.366,38.812,1.19,43.487.913,4.585-.269,18.822-11.335,23.921-15.576a.949.949,0,0,1,1.545.587Zm-31.933-29.253v0Z" transform="translate(-1670.313 -1046.906)" fill="#07284b"/>
      <path id="Trazado_136928" data-name="Trazado 136928" d="M2142.774,142.672s-26.728,48.944,4.513,63.523c0,0,13.884,6.595,33.67-5.9l10.066-30.546-22.91-27.77Z" transform="translate(-1977.986 -118.547)" fill="#fff"/>
      <path id="Trazado_136929" data-name="Trazado 136929" d="M2154.868,206.62a24.5,24.5,0,0,1-24.363-17.4c-6.612-20.144,8.46-48.114,9.1-49.3a.949.949,0,0,1,.807-.494l25.34-.694a.951.951,0,0,1,.758.344l22.91,27.77a.948.948,0,0,1,.169.9l-10.066,30.547a.95.95,0,0,1-.395.5C2169.3,205.009,2160.919,206.62,2154.868,206.62Zm-13.845-65.311c-1.97,3.8-14.615,29.35-8.714,47.319a23.623,23.623,0,0,0,13.048,14.411c.138.065,13.566,6.134,32.475-5.663l9.8-29.725-22.283-27.008Z" transform="translate(-1975.653 -116.251)" fill="#07284b"/>
      <path id="Trazado_136930" data-name="Trazado 136930" d="M2157.767,219.868a1.744,1.744,0,1,1-1.736-1.909A1.828,1.828,0,0,1,2157.767,219.868Z" transform="translate(-1993.672 -172.313)" fill="#07284b"/>
      <path id="Trazado_136931" data-name="Trazado 136931" d="M2195.757,241.238a1.744,1.744,0,1,1-1.736-1.91A1.829,1.829,0,0,1,2195.757,241.238Z" transform="translate(-2020.555 -187.434)" fill="#07284b"/>
      <path id="Trazado_136932" data-name="Trazado 136932" d="M2148.6,246.432a7.653,7.653,0,0,1-5.03-1.888,2.542,2.542,0,0,1,.133-3.886,40.808,40.808,0,0,0,7.854-8.881.949.949,0,1,1,1.6,1.013,42.084,42.084,0,0,1-8.287,9.36.645.645,0,0,0-.035.983,5.806,5.806,0,0,0,3.968,1.395.949.949,0,0,1,.167,1.89C2148.954,246.421,2148.821,246.432,2148.6,246.432Z" transform="translate(-1985.493 -181.777)" fill="#07284b"/>
      <path id="Trazado_136933" data-name="Trazado 136933" d="M2155.671,205.37a.939.939,0,0,1-.525-.16c-1.633-1.088-3.977-.256-4-.248a.949.949,0,0,1-.667-1.777c.133-.049,3.26-1.193,5.719.446a.949.949,0,0,1-.527,1.739Z" transform="translate(-1990.536 -161.551)" fill="#07284b"/>
      <path id="Trazado_136934" data-name="Trazado 136934" d="M2206.285,230.962a.948.948,0,0,1-.932-.779c-.6-3.3-1.728-4.277-1.739-4.286a.937.937,0,0,1-.18-1.32.96.96,0,0,1,1.338-.182c.173.13,1.708,1.382,2.447,5.449a.951.951,0,0,1-.934,1.118Z" transform="translate(-2028.307 -176.73)" fill="#07284b"/>
      <path id="Trazado_136935" data-name="Trazado 136935" d="M2148.923,304.11c-5.375,0-6.159-3.943-6.167-3.987a.949.949,0,0,1,1.865-.35c.031.144.7,2.934,5.553,2.362a.949.949,0,0,1,.222,1.885A12.634,12.634,0,0,1,2148.923,304.11Z" transform="translate(-1985.496 -229.662)" fill="#07284b"/>
      <path id="Trazado_136936" data-name="Trazado 136936" d="M2150.171,68.868s-13.573,18.906,14.126,23c-2.518,11.961,0,44.084,19.092,43.39-9.443,17.941,6.758,29.3,14.942,26.469-3.777,14.479,14.165,17.941,24.867,10.7s12.276-21.4,9.128-30.848c14.794-6.61,21.719-47.845,0-58.547-10.387-24.552-41.235-10.7-41.235-10.7S2164.021,51.241,2150.171,68.868Z" transform="translate(-1988.401 -61.841)" fill="#07284b"/>
      <path id="Trazado_136937" data-name="Trazado 136937" d="M2225.079,747.406a.948.948,0,0,1-.832-.492,9.932,9.932,0,0,0-5.978-4.392.948.948,0,1,1,.427-1.848,11.682,11.682,0,0,1,7.215,5.329.95.95,0,0,1-.832,1.4Z" transform="translate(-2038.42 -542.177)" fill="#07284b"/>
      <path id="Trazado_136938" data-name="Trazado 136938" d="M2173.837,602.075c-.328,1.487-1.47,2.5-2.551,2.26s-1.692-1.637-1.364-3.124,1.47-2.5,2.551-2.26S2174.166,600.588,2173.837,602.075Z" transform="translate(-2004.667 -441.884)" fill="#07284b"/>
      <path id="Trazado_136939" data-name="Trazado 136939" d="M2167.094,677.659c.159,1.514-.6,2.836-1.706,2.951s-2.123-1.018-2.281-2.532.6-2.835,1.706-2.951S2166.935,676.145,2167.094,677.659Z" transform="translate(-1999.892 -495.807)" fill="#07284b"/>
      <path id="Trazado_136940" data-name="Trazado 136940" d="M2028.91,1027.877a.949.949,0,0,1-.943-.859,99,99,0,0,0-7.287-27.7.949.949,0,0,1,1.728-.784,101.192,101.192,0,0,1,7.449,28.306.949.949,0,0,1-.855,1.034A.869.869,0,0,1,2028.91,1027.877Z" transform="translate(-1899.063 -724.266)" fill="#07284b"/>
    </g>
    <g id="Grupo_105731" data-name="Grupo 105731" transform="translate(961.238 3969.787)">
      <path id="Trazado_136941" data-name="Trazado 136941" d="M2286.615,1186.724v11.008a5.888,5.888,0,0,1-5.888,5.888H2145.813a5.888,5.888,0,0,0-5.888,5.888v77.569a5.888,5.888,0,0,0,5.888,5.888h163.075a5.888,5.888,0,0,1,5.888,5.888h0a5.888,5.888,0,0,1-5.888,5.888h-183.64a5.888,5.888,0,0,1-5.874-6.3l7.877-112.131a5.888,5.888,0,0,1,5.874-5.475h147.6A5.888,5.888,0,0,1,2286.615,1186.724Z" transform="translate(-2103.135 -972.523)" fill="#dee8e9"/>
      <path id="Trazado_136942" data-name="Trazado 136942" d="M2306.593,1303.4h-183.64a6.836,6.836,0,0,1-6.82-7.316l7.877-112.131a6.859,6.859,0,0,1,6.82-6.358h147.6a6.845,6.845,0,0,1,6.837,6.837v11.008a6.845,6.845,0,0,1-6.837,6.837H2143.518a4.945,4.945,0,0,0-4.94,4.939v77.57a4.945,4.945,0,0,0,4.94,4.939h163.075a6.837,6.837,0,0,1,0,13.674ZM2130.83,1179.489a4.956,4.956,0,0,0-4.927,4.593l-7.877,112.13a4.94,4.94,0,0,0,4.927,5.286h183.64a4.939,4.939,0,0,0,0-9.879H2143.518a6.845,6.845,0,0,1-6.837-6.837v-77.57a6.845,6.845,0,0,1,6.837-6.837h134.914a4.945,4.945,0,0,0,4.94-4.939v-11.008a4.945,4.945,0,0,0-4.94-4.939Z" transform="translate(-2100.84 -970.227)" fill="#07284b"/>
      <path id="Trazado_136943" data-name="Trazado 136943" d="M2081.955,647.957l145.418-.434a14.886,14.886,0,0,0,14.293-10.88l43.081-154.148a14.887,14.887,0,0,1,14.339-10.881h0a14.888,14.888,0,0,1,14.6,17.794L2276.606,675.7a14.888,14.888,0,0,1-14.6,11.981H2082a14.888,14.888,0,0,1-14.888-14.887v-9.95A14.887,14.887,0,0,1,2081.955,647.957Z" transform="translate(-2066.164 -470.665)" fill="#fff"/>
      <path id="Trazado_136944" data-name="Trazado 136944" d="M2259.709,686.334h-180a15.854,15.854,0,0,1-15.836-15.836v-9.95a15.864,15.864,0,0,1,15.789-15.836l0,.949,0-.949,145.418-.434a13.992,13.992,0,0,0,13.383-10.187l43.081-154.148a15.837,15.837,0,0,1,30.784,7.354L2275.24,673.59A15.876,15.876,0,0,1,2259.709,686.334Zm37.083-216.068a13.984,13.984,0,0,0-13.425,10.187L2240.286,634.6a15.9,15.9,0,0,1-15.2,11.574l-145.418.434a13.963,13.963,0,0,0-13.9,13.939v9.95a13.955,13.955,0,0,0,13.939,13.939h180a13.974,13.974,0,0,0,13.671-11.218l37.083-186.293a13.939,13.939,0,0,0-13.671-16.66Z" transform="translate(-2063.868 -468.368)" fill="#07284b"/>
    </g>
    <g id="Grupo_105732" data-name="Grupo 105732" transform="translate(390.576 3969.787)">
      <path id="Trazado_136945" data-name="Trazado 136945" d="M267.224,1186.724v11.008a5.889,5.889,0,0,0,5.888,5.888H408.027a5.888,5.888,0,0,1,5.888,5.888v77.569a5.888,5.888,0,0,1-5.888,5.888H244.952a5.888,5.888,0,0,0-5.888,5.888h0a5.888,5.888,0,0,0,5.888,5.888h183.64a5.888,5.888,0,0,0,5.874-6.3l-7.877-112.131a5.888,5.888,0,0,0-5.874-5.475h-147.6A5.889,5.889,0,0,0,267.224,1186.724Z" transform="translate(-201.943 -972.523)" fill="#dee8e9"/>
      <path id="Trazado_136946" data-name="Trazado 136946" d="M426.3,1303.4H242.656a6.837,6.837,0,0,1,0-13.674H405.731a4.945,4.945,0,0,0,4.939-4.939v-77.57a4.945,4.945,0,0,0-4.939-4.939H270.816a6.845,6.845,0,0,1-6.837-6.837v-11.008a6.844,6.844,0,0,1,6.837-6.837h147.6a6.859,6.859,0,0,1,6.82,6.358l7.876,112.131a6.836,6.836,0,0,1-6.82,7.316Zm-183.64-11.776a4.939,4.939,0,1,0,0,9.879H426.3a4.94,4.94,0,0,0,4.927-5.286l-7.877-112.13a4.956,4.956,0,0,0-4.927-4.593h-147.6a4.945,4.945,0,0,0-4.94,4.939v11.008a4.945,4.945,0,0,0,4.94,4.939H405.731a6.845,6.845,0,0,1,6.837,6.837v77.57a6.844,6.844,0,0,1-6.837,6.837Z" transform="translate(-199.647 -970.227)" fill="#07284b"/>
      <path id="Trazado_136947" data-name="Trazado 136947" d="M347.365,647.957l-145.418-.434a14.887,14.887,0,0,1-14.294-10.88l-43.08-154.148a14.888,14.888,0,0,0-14.339-10.881h0a14.888,14.888,0,0,0-14.6,17.794L152.714,675.7a14.888,14.888,0,0,0,14.6,11.981h180a14.887,14.887,0,0,0,14.887-14.887v-9.95A14.887,14.887,0,0,0,347.365,647.957Z" transform="translate(-114.394 -470.665)" fill="#fff"/>
      <path id="Trazado_136948" data-name="Trazado 136948" d="M345.029,686.334h-180a15.876,15.876,0,0,1-15.532-12.745L112.411,487.3a15.836,15.836,0,0,1,30.784-7.354L186.275,634.09a13.992,13.992,0,0,0,13.383,10.187l145.418.434a15.864,15.864,0,0,1,15.789,15.836v9.95A15.854,15.854,0,0,1,345.029,686.334ZM127.942,470.266a13.939,13.939,0,0,0-13.671,16.66l37.082,186.293a13.974,13.974,0,0,0,13.671,11.218h180A13.955,13.955,0,0,0,358.968,670.5v-9.95a13.964,13.964,0,0,0-13.9-13.939l-145.418-.434a15.9,15.9,0,0,1-15.2-11.574L141.367,480.453A13.985,13.985,0,0,0,127.942,470.266Z" transform="translate(-112.103 -468.368)" fill="#07284b"/>
    </g>
    <g id="Grupo_105734" data-name="Grupo 105734" transform="translate(636.595 3969.916)">
      <g id="Grupo_105733" data-name="Grupo 105733" transform="translate(0 77.953)">
        <rect id="Rect치ngulo_37035" data-name="Rect치ngulo 37035" width="11.008" height="205.956" transform="translate(128.311 11.317)" fill="#07284b"/>
        <path id="Trazado_136949" data-name="Trazado 136949" d="M1214.19,755.307H965.1a8.32,8.32,0,0,1-8.32-8.32h0a8.32,8.32,0,0,1,8.32-8.32H1214.19a8.32,8.32,0,0,1,8.32,8.32h0A8.32,8.32,0,0,1,1214.19,755.307Z" transform="translate(-955.828 -737.718)" fill="#dee8e9"/>
        <path id="Trazado_136950" data-name="Trazado 136950" d="M1211.894,753.959H962.8a9.269,9.269,0,0,1,0-18.538h249.093a9.269,9.269,0,1,1,0,18.538ZM962.8,737.319a7.371,7.371,0,1,0,0,14.743h249.093a7.371,7.371,0,0,0,0-14.743Z" transform="translate(-953.532 -735.421)" fill="#07284b"/>
        <path id="Trazado_136951" data-name="Trazado 136951" d="M1007.56,1426.8v-13.824l118.019-59.649v30.209Z" transform="translate(-991.763 -1172.662)" fill="#07284b"/>
        <path id="Trazado_136952" data-name="Trazado 136952" d="M1521.343,1426.8v-13.824l-118.018-59.649v30.209Z" transform="translate(-1271.813 -1172.662)" fill="#07284b"/>
      </g>
      <path id="Trazado_136953" data-name="Trazado 136953" d="M1276.242,549.979l16.641,53.761H1264.8Z" transform="translate(-1173.787 -526.246)" fill="#07284b"/>
      <path id="Trazado_136954" data-name="Trazado 136954" d="M1096.882,472.82,1077.17,548.6h63.489l17.408-76.546Z" transform="translate(-1041.02 -471.103)" fill="#fff"/>
      <path id="Trazado_136955" data-name="Trazado 136955" d="M1138.363,547.251h-63.489a.948.948,0,0,1-.918-1.187l19.712-75.778a.947.947,0,0,1,.906-.71l61.186-.768a.96.96,0,0,1,.75.352.949.949,0,0,1,.187.807l-17.408,76.546A.948.948,0,0,1,1138.363,547.251Zm-62.262-1.9h61.505l16.973-74.633-59.257.744Z" transform="translate(-1038.724 -468.808)" fill="#07284b"/>
      <path id="Trazado_136956" data-name="Trazado 136956" d="M1208.928,503.976h-36.865a.949.949,0,1,1,0-1.9h36.865a.949.949,0,1,1,0,1.9Z" transform="translate(-1107.497 -492.351)" fill="#07284b"/>
    </g>
    <g id="Grupo_105735" data-name="Grupo 105735" transform="translate(499.087 3852.966)">
      <path id="Trazado_136957" data-name="Trazado 136957" d="M630.719,256.564l-10.134,45.266,33.443,5.743,10.81-41.888Z" transform="translate(-580.425 -201.671)" fill="#fff"/>
      <path id="Trazado_136958" data-name="Trazado 136958" d="M651.733,306.226a.984.984,0,0,1-.162-.014l-33.442-5.743a.948.948,0,0,1-.765-1.142L627.5,254.062a.948.948,0,0,1,1.171-.709l34.118,9.121a.949.949,0,0,1,.674,1.154l-10.81,41.888A.948.948,0,0,1,651.733,306.226Zm-32.3-7.458,31.6,5.426,10.357-40.132-32.255-8.623Z" transform="translate(-578.128 -199.375)" fill="#07284b"/>
      <path id="Trazado_136959" data-name="Trazado 136959" d="M1021.691,1088.537s-17.314,40.649,2.634,78.287c10.915,23.712,2.635,42.154,1.129,49.306s-4.893,20.324,10.162,20.324,70.76,1.129,70.76,1.129,7.151-1.881,4.516-8.28-30.487-7.9-43.284-16.56-9.785-28.981-9.785-28.981l9.409-83.556Z" transform="translate(-859.322 -790.389)" fill="#fff"/>
      <path id="Trazado_136960" data-name="Trazado 136960" d="M1104.118,1236.235h-.019c-.557-.011-55.866-1.129-70.74-1.129-4.739,0-8.183-1.287-10.237-3.827-3.656-4.519-2.072-11.929-1.025-16.834l.171-.808c.228-1.084.6-2.4,1.038-3.934,2.467-8.69,7.057-24.863-2.089-44.756-10.407-19.653-10.579-40.1-8.888-53.795a104.078,104.078,0,0,1,6.232-25.285.949.949,0,0,1,1.108-.547l45.542,11.668a.949.949,0,0,1,.708,1.025l-9.41,83.556c-.033.23-2.771,19.873,9.375,28.089,6.168,4.172,16.05,6.682,24.768,8.895,9.69,2.461,17.343,4.4,18.861,8.09a6.581,6.581,0,0,1,.058,5.61c-1.458,2.932-5.058,3.909-5.21,3.949A.951.951,0,0,1,1104.118,1236.235Zm-84.113-148.869a105.505,105.505,0,0,0-5.8,24.079c-1.648,13.413-1.476,33.434,8.7,52.638l.023.047c9.456,20.542,4.737,37.162,2.2,46.091-.425,1.495-.791,2.786-1.006,3.806l-.173.814c-.972,4.552-2.441,11.43.644,15.243,1.676,2.072,4.624,3.123,8.762,3.123,14.515,0,67.437,1.062,70.631,1.126a6.8,6.8,0,0,0,3.884-2.932,4.783,4.783,0,0,0-.117-4.035c-1.155-2.8-9.13-4.83-17.574-6.973-8.869-2.252-18.921-4.8-25.364-9.163-13.14-8.889-10.319-29.053-10.193-29.906l9.313-82.7Z" transform="translate(-857.065 -788.093)" fill="#07284b"/>
      <rect id="Rect치ngulo_37036" data-name="Rect치ngulo 37036" width="96.729" height="6.321" transform="translate(158.981 442.002)" fill="#07284b"/>
      <path id="Trazado_136961" data-name="Trazado 136961" d="M1083.614,1517.035s10.115-27.816,26.452-30.362a2.236,2.236,0,0,1,1.772.5l8.343,6.952a2.241,2.241,0,0,1-.012,3.458c-3.479,2.836-9.974,9.368-11.337,19.453Z" transform="translate(-908.072 -1072.099)" fill="#07284b"/>
      <path id="Trazado_136962" data-name="Trazado 136962" d="M1244.417,1535.341c-2.707,2.55-10.606,10.812-7.782,18.028l12.8.377s-1.261-5.99,4.584-13.641a1.97,1.97,0,0,0-.975-3.063l-6.665-2.142A1.973,1.973,0,0,0,1244.417,1535.341Z" transform="translate(-1015.927 -1106.175)" fill="#07284b"/>
      <path id="Trazado_136963" data-name="Trazado 136963" d="M794.036,1071.671s-15.649,22.453-14.927,57.656a41.706,41.706,0,0,1-8.332,26.1,41.21,41.21,0,0,1-4.935,5.428,31.04,31.04,0,0,1-9.215,5.779c-4.675,1.926-13.938,7.112-7,16.072,9.033,11.667,34.25,38.767,34.25,38.767l22.3,1.808a4.309,4.309,0,0,0,4.594-5.034h0a4.309,4.309,0,0,0-3.752-3.542l-6.586-.76a47.342,47.342,0,0,1-10.014-23.688,25.057,25.057,0,0,1,3.385-15.93c16.087-26.95,56.688-86.091,56.688-86.091Z" transform="translate(-669.972 -778.455)" fill="#fff"/>
      <path id="Trazado_136964" data-name="Trazado 136964" d="M804.237,1221.947q-.216,0-.434-.017l-22.3-1.809a.949.949,0,0,1-.618-.3c-.253-.271-25.35-27.265-34.306-38.833-2.347-3.031-3.164-5.964-2.43-8.718,1.243-4.66,6.686-7.52,9.821-8.811a30.042,30.042,0,0,0,8.935-5.6,40.345,40.345,0,0,0,4.821-5.3,40.894,40.894,0,0,0,8.139-25.5c-.719-35.105,14.939-57.991,15.1-58.218a.952.952,0,0,1,1.046-.368l56.457,16.561a.949.949,0,0,1,.515,1.447c-.406.59-40.767,59.425-56.655,86.04a24.212,24.212,0,0,0-3.259,15.327,47.225,47.225,0,0,0,9.556,22.907l6.212.717a5.289,5.289,0,0,1,4.578,4.323,5.259,5.259,0,0,1-5.171,6.159Zm-22.218-3.687,21.938,1.778a3.361,3.361,0,0,0,3.582-3.925,3.38,3.38,0,0,0-2.926-2.763l-6.586-.76a.95.95,0,0,1-.6-.312,47.863,47.863,0,0,1-10.247-24.2,26.118,26.118,0,0,1,3.512-16.534c14.725-24.667,50.391-76.9,55.98-85.062l-54.527-15.994c-2.352,3.689-15.031,25.1-14.387,56.528a42.8,42.8,0,0,1-8.525,26.69,42.251,42.251,0,0,1-5.049,5.553,31.919,31.919,0,0,1-9.5,5.958c-2.81,1.157-7.677,3.676-8.71,7.545-.574,2.152.131,4.53,2.1,7.068C756.5,1190.708,779.365,1215.4,782.018,1218.259Z" transform="translate(-667.673 -776.16)" fill="#07284b"/>
      <path id="Trazado_136965" data-name="Trazado 136965" d="M717.906,1414.088l-6.022,5.269,40.438,46.365a11.252,11.252,0,0,0,8.12,3.85l30.481.973v-6.775l-26.418-2.255a11.25,11.25,0,0,1-7.422-3.7Z" transform="translate(-645.029 -1020.755)" fill="#07284b"/>
      <path id="Trazado_136966" data-name="Trazado 136966" d="M765.95,1447.873a47.909,47.909,0,0,1,38.481-11.638,2.3,2.3,0,0,1,1.987,2.467l-1.106,13a2.285,2.285,0,0,1-2.615,2.071c-4.48-.679-14.719-1.042-26.209,6.525Z" transform="translate(-683.288 -1036.097)" fill="#07284b"/>
      <path id="Trazado_136967" data-name="Trazado 136967" d="M862.5,1554.3s5.96-10.166,16.187-13.244a2.276,2.276,0,0,1,2.031.38c1.178.9,2.085,1.629,2.783,2.217a2.273,2.273,0,0,1-.291,3.693c-2.646,1.563-6.44,4.509-7.162,8.837Z" transform="translate(-751.605 -1110.535)" fill="#07284b"/>
      <path id="Trazado_136968" data-name="Trazado 136968" d="M576.681,847.727s-.675,66.886,85.127,51.684c-8.582,11.372-12.667,20.29-14.506,25.285a4.352,4.352,0,0,0,2.928,5.7c14.549,4,63.5,15.34,107.575.873a3.377,3.377,0,0,0,2.323-3.183c.3-39.539.317-65.544.252-82.111a25.735,25.735,0,0,0-26.049-25.635l-112.384,1.374Z" transform="translate(-549.357 -600.609)" fill="#07284b"/>
      <path id="Trazado_136969" data-name="Trazado 136969" d="M867.845,996.371a.948.948,0,0,1-.834-1.4c9.058-16.8,31.722-37.54,31.95-37.749a.949.949,0,0,1,1.278,1.4c-.226.205-22.653,20.732-31.558,37.245A.948.948,0,0,1,867.845,996.371Z" transform="translate(-754.719 -697.295)" fill="#fff"/>
      <path id="Trazado_136970" data-name="Trazado 136970" d="M522.7,364.792,486.644,545.086a8.106,8.106,0,0,0,2.331,7.455c10.853,10.362,49.077,35.992,103.266-47.987-9.115-21.688-17.938-26.706-6.875-53.15a15.356,15.356,0,0,0-.446-12.838c-12.55-24.887-19.036-36.184-17.41-69.446a7.149,7.149,0,0,0-.465-2.994c-4.868-12.233-28.238-25.56-43.184-4.08A7.327,7.327,0,0,0,522.7,364.792Z" transform="translate(-485.533 -268.258)" fill="#fc8116"/>
      <path id="Trazado_136971" data-name="Trazado 136971" d="M515.426,563.1c-14.351,0-24.424-7.415-29.41-12.175a9.007,9.007,0,0,1-2.607-8.327L519.469,362.3h0a8.218,8.218,0,0,1,1.31-3.1c7.6-10.92,16.656-12.355,22.916-11.633,10.618,1.222,19.223,9.106,21.928,15.9a8.059,8.059,0,0,1,.531,3.392c-1.548,31.67,4.257,43.152,15.821,66.026l1.489,2.947a16.281,16.281,0,0,1,.473,13.631c-8.6,20.561-5.052,27.707,1.392,40.68,1.679,3.381,3.581,7.211,5.483,11.737a.948.948,0,0,1-.077.882c-23.976,37.156-47.616,57.355-70.263,60.033A42.949,42.949,0,0,1,515.426,563.1Zm5.9-200.424L485.271,542.971a7.119,7.119,0,0,0,2.057,6.583c5.31,5.07,16.647,13.287,32.922,11.362,9.864-1.166,20.137-5.926,30.534-14.145,12.506-9.887,25.319-24.9,38.085-44.611-1.814-4.271-3.63-7.928-5.239-11.166-6.472-13.031-10.378-20.9-1.443-42.257a14.385,14.385,0,0,0-.417-12.045l-1.488-2.945c-11.715-23.172-17.595-34.8-16.023-66.975a6.169,6.169,0,0,0-.4-2.6c-2.537-6.374-10.855-13.623-20.383-14.72-5.746-.662-14.079.681-21.141,10.832a6.322,6.322,0,0,0-1.007,2.391Z" transform="translate(-483.23 -265.957)" fill="#07284b"/>
      <path id="Trazado_136972" data-name="Trazado 136972" d="M727.869,172.02c-.753-.812-1.686-1.857-2.6-3a13.048,13.048,0,0,1-2.826-8.212,125.916,125.916,0,0,0-1.358-18.557l-49.513-1.6-.958,45.041s15.61,23.841,40.945,16.144a9.2,9.2,0,0,0,6.144-6.23,96.677,96.677,0,0,0,3.647-17.18l3.137.33a4.026,4.026,0,0,0,4.265-2.8h0A4.019,4.019,0,0,0,727.869,172.02Z" transform="translate(-615.829 -119.651)" fill="#fff"/>
      <path id="Trazado_136973" data-name="Trazado 136973" d="M699.92,202.012a35.917,35.917,0,0,1-21.226-7.342.949.949,0,1,1,1.123-1.529c6.39,4.69,16.741,9.452,29.765,5.495a8.218,8.218,0,0,0,5.51-5.587,95.538,95.538,0,0,0,3.615-17.023.947.947,0,0,1,1.042-.835l3.137.33a3.078,3.078,0,0,0,2.583-5.15c-.983-1.059-1.872-2.086-2.643-3.054a14.047,14.047,0,0,1-3.033-8.809,116.24,116.24,0,0,0-1.13-16.692q-.063-.488-.12-.939l-47.743-1.54-.694,32.615a.949.949,0,0,1-1.9-.04l.714-33.574a.949.949,0,0,1,.979-.928l49.513,1.6a.949.949,0,0,1,.912.835c.064.532.138,1.108.218,1.731a117.939,117.939,0,0,1,1.146,16.945,12.139,12.139,0,0,0,2.62,7.616c.742.93,1.6,1.921,2.55,2.945a4.976,4.976,0,0,1-4.172,8.328l-2.208-.233a98.322,98.322,0,0,1-3.566,16.4,10.107,10.107,0,0,1-6.78,6.872A35,35,0,0,1,699.92,202.012Z" transform="translate(-614.123 -117.355)" fill="#07284b"/>
      <path id="Trazado_136974" data-name="Trazado 136974" d="M597.464,86.439c.287,15.836,1.765,43.27,8.306,56.131a4.925,4.925,0,0,0,3.932,2.655c8.622.807,18.161-4.376,23.764-8.088a12.429,12.429,0,0,0,5.474-8.995l.993-8.932,4.4.192a3.377,3.377,0,0,0,3.469-2.77l.508-2.8a6.276,6.276,0,0,1,5.8-5.141l2.724-.163a16.965,16.965,0,0,0,13.5-8.114c3.972-6.553,8.775-16.337,8.724-25.272a4.869,4.869,0,0,0-4.49-4.817c-33.439-2.635-53-1.375-64.048.426A15.6,15.6,0,0,0,597.464,86.439Z" transform="translate(-564.062 -68.819)" fill="#07284b"/>
      <path id="Trazado_136975" data-name="Trazado 136975" d="M730.841,222.638c.948,5.922-1.532,11.244-5.539,11.885s-8.023-3.641-8.971-9.564,1.532-11.244,5.539-11.885S729.893,216.715,730.841,222.638Z" transform="translate(-648.034 -170.852)" fill="#fff"/>
      <path id="Trazado_136976" data-name="Trazado 136976" d="M722.222,233.24c-4.19,0-8.168-4.437-9.125-10.425a14.769,14.769,0,0,1,.988-8.474,7.307,7.307,0,0,1,5.338-4.5c4.387-.7,8.764,3.605,9.962,9.807a.949.949,0,0,1-1.864.36c-.985-5.1-4.483-8.826-7.8-8.293a5.481,5.481,0,0,0-3.917,3.426,12.855,12.855,0,0,0-.834,7.372c.863,5.4,4.4,9.335,7.884,8.777a4.127,4.127,0,0,0,.9-.251.949.949,0,0,1,.714,1.758,6.047,6.047,0,0,1-1.314.367A5.907,5.907,0,0,1,722.222,233.24Z" transform="translate(-645.736 -168.558)" fill="#07284b"/>
      <path id="Trazado_136977" data-name="Trazado 136977" d="M827.086,224.511a1.763,1.763,0,1,1-1.757-1.917A1.842,1.842,0,0,1,827.086,224.511Z" transform="translate(-724.063 -177.633)" fill="#07284b"/>
      <path id="Trazado_136978" data-name="Trazado 136978" d="M811.445,214.942a.976.976,0,0,1-.267-.038.959.959,0,0,1-.648-1.185c.08-.281.923-2.783,5.762-4.165a.949.949,0,1,1,.521,1.824c-3.8,1.087-4.46,2.868-4.466,2.886A.932.932,0,0,1,811.445,214.942Z" transform="translate(-714.807 -168.38)" fill="#07284b"/>
      <path id="Trazado_136979" data-name="Trazado 136979" d="M819.6,297.328c-2.851,0-6.194-2.774-6.584-3.106a.949.949,0,0,1,1.229-1.445c.949.806,3.807,2.85,5.606,2.64a.949.949,0,0,1,.22,1.885A4.169,4.169,0,0,1,819.6,297.328Z" transform="translate(-716.354 -227.136)" fill="#07284b"/>
      <path id="Trazado_136980" data-name="Trazado 136980" d="M815.327,770.117l11.485,3.716,10.955-8.988a3.667,3.667,0,0,1,4.52-.1l21.853,17.031-19.161.127s-15.464,25.378-36.071,8.825Z" transform="translate(-713.686 -560.75)" fill="#fff"/>
      <path id="Trazado_136981" data-name="Trazado 136981" d="M820.724,794.977c-4.958,0-9.891-1.948-14.706-5.815a.948.948,0,0,1-.311-1.022l6.418-20.606a.948.948,0,0,1,1.2-.621l10.992,3.556,10.554-8.66a4.607,4.607,0,0,1,5.689-.13l21.7,16.872a.949.949,0,0,1-.568,1.7l-18.481.287c-1.5,2.284-8.6,12.3-19.167,14.149A19.207,19.207,0,0,1,820.724,794.977Zm-13.012-6.9c5.278,4.076,10.655,5.67,15.993,4.738,10.833-1.892,18.1-13.6,18.168-13.716a.951.951,0,0,1,.795-.455l16.3-.253-19.555-15.207a2.709,2.709,0,0,0-3.336.088l-10.955,8.988a.95.95,0,0,1-.894.17l-10.573-3.421Z" transform="translate(-711.389 -558.448)" fill="#07284b"/>
      <path id="Trazado_136982" data-name="Trazado 136982" d="M686.033,499.483c-.365,5.2-2.6,19.271-16.031,25.063a3.516,3.516,0,0,1-3.4-.354c-17.353-12.134-35.558-34.717-43.832-45.611a27.966,27.966,0,0,1-5.481-13.451l-9.022-72.3A16.13,16.13,0,0,1,622.529,374.8l2.843-.308a16.13,16.13,0,0,1,17.671,13.515l11.584,73.219S673.689,487.8,684.7,496.48A3.513,3.513,0,0,1,686.033,499.483Z" transform="translate(-571.617 -285.051)" fill="#fc8116"/>
      <path id="Trazado_136983" data-name="Trazado 136983" d="M670.145,574.511a4.5,4.5,0,0,1-2.574-.806c-17.163-12-34.961-33.856-44.044-45.815a28.949,28.949,0,0,1-5.667-13.907L610.287,453.3a.949.949,0,1,1,1.883-.235l7.573,60.682a27.05,27.05,0,0,0,5.294,12.994c9.015,11.871,26.671,33.555,43.62,45.408a2.581,2.581,0,0,0,2.485.26c12.8-5.523,15.076-18.8,15.459-24.258a2.563,2.563,0,0,0-.973-2.192c-10.991-8.667-29.477-34.356-30.257-35.446a.953.953,0,0,1-.167-.4l-10.4-65.744a.949.949,0,1,1,1.874-.3l10.366,65.521c1.7,2.357,19.453,26.753,29.76,34.881a4.456,4.456,0,0,1,1.69,3.814c-.407,5.8-2.841,19.932-16.6,25.868A4.414,4.414,0,0,1,670.145,574.511Z" transform="translate(-573.133 -333.786)" fill="#07284b"/>
    </g>
    <g id="arrow_x2C__right_3_" transform="translate(641.037 3850.722)">
      <g id="arrows_x2C__Drag_x2C__move_x2C__crossroads_16_" transform="translate(1.391 1.391)">
        <g id="Arrows_x2C__choose_x2C__opportunity_x2C__person_x2C__ways_27_">
          <g id="XMLID_828_">
            <path id="Trazado_136985" data-name="Trazado 136985" d="M65.5,27.673v7.533L82.2,23.5,65.5,11.793v7.533H9.848A8.347,8.347,0,0,0,1.5,27.673Z" transform="translate(-1.5 -11.793)" fill="#fc8116"/>
          </g>
        </g>
      </g>
      <g id="arrows_x2C__Drag_x2C__move_x2C__crossroads_15_" transform="translate(0 0)">
        <g id="Arrows_x2C__choose_x2C__opportunity_x2C__person_x2C__ways_26_">
          <g id="XMLID_827_">
            <path id="Trazado_136986" data-name="Trazado 136986" d="M66.391,37.488A1.394,1.394,0,0,1,65,36.1V29.956H2.391a1.391,1.391,0,0,1,0-2.783h64a1.392,1.392,0,0,1,1.391,1.391v4.858l12.889-9.032L67.783,15.358v4.858a1.392,1.392,0,0,1-1.391,1.391H7.957a1.391,1.391,0,0,1,0-2.783H65V12.684a1.391,1.391,0,0,1,2.19-1.138l16.7,11.706a1.389,1.389,0,0,1,0,2.276L67.19,37.235a1.374,1.374,0,0,1-.8.253Z" transform="translate(-1 -11.293)" fill="#07284b"/>
          </g>
        </g>
      </g>
      <g id="XMLID_819_" transform="translate(0 7.532)">
        <g id="XMLID_820_">
          <g id="XMLID_821_">
            <g id="XMLID_822_">
              <g id="XMLID_824_">
                <g id="XMLID_825_">
                  <g id="XMLID_826_">
                    <path id="Trazado_136987" data-name="Trazado 136987" d="M1,15.391A1.391,1.391,0,1,0,2.391,14,1.4,1.4,0,0,0,1,15.391Z" transform="translate(-1 -14)" fill="#455a64"/>
                  </g>
                </g>
              </g>
            </g>
          </g>
        </g>
      </g>
    </g>
    <g id="arrow_x2C__right_3_2" data-name="arrow_x2C__right_3_" transform="translate(959.082 3876.917) rotate(180)">
      <g id="arrows_x2C__Drag_x2C__move_x2C__crossroads_16_2" data-name="arrows_x2C__Drag_x2C__move_x2C__crossroads_16_" transform="translate(1.391 1.391)">
        <g id="Arrows_x2C__choose_x2C__opportunity_x2C__person_x2C__ways_27_2" data-name="Arrows_x2C__choose_x2C__opportunity_x2C__person_x2C__ways_27_">
          <g id="XMLID_828_2" data-name="XMLID_828_">
            <path id="Trazado_136985-2" data-name="Trazado 136985" d="M64,15.88v7.533L80.7,11.706,64,0V7.533H8.348A8.347,8.347,0,0,0,0,15.88Z" fill="#529d2e"/>
          </g>
        </g>
      </g>
      <g id="arrows_x2C__Drag_x2C__move_x2C__crossroads_15_2" data-name="arrows_x2C__Drag_x2C__move_x2C__crossroads_15_" transform="translate(0)">
        <g id="Arrows_x2C__choose_x2C__opportunity_x2C__person_x2C__ways_26_2" data-name="Arrows_x2C__choose_x2C__opportunity_x2C__person_x2C__ways_26_">
          <g id="XMLID_827_2" data-name="XMLID_827_">
            <path id="Trazado_136986-2" data-name="Trazado 136986" d="M65.391,26.2A1.394,1.394,0,0,1,64,24.8V18.663H1.391a1.391,1.391,0,0,1,0-2.783h64a1.392,1.392,0,0,1,1.391,1.391V22.13L79.672,13.1,66.783,4.065V8.923a1.392,1.392,0,0,1-1.391,1.391H6.957a1.391,1.391,0,0,1,0-2.783H64V1.391A1.391,1.391,0,0,1,66.19.253l16.7,11.706a1.389,1.389,0,0,1,0,2.276L66.19,25.942a1.374,1.374,0,0,1-.8.253Z" fill="#07284b"/>
          </g>
        </g>
      </g>
      <g id="XMLID_819_2" data-name="XMLID_819_" transform="translate(0 7.532)">
        <g id="XMLID_820_2" data-name="XMLID_820_">
          <g id="XMLID_821_2" data-name="XMLID_821_">
            <g id="XMLID_822_2" data-name="XMLID_822_">
              <g id="XMLID_824_2" data-name="XMLID_824_">
                <g id="XMLID_825_2" data-name="XMLID_825_">
                  <g id="XMLID_826_2" data-name="XMLID_826_">
                    <path id="Trazado_136987-2" data-name="Trazado 136987" d="M0,1.391A1.391,1.391,0,1,0,1.391,0,1.4,1.4,0,0,0,0,1.391Z" fill="#455a64"/>
                  </g>
                </g>
              </g>
            </g>
          </g>
        </g>
      </g>
    </g>
    <path id="Trazado_136984" data-name="Trazado 136984" d="M27.5,0h104a27.5,27.5,0,0,1,0,55H27.5a27.5,27.5,0,0,1,0-55Z" transform="translate(285 3895.955)" fill="#fcd03e"/>
    <path id="Trazado_141919" data-name="Trazado 141919" d="M8.9-5.432H4.052v3.059h5.73V0H.967V-12.8H9.8v2.382H4.052v2.7H8.9ZM14.089-9.51V.325a3.452,3.452,0,0,1-.967,2.6,3.714,3.714,0,0,1-2.672.914,6.308,6.308,0,0,1-1.4-.149V1.45a5.667,5.667,0,0,0,.835.079A1.084,1.084,0,0,0,11.118.308V-9.51ZM10.9-11.962A1.322,1.322,0,0,1,11.355-13a1.724,1.724,0,0,1,1.187-.4,1.724,1.724,0,0,1,1.187.4,1.322,1.322,0,0,1,.457,1.037,1.322,1.322,0,0,1-.457,1.037,1.724,1.724,0,0,1-1.187.4,1.724,1.724,0,0,1-1.187-.4A1.322,1.322,0,0,1,10.9-11.962ZM20.364.176a4.889,4.889,0,0,1-3.542-1.305,4.507,4.507,0,0,1-1.354-3.4v-.246a5.84,5.84,0,0,1,.541-2.575,3.955,3.955,0,0,1,1.578-1.727,4.763,4.763,0,0,1,2.461-.611,4.117,4.117,0,0,1,3.164,1.244,4.887,4.887,0,0,1,1.16,3.467v1.151H18.483a2.135,2.135,0,0,0,.694,1.257,2.066,2.066,0,0,0,1.389.457,2.662,2.662,0,0,0,2.2-.984l1.354,1.6A3.784,3.784,0,0,1,22.548-.277,5.3,5.3,0,0,1,20.364.176ZM20.03-7.4q-1.3,0-1.547,1.723h2.988v-.229a1.467,1.467,0,0,0-.36-1.1A1.434,1.434,0,0,0,20.03-7.4ZM28.362-9.51l.1,1.116a3.27,3.27,0,0,1,2.716-1.292,2.407,2.407,0,0,1,2.435,1.433A3.165,3.165,0,0,1,36.4-9.686q2.892,0,2.971,3.5V0H36.4V-6a1.813,1.813,0,0,0-.246-1.063,1.048,1.048,0,0,0-.9-.334,1.4,1.4,0,0,0-1.31.782l.009.123V0H30.99V-5.985a1.906,1.906,0,0,0-.237-1.081,1.045,1.045,0,0,0-.905-.334,1.42,1.42,0,0,0-1.3.782V0H25.585V-9.51ZM49.9-4.685a5.735,5.735,0,0,1-1,3.538A3.2,3.2,0,0,1,46.2.176a2.742,2.742,0,0,1-2.153-.958V3.656H41.089V-9.51h2.769l.088.879a2.742,2.742,0,0,1,2.241-1.055,3.224,3.224,0,0,1,2.733,1.3A5.805,5.805,0,0,1,49.9-4.825Zm-2.962-.185q0-2.531-1.477-2.531a1.394,1.394,0,0,0-1.406.756V-2.9a1.439,1.439,0,0,0,1.424.791q1.415,0,1.459-2.443ZM54.325,0H51.354V-13.5h2.971Zm1.45-4.843a5.613,5.613,0,0,1,.554-2.536A3.96,3.96,0,0,1,57.92-9.088a4.791,4.791,0,0,1,2.435-.6,4.373,4.373,0,0,1,3.366,1.323,5.076,5.076,0,0,1,1.23,3.6v.105a4.925,4.925,0,0,1-1.235,3.529A4.384,4.384,0,0,1,60.372.176a4.434,4.434,0,0,1-3.261-1.217,4.761,4.761,0,0,1-1.327-3.3Zm2.962.185a3.538,3.538,0,0,0,.413,1.934,1.376,1.376,0,0,0,1.222.615q1.582,0,1.617-2.435v-.3q0-2.558-1.635-2.558-1.485,0-1.608,2.206ZM77.256,0H74.285V-9.457L71.367-8.6v-2.25L76.983-12.8h.272Z" transform="translate(325 3929.955)" fill="#12263f"/>
    <path id="Trazado_141920" data-name="Trazado 141920" d="M27.5,0h104a27.5,27.5,0,0,1,0,55H27.5a27.5,27.5,0,0,1,0-55Z" transform="translate(721 3763)" fill="#fcd03e"/>
    <path id="Trazado_141921" data-name="Trazado 141921" d="M8.9-5.432H4.052v3.059h5.73V0H.967V-12.8H9.8v2.382H4.052v2.7H8.9ZM14.089-9.51V.325a3.452,3.452,0,0,1-.967,2.6,3.714,3.714,0,0,1-2.672.914,6.308,6.308,0,0,1-1.4-.149V1.45a5.667,5.667,0,0,0,.835.079A1.084,1.084,0,0,0,11.118.308V-9.51ZM10.9-11.962A1.322,1.322,0,0,1,11.355-13a1.724,1.724,0,0,1,1.187-.4,1.724,1.724,0,0,1,1.187.4,1.322,1.322,0,0,1,.457,1.037,1.322,1.322,0,0,1-.457,1.037,1.724,1.724,0,0,1-1.187.4,1.724,1.724,0,0,1-1.187-.4A1.322,1.322,0,0,1,10.9-11.962ZM20.364.176a4.889,4.889,0,0,1-3.542-1.305,4.507,4.507,0,0,1-1.354-3.4v-.246a5.84,5.84,0,0,1,.541-2.575,3.955,3.955,0,0,1,1.578-1.727,4.763,4.763,0,0,1,2.461-.611,4.117,4.117,0,0,1,3.164,1.244,4.887,4.887,0,0,1,1.16,3.467v1.151H18.483a2.135,2.135,0,0,0,.694,1.257,2.066,2.066,0,0,0,1.389.457,2.662,2.662,0,0,0,2.2-.984l1.354,1.6A3.784,3.784,0,0,1,22.548-.277,5.3,5.3,0,0,1,20.364.176ZM20.03-7.4q-1.3,0-1.547,1.723h2.988v-.229a1.467,1.467,0,0,0-.36-1.1A1.434,1.434,0,0,0,20.03-7.4ZM28.362-9.51l.1,1.116a3.27,3.27,0,0,1,2.716-1.292,2.407,2.407,0,0,1,2.435,1.433A3.165,3.165,0,0,1,36.4-9.686q2.892,0,2.971,3.5V0H36.4V-6a1.813,1.813,0,0,0-.246-1.063,1.048,1.048,0,0,0-.9-.334,1.4,1.4,0,0,0-1.31.782l.009.123V0H30.99V-5.985a1.906,1.906,0,0,0-.237-1.081,1.045,1.045,0,0,0-.905-.334,1.42,1.42,0,0,0-1.3.782V0H25.585V-9.51ZM49.9-4.685a5.735,5.735,0,0,1-1,3.538A3.2,3.2,0,0,1,46.2.176a2.742,2.742,0,0,1-2.153-.958V3.656H41.089V-9.51h2.769l.088.879a2.742,2.742,0,0,1,2.241-1.055,3.224,3.224,0,0,1,2.733,1.3A5.805,5.805,0,0,1,49.9-4.825Zm-2.962-.185q0-2.531-1.477-2.531a1.394,1.394,0,0,0-1.406.756V-2.9a1.439,1.439,0,0,0,1.424.791q1.415,0,1.459-2.443ZM54.325,0H51.354V-13.5h2.971Zm1.45-4.843a5.613,5.613,0,0,1,.554-2.536A3.96,3.96,0,0,1,57.92-9.088a4.791,4.791,0,0,1,2.435-.6,4.373,4.373,0,0,1,3.366,1.323,5.076,5.076,0,0,1,1.23,3.6v.105a4.925,4.925,0,0,1-1.235,3.529A4.384,4.384,0,0,1,60.372.176a4.434,4.434,0,0,1-3.261-1.217,4.761,4.761,0,0,1-1.327-3.3Zm2.962.185a3.538,3.538,0,0,0,.413,1.934,1.376,1.376,0,0,0,1.222.615q1.582,0,1.617-2.435v-.3q0-2.558-1.635-2.558-1.485,0-1.608,2.206ZM79.62,0H70.69V-1.934L74.8-6.258a4.909,4.909,0,0,0,1.521-2.751,1.913,1.913,0,0,0-.36-1.257,1.287,1.287,0,0,0-1.046-.431,1.3,1.3,0,0,0-1.1.576A2.366,2.366,0,0,0,73.4-8.684H70.427a4.2,4.2,0,0,1,.589-2.175,4.129,4.129,0,0,1,1.635-1.56,4.856,4.856,0,0,1,2.338-.562,4.777,4.777,0,0,1,3.195.958A3.42,3.42,0,0,1,79.3-9.272,4,4,0,0,1,79.022-7.8a6.456,6.456,0,0,1-.875,1.5,22.029,22.029,0,0,1-1.912,2.1L74.584-2.285H79.62Z" transform="translate(761 3797)" fill="#12263f"/>
    <path id="Trazado_141922" data-name="Trazado 141922" d="M27.5,0h104a27.5,27.5,0,0,1,0,55H27.5a27.5,27.5,0,0,1,0-55Z" transform="translate(1156 3859.955)" fill="#fcd03e"/>
    <path id="Trazado_141923" data-name="Trazado 141923" d="M8.9-5.432H4.052v3.059h5.73V0H.967V-12.8H9.8v2.382H4.052v2.7H8.9ZM14.089-9.51V.325a3.452,3.452,0,0,1-.967,2.6,3.714,3.714,0,0,1-2.672.914,6.308,6.308,0,0,1-1.4-.149V1.45a5.667,5.667,0,0,0,.835.079A1.084,1.084,0,0,0,11.118.308V-9.51ZM10.9-11.962A1.322,1.322,0,0,1,11.355-13a1.724,1.724,0,0,1,1.187-.4,1.724,1.724,0,0,1,1.187.4,1.322,1.322,0,0,1,.457,1.037,1.322,1.322,0,0,1-.457,1.037,1.724,1.724,0,0,1-1.187.4,1.724,1.724,0,0,1-1.187-.4A1.322,1.322,0,0,1,10.9-11.962ZM20.364.176a4.889,4.889,0,0,1-3.542-1.305,4.507,4.507,0,0,1-1.354-3.4v-.246a5.84,5.84,0,0,1,.541-2.575,3.955,3.955,0,0,1,1.578-1.727,4.763,4.763,0,0,1,2.461-.611,4.117,4.117,0,0,1,3.164,1.244,4.887,4.887,0,0,1,1.16,3.467v1.151H18.483a2.135,2.135,0,0,0,.694,1.257,2.066,2.066,0,0,0,1.389.457,2.662,2.662,0,0,0,2.2-.984l1.354,1.6A3.784,3.784,0,0,1,22.548-.277,5.3,5.3,0,0,1,20.364.176ZM20.03-7.4q-1.3,0-1.547,1.723h2.988v-.229a1.467,1.467,0,0,0-.36-1.1A1.434,1.434,0,0,0,20.03-7.4ZM28.362-9.51l.1,1.116a3.27,3.27,0,0,1,2.716-1.292,2.407,2.407,0,0,1,2.435,1.433A3.165,3.165,0,0,1,36.4-9.686q2.892,0,2.971,3.5V0H36.4V-6a1.813,1.813,0,0,0-.246-1.063,1.048,1.048,0,0,0-.9-.334,1.4,1.4,0,0,0-1.31.782l.009.123V0H30.99V-5.985a1.906,1.906,0,0,0-.237-1.081,1.045,1.045,0,0,0-.905-.334,1.42,1.42,0,0,0-1.3.782V0H25.585V-9.51ZM49.9-4.685a5.735,5.735,0,0,1-1,3.538A3.2,3.2,0,0,1,46.2.176a2.742,2.742,0,0,1-2.153-.958V3.656H41.089V-9.51h2.769l.088.879a2.742,2.742,0,0,1,2.241-1.055,3.224,3.224,0,0,1,2.733,1.3A5.805,5.805,0,0,1,49.9-4.825Zm-2.962-.185q0-2.531-1.477-2.531a1.394,1.394,0,0,0-1.406.756V-2.9a1.439,1.439,0,0,0,1.424.791q1.415,0,1.459-2.443ZM54.325,0H51.354V-13.5h2.971Zm1.45-4.843a5.613,5.613,0,0,1,.554-2.536A3.96,3.96,0,0,1,57.92-9.088a4.791,4.791,0,0,1,2.435-.6,4.373,4.373,0,0,1,3.366,1.323,5.076,5.076,0,0,1,1.23,3.6v.105a4.925,4.925,0,0,1-1.235,3.529A4.384,4.384,0,0,1,60.372.176a4.434,4.434,0,0,1-3.261-1.217,4.761,4.761,0,0,1-1.327-3.3Zm2.962.185a3.538,3.538,0,0,0,.413,1.934,1.376,1.376,0,0,0,1.222.615q1.582,0,1.617-2.435v-.3q0-2.558-1.635-2.558-1.485,0-1.608,2.206ZM73.4-7.638h1.4a1.453,1.453,0,0,0,1.661-1.626,1.406,1.406,0,0,0-.4-1.033,1.5,1.5,0,0,0-1.116-.4,1.606,1.606,0,0,0-1.024.343,1.046,1.046,0,0,0-.435.853H70.523a3.032,3.032,0,0,1,.563-1.8,3.715,3.715,0,0,1,1.56-1.235,5.334,5.334,0,0,1,2.193-.444,5.241,5.241,0,0,1,3.357.976,3.243,3.243,0,0,1,1.222,2.681,2.7,2.7,0,0,1-.505,1.56A3.6,3.6,0,0,1,77.44-6.574a3.441,3.441,0,0,1,1.6,1.121,2.951,2.951,0,0,1,.58,1.859A3.3,3.3,0,0,1,78.3-.853,5.472,5.472,0,0,1,74.839.176,5.675,5.675,0,0,1,72.505-.3a3.656,3.656,0,0,1-1.63-1.327,3.45,3.45,0,0,1-.554-1.929H73.3a1.334,1.334,0,0,0,.475,1.02,1.676,1.676,0,0,0,1.169.431,1.755,1.755,0,0,0,1.248-.435,1.454,1.454,0,0,0,.466-1.112,1.7,1.7,0,0,0-.483-1.371,2.021,2.021,0,0,0-1.336-.4H73.4Z" transform="translate(1196 3893.955)" fill="#12263f"/>
  </g>
</svg>
